<?xml version="1.0" encoding="UTF-8"?>
<svg width="24px" height="24px" viewBox="0 0 24 24" version="1.1" xmlns="http://www.w3.org/2000/svg" xmlns:xlink="http://www.w3.org/1999/xlink">
    <!-- Generator: Sketch 61.2 (89653) - https://sketch.com -->
    <title>help trigger</title>
    <desc>Created with Sketch.</desc>
    <g id="v05" stroke="none" stroke-width="1" fill="none" fill-rule="evenodd">
        <g id="Start" transform="translate(-580.000000, -403.000000)" fill="#28AAFF" fill-rule="nonzero">
            <g id="Hero-Content" transform="translate(240.000000, 278.000000)">
                <path d="M352,125 C358.630137,125 364,130.369863 364,137 C364,143.630137 358.630137,149 352,149 C345.369863,149 340,143.630137 340,137 C340,130.369863 345.369863,125 352,125 Z M352.25,141 C351.559644,141 351,141.559644 351,142.25 C351,142.940356 351.559644,143.5 352.25,143.5 C352.940356,143.5 353.5,142.940356 353.5,142.25 C353.5,141.559644 352.940356,141 352.25,141 Z M352.608,130 C351.672,130 350.853,130.189798 350.151,130.569395 C349.449,130.948992 348.915,131.427936 348.549,132.006228 C348.183,132.58452 348,133.155397 348,133.718861 C348,133.991696 348.1155,134.245255 348.3465,134.479537 C348.5775,134.71382 348.861,134.830961 349.197,134.830961 C349.767,134.830961 350.154,134.495848 350.358,133.825623 C350.574,133.185053 350.838,132.700178 351.15,132.370996 C351.462,132.041815 351.948,131.877224 352.608,131.877224 C353.172,131.877224 353.6325,132.040332 353.9895,132.366548 C354.3465,132.692764 354.525,133.09312 354.525,133.567616 C354.525,133.810795 354.4665,134.03618 354.3495,134.243772 C354.2325,134.451364 354.0885,134.63968 353.9175,134.808719 C353.7465,134.977758 353.469,135.228351 353.085,135.560498 C352.647,135.940095 352.299,136.267794 352.041,136.543594 C351.783,136.819395 351.576,137.13968 351.42,137.504448 C351.264,137.869217 351.186,138.300712 351.186,138.798932 C351.186,139.196323 351.2925,139.495848 351.5055,139.697509 C351.7185,139.89917 351.981,140 352.293,140 C352.893,140 353.25,139.691578 353.364,139.074733 C353.43,138.784104 353.4795,138.580961 353.5125,138.465302 C353.5455,138.349644 353.592,138.233986 353.652,138.118327 C353.712,138.002669 353.8035,137.875148 353.9265,137.735765 C354.0495,137.596382 354.213,137.434757 354.417,137.25089 C355.155,136.598458 355.6665,136.134342 355.9515,135.858541 C356.2365,135.58274 356.4825,135.255042 356.6895,134.875445 C356.8965,134.495848 357,134.053974 357,133.549822 C357,132.909253 356.8185,132.316133 356.4555,131.770463 C356.0925,131.224792 355.578,130.793298 354.912,130.475979 C354.246,130.15866 353.478,130 352.608,130 Z" id="help-trigger"></path>
            </g>
        </g>
    </g>
</svg>