<?xml version="1.0" encoding="UTF-8"?>
<svg width="32px" height="32px" viewBox="0 0 32 32" version="1.1" xmlns="http://www.w3.org/2000/svg" xmlns:xlink="http://www.w3.org/1999/xlink">
    <!-- Generator: Sketch 61.1 (89650) - https://sketch.com -->
    <title>Core Elements / Widget Button / Preview / Normal</title>
    <desc>Created with Sketch.</desc>
    <defs>
        <linearGradient x1="50%" y1="0%" x2="50%" y2="100%" id="linearGradient-1">
            <stop stop-color="#FD8F3F" offset="0%"></stop>
            <stop stop-color="#ED703E" offset="100%"></stop>
        </linearGradient>
    </defs>
    <g id="v05" stroke="none" stroke-width="1" fill="none" fill-rule="evenodd">
        <g id="Early-Access-/-Initial" transform="translate(-401.000000, -409.000000)">
            <g id="Early-Access" transform="translate(237.000000, 148.000000)">
                <g id="Early-Access-Features" transform="translate(1.000000, 261.000000)">
                    <g id="Core-Elements-/-Widget-Button-/-Preview-/-Normal" transform="translate(165.000000, 2.000000)">
                        <path d="M9.4628695,0 L18.5371305,0 C23.763329,-9.60037093e-16 28,4.23667099 28,9.4628695 L28,18.5371305 C28,23.763329 23.763329,28 18.5371305,28 L9.4628695,28 C4.23667099,28 6.40024728e-16,23.763329 0,18.5371305 L0,9.4628695 C-6.40024728e-16,4.23667099 4.23667099,9.60037093e-16 9.4628695,0 Z" id="stackbit-widget-bg" fill="url(#linearGradient-1)"></path>
                        <path d="M13.3853685,6.75327576 L5.88429046,11.0603915 C5.28293045,11.4022329 4.93420109,12.0692615 4.99265289,12.7660093 L4.99265289,12.7660093 L4.99265289,15.6374197 C4.94170217,16.3430689 5.30415992,17.0132561 5.91825761,17.3487804 L5.91825761,17.3487804 L13.4193356,21.512182 C13.9517706,21.8106651 14.5981371,21.8106651 15.1304306,21.512182 L15.1304306,21.512182 L22.4899788,17.3487804 C23.0947355,17.0065082 23.4471446,16.3377567 23.3915234,15.6374197 L23.3915234,15.6374197 L23.3915234,12.7660093 C23.4438895,12.0724201 23.0964339,11.41056 22.4998859,11.06757 L22.4998859,11.06757 L15.1403376,6.76045429 C14.8670437,6.60051673 14.5617639,6.52054795 14.2566257,6.52054795 L14.2566257,6.52054795 C13.956158,6.52054795 13.6556903,6.59807603 13.3853685,6.75327576 L13.3853685,6.75327576 Z M13.9797935,17.4320513 L6.47871551,13.1249356 C6.38558892,13.0726759 6.30887978,12.9948607 6.25750447,12.9003913 L6.25750447,12.9003913 C6.10606762,12.6228695 6.20513846,12.2735624 6.47871551,12.1199419 L6.47871551,12.1199419 L13.9797935,7.81282622 C14.1550074,7.71031687 14.3706987,7.71031687 14.5459126,7.81282622 L14.5459126,7.81282622 L21.9054608,12.1299919 C22.1762073,12.2886373 22.2690508,12.6398108 22.1128019,12.9146048 L22.1128019,12.9146048 C21.9565531,13.1893987 21.6102297,13.283581 21.3393417,13.1249356 L21.3393417,13.1249356 L14.2600225,8.97718317 L7.91099682,12.6224388 L14.5374208,16.4270576 C14.8109979,16.5832623 14.9079458,16.9348666 14.7539614,17.2122448 L14.7539614,17.2122448 C14.6495124,17.4006093 14.4567488,17.5064208 14.2581826,17.5064208 L14.2581826,17.5064208 C14.1637822,17.5064208 14.0679665,17.482301 13.9797935,17.4320513 L13.9797935,17.4320513 Z M13.9911159,20.4470323 L6.49003789,16.2834871 C6.46852536,16.2732936 6.44743743,16.2616644 6.42748173,16.248743 L6.42748173,16.248743 C6.16338717,16.0788991 6.08497968,15.7239928 6.2524094,15.4560902 L6.2524094,15.4560902 C6.41955606,15.1883311 6.76955919,15.1086495 7.03351222,15.2784934 L7.03351222,15.2784934 L14.2600225,19.2884181 L21.3464182,15.2784934 C21.6199953,15.123868 21.9653279,15.2235059 22.1177555,15.5010277 L22.1177555,15.5010277 C22.270183,15.7786931 22.1719614,16.1288616 21.8983843,16.2834871 L21.8983843,16.2834871 L14.5388361,20.4470323 C14.4536352,20.4948412 14.3592348,20.518674 14.264976,20.518674 L14.264976,20.518674 C14.1705756,20.518674 14.0763168,20.4948412 13.9911159,20.4470323 L13.9911159,20.4470323 Z" id="stackbit-symbol" fill="#FFFFFF"></path>
                    </g>
                </g>
            </g>
        </g>
    </g>
</svg>