<svg width="28" height="28" viewBox="0 0 28 28" xmlns="http://www.w3.org/2000/svg"><title>Integrate in minutes icon</title><g fill="#FFF" fill-rule="nonzero"><path d="M13.998 28C21.731 28 28 21.732 28 14S21.731 0 13.998 0C6.268 0 0 6.268 0 14s6.268 14 13.998 14zm0-2C7.374 26 2 20.627 2 13.998 2 7.37 7.374 2 13.998 2 20.627 2 26 7.37 26 13.998 26 20.627 20.627 26 13.998 26zm5.954-10A1.154 1.154 0 0021 14.862c0-.612-.483-1.112-1.095-1.154l-4.965-.005a.634.634 0 01-.581-.591V6.159c0-.64-.528-1.159-1.18-1.159A1.17 1.17 0 0012 6.12v9.275c.02.32.275.58.598.605h7.354z"/><path d="M21.952 16A1.154 1.154 0 0023 14.862c0-.612-.377-3.45-2.377-6.596C18.623 5.121 13.831 5 13.18 5A1.17 1.17 0 0012 6.12v9.275c.02.32.275.58.598.605h9.354z" opacity=".2"/></g></svg>