<svg width="57" height="28" viewBox="0 0 57 28" xmlns="http://www.w3.org/2000/svg"><title>Requires no code changes icon</title><g fill="#FFF" fill-rule="nonzero"><path d="M9.696 24.622a1.383 1.383 0 001.9 0c.525-.51.545-1.353.02-1.862l-7.562-7.254a.698.698 0 010-1.008l7.562-7.255c.525-.509.505-1.352-.02-1.861a1.374 1.374 0 00-1.9 0l-9.48 9.116a.698.698 0 000 1.008l9.48 9.116zM47.304 24.622a1.383 1.383 0 01-1.9 0c-.525-.51-.545-1.353-.02-1.862l7.562-7.254a.698.698 0 000-1.008l-7.562-7.255c-.525-.509-.505-1.352.02-1.861a1.374 1.374 0 011.9 0l9.48 9.116a.698.698 0 010 1.008l-9.48 9.116z" opacity=".5"/><path d="M38.901 28c.74 0 1.34-.585 1.34-1.307V13.035c0-.722-.6-1.307-1.34-1.307-.917 0-1.224-.437-1.224-.976V9.028C37.677 4.042 33.891 0 29.22 0c-4.67 0-8.456 4.042-8.456 9.028v1.724c0 .54-.188.976-1.182.976-.74 0-1.34.585-1.34 1.307v13.658c0 .722.6 1.307 1.34 1.307h19.319zm-4.764-17h-9.791c-.61 0-1.104-.45-1.104-1.004V7.822c0-3.216 2.686-5.822 6-5.822 3.313 0 6 2.606 6 5.822v2.174c0 .555-.495 1.004-1.105 1.004zM29.17 22.996a.788.788 0 01-.704-.787v-1.996a.786.786 0 00-.346-.658 1.927 1.927 0 01-.878-1.63c.01-1.018.859-1.876 1.905-1.923 1.147-.051 2.095.838 2.095 1.943 0 .666-.345 1.253-.87 1.604a.786.786 0 00-.345.656v2.036a.772.772 0 01-.857.755z"/></g></svg>