<svg width="39" height="33" viewBox="0 0 39 33" xmlns="http://www.w3.org/2000/svg"><title>Prevent site breaking changes icon</title><path d="M35.75 0a2.753 2.753 0 012.75 2.75v27.5A2.753 2.753 0 0135.75 33h-33A2.753 2.753 0 010 30.25V2.75A2.753 2.753 0 012.75 0zm.917 7.333H1.833V30.25c0 .505.412.917.917.917h33a.918.918 0 00.917-.917V7.333zm-33-4.583a.917.917 0 100 1.834.917.917 0 000-1.834zm2.75 0a.917.917 0 100 1.834.917.917 0 000-1.834zm2.75 0a.917.917 0 100 1.834.917.917 0 000-1.834zm10.128 8.584c-.267 0-.534.208-.667.347l-1.603 4.382-4.471.279a.646.646 0 00-.601.486c-.067.278 0 .626.267.765l3.404 2.921-1.135 4.52c-.067.279.067.626.267.765.133.07.267.139.4.139.134 0 .269-.069.402-.139l3.737-2.503 3.738 2.573c.2.208.533.139.734 0a.71.71 0 00.267-.765l-1.134-4.52 3.47-2.92a.81.81 0 00.2-.767.646.646 0 00-.6-.486l-4.473-.278-1.601-4.38c-.067-.21-.334-.42-.6-.42z" fill="#FFF" fill-rule="nonzero"/></svg>