<svg width="43" height="26" viewBox="0 0 43 26" xmlns="http://www.w3.org/2000/svg"><title>Next.js</title><path d="M10.146 6.781h8.11v.646H10.89v4.863h6.927v.646H10.89v5.338h7.45v.646h-8.194V6.781zm8.837 0h.862l3.818 5.339 3.903-5.339L32.875 0l-8.722 12.68 4.495 6.24h-.896l-4.089-5.678-4.106 5.678h-.878l4.528-6.24-4.224-5.899zm9.986.646v-.646h9.242v.646h-4.258V18.92h-.743V7.427h-4.241zM0 6.781h.93L13.743 26l-5.296-7.08L.778 7.7.742 18.92H0V6.781zM38.136 18.08a.263.263 0 01-.266-.27c0-.152.114-.27.266-.27.154 0 .266.118.266.27 0 .152-.112.27-.266.27zm.73-.711h.398c.006.216.163.361.394.361.259 0 .405-.156.405-.448V15.43h.406v1.853c0 .526-.304.829-.807.829-.472 0-.796-.294-.796-.744zm2.132-.024h.402c.034.249.276.407.625.407.326 0 .565-.169.565-.401 0-.2-.152-.32-.498-.401l-.336-.082c-.472-.11-.687-.34-.687-.724 0-.466.38-.777.95-.777.529 0 .916.31.94.752h-.395c-.038-.242-.248-.392-.551-.392-.32 0-.534.154-.534.39 0 .187.138.294.478.374l.287.07c.535.126.756.343.756.737 0 .501-.387.815-1.005.815-.579 0-.968-.3-.997-.768z" fill="#FFF" fill-rule="nonzero"/></svg>