<svg width="23" height="18" viewBox="0 0 23 18" xmlns="http://www.w3.org/2000/svg"><title>11ty</title><path d="M17.675 5c.267 0 .478.117.614.285.117.144.178.323.213.5l.002.01 1.26 4.931 1.03-4.89c.03-.18.08-.36.182-.508l.012-.018a.741.741 0 01.599-.31h.793c.12.003.24.037.342.106.1.068.16.153.195.225a.98.98 0 01.083.42V5.78c-.001.038-.01.086-.012.107l-.021.13-.007.04-2.011 8.969-.007.03c-.208.985-.484 1.737-.863 2.188l.002-.004c-.384.466-.916.728-1.568.759l-.036.001H18.3c-.622-.003-1.207-.137-1.511-.558l-.01-.015-.005-.006-.003-.005a.674.674 0 01-.092-.251l-.002-.014a1.653 1.653 0 01-.018-.24v-.055c.001-.202.023-.396.087-.552a.655.655 0 01.192-.264.65.65 0 01.396-.142h.017c.046 0 .092.007.116.011l.018.003.059.013.06.013.23.056.02.006.043.01c.076.019.139.033.19.043l.028.005.022.003a1.1 1.1 0 00.052.008l.006-.004.003-.003a.745.745 0 00.156-.195l.029-.049c.128-.22.203-.5.207-.857v-.028c0-.11-.056-.403-.198-.925l-.013-.046L16.03 6.03l-.007-.045a1.721 1.721 0 01-.023-.22v-.022c0-.127.012-.269.066-.393l.009-.02a.557.557 0 01.182-.22.613.613 0 01.34-.11h1.078zM3.34 0c.118 0 .24.03.348.098a.606.606 0 01.213.232c.076.143.096.31.098.462v13.15c0 .233-.022.454-.092.63a.64.64 0 01-.595.428H2.045c-.363 0-.536-.256-.602-.425l-.003-.008a1.763 1.763 0 01-.087-.599V2.77l-.46.105-.092.02-.023.005-.015.002-.012.002a.711.711 0 01-.322-.023.608.608 0 01-.275-.178l-.01-.012-.018-.021-.015-.024-.01-.017a.962.962 0 01-.1-.458v-.796c0-.147.028-.312.13-.458A.723.723 0 01.581.626L.587.625 3.1.03l.027-.005c.056-.01.131-.022.196-.025h.019zm5.016 0a.648.648 0 01.332.098.606.606 0 01.213.232c.076.143.096.31.098.462v13.15c0 .233-.022.454-.092.63a.64.64 0 01-.595.428H7.045c-.363 0-.536-.256-.602-.425l-.003-.008a1.763 1.763 0 01-.087-.599V2.77l-.46.105-.099.021-.02.004-.018.003-.005.001a.711.711 0 01-.322-.023.608.608 0 01-.275-.178l-.01-.012-.018-.021-.015-.024c-.09-.145-.108-.326-.11-.475v-.796c0-.147.028-.312.13-.458a.723.723 0 01.452-.291l.005-.001L8.099.03l.027-.005c.056-.01.131-.022.196-.025h.035zm4.62 0a.82.82 0 01.371.085c.09.045.158.104.21.166l.046.06c.065.095.093.2.108.282.015.083.022.176.023.275v3.395h1.214a.76.76 0 01.592.265c.077.096.11.201.126.283.016.078.023.163.024.252v.404c0 .099-.006.194-.024.281a.667.667 0 01-.114.268l-.012.015a.76.76 0 01-.592.265h-1.214v5.22c.002.513.055.882.14 1.125l.005.012c.053.133.102.228.146.292l.01.015c.021.028.036.044.044.051.058.023.15.043.289.045h.837c.193 0 .421.047.592.205.158.145.2.325.202.472v.537c0 .158-.04.351-.2.508-.168.164-.397.22-.602.222h-1.13c-.302 0-.58-.02-.831-.061l-.048-.008-.04-.009a2.678 2.678 0 01-.762-.303l-.034-.02-.03-.019a2.084 2.084 0 01-.627-.623l-.02-.032-.004-.006a3.578 3.578 0 01-.362-.967l-.01-.042v-.004a6.98 6.98 0 01-.126-1.37v-5.24h-.415a.825.825 0 01-.354-.076l-.018-.009a.666.666 0 01-.258-.23.913.913 0 01-.129-.495v-.413a.913.913 0 01.13-.496.666.666 0 01.257-.229.814.814 0 01.353-.085h.44l.196-3.377c.004-.178.031-.364.117-.52l.01-.02a.677.677 0 01.246-.243.784.784 0 01.379-.103h.848z" fill="#FFF" fill-rule="nonzero"/></svg>