<svg width="78" height="20" xmlns="http://www.w3.org/2000/svg"><title>Netlify CMS</title><path d="M4.605 11.373c0 .009-.009.017-.026.034l-2.298.972h-.009s-.008 0-.017-.009l-1.85-1.827c-.008-.009-.017-.026-.008-.034.008-.008.017-.017.026-.017H.43l4.149.857c.017 0 .025.008.025.024zm.22-.573c-.01 0-.01 0 0 0L.041 9.803c-.018 0-.026-.009-.026-.017 0-.008 0-.016.009-.024l2.67-2.626c0-.008.008-.008.017-.008.017.008.017.008.026.016 0 .009 2.29 3.299 2.315 3.332.008.009.008.025 0 .033a1.26 1.26 0 00-.203.274c-.008.008-.017.017-.026.017zm.997-6.688c-.009-.009-.017-.009-.009-.025 0-.009 0-.016.009-.025L9.844.09c0-.009.009-.009.017-.009.009 0 .009 0 .018.009l1.731 1.703c.009.008.009.025 0 .033L9.523 5.043c-.008.008-.017.016-.025.016h-.009a1.034 1.034 0 00-.963.175c-.009.008-.009.008-.017.008h-.008c-.11-.05-2.679-1.13-2.679-1.13zm-.245 6.081l-2.4-3.48a.025.025 0 010-.034L5.33 4.552c0-.008.009-.008.018-.008h.008c0 .008 2.543 1.072 2.83 1.196.009.009.018.017.018.034a.973.973 0 00.254.905c.007.009.007.026 0 .033l-2.265 3.49c-.009.008-.017.017-.026.017h-.009a1.139 1.139 0 00-.287-.042c-.085 0-.177.016-.262.033h-.008c-.009 0-.017-.008-.026-.017zm.786 2.169l4.478 6.464a.025.025 0 010 .033l-.98.972c0 .009-.009.009-.017.009 0 0-.009 0-.017-.009l-5.594-5.508a.027.027 0 010-.034l.009-.008 1.217-1.878c.008-.008.017-.016.025-.016h.009a1.152 1.152 0 00.836-.041h.009c.008 0 .017.008.025.016zm-1.386-.324a.025.025 0 01.008.016L3.827 13.84c-.008.009-.017.017-.025.017 0 0-.008 0-.017-.008l-1.022-1.005c-.009-.009-.009-.017-.009-.025s.009-.017.017-.017l2.096-.889h.008c.009 0 .017.009.025.017.026.041.051.075.077.108zm2.036-.806c0-.066-.017-.125-.026-.191 0-.017 0-.025.018-.033l6.008-2.551h.009s.008 0 .016.009a.89.89 0 00.11.09c.017 0 .017.018.017.026l-.524 3.198c0 .017-.008.026-.026.026a.848.848 0 00-.684.431c-.008.009-.017.017-.025.017h-.009l-4.859-.997c-.017 0-.025-.008-.025-.025zm5.332 2.202c.018.008.018.025 0 .025l-.76 4.652c0 .008-.01.008-.01.017l-.27.265c0 .009-.008.009-.016.009-.009 0-.009 0-.018-.009L6.81 11.98c-.009-.009-.009-.026 0-.034.026-.033.042-.066.068-.108.008-.008.016-.017.025-.017h.008l4.901 1.006c.017.008.026.017.026.024a.86.86 0 00.507.583zm3.693.266c.009 0 .017.008.017.033 0 .008 0 .017-.008.024l-3.668 3.615c0 .008-.008.008-.017.008h-.017c-.009-.008-.017-.017-.017-.033l.635-3.872c0-.008.008-.025.016-.025a.908.908 0 00.38-.282c.009 0 .018-.008.026-.008h.008l2.645.54zm-3.279-6.032c.009.008.018.016.018.033a.713.713 0 00-.018.141v.075c0 .009-.008.017-.017.025l-5.974 2.534h-.009c-.008 0-.017 0-.025-.008a.026.026 0 010-.034l2.24-3.448c.008-.008.017-.016.025-.016h.008c.06.008.11.016.161.016a1 1 0 00.837-.448c.008-.009.017-.017.025-.017h.008l2.721 1.147zm6.592 2.775c.008.008.008.017.008.025s0 .016-.009.025l-2.754 2.716c0 .009-.009.009-.018.009h-.007l-3.009-.624c-.017 0-.026-.008-.026-.024a.833.833 0 00-.32-.582c-.01-.008-.01-.017-.01-.025l.534-3.249c0-.016.017-.025.025-.025a.848.848 0 00.575-.332c.008-.008.017-.008.025-.008h.008l4.978 2.094zm.515-.499c.017.009.017.033 0 .033l-.017.017c0 .009-.009.009-.017.009h-.008l-5.188-2.186c-.009 0-.017-.016-.017-.025 0-.008.008-.017.017-.024l2.104-.89h.009s.008 0 .016.009l3.101 3.057zM9.996 5.45c-.009-.008-.009-.024 0-.041l2.037-3.14c0-.009.008-.017.017-.017.008 0 .008 0 .016.009l1.809 1.786c.009.008.009.016.009.025l-.474 2.915c0 .017-.009.025-.017.025a.896.896 0 00-.296.15c0 .008-.008.008-.017.008h-.008l-2.89-1.22c-.009-.01-.017-.018-.017-.026a1.066 1.066 0 00-.169-.474zm4.03 1.62c-.008 0-.016-.016-.025-.024l.398-2.418c0-.017.008-.025.017-.025h.008s.008 0 .017.008l1.817 1.787c.008.008.008.017.008.025s-.008.016-.017.024l-1.943.823h-.009c-.008 0-.008 0-.017-.009a.84.84 0 00-.253-.19zm29.856-.956h1.352V4.918h-1.352v1.196zm4.005-.64c-.371.366-.557.89-.557 1.57v.558h-.922v1.013h.922V13.7h1.352V8.615h1.225V7.602h-1.225v-.54c0-.673.32-1.006.971-1.006.195 0 .372.017.516.042l.034-1.072a3.157 3.157 0 00-.76-.1c-.66-.008-1.184.183-1.556.549zm5.02 6.265L51.63 7.602h-1.462l2.121 6.064-.194.524c-.102.299-.237.507-.414.631-.169.125-.431.191-.77.191l-.253-.016v1.063c.212.063.43.096.65.1.88 0 1.505-.515 1.877-1.537l2.4-7.02H54.14l-1.234 4.137zm-9.025 1.96h1.352V7.603h-1.352V13.7zm-5.814-1.179c-.093-.1-.135-.274-.135-.507V8.607h1.064V7.593h-1.064V6.114H36.58v1.479h-.989v1.014h.99v3.456c0 1.163.523 1.745 1.562 1.745.288 0 .583-.042.896-.134v-1.063c-.16.042-.322.058-.473.058-.245.009-.406-.041-.499-.149zm-4.394-2.443h-2.578c.06-.474.212-.839.44-1.097.228-.265.533-.39.904-.39.372 0 .668.116.879.35.211.231.33.58.363 1.037v.1h-.008zM32.44 7.485a2.573 2.573 0 00-1.403.399c-.422.266-.743.64-.98 1.122a3.752 3.752 0 00-.346 1.628v.166c0 .906.27 1.637.802 2.185.533.548 1.226.823 2.088.823.498 0 .954-.1 1.36-.3.394-.188.727-.482.963-.847l-.726-.706c-.389.506-.896.764-1.513.764-.44 0-.81-.15-1.098-.44-.296-.29-.456-.69-.499-1.196h3.938v-.549c0-.972-.228-1.72-.667-2.251-.465-.532-1.1-.798-1.919-.798zm-5.839 0c-.726 0-1.31.275-1.758.814l-.042-.706h-1.267v6.098h1.351V9.354c.271-.498.677-.747 1.218-.747.371 0 .642.09.81.282.17.183.246.474.246.856v3.946h1.352v-4.03c-.017-1.445-.65-2.176-1.91-2.176zM40.434 13.7h1.353V5.043h-1.353V13.7zm19.247-1.083c.344 0 .63-.099.856-.298.228-.199.348-.445.363-.738h1.3a2 2 0 01-.358 1.062 2.337 2.337 0 01-.907.78 2.72 2.72 0 01-1.237.287c-.859 0-1.539-.276-2.042-.828-.503-.552-.754-1.314-.754-2.286v-.141c0-.928.25-1.67.748-2.228.5-.557 1.18-.836 2.042-.836.73 0 1.325.211 1.784.634.46.422.7.977.723 1.664h-1.298a1.25 1.25 0 00-.36-.862 1.167 1.167 0 00-.86-.338c-.446 0-.79.16-1.033.482-.241.32-.364.808-.368 1.461v.22c0 .66.12 1.154.36 1.479.24.324.587.486 1.041.486zm4.76-5.113l.04.636c.43-.5 1.02-.749 1.77-.749.82 0 1.381.312 1.684.935.446-.623 1.074-.935 1.883-.935.677 0 1.18.186 1.511.558.332.371.5.92.508 1.644v4.004H70.46V9.633c0-.387-.085-.67-.256-.85-.17-.181-.451-.271-.845-.271-.313 0-.57.083-.768.25a1.315 1.315 0 00-.417.657l.005 4.178H66.8v-4.01c-.019-.717-.388-1.075-1.106-1.075-.552 0-.944.223-1.174.67v4.415h-1.38V7.504h1.299zm12.155 4.438a.62.62 0 00-.303-.558c-.202-.127-.538-.24-1.007-.338a5.198 5.198 0 01-1.174-.372c-.688-.33-1.032-.808-1.032-1.436 0-.525.222-.965.669-1.318.446-.353 1.014-.529 1.701-.529.735 0 1.327.18 1.779.54.452.36.678.829.678 1.403h-1.378a.84.84 0 00-.296-.656c-.196-.175-.457-.262-.782-.262-.303 0-.55.07-.74.209a.655.655 0 00-.287.557c0 .21.09.374.267.49.177.117.537.234 1.077.352.541.118.966.26 1.274.422.308.164.537.36.686.589.15.229.224.507.224.834 0 .548-.228.991-.686 1.332-.458.34-1.057.51-1.798.51-.503 0-.951-.091-1.344-.271-.394-.18-.7-.428-.92-.743a1.752 1.752 0 01-.328-1.02h1.338c.02.323.142.572.369.746.227.175.528.262.902.262.363 0 .639-.068.828-.205a.636.636 0 00.283-.538z" fill="#FFF"/></svg>