<svg width="66" height="15" viewBox="0 0 66 15" xmlns="http://www.w3.org/2000/svg"><title>Contentful</title><g fill="none" fill-rule="evenodd"><path d="M7.607 1a6.67 6.67 0 014.683 1.948 1.482 1.482 0 010 2.078 1.44 1.44 0 01-2.052 0 3.692 3.692 0 00-2.63-1.105c-.886 0-1.74.32-2.406.894a1.49 1.49 0 01-.402.405 3.772 3.772 0 00-.914 2.467c-.001.899.318 1.765.893 2.445a1.491 1.491 0 01.436.436 3.678 3.678 0 005.023-.219 1.441 1.441 0 012.052 0 1.482 1.482 0 010 2.078 6.784 6.784 0 01-4.683 1.948 6.67 6.67 0 01-4.682-1.948l.05.048-.052-.047a1.502 1.502 0 01-.103-.114A6.944 6.944 0 011 7.687a6.834 6.834 0 011.925-4.74l-.133.14a1.499 1.499 0 01.285-.284l.073-.067A6.783 6.783 0 017.607 1zm-4.685 9.326a1.49 1.49 0 00.003 2.101l.023.022.027.026.06.055a1.484 1.484 0 00.367.219c.538.224 1.18.116 1.617-.322a1.49 1.49 0 00.196-1.859 3.775 3.775 0 01-.436-.436 1.476 1.476 0 00-1.857.194zm1.029-.407c.386 0 .755.155 1.026.43a1.482 1.482 0 010 2.078 1.44 1.44 0 01-1.637.294l.062.028a1.47 1.47 0 01-.127-.06l.065.032a1.441 1.441 0 01-.156-.085l.09.053a1.471 1.471 0 01-.122-.073l.032.02a1.441 1.441 0 01-.091-.062h0l-.062-.05h0l-.083-.075-.023-.022a1.482 1.482 0 01-.1-1.966l.1-.112a1.44 1.44 0 011.026-.43zm-.874-7.116l-.152.145h0l-.133.14a1.49 1.49 0 00.133 1.95A1.48 1.48 0 004.8 5.22a3.702 3.702 0 01.402-.405 1.486 1.486 0 00-.181-1.88 1.48 1.48 0 00-1.944-.132zm.874-.286c.386 0 .755.155 1.026.43a1.482 1.482 0 010 2.079 1.44 1.44 0 01-2.052 0 1.482 1.482 0 010-2.078h0l.106-.098a1.44 1.44 0 01.92-.333z" stroke="#FFF" stroke-width=".5"/><path d="M18.834 9.05c.449-.324.449-.13.834.195.192.195.641.52.32.78-.57.537-1.334.819-2.117.779-1.7.07-3.134-1.267-3.207-2.987v-.409a3.394 3.394 0 011.026-2.272 2.966 2.966 0 012.181-.715 3.59 3.59 0 011.155.195c.243.116.478.246.706.39.449.325.256.52-.128.844a.895.895 0 00-.193.26c-.192.195-.257.324-.513.13a1.748 1.748 0 00-1.476-.325c-1.667.454-1.54 3.44.45 3.44.344-.002.679-.108.962-.304zm46.06 1.689a.555.555 0 01-.514-.52V3.597a.555.555 0 01.514-.52h.513c.276.02.496.243.513.52v6.622a.555.555 0 01-.513.52h-.513zm-2.823-.78a2.551 2.551 0 01-1.989.845c-1.668 0-2.502-1.429-2.502-2.987V5.155a.555.555 0 01.514-.52h.513c.277.02.496.243.513.52v2.662c-.06.363.029.735.247 1.03.217.294.546.485.908.528h.256a1.5 1.5 0 001.057-.47c.277-.293.428-.684.419-1.088V5.155a.555.555 0 01.513-.52h.513c.277.02.496.243.513.52v5.064a.555.555 0 01-.513.52h-.449c-.256 0-.449-.26-.513-.52v-.26zm-6.543-5.323h1.026c.277.02.496.242.513.52v.305a.516.516 0 01-.148.369.505.505 0 01-.365.15h-1.026v4.155a.555.555 0 01-.514.52h-.513a.555.555 0 01-.513-.52V4.357c-.093-1.215.79-2.283 1.989-2.403h.898c.276.02.496.242.513.52v.324a.516.516 0 01-.148.37.505.505 0 01-.365.15h-.45c-.577 0-.833.454-.833 1.039l-.064.26v.019zm-3.721 0h1.155c.276.02.496.242.513.52v.305a.555.555 0 01-.513.519h-1.155v2.532c0 .52.257.779.706.779h.256c.277.02.496.242.513.52v.324a.555.555 0 01-.513.52h-.705c-1.22-.065-1.797-.91-1.797-2.143V3.578a.555.555 0 01.514-.52h.513c.276.02.496.242.513.52v1.058zm-16.68 0h1.156c.276.02.496.242.513.52v.305a.555.555 0 01-.513.519h-1.155v2.532c0 .52.256.779.706.779h.256a.504.504 0 01.365.15c.097.098.15.231.148.37v.324a.555.555 0 01-.513.52h-.32c-1.348 0-2.182-.585-2.182-2.143V3.578a.555.555 0 01.513-.52h.514c.276.02.496.242.513.52v1.058zm-6.735.714a2.769 2.769 0 011.925-.844c1.668 0 2.566 1.364 2.566 2.987v2.662a.555.555 0 01-.514.519h-.513a.555.555 0 01-.513-.52V7.493a1.356 1.356 0 00-.247-1.03 1.325 1.325 0 00-.908-.528h-.256a1.5 1.5 0 00-1.057.47 1.536 1.536 0 00-.419 1.088v2.662a.555.555 0 01-.513.519h-.513a.555.555 0 01-.513-.52V5.09a.555.555 0 01.513-.52h.43c.256 0 .449.26.513.52l.02.26zm16.68 0a2.769 2.769 0 011.924-.844c1.668 0 2.566 1.364 2.566 2.987v2.662a.555.555 0 01-.514.519h-.513a.555.555 0 01-.513-.52V7.493a1.356 1.356 0 00-.247-1.03 1.325 1.325 0 00-.908-.528h-.256a1.5 1.5 0 00-1.057.47 1.536 1.536 0 00-.419 1.088v2.662a.555.555 0 01-.513.519h-.513a.555.555 0 01-.513-.52V5.09a.555.555 0 01.513-.52h.43c.256 0 .449.26.513.52v.26h.02zM23.26 4.506a3.06 3.06 0 00-2.196.867c-.59.574-.931 1.36-.947 2.184v.13c-.077 1.663 1.18 3.08 2.822 3.182h.321c1.643.077 3.043-1.195 3.143-2.857v-.325c.077-1.663-1.18-3.08-2.822-3.18h-.32zm15.204 3.7c.21.78.937 1.297 1.732 1.234.4.008.795-.081 1.154-.26.065 0 .129-.064.193-.064.192-.13.385-.195.513 0l.257.26.256.26c.257.324.064.389-.192.583-.656.41-1.41.634-2.181.65-1.989 0-3.336-1.234-3.336-3.247-.05-.8.222-1.588.753-2.188a2.95 2.95 0 012.07-.993h.365c1.925 0 3.015 1.169 3.08 3.116 0 .52.064.715-.514.715h-4.17l.02-.065zm-15.14-2.272c.444.016.863.21 1.163.539.302.33.46.767.441 1.214a1.638 1.638 0 01-.667 1.525 1.594 1.594 0 01-1.642.133 1.63 1.63 0 01-.898-1.398v-.26a1.606 1.606 0 011.41-1.753h.193zm15.14.974h3.079a1.35 1.35 0 00-1.476-1.103 1.578 1.578 0 00-1.603 1.103z" fill="#FFF" fill-rule="nonzero"/></g></svg>