<svg width="47" height="14" viewBox="0 0 47 14" xmlns="http://www.w3.org/2000/svg"><title>GitHub</title><path d="M9.215 6.022h-3.85a.18.18 0 00-.18.182v1.904c0 .1.08.182.18.182h1.501v2.364s-.337.117-1.27.117c-1.1 0-2.637-.407-2.637-3.823 0-3.418 1.6-3.868 3.103-3.868 1.301 0 1.861.232 2.218.344.112.034.215-.078.215-.179l.43-1.84a.17.17 0 00-.069-.141C8.712 1.159 7.828.66 5.596.66 3.027.66.39 1.765.39 7.08c0 5.317 3.019 6.109 5.563 6.109 2.107 0 3.385-.91 3.385-.91.052-.03.058-.104.058-.138V6.204a.18.18 0 00-.18-.182m19.847-4.725a.18.18 0 00-.18-.183h-2.167a.181.181 0 00-.18.182v4.237h-3.38V1.296a.181.181 0 00-.178-.182h-2.169a.181.181 0 00-.179.182v11.471c0 .101.08.184.18.184h2.168a.18.18 0 00.179-.184V7.861h3.38l-.006 4.906c0 .101.08.184.18.184h2.173c.1 0 .178-.083.179-.184V1.297M13.307 2.801c0-.79-.626-1.428-1.398-1.428-.772 0-1.398.638-1.398 1.428 0 .788.626 1.428 1.398 1.428.772 0 1.398-.64 1.398-1.428m-.155 7.545V5.053c0-.1-.08-.182-.18-.183h-2.161c-.1 0-.188.103-.188.204v7.586c0 .222.138.289.315.289h1.948c.214 0 .266-.106.266-.293v-2.309m24.15-5.46h-2.151a.181.181 0 00-.18.183v5.625s-.546.404-1.322.404-.982-.356-.982-1.124V5.071a.181.181 0 00-.179-.184h-2.183a.182.182 0 00-.18.184v5.276c0 2.281 1.258 2.84 2.988 2.84 1.42 0 2.564-.793 2.564-.793s.054.417.079.467a.19.19 0 00.158.1l1.39-.007c.098 0 .179-.083.179-.183l-.001-7.7a.182.182 0 00-.18-.184m5.033 6.205c-.747-.023-1.253-.365-1.253-.365V7.095s.5-.31 1.112-.366c.775-.07 1.522.167 1.522 2.036 0 1.97-.337 2.36-1.381 2.327zm.848-6.463c-1.222 0-2.053.552-2.053.552V1.296a.18.18 0 00-.179-.182h-2.174a.18.18 0 00-.18.182v11.471c0 .101.08.184.18.184h1.509c.067 0 .119-.036.157-.098.037-.061.092-.529.092-.529s.889.852 2.572.852c1.976 0 3.11-1.013 3.11-4.549 0-3.535-1.81-3.997-3.034-3.997zm-23.799.24h-1.627l-.002-2.172c0-.083-.042-.124-.136-.124h-2.216c-.087 0-.133.039-.133.122V4.94s-1.11.271-1.186.293a.182.182 0 00-.13.175v1.41c0 .102.08.184.18.184h1.136v3.393c0 2.521 1.749 2.769 2.929 2.769.54 0 1.184-.175 1.291-.215.064-.024.102-.091.102-.165l.002-1.551c-.001-.1-.08-.181-.18-.183-.095 0-.337.038-.587.038-.8 0-1.07-.375-1.07-.861V7.002h1.627c.099 0 .18-.082.18-.184V5.051a.181.181 0 00-.18-.182" fill="#FFF" fill-rule="nonzero"/></svg>