<svg width="57" height="16" viewBox="0 0 57 16" xmlns="http://www.w3.org/2000/svg"><title>Netlify</title><path d="M20.589 4.809l.047.848c.542-.656 1.252-.984 2.132-.984 1.524 0 2.3.875 2.327 2.625v4.85H23.45V7.393c0-.465-.1-.81-.3-1.034-.201-.224-.53-.336-.985-.336-.663 0-1.158.3-1.482.902v5.223H19.04v-7.34h1.55-.001zm9.404 7.475c-1.042 0-1.886-.329-2.533-.987-.648-.658-.971-1.534-.971-2.628v-.204c0-.732.14-1.387.423-1.964a3.23 3.23 0 011.187-1.346 3.136 3.136 0 011.705-.481c.997 0 1.767.318 2.31.956.544.638.816 1.54.816 2.706v.665h-4.784c.05.606.251 1.085.606 1.438.354.353.8.53 1.336.53.753 0 1.366-.306 1.84-.917l.886.849a2.963 2.963 0 01-1.173 1.02 3.668 3.668 0 01-1.647.363h-.001zm-.196-6.288c-.451 0-.815.159-1.092.475-.278.317-.455.757-.532 1.323h3.133V7.67c-.036-.551-.183-.968-.44-1.25-.257-.283-.613-.425-1.069-.425zm6.468-2.97v1.783h1.292v1.22h-1.292v4.098c0 .28.055.482.166.607.11.124.308.186.592.186.193 0 .386-.023.574-.068v1.276a4.027 4.027 0 01-1.082.155c-1.262 0-1.894-.698-1.894-2.095V6.03h-1.205V4.809h1.204V3.025h1.644zm4.296 9.122h-1.644V1.73h1.644v10.418zm3.538 0h-1.644V4.81H44.1v7.34zm-1.745-9.245c0-.253.08-.463.24-.63.16-.168.389-.252.686-.252.298 0 .528.084.69.251a.87.87 0 01.244.631.85.85 0 01-.243.62c-.163.166-.393.248-.69.248-.298 0-.527-.082-.687-.247a.855.855 0 01-.24-.62v-.001zm4.113 9.245V6.03h-1.116V4.809h1.116v-.672c0-.814.226-1.442.676-1.885.452-.444 1.083-.665 1.895-.665.289 0 .595.04.92.122l-.04 1.289a3.225 3.225 0 00-.63-.054c-.785 0-1.177.404-1.177 1.214v.65H49.6V6.03h-1.488v6.118h-1.644zm6.894-2.36l1.488-4.979h1.753l-2.91 8.452c-.446 1.234-1.204 1.852-2.273 1.852a2.94 2.94 0 01-.791-.122v-1.276l.311.02c.415 0 .727-.075.937-.227.21-.151.376-.405.497-.762l.237-.632-2.57-7.305h1.772l1.549 4.98zM10.758 5.255l-.005-.002a.02.02 0 01-.01-.005.043.043 0 01-.01-.036l.298-1.824 1.399 1.4-1.455.618a.032.032 0 01-.013.003h-.005a.662.662 0 00-.199-.154zm2.028-.111l1.496 1.496c.31.31.466.466.523.646a.677.677 0 01.02.08l-3.573-1.514a.281.281 0 00-.006-.002c-.014-.006-.03-.012-.03-.027s.016-.022.03-.027l.005-.002 1.535-.65zm1.978 2.702c-.077.145-.227.296-.482.55l-1.686 1.687-2.18-.454-.012-.003c-.019-.003-.04-.006-.04-.023a.658.658 0 00-.252-.46c-.009-.01-.007-.023-.004-.036V9.1l.41-2.518.002-.008c.003-.02.006-.042.023-.042a.667.667 0 00.448-.257c.004-.004.006-.008.01-.01.013-.006.027 0 .04.005l3.723 1.575zm-2.555 2.625l-2.773 2.773.475-2.917v-.005l.003-.01c.004-.01.014-.014.024-.018l.004-.002a.713.713 0 00.268-.199c.01-.01.02-.021.035-.023h.011l1.952.401zm-3.36 3.36l-.312.312L5.082 9.15a.164.164 0 00-.003-.005c-.005-.008-.011-.015-.01-.023 0-.007.004-.012.008-.017l.004-.005c.01-.015.02-.03.029-.047l.008-.014a.054.054 0 01.02-.024c.009-.004.02-.002.029 0l3.827.79c.01 0 .02.005.03.012.004.005.006.01.007.016.054.205.2.373.396.454.011.005.006.017.001.03a.092.092 0 00-.005.017l-.573 3.498zm-.652.652c-.23.228-.366.349-.52.397a.771.771 0 01-.465 0c-.18-.057-.335-.212-.646-.523l-3.47-3.47.907-1.406a.058.058 0 01.016-.018c.01-.007.023-.004.035 0a.938.938 0 00.632-.032c.01-.004.02-.006.029 0a.08.08 0 01.01.013l3.472 5.039zm-5.435-3.93l-.795-.797 1.571-.67a.033.033 0 01.013-.003c.013 0 .02.013.028.025.016.024.032.048.05.071l.005.006c.005.007.002.013-.003.02l-.868 1.348h-.001zM1.614 9.403L.607 8.397C.436 8.226.312 8.1.225 7.995l3.062.635.011.002c.02.003.04.006.04.024 0 .02-.023.028-.042.035l-.009.004-1.673.709zM.05 7.477a.782.782 0 01.035-.191c.057-.18.212-.335.523-.646L1.897 5.35c.593.861 1.188 1.721 1.784 2.58.01.014.022.03.01.041-.056.062-.113.13-.152.204a.062.062 0 01-.02.024c-.005.003-.01.002-.016 0L.05 7.477zm2.191-2.471l1.732-1.733c.164.071.757.322 1.286.546.401.17.767.324.882.374.012.004.022.01.027.02.003.008.002.016 0 .024-.056.254.02.52.202.705.011.012 0 .029-.01.043l-.006.008-1.759 2.725a.053.053 0 01-.016.02c-.01.005-.023.003-.034 0a.877.877 0 00-.209-.028c-.063 0-.132.01-.201.024-.008 0-.015.002-.021-.002a.081.081 0 01-.018-.02L2.241 5.006zm2.083-2.083L6.566.68c.311-.311.467-.467.647-.523a.771.771 0 01.465 0c.18.056.335.212.645.522l.487.487-1.596 2.47a.06.06 0 01-.016.019c-.01.006-.023.004-.034 0a.809.809 0 00-.741.143c-.01.01-.026.004-.04-.002-.208-.09-1.828-.775-2.06-.873zm4.824-1.419l1.473 1.474-.355 2.198v.006l-.003.015c-.004.008-.012.01-.02.011a.712.712 0 00-.234.122c-.005 0-.011 0-.016-.003l-2.245-.954-.004-.002c-.014-.005-.031-.012-.031-.027a.848.848 0 00-.12-.353c-.01-.018-.023-.036-.013-.054l1.568-2.432zm-1.517 3.32l2.104.892c.011.006.024.01.029.023a.041.041 0 010 .022.526.526 0 00-.012.101v.06c0 .014-.015.02-.029.026l-.004.001c-.333.143-4.68 1.997-4.686 1.997-.006 0-.013 0-.02-.007-.011-.012 0-.028.01-.042l.006-.008 1.73-2.678.002-.005c.01-.016.022-.034.04-.034l.018.003c.039.005.074.01.109.01a.78.78 0 00.651-.346.062.062 0 01.014-.016c.01-.007.025-.003.038.002zM5.22 8.37l4.737-2.02s.007 0 .014.006a.626.626 0 00.069.06l.01.006c.01.005.02.012.02.022v.01l-.406 2.493-.001.01c-.003.02-.006.041-.024.041a.667.667 0 00-.53.327l-.001.003c-.006.01-.01.018-.02.022-.008.004-.018.003-.027 0L5.284 8.57c-.003 0-.058-.2-.062-.2z" fill="#FFF" fill-rule="nonzero"/></svg>