<svg width="51" height="16" viewBox="0 0 51 16" xmlns="http://www.w3.org/2000/svg"><title>DatoCMS</title><path d="M7.659.167H0V15.81h7.659c3.83 0 7.658-3.502 7.658-7.82 0-4.32-3.828-7.823-7.658-7.823zm0 11.375c-1.935 0-3.502-1.592-3.502-3.555.001-1.963 1.57-3.554 3.504-3.553 1.935 0 3.502 1.592 3.501 3.555 0 1.962-1.567 3.553-3.5 3.553h-.003zM23.175.17c2.305 0 3.487 1.419 3.487 3.37v1.745c0 1.951-1.182 3.37-3.487 3.37H19.52V.168h3.655zm1.433 3.359c0-1.079-.561-1.649-1.804-1.649h-1.242v5.065h1.242c1.243 0 1.804-.57 1.804-1.648V3.528zm8.417 3.55h-3.022l-.465 1.576h-2.055L30.47.17h2.102l2.986 8.484h-2.054l-.478-1.574zm-2.52-1.672h2.018L31.52 2.049l-1.015 3.357zM42.052.169v1.759h-2.258v6.725h-2.053V1.927h-2.258V.169h6.57zm4.973 8.654c-2.532 0-3.834-1.648-3.834-3.866v-1.09C43.191 1.647 44.493 0 47.025 0s3.834 1.648 3.834 3.866v1.09c0 2.219-1.302 3.867-3.834 3.867zm0-7.09c-1.194 0-1.78.812-1.78 2.024v1.309c0 1.212.586 2.024 1.78 2.024s1.78-.812 1.78-2.024V3.757c0-1.212-.586-2.024-1.78-2.024zm-25.673 13.13a.941.941 0 001.012-.962h1.16c-.016 1.095-.81 2.012-2.159 2.012-1.574 0-2.332-1.006-2.332-2.352v-.68c0-1.346.758-2.352 2.332-2.352 1.35 0 2.143.917 2.158 2.011h-1.159a.944.944 0 00-1.012-.961c-.758 0-1.065.51-1.065 1.243v.798c0 .733.308 1.243 1.065 1.243zm7.213-4.23h1.152v5.177h-1.203v-2.737l-.802 1.583h-.991l-.795-1.583v2.737h-1.202v-5.178h1.151l1.341 2.818 1.349-2.818zm4.431 5.28c-1.224 0-2.048-.592-2.048-1.634v-.14h1.203v.103c0 .436.277.703.852.703.518 0 .86-.215.86-.614a.424.424 0 00-.35-.459l-1.275-.325c-.795-.2-1.203-.555-1.203-1.398 0-1.028.721-1.62 1.931-1.62 1.145 0 1.874.629 1.874 1.575v.126H33.68v-.089c0-.347-.19-.636-.714-.636-.437 0-.714.155-.714.525a.393.393 0 00.328.422l1.355.37c.817.222 1.145.68 1.145 1.398 0 1.035-.904 1.693-2.085 1.693z" fill-rule="nonzero" fill="#FFF"/></svg>