<svg width="66" height="18" viewBox="0 0 66 18" xmlns="http://www.w3.org/2000/svg"><title>Gatsby</title><path d="M38.767 7.387h1.725v6.156h-1.725v-.8c-.617.923-1.418.984-1.91.984-1.912 0-3.144-1.477-3.144-3.262 0-1.847 1.232-3.263 3.02-3.263.493 0 1.417.062 1.972.985l.061-.8zm-3.205 3.078c0 .985.678 1.723 1.725 1.723.987 0 1.726-.738 1.726-1.723 0-.985-.678-1.724-1.726-1.724-.986 0-1.725.739-1.725 1.724zm8.32-1.6v4.678h-1.726V8.864h-.678V7.387h.678V5.294h1.726v2.093h1.171v1.477h-1.171zm5.239 0c-.432-.37-.801-.432-.986-.432-.432 0-.678.185-.678.493 0 .184.061.37.555.554l.43.123c.494.184 1.234.37 1.542.862.185.246.308.615.308 1.046 0 .554-.185 1.108-.678 1.54-.493.43-1.11.676-1.85.676-1.293 0-1.971-.615-2.403-1.046l.925-1.047c.37.37.863.739 1.356.739.493 0 .862-.246.862-.677 0-.37-.307-.554-.554-.616l-.37-.123c-.431-.185-.925-.37-1.294-.739a1.576 1.576 0 01-.493-1.17c0-.615.308-1.107.616-1.415.493-.37 1.11-.43 1.603-.43.43 0 1.17.06 1.972.676l-.863.985zm3.76-.678c.616-.862 1.479-.985 1.971-.985 1.788 0 3.02 1.416 3.02 3.263 0 1.846-1.232 3.262-3.081 3.262-.37 0-1.294-.061-1.972-.985v.8h-1.664V3.201h1.725v4.986zm-.185 2.278c0 .985.677 1.723 1.725 1.723.986 0 1.726-.738 1.726-1.723 0-.985-.678-1.724-1.726-1.724s-1.725.739-1.725 1.724zm8.012 2.154l-2.959-5.232h2.034l1.91 3.509 1.726-3.51h1.973l-4.931 9.42h-1.972l2.219-4.187zM33.28 8.433h-4.314v1.724h2.28c-.369 1.17-1.232 1.97-2.834 1.97-1.788 0-3.082-1.478-3.082-3.263s1.233-3.324 3.02-3.324c.986 0 1.972.493 2.589 1.293l1.417-.924c-.924-1.292-2.403-2.03-4.006-2.03-2.712 0-4.93 2.215-4.93 4.985 0 2.77 2.095 4.986 4.93 4.986 2.835 0 4.93-2.216 4.93-4.986.062-.185 0-.307 0-.43zM8.628 0C3.883 0 0 3.878 0 8.618s3.883 8.618 8.628 8.618c4.746 0 8.629-3.878 8.629-8.618S13.374 0 8.628 0zM3.821 13.42C2.527 12.126 1.85 10.402 1.85 8.74l6.718 6.648c-1.726-.061-3.451-.677-4.746-1.97zm6.287 1.785L2.034 7.14c.678-3.017 3.39-5.294 6.594-5.294a6.8 6.8 0 015.486 2.77l-.925.8c-1.047-1.416-2.711-2.34-4.56-2.34-2.404 0-4.438 1.54-5.24 3.694l7.089 7.08c1.787-.616 3.143-2.155 3.574-4.002h-2.958V8.618h4.314c0 3.201-2.28 5.91-5.3 6.587z" fill="#FFF" fill-rule="nonzero"/></svg>