<svg width="59" height="12" viewbox="0 0 59 12" xmlns="http://www.w3.org/2000/svg"><title>Sanity</title><g fill-rule="nonzero" fill="#FFF"><path d="M43.958 4.268v7.48H41.55V3.096z"/><path d="M9.895 10.36l1.805 1.573 7.605-3.967-.786-1.891-8.624 4.284zM41.55 5.54l6.117-3.18L46.632.569 41.55 3.096V5.54z"/><path d="M24.335 3.682v8.066H22.03V.251l2.306 3.43zm-14.44 6.677l1.805 1.574 3.476-8.703-1.12-2.979-4.161 10.108z"/><path d="M14.056.251h2.374l4.395 11.497h-2.44L14.056.251zm10.63 0l5.065 7.85v3.647L22.029.251h2.657zm9.41 0h2.39v11.497h-2.39V.251zm7.455 2.109h-3.677V.25h8.574l1.22 2.109h-6.117zM54.738 7.38v4.368h-2.373V7.38"/><path d="M56.376.251l-4.011 7.13h2.373L58.9.25zM52.365 7.38L48.22.251h2.607l2.791 4.887zM.986 1.59c0 1.59.986 2.544 2.958 3.046l2.09.485c1.872.435 3.008 1.506 3.008 3.247a3.378 3.378 0 01-.685 2.092c0-1.74-.903-2.678-3.059-3.247l-2.056-.469C1.588 6.376.318 5.49.318 3.598c0-.72.234-1.44.668-2.008M29.75 7.514V.251h2.307v11.497h-2.306z"/><path d="M7.07 7.933c.886.569 1.287 1.372 1.287 2.527-.752.954-2.04 1.473-3.56 1.473-2.557 0-4.38-1.272-4.764-3.465H2.49c.318 1.004 1.154 1.473 2.29 1.473 1.354.017 2.273-.72 2.29-2.008M.986 1.573C1.705.636 2.942.067 4.446.067c2.624 0 4.128 1.389 4.513 3.33H6.585c-.267-.77-.919-1.372-2.106-1.372-1.287.017-2.156.753-2.206 1.925C1.412 3.474.953 2.544.986 1.573z"/></g></svg>