<svg width="75" height="17" viewBox="0 0 75 17" xmlns="http://www.w3.org/2000/svg"><title>Forestry</title><path d="M16.12 3.215l-.863-.861-2.879 2.861V.631h-1.231v4.584l-2.88-2.861-.862.861 3.742 3.754v1.723l-2.88-2.861-3.294-3.308V.63H3.74v1.892L0 6.277l.862.862 2.88-2.862V6L0 9.754l.862.861 2.88-2.861v8.554h1.23V7.754l2.88 2.861.862-.861L4.973 6V4.277l2.432 2.415.247.246.2.2 3.295 3.308v5.862h1.231v-5.862l3.742-3.754-.863-.862-2.879 2.862V6.97l3.742-3.754zm3.495 9.17H21V9.137h3.464V7.877H21V5.815h3.664V4.554h-5.05v7.83zM32.578 5.46a3.715 3.715 0 00-1.324-.83 4.474 4.474 0 00-1.678-.277 4.73 4.73 0 00-1.663.292c-.493.184-.94.462-1.309.831a3.95 3.95 0 00-.862 1.308 4.307 4.307 0 00-.308 1.707c-.015.57.093 1.139.308 1.677a3.735 3.735 0 002.171 2.123c.539.2 1.093.293 1.663.293.57 0 1.14-.108 1.678-.308.493-.185.94-.477 1.324-.846.371-.369.665-.808.862-1.293a4.208 4.208 0 00.308-1.677 4.307 4.307 0 00-.308-1.707 3.885 3.885 0 00-.862-1.293zm-.477 4.124a2.688 2.688 0 01-.555.923 2.403 2.403 0 01-.846.615 2.739 2.739 0 01-1.109.215 2.503 2.503 0 01-1.108-.215 2.403 2.403 0 01-.847-.615 2.688 2.688 0 01-.554-.923 3.25 3.25 0 01-.2-1.154c0-.37.061-.739.2-1.093.123-.323.308-.63.554-.892.23-.262.523-.461.847-.6a2.735 2.735 0 011.108-.215c.385 0 .755.061 1.109.215.323.139.616.338.846.6.242.258.43.562.555.892.138.354.2.723.2 1.093 0 .4-.062.784-.2 1.154zm7.898-1.354c.325-.405.494-.912.477-1.431a2.231 2.231 0 00-.246-1.093 1.858 1.858 0 00-.647-.692c-.292-.17-.6-.292-.939-.354a5.15 5.15 0 00-1.093-.107h-2.725v7.83h1.4V9.077h1.017L39.06 12.4h1.678l-2.079-3.477A1.973 1.973 0 0040 8.23zm-2.094-.385l-.6.03h-1.078V5.755h1.2l.555.03c.17.016.354.062.508.139a.8.8 0 01.37.308.88.88 0 01.138.554c.016.215-.046.415-.154.6a1.009 1.009 0 01-.4.323 1.64 1.64 0 01-.539.138zM43.094 9h3.602V7.738h-3.602V5.816h3.802V4.554h-5.188v7.83h5.388v-1.261h-4.002V9zm9.253-.708a3.87 3.87 0 00-.893-.4L50.56 7.6a3.001 3.001 0 01-.693-.37.75.75 0 01-.277-.615c0-.154.03-.323.107-.461a.931.931 0 01.293-.308c.127-.081.268-.138.416-.17a1.69 1.69 0 01.477-.06c.262 0 .539.045.785.153.231.092.447.262.585.477l1.016-1.077c-.3-.28-.657-.49-1.047-.615a3.996 3.996 0 00-1.2-.185c-.355 0-.724.046-1.063.139-.339.092-.646.23-.924.43-.261.2-.492.446-.646.739a2.06 2.06 0 00-.247 1.046c-.015.384.077.769.278 1.108.179.269.415.495.692.661.277.17.585.308.893.4l.893.308c.247.092.493.23.693.4a.84.84 0 01.277.661c0 .17-.046.339-.123.477a.971.971 0 01-.323.339 1.652 1.652 0 01-.447.2 1.918 1.918 0 01-1.37-.154 1.902 1.902 0 01-.662-.6l-1.062 1c.308.367.706.648 1.154.815.447.17.924.247 1.401.247.37 0 .74-.047 1.094-.154.323-.093.63-.246.908-.462a2.41 2.41 0 00.631-.785c.17-.353.246-.723.231-1.107.015-.4-.077-.785-.277-1.123a2.14 2.14 0 00-.677-.662zm1.555-2.477h2.401v6.57h1.386v-6.57h2.402V4.554H53.9v1.261zm12.593 2.416c.325-.405.495-.912.478-1.431a2.231 2.231 0 00-.247-1.093 1.858 1.858 0 00-.646-.692c-.293-.17-.6-.292-.94-.354a5.15 5.15 0 00-1.092-.107h-2.726v7.83h1.401V9.077h1.017l1.816 3.323h1.679l-2.079-3.477a1.973 1.973 0 001.34-.692zm-2.093-.385l-.6.03h-1.079V5.755h1.201l.555.03c.169.016.354.062.508.139a.8.8 0 01.37.308.88.88 0 01.138.554c.015.215-.046.415-.154.6a1.009 1.009 0 01-.4.323 1.64 1.64 0 01-.54.138zm8.467-3.292l-1.955 3.123-1.924-3.123h-1.74l2.94 4.477v3.353h1.386V9.031l2.956-4.477H72.87z" fill="#FFF" fill-rule="nonzero"/></svg>