<svg width="53" height="22" viewBox="0 0 53 22" xmlns="http://www.w3.org/2000/svg"><title>Jekyll</title><path d="M47.869.025c.594 0 1.417.186 2.259.509.705.273 1.349.614 1.8.956.533.403.743.763.626 1.074l-.019.037-.006.012a.447.447 0 01-.13.155c-.272.242-.675.652-.743.838l-6.268 16.362-.013-.006a2.55 2.55 0 01-2.085 1.378l-.18.006c-.31 0-.615-.057-.904-.168a2.534 2.534 0 01-1.528-3.023l-.013-.006.08-.21 1.709-4.448c-.992 1.016-2.844 2.805-4.375 2.598-1.59-.2-1.096-1.894-.496-3.104l-.092.093c-.13.137-.26.26-.372.372-1.04 1.025-2.649 2.415-4.004 2.229-1.59-.199-1.09-1.9-.489-3.11-.328.348-.619.64-.816.77-.223.149-.347-.019-.13-.199.544-.434 1.262-1.229 1.844-2.011.711-.937 2.06-2.818 2.828-4.158.148-.274.402-1.006-.235-.659-.13.05-.254.125-.365.162-.168.068-.223 0-.093-.13.563-.441 1.788-.913 2.463-.931.891 0 .91.515.526 1.173-.526.862-2.278 2.582-3.064 3.569-.352.453-4.592 6.132-1.262 4.885 1.02-.385 2.377-1.546 3.063-2.198.378-.39.762-.85 1.102-1.31.712-.937 2.06-2.817 2.828-4.158.149-.273.402-1.005-.235-.658-.13.05-.254.124-.365.161-.167.069-.223 0-.093-.13.563-.44 1.788-.912 2.463-.931.891 0 .91.515.526 1.173-.526.87-2.283 2.589-3.07 3.582-.352.453-4.592 6.132-1.262 4.884 1.213-.459 2.878-1.98 3.367-2.489a.937.937 0 01.013-.013L46.94 1.8c.093-.236.05-.807.007-1.123a.483.483 0 01.006-.211l.006-.013c.006-.012.006-.025.012-.037.1-.26.403-.391.898-.391zm-.013.434c-.353 0-.47.075-.489.112V.61c.013.093.13.918-.03 1.346l-6.165 16.089-.018.043a2.1 2.1 0 001.207 2.682c.241.093.489.136.743.136.86 0 1.621-.515 1.937-1.322l.024-.056 6.164-16.07c.13-.347.743-.9.867-1.011l.012-.013c.012-.006.018-.012.018-.018l.007-.006c.006-.044-.05-.236-.483-.571-.415-.317-1.015-.634-1.69-.894-.78-.304-1.572-.485-2.104-.485zm-15.23 8.529c.854-.255 1.2.77.365.676-.272-.037-.619 0-.996.764-.798 1.738-1.114 4.847-3.726 7.616-1.293 1.371-3.137 2.489-5.056 2.489-1.75 0-3.2-.727-3.509-2.614-.018-.198.162-.167.18-.018.254 1.378 1.436 2.31 2.81 2.31 1.9 0 3.91-1.652 5.52-3.85 1.132-1.551 2.048-3.277 2.92-4.977-.309.477-.674.968-1.002 1.39-1.008 1.241-2.506 2.818-3.509 2.818-.724 0-1.163-.497-.798-1.614.254-.751 1.281-1.924 1.863-2.6.42-.472.13-.839-.6-.274-.873.64-1.9 1.726-2.482 2.198-.204.167-.254-.075-.056-.236.73-.602 1.665-1.707 2.358-2.235 1.188-.912 2.667-.236 1.974 1.285-.297.602-.804 1.21-1.206 1.775-.99 1.41-.18 1.21.692.46.99-.9 2.402-2.614 3.237-3.88.272-.645.638-1.371 1.021-1.483zm-21.462 1.607c.217-.018.607.075.743.64.353 1.502-.953 4.152-2.958 6.461-1.238 1.422-3.49 2.818-5.41 2.818-1.75 0-3.199-.726-3.508-2.613-.037-.199.16-.168.18-.019.253 1.378 1.417 2.31 2.79 2.31 1.72 0 4.221-2.105 5.867-4.395.421-.571 1.523-2.198 2.086-3.464-.347.44-.767.77-.966.931-.092.075-.222-.124-.13-.217.372-.292 1.3-1.154 1.43-1.905 0-.187-.068-.31-.217-.367-.105-.05.019-.18.093-.18zM49.1 7.821l-4.456 11.631a1.664 1.664 0 01-2.135.938c-.8-.311-1.254-1.203-1.04-2.007l.044-.141 2.847-7.43s.352-.57 1.052-.98c.7-.41 1.274-.317 2.055-.67.78-.354 1.633-1.341 1.633-1.341zM24.303 5.425c3.18-2.923 5.57-.838 2.704 1.924-.972.912-2.575 2.017-3.781 2.545-.254.112-.42-.087-.074-.236 1.138-.515 2.785-1.707 3.657-2.62 2.117-2.227.749-2.631-1.609-.527-1.937 1.738-3.911 4.444-4.914 6.114.947-1.266 1.863-1.943 2.63-2.253 1.189-.466 2.049 0 1.956.782-.062.478-.353 1.068-1.083 1.595-.792.565-2.475 1.018-3.292.708.767.993 2.395 1.961 3.212 1.83.346-.055.655-.279.655-.552 0-.043.093-.043.093 0 0 .46-.439.751-.965.882-1.795.403-3.509-.714-3.948-1.583-.526 1.31-.638 2.669-.254 3.128.068.112-.037.15-.093.112-.254-.223-.582-.496-.656-1.08-.111-.8.124-1.88.582-3.054a8.36 8.36 0 01-.55.51c-1.307 1.197-2.91 2.569-4.704 2.587-1.077 0-1.863-.533-1.882-1.52-.018-2.179 2.408-3.923 4.437-3.849 1.863.056 1.758 1.596.038 2.415-.545.26-1.374.478-1.882.46-.31-.013-.346-.162.019-.162.31 0 1.083-.18 1.72-.51 1.684-.918.935-2.047-.346-1.464-.984.46-2.141 1.775-2.34 2.893-.13.72.18 1.266.91 1.247 1.034-.019 2.692-1.241 3.744-2.148a.975.975 0 01.112-.117c.39-.336.699-.758 1.12-1.267 1.219-2.706 2.63-4.791 4.784-6.79zm19.314 9.174a.264.264 0 00-.136.354.263.263 0 00.353.136c.142-.062.204-.217.136-.354-.056-.136-.217-.198-.353-.136zm.724-1.155a.512.512 0 00-.253.67.505.505 0 00.668.255c.254-.118.365-.416.254-.67-.118-.255-.415-.366-.669-.255zM22.93 12.62c1.33-1.018.507-2.707-1.59-.82-.403.367-.805.745-1.152 1.167.037.093.093.18.149.274l.092.055c.434.255 1.808-.149 2.5-.676zm23.306-.51a.26.26 0 00-.136.355.263.263 0 00.353.136.264.264 0 00.136-.354.263.263 0 00-.353-.136zm-34.13-3.308c.334-.384.83-.508 1.101-.291.273.223.217.714-.13 1.098-.334.367-.829.49-1.101.274-.285-.218-.223-.69.13-1.08zM49.84 1.236c.887.342 1.534.809 1.444 1.042-.09.234-.881.146-1.768-.196-.887-.342-1.533-.809-1.444-1.042.09-.234.882-.146 1.768.196z" fill="#FFF" fill-rule="nonzero"/></svg>