<?xml version="1.0" encoding="UTF-8"?>
<svg width="49px" height="41px" viewBox="0 0 49 41" version="1.1" xmlns="http://www.w3.org/2000/svg" xmlns:xlink="http://www.w3.org/1999/xlink">
    <!-- Generator: Sketch 61.2 (89653) - https://sketch.com -->
    <title>stackbit-symbol</title>
    <desc>Created with Sketch.</desc>
    <defs>
        <path d="M34.8975678,17.6067547 L15.3411858,28.8360206 C13.7733544,29.72725 12.8641671,31.466289 13.0165593,33.2828099 L13.0165593,33.2828099 L13.0165593,40.7689872 C12.8837235,42.6087152 13.8287026,44.355989 15.429743,45.2307488 L15.429743,45.2307488 L34.986125,56.0853316 C36.3742591,56.8635197 38.0594288,56.8635197 39.447194,56.0853316 L39.447194,56.0853316 L58.6345875,45.2307488 C60.2112747,44.3383965 61.1300557,42.5948658 60.9850432,40.7689872 L60.9850432,40.7689872 L60.9850432,33.2828099 C61.1215689,31.4745238 60.2157026,29.7489599 58.6604167,28.854736 L58.6604167,28.854736 L39.4730231,17.6254701 C38.7605067,17.20849 37.9645988,17 37.16906,17 L37.16906,17 C36.3856977,17 35.6023355,17.2021268 34.8975678,17.6067547 L34.8975678,17.6067547 Z M36.4473188,45.447848 L16.8909369,34.2185821 C16.6481425,34.0823336 16.4481509,33.8794582 16.3142081,33.633163 L16.3142081,33.633163 C15.9193906,32.909624 16.1776824,31.9989305 16.8909369,31.59842 L16.8909369,31.59842 L36.4473188,20.3691541 C36.9041263,20.1018976 37.4664646,20.1018976 37.9232721,20.3691541 L37.9232721,20.3691541 L57.1106657,31.6246216 C57.8165404,32.0382329 58.0585967,32.9537924 57.6512336,33.6702196 L57.6512336,33.6702196 C57.2438705,34.3866467 56.340956,34.6321933 55.6347123,34.2185821 L55.6347123,34.2185821 L37.1779157,23.404799 L20.6250988,32.908501 L37.9011328,42.8276859 C38.6143873,43.234934 38.8671443,44.1516164 38.465685,44.8747811 L38.465685,44.8747811 C38.1933716,45.3658743 37.6908095,45.64174 37.1731188,45.64174 L37.1731188,45.64174 C36.9270036,45.64174 36.6771985,45.5788561 36.4473188,45.447848 L36.4473188,45.447848 Z M36.4768378,53.3083341 L16.9204559,42.4533771 C16.8643697,42.4268011 16.8093904,42.3964821 16.7573631,42.3627943 L16.7573631,42.3627943 C16.0688308,41.9199869 15.8644113,40.9946954 16.3009245,40.2962351 L16.3009245,40.2962351 C16.7366997,39.598149 17.6492079,39.3904076 18.3373711,39.833215 L18.3373711,39.833215 L37.1779157,50.2876616 L55.6531618,39.833215 C56.3664162,39.4300844 57.2667478,39.6898547 57.6641482,40.4133938 L57.6641482,40.4133938 C58.0615486,41.1373071 57.8054707,42.0502464 57.0922163,42.4533771 L57.0922163,42.4533771 L37.9048227,53.3083341 C37.6826917,53.432979 37.4365765,53.4951142 37.1908303,53.4951142 L37.1908303,53.4951142 C36.944715,53.4951142 36.6989688,53.432979 36.4768378,53.3083341 L36.4768378,53.3083341 Z" id="path-1"></path>
    </defs>
    <g id="v05" stroke="none" stroke-width="1" fill="none" fill-rule="evenodd">
        <g id="Start" transform="translate(-1131.000000, -299.000000)">
            <g id="Core-Elements-/-Widget-Button-/-Standard-/-Normal" transform="translate(1118.500000, 282.395217)">
                <mask id="mask-2" fill="white">
                    <use xlink:href="#path-1"></use>
                </mask>
                <use id="stackbit-symbol" fill="#FFFFFF" xlink:href="#path-1"></use>
            </g>
        </g>
    </g>
</svg>