<?xml version="1.0" encoding="UTF-8"?>
<svg width="488px" height="550px" viewBox="0 0 488 550" version="1.1" xmlns="http://www.w3.org/2000/svg" xmlns:xlink="http://www.w3.org/1999/xlink">
    <!-- Generator: Sketch 55.2 (78181) - https://sketchapp.com -->
    <title>unibit dev</title>
    <desc>Created with Sketch.</desc>
    <defs>
        <linearGradient x1="12.2563321%" y1="-5.69196429%" x2="86.1724476%" y2="117.589286%" id="linearGradient-1">
            <stop stop-color="#3BE2BC" offset="0%"></stop>
            <stop stop-color="#1B96F1" offset="100%"></stop>
        </linearGradient>
        <ellipse id="path-2" cx="115.452489" cy="115.59633" rx="115.452489" ry="115.59633"></ellipse>
        <ellipse id="path-4" cx="115.452489" cy="115.59633" rx="115.452489" ry="115.59633"></ellipse>
        <linearGradient x1="12.2563321%" y1="-5.69196429%" x2="86.1724476%" y2="117.589286%" id="linearGradient-6">
            <stop stop-color="#3BE2BC" offset="0%"></stop>
            <stop stop-color="#1B96F1" offset="100%"></stop>
        </linearGradient>
        <linearGradient x1="85.2087054%" y1="65.1517857%" x2="-22.2734375%" y2="65.1517857%" id="linearGradient-7">
            <stop stop-color="#3BE2BC" offset="0%"></stop>
            <stop stop-color="#1B96F1" offset="100%"></stop>
        </linearGradient>
        <linearGradient x1="12.2563321%" y1="-5.69196429%" x2="86.1724476%" y2="117.589286%" id="linearGradient-8">
            <stop stop-color="#3BE2BC" offset="0%"></stop>
            <stop stop-color="#1B96F1" offset="100%"></stop>
        </linearGradient>
        <linearGradient x1="12.2563321%" y1="-5.69196429%" x2="86.1724476%" y2="117.589286%" id="linearGradient-9">
            <stop stop-color="#3BE2BC" offset="0%"></stop>
            <stop stop-color="#1B96F1" offset="100%"></stop>
        </linearGradient>
        <linearGradient x1="12.2563321%" y1="-5.69196429%" x2="86.1724476%" y2="117.589286%" id="linearGradient-10">
            <stop stop-color="#3BE2BC" offset="0%"></stop>
            <stop stop-color="#1B96F1" offset="100%"></stop>
        </linearGradient>
        <linearGradient x1="85.2087054%" y1="65.1517857%" x2="-22.2734375%" y2="65.1517857%" id="linearGradient-11">
            <stop stop-color="#3BE2BC" offset="0%"></stop>
            <stop stop-color="#1B96F1" offset="100%"></stop>
        </linearGradient>
        <linearGradient x1="85.2087054%" y1="65.1517857%" x2="-22.2734375%" y2="65.1517857%" id="linearGradient-12">
            <stop stop-color="#3BE2BC" offset="0%"></stop>
            <stop stop-color="#1B96F1" offset="100%"></stop>
        </linearGradient>
        <ellipse id="path-13" cx="96.2104072" cy="96.3302752" rx="96.2104072" ry="96.3302752"></ellipse>
    </defs>
    <g id="Page-1" stroke="none" stroke-width="1" fill="none" fill-rule="evenodd">
        <g id="Artboard" transform="translate(-36.000000, -29.000000)">
            <g id="unibit-dev" transform="translate(37.000000, -21.000000)">
                <g id="Mask" transform="translate(128.427149, 227.669725)">
                    <mask id="mask-3" fill="white">
                        <use xlink:href="#path-2"></use>
                    </mask>
                    <use fill="url(#linearGradient-1)" xlink:href="#path-2"></use>
                    <mask id="mask-5" fill="white">
                        <use xlink:href="#path-4"></use>
                    </mask>
                    <g></g>
                </g>
                <path d="M242.78009,587.449541 C376.863832,587.449541 485.560181,478.617768 485.560181,344.366972 C485.560181,210.116177 376.863832,101.284404 242.78009,101.284404 C108.696349,101.284404 1.98951966e-13,210.116177 1.98951966e-13,344.366972 C1.98951966e-13,478.617768 108.696349,587.449541 242.78009,587.449541 Z" id="Oval" stroke="#FFFFFF" stroke-width="1.32" stroke-dasharray="2.640000104904175"></path>
                <path d="M243.21991,531.082569 C345.968864,531.082569 429.263348,447.684308 429.263348,344.807339 C429.263348,241.930371 345.968864,158.53211 243.21991,158.53211 C140.470955,158.53211 57.1764706,241.930371 57.1764706,344.807339 C57.1764706,447.684308 140.470955,531.082569 243.21991,531.082569 Z" id="Oval" stroke="#FFFFFF" stroke-width="1.32" stroke-dasharray="2.640000104904175"></path>
                <path d="M243.21991,491.449541 C324.107384,491.449541 389.679638,425.795591 389.679638,344.807339 C389.679638,263.819088 324.107384,198.165138 243.21991,198.165138 C162.332435,198.165138 96.760181,263.819088 96.760181,344.807339 C96.760181,425.795591 162.332435,491.449541 243.21991,491.449541 Z" id="Oval" stroke="#FFFFFF" stroke-width="1.32" stroke-dasharray="2.640000104904175"></path>
                <ellipse id="Oval" fill="url(#linearGradient-6)" cx="423.98552" cy="353.174312" rx="44.8615385" ry="44.9174312"></ellipse>
                <ellipse id="Oval" stroke-opacity="0.133877841" stroke="#46E3BF" stroke-width="11" fill="url(#linearGradient-7)" cx="423.875566" cy="352.844037" rx="35.7352941" ry="35.7798165"></ellipse>
                <ellipse id="Oval" fill="url(#linearGradient-8)" cx="97.8597285" cy="540.550459" rx="59.3755656" ry="59.4495413"></ellipse>
                <ellipse id="Oval" fill="url(#linearGradient-9)" cx="59.9253394" cy="303.302752" rx="30.2375566" ry="30.2752294"></ellipse>
                <ellipse id="Oval" fill="url(#linearGradient-10)" cx="333.71267" cy="508.073394" rx="21.4411765" ry="21.4678899"></ellipse>
                <ellipse id="Oval" fill="url(#linearGradient-6)" cx="261.692308" cy="95.559633" rx="44.8615385" ry="44.9174312"></ellipse>
                <ellipse id="Oval" stroke-opacity="0.133877841" stroke="#46E3BF" stroke-width="11" fill="url(#linearGradient-7)" cx="262.242081" cy="95.2293578" rx="35.7352941" ry="35.7798165"></ellipse>
                <ellipse id="Oval" stroke-opacity="0.133877841" stroke="#46E3BF" stroke-width="14.3748" fill="url(#linearGradient-11)" cx="97.8597285" cy="539.449541" rx="47.280543" ry="47.3394495"></ellipse>
                <path d="M237.933285,99.399633 L240.83609,99.399633 C243.897231,99.399633 246.456977,97.4972477 246.456977,93.4282569 C246.456977,89.3592661 243.92362,87.4304587 240.86248,87.4304587 L237.933285,87.4304587 L237.933285,99.399633 Z M240.968036,102.781651 L234.291584,102.781651 L234.291584,84.0484404 L240.994425,84.0484404 C246.325032,84.0484404 250.230624,87.5097248 250.230624,93.4282569 C250.230624,99.346789 246.298643,102.781651 240.968036,102.781651 Z M259.044597,99.9809174 C260.759891,99.9809174 262.34324,98.7390826 262.34324,96.2818349 C262.34324,93.8245872 260.759891,92.5827523 259.044597,92.5827523 C257.329303,92.5827523 255.745955,93.8245872 255.745955,96.2818349 C255.745955,98.7126606 257.329303,99.9809174 259.044597,99.9809174 Z M259.044597,89.3856881 C262.923801,89.3856881 265.852995,92.2656881 265.852995,96.2818349 C265.852995,100.27156 262.923801,103.177982 259.044597,103.177982 C255.165394,103.177982 252.236199,100.27156 252.236199,96.2818349 C252.236199,92.2656881 255.165394,89.3856881 259.044597,89.3856881 Z M274.455855,92.6355963 C272.661394,92.6355963 271.157213,93.9302752 271.157213,96.2818349 C271.157213,98.6333945 272.687783,99.9544954 274.482244,99.9544954 C276.276706,99.9544954 277.173937,98.7655046 277.464217,97.7614679 L280.551747,98.7919266 C279.971186,100.958532 277.939222,103.177982 274.482244,103.177982 C270.655819,103.177982 267.647457,100.27156 267.647457,96.2818349 C267.647457,92.2656881 270.603041,89.3856881 274.376688,89.3856881 C277.912833,89.3856881 279.918407,91.5787156 280.472579,93.7717431 L277.332271,94.8286239 C277.015602,93.7453211 276.197538,92.6355963 274.455855,92.6355963 Z M282.029538,99.1618349 L285.0379,98.5012844 C285.117068,99.5317431 285.882353,100.482936 287.412923,100.482936 C288.574045,100.482936 289.128217,99.8752294 289.128217,99.1882569 C289.128217,98.6069725 288.73238,98.1313761 287.729593,97.92 L286.014299,97.5236697 C283.50733,96.9688073 282.372597,95.4627523 282.372597,93.639633 C282.372597,91.3144954 284.43095,89.3856881 287.228199,89.3856881 C290.922679,89.3856881 292.162968,91.7372477 292.321303,93.1376147 L289.392109,93.7981651 C289.286552,93.0319266 288.73238,92.0543119 287.254588,92.0543119 C286.330968,92.0543119 285.592072,92.6091743 285.592072,93.3489908 C285.592072,93.9831193 286.067077,94.3794495 286.779584,94.5115596 L288.626824,94.9078899 C291.18657,95.4363303 292.479638,96.9952294 292.479638,98.8976147 C292.479638,101.011376 290.843511,103.177982 287.439312,103.177982 C283.533719,103.177982 282.187873,100.641468 282.029538,99.1618349 Z" id="Docs" fill="#FFFFFF" fill-rule="nonzero"></path>
                <path d="M65.2361538,549.357798 L55.4721719,549.357798 L55.4721719,533.746789 L65.2361538,533.746789 L65.2361538,536.609174 L58.5069231,536.609174 L58.5069231,540.176147 L64.5984163,540.176147 L64.5984163,542.884404 L58.5069231,542.884404 L58.5069231,546.495413 L65.2361538,546.495413 L65.2361538,549.357798 Z M65.6539819,549.357798 L69.5023982,543.919266 L65.6539819,538.524771 L69.128552,538.524771 C69.5023982,539.119266 70.909819,541.144954 71.2836652,541.73945 L73.4167873,538.524771 L76.7374208,538.524771 L72.9549774,543.831193 L76.8693665,549.357798 L73.4387783,549.357798 L71.1737104,546.033028 C70.7778733,546.627523 69.3264706,548.763303 68.9526244,549.357798 L65.6539819,549.357798 Z M76.8253846,546.407339 C76.8253846,544.469725 78.2547964,543.390826 80.0580543,543.126606 L82.7189593,542.730275 C83.3347059,542.642202 83.5326244,542.333945 83.5326244,541.959633 C83.5326244,541.188991 82.9388688,540.550459 81.7073756,540.550459 C80.4319005,540.550459 79.72819,541.365138 79.6402262,542.311927 L77.0452941,541.761468 C77.2212217,540.066055 78.7825792,538.194495 81.6853846,538.194495 C85.1159729,538.194495 86.391448,540.13211 86.391448,542.311927 L86.391448,547.640367 C86.391448,548.212844 86.4574208,548.983486 86.5233937,549.357798 L83.8404977,549.357798 C83.7745249,549.07156 83.730543,548.477064 83.730543,548.058716 C83.1807692,548.917431 82.1471946,549.666055 80.5418552,549.666055 C78.2328054,549.666055 76.8253846,548.102752 76.8253846,546.407339 Z M81.1576018,547.486239 C82.389095,547.486239 83.5326244,546.891743 83.5326244,544.976147 L83.5326244,544.491743 L81.091629,544.866055 C80.3439367,544.976147 79.750181,545.394495 79.750181,546.231193 C79.750181,546.869725 80.211991,547.486239 81.1576018,547.486239 Z M91.1634842,549.357798 L88.2386878,549.357798 L88.2386878,538.524771 L91.0315385,538.524771 L91.0315385,539.845872 C91.6252941,538.788991 93.010724,538.216514 94.1982353,538.216514 C95.671629,538.216514 96.8591403,538.855046 97.408914,540.022018 C98.2665611,538.700917 99.4100905,538.216514 100.839502,538.216514 C102.840679,538.216514 104.753891,539.427523 104.753891,542.333945 L104.753891,549.357798 L101.917059,549.357798 L101.917059,542.92844 C101.917059,541.761468 101.345294,540.880734 100.003846,540.880734 C98.750362,540.880734 98.0026697,541.849541 98.0026697,543.016514 L98.0026697,549.357798 L95.0998643,549.357798 L95.0998643,542.92844 C95.0998643,541.761468 94.5061086,540.880734 93.1866516,540.880734 C91.9111765,540.880734 91.1634842,541.827523 91.1634842,543.016514 L91.1634842,549.357798 Z M109.547919,553.541284 L106.623122,553.541284 L106.623122,538.524771 L109.459955,538.524771 L109.459955,539.845872 C109.943756,539.009174 111.153258,538.282569 112.780588,538.282569 C115.947285,538.282569 117.772534,540.704587 117.772534,543.919266 C117.772534,547.2 115.727376,549.622018 112.670633,549.622018 C111.175249,549.622018 110.075701,549.027523 109.547919,548.300917 L109.547919,553.541284 Z M114.891719,543.941284 C114.891719,542.025688 113.704208,540.902752 112.208824,540.902752 C110.713439,540.902752 109.503937,542.025688 109.503937,543.941284 C109.503937,545.856881 110.713439,547.001835 112.208824,547.001835 C113.704208,547.001835 114.891719,545.878899 114.891719,543.941284 Z M121.906833,549.357798 L118.982036,549.357798 L118.982036,533.416514 L121.906833,533.416514 L121.906833,549.357798 Z M126.063122,542.708257 L130.901131,542.708257 C130.857149,541.629358 130.153439,540.572477 128.482127,540.572477 C126.964751,540.572477 126.129095,541.717431 126.063122,542.708257 Z M131.187014,545.526606 L133.628009,546.253211 C133.078235,548.124771 131.362941,549.688073 128.702036,549.688073 C125.733258,549.688073 123.116335,547.552294 123.116335,543.897248 C123.116335,540.440367 125.667285,538.194495 128.438145,538.194495 C131.780769,538.194495 133.781946,540.330275 133.781946,543.809174 C133.781946,544.227523 133.737964,544.66789 133.737964,544.711927 L125.997149,544.711927 C126.063122,546.143119 127.272624,547.177982 128.724027,547.177982 C130.087466,547.177982 130.835158,546.495413 131.187014,545.526606 Z M134.067828,546.341284 L136.574796,545.790826 C136.640769,546.649541 137.278507,547.442202 138.553982,547.442202 C139.521584,547.442202 139.983394,546.93578 139.983394,546.363303 C139.983394,545.878899 139.653529,545.482569 138.817873,545.306422 L137.388462,544.976147 C135.299321,544.513761 134.35371,543.258716 134.35371,541.73945 C134.35371,539.801835 136.069005,538.194495 138.400045,538.194495 C141.478778,538.194495 142.512353,540.154128 142.644299,541.321101 L140.203303,541.87156 C140.115339,541.233028 139.653529,540.418349 138.422036,540.418349 C137.652353,540.418349 137.036606,540.880734 137.036606,541.497248 C137.036606,542.025688 137.432443,542.355963 138.026199,542.466055 L139.565566,542.79633 C141.698688,543.236697 142.776244,544.53578 142.776244,546.121101 C142.776244,547.882569 141.412805,549.688073 138.575973,549.688073 C135.321312,549.688073 134.199774,547.574312 134.067828,546.341284 Z" id="Examples" fill="#FFFFFF" fill-rule="nonzero"></path>
                <path d="M413.784358,362.558532 C409.081814,362.558532 405.163026,359.158018 405.163026,353.78378 C405.163026,348.409541 409.224315,344.985248 413.736858,344.985248 C418.391902,344.985248 420.790675,347.838826 421.455681,350.573505 L418.368152,351.548477 C417.964398,349.93145 416.658136,348.147963 413.736858,348.147963 C411.219334,348.147963 408.559309,349.955229 408.559309,353.78378 C408.559309,357.374532 411.076833,359.348257 413.784358,359.348257 C416.658136,359.348257 418.059399,357.469651 418.510653,355.900183 L421.574433,356.827596 C420.933176,359.419596 418.510653,362.558532 413.784358,362.558532 Z M435.088311,362.201835 L424.305709,362.201835 L424.305709,345.341945 L427.58324,345.341945 L427.58324,359.062899 L435.088311,359.062899 L435.088311,362.201835 Z M440.930867,362.201835 L437.605835,362.201835 L437.605835,345.341945 L440.930867,345.341945 L440.930867,362.201835 Z" id="CLI" fill="#FFFFFF" fill-rule="nonzero"></path>
                <g id="Mask" transform="translate(146.239819, 245.504587)">
                    <mask id="mask-14" fill="white">
                        <use xlink:href="#path-13"></use>
                    </mask>
                    <use stroke-opacity="0.133877841" stroke="#46E3BF" stroke-width="11" fill="url(#linearGradient-12)" xlink:href="#path-13"></use>
                    <g id="Group" style="mix-blend-mode: soft-light;" mask="url(#mask-14)" fill="#FFFFFF" fill-rule="nonzero">
                        <g transform="translate(-216.610860, 0.000000)" id="Rectangle">
                            <polygon transform="translate(328.850158, 250.774843) rotate(-45.000000) translate(-328.850158, -250.774843) " points="291.238276 250.013073 366.462724 249.980029 366.462041 251.536613 291.237592 251.569657"></polygon>
                            <polygon transform="translate(246.103270, 333.591175) rotate(-45.000000) translate(-246.103270, -333.591175) " points="205.020455 332.83093 287.186768 332.794836 287.186084 334.351421 205.019772 334.387514"></polygon>
                            <polygon transform="translate(373.645224, 205.934746) rotate(135.000000) translate(-373.645224, -205.934746) " points="356.218726 205.164109 391.072407 205.148798 391.071723 206.705383 356.218042 206.720693"></polygon>
                            <polygon transform="translate(288.706564, 290.960384) rotate(135.000000) translate(-288.706564, -290.960384) " points="277.854751 290.186859 299.55906 290.177325 299.558377 291.73391 277.854068 291.743444"></polygon>
                            <polygon transform="translate(244.841863, 320.522042) rotate(135.000000) translate(-244.841863, -320.522042) " points="207.229981 319.760272 282.454429 319.727228 282.453745 321.283813 207.229297 321.316856"></polygon>
                            <polygon transform="translate(200.042547, 365.357689) rotate(135.000000) translate(-200.042547, -365.357689) " points="182.616049 364.587052 217.46973 364.571742 217.469046 366.128326 182.615365 366.143636"></polygon>
                            <polygon transform="translate(374.841120, 190.420577) rotate(135.000000) translate(-374.841120, -190.420577) " points="357.414622 189.64994 392.268302 189.63463 392.267619 191.191214 357.413938 191.206524"></polygon>
                            <polygon transform="translate(306.351964, 258.960165) rotate(135.000000) translate(-306.351964, -258.960165) " points="265.269149 258.199919 347.435462 258.163826 347.434778 259.72041 265.268465 259.756503"></polygon>
                            <polygon transform="translate(348.957670, 216.316536) rotate(135.000000) translate(-348.957670, -216.316536) " points="338.105857 215.54301 359.810166 215.533476 359.809482 217.090061 338.105174 217.099595"></polygon>
                            <polygon transform="translate(337.293948, 199.338242) rotate(135.000000) translate(-337.293948, -199.338242) " points="299.682065 198.576472 374.906514 198.543428 374.90583 200.100013 299.681382 200.133056"></polygon>
                            <polygon transform="translate(292.494452, 244.172243) rotate(-45.000000) translate(-292.494452, -244.172243) " points="275.067954 243.401606 309.921634 243.386296 309.920951 244.942881 275.06727 244.958191"></polygon>
                            <polygon transform="translate(377.443822, 159.160533) rotate(-45.000000) translate(-377.443822, -159.160533) " points="366.59201 158.387007 388.296319 158.377473 388.295635 159.934058 366.591326 159.943592"></polygon>
                            <polygon transform="translate(162.499811, 374.286074) rotate(135.000000) translate(-162.499811, -374.286074) " points="124.887929 373.524303 200.112377 373.49126 200.111694 375.047844 124.887245 375.080888"></polygon>
                            <polygon transform="translate(245.246700, 291.460571) rotate(135.000000) translate(-245.246700, -291.460571) " points="204.163885 290.700325 286.330198 290.664232 286.329514 292.220817 204.163202 292.25691"></polygon>
                            <polygon transform="translate(202.649686, 334.095678) rotate(-45.000000) translate(-202.649686, -334.095678) " points="191.797873 333.322153 213.502182 333.312619 213.501498 334.869203 191.79719 334.878737"></polygon>
                            <polygon transform="translate(279.254351, 271.748499) rotate(-45.000000) translate(-279.254351, -271.748499) " points="241.642469 270.986729 316.866917 270.953685 316.866233 272.51027 241.641785 272.543313"></polygon>
                            <polygon transform="translate(392.538387, 158.373524) rotate(-45.000000) translate(-392.538387, -158.373524) " points="351.455573 157.613278 433.621885 157.577185 433.621201 159.133769 351.454889 159.169862"></polygon>
                            <polygon transform="translate(324.049230, 226.917483) rotate(-45.000000) translate(-324.049230, -226.917483) " points="306.622732 226.146846 341.476413 226.131536 341.475729 227.688121 306.622048 227.703431"></polygon>
                            <polygon transform="translate(349.930843, 201.015440) rotate(-45.000000) translate(-349.930843, -201.015440) " points="339.079031 200.241915 360.78334 200.232381 360.782656 201.788965 339.078347 201.798499"></polygon>
                            <polygon transform="translate(217.739814, 333.319388) rotate(-45.000000) translate(-217.739814, -333.319388) " points="176.657 332.559143 258.823312 332.52305 258.822629 334.079634 176.656316 334.115727"></polygon>
                            <polygon transform="translate(266.585906, 255.766799) rotate(135.000000) translate(-266.585906, -255.766799) " points="228.974024 255.005029 304.198472 254.971985 304.197789 256.528569 228.97334 256.561613"></polygon>
                            <polygon transform="translate(349.337231, 172.952016) rotate(135.000000) translate(-349.337231, -172.952016) " points="308.254417 172.19177 390.420729 172.155677 390.420045 173.712261 308.253733 173.748354"></polygon>
                            <polygon transform="translate(221.795644, 300.609787) rotate(-45.000000) translate(-221.795644, -300.609787) " points="204.369146 299.83915 239.222826 299.82384 239.222142 301.380424 204.368462 301.395734"></polygon>
                            <polygon transform="translate(306.729868, 215.591797) rotate(-45.000000) translate(-306.729868, -215.591797) " points="295.878055 214.818272 317.582364 214.808738 317.581681 216.365322 295.877372 216.374856"></polygon>
                            <polygon transform="translate(174.549368, 347.899847) rotate(135.000000) translate(-174.549368, -347.899847) " points="133.466554 347.139601 215.632866 347.103508 215.632183 348.660093 133.46587 348.696186"></polygon>
                            <polygon transform="translate(291.482895, 216.527300) rotate(-45.000000) translate(-291.482895, -216.527300) " points="253.871013 215.76553 329.095461 215.732486 329.094777 217.28907 253.870329 217.322114"></polygon>
                            <polygon transform="translate(336.277774, 171.690005) rotate(-45.000000) translate(-336.277774, -171.690005) " points="318.851276 170.919368 353.704957 170.904058 353.704273 172.460642 318.850592 172.475952"></polygon>
                            <polygon transform="translate(161.489912, 346.631430) rotate(-45.000000) translate(-161.489912, -346.631430) " points="144.063413 345.860792 178.917094 345.845482 178.91641 347.402067 144.062729 347.417377"></polygon>
                            <polygon transform="translate(362.159387, 145.787962) rotate(-45.000000) translate(-362.159387, -145.787962) " points="351.307574 145.014437 373.011883 145.004902 373.0112 146.561487 351.306891 146.571021"></polygon>
                            <polygon transform="translate(229.968358, 278.091910) rotate(-45.000000) translate(-229.968358, -278.091910) " points="188.885544 277.331664 271.051856 277.295571 271.051173 278.852155 188.88486 278.888249"></polygon>
                            <polygon transform="translate(187.367088, 320.727547) rotate(-45.000000) translate(-187.367088, -320.727547) " points="176.515275 319.954022 198.219584 319.944488 198.218901 321.501072 176.514592 321.510606"></polygon>
                            <polygon transform="translate(170.403494, 309.059708) rotate(-45.000000) translate(-170.403494, -309.059708) " points="132.791612 308.297938 208.016061 308.264894 208.015377 309.821478 132.790928 309.854522"></polygon>
                            <polygon transform="translate(215.191912, 264.223373) rotate(135.000000) translate(-215.191912, -264.223373) " points="197.765414 263.452736 232.619095 263.437425 232.618411 264.99401 197.76473 265.00932"></polygon>
                            <polygon transform="translate(130.253252, 349.242732) rotate(135.000000) translate(-130.253252, -349.242732) " points="119.401439 348.469207 141.105748 348.459673 141.105065 350.016257 119.400756 350.025791"></polygon>
                            <polygon transform="translate(345.191357, 134.109403) rotate(-45.000000) translate(-345.191357, -134.109403) " points="307.579475 133.347633 382.803923 133.314589 382.80324 134.871174 307.578791 134.904217"></polygon>
                            <polygon transform="translate(262.440032, 216.930176) rotate(-45.000000) translate(-262.440032, -216.930176) " points="221.357218 216.16993 303.52353 216.133837 303.522847 217.690421 221.356534 217.726514"></polygon>
                            <polygon transform="translate(305.047389, 174.294901) rotate(135.000000) translate(-305.047389, -174.294901) " points="294.195576 173.521376 315.899885 173.511842 315.899201 175.068426 294.194892 175.07796"></polygon>
                            <polygon transform="translate(242.753244, 250.967136) rotate(135.000000) translate(-242.753244, -250.967136) " points="205.141362 250.205365 280.365811 250.172321 280.365127 251.728906 205.140678 251.76195"></polygon>
                            <polygon transform="translate(129.479918, 364.342370) rotate(135.000000) translate(-129.479918, -364.342370) " points="88.3971041 363.582124 170.563417 363.546031 170.562733 365.102615 88.3964203 365.138708"></polygon>
                            <polygon transform="translate(197.953929, 295.802782) rotate(135.000000) translate(-197.953929, -295.802782) " points="180.52743 295.032145 215.381111 295.016835 215.380427 296.573419 180.526747 296.588729"></polygon>
                            <polygon transform="translate(172.076752, 321.705020) rotate(135.000000) translate(-172.076752, -321.705020) " points="161.22494 320.931495 182.929249 320.921961 182.928565 322.478545 161.224256 322.488079"></polygon>
                            <polygon transform="translate(304.263345, 189.398978) rotate(135.000000) translate(-304.263345, -189.398978) " points="263.180531 188.638733 345.346843 188.60264 345.346159 190.159224 263.179847 190.195317"></polygon>
                            <polygon transform="translate(346.869051, 146.761629) rotate(135.000000) translate(-346.869051, -146.761629) " points="336.017239 145.988104 357.721548 145.97857 357.720864 147.535154 336.016555 147.544688"></polygon>
                            <polygon transform="translate(271.583347, 193.457330) rotate(-45.000000) translate(-271.583347, -193.457330) " points="233.971464 192.69556 309.195913 192.662516 309.195229 194.219101 233.970781 194.252144"></polygon>
                            <polygon transform="translate(188.836458, 276.273662) rotate(-45.000000) translate(-188.836458, -276.273662) " points="147.753644 275.513417 229.919956 275.477324 229.919273 277.033908 147.75296 277.070001"></polygon>
                            <polygon transform="translate(120.353575, 344.817622) rotate(-45.000000) translate(-120.353575, -344.817622) " points="102.927077 344.046985 137.780758 344.031675 137.780074 345.588259 102.926393 345.60357"></polygon>
                            <polygon transform="translate(146.235188, 318.915579) rotate(-45.000000) translate(-146.235188, -318.915579) " points="135.383375 318.142054 157.087684 318.13252 157.087001 319.689104 135.382692 319.698638"></polygon>
                            <polygon transform="translate(316.377678, 148.617233) rotate(135.000000) translate(-316.377678, -148.617233) " points="298.951179 147.846596 333.80486 147.831286 333.804176 149.38787 298.950495 149.40318"></polygon>
                            <polygon transform="translate(231.439017, 233.642872) rotate(135.000000) translate(-231.439017, -233.642872) " points="220.587205 232.869347 242.291514 232.859813 242.29083 234.416397 220.586521 234.425931"></polygon>
                            <polygon transform="translate(363.626159, 101.327798) rotate(-45.000000) translate(-363.626159, -101.327798) " points="322.543344 100.567552 404.709657 100.531459 404.708973 102.088043 322.54266 102.124137"></polygon>
                            <polygon transform="translate(187.574316, 263.204530) rotate(135.000000) translate(-187.574316, -263.204530) " points="149.962434 262.442759 225.186882 262.409716 225.186199 263.9663 149.96175 263.999344"></polygon>
                            <polygon transform="translate(142.775000, 308.040176) rotate(135.000000) translate(-142.775000, -308.040176) " points="125.348502 307.269539 160.202183 307.254229 160.201499 308.810813 125.347818 308.826123"></polygon>
                            <polygon transform="translate(317.573573, 133.103064) rotate(135.000000) translate(-317.573573, -133.103064) " points="300.147075 132.332427 335.000756 132.317117 335.000072 133.873701 300.146391 133.889011"></polygon>
                            <polygon transform="translate(116.897824, 333.948693) rotate(135.000000) translate(-116.897824, -333.948693) " points="106.046011 333.175168 127.75032 333.165634 127.749637 334.722219 106.045328 334.731753"></polygon>
                            <polygon transform="translate(249.084417, 201.642652) rotate(135.000000) translate(-249.084417, -201.642652) " points="208.001602 200.882406 290.167915 200.846313 290.167231 202.402897 208.000919 202.438991"></polygon>
                            <polygon transform="translate(291.690123, 158.999023) rotate(135.000000) translate(-291.690123, -158.999023) " points="280.83831 158.225498 302.542619 158.215964 302.541936 159.772548 280.837627 159.782082"></polygon>
                            <polygon transform="translate(280.026401, 142.020730) rotate(135.000000) translate(-280.026401, -142.020730) " points="242.414519 141.258959 317.638967 141.225916 317.638283 142.7825 242.413835 142.815544"></polygon>
                            <polygon transform="translate(235.227641, 186.854731) rotate(-45.000000) translate(-235.227641, -186.854731) " points="217.801142 186.084094 252.654823 186.068783 252.654139 187.625368 217.800458 187.640678"></polygon>
                            <polygon transform="translate(320.170737, 101.843020) rotate(-45.000000) translate(-320.170737, -101.843020) " points="309.318925 101.069495 331.023234 101.059961 331.02255 102.616545 309.318241 102.626079"></polygon>
                            <polygon transform="translate(105.232264, 316.968561) rotate(135.000000) translate(-105.232264, -316.968561) " points="67.620382 316.206791 142.84483 316.173747 142.844147 317.730331 67.6196982 317.763375"></polygon>
                            <polygon transform="translate(187.979153, 234.143058) rotate(135.000000) translate(-187.979153, -234.143058) " points="146.896339 233.382813 229.062651 233.34672 229.061967 234.903304 146.895655 234.939397"></polygon>
                            <polygon transform="translate(145.382874, 276.778165) rotate(-45.000000) translate(-145.382874, -276.778165) " points="134.531062 276.00464 156.235371 275.995106 156.234687 277.55169 134.530378 277.561224"></polygon>
                            <polygon transform="translate(221.987539, 214.430987) rotate(-45.000000) translate(-221.987539, -214.430987) " points="184.375657 213.669216 259.600106 213.636173 259.599422 215.192757 184.374973 215.225801"></polygon>
                            <polygon transform="translate(335.265302, 101.056011) rotate(-45.000000) translate(-335.265302, -101.056011) " points="294.182487 100.295765 376.3488 100.259672 376.348116 101.816257 294.181804 101.85235"></polygon>
                            <polygon transform="translate(266.782419, 169.599971) rotate(-45.000000) translate(-266.782419, -169.599971) " points="249.35592 168.829334 284.209601 168.814023 284.208917 170.370608 249.355237 170.385918"></polygon>
                            <polygon transform="translate(91.994556, 344.541395) rotate(-45.000000) translate(-91.994556, -344.541395) " points="74.5680576 343.770758 109.421738 343.755448 109.421055 345.312032 74.5673739 345.327342"></polygon>
                            <polygon transform="translate(292.664032, 143.697927) rotate(-45.000000) translate(-292.664032, -143.697927) " points="281.812219 142.924402 303.516528 142.914868 303.515844 144.471453 281.811535 144.480987"></polygon>
                            <polygon transform="translate(160.473003, 276.001876) rotate(-45.000000) translate(-160.473003, -276.001876) " points="119.390188 275.24163 201.556501 275.205537 201.555817 276.762121 119.389505 276.798214"></polygon>
                            <polygon transform="translate(117.871733, 318.637513) rotate(-45.000000) translate(-117.871733, -318.637513) " points="107.01992 317.863988 128.724229 317.854454 128.723545 319.411038 107.019236 319.420572"></polygon>
                            <polygon transform="translate(209.318359, 198.449286) rotate(135.000000) translate(-209.318359, -198.449286) " points="171.706477 197.687516 246.930925 197.654472 246.930242 199.211056 171.705793 199.2441"></polygon>
                            <polygon transform="translate(292.069684, 115.634503) rotate(135.000000) translate(-292.069684, -115.634503) " points="250.98687 114.874257 333.153182 114.838164 333.152499 116.394748 250.986186 116.430842"></polygon>
                            <polygon transform="translate(164.528832, 243.292274) rotate(-45.000000) translate(-164.528832, -243.292274) " points="147.102334 242.521637 181.956015 242.506327 181.955331 244.062911 147.10165 244.078222"></polygon>
                            <polygon transform="translate(249.463057, 158.274284) rotate(-45.000000) translate(-249.463057, -158.274284) " points="238.611244 157.500759 260.315553 157.491225 260.314869 159.047809 238.61056 159.057343"></polygon>
                            <polygon transform="translate(117.281821, 290.582334) rotate(135.000000) translate(-117.281821, -290.582334) " points="76.199007 289.822089 158.36532 289.785995 158.364636 291.34258 76.1983232 291.378673"></polygon>
                            <polygon transform="translate(234.216083, 159.209787) rotate(-45.000000) translate(-234.216083, -159.209787) " points="196.604201 158.448017 271.82865 158.414973 271.827966 159.971558 196.603517 160.004602"></polygon>
                            <polygon transform="translate(56.975168, 336.599875) rotate(-45.000000) translate(-56.975168, -336.599875) " points="15.8923533 335.839629 98.0586659 335.803536 98.0579821 337.36012 15.8916695 337.396214"></polygon>
                            <polygon transform="translate(279.010963, 114.372492) rotate(-45.000000) translate(-279.010963, -114.372492) " points="261.584464 113.601855 296.438145 113.586545 296.437461 115.143129 261.583781 115.158439"></polygon>
                            <polygon transform="translate(104.223100, 289.313917) rotate(-45.000000) translate(-104.223100, -289.313917) " points="86.7966016 288.54328 121.650282 288.52797 121.649598 290.084554 86.7959178 290.099864"></polygon>
                            <polygon transform="translate(304.892576, 88.470449) rotate(-45.000000) translate(-304.892576, -88.470449) " points="294.040763 87.6969238 315.745072 87.6873897 315.744388 89.2439741 294.040079 89.2535081"></polygon>
                            <polygon transform="translate(172.701547, 220.774397) rotate(-45.000000) translate(-172.701547, -220.774397) " points="131.618732 220.014152 213.785045 219.978058 213.784361 221.534643 131.618048 221.570736"></polygon>
                            <polygon transform="translate(130.100277, 263.410034) rotate(-45.000000) translate(-130.100277, -263.410034) " points="119.248464 262.636509 140.952773 262.626975 140.952089 264.183559 119.24778 264.193093"></polygon>
                            <polygon transform="translate(113.136683, 251.742195) rotate(-45.000000) translate(-113.136683, -251.742195) " points="75.5248004 250.980425 150.749249 250.947381 150.748565 252.503966 75.5241167 252.53701"></polygon>
                            <polygon transform="translate(157.924366, 206.905860) rotate(135.000000) translate(-157.924366, -206.905860) " points="140.497867 206.135223 175.351548 206.119913 175.350864 207.676497 140.497183 207.691807"></polygon>
                            <polygon transform="translate(72.985705, 291.925219) rotate(135.000000) translate(-72.985705, -291.925219) " points="62.1338925 291.151694 83.8382015 291.14216 83.8375178 292.698745 62.1332088 292.708279"></polygon>
                            <polygon transform="translate(287.924546, 76.791891) rotate(-45.000000) translate(-287.924546, -76.791891) " points="250.312663 76.0301204 325.537112 75.9970766 325.536428 77.5536609 250.31198 77.5867047"></polygon>
                            <polygon transform="translate(205.173221, 159.612663) rotate(-45.000000) translate(-205.173221, -159.612663) " points="164.090406 158.852417 246.256719 158.816324 246.256035 160.372909 164.089723 160.409002"></polygon>
                            <polygon transform="translate(247.779842, 116.977388) rotate(135.000000) translate(-247.779842, -116.977388) " points="236.928029 116.203863 258.632338 116.194329 258.631654 117.750913 236.927345 117.760447"></polygon>
                            <polygon transform="translate(185.485698, 193.649623) rotate(135.000000) translate(-185.485698, -193.649623) " points="147.873815 192.887852 223.098264 192.854809 223.09758 194.411393 147.873131 194.444437"></polygon>
                            <polygon transform="translate(72.212372, 307.024857) rotate(135.000000) translate(-72.212372, -307.024857) " points="31.1295572 306.264611 113.29587 306.228518 113.295186 307.785102 31.1288735 307.821196"></polygon>
                            <polygon transform="translate(140.686382, 238.485269) rotate(135.000000) translate(-140.686382, -238.485269) " points="123.259884 237.714632 158.113564 237.699322 158.11288 239.255906 123.2592 239.271216"></polygon>
                            <polygon transform="translate(114.809205, 264.387507) rotate(135.000000) translate(-114.809205, -264.387507) " points="103.957393 263.613982 125.661702 263.604448 125.661018 265.161032 103.956709 265.170566"></polygon>
                            <polygon transform="translate(246.995798, 132.081466) rotate(135.000000) translate(-246.995798, -132.081466) " points="205.912984 131.32122 288.079296 131.285127 288.078613 132.841711 205.9123 132.877804"></polygon>
                            <polygon transform="translate(289.601505, 89.444116) rotate(135.000000) translate(-289.601505, -89.444116) " points="278.749692 88.6705909 300.454001 88.6610569 300.453317 90.2176412 278.749008 90.2271752"></polygon>
                            <polygon transform="translate(180.687723, 169.790530) rotate(135.000000) translate(-180.687723, -169.790530) " points="143.07584 169.028759 218.300289 168.995716 218.299605 170.5523 143.075157 170.585344"></polygon>
                            <polygon transform="translate(263.439048, 86.975746) rotate(135.000000) translate(-263.439048, -86.975746) " points="222.356233 86.2155009 304.522546 86.1794078 304.521862 87.7359921 222.35555 87.7720852"></polygon>
                            <polygon transform="translate(135.892290, 214.633518) rotate(-45.000000) translate(-135.892290, -214.633518) " points="118.465791 213.862881 153.319472 213.847571 153.318788 215.404155 118.465108 215.419465"></polygon>
                            <polygon transform="translate(220.832788, 129.615528) rotate(-45.000000) translate(-220.832788, -129.615528) " points="209.980975 128.842003 231.685284 128.832469 231.6846 130.389053 209.980291 130.398587"></polygon>
                            <polygon transform="translate(88.644911, 261.923578) rotate(135.000000) translate(-88.644911, -261.923578) " points="47.5620967 261.163332 129.728409 261.127239 129.727725 262.683823 47.5614129 262.719917"></polygon>
                            <polygon transform="translate(130.017982, 206.186553) rotate(-45.000000) translate(-130.017982, -206.186553) " points="92.4060999 205.424782 167.630548 205.391738 167.629865 206.948323 92.4054161 206.981367"></polygon>
                            <polygon transform="translate(243.291308, 92.800857) rotate(-45.000000) translate(-243.291308, -92.800857) " points="202.208494 92.0406118 284.374806 92.0045186 284.374123 93.561103 202.20781 93.5971961"></polygon>
                            <polygon transform="translate(174.812862, 161.349257) rotate(-45.000000) translate(-174.812862, -161.349257) " points="157.386363 160.57862 192.240044 160.56331 192.23936 162.119894 157.385679 162.135205"></polygon>
                            <polygon transform="translate(200.694474, 135.440935) rotate(-45.000000) translate(-200.694474, -135.440935) " points="189.842662 134.66741 211.546971 134.657875 211.546287 136.21446 189.841978 136.223994"></polygon>
                            <polygon transform="translate(68.503445, 267.751162) rotate(-45.000000) translate(-68.503445, -267.751162) " points="27.4206311 266.990917 109.586944 266.954823 109.58626 268.511408 27.4199473 268.547501"></polygon>
                            <polygon transform="translate(84.500140, 223.083439) rotate(-45.000000) translate(-84.500140, -223.083439) " points="46.8882578 222.321669 122.112706 222.288625 122.112023 223.845209 46.887574 223.878253"></polygon>
                            <polygon transform="translate(129.293729, 178.247104) rotate(135.000000) translate(-129.293729, -178.247104) " points="111.867231 177.476467 146.720911 177.461156 146.720227 179.017741 111.866547 179.033051"></polygon>
                            <polygon transform="translate(259.288003, 48.133134) rotate(-45.000000) translate(-259.288003, -48.133134) " points="221.676121 47.371364 296.900569 47.3383202 296.899885 48.8949045 221.675437 48.9279483"></polygon>
                            <polygon transform="translate(176.542952, 130.953907) rotate(-45.000000) translate(-176.542952, -130.953907) " points="135.460138 130.193661 217.62645 130.157568 217.625766 131.714152 135.459454 131.750245"></polygon>
                            <polygon transform="translate(219.142931, 88.312352) rotate(135.000000) translate(-219.142931, -88.312352) " points="208.291119 87.5388272 229.995428 87.5292932 229.994744 89.0858775 208.290435 89.0954116"></polygon>
                            <polygon transform="translate(156.855061, 164.990866) rotate(135.000000) translate(-156.855061, -164.990866) " points="119.243179 164.229096 194.467627 164.196052 194.466944 165.752637 119.242495 165.78568"></polygon>
                            <polygon transform="translate(43.575461, 278.366100) rotate(135.000000) translate(-43.575461, -278.366100) " points="2.4926469 277.605855 84.6589595 277.569762 84.6582757 279.126346 2.49196314 279.162439"></polygon>
                            <polygon transform="translate(112.055745, 209.826513) rotate(135.000000) translate(-112.055745, -209.826513) " points="94.629247 209.055876 129.482928 209.040566 129.482244 210.59715 94.6285632 210.61246"></polygon>
                            <polygon transform="translate(86.172295, 235.728751) rotate(135.000000) translate(-86.172295, -235.728751) " points="75.3204826 234.955226 97.0247915 234.945692 97.0241078 236.502276 75.3197988 236.51181"></polygon>
                            <polygon transform="translate(218.365162, 103.422709) rotate(135.000000) translate(-218.365162, -103.422709) " points="177.282347 102.662464 259.44866 102.626371 259.447976 104.182955 177.281664 104.219048"></polygon>
                            <polygon transform="translate(260.970868, 60.785360) rotate(135.000000) translate(-260.970868, -60.785360) " points="250.119055 60.0118345 271.823364 60.0023005 271.822681 61.5588848 250.118372 61.5684189"></polygon>
                            <polygon transform="translate(215.555793, 77.575957) rotate(-45.000000) translate(-215.555793, -77.575957) " points="177.943911 76.8141865 253.168359 76.7811426 253.167676 78.337727 177.943227 78.3707708"></polygon>
                            <polygon transform="translate(132.804468, 160.396729) rotate(-45.000000) translate(-132.804468, -160.396729) " points="91.7216539 159.636483 173.887966 159.60039 173.887283 161.156975 91.7209702 161.193068"></polygon>
                            <polygon transform="translate(64.326022, 228.936249) rotate(-45.000000) translate(-64.326022, -228.936249) " points="46.8995232 228.165612 81.7532039 228.150301 81.7525202 229.706886 46.8988395 229.722196"></polygon>
                            <polygon transform="translate(90.203198, 203.038645) rotate(-45.000000) translate(-90.203198, -203.038645) " points="79.3513856 202.26512 101.055695 202.255586 101.055011 203.812171 79.3507018 203.821705"></polygon>
                            <polygon transform="translate(260.349021, 32.748229) rotate(135.000000) translate(-260.349021, -32.748229) " points="242.922523 31.9775923 277.776203 31.9622822 277.775519 33.5188665 242.921839 33.5341767"></polygon>
                            <polygon transform="translate(175.405924, 117.763149) rotate(135.000000) translate(-175.405924, -117.763149) " points="164.554112 116.989624 186.258421 116.98009 186.257737 118.536674 164.553428 118.546208"></polygon>
                            <polygon transform="translate(131.545660, 147.329247) rotate(135.000000) translate(-131.545660, -147.329247) " points="93.9337771 146.567476 169.158226 146.534433 169.157542 148.091017 93.9330934 148.124061"></polygon>
                            <polygon transform="translate(86.750780, 192.166732) rotate(135.000000) translate(-86.750780, -192.166732) " points="69.3242817 191.396095 104.177962 191.380785 104.177279 192.937369 69.3235979 192.95268"></polygon>
                            <polygon transform="translate(193.060196, 85.762929) rotate(135.000000) translate(-193.060196, -85.762929) " points="151.977382 85.0026832 234.143694 84.9665901 234.143011 86.5231744 151.976698 86.5592675"></polygon>
                            <polygon transform="translate(235.663304, 43.125579) rotate(135.000000) translate(-235.663304, -43.125579) " points="224.811491 42.352054 246.5158 42.34252 246.515117 43.8991043 224.810808 43.9086384"></polygon>
                            <polygon transform="translate(194.121944, 56.044461) rotate(135.000000) translate(-194.121944, -56.044461) " points="156.510061 55.2826903 231.73451 55.2496465 231.733826 56.8062308 156.509378 56.8392746"></polygon>
                            <polygon transform="translate(149.324286, 100.878462) rotate(-45.000000) translate(-149.324286, -100.878462) " points="131.897788 100.107824 166.751469 100.092514 166.750785 101.649099 131.897104 101.664409"></polygon>
                            <polygon transform="translate(102.074696, 148.166789) rotate(135.000000) translate(-102.074696, -148.166789) " points="60.9918814 147.406544 143.158194 147.37045 143.15751 148.927035 60.9911977 148.963128"></polygon>
                            <polygon transform="translate(165.959990, 98.555897) rotate(-45.000000) translate(-165.959990, -98.555897) " points="128.348108 97.7941203 203.572556 97.7610765 203.571872 99.3176608 128.347424 99.3507046"></polygon>
                            <polygon transform="translate(210.754865, 53.718597) rotate(-45.000000) translate(-210.754865, -53.718597) " points="193.328367 52.94796 228.182047 52.9326499 228.181364 54.4892342 193.327683 54.5045444"></polygon>
                            <polygon transform="translate(104.445449, 160.120502) rotate(-45.000000) translate(-104.445449, -160.120502) " points="63.3626347 159.360256 145.528947 159.324163 145.528263 160.880748 63.3619509 160.916841"></polygon>
                            <polygon transform="translate(61.848615, 202.766859) rotate(-45.000000) translate(-61.848615, -202.766859) " points="50.9968026 201.993333 72.7011116 201.983799 72.7004278 203.540384 50.9961188 203.549918"></polygon>
                            <polygon transform="translate(123.420176, 112.473017) rotate(135.000000) translate(-123.420176, -112.473017) " points="85.8082936 111.711247 161.032742 111.678203 161.032058 113.234787 85.8076098 113.267831"></polygon>
                            <polygon transform="translate(206.171501, 29.658234) rotate(135.000000) translate(-206.171501, -29.658234) " points="165.088686 28.8979882 247.254999 28.861895 247.254315 30.4184793 165.088003 30.4545725"></polygon>
                            <polygon transform="translate(78.625478, 157.316005) rotate(-45.000000) translate(-78.625478, -157.316005) " points="61.1989798 156.545368 96.0526605 156.530058 96.0519767 158.086642 61.1982961 158.101952"></polygon>
                            <polygon transform="translate(163.565976, 72.298015) rotate(-45.000000) translate(-163.565976, -72.298015) " points="152.714164 71.5244899 174.418473 71.5149558 174.417789 73.0715402 152.71348 73.0810742"></polygon>
                            <polygon transform="translate(148.312729, 73.233518) rotate(-45.000000) translate(-148.312729, -73.233518) " points="110.700847 72.4717481 185.925295 72.4387043 185.924612 73.9952886 110.700163 74.0283324"></polygon>
                            <polygon transform="translate(193.107609, 28.396223) rotate(-45.000000) translate(-193.107609, -28.396223) " points="175.68111 27.6255861 210.534791 27.6102759 210.534107 29.1668602 175.680426 29.1821704"></polygon>
                            <polygon transform="translate(86.798192, 134.798128) rotate(-45.000000) translate(-86.798192, -134.798128) " points="45.7153781 134.037882 127.881691 134.001789 127.881007 135.558374 45.7146943 135.594467"></polygon>
                            <polygon transform="translate(72.026182, 120.929591) rotate(135.000000) translate(-72.026182, -120.929591) " points="54.5996837 120.158954 89.4533644 120.143644 89.4526806 121.700228 54.5989999 121.715538"></polygon>
                            <polygon transform="translate(119.276140, 73.636394) rotate(-45.000000) translate(-119.276140, -73.636394) " points="78.193326 72.8761482 160.359639 72.8400551 160.358955 74.3966394 78.1926423 74.4327326"></polygon>
                            <polygon transform="translate(99.587514, 107.673354) rotate(135.000000) translate(-99.587514, -107.673354) " points="61.9756319 106.911583 137.20008 106.87854 137.199397 108.435124 61.9749481 108.468168"></polygon>
                            <polygon transform="translate(161.097615, 46.105197) rotate(135.000000) translate(-161.097615, -46.105197) " points="120.0148 45.344951 202.181113 45.3088578 202.180429 46.8654421 120.014117 46.9015353"></polygon>
                        </g>
                    </g>
                </g>
                <path d="M199.941719,357.401835 C193.300452,357.401835 187.978643,353.306422 187.978643,345.644037 L187.978643,325.475229 L194.048145,325.475229 L194.048145,345.20367 C194.048145,349.299083 196.335204,351.456881 199.941719,351.456881 C203.636199,351.456881 205.879276,349.299083 205.879276,345.20367 L205.879276,325.475229 L211.948778,325.475229 L211.948778,345.644037 C211.948778,353.306422 206.626968,357.401835 199.941719,357.401835 Z M222.385055,344.234862 L222.385055,356.697248 L216.535462,356.697248 L216.535462,335.031193 L222.209127,335.031193 L222.209127,337.717431 C223.528584,335.47156 226.123516,334.458716 228.454557,334.458716 C233.820349,334.458716 236.283335,338.289908 236.283335,343.045872 L236.283335,356.697248 L230.433743,356.697248 L230.433743,344.058716 C230.433743,341.636697 229.246231,339.743119 226.43139,339.743119 C223.88044,339.743119 222.385055,341.724771 222.385055,344.234862 Z M246.499703,356.697248 L240.65011,356.697248 L240.65011,335.031193 L246.499703,335.031193 L246.499703,356.697248 Z M239.946399,327.941284 C239.946399,325.915596 241.57373,324.286239 243.552915,324.286239 C245.576083,324.286239 247.159431,325.915596 247.159431,327.941284 C247.159431,329.878899 245.576083,331.508257 243.552915,331.508257 C241.57373,331.508257 239.946399,329.878899 239.946399,327.941284 Z M256.848016,356.697248 L251.17435,356.697248 L251.17435,324.814679 L256.935979,324.814679 L256.935979,337.409174 C257.903581,335.86789 260.278604,334.458716 263.489282,334.458716 C269.822676,334.458716 273.473174,339.346789 273.473174,345.776147 C273.473174,352.337615 269.426839,357.225688 263.269373,357.225688 C260.278604,357.225688 257.991545,355.904587 256.848016,354.055046 L256.848016,356.697248 Z M267.623581,345.820183 C267.623581,341.856881 265.248559,339.699083 262.257789,339.699083 C259.311002,339.699083 256.848016,341.856881 256.848016,345.820183 C256.848016,349.73945 259.311002,351.985321 262.257789,351.985321 C265.248559,351.985321 267.623581,349.783486 267.623581,345.820183 Z M282.370084,356.697248 L276.520491,356.697248 L276.520491,335.031193 L282.370084,335.031193 L282.370084,356.697248 Z M275.816781,327.941284 C275.816781,325.915596 277.444111,324.286239 279.423297,324.286239 C281.446464,324.286239 283.029813,325.915596 283.029813,327.941284 C283.029813,329.878899 281.446464,331.508257 279.423297,331.508257 C277.444111,331.508257 275.816781,329.878899 275.816781,327.941284 Z M294.257763,328.557798 L294.257763,335.031193 L298.611972,335.031193 L298.611972,340.227523 L294.257763,340.227523 L294.257763,349.299083 C294.257763,351.192661 295.137401,351.809174 296.808714,351.809174 C297.512424,351.809174 298.304098,351.721101 298.611972,351.633028 L298.611972,356.477064 C298.084189,356.697248 297.028623,357.005505 295.313329,357.005505 C291.091067,357.005505 288.452153,354.495413 288.452153,350.311927 L288.452153,340.227523 L284.537763,340.227523 L284.537763,335.031193 L285.637311,335.031193 C287.92437,335.031193 288.979935,333.533945 288.979935,331.59633 L288.979935,328.557798 L294.257763,328.557798 Z" id="Unibit" fill="#FFFFFF" fill-rule="nonzero"></path>
            </g>
        </g>
    </g>
</svg>