<svg width="645" height="475" xmlns="http://www.w3.org/2000/svg" xmlns:xlink="http://www.w3.org/1999/xlink"><defs><rect id="a" width="540" height="173" rx="8"/><rect id="c" width="540" height="272" rx="8"/><linearGradient x1="85.209%" y1="65.152%" x2="-22.273%" y2="65.152%" id="f"><stop stop-color="#3BE2BC" offset="0%"/><stop stop-color="#1B96F1" offset="100%"/></linearGradient><circle id="e" cx="87.5" cy="87.5" r="87.5"/></defs><g fill="none" fill-rule="evenodd"><mask id="b" fill="#fff"><use xlink:href="#a"/></mask><use fill="#192B47" xlink:href="#a"/><path fill="#00112D" mask="url(#b)" d="M0 0h540v38H0z"/><circle fill="#FF5F56" cx="25.5" cy="18.5" r="4.5"/><circle fill="#FFBD2E" cx="46.5" cy="18.5" r="4.5"/><circle fill="#27C93F" cx="66.5" cy="18.5" r="4.5"/><path d="M235.36 13.5h4v9.146h2.255V24h-6.255v-1.354h2.352V14.86h-2.352V13.5zm7.3 6.733c0-.533.079-1.03.236-1.49.157-.46.383-.859.677-1.196a3.101 3.101 0 0 1 1.076-.793 3.468 3.468 0 0 1 1.443-.287 3.51 3.51 0 0 1 1.452.287c.427.191.787.456 1.08.793.294.337.519.736.674 1.196.155.46.232.957.232 1.49v.144c0 .538-.077 1.037-.232 1.497-.155.46-.38.858-.673 1.193a3.121 3.121 0 0 1-1.077.79 3.468 3.468 0 0 1-1.443.287 3.51 3.51 0 0 1-1.452-.288 3.113 3.113 0 0 1-1.08-.79 3.5 3.5 0 0 1-.677-1.192 4.603 4.603 0 0 1-.236-1.497v-.144zm1.634.144c0 .337.035.654.106.95.07.296.18.557.328.783.148.225.336.403.564.533.228.13.499.195.813.195.306 0 .571-.065.797-.195.225-.13.412-.308.56-.533.149-.226.258-.487.329-.783.07-.296.105-.613.105-.95v-.144c0-.328-.035-.64-.105-.936a2.407 2.407 0 0 0-.329-.78 1.693 1.693 0 0 0-.56-.533 1.575 1.575 0 0 0-.81-.198c-.31 0-.579.066-.807.198a1.65 1.65 0 0 0-.56.534 2.453 2.453 0 0 0-.325.779c-.07.296-.106.608-.106.936v.144zm9.802 2.46c.2 0 .395-.031.584-.095.19-.064.357-.152.503-.266.145-.114.26-.249.345-.404a.988.988 0 0 0 .12-.506h1.544a2.04 2.04 0 0 1-.242 1.002 2.666 2.666 0 0 1-.677.817 3.39 3.39 0 0 1-.988.553 3.395 3.395 0 0 1-1.176.206c-.57 0-1.068-.098-1.497-.294a3.038 3.038 0 0 1-1.073-.804 3.425 3.425 0 0 1-.646-1.182 4.674 4.674 0 0 1-.215-1.432v-.246c0-.506.072-.985.215-1.436.144-.451.359-.845.646-1.183a3.093 3.093 0 0 1 1.073-.803c.429-.198.925-.297 1.49-.297.447 0 .86.068 1.241.205.38.137.709.328.985.574.275.246.49.54.642.882.153.342.227.715.222 1.121h-1.545a1.36 1.36 0 0 0-.43-1.032 1.602 1.602 0 0 0-.5-.315 1.66 1.66 0 0 0-.628-.116c-.342 0-.627.07-.855.209a1.61 1.61 0 0 0-.547.547 2.355 2.355 0 0 0-.29.769 4.485 4.485 0 0 0-.085.875v.246c0 .3.028.594.085.881.057.288.154.544.29.77.137.225.32.407.547.546.228.14.515.209.862.209zM263.48 24a1.509 1.509 0 0 1-.112-.321 5.31 5.31 0 0 1-.079-.397 2.756 2.756 0 0 1-1.432.786c-.203.046-.42.069-.653.069-.392 0-.746-.056-1.063-.168a2.45 2.45 0 0 1-.813-.465 2.071 2.071 0 0 1-.523-.7 2.077 2.077 0 0 1-.185-.875c0-.793.295-1.4.885-1.819.59-.419 1.437-.629 2.54-.629h1.196v-.485c0-.392-.132-.703-.396-.933-.265-.23-.638-.345-1.121-.345-.22 0-.41.026-.575.078-.164.053-.3.125-.41.216a.88.88 0 0 0-.246.321.965.965 0 0 0-.082.396h-1.634c0-.287.068-.566.202-.837a2.19 2.19 0 0 1 .591-.725c.26-.211.578-.381.954-.509a4.002 4.002 0 0 1 1.288-.191c.438 0 .844.053 1.217.16.374.108.698.267.971.479.273.212.488.476.643.793.155.317.232.687.232 1.11v3.296c0 .323.024.618.072.885.048.267.117.498.208.694V24h-1.675zm-1.968-1.183c.21 0 .406-.026.591-.078.185-.053.35-.121.5-.205.147-.085.275-.181.382-.29a1.6 1.6 0 0 0 .256-.336v-1.387h-1.039c-.665 0-1.156.107-1.473.32-.317.215-.475.52-.475.917 0 .15.025.29.075.42.05.13.127.242.23.335.102.094.232.168.389.222.157.055.345.082.564.082zm5.454-9.317h3.999v9.146h2.256V24h-6.255v-1.354h2.351V14.86h-2.351V13.5zm14.498 4.983c-.014.401-.06.802-.137 1.204a4.262 4.262 0 0 1-.352 1.08 2.316 2.316 0 0 1-.601.779c-.244.2-.537.3-.879.3-.25 0-.47-.062-.656-.187a1.155 1.155 0 0 1-.424-.537c-.16.223-.345.399-.557.526-.212.128-.441.192-.687.192-.242 0-.455-.058-.64-.174a1.294 1.294 0 0 1-.45-.503 2.438 2.438 0 0 1-.243-.79 4.532 4.532 0 0 1-.02-1.035c.045-.492.134-.934.266-1.326s.3-.725.506-.998c.205-.274.444-.485.718-.633.273-.148.574-.222.902-.222.333 0 .606.057.82.171.214.114.385.246.513.397l-.294 3.52c-.014.16-.01.286.01.38.02.093.05.164.09.211a.24.24 0 0 0 .136.09.723.723 0 0 0 .154.016c.136 0 .26-.061.372-.184a1.55 1.55 0 0 0 .287-.51c.08-.216.142-.473.185-.772.043-.298.065-.623.065-.974a5.45 5.45 0 0 0-.133-1.49 2.885 2.885 0 0 0-.496-1.077 2.123 2.123 0 0 0-.824-.653 2.692 2.692 0 0 0-1.11-.219c-.46 0-.877.106-1.248.318-.372.212-.69.507-.954.886a4.538 4.538 0 0 0-.622 1.343 6.793 6.793 0 0 0-.253 1.699c-.05 1.24.164 2.176.643 2.81.478.633 1.18.95 2.105.95.283 0 .566-.038.851-.113.285-.076.53-.175.735-.298l.219.882a2.048 2.048 0 0 1-.4.226 3.447 3.447 0 0 1-.95.256c-.167.02-.325.03-.475.03-.657 0-1.225-.112-1.706-.338a3.083 3.083 0 0 1-1.182-.957c-.308-.412-.534-.91-.677-1.493a7.228 7.228 0 0 1-.181-1.955 7.13 7.13 0 0 1 .348-2.024c.21-.633.496-1.187.858-1.661a4.145 4.145 0 0 1 1.289-1.125 3.324 3.324 0 0 1 1.64-.413 3.35 3.35 0 0 1 1.46.31c.435.208.802.503 1.1.886.299.383.525.846.677 1.388a6.06 6.06 0 0 1 .202 1.811zm-4.608.855c-.022.501.02.874.127 1.118.107.243.263.365.468.365.15 0 .299-.036.445-.11.145-.072.28-.216.403-.43v-.034l.266-3.083a.97.97 0 0 0-.28-.041c-.428 0-.755.191-.98.574-.226.383-.376.93-.449 1.64zM282.345 24v-9.953h2.433c.684.004 1.298.118 1.843.342a3.907 3.907 0 0 1 1.387.943c.38.406.674.89.879 1.453.205.562.31 1.186.314 1.87v.751a5.536 5.536 0 0 1-.314 1.87 4.182 4.182 0 0 1-.875 1.45 3.915 3.915 0 0 1-1.374.939c-.538.223-1.142.335-1.812.335h-2.481zm1.668-8.627v7.308h.813c.451-.005.846-.086 1.183-.243a2.3 2.3 0 0 0 .844-.663 2.88 2.88 0 0 0 .506-1.029c.112-.4.17-.848.174-1.34v-.765a5.01 5.01 0 0 0-.174-1.313 2.922 2.922 0 0 0-.51-1.029 2.344 2.344 0 0 0-.857-.676c-.344-.162-.749-.245-1.214-.25h-.765zm9.801 8.764a3.962 3.962 0 0 1-1.497-.274 3.464 3.464 0 0 1-1.158-.752 3.37 3.37 0 0 1-.749-1.131 3.698 3.698 0 0 1-.266-1.412v-.28c0-.588.094-1.116.283-1.586.19-.47.442-.87.759-1.203a3.265 3.265 0 0 1 1.107-.766 3.388 3.388 0 0 1 1.33-.266c.538 0 1.012.09 1.422.27a2.8 2.8 0 0 1 1.029.759c.275.325.484.712.625 1.158.141.447.212.937.212 1.47v.69h-5.127c.028.288.098.554.212.8.114.246.263.46.448.64.184.18.4.32.65.423.248.103.52.154.816.154.415 0 .797-.082 1.145-.246.349-.164.632-.39.851-.677l.889.834a2.71 2.71 0 0 1-.458.516 3.184 3.184 0 0 1-.656.445 3.96 3.96 0 0 1-.845.314c-.312.08-.652.12-1.022.12zm-.198-6.35c-.228 0-.44.04-.636.122a1.603 1.603 0 0 0-.526.36 2.08 2.08 0 0 0-.393.573 2.815 2.815 0 0 0-.229.77h3.466v-.124a2.36 2.36 0 0 0-.127-.632 1.672 1.672 0 0 0-.31-.544 1.492 1.492 0 0 0-.517-.382 1.722 1.722 0 0 0-.728-.144zm7.683 4.149l.116.546.123-.54 1.791-5.338h1.689L302.119 24h-1.408l-2.926-7.396h1.689l1.825 5.332z" fill="#FFF" fill-rule="nonzero"/><path d="M23.656 60.547l.102 1.25c.307-.438.685-.78 1.133-1.027a3.112 3.112 0 0 1 1.5-.38c.442 0 .845.063 1.207.188.362.125.67.32.925.586.256.266.452.603.59 1.012.138.409.207.894.207 1.457V69h-1.445v-5.336c0-.375-.042-.693-.125-.953a1.518 1.518 0 0 0-.371-.633 1.45 1.45 0 0 0-.602-.351 2.778 2.778 0 0 0-.816-.11c-.484 0-.91.121-1.277.363-.368.243-.66.562-.88.958V69H22.36v-8.453h1.297zm14.866 4.32a6.28 6.28 0 0 1-.218 1.692c-.146.523-.36.977-.641 1.363a3.029 3.029 0 0 1-1.043.906 2.99 2.99 0 0 1-1.418.328c-.516 0-.97-.083-1.363-.25a2.829 2.829 0 0 1-1.012-.719v4.063h-1.445V60.547h1.32l.07.922a2.82 2.82 0 0 1 1.02-.801c.398-.185.86-.277 1.387-.277.541 0 1.02.106 1.437.32.417.213.766.51 1.047.89.281.38.495.835.64 1.364.146.528.22 1.108.22 1.738v.164zm-1.445-.164a4.93 4.93 0 0 0-.137-1.176 3.06 3.06 0 0 0-.422-.984 2.135 2.135 0 0 0-.722-.676c-.292-.166-.64-.25-1.047-.25-.464 0-.853.108-1.168.324a2.41 2.41 0 0 0-.754.832v4.07c.188.334.438.606.75.817.313.211.708.317 1.188.317.4 0 .747-.085 1.039-.254.291-.17.53-.397.718-.684.188-.286.327-.617.418-.992.091-.375.137-.768.137-1.18v-.164zm4.007-4.156l.039.797c.172-.297.397-.529.676-.696.278-.166.615-.252 1.011-.257.776 0 1.295.302 1.555.906a1.93 1.93 0 0 1 .66-.652c.274-.165.606-.25.996-.254.62 0 1.097.19 1.43.57.333.38.5.956.5 1.727V69h-1.375v-6.328c0-.708-.326-1.06-.977-1.055-.172 0-.32.024-.445.07a.892.892 0 0 0-.312.192.88.88 0 0 0-.196.281 1.238 1.238 0 0 0-.094.332V69h-1.375v-6.336c0-.338-.075-.599-.226-.781-.151-.182-.39-.271-.719-.266-.302 0-.536.06-.703.18-.167.12-.289.279-.367.476V69h-1.375v-8.453h1.297zm17.622 0h4.32v7.203h2.759V69h-7.079v-1.25h2.875v-5.945h-2.875v-1.258zm2.688-2.219c0-.24.072-.441.215-.605.143-.164.36-.246.652-.246.287 0 .503.082.649.246a.879.879 0 0 1 .218.605c0 .235-.073.43-.218.586-.146.156-.362.234-.649.234-.292 0-.509-.078-.652-.234a.834.834 0 0 1-.215-.586zm7.413 2.219l.101 1.25c.308-.438.685-.78 1.133-1.027a3.112 3.112 0 0 1 1.5-.38c.443 0 .845.063 1.207.188.362.125.67.32.926.586.255.266.452.603.59 1.012.138.409.207.894.207 1.457V69h-1.445v-5.336c0-.375-.042-.693-.125-.953a1.518 1.518 0 0 0-.371-.633 1.45 1.45 0 0 0-.602-.351 2.778 2.778 0 0 0-.816-.11c-.485 0-.91.121-1.278.363-.367.243-.66.562-.879.958V69H67.51v-8.453h1.297zm13.35 6.21c0-.171-.033-.326-.101-.464a1.036 1.036 0 0 0-.344-.379 2.714 2.714 0 0 0-.64-.316 6.86 6.86 0 0 0-.993-.262 10.002 10.002 0 0 1-1.324-.36 4.359 4.359 0 0 1-1.023-.503 2.204 2.204 0 0 1-.66-.688 1.763 1.763 0 0 1-.235-.918c0-.344.08-.665.242-.965.162-.3.388-.56.68-.785a3.42 3.42 0 0 1 1.043-.531 4.32 4.32 0 0 1 1.332-.195c.52 0 .99.067 1.406.203.417.135.771.323 1.063.562.291.24.517.52.675.84.16.32.239.665.239 1.035H82.07c0-.182-.046-.36-.14-.535a1.533 1.533 0 0 0-.39-.465 2.005 2.005 0 0 0-.606-.328 2.404 2.404 0 0 0-.801-.125c-.307 0-.577.034-.809.102a1.807 1.807 0 0 0-.578.273c-.153.115-.27.248-.347.399a1.008 1.008 0 0 0-.118.468c0 .167.032.315.094.446.063.13.17.247.324.351.154.104.36.198.618.281.257.084.584.164.98.243.52.109.987.235 1.398.379.412.143.758.315 1.04.515.28.2.496.434.644.7.148.265.223.572.223.921 0 .375-.085.716-.254 1.024-.17.307-.405.57-.707.789a3.433 3.433 0 0 1-1.086.508c-.422.12-.883.18-1.383.18a4.708 4.708 0 0 1-1.531-.231 3.66 3.66 0 0 1-1.137-.61 2.625 2.625 0 0 1-.71-.879 2.325 2.325 0 0 1-.247-1.039h1.445c.021.297.1.547.239.75.138.204.31.368.515.493.206.125.434.213.684.265.25.052.497.078.742.078.61 0 1.091-.112 1.445-.336.354-.224.534-.52.54-.89zm6.835-8.257v2.047h3.219v1.117h-3.219v4.594c0 .328.042.599.125.812.084.214.198.384.344.512.146.128.314.217.504.27.19.052.392.078.605.078.157 0 .318-.01.485-.028a9.205 9.205 0 0 0 .933-.148c.138-.029.252-.053.34-.074l.203 1.023c-.12.073-.265.137-.437.192-.172.054-.36.101-.563.14a7.377 7.377 0 0 1-1.32.121c-.375 0-.725-.053-1.05-.16a2.178 2.178 0 0 1-.849-.508 2.403 2.403 0 0 1-.566-.898c-.138-.367-.207-.811-.207-1.332v-4.594H85.32v-1.117h2.22V58.5h1.452zM100.155 69a1.574 1.574 0 0 1-.137-.41 4.48 4.48 0 0 1-.074-.512 4.046 4.046 0 0 1-.488.414 3.47 3.47 0 0 1-.594.344 3.66 3.66 0 0 1-.691.234 3.42 3.42 0 0 1-.781.086 3.57 3.57 0 0 1-1.215-.195 2.84 2.84 0 0 1-.922-.527 2.3 2.3 0 0 1-.586-.79 2.367 2.367 0 0 1-.207-.988c0-.463.092-.87.277-1.219.185-.348.447-.639.785-.87a3.658 3.658 0 0 1 1.223-.52 6.845 6.845 0 0 1 1.598-.172h1.578v-.664c0-.255-.047-.484-.14-.688a1.47 1.47 0 0 0-.4-.52 1.83 1.83 0 0 0-.628-.331 2.757 2.757 0 0 0-.832-.117c-.287 0-.543.036-.77.11-.226.072-.418.168-.574.288-.156.12-.277.262-.363.426a1.089 1.089 0 0 0-.13.512h-1.452c.005-.308.084-.61.238-.907.154-.297.375-.563.664-.8.29-.237.64-.429 1.055-.575a4.23 4.23 0 0 1 1.41-.218c.48 0 .924.058 1.336.175.411.118.767.295 1.066.532.3.237.535.532.707.886.172.355.258.769.258 1.243v3.93c0 .28.026.579.078.894.052.315.125.59.219.824V69h-1.508zM97.6 67.898c.282 0 .545-.036.79-.109.244-.073.467-.17.667-.289.201-.12.374-.257.52-.41a2 2 0 0 0 .344-.48v-1.712h-1.344c-.844 0-1.5.125-1.969.375-.468.25-.703.644-.703 1.18 0 .208.035.401.106.578.07.177.175.33.316.457a1.5 1.5 0 0 0 .531.301c.214.073.461.11.742.11zM103.857 57h4.32v10.75h2.758V69h-7.078v-1.25h2.875v-9.492h-2.875V57zm9.03 0h4.32v10.75h2.758V69h-7.078v-1.25h2.875v-9.492h-2.875V57zm24.154 7.617h-5.976V63.43h5.976v1.187zm2.452.086c0-.63.077-1.21.23-1.738a4.09 4.09 0 0 1 .669-1.363c.291-.38.646-.678 1.062-.891.417-.214.888-.32 1.414-.32.521 0 .978.092 1.371.277.394.185.728.452 1.004.8l.07-.921h1.313v8.273c0 .558-.087 1.052-.262 1.485-.174.432-.419.8-.734 1.101a3.129 3.129 0 0 1-1.129.688 4.295 4.295 0 0 1-2.203.16 4.551 4.551 0 0 1-.855-.242 3.944 3.944 0 0 1-.836-.45 2.785 2.785 0 0 1-.692-.695l.75-.867c.177.214.36.395.547.543.188.148.378.267.57.355.193.089.386.153.578.192.193.039.386.058.579.058.343 0 .653-.049.93-.148.275-.099.511-.243.706-.434.196-.19.345-.425.45-.707a2.78 2.78 0 0 0 .156-.968v-.727a2.82 2.82 0 0 1-.996.738c-.383.17-.827.254-1.332.254-.516 0-.982-.11-1.399-.328a3.128 3.128 0 0 1-1.058-.906 4.297 4.297 0 0 1-.668-1.363 5.887 5.887 0 0 1-.235-1.692v-.164zm1.446.164c0 .412.043.802.129 1.172.085.37.22.695.406.977.185.28.42.504.707.668.286.164.63.246 1.031.246.25 0 .475-.03.676-.09.2-.06.38-.145.539-.254.159-.11.3-.24.426-.39.125-.152.234-.318.328-.5V62.82a2.637 2.637 0 0 0-.328-.484 2.058 2.058 0 0 0-.97-.629 2.26 2.26 0 0 0-.655-.09c-.407 0-.754.084-1.043.25-.29.167-.526.392-.711.676-.185.284-.32.612-.406.984a5.215 5.215 0 0 0-.13 1.176v.164zm24.576-2.031a8.47 8.47 0 0 1-.149 1.277c-.083.435-.21.83-.379 1.184-.17.354-.387.643-.652.867-.266.224-.591.336-.977.336-.317 0-.582-.083-.793-.25a1.347 1.347 0 0 1-.449-.695 2.146 2.146 0 0 1-.676.691c-.268.17-.564.254-.886.254-.256 0-.477-.068-.664-.203a1.465 1.465 0 0 1-.458-.57 2.892 2.892 0 0 1-.242-.875 5.43 5.43 0 0 1-.02-1.118c.048-.578.144-1.1.29-1.566.146-.466.334-.862.566-1.188a2.53 2.53 0 0 1 .809-.75 2.021 2.021 0 0 1 1.015-.261c.35 0 .638.069.868.207.229.138.411.3.547.488l-.344 3.938c-.016.213-.01.386.015.52a.885.885 0 0 0 .114.312c.05.075.11.126.183.152a.704.704 0 0 0 .746-.184c.149-.148.272-.349.371-.601.1-.253.175-.548.227-.887.052-.338.08-.698.086-1.078a6.564 6.564 0 0 0-.164-1.781c-.13-.526-.33-.972-.598-1.336a2.695 2.695 0 0 0-.988-.836 2.98 2.98 0 0 0-1.336-.29c-.526 0-1.006.124-1.441.372a3.544 3.544 0 0 0-1.13 1.035 5.265 5.265 0 0 0-.75 1.586 7.86 7.86 0 0 0-.304 2.016c-.026.708.023 1.338.148 1.89.125.552.326 1.02.602 1.403.276.382.629.674 1.059.875.43.2.936.3 1.52.3.155 0 .314-.011.476-.035a3.692 3.692 0 0 0 .922-.262c.14-.062.268-.132.382-.21l.25.914c-.13.099-.278.184-.445.257a4.017 4.017 0 0 1-1.078.293 4.293 4.293 0 0 1-.531.035c-.766 0-1.423-.134-1.973-.402a3.522 3.522 0 0 1-1.344-1.129c-.346-.484-.596-1.06-.75-1.73a8.57 8.57 0 0 1-.191-2.2c.02-.536.086-1.058.195-1.566.11-.508.26-.983.45-1.426.19-.442.419-.847.687-1.214a4.9 4.9 0 0 1 .902-.95c.334-.265.7-.471 1.098-.617a3.664 3.664 0 0 1 1.27-.219c.635 0 1.2.124 1.695.371.495.248.91.6 1.246 1.06.336.457.587 1.008.754 1.651.166.644.24 1.358.219 2.145zm-5.383.898c-.026.532.018.946.133 1.243.114.296.296.445.546.445.256 0 .487-.07.696-.211.208-.14.39-.375.547-.703l.304-3.477a1.064 1.064 0 0 0-.453-.101c-.276 0-.517.066-.723.199-.205.133-.378.32-.52.562-.14.243-.253.537-.339.883-.086.347-.15.733-.191 1.16zm12.335 3.024c0-.172-.034-.327-.102-.465a1.036 1.036 0 0 0-.344-.379 2.714 2.714 0 0 0-.64-.316 6.86 6.86 0 0 0-.993-.262 10.002 10.002 0 0 1-1.324-.36 4.359 4.359 0 0 1-1.023-.503 2.204 2.204 0 0 1-.66-.688 1.763 1.763 0 0 1-.235-.918c0-.344.08-.665.242-.965.162-.3.388-.56.68-.785a3.42 3.42 0 0 1 1.043-.531 4.32 4.32 0 0 1 1.332-.195c.52 0 .99.067 1.406.203.417.135.771.323 1.063.562.291.24.517.52.676.84.158.32.238.665.238 1.035h-1.445c0-.182-.047-.36-.141-.535a1.533 1.533 0 0 0-.39-.465 2.005 2.005 0 0 0-.606-.328 2.404 2.404 0 0 0-.8-.125c-.308 0-.578.034-.81.102a1.807 1.807 0 0 0-.578.273c-.153.115-.27.248-.347.399a1.008 1.008 0 0 0-.117.468c0 .167.03.315.093.446.063.13.17.247.324.351.154.104.36.198.618.281.257.084.584.164.98.243.521.109.987.235 1.399.379.411.143.757.315 1.039.515.28.2.496.434.644.7.149.265.223.572.223.921 0 .375-.085.716-.254 1.024-.17.307-.405.57-.707.789a3.433 3.433 0 0 1-1.086.508c-.422.12-.883.18-1.383.18a4.708 4.708 0 0 1-1.531-.231 3.66 3.66 0 0 1-1.137-.61 2.625 2.625 0 0 1-.71-.879 2.325 2.325 0 0 1-.247-1.039h1.445c.021.297.1.547.239.75.138.204.31.368.515.493.206.125.434.213.684.265.25.052.497.078.742.078.61 0 1.091-.112 1.445-.336.355-.224.534-.52.54-.89zM179.3 58.5v2.047h3.22v1.117h-3.22v4.594c0 .328.042.599.125.812.084.214.198.384.344.512.146.128.314.217.504.27.19.052.392.078.605.078.157 0 .318-.01.485-.028a9.205 9.205 0 0 0 .933-.148c.138-.029.252-.053.34-.074l.203 1.023c-.12.073-.265.137-.437.192-.172.054-.36.101-.563.14a7.377 7.377 0 0 1-1.32.121c-.375 0-.725-.053-1.05-.16a2.178 2.178 0 0 1-.848-.508 2.403 2.403 0 0 1-.567-.898c-.138-.367-.207-.811-.207-1.332v-4.594h-2.219v-1.117h2.22V58.5h1.452zM190.464 69a1.574 1.574 0 0 1-.136-.41 4.48 4.48 0 0 1-.075-.512 4.046 4.046 0 0 1-.488.414 3.47 3.47 0 0 1-.594.344 3.66 3.66 0 0 1-.691.234 3.42 3.42 0 0 1-.781.086 3.57 3.57 0 0 1-1.215-.195 2.84 2.84 0 0 1-.922-.527 2.3 2.3 0 0 1-.586-.79 2.367 2.367 0 0 1-.207-.988c0-.463.092-.87.277-1.219.185-.348.447-.639.785-.87a3.658 3.658 0 0 1 1.223-.52 6.845 6.845 0 0 1 1.598-.172h1.578v-.664c0-.255-.047-.484-.14-.688a1.47 1.47 0 0 0-.4-.52 1.83 1.83 0 0 0-.628-.331 2.757 2.757 0 0 0-.832-.117c-.287 0-.543.036-.77.11-.226.072-.418.168-.574.288-.156.12-.277.262-.363.426a1.089 1.089 0 0 0-.129.512h-1.453c.005-.308.084-.61.238-.907.154-.297.375-.563.664-.8.29-.237.64-.429 1.055-.575a4.23 4.23 0 0 1 1.41-.218c.48 0 .925.058 1.336.175.411.118.767.295 1.066.532.3.237.536.532.707.886.172.355.258.769.258 1.243v3.93c0 .28.026.579.078.894.052.315.125.59.22.824V69h-1.509zm-2.554-1.102c.28 0 .544-.036.789-.109.244-.073.467-.17.668-.289.2-.12.373-.257.52-.41a2 2 0 0 0 .343-.48v-1.712h-1.344c-.844 0-1.5.125-1.969.375-.468.25-.703.644-.703 1.18 0 .208.035.401.106.578.07.177.176.33.316.457a1.5 1.5 0 0 0 .531.301c.214.073.461.11.743.11zm9.631.086a2.37 2.37 0 0 0 1.422-.472 1.81 1.81 0 0 0 .465-.524c.117-.2.178-.418.184-.652h1.367a2.241 2.241 0 0 1-.293 1.074c-.19.341-.444.64-.762.899a3.868 3.868 0 0 1-1.094.617c-.411.153-.84.23-1.289.23-.64 0-1.2-.114-1.68-.344a3.475 3.475 0 0 1-1.199-.925 3.982 3.982 0 0 1-.722-1.344 5.267 5.267 0 0 1-.242-1.606v-.328c0-.557.08-1.09.242-1.601.161-.51.402-.96.722-1.348.32-.388.72-.696 1.2-.926.479-.229 1.039-.343 1.68-.343.5 0 .959.08 1.378.238.42.159.781.375 1.086.648.305.274.543.598.715.973.172.375.258.776.258 1.203h-1.367a1.76 1.76 0 0 0-.168-.723 1.967 1.967 0 0 0-1.086-1.003 2.218 2.218 0 0 0-.817-.149c-.448 0-.824.09-1.129.27-.304.18-.55.414-.738.703-.187.289-.322.613-.402.972a4.94 4.94 0 0 0-.121 1.086v.329c0 .37.04.735.12 1.097.081.362.214.688.4.977.184.289.429.523.734.703.304.18.683.27 1.136.27zm7.96-2.93l-1.062 1.024V69h-1.454V57h1.454v7.344l.945-1.016 2.773-2.781h1.758l-3.422 3.523L210.44 69h-1.836l-3.102-3.945zm13.663-.187a6.28 6.28 0 0 1-.219 1.692c-.146.523-.36.977-.64 1.363a3.029 3.029 0 0 1-1.043.906c-.414.219-.89.328-1.426.328-.542 0-1.012-.096-1.41-.289a2.867 2.867 0 0 1-1.02-.828l-.07.961h-1.328V57h1.445v4.453c.276-.344.61-.607 1-.789.39-.182.846-.273 1.367-.273.542 0 1.021.106 1.438.32.416.213.765.51 1.047.89.28.38.494.835.64 1.364.146.528.22 1.108.22 1.738v.164zm-1.445-.164c0-.411-.04-.803-.121-1.176-.081-.372-.21-.7-.387-.984a1.985 1.985 0 0 0-.695-.676c-.287-.166-.638-.25-1.055-.25-.25 0-.48.033-.688.098a1.958 1.958 0 0 0-.558.273c-.164.117-.31.255-.438.414a2.597 2.597 0 0 0-.324.52v3.695c.094.188.205.36.332.52.128.159.275.298.442.418.166.12.354.212.562.277.208.065.438.098.688.098.395 0 .735-.082 1.02-.246.283-.164.515-.387.694-.668.18-.282.313-.607.399-.977.086-.37.129-.76.129-1.172v-.164zm3.538-4.156h4.32v7.203h2.758V69h-7.078v-1.25h2.875v-5.945h-2.875v-1.258zm2.687-2.219c0-.24.072-.441.215-.605.143-.164.36-.246.652-.246.287 0 .503.082.649.246a.879.879 0 0 1 .219.605c0 .235-.073.43-.22.586-.145.156-.361.234-.648.234-.291 0-.509-.078-.652-.234a.834.834 0 0 1-.215-.586zm9.538.172v2.047h3.219v1.117h-3.219v4.594c0 .328.042.599.125.812.083.214.198.384.344.512.146.128.314.217.504.27.19.052.392.078.605.078.157 0 .318-.01.485-.028a9.205 9.205 0 0 0 .933-.148c.138-.029.252-.053.34-.074l.203 1.023c-.12.073-.265.137-.437.192-.172.054-.36.101-.563.14a7.377 7.377 0 0 1-1.32.121c-.375 0-.725-.053-1.05-.16a2.178 2.178 0 0 1-.849-.508 2.403 2.403 0 0 1-.566-.898c-.138-.367-.207-.811-.207-1.332v-4.594h-2.219v-1.117h2.219V58.5h1.453zm7.515 11.477H239.7l4.75-12.352h1.289l-4.742 12.352zm12.608-2.141a3.01 3.01 0 0 1-1.055.973c-.422.231-.909.347-1.46.347-.443 0-.844-.069-1.204-.207a2.307 2.307 0 0 1-.922-.644c-.255-.292-.452-.663-.59-1.114-.138-.45-.207-.99-.207-1.62v-5.024h1.446v5.039c0 .458.036.838.11 1.14.072.303.181.544.327.723.146.18.324.306.535.38.211.072.455.109.73.109.59 0 1.065-.12 1.427-.36a2.18 2.18 0 0 0 .808-.969v-6.062h1.453V69h-1.312l-.086-1.164zm4.843-7.29l.101 1.25c.307-.437.685-.78 1.133-1.026a3.112 3.112 0 0 1 1.5-.38c.443 0 .845.063 1.207.188.362.125.67.32.926.586.255.266.452.603.59 1.012.138.409.207.894.207 1.457V69h-1.446v-5.336c0-.375-.041-.693-.125-.953a1.518 1.518 0 0 0-.37-.633 1.45 1.45 0 0 0-.602-.351 2.778 2.778 0 0 0-.817-.11c-.484 0-.91.121-1.277.363-.367.243-.66.562-.879.958V69h-1.445v-8.453h1.297zm7.96 0h4.32v7.204h2.757V69h-7.078v-1.25h2.875v-5.945h-2.875v-1.258zm2.687-2.218c0-.24.071-.441.215-.605.143-.164.36-.246.652-.246.287 0 .503.082.648.246a.879.879 0 0 1 .22.605c0 .235-.074.43-.22.586-.145.156-.361.234-.648.234-.292 0-.51-.078-.652-.234a.834.834 0 0 1-.215-.586zm13.28 6.54a6.28 6.28 0 0 1-.219 1.69c-.146.524-.36.978-.64 1.364a3.029 3.029 0 0 1-1.043.906c-.414.219-.89.328-1.426.328-.542 0-1.012-.096-1.41-.289a2.867 2.867 0 0 1-1.02-.828l-.07.961h-1.328V57h1.445v4.453c.276-.344.61-.607 1-.789.39-.182.846-.273 1.367-.273.542 0 1.021.106 1.438.32.416.213.765.51 1.047.89.28.38.494.835.64 1.364.146.528.219 1.108.219 1.738v.164zm-1.445-.165c0-.411-.04-.803-.121-1.176-.081-.372-.21-.7-.387-.984a1.985 1.985 0 0 0-.695-.676c-.287-.166-.638-.25-1.055-.25-.25 0-.48.033-.688.098a1.958 1.958 0 0 0-.558.273c-.164.117-.31.255-.438.414a2.597 2.597 0 0 0-.324.52v3.695c.094.188.204.36.332.52.128.159.275.298.442.418.166.12.354.212.562.277.208.065.437.098.688.098.395 0 .735-.082 1.019-.246.284-.164.516-.387.695-.668.18-.282.313-.607.399-.977.086-.37.129-.76.129-1.172v-.164zm3.538-4.156h4.32v7.203h2.758V69h-7.078v-1.25h2.875v-5.945h-2.875v-1.258zm2.687-2.219c0-.24.072-.441.215-.605.143-.164.36-.246.652-.246.287 0 .503.082.649.246a.879.879 0 0 1 .219.605c0 .235-.073.43-.22.586-.145.156-.361.234-.648.234-.291 0-.509-.078-.652-.234a.834.834 0 0 1-.215-.586zm9.538.172v2.047h3.219v1.117h-3.219v4.594c0 .328.042.599.125.812.083.214.198.384.344.512.146.128.314.217.504.27.19.052.392.078.605.078.156 0 .318-.01.485-.028a9.205 9.205 0 0 0 .933-.148c.138-.029.251-.053.34-.074l.203 1.023c-.12.073-.265.137-.437.192-.172.054-.36.101-.563.14a7.377 7.377 0 0 1-1.32.121c-.375 0-.725-.053-1.051-.16a2.178 2.178 0 0 1-.848-.508 2.403 2.403 0 0 1-.566-.898c-.138-.367-.207-.811-.207-1.332v-4.594h-2.219v-1.117h2.219V58.5h1.453zM27.843 93.836a3.01 3.01 0 0 1-1.054.973c-.422.231-.909.347-1.46.347-.444 0-.845-.069-1.204-.207a2.307 2.307 0 0 1-.922-.644c-.255-.292-.452-.663-.59-1.114-.138-.45-.207-.99-.207-1.62v-5.024h1.446v5.039c0 .458.036.838.109 1.14.073.303.182.544.328.723.146.18.324.306.535.38.211.072.455.109.73.109.59 0 1.064-.12 1.426-.36a2.18 2.18 0 0 0 .81-.969v-6.062h1.452V95H27.93l-.086-1.164zm4.843-7.29l.102 1.25c.307-.437.685-.78 1.133-1.026a3.112 3.112 0 0 1 1.5-.38c.442 0 .845.063 1.207.188.362.125.67.32.926.586.255.266.451.603.59 1.012.137.409.206.894.206 1.457V95h-1.445v-5.336c0-.375-.042-.693-.125-.953a1.518 1.518 0 0 0-.371-.633 1.45 1.45 0 0 0-.602-.351 2.778 2.778 0 0 0-.816-.11c-.484 0-.91.121-1.277.363-.367.243-.66.562-.88.957V95H31.39v-8.453h1.296zm7.96 0h4.32v7.204h2.758V95h-7.078v-1.25h2.875v-5.945h-2.875v-1.258zm2.688-2.218c0-.24.071-.441.215-.605.143-.164.36-.246.652-.246.286 0 .502.082.648.246a.879.879 0 0 1 .22.605c0 .235-.074.43-.22.586-.146.156-.362.234-.648.234-.292 0-.51-.078-.652-.234a.834.834 0 0 1-.215-.586zm13.28 6.54a6.28 6.28 0 0 1-.219 1.69c-.146.524-.36.978-.64 1.364a3.029 3.029 0 0 1-1.044.906c-.414.219-.889.328-1.425.328-.542 0-1.012-.096-1.41-.289a2.867 2.867 0 0 1-1.02-.828l-.07.961h-1.328V83h1.445v4.453c.276-.344.61-.607 1-.789.39-.182.846-.273 1.367-.273.542 0 1.02.106 1.438.32.416.213.765.51 1.046.89.282.38.495.835.641 1.364.146.528.219 1.108.219 1.738v.164zm-1.445-.165c0-.411-.04-.803-.122-1.176-.08-.372-.21-.7-.386-.984a1.985 1.985 0 0 0-.696-.676c-.286-.166-.638-.25-1.054-.25-.25 0-.48.033-.688.098a1.958 1.958 0 0 0-.558.273c-.164.117-.31.255-.438.414a2.597 2.597 0 0 0-.324.52v3.695c.094.188.204.36.332.52.128.159.275.298.441.418.167.12.355.212.563.277.208.065.437.098.687.098.396 0 .736-.082 1.02-.246.284-.164.515-.387.695-.668.18-.282.313-.607.399-.977.086-.37.129-.76.129-1.172v-.164zm3.537-4.156h4.32v7.203h2.759V95h-7.079v-1.25h2.875v-5.945h-2.875v-1.258zm2.688-2.219c0-.24.072-.441.215-.605.143-.164.36-.246.652-.246.287 0 .503.082.649.246a.879.879 0 0 1 .218.605c0 .235-.073.43-.218.586-.146.156-.362.234-.649.234-.292 0-.509-.078-.652-.234a.834.834 0 0 1-.215-.586zm9.538.172v2.047h3.219v1.117h-3.22v4.594c0 .328.043.599.126.812.083.214.198.384.344.512.146.128.313.217.504.27.19.052.392.078.605.078.156 0 .318-.01.484-.028a9.205 9.205 0 0 0 .934-.148c.138-.029.251-.053.34-.074l.203 1.023c-.12.073-.266.137-.438.192-.171.054-.359.101-.562.14a7.377 7.377 0 0 1-1.32.121c-.375 0-.726-.053-1.051-.16a2.178 2.178 0 0 1-.848-.508 2.403 2.403 0 0 1-.566-.898c-.138-.367-.207-.811-.207-1.332v-4.594H67.26v-1.117h2.219V84.5h1.453zm14.865 2.047h4.32v7.203h2.758V95h-7.078v-1.25h2.875v-5.945h-2.875v-1.258zm2.687-2.219c0-.24.072-.441.215-.605.143-.164.36-.246.653-.246.286 0 .502.082.648.246a.879.879 0 0 1 .219.605c0 .235-.073.43-.219.586-.146.156-.362.234-.648.234-.292 0-.51-.078-.653-.234a.834.834 0 0 1-.215-.586zm7.413 2.219l.102 1.25c.307-.438.685-.78 1.133-1.027a3.112 3.112 0 0 1 1.5-.38c.442 0 .845.063 1.207.188.362.125.67.32.926.586.255.266.451.603.59 1.012.137.409.206.894.206 1.457V95h-1.445v-5.336c0-.375-.042-.693-.125-.953a1.518 1.518 0 0 0-.371-.633 1.45 1.45 0 0 0-.602-.351 2.778 2.778 0 0 0-.816-.11c-.484 0-.91.121-1.277.363-.368.243-.66.562-.88.957V95H94.6v-8.453h1.297zm7.96 0h4.32v7.203h2.758V95h-7.078v-1.25h2.875v-5.945h-2.875v-1.258zm2.688-2.219c0-.24.071-.441.214-.605.144-.164.361-.246.653-.246.286 0 .502.082.648.246a.879.879 0 0 1 .219.605c0 .235-.073.43-.219.586-.146.156-.362.234-.648.234-.292 0-.51-.078-.653-.234a.834.834 0 0 1-.214-.586zm9.538.172v2.047h3.218v1.117h-3.218v4.594c0 .328.041.599.125.812.083.214.198.384.343.512.146.128.314.217.504.27.19.052.392.078.606.078.156 0 .317-.01.484-.028a9.205 9.205 0 0 0 .934-.148c.138-.029.251-.053.34-.074l.203 1.023c-.12.073-.266.137-.438.192-.172.054-.36.101-.562.14a7.377 7.377 0 0 1-1.32.121c-.376 0-.726-.053-1.051-.16a2.178 2.178 0 0 1-.848-.508 2.403 2.403 0 0 1-.567-.898c-.138-.367-.207-.811-.207-1.332v-4.594h-2.218v-1.117h2.218V84.5h1.454zm-88.24 35.336a3.01 3.01 0 0 1-1.054.973c-.422.231-.909.347-1.46.347-.444 0-.845-.069-1.204-.207a2.307 2.307 0 0 1-.922-.644c-.255-.292-.452-.663-.59-1.114-.138-.45-.207-.99-.207-1.62v-5.024h1.446v5.039c0 .458.036.838.109 1.14.073.303.182.544.328.723.146.18.324.306.535.38.211.072.455.109.73.109.59 0 1.064-.12 1.426-.36a2.18 2.18 0 0 0 .81-.969v-6.062h1.452V121H27.93l-.086-1.164zm4.843-7.29l.102 1.25c.307-.437.685-.78 1.133-1.026a3.112 3.112 0 0 1 1.5-.38c.442 0 .845.063 1.207.188.362.125.67.32.926.586.255.266.451.603.59 1.012.137.409.206.894.206 1.457V121h-1.445v-5.336c0-.375-.042-.693-.125-.953a1.518 1.518 0 0 0-.371-.633 1.45 1.45 0 0 0-.602-.351 2.778 2.778 0 0 0-.816-.11c-.484 0-.91.121-1.277.363-.367.243-.66.562-.88.957V121H31.39v-8.453h1.296zm7.96 0h4.32v7.204h2.758V121h-7.078v-1.25h2.875v-5.945h-2.875v-1.258zm2.688-2.218c0-.24.071-.441.215-.605.143-.164.36-.246.652-.246.286 0 .502.082.648.246a.879.879 0 0 1 .22.605c0 .235-.074.43-.22.586-.146.156-.362.234-.648.234-.292 0-.51-.078-.652-.234a.834.834 0 0 1-.215-.586zm13.28 6.54a6.28 6.28 0 0 1-.219 1.69c-.146.524-.36.978-.64 1.364a3.029 3.029 0 0 1-1.044.906c-.414.219-.889.328-1.425.328-.542 0-1.012-.096-1.41-.289a2.867 2.867 0 0 1-1.02-.828l-.07.961h-1.328v-12h1.445v4.453c.276-.344.61-.607 1-.789.39-.182.846-.273 1.367-.273.542 0 1.02.106 1.438.32.416.213.765.51 1.046.89.282.38.495.835.641 1.364.146.528.219 1.108.219 1.738v.164zm-1.445-.165c0-.411-.04-.803-.122-1.176-.08-.372-.21-.7-.386-.984a1.985 1.985 0 0 0-.696-.676c-.286-.166-.638-.25-1.054-.25-.25 0-.48.033-.688.098a1.958 1.958 0 0 0-.558.273c-.164.117-.31.255-.438.414a2.597 2.597 0 0 0-.324.52v3.695c.094.188.204.36.332.52.128.159.275.298.441.418.167.12.355.212.563.277.208.065.437.098.687.098.396 0 .736-.082 1.02-.246.284-.164.515-.387.695-.668.18-.282.313-.607.399-.977.086-.37.129-.76.129-1.172v-.164zm3.537-4.156h4.32v7.203h2.759V121h-7.079v-1.25h2.875v-5.945h-2.875v-1.258zm2.688-2.219c0-.24.072-.441.215-.605.143-.164.36-.246.652-.246.287 0 .503.082.649.246a.879.879 0 0 1 .218.605c0 .235-.073.43-.218.586-.146.156-.362.234-.649.234-.292 0-.509-.078-.652-.234a.834.834 0 0 1-.215-.586zm9.538.172v2.047h3.219v1.117h-3.22v4.594c0 .328.043.599.126.812.083.214.198.384.344.512.146.128.313.217.504.27.19.052.392.078.605.078.156 0 .318-.01.484-.028a9.207 9.207 0 0 0 .934-.148c.138-.029.251-.053.34-.074l.203 1.023c-.12.073-.266.137-.438.192-.171.054-.359.101-.562.14a7.377 7.377 0 0 1-1.32.121c-.375 0-.726-.053-1.051-.16a2.178 2.178 0 0 1-.848-.508 2.403 2.403 0 0 1-.566-.898c-.138-.367-.207-.811-.207-1.332v-4.594H67.26v-1.117h2.219V110.5h1.453zm14.365 6.203c0-.63.08-1.21.238-1.738.159-.529.386-.983.68-1.363.294-.38.65-.678 1.066-.891.417-.214.883-.32 1.399-.32.505 0 .946.084 1.324.254.378.169.704.415.98.738V109h1.446v12h-1.328l-.063-.89a2.764 2.764 0 0 1-1.008.78c-.39.178-.846.266-1.367.266-.51 0-.973-.11-1.387-.328a3.178 3.178 0 0 1-1.058-.906 4.372 4.372 0 0 1-.68-1.363 5.71 5.71 0 0 1-.242-1.692v-.164zm1.445.164c0 .412.044.802.133 1.172.089.37.225.695.41.977.185.28.42.504.707.668.287.164.63.246 1.031.246.245 0 .467-.029.665-.086a1.957 1.957 0 0 0 .968-.63c.125-.148.235-.313.328-.495v-3.922a2.446 2.446 0 0 0-.757-.848c-.318-.221-.714-.332-1.188-.332-.406 0-.754.084-1.043.25-.289.167-.526.392-.71.676a3.102 3.102 0 0 0-.411.984 5.068 5.068 0 0 0-.133 1.176v.164zm11.593 4.29c-.594 0-1.14-.102-1.637-.305a3.714 3.714 0 0 1-1.277-.852 3.895 3.895 0 0 1-.828-1.297 4.397 4.397 0 0 1-.297-1.633v-.328c0-.682.11-1.293.328-1.832a4.2 4.2 0 0 1 .871-1.367 3.8 3.8 0 0 1 1.234-.856c.461-.197.934-.296 1.418-.296.61 0 1.142.105 1.598.316.456.211.835.503 1.137.875.302.372.527.811.675 1.316.149.506.223 1.053.223 1.641v.648h-6.039c.016.386.09.748.223 1.086.133.339.315.635.547.887a2.527 2.527 0 0 0 1.902.817 2.94 2.94 0 0 0 1.375-.313 2.983 2.983 0 0 0 1-.828l.883.687c-.14.214-.317.418-.528.614a3.64 3.64 0 0 1-.73.52 4.11 4.11 0 0 1-.938.363c-.349.09-.729.136-1.14.136zm-.188-7.579c-.291 0-.567.054-.828.16a2.16 2.16 0 0 0-.703.469 2.673 2.673 0 0 0-.527.758c-.144.3-.244.644-.301 1.035h4.547v-.11a3.227 3.227 0 0 0-.16-.835 2.329 2.329 0 0 0-.403-.743 2.013 2.013 0 0 0-.668-.53c-.268-.136-.587-.204-.957-.204zm8.796 5.344l.133.523.14-.523 2.368-6.375h1.476L107.615 121h-1.102l-3.476-8.453h1.484l2.422 6.375zm9.452 2.234c-.594 0-1.14-.101-1.637-.304a3.714 3.714 0 0 1-1.277-.852 3.895 3.895 0 0 1-.828-1.297 4.397 4.397 0 0 1-.297-1.633v-.328c0-.682.11-1.293.328-1.832a4.2 4.2 0 0 1 .871-1.367 3.8 3.8 0 0 1 1.235-.856 3.56 3.56 0 0 1 1.418-.296c.609 0 1.142.105 1.597.316.456.211.835.503 1.137.875.302.372.527.811.676 1.316.148.506.222 1.053.222 1.641v.648h-6.039c.016.386.09.748.223 1.086.133.339.315.635.547.887a2.527 2.527 0 0 0 1.902.817 2.94 2.94 0 0 0 1.375-.313 2.983 2.983 0 0 0 1-.828l.883.687c-.14.214-.316.418-.527.614a3.64 3.64 0 0 1-.73.52 4.11 4.11 0 0 1-.938.363c-.35.09-.73.136-1.14.136zm-.187-7.578c-.292 0-.568.054-.829.16a2.16 2.16 0 0 0-.703.469 2.673 2.673 0 0 0-.527.758c-.143.3-.243.644-.3 1.035h4.546v-.11a3.227 3.227 0 0 0-.16-.835 2.329 2.329 0 0 0-.402-.743 2.013 2.013 0 0 0-.668-.53c-.269-.136-.588-.204-.957-.204zm5.71-4.578h4.32v10.75h2.758V121h-7.079v-1.25h2.875v-9.492h-2.875V109zm8.397 7.695c0-.61.088-1.175.265-1.699.177-.523.431-.978.762-1.363.33-.386.733-.689 1.207-.91a3.74 3.74 0 0 1 1.602-.332c.599 0 1.136.11 1.613.332.477.221.88.524 1.21.91.332.385.586.84.763 1.363a5.27 5.27 0 0 1 .265 1.7v.171c0 .61-.088 1.175-.265 1.695-.177.521-.431.974-.762 1.36-.33.385-.733.687-1.207.906a3.778 3.778 0 0 1-1.602.328c-.599 0-1.136-.11-1.613-.328a3.494 3.494 0 0 1-1.21-.906 4.078 4.078 0 0 1-.763-1.36 5.235 5.235 0 0 1-.265-1.695v-.172zm1.445.172c0 .417.05.814.148 1.192.1.377.25.71.45.996.2.286.452.513.754.68.302.166.653.25 1.054.25a2.11 2.11 0 0 0 1.043-.25c.3-.167.55-.394.75-.68.2-.287.35-.619.45-.996.098-.378.148-.775.148-1.192v-.172c0-.411-.05-.806-.152-1.183a3.144 3.144 0 0 0-.454-.996c-.2-.287-.45-.515-.75-.684a2.1 2.1 0 0 0-1.05-.254c-.401 0-.75.085-1.047.254-.297.17-.546.397-.746.684-.2.286-.35.618-.45.996a4.65 4.65 0 0 0-.148 1.183v.172zm15.124 0a6.28 6.28 0 0 1-.219 1.692c-.146.523-.36.977-.64 1.363a3.029 3.029 0 0 1-1.043.906 2.99 2.99 0 0 1-1.418.328c-.516 0-.97-.083-1.364-.25a2.829 2.829 0 0 1-1.011-.719v4.063h-1.446v-11.703h1.32l.07.922a2.82 2.82 0 0 1 1.02-.801c.399-.185.861-.277 1.387-.277.542 0 1.021.106 1.438.32.416.213.765.51 1.047.89.28.38.494.835.64 1.364.146.528.219 1.108.219 1.738v.164zm-1.445-.164a4.93 4.93 0 0 0-.137-1.176 3.06 3.06 0 0 0-.422-.984 2.135 2.135 0 0 0-.723-.676c-.291-.166-.64-.25-1.047-.25-.463 0-.852.108-1.167.324a2.41 2.41 0 0 0-.754.832v4.07c.187.334.437.606.75.817.312.211.708.317 1.187.317.401 0 .748-.085 1.04-.254.29-.17.53-.397.718-.684.187-.286.327-.617.418-.992.091-.375.137-.768.137-1.18v-.164z" fill="#ABC1D9" fill-rule="nonzero"/><g transform="translate(0 203)"><mask id="d" fill="#fff"><use xlink:href="#c"/></mask><use fill="#1C2022" xlink:href="#c"/><path fill="#111518" mask="url(#d)" d="M0 0h540v38H0z"/><path d="M125.28 213.72c-2.48 0-4.76-.46-6.84-1.38-2.08-.92-3.89-2.25-5.43-3.99-1.54-1.74-2.74-3.88-3.6-6.42-.86-2.54-1.29-5.41-1.29-8.61 0-3.16.44-6 1.32-8.52.88-2.52 2.1-4.66 3.66-6.42a15.93 15.93 0 0 1 5.52-4.05c2.12-.94 4.44-1.41 6.96-1.41 2.4 0 4.51.49 6.33 1.47 1.82.98 3.31 2.11 4.47 3.39l-2.7 3.24a12.811 12.811 0 0 0-3.54-2.7c-1.32-.68-2.82-1.02-4.5-1.02-1.88 0-3.58.37-5.1 1.11-1.52.74-2.82 1.8-3.9 3.18-1.08 1.38-1.91 3.05-2.49 5.01-.58 1.96-.87 4.16-.87 6.6 0 2.48.29 4.71.87 6.69.58 1.98 1.39 3.67 2.43 5.07 1.04 1.4 2.31 2.48 3.81 3.24 1.5.76 3.19 1.14 5.07 1.14 1.92 0 3.6-.39 5.04-1.17 1.44-.78 2.8-1.87 4.08-3.27l2.76 3.12c-1.56 1.8-3.32 3.2-5.28 4.2-1.96 1-4.22 1.5-6.78 1.5zm28.097 0c-1.8 0-3.51-.34-5.13-1.02-1.62-.68-3.05-1.67-4.29-2.97-1.24-1.3-2.23-2.9-2.97-4.8-.74-1.9-1.11-4.05-1.11-6.45 0-2.44.37-4.61 1.11-6.51.74-1.9 1.73-3.51 2.97-4.83 1.24-1.32 2.67-2.32 4.29-3a13.12 13.12 0 0 1 5.13-1.02c1.8 0 3.51.34 5.13 1.02 1.62.68 3.05 1.68 4.29 3 1.24 1.32 2.23 2.93 2.97 4.83.74 1.9 1.11 4.07 1.11 6.51 0 2.4-.37 4.55-1.11 6.45-.74 1.9-1.73 3.5-2.97 4.8-1.24 1.3-2.67 2.29-4.29 2.97a13.12 13.12 0 0 1-5.13 1.02zm0-4.08c1.24 0 2.38-.27 3.42-.81a7.86 7.86 0 0 0 2.67-2.28c.74-.98 1.31-2.15 1.71-3.51.4-1.36.6-2.88.6-4.56 0-1.68-.2-3.21-.6-4.59-.4-1.38-.97-2.57-1.71-3.57s-1.63-1.77-2.67-2.31-2.18-.81-3.42-.81c-1.24 0-2.38.27-3.42.81s-1.93 1.31-2.67 2.31-1.31 2.19-1.71 3.57c-.4 1.38-.6 2.91-.6 4.59 0 1.68.2 3.2.6 4.56.4 1.36.97 2.53 1.71 3.51a7.86 7.86 0 0 0 2.67 2.28c1.04.54 2.18.81 3.42.81zm28.997 4.08c-3.68 0-6.61-1.32-8.79-3.96-2.18-2.64-3.27-6.4-3.27-11.28 0-2.36.35-4.49 1.05-6.39.7-1.9 1.63-3.51 2.79-4.83 1.16-1.32 2.5-2.34 4.02-3.06 1.52-.72 3.12-1.08 4.8-1.08 1.68 0 3.14.3 4.38.9 1.24.6 2.5 1.42 3.78 2.46l-.24-4.98v-11.22h4.98V213h-4.08l-.42-3.42h-.18a18.44 18.44 0 0 1-3.99 2.91c-1.5.82-3.11 1.23-4.83 1.23zm1.08-4.14c1.36 0 2.64-.33 3.84-.99 1.2-.66 2.4-1.67 3.6-3.03v-15.24c-1.24-1.12-2.43-1.91-3.57-2.37a9.3 9.3 0 0 0-3.51-.69c-1.16 0-2.25.27-3.27.81s-1.91 1.3-2.67 2.28c-.76.98-1.36 2.15-1.8 3.51-.44 1.36-.66 2.88-.66 4.56 0 3.52.7 6.26 2.1 8.22 1.4 1.96 3.38 2.94 5.94 2.94zm31.937 4.14c-1.96 0-3.79-.35-5.49-1.05-1.7-.7-3.18-1.7-4.44-3-1.26-1.3-2.25-2.89-2.97-4.77-.72-1.88-1.08-4.02-1.08-6.42 0-2.4.37-4.55 1.11-6.45.74-1.9 1.72-3.51 2.94-4.83 1.22-1.32 2.61-2.33 4.17-3.03 1.56-.7 3.18-1.05 4.86-1.05 1.84 0 3.49.32 4.95.96 1.46.64 2.68 1.56 3.66 2.76.98 1.2 1.73 2.64 2.25 4.32.52 1.68.78 3.56.78 5.64 0 .52-.01 1.03-.03 1.53-.02.5-.07.93-.15 1.29h-19.68c.2 3.12 1.17 5.59 2.91 7.41 1.74 1.82 4.01 2.73 6.81 2.73 1.4 0 2.69-.21 3.87-.63 1.18-.42 2.31-.97 3.39-1.65l1.74 3.24c-1.28.8-2.7 1.5-4.26 2.1-1.56.6-3.34.9-5.34.9zm-9.18-17.64h15.6c0-2.96-.63-5.21-1.89-6.75-1.26-1.54-3.03-2.31-5.31-2.31-1.04 0-2.03.2-2.97.6-.94.4-1.79.99-2.55 1.77-.76.78-1.39 1.73-1.89 2.85s-.83 2.4-.99 3.84zm35.178 17.64c-2.76 0-5.32-.52-7.68-1.56-2.36-1.04-4.4-2.46-6.12-4.26l3-3.48c1.4 1.48 3.05 2.67 4.95 3.57 1.9.9 3.87 1.35 5.91 1.35 2.6 0 4.62-.59 6.06-1.77 1.44-1.18 2.16-2.73 2.16-4.65 0-1-.17-1.85-.51-2.55-.34-.7-.8-1.3-1.38-1.8-.58-.5-1.27-.95-2.07-1.35-.8-.4-1.66-.82-2.58-1.26l-5.64-2.46c-.92-.4-1.86-.88-2.82-1.44-.96-.56-1.82-1.24-2.58-2.04s-1.38-1.75-1.86-2.85c-.48-1.1-.72-2.37-.72-3.81 0-1.48.31-2.86.93-4.14.62-1.28 1.48-2.39 2.58-3.33s2.4-1.67 3.9-2.19 3.15-.78 4.95-.78c2.36 0 4.54.45 6.54 1.35 2 .9 3.7 2.07 5.1 3.51l-2.7 3.24c-1.2-1.16-2.53-2.07-3.99-2.73-1.46-.66-3.11-.99-4.95-.99-2.2 0-3.97.51-5.31 1.53-1.34 1.02-2.01 2.43-2.01 4.23 0 .96.19 1.77.57 2.43.38.66.89 1.24 1.53 1.74s1.34.94 2.1 1.32c.76.38 1.54.73 2.34 1.05l5.58 2.4c1.12.48 2.18 1.03 3.18 1.65 1 .62 1.86 1.34 2.58 2.16a9.4 9.4 0 0 1 1.71 2.88c.42 1.1.63 2.37.63 3.81 0 1.56-.31 3.02-.93 4.38-.62 1.36-1.51 2.55-2.67 3.57s-2.56 1.82-4.2 2.4c-1.64.58-3.5.87-5.58.87zm25.217 0c-2.44 0-4.47-.72-6.09-2.16-1.62-1.44-2.43-3.48-2.43-6.12 0-3.2 1.42-5.65 4.26-7.35 2.84-1.7 7.38-2.89 13.62-3.57 0-.92-.09-1.82-.27-2.7-.18-.88-.49-1.66-.93-2.34-.44-.68-1.05-1.23-1.83-1.65-.78-.42-1.77-.63-2.97-.63-1.68 0-3.26.32-4.74.96-1.48.64-2.8 1.36-3.96 2.16l-1.92-3.42c1.36-.88 3.02-1.73 4.98-2.55 1.96-.82 4.12-1.23 6.48-1.23 3.56 0 6.14 1.09 7.74 3.27 1.6 2.18 2.4 5.09 2.4 8.73V213h-4.08l-.42-3.48h-.18c-1.4 1.16-2.9 2.15-4.5 2.97-1.6.82-3.32 1.23-5.16 1.23zm1.44-3.96c1.4 0 2.72-.33 3.96-.99 1.24-.66 2.56-1.63 3.96-2.91v-8.1c-2.44.32-4.49.7-6.15 1.14-1.66.44-3 .96-4.02 1.56-1.02.6-1.76 1.29-2.22 2.07a4.93 4.93 0 0 0-.69 2.55c0 1.68.5 2.88 1.5 3.6 1 .72 2.22 1.08 3.66 1.08zm19.937 3.24v-29.16h4.08l.42 4.2h.18c1.4-1.4 2.87-2.57 4.41-3.51s3.33-1.41 5.37-1.41c3.08 0 5.33.96 6.75 2.88s2.13 4.76 2.13 8.52V213h-4.92v-17.82c0-2.76-.44-4.75-1.32-5.97-.88-1.22-2.28-1.83-4.2-1.83-1.52 0-2.86.38-4.02 1.14-1.16.76-2.48 1.88-3.96 3.36V213h-4.92zm40.637.72c-3.68 0-6.61-1.32-8.79-3.96-2.18-2.64-3.27-6.4-3.27-11.28 0-2.36.35-4.49 1.05-6.39.7-1.9 1.63-3.51 2.79-4.83 1.16-1.32 2.5-2.34 4.02-3.06 1.52-.72 3.12-1.08 4.8-1.08 1.68 0 3.14.3 4.38.9 1.24.6 2.5 1.42 3.78 2.46l-.24-4.98v-11.22h4.98V213h-4.08l-.42-3.42h-.18a18.44 18.44 0 0 1-3.99 2.91c-1.5.82-3.11 1.23-4.83 1.23zm1.08-4.14c1.36 0 2.64-.33 3.84-.99 1.2-.66 2.4-1.67 3.6-3.03v-15.24c-1.24-1.12-2.43-1.91-3.57-2.37a9.3 9.3 0 0 0-3.51-.69c-1.16 0-2.25.27-3.27.81s-1.91 1.3-2.67 2.28c-.76.98-1.36 2.15-1.8 3.51-.44 1.36-.66 2.88-.66 4.56 0 3.52.7 6.26 2.1 8.22 1.4 1.96 3.38 2.94 5.94 2.94zm33.017 4.14c-1.36 0-2.77-.33-4.23-.99-1.46-.66-2.83-1.57-4.11-2.73h-.18l-.42 3h-3.96v-42.72h4.92v11.64l-.12 5.28c1.32-1.16 2.76-2.13 4.32-2.91 1.56-.78 3.16-1.17 4.8-1.17 1.88 0 3.54.35 4.98 1.05 1.44.7 2.65 1.7 3.63 3s1.72 2.86 2.22 4.68c.5 1.82.75 3.85.75 6.09 0 2.48-.34 4.7-1.02 6.66-.68 1.96-1.6 3.62-2.76 4.98-1.16 1.36-2.5 2.39-4.02 3.09-1.52.7-3.12 1.05-4.8 1.05zm-.84-4.14c1.2 0 2.31-.27 3.33-.81s1.9-1.3 2.64-2.28c.74-.98 1.32-2.19 1.74-3.63.42-1.44.63-3.06.63-4.86 0-1.6-.14-3.06-.42-4.38-.28-1.32-.73-2.45-1.35-3.39a6.468 6.468 0 0 0-2.4-2.19c-.98-.52-2.15-.78-3.51-.78-2.36 0-4.96 1.32-7.8 3.96v15.3c1.28 1.12 2.55 1.91 3.81 2.37 1.26.46 2.37.69 3.33.69zm30.317 4.14c-1.8 0-3.51-.34-5.13-1.02-1.62-.68-3.05-1.67-4.29-2.97-1.24-1.3-2.23-2.9-2.97-4.8-.74-1.9-1.11-4.05-1.11-6.45 0-2.44.37-4.61 1.11-6.51.74-1.9 1.73-3.51 2.97-4.83 1.24-1.32 2.67-2.32 4.29-3a13.12 13.12 0 0 1 5.13-1.02c1.8 0 3.51.34 5.13 1.02 1.62.68 3.05 1.68 4.29 3 1.24 1.32 2.23 2.93 2.97 4.83.74 1.9 1.11 4.07 1.11 6.51 0 2.4-.37 4.55-1.11 6.45-.74 1.9-1.73 3.5-2.97 4.8-1.24 1.3-2.67 2.29-4.29 2.97a13.12 13.12 0 0 1-5.13 1.02zm0-4.08c1.24 0 2.38-.27 3.42-.81a7.86 7.86 0 0 0 2.67-2.28c.74-.98 1.31-2.15 1.71-3.51.4-1.36.6-2.88.6-4.56 0-1.68-.2-3.21-.6-4.59-.4-1.38-.97-2.57-1.71-3.57s-1.63-1.77-2.67-2.31-2.18-.81-3.42-.81c-1.24 0-2.38.27-3.42.81s-1.93 1.31-2.67 2.31-1.31 2.19-1.71 3.57c-.4 1.38-.6 2.91-.6 4.59 0 1.68.2 3.2.6 4.56.4 1.36.97 2.53 1.71 3.51a7.86 7.86 0 0 0 2.67 2.28c1.04.54 2.18.81 3.42.81zm13.937 3.36l9.54-15.24-8.82-13.92h5.34l3.9 6.42c.44.8.9 1.61 1.38 2.43.48.82.98 1.63 1.5 2.43h.24c.44-.8.88-1.61 1.32-2.43.44-.82.88-1.63 1.32-2.43l3.54-6.42h5.16l-8.82 14.46 9.48 14.7h-5.34l-4.26-6.78-1.56-2.64c-.52-.88-1.06-1.74-1.62-2.58h-.24c-.52.84-1.02 1.69-1.5 2.55-.48.86-.96 1.75-1.44 2.67l-3.96 6.78h-5.16z" fill="#FFD399" fill-rule="nonzero"/><circle fill="#FF5F56" cx="25.5" cy="18.5" r="4.5"/><circle fill="#FFBD2E" cx="46.5" cy="18.5" r="4.5"/><circle fill="#27C93F" cx="66.5" cy="18.5" r="4.5"/><g fill="#FFF" fill-rule="nonzero"><path d="M266 147v-38.801L232 89v22.119l15.574 8.86v16.634L266 147zm8 1l18.526-10.72v-17.204L308 111.068V89l-34 19.718V148zm30-66.584l-18.03-10.407-15.83 9.15L254.19 71 236 81.546 269.946 101 304 81.416zm-81 51.737V79.206L269.995 52 317 79.092v53.976L269.994 160 223 133.153z"/></g></g><g transform="rotate(90 227.5 366.5)"><path d="M6 23.4V6a6 6 0 0 1 6-6h112.6" stroke="red" stroke-width="1.6"/><path d="M235.4 61V6a6 6 0 0 0-6-6H121.2" stroke="#37D8C3" stroke-width="1.6"/><path fill="#37D8C3" d="M235 69l-6-10h12z"/><circle stroke="red" stroke-width="2" cx="6" cy="28.6" r="5"/></g><g transform="matrix(0 -1 -1 0 594 260)"><path d="M6 23.4V6a6 6 0 0 1 6-6h112.6" stroke="#37D8C3" stroke-width="1.6"/><path d="M235.4 61V6a6 6 0 0 0-6-6H121.2" stroke="#37D8C3" stroke-width="1.6"/><path fill="#37D8C3" d="M235 69l-6-10h12z"/><circle stroke="red" stroke-width="2" cx="6" cy="28.6" r="5"/></g><g><g transform="translate(465 103)"><mask id="g" fill="#fff"><use xlink:href="#e"/></mask><use stroke-opacity=".134" stroke="#46E3BF" stroke-width="10" fill="url(#f)" xlink:href="#e"/><g style="mix-blend-mode:soft-light" mask="url(#g)" fill="#FFF" fill-rule="nonzero"><path d="M77.4 251.456l48.355-48.337 1 1-48.354 48.337zM-.086 328.91l52.817-52.797 1 1L.914 329.911zM-47.163 375.97l22.404-22.395 1 1-22.403 22.396zM-19.398 348.218l13.951-13.946 1.001 1-13.952 13.946zM154.52 176.36l-22.405 22.395-1-1 22.404-22.396zM73.045 257.816l-13.952 13.946-1-1 13.951-13.946zM50.353 267.472L1.998 315.81l-1-1 48.354-48.337zM-3.366 321.169l-22.404 22.396-1-1 22.403-22.397zM155.607 162.267l-22.404 22.396-1-1 22.404-22.396zM-31.127 348.927l-13.951 13.947-1-1 13.95-13.947zM108.525 209.323l-52.817 52.798-1-1 52.817-52.798zM127.84 190.014l-13.95 13.947-1.001-1 13.951-13.947zM134.435 157.397L86.08 205.734l-1-1 48.354-48.337zM57.311 232.488l22.404-22.396 1 1-22.403 22.396zM138.796 151.044l13.951-13.947 1.001 1-13.952 13.947zM-24.534 316.308l-48.355 48.337-1-1 48.354-48.337zM52.952 238.845L.135 291.642l-1-1 52.817-52.798zM-20.173 309.943l13.951-13.946 1 1-13.95 13.947zM32.294 270.507L80.65 222.17l1 1-48.354 48.337zM133.091 169.755l52.817-52.798 1 1-52.816 52.798zM86.01 216.815l22.403-22.396 1 1-22.403 22.396zM-72.954 375.72l22.404-22.396 1 1-22.404 22.396zM113.774 189.062l13.951-13.946 1.001 1-13.952 13.946zM-25.882 328.664l52.817-52.798 1 1-52.816 52.798zM-45.194 347.966l13.952-13.947 1 1-13.951 13.947zM70.128 208.653L21.773 256.99l-1-1 48.355-48.337zM147.619 131.2l-52.817 52.797-1-1 52.816-52.798zM-6.987 283.752l22.404-22.396 1 1-22.403 22.396zM74.484 202.302l13.952-13.946 1 1-13.951 13.947zM-11.345 290.11l-52.817 52.798-1-1 52.817-52.798zM43.416 220.347L91.77 172.01l1 1-48.355 48.338zM-120.01 383.707l52.817-52.798 1 1-52.816 52.798zM97.13 166.65l22.405-22.396 1 1-22.404 22.396zM-61.833 325.555l22.404-22.396 1 1-22.403 22.396zM124.895 138.897l13.952-13.946 1 1-13.951 13.946zM-14.76 278.499L38.055 225.7l1.001 1L-13.76 279.5zM-34.072 297.8l13.951-13.946 1 1-13.95 13.947zM-66.702 304.398l48.355-48.337 1 1-48.354 48.337zM10.412 229.305l-22.404 22.396-1-1L9.41 228.305zM-71.063 310.756l-13.952 13.946-1-1 13.951-13.947zM92.262 145.484l48.355-48.337 1 1-48.355 48.338zM14.771 222.944l52.817-52.798 1 1-52.816 52.798zM87.906 151.845L73.954 165.79l-1-1 13.951-13.947zM48.453 204.293L.098 252.63l-1-1 48.355-48.337zM-52.334 305.046l-52.817 52.797-1-1 52.817-52.798zM-5.265 257.99l-22.405 22.396-1-1 22.404-22.397zM-33.026 285.742l-13.952 13.947-1-1 13.951-13.947zM106.626 146.139l-52.817 52.797-1-1 52.816-52.798zM125.941 126.835l-13.951 13.947-1-1 13.95-13.947zM25.318 199.392l48.355-48.337 1 1-48.355 48.337zM-52.169 276.847L.648 224.05l1.001 1-52.817 52.798zM-99.245 323.907l22.404-22.396 1 1-22.403 22.396zM-71.48 296.155l13.951-13.947 1 1-13.95 13.947zM102.437 124.296l-22.404 22.396-1-1 22.403-22.396zM20.962 205.752L7.01 219.7l-1-1 13.951-13.947zM106.796 117.938l52.817-52.798 1.001 1-52.817 52.798zM-1.73 215.409l-48.355 48.337-1-1 48.354-48.337zM-55.449 269.105l-22.404 22.396-1-1 22.404-22.396zM103.524 110.204L81.12 132.6l-1-1 22.404-22.396zM-83.21 296.864L-97.16 310.81l-1-1 13.951-13.947zM56.442 157.26L3.625 210.058l-1-1 52.817-52.798zM75.758 137.95l-13.952 13.947-1-1 13.952-13.946zM82.352 105.334L33.997 153.67l-1-1 48.354-48.337zM5.229 180.424l22.404-22.396 1 1L6.23 181.425zM86.708 98.98l13.952-13.946 1 1L87.71 99.981zM-76.617 264.245l-48.355 48.337-1-1 48.354-48.338zM.87 186.781l-52.818 52.798-1-1L-.131 185.78zM-72.255 257.88l13.951-13.947 1 1-13.95 13.947zM-19.788 218.443l48.355-48.337 1 1-48.354 48.337zM81.003 117.691l52.817-52.797 1 1-52.816 52.797zM33.927 164.751l22.404-22.396 1 1-22.404 22.396zM-125.037 323.656l22.405-22.396 1 1-22.404 22.397zM61.692 136.999l13.951-13.947 1 1L62.694 138zM-77.964 276.6l52.817-52.797 1 1-52.817 52.798zM-97.276 295.902l13.952-13.946 1 1-13.951 13.946zM18.045 156.59l-48.354 48.337-1-1 48.354-48.338zM95.536 79.136l-52.817 52.798-1-1 52.816-52.798zM-59.07 231.688l22.405-22.396 1 1-22.404 22.397zM22.402 150.239l13.951-13.947 1.001 1-13.952 13.947zM-63.427 238.047l-52.818 52.798-1-1 52.817-52.798zM-8.666 168.284l48.354-48.337 1.001 1-48.355 48.337zM-172.092 331.644l52.817-52.798 1 1-52.816 52.798zM45.048 114.586L67.453 92.19l1 1-22.404 22.396zM-113.915 273.491l22.404-22.396 1 1-22.404 22.397zM72.813 86.834l13.952-13.947 1 1-13.951 13.947zM-66.843 226.435l52.817-52.797 1 1-52.816 52.798zM-86.154 245.737l13.951-13.946 1 1-13.95 13.947zM-118.784 252.334l48.355-48.337 1 1-48.354 48.337zM-41.67 177.242l-22.405 22.396-1-1 22.403-22.397zM-123.146 258.692l-13.952 13.947-1-1 13.951-13.947zM40.18 93.421l48.354-48.337 1.001 1L41.18 94.421zM-37.31 170.88l52.816-52.797 1 1-52.816 52.797zM35.823 99.781l-13.951 13.947-1.001-1L34.823 98.78zM-3.63 152.23l-48.354 48.337-1-1L-4.63 151.23zM-104.417 252.982l-52.817 52.798-1-1 52.817-52.798zM-57.348 205.926l-22.404 22.396-1.001-1 22.404-22.396zM-85.109 233.679l-13.952 13.946-1-1 13.951-13.946zM54.543 94.075L1.726 146.873l-1-1 52.816-52.798zM73.859 74.772L59.907 88.718l-1-1 13.951-13.946zM-7.993 130.558l-48.355 48.337-1-1 48.354-48.337zM69.497 53.104L16.68 105.902l-1-1 52.817-52.798zM-85.113 205.657l22.404-22.396 1 1-22.404 22.396zM-3.636 124.207l13.951-13.946 1 1-13.95 13.946zM-89.472 212.015l-52.817 52.798-1-1 52.817-52.798zM-103.43 210.955l48.354-48.338 1 1-48.354 48.338zM-2.644 110.193l52.817-52.798 1 1-52.816 52.798zM-49.716 157.257l22.404-22.396 1 1-22.404 22.396zM-21.952 129.499L-8 115.552l1 1-13.95 13.947zM-161.607 269.106l52.817-52.798 1 1-52.817 52.798zM-144.828 226.303l48.355-48.338 1 1-48.354 48.338zM-67.71 151.21l-22.404 22.396-1-1 22.404-22.396zM-149.186 232.65l-13.952 13.947-1-1 13.951-13.946zM14.136 67.39L62.49 19.051l1.001 1L15.136 68.39zM-63.35 144.849l52.818-52.798 1 1-52.817 52.798zM9.779 73.744L-4.173 87.69l-1-1L8.778 72.744zM-29.668 126.198l-48.355 48.337-1-1 48.354-48.337zM-130.46 226.95l-52.818 52.798-1-1 52.817-52.798zM-83.387 179.895l-22.404 22.396-1-1 22.404-22.397zM-111.153 207.647l-13.952 13.947-1-1 13.951-13.947zM28.504 68.044l-52.817 52.797-1-1 52.817-52.798zM47.82 48.74L33.868 62.687l-1-1L46.819 47.74zM-25.637 94.133l48.355-48.337 1 1-48.355 48.337zM-103.128 171.592l52.817-52.797 1 1-52.816 52.798zM-150.2 218.648l22.404-22.396 1 1-22.404 22.397zM-122.44 190.9l13.952-13.947 1 1-13.95 13.947zM51.48 19.048L29.078 41.444l-1.001-1L50.48 18.048zM-29.998 100.495l-13.952 13.947-1-1L-31 99.494zM-52.686 110.156l-48.355 48.337-1-1 48.354-48.338zM-106.4 163.854l-22.405 22.396-1-1 22.404-22.397zM-134.165 191.61l-13.952 13.947-1-1 13.95-13.947zM5.49 52.003L-47.327 104.8l-1-1L4.49 51.002zM24.804 32.7L10.852 46.645l-1-1 13.951-13.947zM4.225 27.239L-44.13 75.576l-1-1L3.223 26.237zM-72.897 102.33l22.404-22.397 1 1-22.404 22.396zM-77.258 108.686l-52.817 52.798-1-1 52.817-52.798zM-150.382 179.785l13.952-13.947 1 1-13.951 13.947zM-70.743 113.19l48.355-48.337 1 1-48.354 48.337zM-17.028 59.492L5.376 37.096l1 1-22.404 22.396zM-128.92 171.342l52.818-52.798 1 1-52.817 52.798zM-148.227 190.653l13.952-13.946 1 1-13.951 13.946zM-60.076 78.495l-48.355 48.337-1-1 48.354-48.338zM17.415 1.04L-35.402 53.84l-1.001-1L16.414.04zM-137.195 153.593l22.404-22.396 1 1-22.404 22.396zM-55.719 72.144l13.952-13.947 1 1-13.951 13.947zM-141.555 159.952l-52.817 52.797-1-1 52.817-52.797zM-86.792 90.189l48.354-48.337 1 1-48.354 48.337zM-33.078 36.491l22.404-22.396 1.001 1-22.404 22.396zM-144.969 148.34l52.817-52.797 1 1-52.816 52.798zM-164.28 167.648l13.951-13.947 1 1-13.951 13.947zM-196.91 174.24l48.355-48.338 1 1-48.354 48.337zM-119.792 99.147l-22.405 22.395-1-1 22.404-22.396zM-115.431 92.785l52.817-52.798 1 1-52.817 52.798zM-81.751 74.135l-48.355 48.337-1-1 48.354-48.337zM-135.47 127.831l-22.404 22.396-1-1 22.404-22.396zM-23.579 15.98l-52.817 52.798-1-1L-24.58 14.98z"/></g></g><path d="M509.003 207c-6.664 0-12.003-4.081-12.003-11.717v-20.098h6.09v19.66c0 4.08 2.294 6.23 5.913 6.23 3.706 0 5.957-2.15 5.957-6.23v-19.66h6.09v20.098c0 7.636-5.34 11.717-12.047 11.717zm22.517-13.121v12.419h-5.869v-21.59h5.693v2.676c1.324-2.238 3.927-3.247 6.266-3.247 5.384 0 7.855 3.818 7.855 8.557v13.604h-5.87v-12.595c0-2.413-1.19-4.3-4.015-4.3-2.56 0-4.06 1.975-4.06 4.476zm24.195 12.419h-5.869v-21.59h5.869v21.59zm-6.575-28.656c0-2.018 1.633-3.642 3.618-3.642 2.03 0 3.619 1.624 3.619 3.642 0 1.931-1.589 3.555-3.619 3.555-1.985 0-3.618-1.624-3.618-3.555zm16.958 28.656h-5.693v-31.771h5.78v12.55c.972-1.536 3.355-2.94 6.576-2.94 6.354 0 10.017 4.871 10.017 11.278 0 6.538-4.06 11.41-10.238 11.41-3 0-5.295-1.317-6.442-3.16v2.633zm10.81-10.84c0-3.949-2.382-6.099-5.383-6.099-2.956 0-5.427 2.15-5.427 6.1 0 3.905 2.47 6.143 5.427 6.143 3.001 0 5.384-2.194 5.384-6.143zm14.796 10.84h-5.869v-21.59h5.87v21.59zm-6.575-28.656c0-2.018 1.633-3.642 3.619-3.642 2.03 0 3.618 1.624 3.618 3.642 0 1.931-1.588 3.555-3.618 3.555-1.986 0-3.619-1.624-3.619-3.555zm18.502.615v6.45H608v5.179h-4.369v9.04c0 1.887.883 2.5 2.56 2.5.706 0 1.5-.087 1.809-.175v4.827c-.53.22-1.589.527-3.31.527-4.236 0-6.883-2.501-6.883-6.67v-10.05h-3.928v-5.178h1.103c2.295 0 3.354-1.492 3.354-3.422v-3.028h5.295z" fill="#FFF" fill-rule="nonzero"/></g></g></svg>