<?xml version="1.0" encoding="UTF-8"?>
<svg width="529px" height="360px" viewBox="0 0 529 360" version="1.1" xmlns="http://www.w3.org/2000/svg" xmlns:xlink="http://www.w3.org/1999/xlink">
    <!-- Generator: Sketch 55.2 (78181) - https://sketchapp.com -->
    <title>uniform</title>
    <desc>Created with Sketch.</desc>
    <defs>
        <linearGradient x1="0%" y1="49.9993686%" x2="100%" y2="49.9993686%" id="linearGradient-1">
            <stop stop-color="#FF593D" offset="0%"></stop>
            <stop stop-color="#FF7751" offset="100%"></stop>
        </linearGradient>
        <linearGradient x1="64.4799107%" y1="45.8013393%" x2="26.7053571%" y2="60.6808036%" id="linearGradient-2">
            <stop stop-color="#A6ABFF" offset="0%"></stop>
            <stop stop-color="#3EB0FD" offset="100%"></stop>
        </linearGradient>
        <circle id="path-3" cx="87.5" cy="87.5" r="87.5"></circle>
        <circle id="path-5" cx="87.5" cy="87.5" r="87.5"></circle>
        <linearGradient x1="62.0923913%" y1="87.9528986%" x2="26.9191576%" y2="20.4625226%" id="linearGradient-7">
            <stop stop-color="#4F58FD" offset="0%"></stop>
            <stop stop-color="#149BF3" offset="100%"></stop>
        </linearGradient>
        <circle id="path-8" cx="69" cy="69" r="69"></circle>
        <linearGradient x1="75.5102041%" y1="100%" x2="74.1168863%" y2="0%" id="linearGradient-10">
            <stop stop-color="#4F58FD" offset="0%"></stop>
            <stop stop-color="#149BF3" offset="100%"></stop>
        </linearGradient>
        <linearGradient x1="49.9679616%" y1="99.6904852%" x2="49.9679616%" y2="-0.173217954%" id="linearGradient-11">
            <stop stop-color="#2226D8" stop-opacity="0" offset="0%"></stop>
            <stop stop-color="#202CD8" stop-opacity="0.06" offset="3%"></stop>
            <stop stop-color="#1848D8" stop-opacity="0.31" offset="17%"></stop>
            <stop stop-color="#105FD9" stop-opacity="0.52" offset="31%"></stop>
            <stop stop-color="#0A73D9" stop-opacity="0.69" offset="46%"></stop>
            <stop stop-color="#0682D9" stop-opacity="0.83" offset="60%"></stop>
            <stop stop-color="#038CD9" stop-opacity="0.92" offset="73%"></stop>
            <stop stop-color="#0193D9" stop-opacity="0.98" offset="87%"></stop>
            <stop stop-color="#0095D9" offset="100%"></stop>
        </linearGradient>
        <linearGradient x1="100%" y1="90.3594971%" x2="97.2690972%" y2="9.64050293%" id="linearGradient-12">
            <stop stop-color="#4F58FD" offset="0%"></stop>
            <stop stop-color="#149BF3" offset="100%"></stop>
        </linearGradient>
        <linearGradient x1="100%" y1="75.6103422%" x2="97.2690972%" y2="24.3896578%" id="linearGradient-13">
            <stop stop-color="#4F58FD" offset="0%"></stop>
            <stop stop-color="#149BF3" offset="100%"></stop>
        </linearGradient>
        <linearGradient x1="67.0138889%" y1="100%" x2="66.0846234%" y2="0%" id="linearGradient-14">
            <stop stop-color="#4F58FD" offset="0%"></stop>
            <stop stop-color="#149BF3" offset="100%"></stop>
        </linearGradient>
    </defs>
    <g id="Page-1" stroke="none" stroke-width="1" fill="none" fill-rule="evenodd">
        <g id="uniform" transform="translate(0.000000, -88.000000)">
            <path d="M120.669774,224.55184 C204.79951,163.004753 70.4558253,167.483495 139.671907,92.4908896 C208.887988,17.4982837 279.181941,164.705188 448.522381,141.382277 C617.862822,118.059366 407.615916,503.509962 290.199152,449.86417 C172.782387,396.218377 36.5400384,286.098927 120.669774,224.55184 Z" id="cms-bg1" fill="#A6ABFF" opacity="0.1" transform="translate(303.281694, 262.996220) rotate(155.000000) translate(-303.281694, -262.996220) "></path>
            <path d="M95.4236214,246.426005 C167.986251,193.372654 52.1136534,197.233313 111.813126,132.589976 C171.512599,67.9466395 232.141746,194.838423 378.19935,174.734164 C524.256954,154.629904 342.917167,486.886829 241.644185,440.644363 C140.371204,394.401897 22.8609919,299.479357 95.4236214,246.426005 Z" id="cms-bg1" fill="#A6ABFF" opacity="0.1" transform="translate(252.927992, 279.564912) rotate(-360.000000) translate(-252.927992, -279.564912) "></path>
            <rect id="cms-bc" stroke="#3EB0FD" fill="#FFFFFF" x="0.5" y="127.290847" width="122" height="43" rx="2"></rect>
            <rect id="cms-bc" stroke="#3EB0FD" fill="#FFFFFF" x="0.5" y="195.290847" width="122" height="43" rx="2"></rect>
            <rect id="cms-bc" stroke="#3EB0FD" fill="#FFFFFF" x="0.5" y="338.290847" width="122" height="43" rx="2"></rect>
            <rect id="cms-bc" stroke="#3EB0FD" fill="#3EB0FD" x="0.5" y="390.5" width="122" height="43" rx="2"></rect>
            <rect id="cms-bc" stroke="#3EB0FD" fill="#FFFFFF" x="0.5" y="261.290847" width="122" height="48" rx="2"></rect>
            <g id="Group-11" transform="translate(12.000000, 138.790847)">
                <g id="contenful">
                    <path d="M5.45199063,14.0809717 C4.49648712,13.0445344 3.93442623,11.6194332 3.93442623,10 C3.93442623,8.3805668 4.49648712,6.95546559 5.39578454,5.91902834 C6.18266979,5.01214575 6.18266979,3.58704453 5.39578454,2.68016194 C4.6088993,1.77327935 3.37236534,1.77327935 2.58548009,2.68016194 C1.0117096,4.55870445 0,7.14979757 0,10 C0,12.8502024 1.0117096,15.4412955 2.64168618,17.3198381 C3.42857143,18.2267206 4.66510539,18.2267206 5.45199063,17.3198381 C6.18266979,16.4129555 6.18266979,14.9878543 5.45199063,14.0809717 Z" id="Path" fill="#FFD85F" fill-rule="nonzero"></path>
                    <path d="M5.91902834,5.45199063 C6.95546559,4.49648712 8.3805668,3.93442623 10,3.93442623 C11.6194332,3.93442623 13.0445344,4.49648712 14.0809717,5.39578454 C14.9878543,6.18266979 16.4129555,6.18266979 17.3198381,5.39578454 C18.2267206,4.6088993 18.2267206,3.37236534 17.3198381,2.58548009 C15.4412955,1.0117096 12.8502024,0 10,0 C7.14979757,0 4.55870445,1.0117096 2.68016194,2.64168618 C1.77327935,3.42857143 1.77327935,4.66510539 2.68016194,5.45199063 C3.58704453,6.18266979 5.01214575,6.18266979 5.91902834,5.45199063 Z" id="Path" fill="#3BB4E7" fill-rule="nonzero"></path>
                    <path d="M14.0809717,14.5480094 C13.0445344,15.5035129 11.6194332,16.0655738 10,16.0655738 C8.3805668,16.0655738 6.95546559,15.5035129 5.91902834,14.6042155 C5.01214575,13.8173302 3.58704453,13.8173302 2.68016194,14.6042155 C1.77327935,15.3911007 1.77327935,16.6276347 2.68016194,17.4145199 C4.55870445,18.9882904 7.14979757,20 10,20 C12.8502024,20 15.4412955,18.9882904 17.3198381,17.3583138 C18.2267206,16.5714286 18.2267206,15.3348946 17.3198381,14.5480094 C16.4129555,13.8173302 14.9878543,13.8173302 14.0809717,14.5480094 Z" id="Path" fill="#ED5C68" fill-rule="nonzero"></path>
                    <circle id="Oval" fill="#308BC5" fill-rule="nonzero" cx="4.5" cy="4.5" r="2.5"></circle>
                    <circle id="Oval" fill="#D5465F" fill-rule="nonzero" cx="4.5" cy="15.5" r="2.5"></circle>
                    <path d="M27.3966512,12.3380952 C28.0357652,11.8428571 28.163588,12.152381 28.6748792,12.647619 C28.9305248,12.8952381 29.6974616,13.3904762 29.1861704,13.7619048 C28.163588,14.5666667 27.2688284,14.9380952 25.9266891,14.9380952 C22.9867647,14.9380952 20.8776886,12.7714286 21.0055114,9.98571429 C21.0694228,8.68571429 21.580714,7.50952381 22.6032963,6.7047619 C23.5619673,5.96190476 24.7123725,5.59047619 25.9266891,5.65238095 C26.565803,5.65238095 27.0770942,5.77619048 27.6522968,5.96190476 C28.0357652,6.08571429 28.4192336,6.27142857 28.7387906,6.51904762 C29.3779046,7.01428571 29.0583476,7.26190476 28.6109678,7.75714286 C28.483145,7.88095238 28.4192336,8.0047619 28.2914108,8.06666667 C28.0357652,8.31428571 27.844031,8.5 27.524474,8.25238095 C26.88536,7.81904762 25.9906005,7.57142857 25.2236637,7.75714286 C22.6672077,8.37619048 22.7950305,12.7714286 25.9266891,12.7714286 C26.4379802,12.8333333 27.0131828,12.647619 27.3966512,12.3380952 Z M98.402215,14.752381 C97.9548352,14.752381 97.6352783,14.4428571 97.6352783,14.0095238 L97.6352783,4.29047619 C97.6352783,3.85714286 97.9548352,3.54761905 98.402215,3.54761905 L99.2330632,3.54761905 C99.680443,3.54761905 100,3.85714286 100,4.29047619 L100,14.0095238 C100,14.4428571 99.680443,14.752381 99.2330632,14.752381 L98.402215,14.752381 Z M93.9923285,13.6380952 C93.097569,14.4428571 92.2028094,14.8761905 90.9245814,14.8761905 C88.3042141,14.8761905 87.0898975,12.7714286 87.0898975,10.4809524 L87.0898975,6.51904762 C87.0898975,6.08571429 87.4094545,5.77619048 87.8568343,5.77619048 L88.6876825,5.77619048 C89.1350622,5.77619048 89.4546192,6.08571429 89.4546192,6.51904762 L89.4546192,10.4809524 C89.4546192,11.7809524 90.1576446,12.7714286 91.6276068,12.7714286 C93.0336576,12.7714286 93.9284171,11.5952381 93.9284171,10.3571429 L93.9284171,6.51904762 C93.9284171,6.08571429 94.2479741,5.77619048 94.6953539,5.77619048 L95.5262021,5.77619048 C95.9735819,5.77619048 96.2931389,6.08571429 96.2931389,6.51904762 L96.2931389,14.0095238 C96.2931389,14.4428571 95.9735819,14.752381 95.5262021,14.752381 L94.8231767,14.752381 C94.3757969,14.752381 94.1201513,14.3809524 94.0562399,14.0095238 L93.9923285,13.6380952 Z M84.0221504,5.83809524 L85.6199353,5.83809524 C86.0673151,5.83809524 86.3868721,6.20952381 86.3868721,6.58095238 L86.3868721,7.07619048 C86.3868721,7.50952381 86.0673151,7.81904762 85.6199353,7.81904762 L84.0221504,7.81904762 L84.0221504,14.0095238 C84.0221504,14.4428571 83.7025934,14.752381 83.2552136,14.752381 L82.4243654,14.752381 C81.9769856,14.752381 81.6574286,14.4428571 81.6574286,14.0095238 L81.6574286,5.52857143 C81.6574286,3.67142857 82.7439224,2.18571429 84.7251757,2 L85.9394923,2 C86.3868721,2 86.7064291,2.37142857 86.7064291,2.74285714 L86.7064291,3.23809524 C86.7064291,3.67142857 86.3868721,3.98095238 85.9394923,3.98095238 L85.3003783,3.98095238 C84.3417073,3.98095238 83.958239,4.66190476 83.958239,5.52857143 L83.958239,5.83809524 L84.0221504,5.83809524 Z M78.2062131,5.83809524 L79.9957322,5.83809524 C80.443112,5.83809524 80.762669,6.14761905 80.762669,6.58095238 L80.762669,7.07619048 C80.762669,7.50952381 80.443112,7.81904762 79.9957322,7.81904762 L78.2062131,7.81904762 L78.2062131,11.5952381 C78.2062131,12.3380952 78.5896815,12.7095238 79.3566183,12.7095238 L79.7400867,12.7095238 C80.1874664,12.7095238 80.5070234,13.0190476 80.5070234,13.452381 L80.5070234,14.0095238 C80.5070234,14.4428571 80.1874664,14.752381 79.7400867,14.752381 L78.6535929,14.752381 C76.7362509,14.6285714 75.9054027,13.452381 75.9054027,11.5952381 L75.9054027,4.29047619 C75.9054027,3.85714286 76.2249597,3.54761905 76.6723395,3.54761905 L77.5031877,3.54761905 C77.9505675,3.54761905 78.2701245,3.85714286 78.2701245,4.29047619 L78.2701245,5.83809524 L78.2062131,5.83809524 Z M52.5777423,5.83809524 L54.3672614,5.83809524 C54.8146412,5.83809524 55.1341982,6.14761905 55.1341982,6.58095238 L55.1341982,7.07619048 C55.1341982,7.50952381 54.8146412,7.81904762 54.3672614,7.81904762 L52.5777423,7.81904762 L52.5777423,11.5952381 C52.5777423,12.3380952 52.9612107,12.7714286 53.7281474,12.7714286 L54.1116158,12.7714286 C54.5589956,12.7714286 54.8785526,13.0809524 54.8785526,13.5142857 L54.8785526,14.0095238 C54.8785526,14.4428571 54.5589956,14.752381 54.1116158,14.752381 L53.6003246,14.752381 C51.4912485,14.752381 50.2769319,13.8857143 50.2769319,11.5952381 L50.2769319,4.29047619 C50.2769319,3.85714286 50.5964889,3.54761905 51.0438687,3.54761905 L51.8747169,3.54761905 C52.3220967,3.54761905 52.6416537,3.85714286 52.6416537,4.29047619 L52.6416537,5.83809524 L52.5777423,5.83809524 Z M42.1601843,6.89047619 C42.9910325,6.08571429 43.9497035,5.65238095 45.1001086,5.65238095 C47.720476,5.65238095 49.0626153,7.6952381 49.0626153,10.047619 L49.0626153,14.0095238 C49.0626153,14.4428571 48.7430583,14.752381 48.2956786,14.752381 L47.4648304,14.752381 C47.0174506,14.752381 46.6978936,14.4428571 46.6978936,14.0095238 L46.6978936,10.047619 C46.6978936,8.74761905 45.9948682,7.75714286 44.524906,7.75714286 C43.1188553,7.75714286 42.2240957,8.87142857 42.2240957,10.1714286 L42.2240957,14.0095238 C42.2240957,14.4428571 41.9045387,14.752381 41.4571589,14.752381 L40.6263107,14.752381 C40.1789309,14.752381 39.8593739,14.4428571 39.8593739,14.0095238 L39.8593739,6.51904762 C39.8593739,6.08571429 40.1789309,5.77619048 40.6263107,5.77619048 L41.3293361,5.77619048 C41.7767159,5.77619048 42.0323615,6.14761905 42.0962729,6.51904762 L42.1601843,6.89047619 L42.1601843,6.89047619 Z M67.8525665,6.89047619 C68.6834147,6.08571429 69.6420857,5.65238095 70.7924909,5.65238095 C73.4128582,5.65238095 74.7549976,7.6952381 74.7549976,10.047619 L74.7549976,14.0095238 C74.7549976,14.4428571 74.4354406,14.752381 73.9880608,14.752381 L73.1572126,14.752381 C72.7098328,14.752381 72.3902758,14.4428571 72.3902758,14.0095238 L72.3902758,10.047619 C72.3902758,8.74761905 71.6872504,7.75714286 70.2172883,7.75714286 C68.8112375,7.75714286 67.9164779,8.87142857 67.9164779,10.1714286 L67.9164779,14.0095238 C67.9164779,14.4428571 67.5969209,14.752381 67.1495411,14.752381 L66.318693,14.752381 C65.8713132,14.752381 65.5517562,14.4428571 65.5517562,14.0095238 L65.5517562,6.51904762 C65.5517562,6.08571429 65.8713132,5.77619048 66.318693,5.77619048 L67.0217183,5.77619048 C67.4690981,5.77619048 67.7247437,6.14761905 67.7886551,6.51904762 L67.8525665,6.89047619 Z M34.2990823,5.59047619 C31.4869807,5.59047619 29.5057274,7.57142857 29.5057274,10.2952381 C29.5057274,13.0190476 31.4869807,15 34.2990823,15 C37.1750952,15 39.1563486,13.0809524 39.1563486,10.2952381 C39.1563486,7.57142857 37.1111838,5.59047619 34.2990823,5.59047619 Z M57.6906541,11.1 C57.8823883,12.3380952 59.1606163,12.8952381 60.3749329,12.8952381 C60.9501355,12.8952381 61.5892495,12.7714286 62.1005406,12.5238095 C62.164452,12.4619048 62.2922748,12.4619048 62.3561862,12.4 C62.6757432,12.2142857 62.9313888,12.152381 63.1870344,12.4 L63.6344142,12.8333333 L64.0178826,13.2047619 C64.401351,13.7 64.1457054,13.8238095 63.6983256,14.0714286 C62.7396546,14.6904762 61.5253381,15 60.3749329,15 C57.3071858,15 55.262021,13.2047619 55.262021,10.2333333 C55.262021,7.38571429 57.3071858,5.52857143 60.1831987,5.52857143 C63.1870344,5.52857143 64.8487308,7.2 64.9126422,10.1095238 C64.9126422,10.9142857 64.9765536,11.1619048 64.1457054,11.1619048 L57.6906541,11.1619048 L57.6906541,11.1 L57.6906541,11.1 Z M34.2990823,7.6952381 C35.7690444,7.6952381 36.7277154,8.93333333 36.7277154,10.2952381 C36.7277154,11.7190476 35.8329558,12.8333333 34.2990823,12.8333333 C32.7652087,12.8333333 31.8704491,11.7190476 31.8704491,10.2952381 C31.8704491,8.87142857 32.8291201,7.6952381 34.2990823,7.6952381 L34.2990823,7.6952381 Z M57.7545655,9.18095238 L62.5479204,9.18095238 C62.3561862,8.0047619 61.3975153,7.57142857 60.2471101,7.57142857 C59.0327935,7.57142857 58.0741225,8.12857143 57.7545655,9.18095238 Z" id="Shape" fill="#2A3039"></path>
                </g>
                <g id="datocms" transform="translate(5.000000, 133.000000)" fill-rule="nonzero">
                    <path d="M13.6269337,0 L0,0 L0,27.3636364 L13.6269337,27.3636364 C20.4421324,27.3636364 27.2535211,21.2377173 27.2535211,13.6837186 C27.2535211,6.12971991 20.4421324,0 13.6269337,0 Z M13.6269337,19.8987866 C10.1851742,19.8974487 7.39614445,17.1129282 7.39741928,13.6793423 C7.39869498,10.2457564 10.1897923,7.46329854 13.6315519,7.46450662 C17.0733116,7.46571549 19.8624449,10.2501327 19.8612978,13.6837186 C19.8612978,15.3328633 19.2044429,16.9144241 18.0351233,18.0801242 C16.8658038,19.2458243 15.2800038,19.9000683 13.6269337,19.8987866 L13.6269337,19.8987866 Z" id="Shape" fill="url(#linearGradient-1)"></path>
                    <path d="M40.931893,0.298205109 C45.0174519,0.298205109 47.1130172,2.79332688 47.1130172,6.22685633 L47.1130172,9.29753482 C47.1130172,12.7307167 45.0174519,15.2258385 40.931893,15.2258385 L34.4544088,15.2258385 L34.4544088,0.298205109 L40.931893,0.298205109 Z M43.4721708,6.20669795 C43.4721708,4.30902907 42.4771741,3.30667064 40.2756919,3.30667064 L38.0742098,3.30667064 L38.0742098,12.2187632 L40.2756919,12.2187632 C42.4771741,12.2187632 43.4721708,11.2164048 43.4721708,9.31873588 L43.4721708,6.20669795 Z M58.3905673,12.4547553 L53.035042,12.4547553 L52.2094431,15.2272287 L48.5685967,15.2272287 L53.8602959,0.298205109 L57.5863587,0.298205109 L62.8784029,15.2258385 L59.2372115,15.2258385 L58.3905673,12.4547553 Z M53.924122,9.51197835 L57.5014873,9.51197835 L55.7233273,3.60522331 L53.924122,9.51197835 Z M74.3902119,0.298205109 L74.3902119,3.39147489 L70.3881445,3.39147489 L70.3881445,15.2258385 L66.7483331,15.2258385 L66.7483331,3.39043221 L62.7462657,3.39043221 L62.7462657,0.298205109 L74.3902119,0.298205109 Z M83.2033855,15.5243912 C78.7158948,15.5243912 76.4084959,12.6240163 76.4084959,8.72163055 L76.4084959,6.80241305 C76.4084959,2.90002731 78.7158948,0 83.2033855,0 C87.6908761,0 90,2.90002731 90,6.80241305 L90,8.72163055 C89.99862,12.6240163 87.6912211,15.5243912 83.2033855,15.5243912 L83.2033855,15.5243912 Z M83.2033855,3.04912986 C81.0867748,3.04912986 80.0493423,4.47829001 80.0493423,6.61056081 L80.0493423,8.91348278 C80.0493423,11.0461011 81.0867748,12.4749137 83.2033855,12.4749137 C85.3199961,12.4749137 86.3574286,11.0461011 86.3574286,8.91348278 L86.3574286,6.61056081 C86.3574286,4.47829001 85.3203411,3.04912986 83.2033855,3.04912986 Z M37.7012586,26.1516844 C38.1676127,26.1896339 38.6282188,26.0276241 38.9697789,25.7055055 C39.3113391,25.3833868 39.5021544,24.9310541 39.4952888,24.4597701 L41.5494534,24.4597701 C41.523578,26.3859388 40.1156093,28 37.725409,28 C34.9350019,28 33.5915493,26.2298851 33.5915493,23.8612745 L33.5915493,22.6639359 C33.5915493,20.2953253 34.9350019,18.525558 37.725409,18.525558 C40.1156093,18.525558 41.523578,20.1389241 41.5494534,22.0650927 L39.4952888,22.0650927 C39.5021544,21.5938087 39.3113391,21.141476 38.9697789,20.8193574 C38.6282188,20.4972388 38.1676127,20.335229 37.7012586,20.3731784 C36.3574609,20.3731784 35.8147668,21.2712693 35.8147668,22.5596683 L35.8147668,23.9651945 C35.8147668,25.2535935 36.3591859,26.1516844 37.7012586,26.1516844 Z M50.485449,18.707331 L52.5268484,18.707331 L52.5268484,27.8175318 L50.3954025,27.8175318 L50.3954025,23.0024577 L48.9739786,25.7870957 L47.2172089,25.7870957 L45.8092402,23.0024577 L45.8092402,27.8175318 L43.6774493,27.8175318 L43.6774493,18.707331 L45.7185037,18.707331 L48.0955937,23.6659467 L50.485449,18.707331 Z M58.3395064,28 C56.1690748,28 54.7093552,26.9573248 54.7093552,25.1236067 L54.7093552,24.8761451 L56.8408011,24.8761451 L56.8408011,25.0589608 C56.8408011,25.8267173 57.3317444,26.295226 58.3522716,26.295226 C59.2696421,26.295226 59.8768523,25.9177776 59.8768523,25.2150145 C59.9126664,24.8234335 59.6412299,24.4708417 59.2558418,24.4083315 L56.9950187,23.8355552 C55.586705,23.4841737 54.8632278,22.8596112 54.8632278,21.3758844 C54.8632278,19.5668429 56.1421644,18.5259055 58.2867205,18.5259055 C60.3150097,18.5259055 61.6070565,19.6318363 61.6070565,21.2976838 L61.6070565,21.5190785 L59.5539269,21.5190785 L59.5539269,21.3630248 C59.5539269,20.7509744 59.2178912,20.2435391 58.2877555,20.2435391 C57.5125275,20.2435391 57.0219292,20.51672 57.0219292,21.1673494 C56.9922047,21.5301083 57.2461194,21.8542143 57.603264,21.9093866 L60.0058845,22.5600159 C61.4528389,22.950324 62.0341737,23.7573546 62.0341737,25.0196867 C62.0341737,26.8415878 60.4323117,28 58.3395064,28 L58.3395064,28 Z" id="Shape" fill="#FF7751"></path>
                </g>
                <g id="forestry" transform="translate(1.000000, 68.000000)" fill="#000000" fill-rule="nonzero">
                    <polygon id="Path" points="21.6783217 3.4587591 20.5188317 2.3058394 16.6469634 6.13517983 16.6469634 0 14.9905491 0 14.9905491 6.13517983 11.1186807 2.3058394 9.95919076 3.4587591 14.9905491 8.48219494 14.9905491 10.7880343 11.1186807 6.95869391 6.68777259 2.53230577 6.68777259 0 5.03135833 0 5.03135833 2.53230577 0 7.55574161 1.15948998 8.70866131 5.03135833 4.87932088 5.03135833 7.18516028 0 12.2085961 1.15948998 13.3615158 5.03135833 9.53217538 5.03135833 20.979021 6.68777259 20.979021 6.68777259 9.53217538 10.5596409 13.3615158 11.7191309 12.2085961 6.68777259 7.18516028 6.68777259 4.87932088 9.95919076 8.11161361 10.2904736 8.44101924 10.5596409 8.70866131 14.9905491 13.1350494 14.9905491 20.979021 16.6469634 20.979021 16.6469634 13.1350494 21.6783217 8.11161361 20.5188317 6.95869391 16.6469634 10.7880343 16.6469634 8.48219494"></polygon>
                    <polygon id="Path" points="25.8741259 15.3846154 27.7929388 15.3846154 27.7929388 11.0363114 32.589971 11.0363114 32.589971 9.34644923 27.7929388 9.34644923 27.7929388 6.5849671 32.8671329 6.5849671 32.8671329 4.8951049 25.8741259 4.8951049"></polygon>
                    <path d="M43.878425,6.40282763 C43.3813175,5.90100015 42.7599333,5.52462955 42.0971233,5.27371581 C41.372175,5.00189259 40.605801,4.87643572 39.8394271,4.8973452 C39.0730531,4.8973452 38.3273919,5.02280207 37.6024436,5.29462528 C36.9396337,5.54553902 36.3389622,5.92190963 35.8418547,6.42373711 C35.3447473,6.92556459 34.9512039,7.53193946 34.6819374,8.20104277 C34.391958,8.93287451 34.2469684,9.72743468 34.2676812,10.5219949 C34.2469684,11.2956456 34.391958,12.0692963 34.6819374,12.801128 C35.1997576,14.1393346 36.2768237,15.1848085 37.6024436,15.686636 C38.3273919,15.9584592 39.0730531,16.0839161 39.8394271,16.0839161 C40.605801,16.0839161 41.372175,15.9375497 42.0971233,15.6657265 C42.7599333,15.4148128 43.3606047,15.0175327 43.878425,14.5157052 C44.3755324,14.0138777 44.7690758,13.4284123 45.0383423,12.759309 C45.3283217,12.0274773 45.4733114,11.2538266 45.4525985,10.4801759 C45.4733114,9.68561573 45.3283217,8.89105555 45.0383423,8.15922381 C44.7690758,7.4901205 44.3755324,6.90465511 43.878425,6.40282763 Z M43.2363279,12.0065678 C43.0706254,12.4665763 42.8220717,12.9056754 42.4906667,13.2611365 C42.1799746,13.6165976 41.7864312,13.9093303 41.3514622,14.0975156 C40.8750675,14.3066104 40.3779601,14.3902483 39.8601399,14.3902483 C39.3423196,14.4111578 38.8452122,14.3066104 38.3688175,14.0975156 C37.9338485,13.9093303 37.5403051,13.6165976 37.229613,13.2611365 C36.898208,12.9056754 36.6496543,12.4665763 36.4839518,12.0065678 C36.2975366,11.5047403 36.2146853,10.9820034 36.2146853,10.4383569 C36.2146853,9.93652947 36.2975366,9.43470199 36.4839518,8.95378399 C36.6496543,8.51468494 36.898208,8.09649538 37.229613,7.74103424 C37.5403051,7.38557311 37.9338485,7.1137499 38.3688175,6.92556459 C38.8452122,6.71646981 39.3423196,6.63283189 39.8601399,6.63283189 C40.3779601,6.63283189 40.8750675,6.71646981 41.3514622,6.92556459 C41.7864312,7.1137499 42.1799746,7.38557311 42.4906667,7.74103424 C42.8220717,8.09649538 43.0706254,8.51468494 43.2363279,8.95378399 C43.4227432,9.43470199 43.5055944,9.93652947 43.5055944,10.4383569 C43.5055944,10.9820034 43.4227432,11.5047403 43.2363279,12.0065678 Z" id="Shape"></path>
                    <path d="M53.5839161,10.5100782 C54.0045892,9.9753188 54.2249417,9.29658577 54.2049097,8.59728507 C54.2249417,8.08309338 54.1047494,7.58946935 53.8843969,7.13698067 C53.6840763,6.76676265 53.4036276,6.43767997 53.0430507,6.21143562 C52.6624417,5.98519128 52.2618007,5.82064994 51.8210956,5.73837927 C51.3603584,5.63554093 50.8795892,5.59440559 50.3988199,5.59440559 L46.8531469,5.59440559 L46.8531469,16.0633484 L48.6760635,16.0633484 L48.6760635,11.6412999 L49.9981789,11.6412999 L52.361961,16.0839161 L54.5454545,16.0839161 L51.8411276,11.4356232 C52.5222174,11.3739202 53.143211,11.0448375 53.5839161,10.5100782 Z M50.8595571,9.99588647 L50.0783071,10.0370218 L48.6760635,10.0370218 L48.6760635,7.19868367 L50.2385635,7.19868367 L50.9597174,7.239819 C51.1800699,7.26038667 51.4204545,7.32208968 51.6207751,7.42492801 C51.8210956,7.50719868 51.981352,7.65117236 52.1015443,7.83628137 C52.2417686,8.06252571 52.3018648,8.30933772 52.2818328,8.5767174 C52.3018648,8.86466475 52.2217366,9.13204443 52.0815122,9.37885644 C51.9412879,9.56396545 51.7609994,9.72850679 51.5606789,9.81077746 C51.3403263,9.9136158 51.0999417,9.9753188 50.8595571,9.99588647 L50.8595571,9.99588647 Z" id="Shape"></path>
                    <polygon id="Path" points="57.7422577 10.8508387 62.4175824 10.8508387 62.4175824 9.16097655 57.7422577 9.16097655 57.7422577 6.5849671 62.6773227 6.5849671 62.6773227 4.8951049 55.9440559 4.8951049 55.9440559 15.3846154 62.9370629 15.3846154 62.9370629 13.6947532 57.7422577 13.6947532"></polygon>
                    <path d="M70.0949033,10.2380765 C69.7374333,10.0075954 69.3402444,9.81901993 68.9430555,9.69330295 L67.7912077,9.29519918 C67.4734566,9.1694822 67.1755649,9.00185956 66.8975327,8.79233126 C66.6592194,8.58280296 66.5202033,8.26851052 66.5400627,7.95421807 C66.5400627,7.74468977 66.5797816,7.51420864 66.6790788,7.32563317 C66.778376,7.15801053 66.8975327,7.01134072 67.0564083,6.90657657 C67.2152838,6.80181242 67.3940188,6.7180011 67.5926133,6.67609544 C67.7912077,6.61323695 68.0096616,6.59228412 68.2082561,6.59228412 C68.5458666,6.59228412 68.9033366,6.65514261 69.2210878,6.80181242 C69.5189794,6.9275294 69.7970117,7.15801053 69.9757467,7.45135015 L71.28647,5.98465205 C70.9091406,5.60750111 70.4325139,5.31416149 69.9360278,5.14653885 C69.4395416,4.97891621 68.9033366,4.8951049 68.3869911,4.8951049 C67.9302238,4.8951049 67.4535972,4.95796338 67.0166894,5.08368036 C66.5797816,5.20939734 66.1825927,5.39797281 65.8251227,5.6703596 C65.4875121,5.94274639 65.1896205,6.27799167 64.991026,6.67609544 C64.7725721,7.11610487 64.6534155,7.59801996 64.6732749,8.10088788 C64.6534155,8.62470862 64.7725721,9.14852937 65.0307449,9.60949163 C65.2690582,9.98664257 65.5669499,10.2799822 65.9244199,10.5104633 C66.2818899,10.7409444 66.6790788,10.9295199 67.0762677,11.0552369 L68.2281155,11.4742935 C68.5458666,11.6000105 68.8636177,11.7885859 69.1217905,12.0190671 C69.3601039,12.2495482 69.49912,12.5847935 69.4792605,12.9200388 C69.4792605,13.1505199 69.4196822,13.381001 69.320385,13.5695765 C69.2210878,13.758152 69.0820716,13.9048218 68.9033366,14.0305387 C68.7246016,14.1562557 68.5260072,14.240067 68.3274127,14.3029255 C67.7316294,14.4705482 67.0961272,14.3867369 66.5599222,14.0933972 C66.2223116,13.9048218 65.9244199,13.6114822 65.705966,13.2762369 L64.3356643,14.6381708 C64.7328532,15.1410387 65.2491988,15.5181897 65.8251227,15.7486708 C66.4010466,15.9791519 67.0166894,16.0839161 67.6323322,16.0839161 C68.1089588,16.0839161 68.5855855,16.0210576 69.0423527,15.8743878 C69.4594011,15.7486708 69.85659,15.5391425 70.21406,15.2458029 C70.5516706,14.9524633 70.8297028,14.5962652 71.0282972,14.1772086 C71.2467511,13.6952935 71.3460483,13.1924256 71.3261889,12.6686048 C71.3460483,12.1238312 71.2268917,11.6000105 70.9687189,11.1390482 C70.750265,10.7828501 70.4523733,10.4685577 70.0949033,10.2380765 L70.0949033,10.2380765 Z" id="Path"></path>
                    <polygon id="Path" points="72.027972 6.5849671 75.2844171 6.5849671 75.2844171 15.3846154 77.1631354 15.3846154 77.1631354 6.5849671 80.4195804 6.5849671 80.4195804 4.8951049 72.027972 4.8951049"></polygon>
                    <path d="M89.2482517,10.5100782 C89.6689248,9.9753188 89.8892774,9.29658577 89.8692453,8.59728507 C89.8892774,8.08309338 89.7690851,7.58946935 89.5487325,7.13698067 C89.348412,6.76676265 89.0679633,6.43767997 88.7073864,6.21143562 C88.3267774,5.98519128 87.9261364,5.82064994 87.4854312,5.73837927 C87.0246941,5.63554093 86.5439248,5.59440559 86.0631556,5.59440559 L82.5174825,5.59440559 L82.5174825,16.0633484 L84.3403992,16.0633484 L84.3403992,11.6412999 L85.6625146,11.6412999 L88.0262966,16.0839161 L90.2097902,16.0839161 L87.5054633,11.4356232 C88.186553,11.3739202 88.8075466,11.0448375 89.2482517,10.5100782 Z M86.5238928,9.99588647 L85.7426428,10.0370218 L84.3403992,10.0370218 L84.3403992,7.19868367 L85.9028992,7.19868367 L86.624053,7.239819 C86.8444056,7.26038667 87.0847902,7.32208968 87.2851107,7.42492801 C87.4854312,7.50719868 87.6456876,7.65117236 87.76588,7.83628137 C87.9061043,8.06252571 87.9662005,8.30933772 87.9461684,8.5767174 C87.9662005,8.86466475 87.8860723,9.13204443 87.7458479,9.37885644 C87.6056235,9.56396545 87.4253351,9.72850679 87.2250146,9.81077746 C87.004662,9.9136158 86.7642774,9.9753188 86.5238928,9.99588647 Z" id="Shape"></path>
                    <polygon id="Path" points="97.7646033 4.8951049 95.1359423 9.07854425 92.5486775 4.8951049 90.2097902 4.8951049 94.1631307 10.8920549 94.1631307 15.3846154 96.0259614 15.3846154 96.0259614 10.8920549 100 4.8951049"></polygon>
                </g>
                <g id="Netlify_CMS_logo" transform="translate(0.000000, 208.000000)" fill-rule="nonzero">
                    <path d="M5.81328521,14.7601816 C5.81328521,14.7713071 5.80242535,14.7824326 5.78124862,14.8041273 L2.86917608,16.0746577 L2.85831621,16.0746577 C2.85831621,16.0746577 2.84745635,16.0746577 2.83659648,16.0635322 L0.493037827,13.6743342 C0.482177963,13.6632087 0.471318099,13.6409578 0.482177963,13.6309448 C0.493037827,13.6198193 0.503897691,13.6086939 0.514757555,13.6086939 L0.525074426,13.6086939 L5.78179161,14.7279177 C5.80351134,14.7279177 5.8143712,14.7390432 5.8143712,14.7601816 L5.81328521,14.7601816 Z M6.09184073,14.0108802 C6.08098086,14.0108802 6.08098086,14.0108802 6.09184073,14.0108802 L0.0320365989,12.7075295 C0.0103168708,12.7075295 0,12.696404 0,12.6852786 C0,12.6752656 0,12.6641401 0.010859864,12.6535709 L3.39370751,9.22135865 C3.39370751,9.21023316 3.40456737,9.21023316 3.41542724,9.21023316 C3.43660397,9.22135865 3.43660397,9.22135865 3.44800683,9.23192786 C3.44800683,9.24305335 6.34867651,13.544166 6.3812561,13.5875554 C6.39211597,13.5986809 6.39211597,13.6203756 6.3812561,13.6309448 C6.28460331,13.7394183 6.18795052,13.8590173 6.12442032,13.9891855 C6.11356046,13.9997547 6.10270059,14.0114364 6.09184073,14.0114364 L6.09184073,14.0108802 Z M7.35538591,5.26791738 C7.34452604,5.25679189 7.33366618,5.25679189 7.34452604,5.2350972 C7.34452604,5.22397171 7.34452604,5.21395878 7.35538591,5.20227702 L12.4519201,0.0111254855 C12.4519201,0 12.46278,0 12.4736398,0 C12.4844997,0 12.4844997,0 12.4953596,0.0111254855 L14.6895951,2.23789141 C14.7004549,2.24846062 14.7004549,2.27015531 14.6895951,2.2812808 L12.0452182,6.48448922 C12.0343583,6.49505843 12.0234985,6.50618392 12.0126386,6.50618392 L12.0023217,6.50618392 C11.5839645,6.36595054 11.1247698,6.45174891 10.781673,6.73425637 C10.7708131,6.74538185 10.7708131,6.74538185 10.7604963,6.74538185 L10.7496364,6.74538185 C10.6106301,6.67974149 7.3559289,5.26791738 7.3559289,5.26791738 L7.35538591,5.26791738 Z M7.0447938,13.217633 L4.00403187,8.66730947 C3.993172,8.65674026 3.993172,8.63504556 4.00403187,8.62392008 L6.73420168,5.84366125 C6.73420168,5.83253577 6.74506155,5.83253577 6.75592141,5.83253577 L6.76678128,5.83253577 C6.76678128,5.84366125 9.98890293,7.23379067 10.3532514,7.39677903 C10.3635682,7.40790451 10.3749711,7.41791745 10.3749711,7.44016842 C10.2778534,7.86509675 10.3990542,8.31142039 10.6964231,8.62392008 C10.706197,8.63504556 10.706197,8.65729654 10.6958801,8.66730947 L7.82670401,13.2287585 C7.81584414,13.239884 7.80498428,13.2510095 7.79412441,13.2510095 L7.78326455,13.2510095 C7.66478302,13.2169148 7.54250903,13.1985925 7.4194591,13.1964946 C7.31194645,13.1964946 7.19465992,13.217633 7.08769026,13.239884 L7.07683039,13.239884 C7.06597053,13.239884 7.05565366,13.2287585 7.0442508,13.217633 L7.0447938,13.217633 Z M8.04064333,16.0524067 L13.7149223,24.502213 C13.7257821,24.5133385 13.7257821,24.5350332 13.7149223,24.5461586 L12.4730968,25.8166891 C12.4730968,25.8278146 12.462237,25.8278146 12.4513771,25.8278146 C12.4513771,25.8278146 12.4405172,25.8278146 12.4296574,25.8166891 L5.3430531,18.6157186 C5.33219324,18.6051494 5.33219324,18.5834547 5.3430531,18.5723292 L5.35391297,18.5612037 L6.89601366,16.1069216 C6.90633053,16.0963524 6.91719039,16.0852269 6.92750726,16.0852269 L6.93836713,16.0852269 C7.09855012,16.1397418 7.24895924,16.1614365 7.40914223,16.1614365 C7.61276468,16.1614365 7.80552727,16.1174908 7.99828986,16.0312683 L8.00914972,16.0312683 C8.02000959,16.0312683 8.03086945,16.0423938 8.04118632,16.0524067 L8.04064333,16.0524067 Z M6.28460331,15.6296383 C6.29546318,15.6396512 6.29546318,15.6507767 6.29546318,15.6507767 L4.82829555,17.9854598 C4.81743568,17.9965853 4.80657582,18.0077108 4.79680194,18.0077108 C4.79680194,18.0077108 4.78594208,18.0077108 4.77508221,17.9965853 L3.47950043,16.6826655 C3.46864057,16.67154 3.46864057,16.6604145 3.46864057,16.6504016 C3.46864057,16.6392761 3.47950043,16.6281506 3.4903603,16.6281506 L6.14559705,15.4660937 L6.15645692,15.4660937 C6.16677379,15.4660937 6.17763365,15.4772191 6.18795052,15.4877884 C6.22053012,15.5423032 6.25256671,15.5856926 6.28460331,15.6296383 L6.28460331,15.6296383 Z M8.86490701,14.5754985 C8.86490701,14.4887198 8.84318728,14.4125102 8.83232741,14.3257314 C8.83232741,14.3034804 8.83232741,14.2929112 8.85404714,14.2828983 L16.4668118,10.948034 L16.4776717,10.948034 C16.4776717,10.948034 16.4879886,10.948034 16.4988484,10.9591595 C16.5520618,11.0131181 16.5949582,11.0459383 16.6378547,11.0782022 C16.6595744,11.0782022 16.6595744,11.1004531 16.6595744,11.1115786 L15.9954937,15.2919798 C15.9954937,15.3142308 15.9846339,15.3253563 15.9629141,15.3253563 C15.5991087,15.3464947 15.2776567,15.5645542 15.096297,15.8899747 C15.0854371,15.9005439 15.0745773,15.9122256 15.0637174,15.9122256 L15.0528575,15.9122256 L8.89694361,14.6083187 C8.87522388,14.6083187 8.86436401,14.5971932 8.86436401,14.5754985 L8.86490701,14.5754985 Z M15.6208284,17.4542179 C15.6425481,17.4642309 15.6425481,17.4864818 15.6208284,17.4864818 L14.6564725,23.5676722 C14.6564725,23.5787977 14.6456126,23.5787977 14.6456126,23.5899232 L14.3029839,23.9370383 C14.3029839,23.9481638 14.2921241,23.9481638 14.2818072,23.9481638 C14.2709473,23.9481638 14.2709473,23.9481638 14.2600875,23.9370383 L8.60752823,15.5528724 C8.59666837,15.541747 8.59666837,15.519496 8.60752823,15.5094831 C8.64010782,15.4655374 8.66074156,15.422148 8.69332116,15.3681894 C8.70363803,15.3570639 8.71449789,15.3459384 8.72481476,15.3459384 L8.73567462,15.3459384 L14.9453449,16.6604145 C14.9670646,16.67154 14.9779245,16.6826655 14.9779245,16.6926784 C15.0627373,17.0360222 15.3008828,17.3181451 15.6202854,17.4536616 L15.6208284,17.4542179 Z M20.2992578,17.8018893 C20.3101177,17.8018893 20.3209776,17.8119023 20.3209776,17.8447225 C20.3209776,17.8558479 20.3209776,17.8669734 20.3101177,17.8769864 L15.6637249,22.6019801 C15.6637249,22.6131055 15.652865,22.6131055 15.6420052,22.6131055 L15.6202854,22.6131055 C15.6094256,22.6019801 15.5991087,22.5908546 15.5991087,22.5691599 L16.4027386,17.5081765 C16.4027386,17.497051 16.4130555,17.4753563 16.4233724,17.4753563 C16.6132377,17.3982364 16.7796559,17.270754 16.9055503,17.1059902 C16.9158672,17.1059902 16.9272701,17.095421 16.9381299,17.095421 L16.9484468,17.095421 L20.2992578,17.8018893 L20.2992578,17.8018893 Z M16.1453599,9.91670149 C16.1562197,9.9272707 16.1670796,9.93783992 16.1670796,9.95953461 C16.1562197,10.0140495 16.1453599,10.0791336 16.1453599,10.1442177 L16.1453599,10.2421219 C16.1453599,10.2532474 16.1345,10.2638166 16.1236401,10.2743859 L8.5543149,13.5869992 L8.54345503,13.5869992 C8.53259517,13.5869992 8.5217353,13.5869992 8.51141843,13.5769862 C8.50055857,13.5658607 8.50055857,13.5436098 8.51141843,13.5324843 L11.3491009,9.02555011 C11.3594178,9.01442462 11.3702776,9.00385541 11.3805945,9.00385541 L11.3914544,9.00385541 C11.4663874,9.01498089 11.5310036,9.02555011 11.5950768,9.02555011 C12.0234985,9.02555011 12.4193405,8.80860314 12.6549996,8.43923702 C12.6658594,8.42811153 12.6767193,8.41754232 12.6870362,8.41754232 L12.697896,8.41754232 L16.1448169,9.91670149 L16.1453599,9.91670149 Z M24.4965953,13.5436098 C24.5069122,13.5547352 24.5069122,13.5658607 24.5069122,13.5769862 C24.5069122,13.5869992 24.5069122,13.5981246 24.4960523,13.6092501 L21.005692,17.1605051 C21.005692,17.1716306 20.9953751,17.1716306 20.9839723,17.1716306 L20.9741984,17.1716306 L17.1623861,16.3566888 C17.1406664,16.3566888 17.1298065,16.3455633 17.1298065,16.3244249 C17.1026852,16.024249 16.9554585,15.7489734 16.7231046,15.5639979 C16.7122448,15.5528724 16.7122448,15.541747 16.7122448,15.5311777 L17.3871853,11.2845799 C17.3871853,11.2634415 17.408905,11.2517598 17.4192219,11.2517598 C17.7095277,11.2148658 17.9725428,11.0581398 18.1473758,10.8178658 C18.1582356,10.8067403 18.1690955,10.8067403 18.1799554,10.8067403 L18.1902722,10.8067403 L24.4965953,13.5436098 L24.4965953,13.5436098 Z M25.1492731,12.8922126 C25.1709928,12.9033381 25.1709928,12.935602 25.1492731,12.935602 L25.1275534,12.9572967 C25.1275534,12.9684222 25.1166935,12.9684222 25.1063767,12.9684222 L25.0955168,12.9684222 L18.5225841,10.1113975 C18.5117242,10.1113975 18.5008644,10.0902591 18.5008644,10.0791336 C18.5008644,10.0685644 18.5117242,10.0568826 18.5225841,10.0468697 L21.1886807,8.88425644 L21.1995406,8.88425644 C21.1995406,8.88425644 21.2104004,8.88425644 21.2207173,8.89538193 L25.1498161,12.8922126 L25.1492731,12.8922126 Z M12.6441397,7.01628743 C12.6332798,7.00516194 12.6332798,6.98402352 12.6441397,6.96177255 L15.2244434,2.8564684 C15.2244434,2.84589919 15.2353032,2.83532998 15.2461631,2.83532998 C15.257023,2.83532998 15.257023,2.83532998 15.2673398,2.84645546 L17.5587712,5.18113859 C17.569631,5.19226408 17.569631,5.20227702 17.569631,5.21395878 L16.9696235,9.02555011 C16.9696235,9.04780108 16.9587637,9.05837029 16.9479038,9.05837029 C16.8122081,9.09891104 16.6851275,9.16513755 16.5732385,9.25362256 C16.5732385,9.26474804 16.5629216,9.26474804 16.5520618,9.26474804 L16.5412019,9.26474804 L12.8797987,7.66824088 C12.8689389,7.65711539 12.858079,7.64654618 12.858079,7.63486442 C12.8356276,7.41421596 12.7622989,7.20219561 12.6441397,7.01628743 L12.6441397,7.01628743 Z M17.7509907,9.13402359 C17.7401309,9.13402359 17.729271,9.11232889 17.7189541,9.10175968 L18.2223088,5.94156553 C18.2223088,5.91931456 18.2331687,5.90818907 18.2440286,5.90818907 L18.2548884,5.90818907 C18.2548884,5.90818907 18.2646623,5.90818907 18.2760652,5.91931456 L20.5778134,8.25455396 C20.5886732,8.26567945 20.5886732,8.27680493 20.5886732,8.28737414 C20.5886732,8.29794335 20.5778134,8.30851257 20.5669535,8.31963805 L18.1044793,9.39491622 L18.0936195,9.39491622 C18.0827596,9.39491622 18.0827596,9.39491622 18.0718997,9.38379074 C17.9814069,9.28038667 17.8724907,9.19561597 17.7509907,9.13402359 L17.7509907,9.13402359 Z" id="Shape" fill="#C9FA4B"></path>
                    <path d="M56.5307251,8.17240856 L58.2623129,8.17240856 L58.2623129,6.62251656 L56.5307251,6.62251656 L56.5307251,8.17240856 Z M61.6612539,7.34340939 C61.1852594,7.817202 60.9469876,8.49562448 60.9469876,9.37867683 L60.9469876,10.1006728 L59.7666092,10.1006728 L59.7666092,11.4139443 L60.9469876,11.4139443 L60.9469876,18.005122 L62.6791244,18.005122 L62.6791244,11.4139443 L64.2487533,11.4139443 L64.2487533,10.1006728 L62.6791244,10.1006728 L62.6791244,9.40018778 C62.6791244,8.52816669 63.0903353,8.09684443 63.9237375,8.09684443 C64.1729895,8.09684443 64.3997319,8.11890695 64.5842004,8.15144917 L64.6281215,6.76151043 C64.3095952,6.67852457 63.9821252,6.6351778 63.6530739,6.63244469 C62.8086916,6.62196499 62.1377974,6.86961678 61.6612539,7.34396095 L61.6612539,7.34340939 Z M68.091297,15.4629682 L66.4568846,10.1006728 L64.5842004,10.1006728 L67.301816,17.9615485 L67.0525639,18.639971 C66.9224478,19.0277198 66.7489596,19.2968825 66.5222171,19.4584905 C66.3059059,19.6200985 65.9699098,19.7061423 65.5367384,19.7061423 L65.2122715,19.6846313 L65.2122715,21.0629872 C65.4829234,21.1439473 65.7633179,21.1873709 66.0456737,21.192053 C67.1711508,21.192053 67.9727101,20.5246618 68.4492536,19.1998075 L71.5231788,10.1006728 L69.6719061,10.1006728 L68.091297,15.4629682 L68.091297,15.4629682 Z M56.5307251,18.0045705 L58.2623129,18.0045705 L58.2623129,10.1006728 L56.5307251,10.1006728 L56.5307251,18.0045705 Z M49.0828114,16.4756378 C48.9636755,16.3460205 48.9093232,16.1198797 48.9093232,15.8187263 L48.9093232,11.4034646 L50.2730721,11.4034646 L50.2730721,10.08909 L48.9093232,10.08909 L48.9093232,8.17240856 L47.1777354,8.17240856 L47.1777354,10.08909 L45.9106129,10.08909 L45.9106129,11.4034646 L47.1777354,11.4034646 L47.1777354,15.8832592 C47.1777354,17.3906808 47.8486296,18.1446675 49.1799867,18.1446675 C49.5483746,18.1446675 49.9266447,18.0906143 50.3274244,17.9720282 L50.3274244,16.5936723 C50.1215444,16.6477255 49.9156645,16.6692364 49.7213138,16.6692364 C49.4078272,16.6802677 49.2013982,16.6151833 49.0828114,16.4756378 L49.0828114,16.4756378 Z M43.4537786,13.3096663 L40.1514639,13.3096663 C40.2277767,12.6952251 40.4226764,12.221984 40.7147515,11.8877369 C41.0068265,11.5435616 41.397175,11.3819536 41.8731694,11.3819536 C42.3491639,11.3819536 42.7285321,11.5325303 42.9986466,11.8342353 C43.2693101,12.1353887 43.4213868,12.5876703 43.4642098,13.180049 L43.4642098,13.3091147 L43.4532296,13.3091147 L43.4537786,13.3096663 Z M41.8731694,9.94954452 C41.2367888,9.9429362 40.6122447,10.1225072 40.0757001,10.466359 C39.534373,10.8110859 39.1237111,11.2959098 38.8201068,11.9202791 C38.5280317,12.5446484 38.3765041,13.2445818 38.3765041,14.0305591 L38.3765041,14.2456687 C38.3765041,15.4199463 38.7229314,16.3680831 39.4048059,17.0784962 C40.0872293,17.7889093 40.9749838,18.1446675 42.0785004,18.1446675 C42.7170028,18.1446675 43.3017019,18.0156017 43.8216174,17.7569187 C44.3258054,17.5122254 44.7527688,17.1321489 45.0552502,16.6587568 L44.1246728,15.7431622 C43.6267177,16.3995221 42.9772351,16.7337693 42.186656,16.7337693 C41.6239174,16.7337693 41.1479229,16.5401707 40.7800841,16.1634532 C40.4012649,15.7867357 40.195385,15.2699211 40.1410326,14.6124581 L45.1853664,14.6124581 L45.1853664,13.9020449 C45.1853664,12.6417235 44.8932913,11.6726273 44.3305527,10.9831736 C43.7348734,10.2937198 42.9228828,9.94954452 41.8731694,9.94954452 L41.8731694,9.94954452 Z M34.392864,9.94954452 C33.4622865,9.94954452 32.7150795,10.3053027 32.1413606,11.0046845 L32.0864593,10.08909 L30.4635762,10.08909 L30.4635762,17.9940908 L32.1951639,17.9940908 L32.1951639,12.3725607 C32.5421403,11.7261289 33.0615068,11.4034646 33.7543616,11.4034646 C34.230356,11.4034646 34.5767834,11.521499 34.7930946,11.7691508 C35.0099548,12.0063229 35.1071302,12.3830404 35.1071302,12.8788956 L35.1071302,17.9940908 L36.839267,17.9940908 L36.839267,12.7707892 C36.8173065,10.8971297 36.0058649,9.94954452 34.392864,9.94954452 Z M52.1133645,18.0045705 L53.8460503,18.0045705 L53.8460503,6.78357295 L52.1133645,6.78357295 L52.1133645,18.0045705 L52.1133645,18.0045705 Z" id="Shape" fill="#1E1F21"></path>
                    <path d="M76.4325753,16.5064475 C76.8764718,16.5064475 77.2446351,16.3817583 77.5370651,16.1313096 C77.8300479,15.8808609 77.9859368,15.5715461 78.0052847,15.2033651 L79.6808146,15.2033651 C79.66083,15.6817103 79.5009522,16.1447297 79.2197813,16.5385563 C78.9323265,16.9516896 78.5420513,17.2786643 78.0495086,17.5194803 C77.5548853,17.7608021 77.0080088,17.8846256 76.4541344,17.8807044 C75.3468806,17.8807044 74.4695906,17.5339293 73.8206061,16.8393088 C73.1716216,16.1452234 72.8476821,15.1867755 72.8476821,13.9639652 L72.8476821,13.7868316 C72.8476821,12.6202116 73.1694104,11.6869157 73.8128669,10.9853382 C74.4568763,10.284296 75.334719,9.93377483 76.446948,9.93377483 C77.3883625,9.93377483 78.1550929,10.1992076 78.7482449,10.7306084 C79.340844,11.261474 79.6515163,11.9593054 79.6808146,12.8230323 L78.0058375,12.8230323 C77.9859368,12.3842119 77.8311535,12.0229878 77.5409347,11.7398952 C77.2507159,11.4562674 76.8808942,11.3149887 76.4325753,11.3149887 C75.8565601,11.3149887 75.4126635,11.516739 75.1003328,11.9202396 C74.7885549,12.3242755 74.6304547,12.9370185 74.6249268,13.7584688 L74.6249268,14.0346045 C74.6249268,14.8656875 74.7797101,15.4853874 75.0892768,15.8942396 C75.3993963,16.3025566 75.8466097,16.5064475 76.4325753,16.5064475 L76.4325753,16.5064475 Z M82.5713938,10.0755887 L82.622804,10.8756332 C83.1783657,10.247906 83.9395682,9.93377483 84.9058586,9.93377483 C85.9639134,9.93377483 86.6880784,10.3255023 87.0783535,11.1094923 C87.653816,10.3255023 88.4636646,9.93377483 89.5073467,9.93377483 C90.3807671,9.93377483 91.0303044,10.167634 91.4570642,10.6348171 C91.8843768,11.1025354 92.1021791,11.7918044 92.1121295,12.7031594 L92.1121295,17.7388905 L90.3343321,17.7388905 L90.3343321,12.752928 C90.3343321,12.2659445 90.2243253,11.9100719 90.0048646,11.6831696 C89.7854039,11.4562674 89.4222158,11.3433514 88.9147475,11.3433514 C88.5100996,11.3433514 88.1795266,11.4482402 87.9235812,11.6585529 C87.6670831,11.8683304 87.4879766,12.1433959 87.3857091,12.4837492 L87.3928954,17.7388905 L85.615098,17.7388905 L85.615098,12.6962025 C85.5907749,11.793945 85.1148161,11.3433514 84.1883271,11.3433514 C83.4763237,11.3433514 82.9710666,11.6243035 82.6736614,12.1862076 L82.6736614,17.7388905 L80.895864,17.7388905 L80.895864,10.0755887 L82.570841,10.0755887 L82.5713938,10.0755887 Z M98.250948,15.6571696 C98.250948,15.3499953 98.1204878,15.1161362 97.8595673,14.9555921 C97.5986468,14.7950481 97.1658061,14.6532342 96.5610455,14.5306856 C95.9562848,14.4076018 95.4515804,14.2524093 95.0463797,14.0629673 C94.1585866,13.6476934 93.71469,13.0456533 93.71469,12.256847 C93.71469,11.5959407 94.0021449,11.0431341 94.5781601,10.5994974 C95.1536225,10.1553256 95.8855267,9.93377483 96.772767,9.93377483 C97.7197094,9.93377483 98.4842287,10.1601419 99.0668775,10.6134112 C99.6500791,11.0666805 99.9414034,11.6548069 99.9414034,12.377255 L98.163606,12.377255 C98.163606,12.0465343 98.0364625,11.7714688 97.7827284,11.5520587 C97.5289942,11.3326485 97.1928932,11.2229434 96.7733198,11.2229434 C96.3830446,11.2229434 96.0646331,11.3101723 95.8186381,11.4851653 C95.5720903,11.6596232 95.4488165,11.8934823 95.4488165,12.1862076 C95.4488165,12.4505701 95.5637984,12.6560665 95.7926566,12.8021615 C96.0220677,12.9487917 96.4853122,13.0964923 97.1829429,13.2447279 C97.8805736,13.3934987 98.4278433,13.5711674 98.8253049,13.7761287 C99.2233192,13.981625 99.5179604,14.2283277 99.7108868,14.5162366 C99.9032604,14.8041456 100,15.1535964 100,15.5651243 C100,16.2538582 99.704806,16.8120163 99.1144181,17.2401337 C98.5240301,17.6671808 97.7512189,17.8807044 96.7948789,17.8807044 C96.1464472,17.8807044 95.5682208,17.7672533 95.0613053,17.5408862 C94.553837,17.313984 94.1585866,17.0025285 93.876107,16.6059848 C93.5930746,16.2089059 93.4515583,15.7818588 93.4515583,15.3237731 L95.1779456,15.3237731 C95.2028215,15.7299495 95.3609216,16.0424752 95.6533516,16.2624206 C95.9463344,16.4818307 96.3343984,16.5915358 96.8169908,16.5915358 C97.2852105,16.5915358 97.6412122,16.5059123 97.8855488,16.3330599 C98.1287798,16.1607427 98.250948,15.9354459 98.250948,15.6566344 L98.250948,15.6571696 Z" id="Shape" fill="#C9FA4B"></path>
                </g>
                <g id="blue-lines" transform="translate(113.000000, 10.000000)" fill="#3EB0FD" fill-rule="nonzero">
                    <polygon id="Path" points="86.02 33.34 63.02 33.34 63.02 1 -5.92919464e-14 1 -5.92919464e-14 0 64.02 0 64.02 32.34 86.44 32.34 94.68 40.59 93.98 41.29"></polygon>
                    <polygon id="Path" points="54.06 172.42 54.06 137 -1.42399217e-13 137 -1.42399217e-13 136 55.06 136 55.06 171.42 86.02 171.42 93.98 163.47 94.68 164.17 86.44 172.42"></polygon>
                    <polygon id="Path" points="131.31 182 132.31 182 132.31 262.88 1 262.88 1 261.88 131.31 261.88"></polygon>
                    <polygon id="Path" points="53.31 102.88 53.31 69 1.7769692e-13 69 1.7769692e-13 68 54.31 68 54.31 101.88 68.98 101.88 68.98 102.88"></polygon>
                    <polygon id="Path" transform="translate(56.500000, 193.440000) scale(1, -1) rotate(-360.000000) translate(-56.500000, -193.440000) " points="92.0440827 210.88 92.0440827 177 4.33408517e-13 177 4.33408517e-13 176 93.0274669 176 93.0274669 209.88 113 209.88 113 210.88"></polygon>
                </g>
                <g id="Mask" transform="translate(181.000000, 24.000000)">
                    <mask id="mask-4" fill="white">
                        <use xlink:href="#path-3"></use>
                    </mask>
                    <use fill="url(#linearGradient-2)" xlink:href="#path-3"></use>
                    <mask id="mask-6" fill="white">
                        <use xlink:href="#path-5"></use>
                    </mask>
                    <g></g>
                </g>
                <g id="gen-bg3" transform="translate(200.000000, 43.000000)">
                    <mask id="mask-9" fill="white">
                        <use xlink:href="#path-8"></use>
                    </mask>
                    <use id="Mask" fill="url(#linearGradient-7)" xlink:href="#path-8"></use>
                    <g id="Group-14" style="mix-blend-mode: overlay;" mask="url(#mask-9)">
                        <path d="M133.390759,69.3818718 C133.270117,68.6201144 133.129367,67.858357 132.96851,67.1067563 C129.952439,52.8060302 120.21053,41.2476308 108.648926,32.9800235 C104.426427,29.9329938 95.0363929,22.295106 89.0344121,22.8943552 C81.7355208,23.6256423 78.9808428,34.5949493 70.6967018,31.5479196 C63.2369534,28.8055928 62.80465,19.0246275 56.2999907,15.2970944 C43.2303507,7.75061752 20.60982,20.3754773 12.0642861,30.3697348 C0.804288611,43.5735302 -2.25199643,62.6885632 1.5583063,79.3151887 C4.15212716,90.6704527 9.45035814,106.921278 19.9060701,113.502862 C29.547443,119.596921 37.2886913,109.622978 46.1559393,107.408803 C61.8596145,103.437507 67.6102561,122.572854 81.1021459,126.462895 C113.997424,135.929001 138.196366,99.8013851 133.390759,69.3818718 Z" id="Path" stroke="#0F54DE" stroke-width="0.87"></path>
                        <path d="M47.0302553,3.47249237 C44.6633527,0.870446384 41.4819289,-0.641414325 38.1759313,0.263645147 C31.7747533,1.94006212 29.4461811,11.1860674 32.0430662,17.6757552 C38.2813399,33.246892 51.2082697,30.6962699 50.9974525,13.4487161 C50.873933,9.71024724 49.4599559,6.15454994 47.0302553,3.47249237 L47.0302553,3.47249237 Z" id="Path" fill="url(#linearGradient-10)"></path>
                        <path d="M44.6168927,3.70514732 C43.2976251,2.3533402 41.266097,1.74082051 39.2999541,2.10205382 C35.4617551,2.93760558 34.0700002,7.55257171 35.6248514,10.8462002 C39.3651926,18.6187747 47.1394484,17.3460156 46.9980983,8.73788933 C46.9396965,6.85265802 46.0896518,5.05606581 44.6168927,3.70514732 L44.6168927,3.70514732 Z" id="Path" fill="url(#linearGradient-11)" fill-rule="nonzero" opacity="0.44" style="mix-blend-mode: overlay;"></path>
                        <path d="M22.961989,114.354572 C23.5524185,114.774622 24.142848,115.184427 24.7434573,115.583987 C36.2059332,123.10391 50.4067804,124.220629 63.6100054,121.956456 C68.4250597,121.126601 79.7755576,119.907431 83.3995731,115.471291 C87.7972548,110.072109 82.3815912,100.912966 89.9350168,97.3579074 C96.7351357,94.161428 103.504715,100.431445 110.294654,98.5156067 C124.04759,94.7249099 130.817169,71.1201387 129.921345,58.6723101 C128.750666,42.2801079 118.102575,27.5066356 104.543057,18.9929355 C95.2896015,13.1737038 80.9869561,5.90990913 69.6364581,8.56339687 C59.1716044,11.0119821 60.5764194,22.9065738 56.1380184,30.3138002 C48.2690185,43.5300133 31.7573524,34.6577338 20.152359,41.1326537 C-8.11699773,56.961374 -0.390515279,97.3271721 22.961989,114.354572 Z" id="Path" fill="url(#linearGradient-12)"></path>
                        <path d="M28.8348232,108.250363 C29.353759,108.628258 29.8523444,108.995939 30.4323315,109.353407 C40.7296458,116.094233 53.4791861,117.095144 65.3333078,115.062683 C69.6679481,114.317106 79.8635103,113.224275 83.119578,109.251274 C87.0675602,104.410135 82.1936338,96.2087967 88.9906752,93.0222244 C95.0958023,90.1624801 101.200929,95.7389815 107.306056,94.0435617 C119.648588,90.652722 125.733365,69.5314674 124.929523,58.3580377 C123.912002,43.7222748 114.316777,30.434677 102.137049,22.8052876 C93.834076,17.6066809 80.9522579,11.1007626 70.7770461,13.5213319 C61.3751505,15.7069936 62.6368767,26.3186878 58.6481937,32.9982335 C51.5255455,44.8457457 36.751138,36.8895285 26.3215459,42.7009375 C0.903866891,56.8362452 7.85353653,92.9915843 28.8348232,108.250363 Z" id="Path" fill="#FFFFFF" fill-rule="nonzero" opacity="0.0562686012" style="mix-blend-mode: overlay;"></path>
                        <path d="M139.795969,84.3780303 C138.737654,83.9714302 137.581771,83.8906825 136.477136,84.1461831 C133.299531,84.7207608 131.019725,87.5734888 129.738595,90.5371002 C123.111018,105.828932 117.633431,105.072909 102.370837,108.853025 C96.6107971,110.284429 99.5563869,116.917274 97.8314011,120.717551 C94.8051101,127.370556 89.1156832,126.987505 82.3569668,128.12658 C71.7649486,129.910795 60.7189867,129.033808 50.2278448,131.150673 C46.0717386,131.977258 41.9458953,134.789665 41.148972,138.952834 C39.928368,145.242948 46.4348935,150.212541 52.386599,152.571334 C73.8253695,160.76941 97.9703566,157.445943 116.392652,143.761142 C132.32103,131.664769 136.315734,116.493901 141.944635,98.6618308 C143.084538,95.0530795 144.295054,86.3033696 139.795969,84.3780303 Z" id="Path" fill="url(#linearGradient-13)"></path>
                        <path d="M138.291521,89.3226678 C137.383723,88.9768578 136.393206,88.9071777 135.445572,89.1224632 C132.740411,89.6129644 130.799534,92.0354398 129.703391,94.5480071 C124.051718,107.561304 119.345342,106.900629 106.362583,110.123923 C101.445024,111.33516 103.959113,116.940889 102.480828,120.204223 C99.9365698,125.849992 95.0491795,125.529665 89.2768297,126.500657 C80.2261071,128.012201 70.8234118,127.271444 61.8732527,129.033245 C58.3233582,129.733961 54.8338017,132.126405 54.1198003,135.660016 C53.1141644,141.005478 58.6250489,145.239805 63.70351,147.23184 C81.9885826,154.203494 102.585448,151.38248 118.29948,139.7542 C131.885621,129.473695 135.294726,116.58052 140.101666,101.435044 C141.067076,98.3919349 142.102881,90.9343146 138.291521,89.3226678 Z" id="Path" fill="#FFFFFF" fill-rule="nonzero" opacity="0.0562686012" style="mix-blend-mode: overlay;"></path>
                        <path d="M118.010758,17.9447409 C117.941744,19.3154515 118.205546,20.6826169 118.780294,21.9328865 C121.595176,28.6728525 127.822342,34.3360192 131.062494,41.1756888 C133.01671,45.2934491 133.735619,62.4823565 140.955082,60.8970687 C151.252689,58.6138553 142.980176,38.7728311 140.631066,33.5683012 C139.385633,30.7267474 119.428324,1.6132848 118.010758,17.9447409 Z" id="Path" fill="url(#linearGradient-14)"></path>
                        <path d="M120.000917,21.3735629 C120.039755,22.2295041 120.279929,23.0643375 120.70204,23.8106312 C122.805408,27.875741 126.891952,31.0019802 129.255738,35.0970539 C130.678015,37.5540982 132.160389,48.3810737 136.397174,46.852912 C142.456877,44.6455674 136.266965,32.6999376 134.554222,29.5736984 C133.642763,27.8957169 119.870709,10.9361188 120.000917,21.3735629 Z" id="Path" fill="#FFFFFF" fill-rule="nonzero" opacity="0.148623512" style="mix-blend-mode: soft-light;"></path>
                    </g>
                </g>
                <g id="Group-16" transform="translate(213.227057, 123.439915) scale(-1, 1) translate(-213.227057, -123.439915) translate(177.727057, 48.439915)" fill="#3EB0FD" fill-rule="nonzero">
                    <path d="M43.9529433,123.250085 C44.782695,124.079343 45.0311227,125.32682 44.5823589,126.410688 C44.133595,127.494555 43.0760407,128.201304 41.9029433,128.201304 C40.7298459,128.201304 39.6722916,127.494555 39.2235277,126.410688 C38.7747639,125.32682 39.0231916,124.079343 39.8529433,123.250085 C40.3954401,122.704141 41.1332957,122.397142 41.9029433,122.397142 C42.6725909,122.397142 43.4104465,122.704141 43.9529433,123.250085 Z" id="Path"></path>
                    <circle id="Oval" cx="67.2529433" cy="64.100085" r="2.9"></circle>
                    <path d="M39.8529433,0.850084958 C40.6822018,0.0203332776 41.9296788,-0.228094457 43.0135462,0.220669394 C44.0974136,0.669433245 44.8041624,1.72698755 44.8041624,2.90008496 C44.8041624,4.07318237 44.0974136,5.13073667 43.0135462,5.57950052 C41.9296788,6.02826437 40.6822018,5.77983664 39.8529433,4.95008496 C39.3069995,4.40758812 39,3.66973259 39,2.90008496 C39,2.13043733 39.3069995,1.3925818 39.8529433,0.850084958 L39.8529433,0.850084958 Z" id="Path"></path>
                    <path d="M21.7758376,135.41017 C22.6050961,134.580418 23.852573,134.331991 24.9364404,134.780754 C26.0203078,135.229518 26.7270567,136.287073 26.7270567,137.46017 C26.7270567,138.633267 26.0203078,139.690822 24.9364404,140.139585 C23.852573,140.588349 22.6050961,140.339922 21.7758376,139.51017 C21.2298937,138.967673 20.9228943,138.229818 20.9228943,137.46017 C20.9228943,136.690522 21.2298937,135.952667 21.7758376,135.41017 L21.7758376,135.41017 Z" id="Path"></path>
                    <path d="M1.77583755,144.41017 C2.60509607,143.580418 3.85257302,143.331991 4.93644042,143.780754 C6.02030782,144.229518 6.7270567,145.287073 6.7270567,146.46017 C6.7270567,147.633267 6.02030782,148.690822 4.93644042,149.139585 C3.85257302,149.588349 2.60509607,149.339922 1.77583755,148.51017 C1.22989373,147.967673 0.922894251,147.229818 0.922894251,146.46017 C0.922894251,145.690522 1.22989373,144.952667 1.77583755,144.41017 L1.77583755,144.41017 Z" id="Path"></path>
                </g>
                <path d="M226.38,122.48 C221.85,122.48 218.22,119.69 218.22,114.47 L218.22,100.73 L222.36,100.73 L222.36,114.17 C222.36,116.96 223.92,118.43 226.38,118.43 C228.9,118.43 230.43,116.96 230.43,114.17 L230.43,100.73 L234.57,100.73 L234.57,114.47 C234.57,119.69 230.94,122.48 226.38,122.48 Z M241.76,113.51 L241.76,122 L237.77,122 L237.77,107.24 L241.64,107.24 L241.64,109.07 C242.54,107.54 244.31,106.85 245.9,106.85 C249.56,106.85 251.24,109.46 251.24,112.7 L251.24,122 L247.25,122 L247.25,113.39 C247.25,111.74 246.44,110.45 244.52,110.45 C242.78,110.45 241.76,111.8 241.76,113.51 Z M258.28,122 L254.29,122 L254.29,107.24 L258.28,107.24 L258.28,122 Z M253.81,102.41 C253.81,101.03 254.92,99.92 256.27,99.92 C257.65,99.92 258.73,101.03 258.73,102.41 C258.73,103.73 257.65,104.84 256.27,104.84 C254.92,104.84 253.81,103.73 253.81,102.41 Z M268.38,103.58 C267.48,103.58 266.31,103.97 266.31,105.62 L266.31,107.24 L269.64,107.24 L269.64,110.66 L266.31,110.66 L266.31,122 L262.29,122 L262.29,110.66 L259.83,110.66 L259.83,107.24 L262.29,107.24 L262.29,105.56 C262.29,102.23 264.39,100.07 267.66,100.07 C268.5,100.07 269.31,100.22 269.64,100.37 L269.64,103.73 C269.43,103.67 269.04,103.58 268.38,103.58 Z M277.52,118.82 C279.47,118.82 281.27,117.41 281.27,114.62 C281.27,111.83 279.47,110.42 277.52,110.42 C275.57,110.42 273.77,111.83 273.77,114.62 C273.77,117.38 275.57,118.82 277.52,118.82 Z M277.52,106.79 C281.93,106.79 285.26,110.06 285.26,114.62 C285.26,119.15 281.93,122.45 277.52,122.45 C273.11,122.45 269.78,119.15 269.78,114.62 C269.78,110.06 273.11,106.79 277.52,106.79 Z M296.41,107.18 L296.41,111.2 C295.96,111.11 295.57,111.08 295.21,111.08 C293.17,111.08 291.4,112.07 291.4,115.25 L291.4,122 L287.41,122 L287.41,107.24 L291.28,107.24 L291.28,109.43 C292.18,107.48 294.22,107.12 295.48,107.12 C295.81,107.12 296.11,107.15 296.41,107.18 Z M302.22,122 L298.23,122 L298.23,107.24 L302.04,107.24 L302.04,109.04 C302.85,107.6 304.74,106.82 306.36,106.82 C308.37,106.82 309.99,107.69 310.74,109.28 C311.91,107.48 313.47,106.82 315.42,106.82 C318.15,106.82 320.76,108.47 320.76,112.43 L320.76,122 L316.89,122 L316.89,113.24 C316.89,111.65 316.11,110.45 314.28,110.45 C312.57,110.45 311.55,111.77 311.55,113.36 L311.55,122 L307.59,122 L307.59,113.24 C307.59,111.65 306.78,110.45 304.98,110.45 C303.24,110.45 302.22,111.74 302.22,113.36 L302.22,122 Z" id="Uniform" fill="#FFFFFF" fill-rule="nonzero"></path>
            </g>
            <path d="M84.76,411.8 C84.76,414.44 82.6,416.6 79.9,416.6 C77.26,416.6 75.1,414.44 75.1,411.8 C75.1,409.1 77.26,406.94 79.9,406.94 C82.6,406.94 84.76,409.1 84.76,411.8 Z M66.46,411.8 C66.46,414.44 64.3,416.6 61.6,416.6 C58.96,416.6 56.74,414.44 56.74,411.8 C56.74,409.1 58.96,406.94 61.6,406.94 C64.3,406.94 66.46,409.1 66.46,411.8 Z M48.16,411.8 C48.16,414.44 46.06,416.6 43.36,416.6 C40.66,416.6 38.5,414.44 38.5,411.8 C38.5,409.1 40.66,406.94 43.36,406.94 C46.06,406.94 48.16,409.1 48.16,411.8 Z" id="" fill="#FFFFFF" fill-rule="nonzero"></path>
        </g>
    </g>
</svg>