<?xml version="1.0" encoding="UTF-8" standalone="no"?><!DOCTYPE svg PUBLIC "-//W3C//DTD SVG 1.1//EN" "http://www.w3.org/Graphics/SVG/1.1/DTD/svg11.dtd"><svg width="100%" height="100%" viewBox="0 0 250 38" version="1.1" xmlns="http://www.w3.org/2000/svg" xmlns:xlink="http://www.w3.org/1999/xlink" xml:space="preserve" xmlns:serif="http://www.serif.com/" style="fill-rule:evenodd;clip-rule:evenodd;stroke-linejoin:round;stroke-miterlimit:2;"><g id="Stackbit_logo"><g id="text"><path id="Path" d="M67.244,21.521c-0.974,-0.284 -2.85,-0.745 -4.582,-1.953c-2.417,-1.669 -3.751,-4.084 -3.896,-7.067c-0.144,-2.522 0.65,-4.688 2.201,-6.393c2.236,-2.415 5.483,-3.089 7.034,-3.089c4.402,0 6.855,1.669 9.055,3.125l0.974,0.675l-3.138,5.327l-1.082,-0.71c-1.949,-1.315 -3.175,-2.131 -5.809,-2.131c-0.396,0 -1.912,0.319 -2.669,1.172c-0.253,0.284 -0.577,0.745 -0.505,1.775c0.036,1.598 1.118,2.522 3.896,3.232c0.361,0.107 0.613,0.178 0.866,0.284c2.886,1.03 5.122,2.415 6.674,4.155c1.551,1.776 2.381,3.907 2.381,6.144c0,2.202 -0.902,4.475 -2.417,6.215c-1.768,2.06 -4.221,3.232 -6.927,3.232c-1.335,0 -3.138,-0.107 -5.303,-0.746c-2.706,-0.888 -5.123,-2.45 -7.215,-4.759l4.401,-4.297c3.175,3.552 6.782,3.552 8.117,3.552c2.489,0 3.319,-2.38 3.319,-3.161c0,-1.705 -1.84,-3.267 -5.014,-4.368l-0.145,-0.036l-0.216,-0.178Z" style="fill:#031e34;fill-rule:nonzero;"/><path id="Path1" serif:id="Path" d="M104.654,3.409l0,6.251l-8.37,0l0,25.144l-6.024,0l0,-25.109l-8.406,0l0,-6.286l22.8,0Z" style="fill:#031e34;fill-rule:nonzero;"/><path id="Shape" d="M125.469,28.979l-12.518,0l-2.814,5.825l-6.782,0l15.404,-31.359l1.768,0l14.285,31.359l-6.673,0l-2.67,-5.825Zm-2.85,-6.25l-3.138,-6.996l-3.392,6.996l6.53,0Z" style="fill:#031e34;fill-rule:nonzero;"/><path id="Path2" serif:id="Path" d="M157.215,11.045c-5.844,-3.942 -14.683,-0.284 -14.683,8.133c0,8.807 9.344,12.358 15.044,7.884l3.896,4.617c-2.706,2.343 -6.205,3.764 -9.993,3.764c-8.622,0 -15.656,-7.28 -15.656,-16.23c0,-8.949 7.034,-16.23 15.656,-16.23c3.608,0 6.999,1.314 9.668,3.445l-3.932,4.617Z" style="fill:#031e34;fill-rule:nonzero;"/><path id="Path3" serif:id="Path" d="M174.17,20.421l-2.345,2.45l0,11.862l-6.024,0l0,-31.324l6.024,0l0,10.122l8.839,-10.122l8.153,0l-10.57,12.253l10.822,19.071l-7.215,0l-7.684,-14.312Z" style="fill:#031e34;fill-rule:nonzero;"/><path id="Shape1" serif:id="Shape" d="M202.742,29.441c2.02,0 3.715,-1.669 3.715,-3.764c0,-2.096 -1.695,-3.8 -3.715,-3.8l-9.885,0l0,-18.468l8.225,0c4.87,0 8.839,4.12 8.839,9.163c0,1.918 -0.578,3.658 -1.552,5.149c2.201,1.741 3.572,4.475 3.572,7.529c0,5.292 -4.113,9.483 -9.127,9.483l-2.165,0l0,-5.327l2.093,0l0,0.035Zm-1.912,-13.637c1.695,0 3.499,-1.421 3.499,-3.623c0,-2.202 -1.804,-3.551 -3.499,-3.551l-2.634,0l0,7.174l2.634,0Z" style="fill:#031e34;fill-rule:nonzero;"/><path id="Path4" serif:id="Path" d="M217.208,34.768l0,-31.359l6.024,0l0,31.324l-6.024,0l0,0.035Z" style="fill:#031e34;fill-rule:nonzero;"/><path id="Path5" serif:id="Path" d="M249.928,3.409l0,6.251l-8.37,0l0,25.144l-6.024,0l0,-25.109l-8.406,0l0,-6.286l22.8,0Z" style="fill:#031e34;fill-rule:nonzero;"/></g><path id="bit" d="M198.449,34.768l-5.592,0l0,-5.327l5.592,0l0,5.327Z" style="fill:#3eb2fd;fill-rule:nonzero;"/><path id="Shape2" serif:id="Shape" d="M42.063,22.019l-18.073,9.908l-18.434,-9.908c-0.686,-0.391 -1.588,-0.107 -1.948,0.568c-0.397,0.675 -0.109,1.563 0.577,1.918l19.119,10.299c0.433,0.248 0.974,0.248 1.407,0l18.759,-10.299c0.686,-0.391 0.938,-1.243 0.542,-1.918c-0.397,-0.71 -1.263,-0.959 -1.949,-0.568Zm-34.271,-6.57l16.198,-9.021l18.037,10.264c0.686,0.39 1.588,0.142 1.985,-0.533c0.396,-0.675 0.144,-1.563 -0.542,-1.953l-18.759,-10.655c-0.433,-0.248 -0.974,-0.248 -1.443,0l-19.119,10.655c-0.974,0.532 -0.974,1.917 0,2.486l19.119,10.654c0.686,0.39 1.588,0.142 1.985,-0.533c0.396,-0.675 0.144,-1.563 -0.542,-1.953l-16.919,-9.411Zm-7.431,7.458l0,-7.103c-0.145,-1.634 0.613,-3.303 2.272,-4.226l19.12,-10.655c1.407,-0.781 3.103,-0.781 4.474,0.036l18.759,10.654c1.551,0.888 2.381,2.557 2.236,4.191l0,7.103c0.145,1.669 -0.721,3.373 -2.309,4.226l-18.759,10.299c-1.37,0.746 -2.994,0.746 -4.365,0l-19.119,-10.299c-1.588,-0.853 -2.417,-2.522 -2.309,-4.226Z" style="fill:#3eb2fd;"/></g></svg>