<?xml version="1.0" encoding="UTF-8" standalone="no"?><!DOCTYPE svg PUBLIC "-//W3C//DTD SVG 1.1//EN" "http://www.w3.org/Graphics/SVG/1.1/DTD/svg11.dtd"><svg width="100%" height="100%" viewBox="0 0 38 32" version="1.1" xmlns="http://www.w3.org/2000/svg" xmlns:xlink="http://www.w3.org/1999/xlink" xml:space="preserve" xmlns:serif="http://www.serif.com/" style="fill-rule:evenodd;clip-rule:evenodd;stroke-linejoin:round;stroke-miterlimit:2;"><path id="Monogram" d="M33.807,18.424l-14.646,8.422l-14.938,-8.422c-0.555,-0.332 -1.286,-0.09 -1.578,0.483c-0.322,0.574 -0.088,1.328 0.468,1.63l15.493,8.754c0.351,0.211 0.789,0.211 1.14,0l15.201,-8.754c0.555,-0.332 0.76,-1.056 0.438,-1.63c-0.321,-0.603 -1.023,-0.815 -1.578,-0.483Zm-27.771,-5.584l13.125,-7.667l14.616,8.724c0.556,0.332 1.287,0.12 1.608,-0.453c0.322,-0.574 0.117,-1.328 -0.438,-1.66l-15.201,-9.056c-0.351,-0.211 -0.789,-0.211 -1.169,0l-15.494,9.056c-0.789,0.452 -0.789,1.63 0,2.113l15.494,9.055c0.555,0.332 1.286,0.121 1.607,-0.453c0.322,-0.573 0.117,-1.328 -0.438,-1.66l-13.71,-7.999Zm-6.022,6.339l0,-6.037c-0.117,-1.389 0.497,-2.807 1.842,-3.592l15.493,-9.056c1.14,-0.664 2.514,-0.664 3.625,0.031l15.201,9.055c1.257,0.755 1.929,2.173 1.812,3.562l0,6.037c0.117,1.419 -0.585,2.867 -1.871,3.592l-15.201,8.754c-1.111,0.633 -2.426,0.633 -3.537,0l-15.493,-8.754c-1.286,-0.725 -1.959,-2.143 -1.871,-3.592Z" style="fill:#3eb2fd;"/></svg>