<svg width="477" height="364" xmlns="http://www.w3.org/2000/svg" xmlns:xlink="http://www.w3.org/1999/xlink"><defs><path d="M125.517 3.405l.169.198c.11.133.219.27.323.409l.153.209c-.201-.284-.416-.556-.645-.816zm1.868 3.134a9.924 9.924 0 0 0-.095-.247l.094.245c.031.083.06.167.089.25l-.088-.248zm-.663-1.434l.125.229a9.988 9.988 0 0 0-.221-.396l.096.167zm-1.38-1.893l.174.191c-.114-.13-.231-.256-.352-.38l.178.189zm-.552-.552l.188.177a9.67 9.67 0 0 0-.188-.177zm-.593-.508l.202.162a9.95 9.95 0 0 0-.202-.162zM78 40.002C78 45.519 82.476 50 87.998 50H128v116.001c0 5.516-4.473 9.999-9.99 9.999H9.99C4.48 176 0 171.523 0 166.001V10C0 4.483 4.473 0 9.99 0H78v40.002z" id="b"/><filter x="-21.1%" y="-15.3%" width="142.2%" height="130.7%" filterUnits="objectBoundingBox" id="a"><feOffset in="SourceAlpha" result="shadowOffsetOuter1"/><feGaussianBlur stdDeviation="9" in="shadowOffsetOuter1" result="shadowBlurOuter1"/><feColorMatrix values="0 0 0 0 0.0117647059 0 0 0 0 0.117647059 0 0 0 0 0.203921569 0 0 0 0.15 0" in="shadowBlurOuter1"/></filter><filter x="-16.8%" y="-12.3%" width="133.7%" height="124.6%" filterUnits="objectBoundingBox" id="c"><feOffset in="SourceAlpha" result="shadowOffsetOuter1"/><feGaussianBlur stdDeviation="9" in="shadowOffsetOuter1" result="shadowBlurOuter1"/><feColorMatrix values="0 0 0 0 0.0117647059 0 0 0 0 0.117647059 0 0 0 0 0.203921569 0 0 0 0.15 0" in="shadowBlurOuter1" result="shadowMatrixOuter1"/><feMerge><feMergeNode in="shadowMatrixOuter1"/><feMergeNode in="SourceGraphic"/></feMerge></filter></defs><g fill="none" fill-rule="evenodd"><path d="M41.942 145.553c47.684 86.61-66.04 28.895-36.566 121.076 29.473 92.18 148.89-6.102 285.157 81.834s109.9-327.514-12.555-328.505C155.524 18.966-5.742 58.944 41.942 145.553z" fill="#4F58FD" opacity=".05"/><path d="M411.255 145.557c-79.82-58.342 47.64-54.097-18.029-125.185-65.67-71.088-132.361 68.454-293.024 46.346-160.664-22.109 38.81 343.273 150.21 292.42 111.4-50.852 240.662-155.238 160.843-213.58z" fill="#4F58FD" opacity=".07"/><g transform="translate(20 54)"><use fill="#000" filter="url(#a)" xlink:href="#b"/><use fill="#2196F3" xlink:href="#b"/></g><path fill="#000" opacity=".1" d="M106 104h42v35z"/><path d="M98 54l19.924 19.924 14.149 14.149L148 104h-40.002C102.476 104 98 99.519 98 94.002V54z" fill="#A6C6F7"/><g fill="#FFF" fill-rule="nonzero"><path d="M42.5 141.706h84v-9h-84zM42.5 160h84v-9h-84zM42.5 178h84v-9h-84zM42.5 196H100v-9H42.5z"/></g><g transform="translate(251 47)"><g filter="url(#c)" transform="translate(0 .173)"><path d="M0 10.477h207.36v268.137a4.664 4.664 0 0 1-4.671 4.663H4.67A4.673 4.673 0 0 1 0 278.614V10.477z" fill="#FFF"/><path d="M0 3.45C0 1.543 1.55 0 3.448 0h200.464a3.446 3.446 0 0 1 3.448 3.45V14.4H0V3.45z" fill="#63B5F6"/><g transform="translate(5.094 4.62)" fill="#FFF"><circle cx="2.4" cy="2.4" r="2.4"/><circle cx="9.6" cy="2.4" r="2.4"/><circle cx="16.8" cy="2.4" r="2.4"/></g></g><g transform="translate(11.2 39.2)"><rect fill="#D6EFFF" x=".281" width="185.242" height="91.93" rx="3"/><g fill="#7BC3F9"><path d="M116.934 59.944l-12.58-15.275a2.342 2.342 0 0 0-1.797-.83c-.691 0-1.383.346-1.797.83l-1.66 2.004c-.068.07-.137.208-.207.277-.414.414-.967.691-1.59.691-.621 0-1.105-.207-1.52-.622-.138-.138-.276-.277-.346-.415l-6.151-7.465c-.553-.691-1.383-1.106-2.35-1.106-.968 0-1.797.415-2.35 1.106L68.135 59.115l-.276.345c-.208.346-.346.692-.346 1.106 0 1.106.899 2.005 2.004 2.005H115.966c.83 0 1.52-.691 1.52-1.52 0-.346-.068-.623-.276-.9l-.276-.207zM113.34 28.979c-2.765 0-5.046 2.28-5.046 5.045s2.28 5.046 5.046 5.046c2.764 0 5.045-2.28 5.045-5.046 0-2.764-2.28-5.045-5.045-5.045z"/></g></g><rect fill="#2196F3" opacity=".7" x="11.52" y="25.2" width="39.6" height="5.76" rx="2.4"/><g transform="translate(11 142)"><rect fill="#D6EFFF" x="1" y="1" width="50.527" height="48" rx="3"/><g fill="#7BC3F9"><path d="M37.71 32.483l-6.29-7.638a1.17 1.17 0 0 0-.898-.415c-.346 0-.691.173-.899.415l-.83 1.002c-.034.035-.068.104-.103.139a1.125 1.125 0 0 1-.795.345c-.31 0-.553-.103-.76-.31a.916.916 0 0 1-.173-.208l-3.076-3.733a1.476 1.476 0 0 0-1.175-.553c-.483 0-.898.208-1.175.553l-8.225 9.988-.138.173a1.044 1.044 0 0 0-.173.553c0 .553.45 1.002 1.002 1.002h23.225c.414 0 .76-.345.76-.76a.695.695 0 0 0-.138-.45l-.139-.103zM35.913 17a2.537 2.537 0 0 0-2.523 2.523 2.537 2.537 0 0 0 2.523 2.523 2.537 2.537 0 0 0 2.523-2.523A2.537 2.537 0 0 0 35.913 17z"/></g><rect fill="#D6EFFF" x="134" y="78" width="50.527" height="48" rx="3"/><g fill="#7BC3F9"><path d="M170.71 109.483l-6.29-7.638a1.17 1.17 0 0 0-.898-.415c-.346 0-.691.173-.899.415l-.83 1.002c-.034.035-.068.104-.103.139a1.125 1.125 0 0 1-.795.345c-.31 0-.553-.103-.76-.31a.916.916 0 0 1-.173-.208l-3.076-3.733a1.476 1.476 0 0 0-1.175-.553c-.483 0-.898.208-1.175.553l-8.225 9.988-.138.173a1.044 1.044 0 0 0-.173.553c0 .553.45 1.002 1.002 1.002h23.225c.414 0 .76-.345.76-.76a.695.695 0 0 0-.138-.45l-.139-.103zM168.913 94a2.537 2.537 0 0 0-2.523 2.523 2.537 2.537 0 0 0 2.523 2.523 2.537 2.537 0 0 0 2.523-2.523A2.537 2.537 0 0 0 168.913 94z"/></g><rect fill="#2196F3" opacity=".6" x="59" width="70" height="5" rx="2.5"/><rect fill="#2196F3" opacity=".3" x="59" y="11" width="27" height="5" rx="2.5"/><rect fill="#D8F0FF" x="59" y="22" width="120" height="5" rx="2.5"/><rect fill="#D8F0FF" x="59" y="33" width="115" height="5" rx="2.5"/><rect fill="#D8F0FF" x="59" y="44" width="124" height="5" rx="2.5"/><rect fill="#D8F0FF" y="55" width="186" height="5" rx="2.5"/><rect fill="#D8F0FF" y="65" width="186" height="5" rx="2.5"/><rect fill="#D8F0FF" y="76" width="120" height="5" rx="2.5"/><rect fill="#D8F0FF" y="87" width="120" height="5" rx="2.5"/><rect fill="#D8F0FF" y="98" width="110" height="5" rx="2.5"/><rect fill="#D8F0FF" y="109" width="115" height="5" rx="2.5"/><rect fill="#3EB2FD" opacity=".2" y="120" width="120" height="5" rx="2.5"/></g></g><g fill="#FDAC40" fill-rule="nonzero"><path d="M173.074 214.65c14.272 0 25.842-11.573 25.842-25.85v-28.5c0-12.454 10.096-22.55 22.55-22.55h15.7v8.6l21-10.25-21-10.25v8.6h-15.7c-14.134 0-25.618 11.343-25.847 25.422l-.003.428v28.5c0 12.454-10.093 22.55-22.542 22.55H136v3.3z"/></g><path d="M127.778 207.726a7.629 7.629 0 0 1 8.366-1.674 7.7 7.7 0 0 1 4.718 7.11 7.7 7.7 0 0 1-4.718 7.109 7.624 7.624 0 0 1-8.362-1.67 7.707 7.707 0 0 1-2.243-5.44c0-2.037.804-3.992 2.24-5.435z" stroke-opacity=".3" stroke="#FDAC40" stroke-width="7" fill="#FDAC40" fill-rule="nonzero"/></g></svg>