<?xml version="1.0" encoding="UTF-8"?>
<svg width="200px" height="200px" viewBox="0 0 200 200" version="1.1" xmlns="http://www.w3.org/2000/svg" xmlns:xlink="http://www.w3.org/1999/xlink">
    <!-- Generator: Sketch 58 (84663) - https://sketch.com -->
    <title>avatar</title>
    <desc>Created with Sketch.</desc>
    <defs>
        <circle id="path-1" cx="88.5" cy="88.5" r="88.5"></circle>
    </defs>
    <g id="Page-1" stroke="none" stroke-width="1" fill="none" fill-rule="evenodd">
        <g id="avatar">
            <circle id="bc" fill="#4F58FD" fill-rule="nonzero" cx="100" cy="100" r="100"></circle>
            <g id="user" transform="translate(12.000000, 12.000000)">
                <mask id="mask-2" fill="white">
                    <use xlink:href="#path-1"></use>
                </mask>
                <use id="Mask" fill="#6970FD" fill-rule="nonzero" xlink:href="#path-1"></use>
                <path d="M88.500313,-6 C34.6517184,-6 -9,37.3721546 -9,90.8758802 C-9,114.190124 -0.706549058,135.580793 13.103768,152.296548 C15.2344025,135.34571 32.2738452,121.00939 56.1671209,114.219975 C64.8962127,122.301102 76.1715505,127.204258 88.499687,127.204258 C100.538022,127.204258 111.59241,122.548001 120.232621,114.805817 C144.332451,122.188536 161.00573,137.362571 161.554036,155 C176.753898,137.914829 186,115.474372 186,90.8758802 C186,37.3721546 142.348282,-6 88.500313,-6 Z M88.500313,115.731844 C82.2761563,115.731844 76.4112781,114.03278 71.2036169,111.089891 C58.6539043,103.994495 50.0130673,89.4747121 50.0130673,72.7110697 C50.0130673,48.9894738 67.2778414,29.6896736 88.500313,29.6896736 C109.724662,29.6896736 126.987559,48.9894738 126.987559,72.7110697 C126.987559,89.7321838 118.076324,104.431078 105.214277,111.403335 C100.147448,114.148455 94.4935049,115.731844 88.500313,115.731844 Z" id="Shape" fill="#FFFFFF" fill-rule="nonzero" mask="url(#mask-2)"></path>
            </g>
        </g>
    </g>
</svg>