<?xml version="1.0" encoding="UTF-8"?>
<svg width="600px" height="328px" viewBox="0 0 600 328" version="1.1" xmlns="http://www.w3.org/2000/svg" xmlns:xlink="http://www.w3.org/1999/xlink">
    <!-- Generator: Sketch 58 (84663) - https://sketch.com -->
    <title>website</title>
    <desc>Created with Sketch.</desc>
    <g id="website" stroke="none" stroke-width="1" fill="none" fill-rule="evenodd">
        <g transform="translate(102.000000, 4.000000)">
            <path d="M317.493854,31.4755032 C221.280048,-0.908471964 82.0283704,-11.8161049 100.221652,65.9165092 C118.414934,143.649123 -11.7976398,178.006237 36.8923077,220.089801 C85.5822552,262.173365 168.737022,205.422131 233.91523,262.85289 C299.093438,320.283649 332.050781,345.276743 370.67938,281.382946 C409.307978,217.48915 413.707661,63.8594783 317.493854,31.4755032 Z" id="bg3" fill="#4F58FD" opacity="0.07" transform="translate(211.140000, 162.980000) scale(-1, 1) translate(-211.140000, -162.980000) "></path>
            <path d="M162.99212,135.501812 C122.883967,101.083629 48.5350141,188.535641 9.99586928,120.884067 C-28.5432755,53.2324926 52.7605727,-37.2884988 110.9951,16.9206441 C169.229627,71.129787 253.168506,-5.10802372 289.686822,87.7227403 C326.205138,180.553504 203.100272,169.919995 162.99212,135.501812 Z" id="bg2" fill="#4F58FD" opacity="0.07" transform="translate(148.186833, 80.370248) scale(-1, 1) translate(-148.186833, -80.370248) "></path>
            <path d="M191.926426,231.413724 C241.837193,152.840974 194.503592,95.7531608 238.33081,87.8060443 C282.158028,79.8589279 398.792743,219.292831 318.561776,276.421715 C238.33081,333.550599 142.01566,309.986474 191.926426,231.413724 Z" id="bg1" fill="#4F58FD" opacity="0.07"></path>
            <g id="browser" transform="translate(77.760000, 32.400000)">
                <rect id="browser_bc" stroke="#3EB2FD" stroke-width="1.08" fill="#FFFFFF" x="0" y="0" width="223.56" height="253.8" rx="3.24"></rect>
                <path d="M0,3.91171549 C0,1.85440427 1.67095523,0.186624 3.716858,0.186624 L219.843142,0.186624 C221.895907,0.186624 223.56,1.85096043 223.56,3.91171549 L223.56,15.738624 L0,15.738624 L0,3.91171549 Z" id="Border" fill="#3EB2FD" fill-rule="nonzero"></path>
                <g id="Close_tab" transform="translate(5.501952, 5.177088)" fill="#FFFFFF" fill-rule="nonzero">
                    <circle id="Oval-1" cx="2.592" cy="2.592" r="2.592"></circle>
                    <circle id="Oval-1-Copy" cx="10.368" cy="2.592" r="2.592"></circle>
                    <circle id="Oval-1-Copy-2" cx="18.144" cy="2.592" r="2.592"></circle>
                </g>
            </g>
            <g id="Big-image" transform="translate(89.856000, 74.736000)" fill="#4F58FD" fill-rule="nonzero">
                <rect id="Rectangle-6" opacity="0.2" x="0.303264" y="0" width="200.060928" height="99.283968" rx="3.24"></rect>
                <g id="img_picto-copy" transform="translate(72.876672, 31.259520)">
                    <path d="M53.4117888,33.4803456 L39.8255616,16.982784 C39.377664,16.4602368 38.7058176,16.0869888 37.884672,16.0869888 C37.138176,16.0869888 36.39168,16.4602368 35.9437824,16.982784 L34.152192,19.1476224 C34.0775424,19.222272 34.0028928,19.3715712 33.9282432,19.4462208 C33.4803456,19.8941184 32.8831488,20.1927168 32.2113024,20.1927168 C31.539456,20.1927168 31.0169088,19.968768 30.5690112,19.5208704 C30.419712,19.3715712 30.2704128,19.222272 30.1957632,19.0729728 L23.5519488,11.010816 C22.954752,10.26432 22.0589568,9.8164224 21.0138624,9.8164224 C19.968768,9.8164224 19.0729728,10.26432 18.475776,11.010816 L0.7091712,32.5845504 L0.4105728,32.9577984 C0.186624,33.3310464 0.0373248,33.7042944 0.0373248,34.152192 C0.0373248,35.3465856 1.0077696,36.3170304 2.2021632,36.3170304 L2.2021632,36.3170304 L7.2036864,36.3170304 L8.8459776,36.3170304 L9.2192256,36.3170304 L23.6265984,36.3170304 L27.433728,36.3170304 L28.7027712,36.3170304 L29.0013696,36.3170304 L39.8255616,36.3170304 L46.9919232,36.3170304 L47.2905216,36.3170304 L49.6046592,36.3170304 L52.3666944,36.3170304 C53.2624896,36.3170304 54.0089856,35.5705344 54.0089856,34.6747392 C54.0089856,34.3014912 53.934336,34.0028928 53.7103872,33.7042944 L53.4117888,33.4803456 L53.4117888,33.4803456 Z" id="Shape"></path>
                    <path d="M49.5300096,0.0373248 C46.5440256,0.0373248 44.0805888,2.5007616 44.0805888,5.4867456 C44.0805888,8.4727296 46.5440256,10.9361664 49.5300096,10.9361664 C52.5159936,10.9361664 54.9794304,8.4727296 54.9794304,5.4867456 C54.9794304,2.5007616 52.5159936,0.0373248 49.5300096,0.0373248 L49.5300096,0.0373248 Z" id="Shape"></path>
                </g>
            </g>
            <rect id="logo" fill="#4F58FD" fill-rule="nonzero" opacity="0.7" x="90.2016" y="59.616" width="42.768" height="6.2208" rx="2.592"></rect>
            <g id="Article" transform="translate(89.640000, 185.760000)" fill-rule="nonzero">
                <rect id="Item_1" fill="#DCDEFF" x="1.08" y="1.08" width="54.5692331" height="51.84" rx="3.24"></rect>
                <g id="Group" transform="translate(14.040000, 18.360000)" fill="#4F58FD">
                    <path d="M26.687232,16.7215104 L19.8941184,8.4727296 C19.6701696,8.211456 19.3342464,8.024832 18.9236736,8.024832 C18.5504256,8.024832 18.1771776,8.211456 17.9532288,8.4727296 L17.0574336,9.5551488 C17.0201088,9.5924736 16.982784,9.6671232 16.9454592,9.704448 C16.7215104,9.9283968 16.422912,10.077696 16.0869888,10.077696 C15.7510656,10.077696 15.489792,9.9657216 15.2658432,9.7417728 C15.1911936,9.6671232 15.116544,9.5924736 15.0792192,9.517824 L11.757312,5.4867456 C11.4587136,5.1134976 11.010816,4.8895488 10.4882688,4.8895488 C9.9657216,4.8895488 9.517824,5.1134976 9.2192256,5.4867456 L0.3359232,16.2736128 L0.186624,16.4602368 C0.0746496,16.6468608 1.08357767e-13,16.8334848 1.08357767e-13,17.0574336 C1.08357767e-13,17.6546304 0.4852224,18.1398528 1.0824192,18.1398528 L1.0824192,18.1398528 L3.5831808,18.1398528 L4.4043264,18.1398528 L4.5909504,18.1398528 L11.7946368,18.1398528 L13.6982016,18.1398528 L14.3327232,18.1398528 L14.4820224,18.1398528 L19.8941184,18.1398528 L23.4772992,18.1398528 L23.6265984,18.1398528 L24.7836672,18.1398528 L26.1646848,18.1398528 C26.6125824,18.1398528 26.9858304,17.7666048 26.9858304,17.3187072 C26.9858304,17.1320832 26.9485056,16.982784 26.8365312,16.8334848 L26.687232,16.7215104 L26.687232,16.7215104 Z" id="Shape"></path>
                    <path d="M24.7463424,-1.33226763e-15 C23.2533504,-1.33226763e-15 22.021632,1.2317184 22.021632,2.7247104 C22.021632,4.2177024 23.2533504,5.4494208 24.7463424,5.4494208 C26.2393344,5.4494208 27.4710528,4.2177024 27.4710528,2.7247104 C27.4710528,1.2317184 26.2393344,-1.33226763e-15 24.7463424,-1.33226763e-15 L24.7463424,-1.33226763e-15 Z" id="Shape"></path>
                </g>
                <rect id="Rectangle-Copy-2" fill="#838AFD" x="63.72" y="0" width="75.6" height="5.4" rx="2.7"></rect>
                <rect id="Rectangle-Copy-3" fill="#DCDEFF" opacity="0.7601609" x="63.72" y="11.88" width="29.16" height="5.4" rx="2.7"></rect>
                <rect id="Rectangle-Copy-4" fill="#DCDEFF" x="63.72" y="23.76" width="129.6" height="5.4" rx="2.7"></rect>
                <rect id="Rectangle-Copy-5" fill="#DCDEFF" x="63.72" y="35.64" width="124.2" height="5.4" rx="2.7"></rect>
                <rect id="Rectangle-Copy-6" fill="#DCDEFF" x="63.72" y="47.52" width="133.92" height="5.4" rx="2.7"></rect>
                <rect id="Rectangle-Copy-7" fill="#DCDEFF" x="0" y="59.4" width="200.88" height="5.4" rx="2.7"></rect>
                <rect id="Rectangle-Copy-8" fill="#DCDEFF" x="0" y="70.2" width="200.88" height="5.4" rx="2.7"></rect>
                <rect id="Rectangle-Copy-9" fill="#DCDEFF" x="0" y="82.08" width="129.6" height="5.4" rx="2.7"></rect>
            </g>
            <g id="check" transform="translate(276.480000, 225.360000)">
                <path d="M24.33024,48.66048 C10.9147738,48.66048 0,37.7457062 0,24.33024 C0,10.9147738 10.9147738,0 24.33024,0 C37.7457062,0 48.66048,10.9147738 48.66048,24.33024 C48.66048,37.7457062 37.7457062,48.66048 24.33024,48.66048 Z" id="Path" fill="#20C778" fill-rule="nonzero"></path>
                <path d="M37.4785963,12.3038637 C36.8087136,11.6972244 35.7732968,11.747712 35.1661785,12.4170662 L20.0975674,29.0235205 L12.9901789,23.200099 C12.4320091,22.7433446 11.6164653,22.6912793 10.9975048,23.1259454 C10.2522257,23.6489647 10.0722219,24.6760705 10.5956541,25.4207616 L17.9825223,35.9308462 C18.1846319,36.2156274 18.4455585,36.4802925 18.7503018,36.6897369 C20.1362525,37.6403225 22.0302403,37.2884875 22.9815764,35.9040247 L37.7284701,14.4416952 C38.1863746,13.7774686 38.0932147,12.8608043 37.4785963,12.3038637" id="Fill-10" fill="#FFFFFF"></path>
            </g>
        </g>
    </g>
</svg>