<svg width="576" height="238" viewBox="0 0 576 238" xmlns="http://www.w3.org/2000/svg"><title>404 Error</title><g fill="none"><path d="M132.064 24.815v119.313h22.534v40.541h-22.534v50.145H86.138V24.815h45.926zm201.73 24.919c14.13 19.722 21.196 46.046 21.196 78.99 0 32.927-7.065 59.25-21.196 78.973-13.72 19.138-34.316 29-61.515 29.565v-38.466c12.468-.737 21.883-7.151 27.953-19.173 6.466-12.81 9.707-29.737 9.707-50.762 0-21.008-3.224-37.934-9.707-50.745-6.07-12.005-15.486-18.367-27.953-19.122V20.185c27.199.566 47.795 10.41 61.515 29.549zm196.37-24.919v119.313h22.534v40.541h-22.534v50.145h-45.926V24.815h45.926z" fill="#4F58FD"/><path d="M73.43 14.897h4.22l-10.633 10.82 6.414-10.82zm10.77 0h4.288L50.553 53.586l6.517-11.027L84.2 14.897zm10.822 0h4.304L34.107 81.419l6.517-11.027 54.398-55.495zm10.872 0h4.288l-92.573 94.39 6.517-11.01 81.768-83.38zm10.839 0h4.287L1.146 137.137l6.517-11.01 109.07-111.23zm10.838 0h4.288L.1 149.262v-4.373L127.571 14.897zM99.138 56.484l-4.15 7.065L.1 160.323v-4.373L138.427 14.897h4.287L99.138 59.33v-2.847zM85.28 80.15l-6.363 10.856L.1 171.385v-4.373L85.28 80.15zm13.857-9.758v-4.373l45.926-46.835v4.356L99.138 70.392zm-29.926 37.197l-6.362 10.856-55.101 56.198H3.46l65.75-67.054zm29.926-26.136V77.08l45.926-46.852v4.373L99.138 81.453zm-45.069 52.649h4.287l-39.752 40.541h-4.287l39.752-40.541zm45.069-41.587v-4.373l45.926-46.835v4.373L99.138 92.515zm-34.23 41.587h4.287l-39.752 40.541h-4.288l39.752-40.541zm34.23-30.526v-4.373l45.926-46.835v4.373l-45.926 46.835zm0 11.061v-4.373l45.926-46.835v4.373l-45.926 46.835zm-23.392 19.465h4.287L40.28 174.643h-4.287l39.752-40.541zm23.392-8.403v-4.373l45.926-46.852v4.373l-45.926 46.852zM86.6 134.102h4.288l-39.753 40.541H46.85l39.752-40.541zm58.463-48.567v4.373l-83.09 84.735h-4.286l39.752-40.524h1.698v-1.732l45.926-46.852zm0 11.061v4.373l-72.25 73.674h-4.288l76.538-78.047zm0 11.079v4.373L83.669 174.66h-4.287l65.682-66.985zm0 11.044v4.373l-50.557 51.551H90.22l54.844-55.924zm0 15.383h.051l-45.977 46.886v-4.373l45.926-46.835v4.322zm6.602 0h4.287L99.138 192.05v-4.374l52.528-53.574zm10.838 0h4.288L99.138 203.11v-4.373l63.366-64.636zm5.094 5.882v4.373l-68.46 69.815V209.8l68.46-69.815zm-18.847 34.659h-3.67v3.756l-45.498 46.389h-.445v-3.927l68.46-69.816v4.374l-18.847 19.224zm10.838 0h-4.287l12.296-12.536v4.373l-8.009 8.163zm-49.167 50.145v.017h-4.305l38.947-39.718v4.373l-34.642 35.328zm57.176-50.145h-1.458l1.458-1.475v1.475zm-46.338 50.145h-4.287l28.09-28.657v4.373l-23.803 24.284zm10.856 0v.017h-4.288l17.253-17.595v4.373l-12.965 13.205zm10.838 0h-4.287l6.397-6.534v4.373l-2.11 2.16zm89.179-198.949a65.063 65.063 0 0 1 11.49-7.34l-31.177 31.795a94.934 94.934 0 0 1 6.55-10.564 67.483 67.483 0 0 1 1.578-2.11l11.559-11.78zm22.294-11.678a76.811 76.811 0 0 1 5.848-1.578l-55.787 56.884a111.6 111.6 0 0 1 2.333-6.757l47.606-48.55zm13.823-3.036a86.238 86.238 0 0 1 4.819-.532l-72.25 73.674c.36-1.886.754-3.756 1.183-5.59l66.248-67.552zm14.645-.96c.48 0 .943.017 1.406.017l-85.403 87.101c.188-1.68.377-3.36.6-5.007l80.482-82.077c.977-.017 1.938-.034 2.915-.034zm7.735.257c1.337.086 2.658.206 3.961.343l-96.585 98.489c.068-1.56.154-3.121.257-4.648l92.367-94.184zm9.723 1.132c1.235.206 2.435.429 3.636.686L197.817 120.504c-.017-.583-.017-1.184-.017-1.784 0-.874 0-1.732.017-2.59L300.353 11.555zm-50.436 62.492a89.079 89.079 0 0 0-2.315 6.757l-49.442 50.42c-.086-1.39-.154-2.78-.206-4.185l51.963-52.992zm28.76-24.935c-1.818.189-3.55.497-5.214.943l35.79-36.51c1.133.308 2.23.65 3.31 1.01l-33.887 34.557zm-33.253 40.575a122.33 122.33 0 0 0-.926 5.317l-45.463 46.371a140.398 140.398 0 0 1-.412-3.961l46.8-47.727zm43.816-40.3a39.382 39.382 0 0 0-3.875-.43l32-32.635c1.03.412 2.041.858 3.019 1.304l-31.144 31.76zm-45.668 53.248c-.138 1.56-.275 3.156-.378 4.768l-42.77 43.628a122.546 122.546 0 0 1-.618-3.756l43.766-44.64zm54.003-50.693a30.164 30.164 0 0 0-3.07-1.235L324.74 19.87a70.896 70.896 0 0 1 2.726 1.595L297.575 51.94zm-54.672 62.44a188.073 188.073 0 0 0-.052 4.425l-40.524 41.33c-.274-1.166-.548-2.35-.806-3.55l41.382-42.205zm61.309-58.136a28.047 28.047 0 0 0-2.435-1.886l29.634-30.235c.84.6 1.646 1.235 2.452 1.887l-29.651 30.234zm-61.24 69.13c.05 1.423.102 2.812.17 4.184l-38.414 39.186a154.44 154.44 0 0 1-1.011-3.344l39.254-40.027zm66.488-63.42a30.497 30.497 0 0 0-1.921-2.417l29.874-30.475a64.727 64.727 0 0 1 2.212 2.127L309.46 61.956zm3.772 6.157a36.287 36.287 0 0 0-1.166-2.143l30.732-31.332c.669.772 1.303 1.578 1.955 2.4l-31.178 31.796c-.12-.24-.223-.48-.343-.72zM243.64 135.75c.137 1.338.275 2.642.446 3.928l-36.442 37.162c-.412-1.029-.806-2.092-1.2-3.138l37.196-37.952zm73.177-59.182a63.038 63.038 0 0 0-1.2-3.155l31.948-32.584c.6.857 1.184 1.732 1.75 2.606l-32.498 33.133zm-71.856 68.906c.206 1.252.446 2.47.703 3.67l-34.608 35.294c-.48-.978-.943-1.955-1.406-2.95l35.31-36.014zm1.972 9.055c.309 1.15.634 2.264.96 3.378l-32.96 33.613a71.62 71.62 0 0 1-1.596-2.744l33.596-34.247zm72.405-69.472a101.073 101.073 0 0 0-.91-3.447l33.408-34.059a72.94 72.94 0 0 1 1.543 2.796l-34.041 34.71zm-69.73 77.79a55.882 55.882 0 0 0 1.27 3.104l-31.556 32.172c-.102-.137-.223-.275-.325-.429a93.543 93.543 0 0 1-1.475-2.127l32.086-32.72zm71.565-68.598a186.212 186.212 0 0 0-.635-3.721l35.053-35.757c.463.978.926 1.972 1.372 2.984l-35.79 36.494zm-68.17 76.195c.515.96 1.03 1.886 1.596 2.778l-30.355 30.954a83.1 83.1 0 0 1-2.023-2.332l30.783-31.4zm69.353-66.334c-.12-1.355-.257-2.675-.395-3.979l36.923-37.66a174.8 174.8 0 0 1 1.166 3.19l-37.694 38.449zm-65.013 72.988c.651.806 1.32 1.577 2.023 2.298l-29.6 30.217a64.877 64.877 0 0 1-2.263-2.075l29.84-30.44zm65.544-62.476a165.68 165.68 0 0 0-.154-4.235l38.93-39.701c.342 1.132.668 2.246.977 3.395l-39.753 40.541zm-60.022 67.895c.823.634 1.68 1.217 2.572 1.75l-29.514 30.113a67.254 67.254 0 0 1-2.52-1.817l29.462-30.046zm59.937-56.747c.051-1.475.085-2.984.103-4.494l41.055-41.861c.257 1.183.515 2.384.755 3.601l-41.913 42.754zm-52.975 60.708c1.046.412 2.127.772 3.242 1.08l-30.32 30.921a54.912 54.912 0 0 1-2.796-1.526l29.874-30.475zm52.117-48.772c.189-1.595.326-3.207.463-4.854l43.337-44.194c.206 1.252.394 2.521.566 3.807l-44.366 45.24zm-43.353 50.882a35.16 35.16 0 0 0 4.081.223l-32.378 33.03a61.074 61.074 0 0 1-3.087-1.253l31.384-32zm41.141-37.557c.394-1.784.772-3.619 1.098-5.505l46.183-47.093c.137 1.321.257 2.659.36 4.013l-47.641 48.585zm-29.943 37.197a32.67 32.67 0 0 0 5.917-1.647l-37.129 37.866a97.052 97.052 0 0 1-3.378-.943l34.59-35.276zm24.284-20.374a79.203 79.203 0 0 0 3-7.443l50.694-51.688.155 4.219-53.85 54.912zm53.917-48.31a375.05 375.05 0 0 1-.068 4.46L267.666 226.23c-1.234-.19-2.469-.395-3.687-.618L367.99 119.543zm-.343 11.422a141.807 141.807 0 0 1-.343 4.716l-89.69 91.475c-1.356-.052-2.693-.155-4.031-.258l94.064-95.933zm-1.818 17.286l-77.36 78.887c-1.44.07-2.916.103-4.408.12l82.489-84.117c-.223 1.732-.463 3.43-.72 5.11zm-65.236 77.601c-1.646.275-3.31.515-5.007.72l68.7-70.072a142.412 142.412 0 0 1-1.372 5.78l-62.32 63.572zm14.68-3.927a74.996 74.996 0 0 1-6.294 2.058l51.003-52.014a113.775 113.775 0 0 1-2.83 7.254l-41.879 42.702zm31.52-24.232c-5.264 7.34-11.54 13.325-18.795 17.938l21.488-21.917a89.837 89.837 0 0 1-2.692 3.979zM471.532 14.897h4.218l-10.632 10.82 6.414-10.82zm10.77 0h4.287l-37.935 38.689 6.517-11.027 27.13-27.662zm10.82 0h4.305l-65.219 66.522 6.517-11.027 54.398-55.495zm10.873 0h4.288l-92.573 94.39 6.517-11.01 81.768-83.38zm10.839 0h4.287l-119.874 122.24 6.517-11.01 109.07-111.23zm10.838 0h4.288L398.2 149.262v-4.373L525.671 14.897zm-28.433 41.587l-4.15 7.065-94.888 96.774v-4.373L536.527 14.897h4.287L497.238 59.33v-2.847zM483.38 80.15l-6.363 10.856-78.818 80.379v-4.373l85.18-86.862zm13.857-9.758v-4.373l45.926-46.835v4.356l-45.926 46.852zm-29.926 37.197l-6.362 10.856-55.101 56.198h-4.288l65.75-67.054zm29.926-26.136V77.08l45.926-46.852v4.373l-45.926 46.852zm-45.069 52.649h4.287l-39.752 40.541h-4.287l39.752-40.541zm45.069-41.587v-4.373l45.926-46.835v4.373l-45.926 46.835zm-34.23 41.587h4.287l-39.752 40.541h-4.288l39.752-40.541zm34.23-30.526v-4.373l45.926-46.835v4.373l-45.926 46.835zm0 11.061v-4.373l45.926-46.835v4.373l-45.926 46.835zm-23.392 19.465h4.287l-39.752 40.541h-4.287l39.752-40.541zm23.392-8.403v-4.373l45.926-46.852v4.373l-45.926 46.852zm-12.537 8.403h4.288l-39.753 40.541h-4.287l39.752-40.541zm58.463-48.567v4.373l-83.09 84.735h-4.286l39.752-40.524h1.698v-1.732l45.926-46.852zm0 11.061v4.373l-72.25 73.674h-4.288l76.538-78.047zm0 11.079v4.373l-61.395 62.612h-4.288l65.683-66.985zm0 11.044v4.373l-50.557 51.551h-4.287l54.844-55.924zm0 15.383h.051l-45.977 46.886v-4.373l45.926-46.835v4.322zm6.602 0h4.287l-56.815 57.948v-4.374l52.528-53.574zm10.838 0h4.288l-67.654 69.009v-4.373l63.366-64.636zm5.094 5.882v4.373l-68.46 69.815V209.8l68.46-69.815zm-18.847 34.659h-3.67v3.756l-45.498 46.389h-.445v-3.927l68.46-69.816v4.374l-18.847 19.224zm10.838 0h-4.287l12.296-12.536v4.373l-8.009 8.163zm-49.167 50.145v.017h-4.305l38.947-39.718v4.373l-34.642 35.328zm57.176-50.145h-1.458l1.458-1.475v1.475zm-46.338 50.145h-4.287l28.09-28.657v4.373l-23.803 24.284zm10.856 0v.017h-4.288l17.253-17.595v4.373l-12.965 13.205zm10.838 0h-4.287l6.397-6.534v4.373l-2.11 2.16z" fill="#FFF"/><path d="M155.064 4.815v119.313h22.534v40.541h-22.534v50.145h-45.926V4.815h45.926zm201.73 24.919c14.13 19.722 21.196 46.046 21.196 78.99 0 32.927-7.065 59.25-21.196 78.973-13.72 19.138-34.316 29-61.515 29.565v-38.466c12.468-.737 21.883-7.151 27.953-19.173 6.466-12.81 9.707-29.737 9.707-50.762 0-21.008-3.224-37.934-9.707-50.745-6.07-12.005-15.486-18.367-27.953-19.122V.185c27.199.566 47.795 10.41 61.515 29.549zm196.37-24.919v119.313h22.534v40.541h-22.534v50.145h-45.926V4.815h45.926z" fill="#F04842" opacity=".557"/></g></svg>