<svg width="200" height="200" viewBox="0 0 200 200" xmlns="http://www.w3.org/2000/svg" xmlns:xlink="http://www.w3.org/1999/xlink"><title>Default Avatar</title><defs><circle id="a" cx="100" cy="100" r="100"/></defs><g fill="none" fill-rule="evenodd"><circle cx="100" cy="100" r="100" fill="#4F58FD" fill-rule="nonzero"/><mask id="b" fill="#fff"><use xlink:href="#a"/></mask><circle fill="#FFF" fill-rule="nonzero" opacity=".15" mask="url(#b)" cx="100.5" cy="100.5" r="88.5"/><g mask="url(#b)" fill="#FFF" fill-rule="nonzero"><path d="M99.01 135.802c25.275 0 45.76-20.553 45.76-45.903C144.77 64.549 124.28 44 99.01 44c-25.271 0-45.77 20.553-45.77 45.903 0 25.35 20.498 45.899 45.769 45.899zm19.41 3.129H79.592C47.284 138.93 21 165.3 21 197.708v47.633l.12.746 3.272 1.027C55.223 256.778 82.009 260 104.056 260c43.062 0 68.022-12.316 69.56-13.1l3.057-1.551H177v-47.641c.012-32.408-26.272-58.777-58.58-58.777z"/></g></g></svg>