<svg width="118" height="200" viewBox="0 0 118 200" xmlns="http://www.w3.org/2000/svg">
  <title>Group</title>
  <g fill="#D9ECFC" fill-rule="nonzero" opacity=".25">
    <path d="M98.446 2.548a2.539 2.539 0 0 0 2.547 2.539 2.544 2.544 0 0 0 2.545-2.54A2.543 2.543 0 0 0 100.993.01a2.538 2.538 0 0 0-2.547 2.539M98.446 16.087a2.544 2.544 0 0 0 2.547 2.54 2.549 2.549 0 0 0 2.545-2.54 2.546 2.546 0 0 0-5.092 0M98.446 30.475a2.547 2.547 0 0 0 5.092 0 2.541 2.541 0 0 0-2.545-2.538 2.536 2.536 0 0 0-2.547 2.538M98.446 44.022a2.54 2.54 0 0 0 2.547 2.534 2.545 2.545 0 0 0 2.545-2.534 2.547 2.547 0 0 0-5.092 0M98.446 58.404a2.544 2.544 0 0 0 2.547 2.54 2.55 2.55 0 0 0 2.545-2.54 2.542 2.542 0 0 0-2.545-2.538 2.537 2.537 0 0 0-2.547 2.538M98.446 71.943a2.546 2.546 0 0 0 5.092 0 2.542 2.542 0 0 0-2.545-2.536 2.537 2.537 0 0 0-2.547 2.536M98.446 86.334a2.537 2.537 0 0 0 2.547 2.538 2.542 2.542 0 0 0 2.545-2.538 2.544 2.544 0 0 0-2.545-2.54 2.539 2.539 0 0 0-2.547 2.54M98.446 99.873a2.54 2.54 0 0 0 2.547 2.54 2.545 2.545 0 0 0 2.545-2.54 2.544 2.544 0 0 0-2.545-2.538 2.54 2.54 0 0 0-2.547 2.538M98.446 113.413a2.54 2.54 0 0 0 2.547 2.541 2.544 2.544 0 0 0 2.545-2.54 2.54 2.54 0 0 0-2.545-2.537 2.536 2.536 0 0 0-2.547 2.536M98.446 127.802c0 1.4 1.135 2.54 2.547 2.54a2.547 2.547 0 0 0 2.545-2.54 2.543 2.543 0 0 0-2.545-2.538 2.538 2.538 0 0 0-2.547 2.538M98.446 141.347a2.537 2.537 0 0 0 2.547 2.536 2.542 2.542 0 0 0 2.545-2.536 2.546 2.546 0 0 0-5.092 0M98.446 155.728a2.543 2.543 0 0 0 2.547 2.542 2.548 2.548 0 0 0 2.545-2.542 2.545 2.545 0 0 0-2.545-2.535 2.54 2.54 0 0 0-2.547 2.535M98.446 169.273a2.538 2.538 0 0 0 2.547 2.539 2.543 2.543 0 0 0 2.545-2.54 2.543 2.543 0 0 0-2.545-2.538 2.538 2.538 0 0 0-2.547 2.539M98.446 183.661a2.538 2.538 0 0 0 2.547 2.538 2.543 2.543 0 0 0 2.545-2.538 2.545 2.545 0 0 0-2.545-2.54 2.54 2.54 0 0 0-2.547 2.54M98.446 197.204a2.537 2.537 0 0 0 2.547 2.536 2.542 2.542 0 0 0 2.545-2.536 2.545 2.545 0 0 0-2.545-2.542 2.54 2.54 0 0 0-2.547 2.542M112.535 2.548a2.539 2.539 0 0 0 2.548 2.539 2.544 2.544 0 0 0 2.545-2.54A2.543 2.543 0 0 0 115.083.01a2.538 2.538 0 0 0-2.548 2.539M112.535 16.087a2.544 2.544 0 0 0 2.548 2.54 2.549 2.549 0 0 0 2.545-2.54 2.546 2.546 0 0 0-5.093 0M112.535 30.475a2.547 2.547 0 0 0 5.092 0 2.541 2.541 0 0 0-2.544-2.538 2.536 2.536 0 0 0-2.548 2.538M112.535 44.022a2.54 2.54 0 0 0 2.548 2.534 2.545 2.545 0 0 0 2.545-2.534 2.547 2.547 0 0 0-5.093 0M112.535 58.404a2.544 2.544 0 0 0 2.548 2.54 2.55 2.55 0 0 0 2.545-2.54 2.542 2.542 0 0 0-2.545-2.538 2.537 2.537 0 0 0-2.548 2.538M112.535 71.943a2.546 2.546 0 0 0 5.092 0 2.542 2.542 0 0 0-2.544-2.536 2.537 2.537 0 0 0-2.548 2.536M112.535 86.334a2.537 2.537 0 0 0 2.548 2.538 2.542 2.542 0 0 0 2.545-2.538 2.544 2.544 0 0 0-2.545-2.54 2.539 2.539 0 0 0-2.548 2.54M112.535 99.873a2.54 2.54 0 0 0 2.548 2.54 2.545 2.545 0 0 0 2.545-2.54 2.544 2.544 0 0 0-2.545-2.538 2.54 2.54 0 0 0-2.548 2.538M112.535 113.413a2.54 2.54 0 0 0 2.548 2.541 2.544 2.544 0 0 0 2.545-2.54 2.54 2.54 0 0 0-2.545-2.537 2.536 2.536 0 0 0-2.548 2.536M112.535 127.802a2.547 2.547 0 0 0 5.092 0 2.543 2.543 0 0 0-2.544-2.538 2.538 2.538 0 0 0-2.548 2.538M112.535 141.347a2.537 2.537 0 0 0 2.548 2.536 2.542 2.542 0 0 0 2.545-2.536 2.546 2.546 0 0 0-5.093 0M112.535 155.728a2.543 2.543 0 0 0 2.548 2.542 2.548 2.548 0 0 0 2.545-2.542 2.545 2.545 0 0 0-2.545-2.535 2.54 2.54 0 0 0-2.548 2.535M112.535 169.273a2.538 2.538 0 0 0 2.548 2.539 2.543 2.543 0 0 0 2.545-2.54 2.543 2.543 0 0 0-2.545-2.538 2.538 2.538 0 0 0-2.548 2.539M112.535 183.661a2.538 2.538 0 0 0 2.548 2.538 2.543 2.543 0 0 0 2.545-2.538 2.545 2.545 0 0 0-2.545-2.54 2.54 2.54 0 0 0-2.548 2.54M112.535 197.204a2.537 2.537 0 0 0 2.548 2.536 2.542 2.542 0 0 0 2.545-2.536 2.545 2.545 0 0 0-2.545-2.542 2.54 2.54 0 0 0-2.548 2.542M84.867 2.548a2.539 2.539 0 0 0 2.547 2.539 2.539 2.539 0 1 0 0-5.078 2.538 2.538 0 0 0-2.547 2.539M84.867 16.087a2.544 2.544 0 0 0 2.547 2.54 2.543 2.543 0 0 0 2.545-2.54 2.54 2.54 0 0 0-2.545-2.537 2.541 2.541 0 0 0-2.547 2.537M84.867 30.475c0 1.4 1.135 2.54 2.547 2.54 1.41 0 2.545-1.14 2.545-2.54a2.536 2.536 0 0 0-2.545-2.538 2.536 2.536 0 0 0-2.547 2.538M84.867 44.022a2.54 2.54 0 0 0 2.547 2.534 2.54 2.54 0 1 0 0-5.078 2.542 2.542 0 0 0-2.547 2.544M84.867 58.404a2.544 2.544 0 0 0 2.547 2.54 2.544 2.544 0 0 0 2.545-2.54 2.537 2.537 0 0 0-2.545-2.538 2.537 2.537 0 0 0-2.547 2.538M84.867 71.943a2.541 2.541 0 0 0 2.547 2.542 2.541 2.541 0 0 0 2.545-2.542 2.537 2.537 0 0 0-2.545-2.536 2.537 2.537 0 0 0-2.547 2.536M84.867 86.334a2.537 2.537 0 0 0 2.547 2.538 2.538 2.538 0 1 0 0-5.078 2.539 2.539 0 0 0-2.547 2.54M84.867 99.873a2.54 2.54 0 0 0 2.547 2.54 2.54 2.54 0 1 0 0-5.078 2.54 2.54 0 0 0-2.547 2.538M84.867 113.413a2.54 2.54 0 0 0 2.547 2.541 2.539 2.539 0 1 0 0-5.077 2.536 2.536 0 0 0-2.547 2.536M84.867 127.802c0 1.4 1.135 2.54 2.547 2.54 1.41 0 2.545-1.14 2.545-2.54a2.537 2.537 0 0 0-2.545-2.538 2.538 2.538 0 0 0-2.547 2.538M84.867 141.347a2.537 2.537 0 0 0 2.547 2.536 2.537 2.537 0 0 0 2.545-2.536 2.541 2.541 0 0 0-2.545-2.542 2.541 2.541 0 0 0-2.547 2.542M84.867 155.728a2.543 2.543 0 0 0 2.547 2.542 2.54 2.54 0 0 0 0-5.078 2.54 2.54 0 0 0-2.547 2.536M84.867 169.273a2.538 2.538 0 0 0 2.547 2.539 2.538 2.538 0 1 0 0-5.078 2.538 2.538 0 0 0-2.547 2.539M84.867 183.661a2.538 2.538 0 0 0 2.547 2.538 2.538 2.538 0 1 0 0-5.078 2.54 2.54 0 0 0-2.547 2.54M84.867 197.204a2.537 2.537 0 0 0 2.547 2.536 2.54 2.54 0 0 0 0-5.078 2.54 2.54 0 0 0-2.547 2.542M70.44 2.548a2.54 2.54 0 0 0 2.534 2.539c1.407 0 2.557-1.136 2.557-2.54A2.55 2.55 0 0 0 72.974.01a2.54 2.54 0 0 0-2.535 2.539M70.44 16.087a2.545 2.545 0 0 0 2.534 2.54c1.407 0 2.557-1.141 2.557-2.54 0-1.397-1.15-2.537-2.557-2.537a2.543 2.543 0 0 0-2.535 2.537M70.44 30.475c0 1.4 1.14 2.54 2.534 2.54 1.407 0 2.557-1.14 2.557-2.54a2.548 2.548 0 0 0-2.557-2.538 2.538 2.538 0 0 0-2.535 2.538M70.44 44.022a2.542 2.542 0 0 0 2.534 2.534c1.407 0 2.557-1.139 2.557-2.534a2.554 2.554 0 0 0-2.557-2.544 2.544 2.544 0 0 0-2.535 2.544M70.44 58.404a2.546 2.546 0 0 0 2.534 2.54c1.407 0 2.557-1.144 2.557-2.54 0-1.405-1.15-2.538-2.557-2.538a2.539 2.539 0 0 0-2.535 2.538M70.44 71.943a2.543 2.543 0 0 0 2.534 2.542 2.553 2.553 0 0 0 2.557-2.542c0-1.402-1.15-2.536-2.557-2.536a2.539 2.539 0 0 0-2.535 2.536M70.44 86.334a2.539 2.539 0 0 0 2.534 2.538c1.407 0 2.557-1.133 2.557-2.538a2.55 2.55 0 0 0-2.557-2.54 2.54 2.54 0 0 0-2.535 2.54M70.44 99.873a2.541 2.541 0 0 0 2.534 2.54 2.552 2.552 0 0 0 2.557-2.54c0-1.401-1.15-2.538-2.557-2.538a2.54 2.54 0 0 0-2.535 2.538M70.44 113.413a2.541 2.541 0 0 0 2.534 2.541 2.551 2.551 0 0 0 2.557-2.54c0-1.406-1.15-2.537-2.557-2.537a2.537 2.537 0 0 0-2.535 2.536M70.44 127.802c0 1.4 1.14 2.54 2.534 2.54 1.407 0 2.557-1.14 2.557-2.54 0-1.404-1.15-2.538-2.557-2.538a2.54 2.54 0 0 0-2.535 2.538M70.44 141.347a2.539 2.539 0 0 0 2.534 2.536c1.407 0 2.557-1.134 2.557-2.536a2.553 2.553 0 0 0-2.557-2.542 2.543 2.543 0 0 0-2.535 2.542M70.44 155.728a2.544 2.544 0 0 0 2.534 2.542 2.555 2.555 0 0 0 2.557-2.542c0-1.397-1.15-2.535-2.557-2.535a2.542 2.542 0 0 0-2.535 2.535M70.44 169.273a2.54 2.54 0 0 0 2.534 2.539 2.55 2.55 0 0 0 2.557-2.54 2.55 2.55 0 0 0-2.557-2.538 2.54 2.54 0 0 0-2.535 2.539M70.44 183.661a2.54 2.54 0 0 0 2.534 2.538c1.407 0 2.557-1.135 2.557-2.538 0-1.403-1.15-2.54-2.557-2.54a2.542 2.542 0 0 0-2.535 2.54M70.44 197.204a2.539 2.539 0 0 0 2.534 2.536c1.407 0 2.557-1.134 2.557-2.536a2.552 2.552 0 0 0-2.557-2.542 2.542 2.542 0 0 0-2.535 2.542M56.86 2.548a2.544 2.544 0 0 0 2.547 2.539 2.539 2.539 0 1 0 0-5.078 2.543 2.543 0 0 0-2.547 2.539M56.86 16.087a2.55 2.55 0 0 0 2.547 2.54 2.543 2.543 0 0 0 2.545-2.54 2.547 2.547 0 0 0-5.092 0M56.86 30.475c0 1.4 1.144 2.54 2.547 2.54 1.41 0 2.545-1.14 2.545-2.54a2.536 2.536 0 0 0-2.545-2.538 2.542 2.542 0 0 0-2.547 2.538M56.86 44.022a2.546 2.546 0 0 0 2.547 2.534 2.54 2.54 0 1 0 0-5.078 2.547 2.547 0 0 0-2.547 2.544M56.86 58.404a2.55 2.55 0 0 0 2.547 2.54 2.544 2.544 0 0 0 2.545-2.54 2.537 2.537 0 0 0-2.545-2.538 2.543 2.543 0 0 0-2.547 2.538M56.86 71.943a2.547 2.547 0 0 0 5.092 0 2.537 2.537 0 0 0-2.545-2.536 2.543 2.543 0 0 0-2.547 2.536M56.86 86.334a2.543 2.543 0 0 0 2.547 2.538 2.538 2.538 0 1 0 0-5.078 2.544 2.544 0 0 0-2.547 2.54M56.86 99.873a2.545 2.545 0 0 0 2.547 2.54 2.54 2.54 0 1 0 0-5.078 2.545 2.545 0 0 0-2.547 2.538M56.86 113.413a2.545 2.545 0 0 0 2.547 2.541 2.539 2.539 0 1 0 0-5.077 2.541 2.541 0 0 0-2.547 2.536M56.86 127.802c0 1.4 1.144 2.54 2.547 2.54 1.41 0 2.545-1.14 2.545-2.54a2.537 2.537 0 0 0-2.545-2.538 2.543 2.543 0 0 0-2.547 2.538M56.86 141.347a2.543 2.543 0 0 0 2.547 2.536 2.537 2.537 0 0 0 2.545-2.536 2.547 2.547 0 0 0-5.092 0M56.86 155.728a2.548 2.548 0 0 0 2.547 2.542 2.54 2.54 0 0 0 0-5.078 2.546 2.546 0 0 0-2.547 2.536M56.86 169.273a2.544 2.544 0 0 0 2.547 2.539 2.538 2.538 0 1 0 0-5.078 2.544 2.544 0 0 0-2.547 2.539M56.86 183.661a2.544 2.544 0 0 0 2.547 2.538 2.538 2.538 0 1 0 0-5.078 2.546 2.546 0 0 0-2.547 2.54M56.86 197.204a2.543 2.543 0 0 0 2.547 2.536 2.54 2.54 0 0 0 0-5.078 2.546 2.546 0 0 0-2.547 2.542M43.28 2.548a2.539 2.539 0 0 0 2.548 2.539 2.544 2.544 0 0 0 2.545-2.54A2.543 2.543 0 0 0 45.828.01a2.538 2.538 0 0 0-2.547 2.539M43.28 16.087a2.544 2.544 0 0 0 2.548 2.54 2.549 2.549 0 0 0 2.545-2.54 2.546 2.546 0 0 0-5.092 0M43.28 30.475a2.547 2.547 0 0 0 5.092 0 2.541 2.541 0 0 0-2.544-2.538 2.536 2.536 0 0 0-2.547 2.538M43.28 44.022a2.54 2.54 0 0 0 2.548 2.534 2.545 2.545 0 0 0 2.545-2.534 2.547 2.547 0 0 0-5.092 0M43.28 58.404a2.544 2.544 0 0 0 2.548 2.54 2.55 2.55 0 0 0 2.545-2.54 2.542 2.542 0 0 0-2.545-2.538 2.537 2.537 0 0 0-2.547 2.538M43.28 71.943a2.546 2.546 0 0 0 5.092 0 2.542 2.542 0 0 0-2.544-2.536 2.537 2.537 0 0 0-2.547 2.536M43.28 86.334a2.537 2.537 0 0 0 2.548 2.538 2.542 2.542 0 0 0 2.545-2.538 2.544 2.544 0 0 0-2.545-2.54 2.539 2.539 0 0 0-2.547 2.54M43.28 99.873a2.54 2.54 0 0 0 2.548 2.54 2.545 2.545 0 0 0 2.545-2.54 2.544 2.544 0 0 0-2.545-2.538 2.54 2.54 0 0 0-2.547 2.538M43.28 113.413a2.54 2.54 0 0 0 2.548 2.541 2.544 2.544 0 0 0 2.545-2.54 2.54 2.54 0 0 0-2.545-2.537 2.536 2.536 0 0 0-2.547 2.536M43.28 127.802a2.547 2.547 0 0 0 5.092 0 2.543 2.543 0 0 0-2.544-2.538 2.538 2.538 0 0 0-2.547 2.538M43.28 141.347a2.537 2.537 0 0 0 2.548 2.536 2.542 2.542 0 0 0 2.545-2.536 2.546 2.546 0 0 0-5.092 0M43.28 155.728a2.543 2.543 0 0 0 2.548 2.542 2.548 2.548 0 0 0 2.545-2.542 2.545 2.545 0 0 0-2.545-2.535 2.54 2.54 0 0 0-2.547 2.535M43.28 169.273a2.538 2.538 0 0 0 2.548 2.539 2.543 2.543 0 0 0 2.545-2.54 2.543 2.543 0 0 0-2.545-2.538 2.538 2.538 0 0 0-2.547 2.539M43.28 183.661a2.538 2.538 0 0 0 2.548 2.538 2.543 2.543 0 0 0 2.545-2.538 2.545 2.545 0 0 0-2.545-2.54 2.54 2.54 0 0 0-2.547 2.54M43.28 197.204a2.537 2.537 0 0 0 2.548 2.536 2.542 2.542 0 0 0 2.545-2.536 2.545 2.545 0 0 0-2.545-2.542 2.54 2.54 0 0 0-2.547 2.542M28.853 2.548A2.539 2.539 0 0 0 31.4 5.087a2.539 2.539 0 1 0 0-5.078 2.538 2.538 0 0 0-2.547 2.539M28.853 16.087a2.544 2.544 0 0 0 2.547 2.54 2.543 2.543 0 0 0 2.545-2.54A2.54 2.54 0 0 0 31.4 13.55a2.541 2.541 0 0 0-2.547 2.537M28.853 30.475c0 1.4 1.135 2.54 2.547 2.54 1.41 0 2.545-1.14 2.545-2.54a2.536 2.536 0 0 0-2.545-2.538 2.536 2.536 0 0 0-2.547 2.538M28.853 44.022a2.54 2.54 0 0 0 2.547 2.534 2.54 2.54 0 1 0 0-5.078 2.542 2.542 0 0 0-2.547 2.544M28.853 58.404a2.544 2.544 0 0 0 2.547 2.54 2.544 2.544 0 0 0 2.545-2.54 2.537 2.537 0 0 0-2.545-2.538 2.537 2.537 0 0 0-2.547 2.538M28.853 71.943a2.541 2.541 0 0 0 2.547 2.542 2.541 2.541 0 0 0 2.545-2.542 2.537 2.537 0 0 0-2.545-2.536 2.537 2.537 0 0 0-2.547 2.536M28.853 86.334a2.537 2.537 0 0 0 2.547 2.538 2.538 2.538 0 1 0 0-5.078 2.539 2.539 0 0 0-2.547 2.54M28.853 99.873a2.54 2.54 0 0 0 2.547 2.54 2.54 2.54 0 1 0 0-5.078 2.54 2.54 0 0 0-2.547 2.538M28.853 113.413a2.54 2.54 0 0 0 2.547 2.541 2.539 2.539 0 1 0 0-5.077 2.536 2.536 0 0 0-2.547 2.536M28.853 127.802c0 1.4 1.135 2.54 2.547 2.54 1.41 0 2.545-1.14 2.545-2.54a2.537 2.537 0 0 0-2.545-2.538 2.538 2.538 0 0 0-2.547 2.538M28.853 141.347a2.537 2.537 0 0 0 2.547 2.536 2.537 2.537 0 0 0 2.545-2.536 2.541 2.541 0 0 0-2.545-2.542 2.541 2.541 0 0 0-2.547 2.542M28.853 155.728a2.543 2.543 0 0 0 2.547 2.542 2.54 2.54 0 0 0 0-5.078 2.54 2.54 0 0 0-2.547 2.536M28.853 169.273a2.538 2.538 0 0 0 2.547 2.539 2.538 2.538 0 1 0 0-5.078 2.538 2.538 0 0 0-2.547 2.539M28.853 183.661A2.538 2.538 0 0 0 31.4 186.2a2.538 2.538 0 1 0 0-5.078 2.54 2.54 0 0 0-2.547 2.54M28.853 197.204a2.537 2.537 0 0 0 2.547 2.536 2.54 2.54 0 0 0 0-5.078 2.54 2.54 0 0 0-2.547 2.542M15.274 2.548a2.548 2.548 0 0 0 2.55 2.539 2.537 2.537 0 0 0 2.542-2.54A2.536 2.536 0 0 0 17.824.01a2.547 2.547 0 0 0-2.55 2.539M15.274 16.087a2.553 2.553 0 0 0 2.55 2.54 2.54 2.54 0 0 0 0-5.078 2.55 2.55 0 0 0-2.55 2.538M15.274 30.475c0 1.4 1.149 2.54 2.55 2.54a2.54 2.54 0 1 0 0-5.078 2.546 2.546 0 0 0-2.55 2.538M15.274 44.022c0 1.395 1.149 2.534 2.55 2.534a2.538 2.538 0 1 0 0-5.078 2.551 2.551 0 0 0-2.55 2.544M15.274 58.404a2.554 2.554 0 0 0 2.55 2.54 2.542 2.542 0 0 0 2.542-2.54 2.535 2.535 0 0 0-2.542-2.538 2.546 2.546 0 0 0-2.55 2.538M15.274 71.943a2.55 2.55 0 0 0 2.55 2.542 2.54 2.54 0 1 0 0-5.078 2.547 2.547 0 0 0-2.55 2.536M15.274 86.334a2.546 2.546 0 0 0 2.55 2.538 2.535 2.535 0 0 0 2.542-2.538 2.537 2.537 0 0 0-2.542-2.54 2.548 2.548 0 0 0-2.55 2.54M15.274 99.873a2.549 2.549 0 0 0 2.55 2.54 2.538 2.538 0 0 0 2.542-2.54 2.537 2.537 0 0 0-2.542-2.538 2.548 2.548 0 0 0-2.55 2.538M15.274 113.413a2.549 2.549 0 0 0 2.55 2.541 2.537 2.537 0 0 0 2.542-2.54 2.534 2.534 0 0 0-2.542-2.537 2.545 2.545 0 0 0-2.55 2.536M15.274 127.802c0 1.4 1.149 2.54 2.55 2.54a2.54 2.54 0 0 0 2.542-2.54 2.536 2.536 0 0 0-2.542-2.538 2.547 2.547 0 0 0-2.55 2.538M15.274 141.347a2.547 2.547 0 0 0 2.55 2.536 2.54 2.54 0 0 0 0-5.078 2.55 2.55 0 0 0-2.55 2.542M15.274 155.728a2.552 2.552 0 0 0 2.55 2.542 2.538 2.538 0 1 0 0-5.078 2.55 2.55 0 0 0-2.55 2.536M15.274 169.273a2.548 2.548 0 0 0 2.55 2.539 2.536 2.536 0 0 0 2.542-2.54 2.536 2.536 0 0 0-2.542-2.538 2.548 2.548 0 0 0-2.55 2.539M15.274 183.661a2.548 2.548 0 0 0 2.55 2.538 2.538 2.538 0 1 0 0-5.078 2.55 2.55 0 0 0-2.55 2.54M15.274 197.204a2.547 2.547 0 0 0 2.55 2.536 2.538 2.538 0 1 0 0-5.078 2.55 2.55 0 0 0-2.55 2.542M.872 2.548a2.54 2.54 0 0 0 2.534 2.539c1.408 0 2.558-1.136 2.558-2.54A2.55 2.55 0 0 0 3.406.01 2.54 2.54 0 0 0 .872 2.548M.872 16.087a2.545 2.545 0 0 0 2.534 2.54c1.408 0 2.558-1.141 2.558-2.54 0-1.397-1.15-2.537-2.558-2.537a2.543 2.543 0 0 0-2.534 2.537M.872 30.475c0 1.4 1.142 2.54 2.534 2.54 1.408 0 2.558-1.14 2.558-2.54a2.548 2.548 0 0 0-2.558-2.538 2.538 2.538 0 0 0-2.534 2.538M.872 44.022a2.542 2.542 0 0 0 2.534 2.534c1.408 0 2.558-1.139 2.558-2.534a2.554 2.554 0 0 0-2.558-2.544 2.544 2.544 0 0 0-2.534 2.544M.872 58.404a2.546 2.546 0 0 0 2.534 2.54c1.408 0 2.558-1.144 2.558-2.54 0-1.405-1.15-2.538-2.558-2.538a2.539 2.539 0 0 0-2.534 2.538M.872 71.943a2.543 2.543 0 0 0 2.534 2.542 2.553 2.553 0 0 0 2.558-2.542c0-1.402-1.15-2.536-2.558-2.536a2.539 2.539 0 0 0-2.534 2.536M.872 86.334a2.539 2.539 0 0 0 2.534 2.538c1.408 0 2.558-1.133 2.558-2.538a2.55 2.55 0 0 0-2.558-2.54 2.54 2.54 0 0 0-2.534 2.54M.872 99.873a2.541 2.541 0 0 0 2.534 2.54 2.552 2.552 0 0 0 2.558-2.54c0-1.401-1.15-2.538-2.558-2.538a2.54 2.54 0 0 0-2.534 2.538M.872 113.413a2.541 2.541 0 0 0 2.534 2.541 2.551 2.551 0 0 0 2.558-2.54c0-1.406-1.15-2.537-2.558-2.537a2.537 2.537 0 0 0-2.534 2.536M.872 127.802c0 1.4 1.142 2.54 2.534 2.54 1.408 0 2.558-1.14 2.558-2.54 0-1.404-1.15-2.538-2.558-2.538a2.54 2.54 0 0 0-2.534 2.538M.872 141.347a2.539 2.539 0 0 0 2.534 2.536c1.408 0 2.558-1.134 2.558-2.536a2.553 2.553 0 0 0-2.558-2.542 2.543 2.543 0 0 0-2.534 2.542M.872 155.728a2.544 2.544 0 0 0 2.534 2.542 2.555 2.555 0 0 0 2.558-2.542c0-1.397-1.15-2.535-2.558-2.535a2.542 2.542 0 0 0-2.534 2.535M.872 169.273a2.54 2.54 0 0 0 2.534 2.539 2.55 2.55 0 0 0 2.558-2.54 2.55 2.55 0 0 0-2.558-2.538 2.54 2.54 0 0 0-2.534 2.539M.872 183.661a2.54 2.54 0 0 0 2.534 2.538c1.408 0 2.558-1.135 2.558-2.538 0-1.403-1.15-2.54-2.558-2.54a2.542 2.542 0 0 0-2.534 2.54M.872 197.204a2.539 2.539 0 0 0 2.534 2.536c1.408 0 2.558-1.134 2.558-2.536a2.552 2.552 0 0 0-2.558-2.542 2.542 2.542 0 0 0-2.534 2.542"/>
  </g>
</svg>