<svg width="101" height="227" viewBox="0 0 101 227" xmlns="http://www.w3.org/2000/svg">
  <title>
    footer
  </title>
  <g fill="#3EB0FD" fill-rule="nonzero" opacity=".45">
    <path d="M94.833 2.881a2.882 2.882 0 0 0 2.893 2.882 2.888 2.888 0 0 0 2.89-2.882A2.886 2.886 0 0 0 97.726 0a2.88 2.88 0 0 0-2.893 2.881M94.833 18.247a2.888 2.888 0 0 0 2.893 2.883 2.893 2.893 0 0 0 2.89-2.883 2.89 2.89 0 0 0-2.89-2.88 2.885 2.885 0 0 0-2.893 2.88M94.833 34.576a2.892 2.892 0 0 0 5.783 0 2.885 2.885 0 0 0-2.89-2.88 2.88 2.88 0 0 0-2.893 2.88M94.833 49.95a2.884 2.884 0 0 0 2.893 2.876 2.89 2.89 0 0 0 2.89-2.877 2.891 2.891 0 0 0-5.783 0M94.833 66.272a2.888 2.888 0 0 0 2.893 2.882 2.894 2.894 0 0 0 2.89-2.882 2.886 2.886 0 0 0-2.89-2.88 2.88 2.88 0 0 0-2.893 2.88M94.833 81.637a2.885 2.885 0 0 0 2.893 2.885 2.89 2.89 0 0 0 2.89-2.885 2.886 2.886 0 0 0-2.89-2.878 2.88 2.88 0 0 0-2.893 2.878M94.833 97.97a2.88 2.88 0 0 0 2.893 2.88 2.886 2.886 0 0 0 2.89-2.88 2.888 2.888 0 0 0-2.89-2.883 2.882 2.882 0 0 0-2.893 2.883M94.833 113.335a2.883 2.883 0 0 0 2.893 2.882c1.591 0 2.89-1.29 2.89-2.882 0-1.59-1.299-2.88-2.89-2.88a2.883 2.883 0 0 0-2.893 2.88M94.833 128.701a2.883 2.883 0 0 0 2.893 2.884 2.889 2.889 0 0 0 2.89-2.884 2.884 2.884 0 0 0-2.89-2.879 2.879 2.879 0 0 0-2.893 2.88M94.833 145.03a2.892 2.892 0 0 0 5.783 0 2.887 2.887 0 0 0-2.89-2.88 2.881 2.881 0 0 0-2.893 2.88M94.833 160.403a2.88 2.88 0 0 0 2.893 2.878 2.886 2.886 0 0 0 2.89-2.878 2.89 2.89 0 0 0-2.89-2.885 2.885 2.885 0 0 0-2.893 2.885M94.833 176.724a2.892 2.892 0 0 0 5.783 0 2.89 2.89 0 0 0-2.89-2.878 2.884 2.884 0 0 0-2.893 2.878M94.833 192.095a2.882 2.882 0 0 0 2.893 2.881 2.887 2.887 0 0 0 2.89-2.881 2.887 2.887 0 0 0-2.89-2.882 2.882 2.882 0 0 0-2.893 2.882M94.833 208.424a2.882 2.882 0 0 0 2.893 2.88 2.887 2.887 0 0 0 2.89-2.88 2.89 2.89 0 0 0-2.89-2.882 2.884 2.884 0 0 0-2.893 2.882M94.833 223.794a2.88 2.88 0 0 0 2.893 2.878 2.886 2.886 0 0 0 2.89-2.878 2.89 2.89 0 0 0-2.89-2.885 2.884 2.884 0 0 0-2.893 2.885M79.413 2.881a2.882 2.882 0 0 0 2.893 2.882 2.882 2.882 0 1 0 0-5.763 2.88 2.88 0 0 0-2.893 2.881M79.413 18.247a2.888 2.888 0 0 0 2.893 2.883 2.887 2.887 0 0 0 2.89-2.883 2.885 2.885 0 0 0-2.89-2.88 2.885 2.885 0 0 0-2.893 2.88M79.413 34.576a2.886 2.886 0 0 0 2.893 2.882 2.886 2.886 0 0 0 2.89-2.882 2.879 2.879 0 0 0-2.89-2.88 2.88 2.88 0 0 0-2.893 2.88M79.413 49.95a2.884 2.884 0 0 0 2.893 2.876 2.883 2.883 0 0 0 2.89-2.877 2.885 2.885 0 0 0-2.89-2.886 2.886 2.886 0 0 0-2.893 2.886M79.413 66.272a2.888 2.888 0 0 0 2.893 2.882 2.888 2.888 0 0 0 2.89-2.882 2.88 2.88 0 0 0-2.89-2.88 2.88 2.88 0 0 0-2.893 2.88M79.413 81.637a2.885 2.885 0 0 0 2.893 2.885 2.885 2.885 0 0 0 2.89-2.885 2.88 2.88 0 0 0-2.89-2.878 2.88 2.88 0 0 0-2.893 2.878M79.413 97.97a2.88 2.88 0 0 0 2.893 2.88 2.882 2.882 0 0 0 0-5.763 2.882 2.882 0 0 0-2.893 2.883M79.413 113.335a2.883 2.883 0 0 0 2.893 2.882 2.883 2.883 0 1 0 0-5.762 2.883 2.883 0 0 0-2.893 2.88M79.413 128.701a2.883 2.883 0 0 0 2.893 2.884 2.882 2.882 0 1 0 0-5.763 2.879 2.879 0 0 0-2.893 2.88M79.413 145.03a2.886 2.886 0 0 0 2.893 2.883 2.88 2.88 0 1 0 0-5.763 2.881 2.881 0 0 0-2.893 2.88M79.413 160.403a2.88 2.88 0 0 0 2.893 2.878 2.88 2.88 0 0 0 2.89-2.878 2.885 2.885 0 0 0-2.89-2.885 2.885 2.885 0 0 0-2.893 2.885M79.413 176.724a2.887 2.887 0 0 0 2.893 2.885 2.886 2.886 0 0 0 2.89-2.885 2.883 2.883 0 0 0-2.89-2.878 2.884 2.884 0 0 0-2.893 2.878M79.413 192.095a2.882 2.882 0 0 0 2.893 2.881 2.881 2.881 0 1 0 0-5.763 2.882 2.882 0 0 0-2.893 2.882M79.413 208.424a2.882 2.882 0 0 0 2.893 2.88 2.881 2.881 0 1 0 0-5.762 2.884 2.884 0 0 0-2.893 2.882M79.413 223.794a2.88 2.88 0 0 0 2.893 2.878 2.88 2.88 0 0 0 2.89-2.878 2.883 2.883 0 0 0-2.89-2.885 2.884 2.884 0 0 0-2.893 2.885M63.029 2.881a2.884 2.884 0 0 0 2.878 2.882c1.599 0 2.905-1.289 2.905-2.882C68.812 1.286 67.506 0 65.907 0a2.883 2.883 0 0 0-2.878 2.881M63.029 18.247a2.89 2.89 0 0 0 2.878 2.883c1.599 0 2.905-1.296 2.905-2.883 0-1.586-1.306-2.88-2.905-2.88a2.887 2.887 0 0 0-2.878 2.88M63.029 34.576a2.888 2.888 0 0 0 2.878 2.882c1.599 0 2.905-1.294 2.905-2.882 0-1.596-1.306-2.88-2.905-2.88a2.881 2.881 0 0 0-2.878 2.88M63.029 49.95a2.885 2.885 0 0 0 2.878 2.876c1.599 0 2.905-1.292 2.905-2.877 0-1.593-1.306-2.886-2.905-2.886a2.887 2.887 0 0 0-2.878 2.886M63.029 66.272a2.89 2.89 0 0 0 2.878 2.882c1.599 0 2.905-1.298 2.905-2.882 0-1.595-1.306-2.88-2.905-2.88a2.882 2.882 0 0 0-2.878 2.88M63.029 81.637a2.887 2.887 0 0 0 2.878 2.885c1.599 0 2.905-1.292 2.905-2.885 0-1.59-1.306-2.878-2.905-2.878a2.882 2.882 0 0 0-2.878 2.878M63.029 97.97a2.882 2.882 0 0 0 2.878 2.88c1.599 0 2.905-1.286 2.905-2.88 0-1.595-1.306-2.883-2.905-2.883a2.884 2.884 0 0 0-2.878 2.883M63.029 113.335a2.885 2.885 0 0 0 2.878 2.882c1.599 0 2.905-1.29 2.905-2.882 0-1.59-1.306-2.88-2.905-2.88a2.884 2.884 0 0 0-2.878 2.88M63.029 128.701a2.885 2.885 0 0 0 2.878 2.884c1.599 0 2.905-1.289 2.905-2.884s-1.306-2.879-2.905-2.879a2.88 2.88 0 0 0-2.878 2.88M63.029 145.03a2.888 2.888 0 0 0 2.878 2.883c1.599 0 2.905-1.294 2.905-2.883 0-1.593-1.306-2.88-2.905-2.88a2.883 2.883 0 0 0-2.878 2.88M63.029 160.403a2.882 2.882 0 0 0 2.878 2.878c1.599 0 2.905-1.288 2.905-2.878 0-1.593-1.306-2.885-2.905-2.885a2.887 2.887 0 0 0-2.878 2.885M63.029 176.724a2.888 2.888 0 0 0 2.878 2.885c1.599 0 2.905-1.295 2.905-2.885 0-1.586-1.306-2.878-2.905-2.878a2.885 2.885 0 0 0-2.878 2.878M63.029 192.095a2.883 2.883 0 0 0 2.878 2.881c1.599 0 2.905-1.288 2.905-2.881 0-1.594-1.306-2.882-2.905-2.882a2.883 2.883 0 0 0-2.878 2.882M63.029 208.424a2.883 2.883 0 0 0 2.878 2.88c1.599 0 2.905-1.288 2.905-2.88 0-1.592-1.306-2.882-2.905-2.882a2.886 2.886 0 0 0-2.878 2.882M63.029 223.794a2.882 2.882 0 0 0 2.878 2.878c1.599 0 2.905-1.287 2.905-2.878 0-1.595-1.306-2.885-2.905-2.885a2.885 2.885 0 0 0-2.878 2.885M47.609 2.881A2.889 2.889 0 0 0 50.5 5.763a2.882 2.882 0 1 0 0-5.763 2.887 2.887 0 0 0-2.892 2.881M47.609 18.247A2.894 2.894 0 0 0 50.5 21.13a2.887 2.887 0 0 0 2.89-2.883 2.885 2.885 0 0 0-2.89-2.88 2.891 2.891 0 0 0-2.892 2.88M47.609 34.576a2.892 2.892 0 0 0 5.782 0 2.879 2.879 0 0 0-2.89-2.88 2.886 2.886 0 0 0-2.892 2.88M47.609 49.95a2.89 2.89 0 0 0 2.892 2.876 2.883 2.883 0 0 0 2.89-2.877 2.892 2.892 0 0 0-5.783 0M47.609 66.272a2.895 2.895 0 0 0 2.892 2.882 2.888 2.888 0 0 0 2.89-2.882 2.88 2.88 0 0 0-2.89-2.88 2.886 2.886 0 0 0-2.892 2.88M47.609 81.637a2.891 2.891 0 0 0 2.892 2.885 2.885 2.885 0 0 0 2.89-2.885 2.88 2.88 0 0 0-2.89-2.878 2.887 2.887 0 0 0-2.892 2.878M47.609 97.97a2.886 2.886 0 0 0 2.892 2.88 2.882 2.882 0 0 0 0-5.763 2.888 2.888 0 0 0-2.892 2.883M47.609 113.335a2.89 2.89 0 0 0 2.892 2.882 2.883 2.883 0 1 0 0-5.762 2.889 2.889 0 0 0-2.892 2.88M47.609 128.701a2.889 2.889 0 0 0 2.892 2.884 2.882 2.882 0 1 0 0-5.763 2.885 2.885 0 0 0-2.892 2.88M47.609 145.03a2.892 2.892 0 0 0 5.782 0 2.88 2.88 0 0 0-2.89-2.88 2.887 2.887 0 0 0-2.892 2.88M47.609 160.403a2.887 2.887 0 0 0 2.892 2.878 2.88 2.88 0 0 0 2.89-2.878 2.885 2.885 0 0 0-2.89-2.885 2.891 2.891 0 0 0-2.892 2.885M47.609 176.724a2.893 2.893 0 0 0 2.892 2.885 2.886 2.886 0 0 0 2.89-2.885 2.883 2.883 0 0 0-2.89-2.878 2.89 2.89 0 0 0-2.892 2.878M47.609 192.095a2.888 2.888 0 0 0 2.892 2.881 2.881 2.881 0 1 0 0-5.763 2.888 2.888 0 0 0-2.892 2.882M47.609 208.424a2.888 2.888 0 0 0 2.892 2.88 2.881 2.881 0 1 0 0-5.762 2.89 2.89 0 0 0-2.892 2.882M47.609 223.794a2.887 2.887 0 0 0 2.892 2.878 2.88 2.88 0 0 0 2.89-2.878 2.883 2.883 0 0 0-2.89-2.885 2.89 2.89 0 0 0-2.892 2.885M32.188 2.881a2.882 2.882 0 0 0 2.893 2.882 2.888 2.888 0 0 0 2.89-2.882A2.886 2.886 0 0 0 35.081 0a2.88 2.88 0 0 0-2.893 2.881M32.188 18.247a2.888 2.888 0 0 0 2.893 2.883 2.893 2.893 0 0 0 2.89-2.883 2.89 2.89 0 0 0-2.89-2.88 2.885 2.885 0 0 0-2.893 2.88M32.188 34.576a2.892 2.892 0 0 0 5.783 0 2.885 2.885 0 0 0-2.89-2.88 2.88 2.88 0 0 0-2.893 2.88M32.188 49.95a2.884 2.884 0 0 0 2.893 2.876 2.89 2.89 0 0 0 2.89-2.877 2.891 2.891 0 0 0-5.783 0M32.188 66.272a2.888 2.888 0 0 0 2.893 2.882 2.894 2.894 0 0 0 2.89-2.882 2.886 2.886 0 0 0-2.89-2.88 2.88 2.88 0 0 0-2.893 2.88M32.188 81.637a2.885 2.885 0 0 0 2.893 2.885 2.89 2.89 0 0 0 2.89-2.885 2.886 2.886 0 0 0-2.89-2.878 2.88 2.88 0 0 0-2.893 2.878M32.188 97.97a2.88 2.88 0 0 0 2.893 2.88 2.886 2.886 0 0 0 2.89-2.88 2.888 2.888 0 0 0-2.89-2.883 2.882 2.882 0 0 0-2.893 2.883M32.188 113.335a2.883 2.883 0 0 0 2.893 2.882c1.591 0 2.89-1.29 2.89-2.882 0-1.59-1.299-2.88-2.89-2.88a2.883 2.883 0 0 0-2.893 2.88M32.188 128.701a2.883 2.883 0 0 0 2.893 2.884 2.889 2.889 0 0 0 2.89-2.884 2.884 2.884 0 0 0-2.89-2.879 2.879 2.879 0 0 0-2.893 2.88M32.188 145.03a2.892 2.892 0 0 0 5.783 0 2.887 2.887 0 0 0-2.89-2.88 2.881 2.881 0 0 0-2.893 2.88M32.188 160.403a2.88 2.88 0 0 0 2.893 2.878 2.886 2.886 0 0 0 2.89-2.878 2.89 2.89 0 0 0-2.89-2.885 2.885 2.885 0 0 0-2.893 2.885M32.188 176.724a2.892 2.892 0 0 0 5.783 0 2.89 2.89 0 0 0-2.89-2.878 2.884 2.884 0 0 0-2.893 2.878M32.188 192.095a2.882 2.882 0 0 0 2.893 2.881 2.887 2.887 0 0 0 2.89-2.881 2.887 2.887 0 0 0-2.89-2.882 2.882 2.882 0 0 0-2.893 2.882M32.188 208.424a2.882 2.882 0 0 0 2.893 2.88 2.887 2.887 0 0 0 2.89-2.88 2.89 2.89 0 0 0-2.89-2.882 2.884 2.884 0 0 0-2.893 2.882M32.188 223.794a2.88 2.88 0 0 0 2.893 2.878 2.886 2.886 0 0 0 2.89-2.878 2.89 2.89 0 0 0-2.89-2.885 2.884 2.884 0 0 0-2.893 2.885M15.804 2.881a2.882 2.882 0 0 0 2.893 2.882 2.882 2.882 0 1 0 0-5.763 2.88 2.88 0 0 0-2.893 2.881M15.804 18.247a2.888 2.888 0 0 0 2.893 2.883 2.887 2.887 0 0 0 2.89-2.883 2.885 2.885 0 0 0-2.89-2.88 2.885 2.885 0 0 0-2.893 2.88M15.804 34.576a2.886 2.886 0 0 0 2.893 2.882 2.886 2.886 0 0 0 2.89-2.882 2.879 2.879 0 0 0-2.89-2.88 2.88 2.88 0 0 0-2.893 2.88M15.804 49.95a2.884 2.884 0 0 0 2.893 2.876 2.883 2.883 0 0 0 2.89-2.877 2.885 2.885 0 0 0-2.89-2.886 2.886 2.886 0 0 0-2.893 2.886M15.804 66.272a2.888 2.888 0 0 0 2.893 2.882 2.888 2.888 0 0 0 2.89-2.882 2.88 2.88 0 0 0-2.89-2.88 2.88 2.88 0 0 0-2.893 2.88M15.804 81.637a2.885 2.885 0 0 0 2.893 2.885 2.885 2.885 0 0 0 2.89-2.885 2.88 2.88 0 0 0-2.89-2.878 2.88 2.88 0 0 0-2.893 2.878M15.804 97.97a2.88 2.88 0 0 0 2.893 2.88 2.882 2.882 0 0 0 0-5.763 2.882 2.882 0 0 0-2.893 2.883M15.804 113.335a2.883 2.883 0 0 0 2.893 2.882 2.883 2.883 0 1 0 0-5.762 2.883 2.883 0 0 0-2.893 2.88M15.804 128.701a2.883 2.883 0 0 0 2.893 2.884 2.882 2.882 0 1 0 0-5.763 2.879 2.879 0 0 0-2.893 2.88M15.804 145.03a2.886 2.886 0 0 0 2.893 2.883 2.88 2.88 0 1 0 0-5.763 2.881 2.881 0 0 0-2.893 2.88M15.804 160.403a2.88 2.88 0 0 0 2.893 2.878 2.88 2.88 0 0 0 2.89-2.878 2.885 2.885 0 0 0-2.89-2.885 2.885 2.885 0 0 0-2.893 2.885M15.804 176.724a2.887 2.887 0 0 0 2.893 2.885 2.886 2.886 0 0 0 2.89-2.885 2.883 2.883 0 0 0-2.89-2.878 2.884 2.884 0 0 0-2.893 2.878M15.804 192.095a2.882 2.882 0 0 0 2.893 2.881 2.881 2.881 0 1 0 0-5.763 2.882 2.882 0 0 0-2.893 2.882M15.804 208.424a2.882 2.882 0 0 0 2.893 2.88 2.881 2.881 0 1 0 0-5.762 2.884 2.884 0 0 0-2.893 2.882M15.804 223.794a2.88 2.88 0 0 0 2.893 2.878 2.88 2.88 0 0 0 2.89-2.878 2.883 2.883 0 0 0-2.89-2.885 2.884 2.884 0 0 0-2.893 2.885M.384 2.881A2.893 2.893 0 0 0 3.28 5.763 2.88 2.88 0 0 0 6.167 2.88 2.879 2.879 0 0 0 3.28 0 2.891 2.891 0 0 0 .384 2.881M.384 18.247A2.898 2.898 0 0 0 3.28 21.13c1.6 0 2.887-1.296 2.887-2.883a2.883 2.883 0 0 0-2.887-2.88c-1.592 0-2.896 1.294-2.896 2.88M.384 34.576c0 1.588 1.304 2.882 2.896 2.882 1.6 0 2.887-1.294 2.887-2.882a2.877 2.877 0 0 0-2.887-2.88 2.89 2.89 0 0 0-2.896 2.88M.384 49.95c0 1.584 1.304 2.876 2.896 2.876a2.881 2.881 0 1 0 0-5.763A2.896 2.896 0 0 0 .384 49.95M.384 66.272c0 1.584 1.304 2.882 2.896 2.882 1.6 0 2.887-1.298 2.887-2.882a2.878 2.878 0 0 0-2.887-2.88 2.89 2.89 0 0 0-2.896 2.88M.384 81.637a2.896 2.896 0 0 0 2.896 2.885c1.6 0 2.887-1.292 2.887-2.885a2.878 2.878 0 0 0-2.887-2.878c-1.592 0-2.896 1.287-2.896 2.878M.384 97.97a2.89 2.89 0 0 0 2.896 2.88c1.6 0 2.887-1.286 2.887-2.88a2.88 2.88 0 0 0-2.887-2.883A2.893 2.893 0 0 0 .384 97.97M.384 113.335a2.894 2.894 0 0 0 2.896 2.882 2.88 2.88 0 1 0 0-5.762c-1.592 0-2.896 1.29-2.896 2.88M.384 128.701a2.893 2.893 0 0 0 2.896 2.884 2.88 2.88 0 0 0 2.887-2.884 2.877 2.877 0 0 0-2.887-2.879c-1.592 0-2.896 1.284-2.896 2.88M.384 145.03c0 1.589 1.304 2.883 2.896 2.883 1.6 0 2.887-1.294 2.887-2.883a2.879 2.879 0 0 0-2.887-2.88c-1.592 0-2.896 1.287-2.896 2.88M.384 160.403c0 1.59 1.304 2.878 2.896 2.878 1.6 0 2.887-1.288 2.887-2.878a2.883 2.883 0 0 0-2.887-2.885 2.896 2.896 0 0 0-2.896 2.885M.384 176.724a2.897 2.897 0 0 0 2.896 2.885 2.881 2.881 0 1 0 0-5.763c-1.592 0-2.896 1.292-2.896 2.878M.384 192.095a2.892 2.892 0 0 0 2.896 2.881 2.88 2.88 0 0 0 2.887-2.881 2.88 2.88 0 0 0-2.887-2.882 2.892 2.892 0 0 0-2.896 2.882M.384 208.424c0 1.592 1.304 2.88 2.896 2.88a2.882 2.882 0 0 0 0-5.763 2.894 2.894 0 0 0-2.896 2.883M.384 223.794c0 1.59 1.304 2.878 2.896 2.878a2.881 2.881 0 1 0 0-5.763 2.894 2.894 0 0 0-2.896 2.885"/>
  </g>
</svg>