<svg width="103" height="108" xmlns="http://www.w3.org/2000/svg"><g fill="none" fill-rule="evenodd"><path d="M29.031 6.06C45.775-.457 49.18-9.118 85.42 24.564S72.319 137.97 29.49 96.154C-13.34 54.34 12.287 12.578 29.03 6.06z" fill="#9CD7FE" opacity=".9"/><path d="M89.554 18.229c11.599 13.889 20.864 14.311.975 60.017-19.89 45.707-111.047 24.593-85.65-30.082C30.276-6.51 77.956 4.34 89.554 18.23z" fill="#9CD7FE" opacity=".3"/><path d="M72.949 37.187l-.771-.771-10.093-10.094-.771-.771A1.867 1.867 0 0 0 59.985 25H30.963a2.465 2.465 0 0 0-2.463 2.463v53.074A2.465 2.465 0 0 0 30.963 83h40.074a2.465 2.465 0 0 0 2.463-2.463V38.515c0-.501-.195-.973-.551-1.328zM69.935 37H61.5v-8.435L69.935 37zm1.102 44H51.5V69h4V59h-4v-2h2v-2h-2v-2h2v-2h-2v-2h2v-2h-2v-2h-2v2h-2v2h2v2h-2v2h2v2h-2v2h2v2h-4v10h4v12H30.963a.464.464 0 0 1-.463-.463V27.463c0-.255.208-.463.463-.463h28.595a1.54 1.54 0 0 0-.058.392V39h11.608c.135 0 .265-.025.392-.058v41.595a.464.464 0 0 1-.463.463zM53.5 61v1h-6v-1h6zm-6 3h6v3h-6v-3z" fill="#FFF" fill-rule="nonzero"/></g></svg>