<svg width="470" height="580" viewBox="0 0 470 580" xmlns="http://www.w3.org/2000/svg">
  <title>Header Pattern Right</title>
  <g fill="none" fill-rule="evenodd">
    <g opacity=".35">
      <g opacity=".9">
        <path stroke="#FFF" stroke-width="1.28" d="M453.446 334.68v79.72h-48.72v-79.72z"/>
        <path fill="#FFF" d="M452.787 342.396v1.286h-48.701v-1.286z"/>
        <path fill="#FFF" d="M444.346 335.325h1.298v79.714h-1.298zM435.904 335.325h1.299v79.714h-1.299zM428.112 335.325h1.299v79.714h-1.3zM420.32 335.325h1.298v79.714h-1.298zM412.527 335.325h1.3v79.714h-1.3z"/>
        <path fill="#FFF" d="M452.787 350.11v1.286h-48.701v-1.286zM452.787 358.468v1.286h-48.701v-1.286zM452.787 366.182v1.286h-48.701v-1.286zM452.787 373.896v1.286h-48.701v-1.286zM452.787 381.61v1.286h-48.701v-1.286zM452.787 389.968v1.286h-48.701v-1.286zM452.787 397.682v1.286h-48.701v-1.286zM452.787 405.396v1.286h-48.701v-1.286z"/>
      </g>
      <g opacity=".7">
        <path stroke="#FFF" stroke-width="1.12" d="M278.146 309.98V240.1h41.88v69.88z"/>
        <path fill="#FFF" d="M278.703 303.214v-1.127h41.883v1.127z"/>
        <path fill="#FFF" d="M285.963 309.412h-1.117V239.54h1.117zM293.222 309.412h-1.117V239.54h1.117zM299.924 309.412h-1.117V239.54h1.117zM306.625 309.412h-1.117V239.54h1.117zM313.326 309.412h-1.117V239.54h1.117z"/>
        <path fill="#FFF" d="M278.703 296.452v-1.127h41.883v1.127zM278.703 289.126V288h41.883v1.127zM278.703 282.364v-1.127h41.883v1.127zM278.703 275.602v-1.127h41.883v1.127zM278.703 268.841v-1.127h41.883v1.127zM278.703 261.515v-1.127h41.883v1.127zM278.703 254.753v-1.127h41.883v1.127zM278.703 247.991v-1.127h41.883v1.127z"/>
      </g>
      <g opacity=".295">
        <path stroke="#FFF" stroke-width="1.6" d="M296.786 449.74h-99.4v-60.4h99.4z"/>
        <path fill="#FFF" d="M287.165 448.93h-1.603v-60.39h1.603z"/>
        <path fill="#FFF" d="M295.983 438.461v1.61h-99.397v-1.61zM295.983 427.994v1.61h-99.397v-1.61zM295.983 418.331v1.61h-99.397v-1.61zM295.983 408.669v1.61h-99.397v-1.61zM295.983 399.007v1.61h-99.397v-1.61z"/>
        <path fill="#FFF" d="M277.546 448.93h-1.603v-60.39h1.603zM267.126 448.93h-1.603v-60.39h1.603zM257.507 448.93h-1.603v-60.39h1.603zM247.888 448.93h-1.603v-60.39h1.603zM238.269 448.93h-1.603v-60.39h1.603zM227.848 448.93h-1.603v-60.39h1.603zM218.229 448.93h-1.603v-60.39h1.603zM208.61 448.93h-1.603v-60.39h1.603z"/>
      </g>
      <g opacity=".8">
        <path stroke="#FFF" stroke-width="2" d="M412.586-11.46v124h-38v-124z"/>
        <path fill="#FFF" d="M411.586.54v2h-37v-2z"/>
        <path fill="#FFF" d="M398.586-10.46h2v124h-2zM385.586-10.46h2v124h-2z"/>
        <path fill="#FFF" d="M411.586 12.54v2h-37v-2zM411.586 25.54v2h-37v-2zM411.586 37.54v2h-37v-2zM411.586 49.54v2h-37v-2zM411.586 61.54v2h-37v-2zM411.586 74.54v2h-37v-2zM411.586 86.54v2h-37v-2zM411.586 98.54v2h-37v-2z"/>
      </g>
      <g opacity=".5">
        <path stroke="#FFF" stroke-width="1.6" d="M443.286 563.84v99.4h-30.4v-99.4z"/>
        <path fill="#FFF" d="M442.486 573.46v1.603h-29.6v-1.603z"/>
        <path fill="#FFF" d="M432.086 564.642h1.6v99.397h-1.6zM421.686 564.642h1.6v99.397h-1.6z"/>
      </g>
      <g opacity=".5">
        <path stroke="#FFF" stroke-width="1.6" d="M328.886 533.24v-99.4h60.4v99.4z"/>
        <path fill="#FFF" d="M329.696 523.618v-1.603h60.39v1.603z"/>
        <path fill="#FFF" d="M340.164 532.436h-1.61v-99.397h1.61zM350.631 532.436h-1.61v-99.397h1.61zM360.294 532.436h-1.61v-99.397h1.61zM369.956 532.436h-1.61v-99.397h1.61zM379.618 532.436h-1.61v-99.397h1.61z"/>
        <path fill="#FFF" d="M329.696 514v-1.604h60.39V514zM329.696 503.58v-1.604h60.39v1.603zM329.696 493.96v-1.603h60.39v1.603zM329.696 484.341v-1.603h60.39v1.603zM329.696 474.722v-1.603h60.39v1.603zM329.696 464.301v-1.603h60.39v1.603zM329.696 454.682v-1.603h60.39v1.603zM329.696 445.063v-1.603h60.39v1.603z"/>
      </g>
      <g opacity=".9" fill="#FFF">
        <path d="M370.672 164.715a.755.755 0 0 0 1.07 0l10.174-10.237a.764.764 0 0 0 0-1.077.755.755 0 0 0-1.071 0l-10.173 10.236a.764.764 0 0 0 0 1.078zM370.672 174.62a.755.755 0 0 0 1.07 0l18.838-18.956a.764.764 0 0 0 0-1.077.755.755 0 0 0-1.07 0l-18.838 18.955a.764.764 0 0 0 0 1.077zM370.672 184.524a.755.755 0 0 0 1.07 0l30.575-30.765a.764.764 0 0 0 0-1.077.755.755 0 0 0-1.071 0l-30.574 30.765a.764.764 0 0 0 0 1.077zM370.672 194.429a.755.755 0 0 0 1.07 0l40.418-40.67a.764.764 0 0 0 0-1.077.755.755 0 0 0-1.07 0l-40.418 40.67a.764.764 0 0 0 0 1.077zM370.672 205.096a.755.755 0 0 0 1.07 0l51.018-51.337a.764.764 0 0 0 0-1.077.755.755 0 0 0-1.07 0l-51.018 51.336a.764.764 0 0 0 0 1.078zM370.672 215a.755.755 0 0 0 1.07 0l61.24-61.622a.764.764 0 0 0 0-1.077.755.755 0 0 0-1.07 0l-61.24 61.622a.764.764 0 0 0 0 1.077zM380.515 215a.755.755 0 0 0 1.071 0l61.24-61.622a.764.764 0 0 0 0-1.077.755.755 0 0 0-1.071 0l-61.24 61.622a.764.764 0 0 0 0 1.077zM391.116 215a.755.755 0 0 0 1.07 0l61.24-61.622a.764.764 0 0 0 0-1.077.755.755 0 0 0-1.07 0l-61.24 61.622a.764.764 0 0 0 0 1.077zM400.96 215a.755.755 0 0 0 1.07 0l61.24-61.622a.764.764 0 0 0 0-1.077.755.755 0 0 0-1.071 0l-61.24 61.622a.764.764 0 0 0 0 1.077zM411.56 215a.755.755 0 0 0 1.07 0l61.24-61.622a.764.764 0 0 0 0-1.077.755.755 0 0 0-1.071 0l-61.24 61.622a.764.764 0 0 0 0 1.077zM422.16 215a.755.755 0 0 0 1.07 0l49.883-50.193a.764.764 0 0 0 0-1.077.755.755 0 0 0-1.071 0l-49.882 50.193a.764.764 0 0 0 0 1.077zM432.003 215a.755.755 0 0 0 1.071 0l40.796-41.05a.764.764 0 0 0 0-1.078.755.755 0 0 0-1.071 0l-40.796 41.05a.764.764 0 0 0 0 1.078zM441.847 215a.755.755 0 0 0 1.07 0l30.953-31.145a.764.764 0 0 0 0-1.078.755.755 0 0 0-1.071 0l-30.952 31.146a.764.764 0 0 0 0 1.077zM452.447 215a.755.755 0 0 0 1.07 0l20.353-20.479a.764.764 0 0 0 0-1.077.755.755 0 0 0-1.071 0l-20.352 20.479a.764.764 0 0 0 0 1.077zM462.29 215a.755.755 0 0 0 1.071 0l10.509-10.574a.764.764 0 0 0 0-1.077.755.755 0 0 0-1.071 0l-10.509 10.574a.764.764 0 0 0 0 1.077z"/>
      </g>
      <g opacity=".9" fill="#FFF">
        <path d="M206.672 24.715a.755.755 0 0 0 1.07 0l10.174-10.237a.764.764 0 0 0 0-1.077.755.755 0 0 0-1.071 0l-10.173 10.236a.764.764 0 0 0 0 1.078zM206.672 34.62a.755.755 0 0 0 1.07 0l18.838-18.956a.764.764 0 0 0 0-1.077.755.755 0 0 0-1.07 0l-18.838 18.955a.764.764 0 0 0 0 1.077zM206.672 44.524a.755.755 0 0 0 1.07 0l30.575-30.765a.764.764 0 0 0 0-1.077.755.755 0 0 0-1.071 0l-30.574 30.765a.764.764 0 0 0 0 1.077zM206.672 54.429a.755.755 0 0 0 1.07 0l40.418-40.67a.764.764 0 0 0 0-1.077.755.755 0 0 0-1.07 0l-40.418 40.67a.764.764 0 0 0 0 1.077zM206.672 65.096a.755.755 0 0 0 1.07 0l51.018-51.337a.764.764 0 0 0 0-1.077.755.755 0 0 0-1.07 0l-51.018 51.336a.764.764 0 0 0 0 1.078zM206.672 75a.755.755 0 0 0 1.07 0l61.24-61.622a.764.764 0 0 0 0-1.077.755.755 0 0 0-1.07 0l-61.24 61.622a.764.764 0 0 0 0 1.077zM216.515 75a.755.755 0 0 0 1.071 0l61.24-61.622a.764.764 0 0 0 0-1.077.755.755 0 0 0-1.071 0l-61.24 61.622a.764.764 0 0 0 0 1.077zM227.116 75a.755.755 0 0 0 1.07 0l61.24-61.622a.764.764 0 0 0 0-1.077.755.755 0 0 0-1.07 0l-61.24 61.622a.764.764 0 0 0 0 1.077zM236.96 75a.755.755 0 0 0 1.07 0l61.24-61.622a.764.764 0 0 0 0-1.077.755.755 0 0 0-1.071 0l-61.24 61.622a.764.764 0 0 0 0 1.077zM247.56 75a.755.755 0 0 0 1.07 0l61.24-61.622a.764.764 0 0 0 0-1.077.755.755 0 0 0-1.071 0l-61.24 61.622a.764.764 0 0 0 0 1.077zM258.16 75a.755.755 0 0 0 1.07 0l49.883-50.193a.764.764 0 0 0 0-1.077.755.755 0 0 0-1.071 0L258.16 73.923a.764.764 0 0 0 0 1.077zM268.003 75a.755.755 0 0 0 1.071 0l40.796-41.05a.764.764 0 0 0 0-1.078.755.755 0 0 0-1.071 0l-40.796 41.05a.764.764 0 0 0 0 1.078zM277.847 75a.755.755 0 0 0 1.07 0l30.953-31.145a.764.764 0 0 0 0-1.078.755.755 0 0 0-1.071 0l-30.952 31.146a.764.764 0 0 0 0 1.077zM288.447 75a.755.755 0 0 0 1.07 0l20.353-20.479a.764.764 0 0 0 0-1.077.755.755 0 0 0-1.071 0l-20.352 20.479a.764.764 0 0 0 0 1.077zM298.29 75a.755.755 0 0 0 1.071 0l10.509-10.574a.764.764 0 0 0 0-1.077.755.755 0 0 0-1.071 0L298.29 73.923a.764.764 0 0 0 0 1.077z"/>
      </g>
      <g fill="#FFF">
        <path d="M513.028 449.96a.592.592 0 0 0-.838 0l-47.952 48.142a.596.596 0 0 0 0 .842.592.592 0 0 0 .838 0l47.952-48.142a.596.596 0 0 0 0-.842zM504.728 449.96a.592.592 0 0 0-.839 0l-47.951 48.142a.596.596 0 0 0 0 .842.592.592 0 0 0 .838 0l47.952-48.142a.596.596 0 0 0 0-.842zM497.02 449.96a.592.592 0 0 0-.838 0l-47.952 48.142a.596.596 0 0 0 0 .842.592.592 0 0 0 .839 0l47.951-48.142a.596.596 0 0 0 0-.842zM488.72 449.96a.592.592 0 0 0-.839 0l-47.951 48.142a.596.596 0 0 0 0 .842.592.592 0 0 0 .838 0l47.952-48.142a.596.596 0 0 0 0-.842zM480.42 449.96a.592.592 0 0 0-.84 0l-39.057 39.213a.596.596 0 0 0 0 .842.592.592 0 0 0 .838 0l39.058-39.213a.596.596 0 0 0 0-.842zM472.712 449.96a.592.592 0 0 0-.839 0l-31.943 32.07a.596.596 0 0 0 0 .842.592.592 0 0 0 .838 0l31.944-32.07a.596.596 0 0 0 0-.842zM465.004 449.96a.592.592 0 0 0-.838 0l-24.236 24.333a.596.596 0 0 0 0 .841.592.592 0 0 0 .838 0l24.236-24.332a.596.596 0 0 0 0-.842zM456.704 449.96a.592.592 0 0 0-.838 0l-15.936 16a.596.596 0 0 0 0 .841.592.592 0 0 0 .838 0l15.936-16a.596.596 0 0 0 0-.841zM448.997 449.96a.592.592 0 0 0-.839 0l-8.228 8.261a.596.596 0 0 0 0 .842.592.592 0 0 0 .838 0l8.229-8.261a.596.596 0 0 0 0-.842z"/>
      </g>
    </g>
    <g opacity=".9">
      <path stroke="#FFF" stroke-width="1.28" d="M444.446 318.68v79.72h-48.72v-79.72z"/>
      <path fill="#FFF" d="M443.787 326.396v1.286h-48.701v-1.286z"/>
      <path fill="#FFF" d="M435.346 319.325h1.298v79.714h-1.298zM426.904 319.325h1.299v79.714h-1.299zM419.112 319.325h1.299v79.714h-1.3zM411.32 319.325h1.298v79.714h-1.298zM403.527 319.325h1.3v79.714h-1.3z"/>
      <path fill="#FFF" d="M443.787 334.11v1.286h-48.701v-1.286zM443.787 342.468v1.286h-48.701v-1.286zM443.787 350.182v1.286h-48.701v-1.286zM443.787 357.896v1.286h-48.701v-1.286zM443.787 365.61v1.286h-48.701v-1.286zM443.787 373.968v1.286h-48.701v-1.286zM443.787 381.682v1.286h-48.701v-1.286zM443.787 389.396v1.286h-48.701v-1.286z"/>
    </g>
    <g opacity=".7">
      <path stroke="#FFF" stroke-width="1.12" d="M269.146 292.98V223.1h41.88v69.88z"/>
      <path fill="#FFF" d="M269.703 286.214v-1.127h41.883v1.127z"/>
      <path fill="#FFF" d="M276.963 292.412h-1.117V222.54h1.117zM284.222 292.412h-1.117V222.54h1.117zM290.924 292.412h-1.117V222.54h1.117zM297.625 292.412h-1.117V222.54h1.117zM304.326 292.412h-1.117V222.54h1.117z"/>
      <path fill="#FFF" d="M269.703 279.452v-1.127h41.883v1.127zM269.703 272.126V271h41.883v1.127zM269.703 265.364v-1.127h41.883v1.127zM269.703 258.602v-1.127h41.883v1.127zM269.703 251.841v-1.127h41.883v1.127zM269.703 244.515v-1.127h41.883v1.127zM269.703 237.753v-1.127h41.883v1.127zM269.703 230.991v-1.127h41.883v1.127z"/>
    </g>
    <g opacity=".8">
      <path stroke="#FFF" stroke-width="1.6" d="M285.786 438.74h-99.4v-60.4h99.4z"/>
      <path fill="#FFF" d="M276.165 437.93h-1.603v-60.39h1.603z"/>
      <path fill="#FFF" d="M284.983 427.461v1.61h-99.397v-1.61zM284.983 416.994v1.61h-99.397v-1.61zM284.983 407.331v1.61h-99.397v-1.61zM284.983 397.669v1.61h-99.397v-1.61zM284.983 388.007v1.61h-99.397v-1.61z"/>
      <path fill="#FFF" d="M266.546 437.93h-1.603v-60.39h1.603zM256.126 437.93h-1.603v-60.39h1.603zM246.507 437.93h-1.603v-60.39h1.603zM236.888 437.93h-1.603v-60.39h1.603zM227.269 437.93h-1.603v-60.39h1.603zM216.848 437.93h-1.603v-60.39h1.603zM207.229 437.93h-1.603v-60.39h1.603zM197.61 437.93h-1.603v-60.39h1.603z"/>
    </g>
    <g opacity=".8">
      <path stroke="#FFF" stroke-width="2" d="M399.586-24.46v124h-38v-124z"/>
      <path fill="#FFF" d="M385.586-23.46h2v124h-2zM372.586-23.46h2v124h-2z"/>
      <path fill="#FFF" d="M398.586-.46v2h-37v-2zM398.586 12.54v2h-37v-2zM398.586 24.54v2h-37v-2zM398.586 36.54v2h-37v-2zM398.586 48.54v2h-37v-2zM398.586 61.54v2h-37v-2zM398.586 73.54v2h-37v-2zM398.586 85.54v2h-37v-2z"/>
    </g>
    <g opacity=".5">
      <path stroke="#FFF" stroke-width="1.6" d="M432.286 553.84v99.4h-30.4v-99.4z"/>
      <path fill="#FFF" d="M431.486 563.46v1.603h-29.6v-1.603z"/>
      <path fill="#FFF" d="M421.086 554.642h1.6v99.397h-1.6zM410.686 554.642h1.6v99.397h-1.6z"/>
      <path fill="#FFF" d="M431.486 573.08v1.602h-29.6v-1.603z"/>
    </g>
    <g opacity=".5">
      <path stroke="#FFF" stroke-width="1.6" d="M317.886 522.24v-99.4h60.4v99.4z"/>
      <path fill="#FFF" d="M318.696 512.618v-1.603h60.39v1.603z"/>
      <path fill="#FFF" d="M329.164 521.436h-1.61v-99.397h1.61zM339.631 521.436h-1.61v-99.397h1.61zM349.294 521.436h-1.61v-99.397h1.61zM358.956 521.436h-1.61v-99.397h1.61zM368.618 521.436h-1.61v-99.397h1.61z"/>
      <path fill="#FFF" d="M318.696 503v-1.604h60.39V503zM318.696 492.58v-1.604h60.39v1.603zM318.696 482.96v-1.603h60.39v1.603zM318.696 473.341v-1.603h60.39v1.603zM318.696 463.722v-1.603h60.39v1.603zM318.696 453.301v-1.603h60.39v1.603zM318.696 443.682v-1.603h60.39v1.603zM318.696 434.063v-1.603h60.39v1.603z"/>
    </g>
    <g opacity=".9" fill="#FFF">
      <path d="M359.672 154.715a.755.755 0 0 0 1.07 0l10.174-10.237a.764.764 0 0 0 0-1.077.755.755 0 0 0-1.071 0l-10.173 10.236a.764.764 0 0 0 0 1.078zM359.672 164.62a.755.755 0 0 0 1.07 0l18.838-18.956a.764.764 0 0 0 0-1.077.755.755 0 0 0-1.07 0l-18.838 18.955a.764.764 0 0 0 0 1.077zM359.672 174.524a.755.755 0 0 0 1.07 0l30.575-30.765a.764.764 0 0 0 0-1.077.755.755 0 0 0-1.071 0l-30.574 30.765a.764.764 0 0 0 0 1.077zM359.672 184.429a.755.755 0 0 0 1.07 0l40.418-40.67a.764.764 0 0 0 0-1.077.755.755 0 0 0-1.07 0l-40.418 40.67a.764.764 0 0 0 0 1.077zM359.672 195.096a.755.755 0 0 0 1.07 0l51.018-51.337a.764.764 0 0 0 0-1.077.755.755 0 0 0-1.07 0l-51.018 51.336a.764.764 0 0 0 0 1.078zM359.672 205a.755.755 0 0 0 1.07 0l61.24-61.622a.764.764 0 0 0 0-1.077.755.755 0 0 0-1.07 0l-61.24 61.622a.764.764 0 0 0 0 1.077zM369.515 205a.755.755 0 0 0 1.071 0l61.24-61.622a.764.764 0 0 0 0-1.077.755.755 0 0 0-1.071 0l-61.24 61.622a.764.764 0 0 0 0 1.077zM380.116 205a.755.755 0 0 0 1.07 0l61.24-61.622a.764.764 0 0 0 0-1.077.755.755 0 0 0-1.07 0l-61.24 61.622a.764.764 0 0 0 0 1.077zM389.96 205a.755.755 0 0 0 1.07 0l61.24-61.622a.764.764 0 0 0 0-1.077.755.755 0 0 0-1.071 0l-61.24 61.622a.764.764 0 0 0 0 1.077zM400.56 205a.755.755 0 0 0 1.07 0l61.24-61.622a.764.764 0 0 0 0-1.077.755.755 0 0 0-1.071 0l-61.24 61.622a.764.764 0 0 0 0 1.077zM411.16 205a.755.755 0 0 0 1.07 0l49.883-50.193a.764.764 0 0 0 0-1.077.755.755 0 0 0-1.071 0l-49.882 50.193a.764.764 0 0 0 0 1.077zM421.003 205a.755.755 0 0 0 1.071 0l40.796-41.05a.764.764 0 0 0 0-1.078.755.755 0 0 0-1.071 0l-40.796 41.05a.764.764 0 0 0 0 1.078zM430.847 205a.755.755 0 0 0 1.07 0l30.953-31.145a.764.764 0 0 0 0-1.078.755.755 0 0 0-1.071 0l-30.952 31.146a.764.764 0 0 0 0 1.077zM441.447 205a.755.755 0 0 0 1.07 0l20.353-20.479a.764.764 0 0 0 0-1.077.755.755 0 0 0-1.071 0l-20.352 20.479a.764.764 0 0 0 0 1.077zM451.29 205a.755.755 0 0 0 1.071 0l10.509-10.574a.764.764 0 0 0 0-1.077.755.755 0 0 0-1.071 0l-10.509 10.574a.764.764 0 0 0 0 1.077z"/>
    </g>
    <g opacity=".9" fill="#FFF">
      <path d="M192.672 18.715a.755.755 0 0 0 1.07 0l10.174-10.237a.764.764 0 0 0 0-1.077.755.755 0 0 0-1.071 0l-10.173 10.236a.764.764 0 0 0 0 1.078zM192.672 28.62a.755.755 0 0 0 1.07 0L212.58 9.663a.764.764 0 0 0 0-1.077.755.755 0 0 0-1.07 0l-18.838 18.955a.764.764 0 0 0 0 1.077zM192.672 38.524a.755.755 0 0 0 1.07 0L224.318 7.76a.764.764 0 0 0 0-1.077.755.755 0 0 0-1.071 0l-30.574 30.765a.764.764 0 0 0 0 1.077zM192.672 48.429a.755.755 0 0 0 1.07 0l40.418-40.67a.764.764 0 0 0 0-1.077.755.755 0 0 0-1.07 0l-40.418 40.67a.764.764 0 0 0 0 1.077zM192.672 59.096a.755.755 0 0 0 1.07 0L244.76 7.759a.764.764 0 0 0 0-1.077.755.755 0 0 0-1.07 0l-51.018 51.336a.764.764 0 0 0 0 1.078zM192.672 69a.755.755 0 0 0 1.07 0l61.24-61.622a.764.764 0 0 0 0-1.077.755.755 0 0 0-1.07 0l-61.24 61.622a.764.764 0 0 0 0 1.077zM202.515 69a.755.755 0 0 0 1.071 0l61.24-61.622a.764.764 0 0 0 0-1.077.755.755 0 0 0-1.071 0l-61.24 61.622a.764.764 0 0 0 0 1.077zM213.116 69a.755.755 0 0 0 1.07 0l61.24-61.622a.764.764 0 0 0 0-1.077.755.755 0 0 0-1.07 0l-61.24 61.622a.764.764 0 0 0 0 1.077zM222.96 69a.755.755 0 0 0 1.07 0l61.24-61.622a.764.764 0 0 0 0-1.077.755.755 0 0 0-1.071 0l-61.24 61.622a.764.764 0 0 0 0 1.077zM233.56 69a.755.755 0 0 0 1.07 0l61.24-61.622a.764.764 0 0 0 0-1.077.755.755 0 0 0-1.071 0l-61.24 61.622a.764.764 0 0 0 0 1.077zM244.16 69a.755.755 0 0 0 1.07 0l49.883-50.193a.764.764 0 0 0 0-1.077.755.755 0 0 0-1.071 0L244.16 67.923a.764.764 0 0 0 0 1.077zM254.003 69a.755.755 0 0 0 1.071 0l40.796-41.05a.764.764 0 0 0 0-1.078.755.755 0 0 0-1.071 0l-40.796 41.05a.764.764 0 0 0 0 1.078zM263.847 69a.755.755 0 0 0 1.07 0l30.953-31.145a.764.764 0 0 0 0-1.078.755.755 0 0 0-1.071 0l-30.952 31.146a.764.764 0 0 0 0 1.077zM274.447 69a.755.755 0 0 0 1.07 0l20.353-20.479a.764.764 0 0 0 0-1.077.755.755 0 0 0-1.071 0l-20.352 20.479a.764.764 0 0 0 0 1.077zM284.29 69a.755.755 0 0 0 1.071 0l10.509-10.574a.764.764 0 0 0 0-1.077.755.755 0 0 0-1.071 0L284.29 67.923a.764.764 0 0 0 0 1.077z"/>
    </g>
    <g fill="#FFF">
      <path d="M505.735 448.698a.592.592 0 0 0-.838 0l-39.948 40.106a.596.596 0 0 0 0 .842.592.592 0 0 0 .839 0l39.947-40.106a.596.596 0 0 0 0-.842zM505.735 440.96a.592.592 0 0 0-.838 0l-47.952 48.142a.596.596 0 0 0 0 .842.592.592 0 0 0 .839 0l47.951-48.142a.596.596 0 0 0 0-.842zM498.028 440.96a.592.592 0 0 0-.838 0l-47.952 48.142a.596.596 0 0 0 0 .842.592.592 0 0 0 .838 0l47.952-48.142a.596.596 0 0 0 0-.842zM489.728 440.96a.592.592 0 0 0-.839 0l-47.951 48.142a.596.596 0 0 0 0 .842.592.592 0 0 0 .838 0l47.952-48.142a.596.596 0 0 0 0-.842zM482.02 440.96a.592.592 0 0 0-.838 0l-47.952 48.142a.596.596 0 0 0 0 .842.592.592 0 0 0 .839 0l47.951-48.142a.596.596 0 0 0 0-.842zM473.72 440.96a.592.592 0 0 0-.839 0l-47.951 48.142a.596.596 0 0 0 0 .842.592.592 0 0 0 .838 0l47.952-48.142a.596.596 0 0 0 0-.842zM465.42 440.96a.592.592 0 0 0-.84 0l-39.057 39.213a.596.596 0 0 0 0 .842.592.592 0 0 0 .838 0l39.058-39.213a.596.596 0 0 0 0-.842zM457.712 440.96a.592.592 0 0 0-.839 0l-31.943 32.07a.596.596 0 0 0 0 .842.592.592 0 0 0 .838 0l31.944-32.07a.596.596 0 0 0 0-.842zM450.004 440.96a.592.592 0 0 0-.838 0l-24.236 24.333a.596.596 0 0 0 0 .841.592.592 0 0 0 .838 0l24.236-24.332a.596.596 0 0 0 0-.842zM441.704 440.96a.592.592 0 0 0-.838 0l-15.936 16a.596.596 0 0 0 0 .841.592.592 0 0 0 .838 0l15.936-16a.596.596 0 0 0 0-.841zM433.997 440.96a.592.592 0 0 0-.839 0l-8.228 8.261a.596.596 0 0 0 0 .842.592.592 0 0 0 .838 0l8.229-8.261a.596.596 0 0 0 0-.842z"/>
    </g>
    <g transform="translate(100 128)" fill="#D9ECFC">
      <circle style="mix-blend-mode:overlay" transform="rotate(-135 4.028 34.009)" cx="4.028" cy="34.009" r="2.721"/>
      <circle style="mix-blend-mode:overlay" transform="rotate(-135 18.902 33.46)" cx="18.902" cy="33.461" r="2.721"/>
      <circle style="mix-blend-mode:overlay" transform="rotate(-135 18.902 19.203)" cx="18.902" cy="19.203" r="2.721"/>
      <circle style="mix-blend-mode:overlay" transform="rotate(-135 33.225 33.46)" cx="33.225" cy="33.461" r="2.721"/>
      <circle style="mix-blend-mode:overlay" transform="rotate(-135 33.775 18.655)" cx="33.775" cy="18.655" r="2.721"/>
      <circle style="mix-blend-mode:overlay" transform="rotate(-135 33.775 4.397)" cx="33.775" cy="4.397" r="2.721"/>
      <circle style="mix-blend-mode:overlay" transform="rotate(-135 48.098 18.655)" cx="48.098" cy="18.655" r="2.721"/>
      <circle style="mix-blend-mode:overlay" transform="rotate(-135 48.65 33.46)" cx="48.649" cy="33.461" r="2.721"/>
      <circle style="mix-blend-mode:overlay" transform="rotate(-135 62.972 33.46)" cx="62.972" cy="33.461" r="2.721"/>
    </g>
    <g transform="rotate(-180 55.793 208.27)" fill="#D9ECFC">
      <circle style="mix-blend-mode:overlay" transform="rotate(-135 2.825 24.164)" cx="2.825" cy="24.164" r="1.921"/>
      <circle style="mix-blend-mode:overlay" transform="rotate(-135 13.26 23.775)" cx="13.259" cy="23.775" r="1.921"/>
      <circle style="mix-blend-mode:overlay" transform="rotate(-135 13.26 13.644)" cx="13.259" cy="13.644" r="1.921"/>
      <circle style="mix-blend-mode:overlay" transform="rotate(-135 23.307 23.775)" cx="23.307" cy="23.775" r="1.921"/>
      <circle style="mix-blend-mode:overlay" transform="rotate(-135 23.693 13.255)" cx="23.693" cy="13.255" r="1.921"/>
      <circle style="mix-blend-mode:overlay" transform="rotate(-135 23.693 3.124)" cx="23.693" cy="3.124" r="1.921"/>
      <circle style="mix-blend-mode:overlay" transform="rotate(-135 33.74 13.255)" cx="33.741" cy="13.255" r="1.921"/>
      <circle style="mix-blend-mode:overlay" transform="rotate(-135 34.127 23.775)" cx="34.127" cy="23.775" r="1.921"/>
      <circle style="mix-blend-mode:overlay" transform="rotate(-135 44.175 23.775)" cx="44.175" cy="23.775" r="1.921"/>
    </g>
    <g transform="rotate(-180 123.793 253.27)" fill="#D9ECFC">
      <circle style="mix-blend-mode:overlay" transform="rotate(-135 3.246 26.85)" cx="3.246" cy="26.849" r="2.17"/>
      <circle style="mix-blend-mode:overlay" transform="rotate(-135 15.234 26.416)" cx="15.234" cy="26.416" r="2.17"/>
      <circle style="mix-blend-mode:overlay" transform="rotate(-135 15.234 15.16)" cx="15.234" cy="15.16" r="2.17"/>
      <circle style="mix-blend-mode:overlay" transform="rotate(-135 26.778 26.416)" cx="26.778" cy="26.416" r="2.17"/>
      <circle style="mix-blend-mode:overlay" transform="rotate(-135 27.222 14.727)" cx="27.222" cy="14.727" r="2.17"/>
      <circle style="mix-blend-mode:overlay" transform="rotate(-135 27.222 3.471)" cx="27.222" cy="3.471" r="2.17"/>
      <circle style="mix-blend-mode:overlay" transform="rotate(-135 38.766 14.727)" cx="38.766" cy="14.727" r="2.17"/>
      <circle style="mix-blend-mode:overlay" transform="rotate(-135 39.21 26.416)" cx="39.21" cy="26.416" r="2.17"/>
      <circle style="mix-blend-mode:overlay" transform="rotate(-135 50.754 26.416)" cx="50.754" cy="26.416" r="2.17"/>
    </g>
    <g transform="rotate(-180 180.293 184.27)" fill="#D9ECFC">
      <circle style="mix-blend-mode:overlay" transform="rotate(-135 2.585 21.48)" cx="2.585" cy="21.479" r="1.732"/>
      <circle style="mix-blend-mode:overlay" transform="rotate(-135 12.13 21.133)" cx="12.131" cy="21.133" r="1.732"/>
      <circle style="mix-blend-mode:overlay" transform="rotate(-135 12.13 12.128)" cx="12.131" cy="12.128" r="1.732"/>
      <circle style="mix-blend-mode:overlay" transform="rotate(-135 21.323 21.133)" cx="21.323" cy="21.133" r="1.732"/>
      <circle style="mix-blend-mode:overlay" transform="rotate(-135 21.677 11.782)" cx="21.677" cy="11.782" r="1.732"/>
      <circle style="mix-blend-mode:overlay" transform="rotate(-135 21.677 2.777)" cx="21.677" cy="2.777" r="1.732"/>
      <circle style="mix-blend-mode:overlay" transform="rotate(-135 30.87 11.782)" cx="30.869" cy="11.782" r="1.732"/>
      <circle style="mix-blend-mode:overlay" transform="rotate(-135 31.223 21.133)" cx="31.223" cy="21.133" r="1.732"/>
      <circle style="mix-blend-mode:overlay" transform="rotate(-135 40.415 21.133)" cx="40.415" cy="21.133" r="1.732"/>
    </g>
    <g fill="#D9ECFC">
      <path style="mix-blend-mode:overlay" d="M77.586 115.743l5.196-8.804 5.204 8.804zM225.586 277.42l11.2-19.21 11.2 19.21zM185.986 351.454l9.207-16.007 9.193 16.007zM151.186 457.504l7.995-14.407 8.005 14.407zM217.186 125.748l5.2-9.604 5.2 9.604zM39.186 491.12l-7.6 13.606-7.6-13.606zM291.586 523.431l-4.685 8.109-4.682-8.109zM124.386 270.616l-6.805 11.206-6.795-11.206zM132.786 218.992l-4.799 8.004-4.801-8.004zM196.786 144.557l-5.594 9.604-5.606-9.604z"/>
    </g>
    <g fill="#D9ECFC" fill-opacity=".3">
      <path style="mix-blend-mode:overlay" d="M196.586 526.335l-5.196 8.804-5.204-8.804zM48.586 364.659l-11.2 19.209-11.2-19.21zM88.186 290.624l-9.207 16.007-9.193-16.007zM122.986 184.574l-7.995 14.407-8.005-14.407zM56.986 516.33l-5.2 9.605-5.2-9.605zM234.986 150.958l7.6-13.606 7.6 13.606zM149.786 371.462l6.805-11.205 6.795 11.205zM141.386 423.086l4.799-8.004 4.8 8.004zM77.386 497.521l5.594-9.604 5.606 9.604z"/>
    </g>
    <g fill="#D9ECFC" fill-opacity=".3">
      <path style="mix-blend-mode:overlay" d="M189 204.797l-5.196 8.804-5.204-8.804zM41 43.12L29.8 62.33 18.6 43.12zM49.4 194.792l-5.2 9.604-5.2-9.604zM142.2 49.924l6.805-11.206 6.795 11.206zM133.8 101.548l4.799-8.004 4.801 8.004zM69.8 175.983l5.594-9.604L81 175.983z"/>
    </g>
    <g fill="#D9ECFC" fill-opacity=".3">
      <path style="mix-blend-mode:overlay" d="M380.5 353.297l-5.196 8.804-5.204-8.804zM232.5 191.62l-11.2 19.21-11.2-19.21zM272.1 117.586l-9.207 16.007-9.193-16.007zM306.9 11.536l-7.995 14.407-8.005-14.407zM240.9 343.292l-5.2 9.604-5.2-9.604zM333.7 198.424l6.805-11.206 6.795 11.206zM325.3 250.048l4.799-8.004 4.801 8.004zM261.3 324.483l5.594-9.604 5.606 9.604z"/>
    </g>
  </g>
</svg>