<svg width="470" height="690" viewBox="0 0 470 690" xmlns="http://www.w3.org/2000/svg">
  <title>Header Pattern Left</title>
  <g fill="none" fill-rule="evenodd">
    <g opacity=".35">
      <g opacity=".9">
        <path stroke="#FFF" stroke-width="1.28" d="M-1.86 299.86v-79.72h48.72v79.72z"/>
        <path fill="#FFF" d="M-1.201 292.143v-1.286H47.5v1.286z"/>
        <path fill="#FFF" d="M7.24 299.214H5.942V219.5H7.24zM15.682 299.214h-1.299V219.5h1.299zM23.474 299.214h-1.299V219.5h1.299zM31.266 299.214h-1.298V219.5h1.298zM39.058 299.214H37.76V219.5h1.298z"/>
        <path fill="#FFF" d="M-1.201 284.429v-1.286H47.5v1.286zM-1.201 276.071v-1.286H47.5v1.286zM-1.201 268.357v-1.286H47.5v1.286zM-1.201 260.643v-1.286H47.5v1.286zM-1.201 252.929v-1.286H47.5v1.286zM-1.201 244.571v-1.286H47.5v1.286zM-1.201 236.857v-1.286H47.5v1.286zM-1.201 229.143v-1.286H47.5v1.286z"/>
      </g>
      <g opacity=".7">
        <path stroke="#FFF" stroke-width="1.12" d="M175.44 324.56v69.88h-41.88v-69.88z"/>
        <path fill="#FFF" d="M174.883 331.325v1.127H133v-1.127z"/>
        <path fill="#FFF" d="M167.623 325.127h1.117V395h-1.117zM160.364 325.127h1.117V395h-1.117zM153.662 325.127h1.117V395h-1.117zM146.961 325.127h1.117V395h-1.117zM140.26 325.127h1.117V395h-1.117z"/>
        <path fill="#FFF" d="M174.883 338.087v1.127H133v-1.127zM174.883 345.413v1.127H133v-1.127zM174.883 352.175v1.127H133v-1.127zM174.883 358.937v1.127H133v-1.127zM174.883 365.698v1.127H133v-1.127zM174.883 373.024v1.127H133v-1.127zM174.883 379.786v1.127H133v-1.127zM174.883 386.548v1.127H133v-1.127z"/>
      </g>
      <g opacity=".295">
        <path stroke="#FFF" stroke-width="1.6" d="M154.8 181.8h99.4v60.4h-99.4z"/>
        <path fill="#FFF" d="M164.421 182.61h1.603V243h-1.603z"/>
        <path fill="#FFF" d="M155.603 193.078v-1.61H255v1.61zM155.603 203.545v-1.61H255v1.61zM155.603 213.208v-1.61H255v1.61zM155.603 222.87v-1.61H255v1.61zM155.603 232.532v-1.61H255v1.61z"/>
        <path fill="#FFF" d="M174.04 182.61h1.603V243h-1.603zM184.46 182.61h1.603V243h-1.603zM194.079 182.61h1.603V243h-1.603zM203.698 182.61h1.603V243h-1.603zM213.317 182.61h1.603V243h-1.603zM223.738 182.61h1.603V243h-1.603zM233.357 182.61h1.603V243h-1.603zM242.976 182.61h1.603V243h-1.603z"/>
      </g>
      <g opacity=".8">
        <path stroke="#FFF" stroke-width="2" d="M40 646V522h38v124z"/>
        <path fill="#FFF" d="M54 645h-2V521h2zM67 645h-2V521h2z"/>
        <path fill="#FFF" d="M41 573v-2h37v2zM41 560v-2h37v2zM41 548v-2h37v2zM41 536v-2h37v2z"/>
      </g>
      <g opacity=".5">
        <path stroke="#FFF" stroke-width="1.6" d="M7.3 67.7v-99.4h30.4v99.4z"/>
        <path fill="#FFF" d="M8.1 58.079v-1.603h29.6v1.603z"/>
        <path fill="#FFF" d="M18.5 66.897h-1.6V-32.5h1.6zM28.9 66.897h-1.6V-32.5h1.6z"/>
        <path fill="#FFF" d="M8.1 48.46v-1.603h29.6v1.603zM8.1 38.04v-1.603h29.6v1.603zM8.1 28.421v-1.603h29.6v1.603zM8.1 18.802v-1.603h29.6v1.603zM8.1 9.183V7.58h29.6v1.603z"/>
      </g>
      <g opacity=".5">
        <path stroke="#FFF" stroke-width="1.6" d="M122.7 98.3v99.4H62.3V98.3z"/>
        <path fill="#FFF" d="M121.89 107.921v1.603H61.5v-1.603z"/>
        <path fill="#FFF" d="M111.422 99.103h1.61V198.5h-1.61zM100.955 99.103h1.61V198.5h-1.61zM91.292 99.103h1.61V198.5h-1.61zM81.63 99.103h1.61V198.5h-1.61zM71.968 99.103h1.61V198.5h-1.61z"/>
        <path fill="#FFF" d="M121.89 117.54v1.603H61.5v-1.603zM121.89 127.96v1.603H61.5v-1.603zM121.89 137.579v1.603H61.5v-1.603zM121.89 147.198v1.603H61.5v-1.603zM121.89 156.817v1.603H61.5v-1.603zM121.89 167.238v1.603H61.5v-1.603zM121.89 176.857v1.603H61.5v-1.603zM121.89 186.476v1.603H61.5v-1.603z"/>
      </g>
      <g opacity=".9" fill="#FFF">
        <path d="M61.914 475.824a.755.755 0 0 0-1.071 0L50.67 486.061a.764.764 0 0 0 0 1.077.755.755 0 0 0 1.071 0l10.173-10.236a.764.764 0 0 0 0-1.078zM61.914 465.92a.755.755 0 0 0-1.071 0l-18.837 18.955a.764.764 0 0 0 0 1.077.755.755 0 0 0 1.07 0l18.838-18.955a.764.764 0 0 0 0-1.077zM61.914 456.015a.755.755 0 0 0-1.071 0L30.269 486.78a.764.764 0 0 0 0 1.077.755.755 0 0 0 1.071 0l30.574-30.765a.764.764 0 0 0 0-1.077zM61.914 446.11a.755.755 0 0 0-1.071 0l-40.417 40.67a.764.764 0 0 0 0 1.077.755.755 0 0 0 1.07 0l40.418-40.67a.764.764 0 0 0 0-1.077zM61.914 435.444a.755.755 0 0 0-1.071 0L9.826 486.78a.764.764 0 0 0 0 1.077.755.755 0 0 0 1.07 0l51.018-51.336a.764.764 0 0 0 0-1.077zM61.914 425.539a.755.755 0 0 0-1.071 0L-.397 487.16a.764.764 0 0 0 0 1.077.755.755 0 0 0 1.071 0l61.24-61.622a.764.764 0 0 0 0-1.077zM52.07 425.539a.755.755 0 0 0-1.07 0l-61.24 61.622a.764.764 0 0 0 0 1.077.755.755 0 0 0 1.071 0l61.24-61.622a.764.764 0 0 0 0-1.077zM41.47 425.539a.755.755 0 0 0-1.07 0l-61.24 61.622a.764.764 0 0 0 0 1.077.755.755 0 0 0 1.07 0l61.24-61.622a.764.764 0 0 0 0-1.077zM31.627 425.539a.755.755 0 0 0-1.071 0l-61.24 61.622a.764.764 0 0 0 0 1.077.755.755 0 0 0 1.071 0l61.24-61.622a.764.764 0 0 0 0-1.077zM21.026 425.539a.755.755 0 0 0-1.07 0l-61.24 61.622a.764.764 0 0 0 0 1.077.755.755 0 0 0 1.07 0l61.24-61.622a.764.764 0 0 0 0-1.077zM10.426 425.539a.755.755 0 0 0-1.07 0l-49.883 50.193a.764.764 0 0 0 0 1.078.755.755 0 0 0 1.071 0l49.882-50.194a.764.764 0 0 0 0-1.077zM.583 425.539a.755.755 0 0 0-1.071 0l-40.796 41.05a.764.764 0 0 0 0 1.078.755.755 0 0 0 1.07 0l40.797-41.05a.764.764 0 0 0 0-1.078z"/>
      </g>
      <g opacity=".9" fill="#FFF">
        <path d="M246.914 573.11a.755.755 0 0 0-1.071 0l-40.417 40.67a.764.764 0 0 0 0 1.077.755.755 0 0 0 1.07 0l40.418-40.67a.764.764 0 0 0 0-1.077zM246.914 562.444a.755.755 0 0 0-1.071 0l-51.017 51.336a.764.764 0 0 0 0 1.077.755.755 0 0 0 1.07 0l51.018-51.336a.764.764 0 0 0 0-1.077zM246.914 552.539a.755.755 0 0 0-1.071 0l-61.24 61.622a.764.764 0 0 0 0 1.077.755.755 0 0 0 1.071 0l61.24-61.622a.764.764 0 0 0 0-1.077zM237.07 552.539a.755.755 0 0 0-1.07 0l-61.24 61.622a.764.764 0 0 0 0 1.077.755.755 0 0 0 1.071 0l61.24-61.622a.764.764 0 0 0 0-1.077zM226.47 552.539a.755.755 0 0 0-1.07 0l-61.24 61.622a.764.764 0 0 0 0 1.077.755.755 0 0 0 1.07 0l61.24-61.622a.764.764 0 0 0 0-1.077zM216.627 552.539a.755.755 0 0 0-1.071 0l-61.24 61.622a.764.764 0 0 0 0 1.077.755.755 0 0 0 1.071 0l61.24-61.622a.764.764 0 0 0 0-1.077zM206.026 552.539a.755.755 0 0 0-1.07 0l-61.24 61.622a.764.764 0 0 0 0 1.077.755.755 0 0 0 1.07 0l61.24-61.622a.764.764 0 0 0 0-1.077zM195.426 552.539a.755.755 0 0 0-1.07 0l-49.883 50.193a.764.764 0 0 0 0 1.078.755.755 0 0 0 1.071 0l49.882-50.194a.764.764 0 0 0 0-1.077zM185.583 552.539a.755.755 0 0 0-1.071 0l-40.796 41.05a.764.764 0 0 0 0 1.078.755.755 0 0 0 1.07 0l40.797-41.05a.764.764 0 0 0 0-1.078zM175.74 552.539a.755.755 0 0 0-1.072 0l-30.952 31.145a.764.764 0 0 0 0 1.078.755.755 0 0 0 1.07 0l30.953-31.146a.764.764 0 0 0 0-1.077zM165.139 552.539a.755.755 0 0 0-1.071 0l-20.352 20.479a.764.764 0 0 0 0 1.077.755.755 0 0 0 1.07 0l20.353-20.479a.764.764 0 0 0 0-1.077zM155.296 552.539a.755.755 0 0 0-1.071 0l-10.509 10.574a.764.764 0 0 0 0 1.077.755.755 0 0 0 1.07 0l10.51-10.574a.764.764 0 0 0 0-1.077z"/>
      </g>
      <g fill="#FFF">
        <path d="M-42.434 180.58a.592.592 0 0 0 .838 0l47.952-48.143a.596.596 0 0 0 0-.842.592.592 0 0 0-.839 0l-47.951 48.142a.596.596 0 0 0 0 .842zM-34.134 180.58a.592.592 0 0 0 .839 0l47.951-48.143a.596.596 0 0 0 0-.842.592.592 0 0 0-.838 0l-47.952 48.142a.596.596 0 0 0 0 .842zM-25.833 180.58a.592.592 0 0 0 .838 0l39.058-39.214a.596.596 0 0 0 0-.842.592.592 0 0 0-.838 0l-39.058 39.213a.596.596 0 0 0 0 .842zM-18.126 180.58a.592.592 0 0 0 .838 0l31.944-32.072a.596.596 0 0 0 0-.841.592.592 0 0 0-.838 0l-31.944 32.07a.596.596 0 0 0 0 .842zM-10.419 180.58a.592.592 0 0 0 .839 0l24.236-24.333a.596.596 0 0 0 0-.842.592.592 0 0 0-.838 0l-24.237 24.332a.596.596 0 0 0 0 .842zM-2.118 180.58a.592.592 0 0 0 .838 0l15.936-16a.596.596 0 0 0 0-.842.592.592 0 0 0-.838 0l-15.936 16a.596.596 0 0 0 0 .841zM5.59 180.58a.592.592 0 0 0 .838 0l8.228-8.262a.596.596 0 0 0 0-.842.592.592 0 0 0-.838 0l-8.229 8.261a.596.596 0 0 0 0 .842z"/>
      </g>
    </g>
    <g opacity=".9">
      <path stroke="#FFF" stroke-width="1.28" d="M7.14 290.86v-79.72h48.72v79.72z"/>
      <path fill="#FFF" d="M7.799 283.143v-1.286H56.5v1.286z"/>
      <path fill="#FFF" d="M16.24 290.214h-1.298V210.5h1.298zM24.682 290.214h-1.299V210.5h1.299zM32.474 290.214h-1.299V210.5h1.299zM40.266 290.214h-1.298V210.5h1.298zM48.058 290.214H46.76V210.5h1.298z"/>
      <path fill="#FFF" d="M7.799 275.429v-1.286H56.5v1.286zM7.799 267.071v-1.286H56.5v1.286zM7.799 259.357v-1.286H56.5v1.286zM7.799 251.643v-1.286H56.5v1.286zM7.799 243.929v-1.286H56.5v1.286zM7.799 235.571v-1.286H56.5v1.286zM7.799 227.857v-1.286H56.5v1.286zM7.799 220.143v-1.286H56.5v1.286z"/>
    </g>
    <g opacity=".7">
      <path stroke="#FFF" stroke-width="1.12" d="M182.44 316.56v69.88h-41.88v-69.88z"/>
      <path fill="#FFF" d="M181.883 323.325v1.127H140v-1.127z"/>
      <path fill="#FFF" d="M174.623 317.127h1.117V387h-1.117zM167.364 317.127h1.117V387h-1.117zM160.662 317.127h1.117V387h-1.117zM153.961 317.127h1.117V387h-1.117zM147.26 317.127h1.117V387h-1.117z"/>
      <path fill="#FFF" d="M181.883 330.087v1.127H140v-1.127zM181.883 337.413v1.127H140v-1.127zM181.883 344.175v1.127H140v-1.127zM181.883 350.937v1.127H140v-1.127zM181.883 357.698v1.127H140v-1.127zM181.883 365.024v1.127H140v-1.127zM181.883 371.786v1.127H140v-1.127zM181.883 378.548v1.127H140v-1.127z"/>
    </g>
    <g opacity=".8">
      <path stroke="#FFF" stroke-width="1.6" d="M165.8 170.8h99.4v60.4h-99.4z"/>
      <path fill="#FFF" d="M175.421 171.61h1.603V232h-1.603z"/>
      <path fill="#FFF" d="M166.603 182.078v-1.61H266v1.61zM166.603 192.545v-1.61H266v1.61zM166.603 202.208v-1.61H266v1.61zM166.603 211.87v-1.61H266v1.61zM166.603 221.532v-1.61H266v1.61z"/>
      <path fill="#FFF" d="M185.04 171.61h1.603V232h-1.603zM195.46 171.61h1.603V232h-1.603zM205.079 171.61h1.603V232h-1.603zM214.698 171.61h1.603V232h-1.603zM224.317 171.61h1.603V232h-1.603zM234.738 171.61h1.603V232h-1.603zM244.357 171.61h1.603V232h-1.603zM253.976 171.61h1.603V232h-1.603z"/>
    </g>
    <g opacity=".8">
      <path stroke="#FFF" stroke-width="2" d="M52 634V510h38v124z"/>
      <path fill="#FFF" d="M66 633h-2V509h2zM79 633h-2V509h2z"/>
      <path fill="#FFF" d="M53 573v-2h37v2zM53 561v-2h37v2zM53 548v-2h37v2zM53 536v-2h37v2zM53 524v-2h37v2z"/>
    </g>
    <g opacity=".5">
      <path stroke="#FFF" stroke-width="1.6" d="M19.3 55.7v-99.4h30.4v99.4z"/>
      <path fill="#FFF" d="M20.1 46.079v-1.603h29.6v1.603z"/>
      <path fill="#FFF" d="M30.5 54.897h-1.6V-44.5h1.6zM40.9 54.897h-1.6V-44.5h1.6z"/>
      <path fill="#FFF" d="M20.1 36.46v-1.603h29.6v1.603zM20.1 26.04v-1.603h29.6v1.603zM20.1 16.421v-1.603h29.6v1.603zM20.1 6.802V5.199h29.6v1.603z"/>
    </g>
    <g opacity=".5">
      <path stroke="#FFF" stroke-width="1.6" d="M133.7 87.3v99.4H73.3V87.3z"/>
      <path fill="#FFF" d="M132.89 96.921v1.603H72.5v-1.603z"/>
      <path fill="#FFF" d="M122.422 88.103h1.61V187.5h-1.61zM111.955 88.103h1.61V187.5h-1.61zM102.292 88.103h1.61V187.5h-1.61zM92.63 88.103h1.61V187.5h-1.61zM82.968 88.103h1.61V187.5h-1.61z"/>
      <path fill="#FFF" d="M132.89 106.54v1.603H72.5v-1.603zM132.89 116.96v1.603H72.5v-1.603zM132.89 126.579v1.603H72.5v-1.603zM132.89 136.198v1.603H72.5v-1.603zM132.89 145.817v1.603H72.5v-1.603zM132.89 156.238v1.603H72.5v-1.603zM132.89 165.857v1.603H72.5v-1.603zM132.89 175.476v1.603H72.5v-1.603z"/>
    </g>
    <g opacity=".9" fill="#FFF">
      <path d="M91.914 454.824a.755.755 0 0 0-1.071 0L80.67 465.061a.764.764 0 0 0 0 1.077.755.755 0 0 0 1.071 0l10.173-10.236a.764.764 0 0 0 0-1.078zM91.914 444.92a.755.755 0 0 0-1.071 0l-18.837 18.955a.764.764 0 0 0 0 1.077.755.755 0 0 0 1.07 0l18.838-18.955a.764.764 0 0 0 0-1.077zM91.914 435.015a.755.755 0 0 0-1.071 0L60.269 465.78a.764.764 0 0 0 0 1.077.755.755 0 0 0 1.071 0l30.574-30.765a.764.764 0 0 0 0-1.077zM91.914 425.11a.755.755 0 0 0-1.071 0l-40.417 40.67a.764.764 0 0 0 0 1.077.755.755 0 0 0 1.07 0l40.418-40.67a.764.764 0 0 0 0-1.077zM91.914 414.444a.755.755 0 0 0-1.071 0L39.826 465.78a.764.764 0 0 0 0 1.077.755.755 0 0 0 1.07 0l51.018-51.336a.764.764 0 0 0 0-1.077zM91.914 404.539a.755.755 0 0 0-1.071 0l-61.24 61.622a.764.764 0 0 0 0 1.077.755.755 0 0 0 1.071 0l61.24-61.622a.764.764 0 0 0 0-1.077zM82.07 404.539a.755.755 0 0 0-1.07 0L19.76 466.16a.764.764 0 0 0 0 1.077.755.755 0 0 0 1.071 0l61.24-61.622a.764.764 0 0 0 0-1.077zM71.47 404.539a.755.755 0 0 0-1.07 0L9.16 466.16a.764.764 0 0 0 0 1.077.755.755 0 0 0 1.07 0l61.24-61.622a.764.764 0 0 0 0-1.077zM61.627 404.539a.755.755 0 0 0-1.071 0L-.684 466.16a.764.764 0 0 0 0 1.077.755.755 0 0 0 1.071 0l61.24-61.622a.764.764 0 0 0 0-1.077zM51.026 404.539a.755.755 0 0 0-1.07 0l-61.24 61.622a.764.764 0 0 0 0 1.077.755.755 0 0 0 1.07 0l61.24-61.622a.764.764 0 0 0 0-1.077zM40.426 404.539a.755.755 0 0 0-1.07 0l-49.883 50.193a.764.764 0 0 0 0 1.078.755.755 0 0 0 1.071 0l49.882-50.194a.764.764 0 0 0 0-1.077zM30.583 404.539a.755.755 0 0 0-1.071 0l-40.796 41.05a.764.764 0 0 0 0 1.078.755.755 0 0 0 1.07 0l40.797-41.05a.764.764 0 0 0 0-1.078zM20.74 404.539a.755.755 0 0 0-1.072 0l-30.952 31.145a.764.764 0 0 0 0 1.078.755.755 0 0 0 1.07 0l30.953-31.146a.764.764 0 0 0 0-1.077zM10.139 404.539a.755.755 0 0 0-1.071 0l-20.352 20.479a.764.764 0 0 0 0 1.077.755.755 0 0 0 1.07 0l20.353-20.479a.764.764 0 0 0 0-1.077zM.296 404.539a.755.755 0 0 0-1.071 0l-10.509 10.574a.764.764 0 0 0 0 1.077.755.755 0 0 0 1.07 0l10.51-10.574a.764.764 0 0 0 0-1.077z"/>
    </g>
    <g opacity=".9" fill="#FFF">
      <path d="M258.914 571.015a.755.755 0 0 0-1.071 0l-30.574 30.765a.764.764 0 0 0 0 1.077.755.755 0 0 0 1.071 0l30.574-30.765a.764.764 0 0 0 0-1.077zM258.914 561.11a.755.755 0 0 0-1.071 0l-40.417 40.67a.764.764 0 0 0 0 1.077.755.755 0 0 0 1.07 0l40.418-40.67a.764.764 0 0 0 0-1.077zM258.914 550.444a.755.755 0 0 0-1.071 0l-51.017 51.336a.764.764 0 0 0 0 1.077.755.755 0 0 0 1.07 0l51.018-51.336a.764.764 0 0 0 0-1.077zM258.914 540.539a.755.755 0 0 0-1.071 0l-61.24 61.622a.764.764 0 0 0 0 1.077.755.755 0 0 0 1.071 0l61.24-61.622a.764.764 0 0 0 0-1.077zM249.07 540.539a.755.755 0 0 0-1.07 0l-61.24 61.622a.764.764 0 0 0 0 1.077.755.755 0 0 0 1.071 0l61.24-61.622a.764.764 0 0 0 0-1.077zM238.47 540.539a.755.755 0 0 0-1.07 0l-61.24 61.622a.764.764 0 0 0 0 1.077.755.755 0 0 0 1.07 0l61.24-61.622a.764.764 0 0 0 0-1.077zM228.627 540.539a.755.755 0 0 0-1.071 0l-61.24 61.622a.764.764 0 0 0 0 1.077.755.755 0 0 0 1.071 0l61.24-61.622a.764.764 0 0 0 0-1.077zM218.026 540.539a.755.755 0 0 0-1.07 0l-61.24 61.622a.764.764 0 0 0 0 1.077.755.755 0 0 0 1.07 0l61.24-61.622a.764.764 0 0 0 0-1.077zM207.426 540.539a.755.755 0 0 0-1.07 0l-49.883 50.193a.764.764 0 0 0 0 1.078.755.755 0 0 0 1.071 0l49.882-50.194a.764.764 0 0 0 0-1.077zM197.583 540.539a.755.755 0 0 0-1.071 0l-40.796 41.05a.764.764 0 0 0 0 1.078.755.755 0 0 0 1.07 0l40.797-41.05a.764.764 0 0 0 0-1.078zM187.74 540.539a.755.755 0 0 0-1.072 0l-30.952 31.145a.764.764 0 0 0 0 1.078.755.755 0 0 0 1.07 0l30.953-31.146a.764.764 0 0 0 0-1.077zM177.139 540.539a.755.755 0 0 0-1.071 0l-20.352 20.479a.764.764 0 0 0 0 1.077.755.755 0 0 0 1.07 0l20.353-20.479a.764.764 0 0 0 0-1.077zM167.296 540.539a.755.755 0 0 0-1.071 0l-10.509 10.574a.764.764 0 0 0 0 1.077.755.755 0 0 0 1.07 0l10.51-10.574a.764.764 0 0 0 0-1.077z"/>
    </g>
    <g fill="#FFF">
      <path d="M-46.442 168.58a.592.592 0 0 0 .838 0l47.952-48.143a.596.596 0 0 0 0-.842.592.592 0 0 0-.838 0l-47.952 48.142a.596.596 0 0 0 0 .842zM-38.142 168.58a.592.592 0 0 0 .839 0l47.951-48.143a.596.596 0 0 0 0-.842.592.592 0 0 0-.838 0l-47.952 48.142a.596.596 0 0 0 0 .842zM-30.434 168.58a.592.592 0 0 0 .838 0l47.952-48.143a.596.596 0 0 0 0-.842.592.592 0 0 0-.839 0l-47.951 48.142a.596.596 0 0 0 0 .842zM-22.134 168.58a.592.592 0 0 0 .839 0l47.951-48.143a.596.596 0 0 0 0-.842.592.592 0 0 0-.838 0l-47.952 48.142a.596.596 0 0 0 0 .842zM-13.833 168.58a.592.592 0 0 0 .838 0l39.058-39.214a.596.596 0 0 0 0-.842.592.592 0 0 0-.838 0l-39.058 39.213a.596.596 0 0 0 0 .842zM-6.126 168.58a.592.592 0 0 0 .838 0l31.944-32.072a.596.596 0 0 0 0-.841.592.592 0 0 0-.838 0l-31.944 32.07a.596.596 0 0 0 0 .842zM1.581 168.58a.592.592 0 0 0 .839 0l24.236-24.333a.596.596 0 0 0 0-.842.592.592 0 0 0-.838 0L1.58 167.737a.596.596 0 0 0 0 .842zM9.882 168.58a.592.592 0 0 0 .838 0l15.936-16a.596.596 0 0 0 0-.842.592.592 0 0 0-.838 0l-15.936 16a.596.596 0 0 0 0 .841zM17.59 168.58a.592.592 0 0 0 .838 0l8.228-8.262a.596.596 0 0 0 0-.842.592.592 0 0 0-.838 0l-8.229 8.261a.596.596 0 0 0 0 .842z"/>
    </g>
    <g transform="rotate(-180 43.5 184)" fill="#D9ECFC">
      <circle style="mix-blend-mode:overlay" transform="rotate(-135 4.028 34.009)" cx="4.028" cy="34.009" r="2.721"/>
      <circle style="mix-blend-mode:overlay" transform="rotate(-135 18.902 33.46)" cx="18.902" cy="33.461" r="2.721"/>
      <circle style="mix-blend-mode:overlay" transform="rotate(-135 18.902 19.203)" cx="18.902" cy="19.203" r="2.721"/>
      <circle style="mix-blend-mode:overlay" transform="rotate(-135 33.225 33.46)" cx="33.225" cy="33.461" r="2.721"/>
      <circle style="mix-blend-mode:overlay" transform="rotate(-135 33.775 18.655)" cx="33.775" cy="18.655" r="2.721"/>
      <circle style="mix-blend-mode:overlay" transform="rotate(-135 33.775 4.397)" cx="33.775" cy="4.397" r="2.721"/>
      <circle style="mix-blend-mode:overlay" transform="rotate(-135 48.098 18.655)" cx="48.098" cy="18.655" r="2.721"/>
      <circle style="mix-blend-mode:overlay" transform="rotate(-135 48.65 33.46)" cx="48.649" cy="33.461" r="2.721"/>
      <circle style="mix-blend-mode:overlay" transform="rotate(-135 62.972 33.46)" cx="62.972" cy="33.461" r="2.721"/>
    </g>
    <g transform="translate(343 193)" fill="#D9ECFC">
      <circle style="mix-blend-mode:overlay" transform="rotate(-135 2.825 24.164)" cx="2.825" cy="24.164" r="1.921"/>
      <circle style="mix-blend-mode:overlay" transform="rotate(-135 13.26 23.775)" cx="13.259" cy="23.775" r="1.921"/>
      <circle style="mix-blend-mode:overlay" transform="rotate(-135 13.26 13.644)" cx="13.259" cy="13.644" r="1.921"/>
      <circle style="mix-blend-mode:overlay" transform="rotate(-135 23.307 23.775)" cx="23.307" cy="23.775" r="1.921"/>
      <circle style="mix-blend-mode:overlay" transform="rotate(-135 23.693 13.255)" cx="23.693" cy="13.255" r="1.921"/>
      <circle style="mix-blend-mode:overlay" transform="rotate(-135 23.693 3.124)" cx="23.693" cy="3.124" r="1.921"/>
      <circle style="mix-blend-mode:overlay" transform="rotate(-135 33.74 13.255)" cx="33.741" cy="13.255" r="1.921"/>
      <circle style="mix-blend-mode:overlay" transform="rotate(-135 34.127 23.775)" cx="34.127" cy="23.775" r="1.921"/>
      <circle style="mix-blend-mode:overlay" transform="rotate(-135 44.175 23.775)" cx="44.175" cy="23.775" r="1.921"/>
    </g>
    <g transform="translate(186 92)" fill="#D9ECFC">
      <circle style="mix-blend-mode:overlay" transform="rotate(-135 3.246 26.85)" cx="3.246" cy="26.849" r="2.17"/>
      <circle style="mix-blend-mode:overlay" transform="rotate(-135 15.234 26.416)" cx="15.234" cy="26.416" r="2.17"/>
      <circle style="mix-blend-mode:overlay" transform="rotate(-135 15.234 15.16)" cx="15.234" cy="15.16" r="2.17"/>
      <circle style="mix-blend-mode:overlay" transform="rotate(-135 26.778 26.416)" cx="26.778" cy="26.416" r="2.17"/>
      <circle style="mix-blend-mode:overlay" transform="rotate(-135 27.222 14.727)" cx="27.222" cy="14.727" r="2.17"/>
      <circle style="mix-blend-mode:overlay" transform="rotate(-135 27.222 3.471)" cx="27.222" cy="3.471" r="2.17"/>
      <circle style="mix-blend-mode:overlay" transform="rotate(-135 38.766 14.727)" cx="38.766" cy="14.727" r="2.17"/>
      <circle style="mix-blend-mode:overlay" transform="rotate(-135 39.21 26.416)" cx="39.21" cy="26.416" r="2.17"/>
      <circle style="mix-blend-mode:overlay" transform="rotate(-135 50.754 26.416)" cx="50.754" cy="26.416" r="2.17"/>
    </g>
    <g transform="translate(94 241)" fill="#D9ECFC">
      <circle style="mix-blend-mode:overlay" transform="rotate(-135 2.585 21.48)" cx="2.585" cy="21.479" r="1.732"/>
      <circle style="mix-blend-mode:overlay" transform="rotate(-135 12.13 21.133)" cx="12.131" cy="21.133" r="1.732"/>
      <circle style="mix-blend-mode:overlay" transform="rotate(-135 12.13 12.128)" cx="12.131" cy="12.128" r="1.732"/>
      <circle style="mix-blend-mode:overlay" transform="rotate(-135 21.323 21.133)" cx="21.323" cy="21.133" r="1.732"/>
      <circle style="mix-blend-mode:overlay" transform="rotate(-135 21.677 11.782)" cx="21.677" cy="11.782" r="1.732"/>
      <circle style="mix-blend-mode:overlay" transform="rotate(-135 21.677 2.777)" cx="21.677" cy="2.777" r="1.732"/>
      <circle style="mix-blend-mode:overlay" transform="rotate(-135 30.87 11.782)" cx="30.869" cy="11.782" r="1.732"/>
      <circle style="mix-blend-mode:overlay" transform="rotate(-135 31.223 21.133)" cx="31.223" cy="21.133" r="1.732"/>
      <circle style="mix-blend-mode:overlay" transform="rotate(-135 40.415 21.133)" cx="40.415" cy="21.133" r="1.732"/>
    </g>
    <g fill="#D9ECFC">
      <path style="mix-blend-mode:overlay" d="M377 493.796l-5.196 8.804-5.204-8.804zM229 332.12l-11.2 19.209-11.2-19.21zM268.6 258.085l-9.207 16.007-9.193-16.007zM303.4 152.035l-7.995 14.407-8.005-14.407zM237.4 483.791l-5.2 9.604-5.2-9.604zM415.4 118.419l7.6-13.606 7.6 13.606zM163 86.108l4.685-8.109 4.682 8.109zM330.2 338.923l6.805-11.205 6.795 11.205zM321.8 390.547l4.799-8.004 4.801 8.004zM257.8 464.982l5.594-9.604 5.606 9.604z"/>
    </g>
    <g fill="#D9ECFC" fill-opacity=".4">
      <path style="mix-blend-mode:overlay" d="M73.11 252.122l5.196-8.804 5.203 8.804zM221.11 413.798l11.2-19.209 11.2 19.21zM181.51 487.833l9.206-16.007 9.193 16.007zM146.71 593.883l7.995-14.407 8.004 14.407zM212.71 262.127l5.2-9.605 5.2 9.605zM119.91 406.995l-6.806 11.205-6.795-11.205zM128.31 355.37l-4.8 8.005-4.8-8.004zM192.31 280.936l-5.595 9.604-5.606-9.604z"/>
    </g>
    <g fill="#D9ECFC" fill-opacity=".3">
      <path style="mix-blend-mode:overlay" d="M263 68.204l5.196-8.804 5.204 8.804zM411 229.88l11.2-19.209 11.2 19.21zM371.4 303.915l9.207-16.007 9.193 16.007zM336.6 409.965l7.995-14.407 8.005 14.407zM402.6 78.209l5.2-9.604 5.2 9.604zM224.6 443.581l-7.6 13.606-7.6-13.606zM477 475.892l-4.685 8.109-4.682-8.109zM309.8 223.077l-6.805 11.205-6.795-11.205zM318.2 171.453l-4.799 8.004-4.801-8.004zM382.2 97.018l-5.594 9.604L371 97.018z"/>
    </g>
    <g fill="#D9ECFC" fill-opacity=".15">
      <path style="mix-blend-mode:overlay" d="M267 391.204l5.196-8.804 5.204 8.804zM415 552.88l11.2-19.209 11.2 19.21zM406.6 401.209l5.2-9.604 5.2 9.604zM313.8 546.077l-6.805 11.205-6.795-11.205zM322.2 494.453l-4.799 8.004-4.801-8.004zM386.2 420.018l-5.594 9.604-5.606-9.604z"/>
    </g>
  </g>
</svg>