<svg width="400" height="302" xmlns="http://www.w3.org/2000/svg"><g fill="none" fill-rule="evenodd"><path d="M38.996 126.167c64.5-45.36-38.498-42.06 14.569-97.328C106.63-26.431 160.523 82.06 290.352 64.87c129.83-17.189-31.362 266.886-121.382 227.35C78.95 252.683-25.504 171.526 38.996 126.166z" fill="#4F58FD" opacity=".07"/><path d="M196.744 228.554c62.757-16.125 111.573 68.818 133.857-2.016 22.284-70.834-150.53-80.434-135.738-145.407 14.792-64.973-82.854-43.345-105.68 49.11-22.827 92.453 44.803 114.438 107.56 98.313z" fill="#4F58FD" opacity=".07"/><path d="M97.131 116.644c38.197 69.275-52.841 23.078-29.216 96.802 23.626 73.723 119.157-4.82 228.25 65.553 109.092 70.372 87.822-261.849-10.18-262.69-98.003-.843-227.051 31.06-188.854 100.335z" fill="#4F58FD" fill-rule="nonzero" opacity=".07"/><g fill-rule="nonzero"><path d="M235.454 217.082c27.342 32.19 69.278-23.9 89.579 0l2.421 16.146c-5.938 24.108-24.82 41.737-47.21 41.737-19.924 0-37.068-13.962-44.79-34.022v-23.86z" fill="#333DE9"/><path d="M324.439 212.273c-27.342 33.197-69.278-24.647-89.579 0l-2.421 16.65c5.938 24.862 24.82 43.042 47.21 43.042 19.924 0 37.068-14.398 44.79-35.085v-24.607z" fill="#4F58FD"/><path d="M280.502 277.81c-28.444 0-51.502-23.058-51.502-51.502 0-26.928 20.666-49.029 47.003-51.308v4.602c-23.77 2.271-42.421 22.351-42.421 46.706 0 25.871 21.048 46.92 46.92 46.92 25.872 0 46.92-21.049 46.92-46.92 0-24.354-18.65-44.433-42.418-46.706V175c26.336 2.281 47 24.381 47 51.308 0 28.444-23.058 51.502-51.502 51.502z" fill="#3EB2FD"/><path d="M280.618 274.81c-26.723 0-48.386-21.663-48.386-48.386 0-26.723 21.663-48.386 48.386-48.386 26.723 0 48.386 21.663 48.386 48.386 0 26.723-21.663 48.386-48.386 48.386zm0-4.305c24.306 0 44.081-19.775 44.081-44.08 0-24.307-19.775-44.082-44.081-44.082-24.306 0-44.081 19.775-44.081 44.081 0 24.306 19.775 44.081 44.081 44.081z" fill="#FFF"/></g><g fill-rule="nonzero"><path d="M163.998 85.501c-27.045 18.61-68.525-13.817-88.605 0l-2.395 9.335c5.873 13.937 24.55 24.129 46.697 24.129 19.708 0 36.665-8.072 44.303-19.669V85.501z" fill="#333DE9"/><path d="M74.439 84.17c27.342 22.131 69.278-16.431 89.579 0l2.421 11.101c-5.938 16.574-24.82 28.694-47.21 28.694-19.924 0-37.068-9.599-44.79-23.39V84.17z" fill="#4F58FD"/><path d="M119.502 25c28.444 0 51.502 23.058 51.502 51.502 0 26.928-20.666 49.029-47.003 51.308v-4.602c23.77-2.271 42.421-22.351 42.421-46.706 0-25.871-21.048-46.919-46.92-46.919-25.872 0-46.92 21.048-46.92 46.919 0 24.354 18.65 44.433 42.418 46.706v4.602c-26.336-2.28-47-24.381-47-51.308C68 48.058 91.058 25 119.502 25z" fill="#3EB2FD"/><path d="M119.386 28C92.663 28 71 49.663 71 76.386c0 26.723 21.663 48.386 48.386 48.386 26.723 0 48.386-21.663 48.386-48.386 0-26.723-21.663-48.386-48.386-48.386m0 4.305c24.306 0 44.081 19.775 44.081 44.081 0 24.306-19.775 44.081-44.081 44.081-24.306 0-44.081-19.775-44.081-44.081 0-24.306 19.775-44.081 44.081-44.081" fill="#FFF"/></g><path d="M83 92h73c-2.821 13.77-13.176 24.971-27.233 27.92-5.518 1.159-8.61 2.518-9.279 4.08-.757-1.546-3.58-2.84-8.469-3.885C96.843 117.087 85.947 105.955 83 92z" fill="#4F58FD" fill-rule="nonzero"/><path d="M119.5 88.5v47.358c0 11.05 8.958 20.006 20.004 20.006h120.992c11.048 0 20.004 8.954 20.004 20.009V220.5" stroke="#4F58FD" stroke-width="4"/><path d="M296.12 246.345l-15.648 8.843-15.96-8.843c-.593-.348-1.374-.095-1.686.508-.344.602-.094 1.394.5 1.711l16.553 9.191c.375.222.843.222 1.218 0l16.24-9.19c.594-.35.813-1.11.47-1.712-.344-.634-1.094-.856-1.687-.508zm-29.671-5.863l14.023-8.05 15.617 9.16c.593.348 1.374.126 1.717-.476a1.3 1.3 0 00-.468-1.743l-16.241-9.509a1.255 1.255 0 00-1.25 0l-16.553 9.509c-.843.475-.843 1.711 0 2.218l16.554 9.509c.593.348 1.374.126 1.717-.476a1.3 1.3 0 00-.468-1.743l-14.648-8.399zm-6.434 6.656v-6.339c-.125-1.458.53-2.948 1.968-3.772l16.553-9.508c1.218-.697 2.686-.697 3.873.032l16.24 9.508a3.974 3.974 0 011.937 3.74v6.339c.125 1.49-.625 3.01-1.999 3.771l-16.24 9.192a3.826 3.826 0 01-3.78 0l-16.553-9.192c-1.374-.76-2.093-2.25-1.999-3.771z" fill="#FFF" fill-rule="nonzero"/></g></svg>