<svg width="400" height="302" xmlns="http://www.w3.org/2000/svg"><g transform="translate(24 7)" fill="none" fill-rule="evenodd"><path d="M93.024 22.737c89.087-29.986 218.024-40.085 201.178 31.89-16.845 71.974 103.722 103.786 58.638 142.752-45.083 38.967-122.078-13.58-182.428 39.596-60.35 53.177-90.866 76.318-126.634 17.157-35.767-59.16-39.84-201.41 49.246-231.395z" fill="#4F58FD" opacity=".07"/><path d="M123.501 128.131c37.138-31.868 105.98 49.106 141.664-13.535 35.684-62.64-39.597-146.456-93.518-96.262C117.726 68.528 40.005-2.063 6.192 83.89c-33.814 85.955 80.172 76.109 117.31 44.24z" fill="#4F58FD" opacity=".07"/><path d="M177.71 210.272c46.213-72.753 2.386-125.612 42.967-132.97 40.58-7.359 148.576 121.747 74.288 174.644-74.288 52.897-163.469 31.079-117.255-41.674z" fill="#4F58FD" opacity=".07"/><g transform="translate(72 26)"><rect stroke="#3EB2FD" fill="#FFF" width="207" height="235" rx="3"/><path d="M0 3.622A3.45 3.45 0 013.442.172h200.116c1.901 0 3.442 1.542 3.442 3.45v10.95H0V3.623z" fill="#3EB2FD" fill-rule="nonzero"/><g transform="translate(5.094 4.794)" fill="#FFF" fill-rule="nonzero"><circle cx="2.4" cy="2.4" r="2.4"/><circle cx="9.6" cy="2.4" r="2.4"/><circle cx="16.8" cy="2.4" r="2.4"/></g></g><g transform="translate(83.2 65.2)" fill="#4F58FD" fill-rule="nonzero"><rect opacity=".2" x=".281" width="185.242" height="91.93" rx="3"/><path d="M116.934 59.944l-12.58-15.275a2.342 2.342 0 00-1.797-.83c-.691 0-1.383.346-1.797.83l-1.66 2.004c-.068.07-.137.208-.207.277-.414.414-.967.691-1.59.691-.621 0-1.105-.207-1.52-.622-.138-.138-.276-.277-.346-.415l-6.151-7.465c-.553-.691-1.383-1.106-2.35-1.106-.968 0-1.797.415-2.35 1.106L68.135 59.115l-.276.345c-.208.346-.346.692-.346 1.106 0 1.106.899 2.005 2.004 2.005H115.966c.83 0 1.52-.691 1.52-1.52 0-.346-.068-.623-.276-.9l-.276-.207zM113.34 28.979c-2.765 0-5.046 2.28-5.046 5.045s2.28 5.046 5.046 5.046c2.764 0 5.045-2.28 5.045-5.046 0-2.764-2.28-5.045-5.045-5.045z"/></g><rect fill="#4F58FD" fill-rule="nonzero" opacity=".7" x="83.52" y="51.2" width="39.6" height="5.76" rx="2.4"/><g transform="translate(83 168)" fill-rule="nonzero"><rect fill="#DCDEFF" x="1" y="1" width="50.527" height="48" rx="3"/><g fill="#4F58FD"><path d="M37.71 32.483l-6.29-7.638a1.17 1.17 0 00-.898-.415c-.346 0-.691.173-.899.415l-.83 1.002c-.034.035-.068.104-.103.139a1.125 1.125 0 01-.795.345c-.31 0-.553-.103-.76-.31a.916.916 0 01-.173-.208l-3.076-3.733a1.476 1.476 0 00-1.175-.553c-.483 0-.898.208-1.175.553l-8.225 9.988-.138.173a1.044 1.044 0 00-.173.553c0 .553.45 1.002 1.002 1.002h23.225c.414 0 .76-.345.76-.76a.695.695 0 00-.138-.45l-.139-.103zM35.913 17a2.537 2.537 0 00-2.523 2.523 2.537 2.537 0 002.523 2.523 2.537 2.537 0 002.523-2.523A2.537 2.537 0 0035.913 17z"/></g><rect fill="#838AFD" x="59" width="70" height="5" rx="2.5"/><rect fill="#DCDEFF" opacity=".76" x="59" y="11" width="27" height="5" rx="2.5"/><rect fill="#DCDEFF" x="59" y="22" width="120" height="5" rx="2.5"/><rect fill="#DCDEFF" x="59" y="33" width="115" height="5" rx="2.5"/><rect fill="#DCDEFF" x="59" y="44" width="124" height="5" rx="2.5"/><rect fill="#DCDEFF" y="55" width="186" height="5" rx="2.5"/><rect fill="#DCDEFF" y="65" width="186" height="5" rx="2.5"/><rect fill="#DCDEFF" y="76" width="120" height="5" rx="2.5"/></g></g></svg>