<svg width="130" height="21" xmlns="http://www.w3.org/2000/svg" xmlns:xlink="http://www.w3.org/1999/xlink"><defs><path d="M11.107.4L1.263 6.051A2.347 2.347 0 00.093 8.29v3.769a2.363 2.363 0 001.215 2.245l9.844 5.464a2.292 2.292 0 002.245 0l9.659-5.464a2.364 2.364 0 001.183-2.245V8.29a2.364 2.364 0 00-1.17-2.229L13.41.41a2.294 2.294 0 00-2.303-.01zm.78 14.014L2.043 8.76a.76.76 0 010-1.319l9.844-5.652a.734.734 0 01.743 0l9.658 5.666a.76.76 0 01.273 1.03.737.737 0 01-1.016.275l-9.29-5.443-8.332 4.784 8.696 4.993a.762.762 0 01.284 1.03.736.736 0 01-1.016.288zm.015 3.956l-9.844-5.464a.76.76 0 01-.312-1.086.737.737 0 011.025-.232l9.484 5.262 9.3-5.262a.739.739 0 011.012.292.76.76 0 01-.288 1.026l-9.658 5.464a.733.733 0 01-.719 0z" id="a"/></defs><g fill="none" fill-rule="evenodd"><g fill="#FFF"><path d="M34.541 11.42a7.343 7.343 0 01-2.385-1.04 4.592 4.592 0 01-2.018-3.729 4.558 4.558 0 011.148-3.372 5.337 5.337 0 013.667-1.629c2.295 0 3.577.874 4.725 1.653l.518.354-1.643 2.81-.565-.374C36.975 5.41 36.322 4.97 34.95 4.97c-.204 0-.99.165-1.395.614-.136.143-.292.401-.27.937.023.851.586 1.323 2.026 1.7.188.047.314.094.45.142 1.506.544 2.677 1.274 3.488 2.196a4.913 4.913 0 011.242 3.223 5.179 5.179 0 01-1.259 3.283 4.695 4.695 0 01-3.635 1.7 8.927 8.927 0 01-2.767-.402 8.678 8.678 0 01-3.765-2.503l2.295-2.267a5.31 5.31 0 004.237 1.866c1.305 0 1.732-1.252 1.732-1.677 0-.897-.968-1.724-2.61-2.314l-.069-.024-.109-.023zM54.065 1.883v3.305H49.7v13.25H46.55V5.187h-4.386V1.883zM63.447 12.067l-1.643-3.692-1.777 3.692h3.42zm1.486 3.297h-6.527l-1.485 3.073H53.39l8.032-16.554h.922l7.449 16.554h-3.488l-1.372-3.073zM81.496 5.896c-3.059-2.074-7.673-.142-7.673 4.297 0 4.65 4.883 6.517 7.854 4.156l2.025 2.436a7.966 7.966 0 01-5.22 1.982c-4.5 0-8.168-3.849-8.168-8.57 0-4.722 3.667-8.575 8.166-8.575a7.985 7.985 0 015.041 1.825l-2.025 2.45zM90.345 10.854l-1.214 1.299v6.256H85.98V1.883h3.15v5.334l4.611-5.336h4.252l-5.511 6.47 5.647 10.058h-3.765zM104.249 8.422a1.878 1.878 0 001.822-1.913 1.844 1.844 0 00-1.814-1.873h-1.381v3.786h1.373zm.997 7.179a1.957 1.957 0 001.935-1.979v-.004a1.979 1.979 0 00-1.935-2.009h-5.16V1.883h4.298c2.543 0 4.612 2.171 4.612 4.84a4.856 4.856 0 01-.81 2.72 5.066 5.066 0 011.868 3.967c0 2.786-2.139 5.005-4.77 5.005h-1.13v-2.81l1.092-.004zM112.8 18.41h3.15V1.882h-3.15zM129.87 1.883v3.305h-4.365v13.25h-3.151V5.187h-4.386V1.883z"/><path d="M100.085 18.415h2.925v-2.81h-2.925z"/></g><mask id="b" fill="#fff"><use xlink:href="#a"/></mask><path fill="#FFF" mask="url(#b)" d="M-.371 20.537h25.074V-.377H-.371z"/></g></svg>