<?xml version="1.0" encoding="UTF-8"?>
<svg width="249px" height="178px" viewBox="0 0 249 178" version="1.1" xmlns="http://www.w3.org/2000/svg" xmlns:xlink="http://www.w3.org/1999/xlink">
    <title>Group</title>
    <defs>
        <polygon id="path-1" points="-2.03937389e-12 0 951.957031 0 1562 1140 1562 1495 120 1475"></polygon>
        <path d="M10,0 L239,0 C244.522847,-1.01453063e-15 249,4.4771525 249,10 L249,332 C249,337.522847 244.522847,342 239,342 L10,342 C4.4771525,342 6.76353751e-16,337.522847 0,332 L0,10 C-6.76353751e-16,4.4771525 4.4771525,1.01453063e-15 10,0 Z" id="path-3"></path>
        <linearGradient x1="72.1035599%" y1="78.9109507%" x2="42.0063059%" y2="39.5306859%" id="linearGradient-5">
            <stop stop-color="#3C99FF" offset="0%"></stop>
            <stop stop-color="#3C7CFF" offset="100%"></stop>
        </linearGradient>
        <linearGradient x1="39.8064766%" y1="29.2726424%" x2="63.6649762%" y2="108.918156%" id="linearGradient-6">
            <stop stop-color="#3C99FF" offset="0%"></stop>
            <stop stop-color="#3C7CFF" offset="100%"></stop>
        </linearGradient>
    </defs>
    <g id="Stackbit-Homepage-v13" stroke="none" stroke-width="1" fill="none" fill-rule="evenodd">
        <g id="Try-Now" transform="translate(-1032.000000, -670.000000)">
            <rect fill="#D4DEE7" x="0" y="0" width="1440" height="1226"></rect>
            <g id="Bg" transform="translate(-120.000000, 0.000000)">
                <mask id="mask-2" fill="white">
                    <use xlink:href="#path-1"></use>
                </mask>
                <use id="Rectangle" fill="#031E34" xlink:href="#path-1"></use>
            </g>
            <g id="Create-Website" transform="translate(239.000000, 197.000000)">
                <g id="Create-a-Sample-Site" transform="translate(1.000000, 60.000000)">
                    <g id="row" transform="translate(0.000000, 53.000000)">
                        <g id="card-copy-7" transform="translate(792.000000, 360.000000)">
                            <mask id="mask-4" fill="white">
                                <use xlink:href="#path-3"></use>
                            </mask>
                            <path stroke="#E5E8EA" d="M239,0.5 L10,0.5 C7.37664744,0.5 5.00164744,1.56332372 3.28248558,3.28248558 C1.56332372,5.00164744 0.5,7.37664744 0.5,10 L0.5,332 C0.5,334.623353 1.56332372,336.998353 3.28248558,338.717514 C5.00164744,340.436676 7.37664744,341.5 10,341.5 L239,341.5 C241.623353,341.5 243.998353,340.436676 245.717514,338.717514 C247.436676,336.998353 248.5,334.623353 248.5,332 L248.5,10 C248.5,7.37664744 247.436676,5.00164744 245.717514,3.28248558 C243.998353,1.56332372 241.623353,0.5 239,0.5 Z"></path>
                            <g id="Group" mask="url(#mask-4)">
                                <rect id="Mask-Copy" fill="#244662" x="0" y="0" width="249" height="178"></rect>
                                <g id="Theme-icon-gen2" transform="translate(67.500000, 61.000000)">
                                    <g id="Theme">
                                        <rect id="Rectangle" fill="url(#linearGradient-5)" fill-rule="nonzero" x="15.804" y="16.2523404" width="39.888" height="41.0195745" rx="1.148"></rect>
                                        <path d="M80.808,57.2719149 C76.3282368,57.4333411 71.9692474,55.7601148 68.688,52.6195745 C65.5484316,49.5955374 63.8038886,45.3436778 63.888,40.9208511 C63.888,35.8365957 65.484,31.8259574 68.616,28.9753191 C72.0038815,26.0749341 76.1666951,24.2980347 80.556,23.8787234 L93.756,22.1757447 C94.9016138,22.1639995 95.9539488,21.5240967 96.516,20.4974468 C96.847419,19.6479102 96.9908853,18.7331858 96.936,17.8195745 C97.1110905,15.7786213 96.191253,13.8016231 94.536,12.6612766 C92.1145772,11.3430542 89.3866677,10.7367343 86.652,10.9089362 C82.812,10.9089362 80.076,11.9455319 78.552,13.9817021 C77.5449245,15.549746 76.9572121,17.3629013 76.848,19.2387234 L76.848,19.2387234 C76.7746206,19.9390057 76.2009029,20.4705313 75.516,20.472766 L67.848,20.472766 C67.4830745,20.4730054 67.1337423,20.3206325 66.880267,20.0506569 C66.6267917,19.7806813 66.4909669,19.4163153 66.504,19.0412766 L66.504,19.0412766 C66.66,12.3280851 68.904,7.55234043 73.032,4.84978723 C77.1975207,2.21079256 82.0122972,0.857305008 86.904,0.950212766 C92.904,0.950212766 97.884,2.18425532 101.7,4.55361702 C105.516,6.92297872 107.7,11.0446809 107.7,16.326383 L107.7,45.4868085 C107.661769,45.9759878 107.766217,46.4657823 108,46.893617 L108,46.893617 C108.343654,47.0611744 108.726388,47.1253469 109.104,47.0787234 C109.428,47.0787234 109.8,47.0787234 110.22,47.0787234 C110.64,47.0787234 111.12,46.893617 111.6,46.7702128 L111.6,46.7702128 C111.990951,46.7016047 112.391514,46.8124478 112.696193,47.0735496 C113.000871,47.3346514 113.179122,47.7198364 113.184,48.1276596 L113.184,54.4212766 C113.1845,55.0424498 112.781965,55.587657 112.2,55.7540426 L112.2,55.7540426 C111.175206,56.0830167 110.128424,56.3346075 109.068,56.5068085 C108.09232,56.6245845 107.110322,56.6781688 106.128,56.667234 C103.201086,56.8729604 100.39533,55.4326457 98.796,52.9034043 C98.3354754,52.1328754 97.9763451,51.3029465 97.728,50.4353191 C95.9777409,52.1160007 94.001506,53.5290507 91.86,54.6310638 C88.4353317,56.410302 84.6446584,57.3160751 80.808,57.2719149 Z M96.744,30.7153191 C96.0274029,31.0080496 95.294027,31.255322 94.548,31.4557447 C92.9488388,31.9032996 91.3207234,32.2332115 89.676,32.4429787 L84.684,33.1093617 C82.5096457,33.3045605 80.3875185,33.9024017 78.42,34.8740426 C76.3423282,36.0173428 75.1077822,38.3054627 75.264,40.7234043 C75.1792058,42.5547418 75.9672786,44.3137421 77.376,45.4374468 C78.9213065,46.6785868 80.8401326,47.3246987 82.8,47.2638298 C85.5295469,47.2561374 88.2201203,46.5971501 90.66,45.3387234 C94.5564021,43.6566063 97.0122422,39.6463736 96.804,35.3059574 L96.744,30.7153191 Z" id="Shape" fill="url(#linearGradient-6)" fill-rule="nonzero"></path>
                                        <rect id="Rectangle" fill="#143254" fill-rule="nonzero" x="0" y="0" width="39.888" height="41.0195745" rx="1.148"></rect>
                                        <rect id="Rectangle" fill="#FFFFFF" fill-rule="nonzero" x="8.004" y="8.23106383" width="23.892" height="24.5697872"></rect>
                                    </g>
                                </g>
                            </g>
                        </g>
                    </g>
                </g>
            </g>
        </g>
    </g>
</svg>