<svg width="400" height="302" xmlns="http://www.w3.org/2000/svg" xmlns:xlink="http://www.w3.org/1999/xlink"><defs><path d="M269.976 58.737C180.889 28.75 51.952 18.652 68.798 90.627 85.643 162.6-34.924 194.412 10.16 233.378c45.083 38.967 122.078-13.58 182.428 39.596 60.35 53.177 90.866 76.318 126.634 17.157 35.767-59.16 39.84-201.41-49.246-231.395z" id="a"/></defs><g transform="translate(19.9 -28.951)" fill="none" fill-rule="evenodd"><use fill="#4F58FD" opacity=".07" xlink:href="#a"/><path d="M239.724 203.802c-37.138-31.869-105.98 49.105-141.664-13.535-35.684-62.64 39.597-146.456 93.518-96.263 53.921 50.194 131.642-20.397 165.456 65.558 33.813 85.954-80.173 76.108-117.31 44.24z" fill="#4F58FD" opacity=".07"/><path d="M61.007 184.297c46.214-72.753 2.386-125.612 42.967-132.97 40.58-7.359 148.576 121.747 74.288 174.644-74.288 52.897-163.469 31.079-117.255-41.674z" fill="#4F58FD" opacity=".07"/><g transform="translate(19.1 73.951)" fill-rule="nonzero"><ellipse stroke="#3EB2FD" stroke-width="2.8" fill="#FFF" cx="9.8" cy="11.204" rx="9.8" ry="9.804"/><ellipse stroke="#3EB2FD" stroke-width="2.8" fill="#FFF" cx="54.6" cy="11.204" rx="9.8" ry="9.804"/><ellipse fill="#4F58FD" cx="99.4" cy="11.204" rx="11.2" ry="11.204"/><ellipse stroke="#3EB2FD" stroke-width="2.8" fill="#FFF" cx="144.2" cy="11.204" rx="9.8" ry="9.804"/><ellipse stroke="#3EB2FD" stroke-width="2.8" fill="#FFF" cx="189" cy="11.204" rx="9.8" ry="9.804"/><ellipse stroke="#3EB2FD" stroke-width="2.8" fill="#FFF" cx="233.8" cy="11.204" rx="9.8" ry="9.804"/><ellipse stroke="#3EB2FD" stroke-width="2.8" fill="#FFF" cx="278.6" cy="11.204" rx="9.8" ry="9.804"/><ellipse stroke="#3EB2FD" stroke-width="2.8" fill="#FFF" cx="323.4" cy="11.204" rx="9.8" ry="9.804"/><ellipse stroke="#3EB2FD" stroke-width="2.8" fill="#FFF" cx="9.8" cy="56.004" rx="9.8" ry="9.804"/><ellipse stroke="#3EB2FD" stroke-width="2.8" fill="#FFF" cx="54.6" cy="56.004" rx="9.8" ry="9.804"/><ellipse stroke="#3EB2FD" stroke-width="2.8" fill="#FFF" cx="99.4" cy="56.004" rx="9.8" ry="9.804"/><ellipse fill="#4F58FD" cx="144.2" cy="56.004" rx="11.2" ry="11.204"/><g transform="translate(0 46.2)" fill="#FFF" stroke="#3EB2FD" stroke-width="2.8"><ellipse cx="189" cy="9.804" rx="9.8" ry="9.804"/><ellipse cx="233.8" cy="9.804" rx="9.8" ry="9.804"/><ellipse cx="278.6" cy="9.804" rx="9.8" ry="9.804"/><ellipse cx="323.4" cy="9.804" rx="9.8" ry="9.804"/><ellipse cx="9.8" cy="54.604" rx="9.8" ry="9.804"/><ellipse cx="54.6" cy="54.604" rx="9.8" ry="9.804"/><ellipse cx="99.4" cy="54.604" rx="9.8" ry="9.804"/><ellipse cx="144.2" cy="54.604" rx="9.8" ry="9.804"/><ellipse cx="189" cy="54.604" rx="9.8" ry="9.804"/><ellipse cx="233.8" cy="54.604" rx="9.8" ry="9.804"/></g><ellipse fill="#4F58FD" cx="278.6" cy="100.804" rx="11.2" ry="11.204"/><ellipse stroke="#3EB2FD" stroke-width="2.8" fill="#FFF" cx="323.4" cy="100.804" rx="9.8" ry="9.804"/><ellipse stroke="#3EB2FD" stroke-width="2.8" fill="#FFF" cx="9.8" cy="145.604" rx="9.8" ry="9.804"/><ellipse fill="#4F58FD" cx="54.6" cy="145.604" rx="11.2" ry="11.204"/><ellipse stroke="#3EB2FD" stroke-width="2.8" fill="#FFF" cx="99.4" cy="145.604" rx="9.8" ry="9.804"/><ellipse stroke="#3EB2FD" stroke-width="2.8" fill="#FFF" cx="144.2" cy="145.604" rx="9.8" ry="9.804"/><ellipse stroke="#3EB2FD" stroke-width="2.8" fill="#FFF" cx="189" cy="145.604" rx="9.8" ry="9.804"/><ellipse stroke="#3EB2FD" stroke-width="2.8" fill="#FFF" cx="233.8" cy="145.604" rx="9.8" ry="9.804"/><ellipse stroke="#3EB2FD" stroke-width="2.8" fill="#FFF" cx="278.6" cy="145.604" rx="9.8" ry="9.804"/><ellipse stroke="#3EB2FD" stroke-width="2.8" fill="#FFF" cx="323.4" cy="145.604" rx="9.8" ry="9.804"/></g><g fill-rule="nonzero"><path d="M102.272 255.342c-.797 0-1.555.166-2.244.465-.837-2.116-2.891-3.616-5.287-3.616-.89 0-1.734.207-2.485.575-.95-1.832-2.855-3.086-5.046-3.086a5.62 5.62 0 00-1.84.31v-6.309c0-3.16-2.553-5.73-5.69-5.73-3.139 0-5.691 2.57-5.691 5.73v22.7l-4.099-4.69a5.705 5.705 0 00-4.121-1.775h-.029c-1.52 0-2.944.588-4.011 1.656-1.882 1.882-1.986 4.676-.285 7.666 2.201 3.868 4.595 7.516 6.707 10.735 1.543 2.352 3 4.573 4.066 6.41.924 1.594 3.378 6.764 3.403 6.816.318.672.995 1.1 1.738 1.1h24.336c.836 0 1.576-.539 1.832-1.334.454-1.412 4.436-13.926 4.436-18.758v-13.135c0-3.16-2.553-5.73-5.69-5.73z" fill="#FFF"/><path d="M101.272 255.342c-.797 0-1.555.166-2.244.465-.837-2.116-2.891-3.616-5.287-3.616-.89 0-1.734.207-2.485.575-.95-1.832-2.855-3.086-5.046-3.086a5.62 5.62 0 00-1.84.31v-6.309c0-3.16-2.553-5.73-5.69-5.73-3.139 0-5.691 2.57-5.691 5.73v22.7l-4.099-4.69a5.705 5.705 0 00-4.121-1.775h-.029c-1.52 0-2.944.588-4.011 1.656-1.882 1.882-1.986 4.676-.285 7.666 2.201 3.868 4.595 7.516 6.707 10.735 1.543 2.352 3 4.573 4.066 6.41.924 1.594 3.378 6.764 3.403 6.816.318.672.995 1.1 1.738 1.1h24.336c.836 0 1.576-.539 1.832-1.334.454-1.412 4.436-13.926 4.436-18.758v-13.135c0-3.16-2.553-5.73-5.69-5.73zm-1.84 5.73c0-1.037.825-1.881 1.84-1.881 1.015 0 1.84.844 1.84 1.881v13.134c0 3.212-2.468 11.846-3.83 16.244h-21.71c-.798-1.66-2.294-4.736-3.025-5.998-1.12-1.929-2.605-4.193-4.178-6.591-2.08-3.17-4.439-6.764-6.58-10.527-.56-.983-1.071-2.308-.338-3.041a1.837 1.837 0 011.3-.528 1.88 1.88 0 011.291.517l7.423 8.49a1.924 1.924 0 003.373-1.266v-27.825c0-1.037.826-1.88 1.841-1.88 1.016 0 1.842.843 1.842 1.88v17.97a1.925 1.925 0 003.849 0v-6.242c0-1.037.825-1.88 1.84-1.88 1.016 0 1.841.843 1.841 1.88v8.751a1.924 1.924 0 103.85 0v-6.24c0-1.037.825-1.88 1.84-1.88 1.015 0 1.841.843 1.841 1.88v8.753a1.925 1.925 0 003.85 0v-5.601z" fill="#3EB2FD"/></g></g></svg>