<svg width="114" height="58" xmlns="http://www.w3.org/2000/svg"><defs><linearGradient x1="72.104%" y1="78.911%" x2="42.006%" y2="39.531%" id="a"><stop stop-color="#3C99FF" offset="0%"/><stop stop-color="#3C7CFF" offset="100%"/></linearGradient><linearGradient x1="39.806%" y1="29.273%" x2="63.665%" y2="108.918%" id="b"><stop stop-color="#3C99FF" offset="0%"/><stop stop-color="#3C7CFF" offset="100%"/></linearGradient></defs><g fill-rule="nonzero" fill="none"><rect fill="url(#a)" x="15.804" y="16.252" width="39.888" height="41.02" rx="1.148"/><path d="M80.808 57.272c-4.48.161-8.839-1.512-12.12-4.652-3.14-3.024-4.884-7.276-4.8-11.7 0-5.083 1.596-9.094 4.728-11.945a21.503 21.503 0 0111.94-5.096l13.2-1.703a3.191 3.191 0 002.76-1.679c.331-.85.475-1.764.42-2.677.175-2.041-.745-4.018-2.4-5.159a14.563 14.563 0 00-7.884-1.752c-3.84 0-6.576 1.037-8.1 3.073a10.905 10.905 0 00-1.704 5.257c-.073.7-.647 1.232-1.332 1.234h-7.668c-.365 0-.714-.152-.968-.422a1.404 1.404 0 01-.376-1.01c.156-6.713 2.4-11.489 6.528-14.191A25.017 25.017 0 0186.904.95c6 0 10.98 1.234 14.796 3.604 3.816 2.369 6 6.49 6 11.772v29.16c-.038.49.066.98.3 1.408.344.167.726.231 1.104.185h1.116c.42 0 .9-.185 1.38-.309a1.33 1.33 0 011.096.304c.305.26.483.646.488 1.054v6.293c0 .621-.402 1.167-.984 1.333-1.025.329-2.072.58-3.132.753-.976.118-1.958.171-2.94.16-2.927.206-5.733-1.234-7.332-3.764-.46-.77-.82-1.6-1.068-2.468a24.972 24.972 0 01-5.868 4.196 23.376 23.376 0 01-11.052 2.64zm15.936-26.557c-.717.293-1.45.54-2.196.74-1.6.448-3.227.778-4.872.988l-4.992.666a17.722 17.722 0 00-6.264 1.765c-2.078 1.143-3.312 3.431-3.156 5.85-.085 1.83.703 3.59 2.112 4.713a8.248 8.248 0 005.424 1.827c2.73-.008 5.42-.667 7.86-1.925 3.896-1.682 6.352-5.693 6.144-10.033l-.06-4.59z" fill="url(#b)"/><rect fill="#143254" width="39.888" height="41.02" rx="1.148"/><path fill="#272B34" d="M8.004 8.231h23.892v24.57H8.004z"/></g></svg>