<svg width="553" height="564" viewBox="0 0 553 564" xmlns="http://www.w3.org/2000/svg">
  <title>
    triangle
  </title>
  <g fill="#FFF" fill-rule="nonzero">
    <g opacity=".4">
      <path d="M153.478 403.917l4.997 8 5.003-8zM296.478 247.917l8.556 14 8.555-14z"/>
      <path opacity=".8" d="M257.978 176.417l9.007 15 8.993-15z"/>
      <path d="M224.978 72.417l7.496 14 7.504-14zM288.978 394.417l5 9 5-9zM115.478 39.917l-7.5-13-7.5 13zM359.978 8.417l-4.501-8-4.499 8zM151.978 198.417l-6.505-10-6.495 10zM158.978 249.417l-4.499-8-4.5 8z"/>
      <path opacity=".5" d="M221.978 321.417l-4.995-9-5.005 9z"/>
    </g>
    <g opacity=".15">
      <path d="M474.1 186.738l5.596 9.596 5.604-9.596zM481.3 10.8l-5.199-8.797L470.9 10.8zM552.5 93.17l-5.994-10.396-6.006 10.397z"/>
    </g>
    <g opacity=".15">
      <path d="M17.548 185.68l5.596-9.597 5.604 9.596zM180.748 364.017l9.85-16 9.85 16zM137.948 445.988l10.007-17.594 9.993 17.594zM99.148 563.946l8.795-15.994 8.805 15.994zM172.348 196.476l5.6-10.397 5.6 10.397zM15.548 419.597l-7.206 11.996-7.194-11.996zM24.748 361.617l-5.199 8.797-5.201-8.797zM95.948 279.246l-5.994 10.397-6.006-10.397z"/>
    </g>
    <g opacity=".1">
      <path d="M267.1 75.262l5.596-9.596 5.604 9.596zM430.3 253.6l11.08-18 11.082 18zM387.5 335.57l7.963-14 7.952 14zM348.7 453.529l8.795-15.994 8.805 15.994zM421.9 86.059l5.6-10.397 5.6 10.397zM381.9 56.059l5.6-10.397 5.6 10.397zM265.1 309.18l-7.205 11.996-7.195-11.996zM274.3 251.2l-5.199 8.797-5.201-8.797zM345.5 168.83l-5.994 10.396-6.006-10.397z"/>
    </g>
    <g opacity=".15">
      <path d="M17.1 45.262l5.596-9.596 5.604 9.596zM137.5 305.57l7.963-14 7.952 14zM98.7 423.529l8.795-15.994 8.805 15.994zM171.9 56.059l5.6-10.397 5.6 10.397zM131.9 26.059l5.6-10.397 5.6 10.397zM15.1 279.18l-7.205 11.996L.7 279.18zM24.3 221.2l-5.199 8.797L13.9 221.2zM95.5 138.83l-5.994 10.396-6.006-10.397z"/>
    </g>
    <g opacity=".05">
      <path d="M387.916 390.824l-5.597 9.596-5.603-9.596zM267.516 130.515l-7.964 14-7.951-14zM306.316 12.557l-8.795 15.994-8.805-15.994zM233.116 380.027l-5.6 10.397-5.6-10.397zM273.116 410.027l-5.6 10.397-5.6-10.397zM389.916 156.906l7.205-11.996 7.195 11.996zM380.716 214.886l5.198-8.797 5.202 8.797zM309.516 297.257l5.993-10.397 6.007 10.397z"/>
    </g>
    <g opacity=".2">
      <path opacity=".706" d="M341.1 104.262l5.596-9.596 5.604 9.596zM504.3 277.807l7.5-12 7.5 12zM461.5 364.57l7.963-14 7.952 14zM422.7 482.529l8.795-15.994 8.805 15.994zM495.9 115.059l5.6-10.397 5.6 10.397zM298.3 520.516l-8.4 14.394-8.4-14.394zM547.5 525.663l-5.075 8.838-5.073-8.838zM339.1 338.18l-7.205 11.996-7.195-11.996zM348.3 280.2l-5.199 8.797-5.201-8.797zM419.5 197.83l-5.994 10.396-6.006-10.397z"/>
    </g>
  </g>
</svg>