<?xml version="1.0" encoding="UTF-8"?>
<svg width="249px" height="177px" viewBox="0 0 249 177" version="1.1" xmlns="http://www.w3.org/2000/svg" xmlns:xlink="http://www.w3.org/1999/xlink">
    <!-- Generator: Sketch 64 (93537) - https://sketch.com -->
    <title>Group</title>
    <desc>Created with Sketch.</desc>
    <g id="Stackbit-Homepage-v13" stroke="none" stroke-width="1" fill="none" fill-rule="evenodd">
        <g id="Try-Now" transform="translate(-240.000000, -310.000000)">
            <g id="Create-Website" transform="translate(239.000000, 197.000000)">
                <g id="Create-a-Sample-Site" transform="translate(1.000000, 60.000000)">
                    <g id="row" transform="translate(0.000000, 53.000000)">
                        <g id="card-copy-7">
                            <g id="Group" transform="translate(0.000000, -1.000000)">
                                <rect id="Mask-Copy" fill="#244662" x="0" y="0" width="249" height="178"></rect>
                                <g id="open_in_browser" transform="translate(55.000000, 30.000000)" fill-rule="nonzero">
                                    <path d="M137.666667,41.3 L0,41.3 L0,9.53076923 C0,4.26660769 5.13573148,0 11.4722222,0 L126.194444,0 C132.530935,0 137.666667,4.26660769 137.666667,9.53076923 L137.666667,41.3 Z" id="Path" fill="#455A64"></path>
                                    <path d="M0,31.4666667 L137.666667,31.4666667 L137.666667,108.015385 C137.666667,113.530221 132.530935,118 126.194444,118 L11.4722222,118 C5.13573148,118 0,113.530221 0,108.015385 L0,31.4666667 Z" id="Path" fill="#BBDEFB"></path>
                                    <path d="M15.7333333,9.83333333 C12.4748533,9.83333333 9.83333333,12.4748533 9.83333333,15.7333333 C9.83333333,18.9918134 12.4748533,21.6333333 15.7333333,21.6333333 C18.9918134,21.6333333 21.6333333,18.9918134 21.6333333,15.7333333 C21.6333333,12.4748533 18.9918134,9.83333333 15.7333333,9.83333333 Z" id="Path" fill="#8BC34A"></path>
                                    <path d="M35.4,9.83333333 C32.14152,9.83333333 29.5,12.4748533 29.5,15.7333333 C29.5,18.9918134 32.14152,21.6333333 35.4,21.6333333 C38.65848,21.6333333 41.3,18.9918134 41.3,15.7333333 C41.3,12.4748533 38.65848,9.83333333 35.4,9.83333333 Z" id="Path" fill="#FFEB3B"></path>
                                    <path d="M125.866667,18.6833333 C125.866667,20.3146833 123.90162,21.6333333 121.470588,21.6333333 L55.5294118,21.6333333 C53.0983804,21.6333333 51.1333333,20.3146833 51.1333333,18.6833333 L51.1333333,12.7833333 C51.1333333,11.1519833 53.0983804,9.83333333 55.5294118,9.83333333 L121.470588,9.83333333 C123.90162,9.83333333 125.866667,11.1519833 125.866667,12.7833333 L125.866667,18.6833333 Z" id="Path" fill="#FAFAFA"></path>
                                </g>
                            </g>
                        </g>
                    </g>
                </g>
            </g>
        </g>
    </g>
</svg>