<svg height="429" viewBox="0 0 400 429" width="400" xmlns="http://www.w3.org/2000/svg" xmlns:xlink="http://www.w3.org/1999/xlink"><defs><path id="a" d="m41 13h318c11.59798 0 21 9.4020203 21 21v347c0 11.59798-9.40202 21-21 21h-318c-11.5979797 0-21-9.40202-21-21v-347c0-11.5979797 9.4020203-21 21-21z"/><filter id="b" height="117.2%" width="118.6%" x="-9.3%" y="-6.8%"><feOffset dx="0" dy="7" in="SourceAlpha" result="shadowOffsetOuter1"/><feGaussianBlur in="shadowOffsetOuter1" result="shadowBlurOuter1" stdDeviation="10"/><feColorMatrix in="shadowBlurOuter1" type="matrix" values="0 0 0 0 0.117915771   0 0 0 0 0.419333319   0 0 0 0 0.614215353  0 0 0 0.15 0"/></filter><linearGradient id="c" x1="50%" x2="50%" y1="0%" y2="100%"><stop offset="0" stop-color="#7f7ff8"/><stop offset="1" stop-color="#4d4dc9"/></linearGradient><path id="d" d="m45 122h310c8.284271 0 15 6.715729 15 15v180c0 8.284271-6.715729 15-15 15h-310c-8.2842712 0-15-6.715729-15-15v-180c0-8.284271 6.7157288-15 15-15z"/><filter id="e" height="140.5%" width="125%" x="-12.5%" y="-15.5%"><feOffset dx="0" dy="10" in="SourceAlpha" result="shadowOffsetOuter1"/><feGaussianBlur in="shadowOffsetOuter1" result="shadowBlurOuter1" stdDeviation="12.5"/><feColorMatrix in="shadowBlurOuter1" type="matrix" values="0 0 0 0 0.117647059   0 0 0 0 0.419607843   0 0 0 0 0.615686275  0 0 0 0.16 0"/></filter><mask id="f" fill="#fff"><use fill="#fff" fill-rule="evenodd" xlink:href="#a"/></mask><mask id="g" fill="#fff"><path d="m7.689513.27738318-6.81512022 3.92523364c-.5463669.31153271-.8632057.91942056-.81009919 1.55439253v2.61682243c-.04629139.64308411.28302037 1.25385046.84096012 1.55962616l6.81512021 3.79426166c.48374495.2720187 1.07100258.2720187 1.55461894 0l6.68653304-3.79426166c.549453-.31192523.8696351-.92138317.8191003-1.55962616v-2.61682243c.0475773-.63209346-.2681043-1.23527103-.8100992-1.54785047l-6.68653304-3.92523365c-.24830183-.14575701-.52566437-.21863551-.80289832-.21863551-.27299057 0-.54598114.07065421-.79158264.21209346zm.54006613 9.73196262-6.81512022-3.92523365c-.08461036-.04762617-.15430461-.11854206-.20098175-.20463551-.13758828-.25291589-.04757725-.57125234.20098175-.71125234l6.81512022-3.92523365c.15919092-.09342056.35515778-.09342056.5143487 0l6.68653307 3.93439253c.2459872.14457944.3303404.46461682.1883802.71504673-.1419603.2504299-.4566131.33626168-.7027289.19168224l-6.43193046-3.78-5.76842063 3.32205607 6.02045149 3.46728972c.248559.14235514.33664122.46278505.19673837.7155701-.09489733.17166355-.27003306.26809346-.45044087.26809346-.08576764 0-.17282116-.0219813-.25293097-.0677757zm.01028698 2.7476635-6.81512022-3.79439248c-.01954525-.00928972-.03870474-.01988785-.05683553-.03166355-.23994367-.15478505-.31118096-.4782243-.15906234-.72237383.15186145-.24401869.46985754-.31663551.70967262-.16185047l6.5656611 3.65439253 6.43835976-3.65439253c.248559-.14091589.5623117-.05011215.7008001.20280374.1384884.25304673.0492489.57216822-.1993101.71308411l-6.68653303 3.79439248c-.07740948.0435701-.16317712.0652898-.24881618.0652898-.08576765 0-.17140671-.0217197-.24881618-.0652898z" fill="#fff" fill-rule="evenodd"/></mask></defs><g fill="none" fill-rule="evenodd"><use fill="#000" filter="url(#b)" xlink:href="#a"/><use fill="#82949f" fill-rule="evenodd" xlink:href="#a"/><g mask="url(#f)"><path d="m0 0h360v124c-48.057292 20-105.1875 30-171.390625 30s-129.0729167 6.666667-188.609375 20z" fill="url(#c)" transform="translate(20 13)"/></g><g mask="url(#f)"><use fill="#000" filter="url(#e)" xlink:href="#d"/><use fill="#fff" fill-rule="evenodd" xlink:href="#d"/></g><path d="m49 147h294v163h-294z" fill="#fff" mask="url(#f)"/><g mask="url(#f)"><g fill="#fff" transform="translate(50 362)"><g transform="translate(19.73262 .965517)"><path d="m4.18045632 6.96499283c-.58917994-.14039789-1.14838611-.38489062-1.65116342-.72215786-.85985606-.5847527-1.38087827-1.5507527-1.39703804-2.58935884-.0629449-.85591972.22376067-1.70077936.79495635-2.34213362.66606916-.69314143 1.57714126-1.09898114 2.53864747-1.13073006 1.58860949 0 2.47609354.60635237 3.27104988 1.14764547l.35838196.24592403-1.13769982 1.95177802-.39096214-.26023707c-.70112543-.47493265-1.1533383-.78071121-2.10337629-.78071121-.14074637 0-.68548695.11450431-.96567648.42678879-.09383091.09889009-.2019971.27845367-.18635862.65059268.01563849.59073814.40529742.91863685 1.40225087 1.18017511.13032071.03252963.21763559.06505926.3114665.09889008 1.0425657.37734375 1.85316053.88480604 2.4148428 1.52498923.54773795.61793292.8532097 1.41295716.8601167 2.23816891-.01642041.83783324-.32475922 1.64391761-.87184557 2.27954661-.61902338.7505237-1.54273659 1.1836883-2.51649295 1.1801751-.64938811.0087179-1.29577884-.0853578-1.91571447-.2784537-1.00763975-.3389587-1.9071133-.9388052-2.60641425-1.7383836l1.58860949-1.57443425c.72679861.85852209 1.8083302 1.33631735 2.93351923 1.2959806.90312253 0 1.19895055-.86919181 1.19895055-1.16443076 0-.62326778-.66984846-1.19722064-1.80754828-1.60709402l-.04691545-.01691541z"/><path d="m17.6972945.34197244v2.29529095h-3.0221373v9.20068161h-2.1815687v-9.20068161h-3.0364726v-2.29529095z"/><path d="m24.1925179 7.4139278-1.1376998-2.56333513-1.2302275 2.56333513zm1.0282304 2.29008621h-4.518219l-1.0282305 2.13394399h-2.4448165l5.5607848-11.49597255h.6385715l5.1567905 11.49597255h-2.4148428z"/><path d="m36.6876548 3.12909844c-2.1177116-1.44041218-5.3118722-.09889009-5.3118722 2.98361799 0 3.22954203 3.3805192 4.52552267 5.4369801 2.8860291l1.4022508 1.69154097c-.997996.8806422-2.282046 1.3697578-3.6137933 1.3766541-3.1159682 0-5.6546157-2.67263473-5.6546157-5.9516218s2.5386475-5.95422413 5.6531822-5.95422413c1.2753184.00676616 2.5086737.45463416 3.490119 1.26735452z"/><path d="m42.8139924 6.57209992-.8405686.90172144v4.34452774h-2.1814384v-11.47632461h2.1801352v3.70447467l3.1928574-3.70577586h2.9439449l-3.8156601 4.492993 3.9096213 6.9846328h-2.6064142z"/><path d="m52.4395323 4.88309628c.7140272-.02264062 1.2768823-.61533055 1.2615045-1.32851023.0130321-.7055027-.5493018-1.28804338-1.256031-1.30105523-.0018245 0-.003649 0-.0054735-.00013012h-.950038v2.62969558zm.6906998 4.98497118c.7498654-.01014925 1.3497316-.62508944 1.3396969-1.37392161v-.00286261c.0131624-.75351643-.58514-1.37639385-1.3396969-1.39487069h-3.5720907v-6.75445312h2.9752218c1.7605025 0 3.1928575 1.50807381 3.1928575 3.36096174.0050825.67141164-.1900076 1.32903072-.5603791 1.88932113.826103.67570554 1.3013826 1.6884181 1.2927815 2.75460937 0 1.93486263-1.4805736 3.47546603-3.3023269 3.47546603h-.7819242v-1.95177799z"/><path d="m58.3599762 11.8184402h2.1802655v-11.47645475h-2.1802655z"/><path d="m70.1774063.34197244v2.29529095h-3.022007v9.20068161h-2.1816991v-9.20068161h-3.0363423v-2.29529095z"/><path d="m49.5568121 11.8223438h2.0251839v-1.95177807h-2.0251839z"/></g><path d="m-.25717435 14.2616822h17.35926845v-14.52336444h-17.35926845z" mask="url(#g)"/></g></g></g></svg>