<svg width="62" height="20" xmlns="http://www.w3.org/2000/svg"><path d="M9.19.2H0v18.772h9.19c4.597 0 9.19-4.203 9.19-9.385C18.38 4.405 13.787.2 9.19.2zm0 13.65c-2.32 0-4.202-1.91-4.201-4.266 0-2.355 1.883-4.264 4.205-4.263 2.32 0 4.202 1.91 4.2 4.266.001 2.355-1.88 4.264-4.2 4.264H9.19zM27.81.204c2.766 0 4.185 1.702 4.185 4.044V6.34c0 2.341-1.42 4.043-4.185 4.043h-4.386V.204h4.386zm1.72 4.03c0-1.294-.674-1.978-2.165-1.978h-1.49v6.078h1.49c1.49 0 2.164-.683 2.164-1.978V4.233zm10.1 4.261h-3.626l-.559 1.891H32.98L36.563.203h2.523l3.583 10.181h-2.466l-.573-1.89zm-3.024-2.007h2.422L37.824 2.46l-1.218 4.028zM50.463.203v2.11h-2.71v8.071H45.29V2.312h-2.71V.203h7.884zm5.967 10.385c-3.039 0-4.6-1.978-4.6-4.64V4.64C51.83 1.978 53.39 0 56.43 0c3.038 0 4.601 1.978 4.601 4.64v1.308c0 2.662-1.563 4.64-4.601 4.64zm0-8.508c-1.433 0-2.136.974-2.136 2.428V6.08c0 1.455.703 2.429 2.136 2.429 1.433 0 2.135-.974 2.135-2.429V4.51c0-1.455-.702-2.43-2.135-2.43zM25.622 17.836a1.13 1.13 0 001.215-1.154h1.39c-.017 1.313-.97 2.414-2.588 2.414-1.89 0-2.8-1.207-2.8-2.822v-.817c0-1.615.91-2.822 2.8-2.822 1.618 0 2.571 1.1 2.589 2.414h-1.391a1.133 1.133 0 00-1.215-1.154c-.91 0-1.277.612-1.277 1.49v.96c0 .878.369 1.49 1.277 1.49zm8.656-5.077h1.382v6.213h-1.443v-3.284l-.963 1.899h-1.189l-.953-1.9v3.285h-1.444v-6.213h1.382l1.61 3.381 1.618-3.381zm5.317 6.337c-1.469 0-2.457-.71-2.457-1.962v-.168h1.443v.124c0 .524.332.844 1.023.844.621 0 1.032-.258 1.032-.737a.508.508 0 00-.42-.55l-1.53-.391c-.954-.24-1.444-.666-1.444-1.678 0-1.233.866-1.943 2.318-1.943 1.373 0 2.248.754 2.248 1.89v.151h-1.39v-.106c0-.418-.228-.764-.858-.764-.524 0-.857.187-.857.63a.471.471 0 00.394.506l1.627.444c.98.266 1.373.817 1.373 1.678 0 1.242-1.085 2.032-2.502 2.032z" fill="#272B34" fill-rule="nonzero" opacity=".6"/></svg>