<?xml version="1.0" encoding="UTF-8"?>
<svg width="258px" height="258px" viewBox="0 0 258 258" version="1.1" xmlns="http://www.w3.org/2000/svg" xmlns:xlink="http://www.w3.org/1999/xlink">
    <!-- Generator: Sketch 55.2 (78181) - https://sketchapp.com -->
    <title>jekyll</title>
    <desc>Created with Sketch.</desc>
    <defs>
        <circle id="path-1" cx="96" cy="96" r="96"></circle>
        <filter x="-29.2%" y="-24.0%" width="158.3%" height="158.3%" filterUnits="objectBoundingBox" id="filter-2">
            <feOffset dx="0" dy="10" in="SourceAlpha" result="shadowOffsetOuter1"></feOffset>
            <feGaussianBlur stdDeviation="17" in="shadowOffsetOuter1" result="shadowBlurOuter1"></feGaussianBlur>
            <feColorMatrix values="0 0 0 0 0   0 0 0 0 0   0 0 0 0 0  0 0 0 0.2 0" type="matrix" in="shadowBlurOuter1"></feColorMatrix>
        </filter>
    </defs>
    <g id="Page-1" stroke="none" stroke-width="1" fill="none" fill-rule="evenodd">
        <g id="jekyll" transform="translate(33.000000, 23.000000)">
            <g id="Oval">
                <use fill="black" fill-opacity="1" filter="url(#filter-2)" xlink:href="#path-1"></use>
                <use fill="#FFFFFF" fill-rule="evenodd" xlink:href="#path-1"></use>
            </g>
            <g id="test-tube_2_" transform="translate(140.064706, 63.000000)" fill-rule="nonzero">
                <path d="M7.87952941,64.9811047 L7.87952941,64.9811047 C6.93247059,64.9811047 6.00435294,64.8110465 5.11411765,64.4709302 C1.38270588,63.0537791 -0.587176471,59.0101744 0.435647059,55.2688953 L0.397764706,55.25 L0.644,54.6075581 L19.6041176,5.47965116 C19.8882353,4.76162791 19.7556471,3.02325581 19.6230588,2.05959302 C19.5851765,1.83284884 19.5851765,1.625 19.642,1.41715116 L19.6609412,1.37936047 C19.6798824,1.34156977 19.6798824,1.30377907 19.6988235,1.26598837 C20.0018824,0.472383721 20.93,0.0755813953 22.4452941,0.0755813953 C24.2636471,0.0755813953 26.7828235,0.64244186 29.3588235,1.625 C31.5181176,2.45639535 33.488,3.49563953 34.8707059,4.53488372 C36.4996471,5.7630814 37.1436471,6.85901163 36.7837647,7.80377907 C36.7648235,7.84156977 36.7458824,7.87936047 36.7269412,7.91715116 L36.708,7.95494186 C36.6132941,8.14389535 36.4807059,8.29505814 36.3102353,8.42732558 C35.4768235,9.16424419 34.2456471,10.4113372 34.0372941,10.9781977 L14.8498824,60.7863372 L14.812,60.7674419 C13.4671765,63.3372093 10.8343529,64.9811047 7.87952941,64.9811047 Z M1.95094118,54.9287791 L1.89411765,55.0610465 C0.681882353,58.3110465 2.32976471,61.9767442 5.58764706,63.2238372 C6.32635294,63.5072674 7.084,63.6395349 7.86058824,63.6395349 C10.4934118,63.6395349 12.8231765,62.0712209 13.7891765,59.6148256 L13.8649412,59.4447674 L32.7303529,10.5247093 C33.1281176,9.46656977 35.0032941,7.78488372 35.3821176,7.44476744 L35.42,7.40697674 C35.4578824,7.3880814 35.4768235,7.36918605 35.4768235,7.3502907 L35.4957647,7.33139535 C35.5147059,7.19912791 35.3442353,6.61337209 34.0183529,5.59302326 C32.7492941,4.62936047 30.912,3.66569767 28.8474118,2.87209302 C26.4608235,1.94622093 24.0363529,1.39825581 22.4074118,1.39825581 C21.3277647,1.39825581 20.9678824,1.625 20.9110588,1.73837209 L20.9110588,1.75726744 C20.9110588,1.77616279 20.9110588,1.79505814 20.9110588,1.83284884 L20.9110588,1.85174419 C20.9489412,2.13517442 21.3088235,4.64825581 20.8163529,5.95203488 L1.95094118,54.9287791 Z" id="tube_2_" fill="#000000"></path>
                <path d="M26.2145882,23.8081395 C26.2145882,23.8081395 23.6007059,26.8125 21.2141176,27.8895349 C18.8275294,28.9665698 17.066,28.6831395 14.9256471,29.9302326 C12.7852941,31.1773256 11.7056471,32.9156977 11.7056471,32.9156977 L2.99270588,55.5334302 C2.04564706,58.0843023 3.44729412,61.0697674 6.04223529,62.0712209 C8.63717647,63.0726744 11.5730588,61.75 12.5769412,59.2180233 L12.5769412,59.2180233 L26.2145882,23.8081395 Z M17.4448235,36.8648256 C17.8615294,36.6758721 18.354,36.8648256 18.5244706,37.2805233 C18.7138824,37.6962209 18.5244706,38.1875 18.1077647,38.3575581 C17.6910588,38.5465116 17.1985882,38.3575581 17.0281176,37.9418605 C16.8197647,37.5261628 17.0281176,37.0348837 17.4448235,36.8648256 Z M13.9407059,33.1424419 C14.2248235,33.0290698 14.5468235,33.1424419 14.6604706,33.4258721 C14.7741176,33.7093023 14.6604706,34.0305233 14.3763529,34.1438953 C14.0922353,34.2572674 13.7702353,34.1438953 13.6565882,33.8604651 C13.5429412,33.5770349 13.6755294,33.255814 13.9407059,33.1424419 Z M10.0956471,45.934593 C9.67894118,46.1235465 9.18647059,45.934593 9.016,45.5188953 C8.82658824,45.1031977 9.016,44.6119186 9.43270588,44.4418605 C9.84941176,44.252907 10.3418824,44.4418605 10.5123529,44.8575581 C10.7207059,45.2732558 10.5312941,45.7456395 10.0956471,45.934593 Z M10.8722353,42.9680233 C10.5312941,42.193314 10.8722353,41.2863372 11.6488235,40.9273256 C12.4254118,40.5872093 13.3345882,40.9273256 13.6944706,41.7020349 C14.0354118,42.4767442 13.6944706,43.3837209 12.9178824,43.7427326 C12.1223529,44.0828488 11.2131765,43.7427326 10.8722353,42.9680233 Z M12.8421176,50.809593 C13.1262353,50.6962209 13.4482353,50.809593 13.5618824,51.0930233 C13.6755294,51.3764535 13.5618824,51.6976744 13.2777647,51.8110465 C12.9936471,51.9244186 12.6716471,51.8110465 12.558,51.5276163 C12.4443529,51.2630814 12.558,50.9418605 12.8421176,50.809593 Z" id="liquid_2_" fill="#CC0000"></path>
                <ellipse id="top_2_" fill="#000000" transform="translate(27.986575, 5.050398) rotate(-68.960432) translate(-27.986575, -5.050398) " cx="27.9865751" cy="5.05039797" rx="1.37975003" ry="5.26382058"></ellipse>
            </g>
            <path d="M52.6511765,93.0813953 C53.4845882,93.7427326 54.9998824,93.3648256 56.0227059,92.25 C57.0834118,91.0784884 57.2538824,89.5857558 56.4204706,88.9055233 C55.5870588,88.244186 54.0717647,88.622093 53.0489412,89.7936047 C51.9692941,90.9840116 51.7798824,92.4200581 52.6511765,93.0813953 Z M50.1698824,95.2543605 C49.9425882,95.2543605 49.5637647,95.6511628 49.8857647,95.8023256 C50.3403529,95.9723837 50.5487059,96.3502907 50.5487059,96.9171512 C50.1509412,99.2034884 47.3097647,101.829942 46.1732941,102.718023 C45.8891765,103.001453 46.2869412,103.606105 46.5710588,103.37936 C47.1771765,102.888081 48.4651765,101.886628 49.5258824,100.545058 C47.8022353,104.399709 44.4307059,109.350291 43.1427059,111.088663 C38.1043529,118.061047 30.4521176,124.46657 25.1864706,124.46657 C20.9815294,124.46657 17.4205882,121.632267 16.644,117.4375 C16.5871765,116.984012 15.9810588,116.889535 16.0947059,117.494186 C17.0417647,123.238372 21.474,125.449128 26.8343529,125.449128 C32.7061176,125.449128 39.6007059,121.197674 43.3889412,116.87064 C49.5258824,109.84157 53.5224706,101.773256 52.4428235,97.2005814 C52.0261176,95.4811047 50.8328235,95.1976744 50.1698824,95.2543605 Z M87.9007059,110.540698 C89.5107059,110.143895 90.8555294,109.255814 90.8555294,107.857558 C90.8555294,107.725291 90.5714118,107.725291 90.5714118,107.857558 C90.5714118,108.688953 89.6243529,109.369186 88.5636471,109.539244 C86.0634118,109.936047 81.0818824,106.988372 78.7331765,103.965116 C81.2334118,104.909884 86.3854118,103.530523 88.8098824,101.811047 C91.0449412,100.204942 91.9351765,98.4098837 92.1245882,96.9549419 C92.4087059,94.5741279 89.7758824,93.1569767 86.1391765,94.5741279 C83.7904706,95.5188953 80.9871765,97.5784884 78.0891765,101.43314 C81.1576471,96.3502907 87.1998824,88.1119186 93.1284706,82.8212209 C100.345059,76.4156977 104.531059,77.6438953 98.0531765,84.4273256 C95.3824706,87.2049419 90.3441176,90.8328488 86.8589412,92.4011628 C85.7982353,92.8546512 86.3096471,93.4593023 87.0862353,93.119186 C90.7797647,91.5130814 95.6855294,88.1497093 98.6592941,85.372093 C107.429059,76.9636628 100.117765,70.6148256 90.382,79.5145349 C83.7904706,85.5988372 79.4718824,91.9476744 75.7404706,100.186047 C74.4524706,101.735465 73.5054118,103.020349 72.3121176,104.040698 C72.1795294,104.15407 72.0658824,104.286337 71.9711765,104.399709 C68.7511765,107.15843 63.6749412,110.880814 60.5117647,110.9375 C58.2767059,110.994186 57.3296471,109.331395 57.7274118,107.139535 C58.3335294,103.738372 61.8755294,99.7325581 64.8871765,98.3343023 C68.808,96.5581395 71.0998824,99.997093 65.9478824,102.793605 C63.9969412,103.795058 61.6292941,104.343023 60.6822353,104.343023 C59.5647059,104.343023 59.6783529,104.796512 60.6254118,104.834302 C62.1785882,104.890988 64.7167059,104.229651 66.3835294,103.436047 C71.6491765,100.94186 71.9711765,96.255814 66.2698824,96.0857558 C60.0571765,95.8590116 52.6322353,101.168605 52.6887347,107.800872 C52.7458824,110.805233 55.1514118,112.430233 58.4471765,112.430233 C63.9401176,112.373547 68.8458824,108.197674 72.8424706,104.550872 C73.4107059,104.078488 73.9789412,103.549419 74.5282353,103.001453 C73.1265882,106.572674 72.4068235,109.860465 72.7477647,112.297965 C72.9750588,114.074128 73.9789412,114.905523 74.7555294,115.585756 C74.926,115.699128 75.248,115.585756 75.0396471,115.24564 C73.8652941,113.847384 74.2062353,109.709302 75.8162353,105.722384 C77.1610588,108.367733 82.4077647,111.768895 87.9007059,110.540698 Z M81.3091765,98.9200581 C87.7302353,93.1758721 90.2494118,98.315407 86.1770588,101.414244 C84.0556471,103.020349 79.8507059,104.248547 78.5248235,103.473837 L78.2407059,103.303779 C78.0702353,103.020349 77.8997647,102.755814 77.7861176,102.472384 C78.8468235,101.1875 80.078,100.034884 81.3091765,98.9200581 Z M116.975412,92.4200581 C119.532471,92.7034884 118.471765,89.5857558 115.857882,90.3604651 C114.683529,90.7005814 113.566,92.9113372 112.732588,94.8764535 C110.175529,98.7311047 105.856941,103.946221 102.826353,106.686047 C100.155647,108.972384 97.6743529,109.577035 100.704941,105.287791 C101.936118,103.568314 103.489294,101.71657 104.398471,99.8837209 C106.519882,95.2543605 101.992941,93.1947674 98.3562353,95.9723837 C96.2348235,97.5784884 93.3747059,100.94186 91.1396471,102.774709 C90.5335294,103.265988 90.6850588,104.002907 91.3101176,103.492733 C93.0905882,102.056686 96.2348235,98.75 98.9055294,96.8037791 C101.140588,95.0843023 102.030824,96.1991279 100.742824,97.6351744 C98.9623529,99.6947674 95.8181176,103.265988 95.0415294,105.552326 C93.924,108.953488 95.2688235,110.465116 97.4849412,110.465116 C100.553412,110.465116 105.137176,105.665698 108.224588,101.886628 C109.228471,100.601744 110.346,99.1090116 111.293059,97.6540698 C108.622353,102.831395 105.819059,108.084302 102.352824,112.80814 C97.4281176,119.497093 91.2722353,124.523256 85.4572941,124.523256 C81.2523529,124.523256 77.6345882,121.688953 76.858,117.494186 C76.8011765,117.040698 76.2518824,116.946221 76.3087059,117.550872 C77.2557647,123.295058 81.688,125.505814 87.0483529,125.505814 C92.9201176,125.505814 98.5645882,122.104651 102.523294,117.928779 C110.516471,109.501453 111.482471,100.034884 113.925882,94.744186 C115.081294,92.4200581 116.142,92.306686 116.975412,92.4200581 Z M149.478471,84.2761628 C150.652824,82.2732558 150.596,80.7049419 147.868471,80.7049419 C145.803882,80.7616279 142.053529,82.1976744 140.329882,83.5392442 C139.932118,83.9360465 140.102588,84.1438953 140.614,83.9360465 C140.954941,83.8226744 141.333765,83.5959302 141.731529,83.4447674 C143.682471,82.3866279 142.905882,84.6162791 142.451294,85.4476744 C140.102588,89.5290698 135.973412,95.2543605 133.795176,98.1075581 C132.753412,99.505814 131.579059,100.90407 130.423647,102.094477 C128.321176,104.078488 124.173059,107.611919 121.047765,108.78343 C110.857412,112.581395 123.832118,95.2921512 124.911765,93.9127907 C127.317294,90.9084302 132.677647,85.6744186 134.287647,83.0479651 C135.462,81.0450581 135.405176,79.4767442 132.677647,79.4767442 C130.613059,79.5334302 126.862706,80.9694767 125.139059,82.3110465 C124.741294,82.7078488 124.911765,82.9156977 125.423176,82.7078488 C125.764118,82.5944767 126.142941,82.3677326 126.540706,82.2165698 C128.491647,81.1584302 127.715059,83.3880814 127.260471,84.2194767 C124.911765,88.3008721 120.782588,94.0261628 118.604353,96.8793605 C116.823882,99.2601744 114.626706,101.678779 112.959882,103.001453 C112.296941,103.549419 112.675765,104.059593 113.357647,103.606105 C113.963765,103.209302 114.854,102.321221 115.857882,101.263081 C114.020588,104.947674 112.486353,110.125 117.354235,110.729651 C121.502353,111.296512 126.427059,107.063953 129.609176,103.946221 C129.950118,103.606105 130.347882,103.228198 130.745647,102.8125 C130.840353,102.718023 130.935059,102.623547 131.029765,102.52907 C129.192471,106.213663 127.677176,111.372093 132.545059,111.976744 C137.867529,112.694767 144.459059,105.571221 147.016118,102.963663 C147.508588,102.472384 147.357059,101.622093 146.523647,102.472384 C145.027294,104.021802 139.932118,108.651163 136.219647,110.049419 C126.029294,113.847384 139.004,96.5581395 140.083647,95.1787791 C142.489176,92.1555233 147.868471,86.9215116 149.478471,84.2761628 Z" id="jekyll-text_1_" fill="#000000" fill-rule="nonzero"></path>
        </g>
    </g>
</svg>