<svg width="1049" height="428" xmlns="http://www.w3.org/2000/svg" xmlns:xlink="http://www.w3.org/1999/xlink"><defs><rect id="b" width="981" height="360" rx="25"/><filter x="-5.7%" y="-12.8%" width="111.4%" height="131.1%" filterUnits="objectBoundingBox" id="a"><feOffset dy="10" in="SourceAlpha" result="shadowOffsetOuter1"/><feGaussianBlur stdDeviation="17" in="shadowOffsetOuter1" result="shadowBlurOuter1"/><feColorMatrix values="0 0 0 0 0 0 0 0 0 0 0 0 0 0 0 0 0 0 0.2 0" in="shadowBlurOuter1"/></filter></defs><g fill="none" fill-rule="evenodd"><g transform="translate(34 24)"><use fill="#000" filter="url(#a)" xlink:href="#b"/><use fill="#07335C" xlink:href="#b"/></g><g fill-rule="nonzero"><path d="M93.178 82.701c0 1.36-.164 2.628-.492 3.806-.329 1.178-.809 2.2-1.442 3.067a6.814 6.814 0 0 1-2.347 2.04c-.931.491-2 .738-3.208.738-1.218 0-2.276-.217-3.172-.65a6.451 6.451 0 0 1-2.294-1.864L80.064 92h-2.988V65h3.252v10.02a6.238 6.238 0 0 1 2.25-1.776c.879-.41 1.904-.615 3.076-.615 1.22 0 2.297.24 3.235.72a6.69 6.69 0 0 1 2.355 2.005c.633.855 1.113 1.877 1.442 3.067.328 1.19.492 2.493.492 3.911v.37zm-3.252-.369c0-.926-.091-1.808-.273-2.645-.181-.838-.471-1.577-.87-2.215a4.467 4.467 0 0 0-1.564-1.52c-.645-.376-1.436-.563-2.373-.563-.563 0-1.078.073-1.547.22a4.405 4.405 0 0 0-1.257.615c-.37.263-.697.574-.984.931-.287.358-.53.747-.73 1.17v8.314c.211.422.46.811.747 1.169.287.357.618.67.993.94a4.4 4.4 0 0 0 1.266.624c.469.147.984.22 1.547.22.89 0 1.655-.185 2.294-.554.638-.37 1.16-.87 1.564-1.503.405-.633.703-1.365.897-2.197.193-.832.29-1.711.29-2.637v-.369zM110.16 92a3.542 3.542 0 0 1-.307-.923c-.077-.369-.132-.753-.167-1.151a9.102 9.102 0 0 1-1.1.931c-.403.293-.849.551-1.335.774a8.234 8.234 0 0 1-1.556.527 7.696 7.696 0 0 1-1.757.194c-1.008 0-1.92-.147-2.734-.44-.814-.293-1.506-.688-2.074-1.186a5.173 5.173 0 0 1-1.318-1.776 5.325 5.325 0 0 1-.466-2.223c0-1.043.208-1.957.624-2.743a5.436 5.436 0 0 1 1.766-1.96c.762-.521 1.679-.91 2.751-1.169 1.073-.257 2.27-.386 3.595-.386h3.55v-1.494a3.65 3.65 0 0 0-.316-1.547 3.307 3.307 0 0 0-.896-1.17 4.12 4.12 0 0 0-1.415-.746 6.202 6.202 0 0 0-1.872-.264c-.645 0-1.222.082-1.732.246-.51.164-.94.381-1.292.65-.351.27-.624.59-.817.959a2.45 2.45 0 0 0-.29 1.15h-3.27c.012-.69.19-1.37.537-2.038.345-.668.843-1.269 1.494-1.802.65-.533 1.441-.964 2.373-1.292.931-.328 1.989-.492 3.173-.492 1.078 0 2.08.132 3.005.395.926.264 1.726.663 2.4 1.196a5.654 5.654 0 0 1 1.59 1.995c.387.797.58 1.728.58 2.795v8.842c0 .632.06 1.303.177 2.012.117.71.28 1.327.492 1.855V92h-3.393zm-5.748-2.479c.633 0 1.225-.082 1.776-.246a6.578 6.578 0 0 0 1.502-.65c.452-.27.841-.577 1.17-.923.328-.346.585-.706.773-1.08v-3.85h-3.024c-1.898 0-3.375.28-4.43.843-1.054.563-1.581 1.447-1.581 2.655 0 .468.079.902.237 1.3.158.399.395.742.712 1.029.316.287.715.512 1.195.676.48.164 1.037.246 1.67.246zm26.492-2.566c0-.387-.076-.735-.228-1.046-.153-.31-.41-.595-.774-.852-.363-.258-.843-.495-1.441-.712-.598-.217-1.342-.413-2.232-.59a22.505 22.505 0 0 1-2.98-.808c-.896-.316-1.664-.694-2.303-1.134-.638-.439-1.133-.955-1.485-1.546-.352-.592-.527-1.28-.527-2.066 0-.773.181-1.497.545-2.17a5.53 5.53 0 0 1 1.529-1.767c.656-.504 1.438-.903 2.346-1.196.909-.293 1.908-.44 2.998-.44 1.171 0 2.226.153 3.164.458.937.305 1.734.726 2.39 1.266a5.72 5.72 0 0 1 1.52 1.89 5.17 5.17 0 0 1 .537 2.328h-3.252c0-.41-.106-.811-.316-1.204a3.448 3.448 0 0 0-.88-1.046 4.512 4.512 0 0 0-1.362-.738c-.533-.187-1.133-.281-1.801-.281-.692 0-1.298.076-1.82.228-.521.153-.955.358-1.3.616a2.625 2.625 0 0 0-.783.896c-.176.34-.263.691-.263 1.055 0 .375.07.709.21 1.002.141.293.384.556.73.79.346.235.809.446 1.389.633.58.188 1.315.37 2.206.545 1.172.247 2.22.53 3.146.853.926.322 1.705.709 2.338 1.16.633.451 1.116.976 1.45 1.573.334.598.501 1.29.501 2.075 0 .843-.19 1.61-.571 2.302a5.394 5.394 0 0 1-1.59 1.776c-.68.492-1.495.873-2.444 1.142-.95.27-1.987.405-3.112.405-1.289 0-2.437-.173-3.445-.519-1.008-.346-1.86-.803-2.557-1.371a5.906 5.906 0 0 1-1.6-1.978 5.232 5.232 0 0 1-.554-2.338h3.252c.047.668.226 1.231.536 1.688.31.457.698.826 1.16 1.107.463.282.976.48 1.539.598a8.17 8.17 0 0 0 1.67.176c1.37 0 2.455-.252 3.251-.756.797-.504 1.202-1.172 1.213-2.004zm16.367 5.397c-1.335 0-2.563-.229-3.682-.686a8.356 8.356 0 0 1-2.874-1.916 8.765 8.765 0 0 1-1.863-2.918c-.446-1.125-.668-2.35-.668-3.674v-.738c0-1.535.246-2.91.738-4.122.492-1.213 1.145-2.238 1.96-3.076a8.551 8.551 0 0 1 2.777-1.925 8.012 8.012 0 0 1 3.19-.668c1.372 0 2.57.237 3.595.712a7.055 7.055 0 0 1 2.558 1.969c.68.837 1.186 1.825 1.52 2.961.334 1.137.501 2.368.501 3.692v1.459h-13.587a7.47 7.47 0 0 0 .5 2.443 6.347 6.347 0 0 0 1.231 1.995 5.685 5.685 0 0 0 1.872 1.345c.727.328 1.53.492 2.408.492 1.16 0 2.192-.234 3.094-.703a6.71 6.71 0 0 0 2.25-1.863l1.986 1.547c-.316.48-.712.94-1.186 1.38-.475.44-1.023.829-1.644 1.169a9.248 9.248 0 0 1-2.11.817c-.784.205-1.64.308-2.566.308zM146.85 75.3c-.657 0-1.278.12-1.864.36a4.862 4.862 0 0 0-1.582 1.055 6.014 6.014 0 0 0-1.186 1.705c-.322.674-.548 1.45-.677 2.329h10.23v-.246a7.261 7.261 0 0 0-.36-1.881 5.24 5.24 0 0 0-.905-1.67 4.53 4.53 0 0 0-1.503-1.195c-.604-.305-1.321-.457-2.153-.457zm24.963 14.08a6.772 6.772 0 0 1-2.374 2.188c-.949.522-2.044.783-3.287.783-.996 0-1.898-.156-2.707-.466a5.19 5.19 0 0 1-2.074-1.45c-.574-.657-1.017-1.492-1.327-2.505-.31-1.014-.466-2.23-.466-3.648V72.98h3.252v11.338c0 1.032.082 1.887.246 2.567.164.68.41 1.221.738 1.626.329.404.73.688 1.205.852.474.164 1.022.246 1.643.246 1.324 0 2.394-.27 3.208-.808a4.906 4.906 0 0 0 1.82-2.18v-13.64h3.269V92h-2.953l-.193-2.62zm20.726-16.752c.305 0 .621.009.95.026.327.018.64.047.94.088.299.041.574.091.826.15.252.058.46.123.624.193l-.44 3.182a17.331 17.331 0 0 0-1.801-.308 15.84 15.84 0 0 0-1.784-.097c-1.524 0-2.757.346-3.7 1.037-.944.692-1.638 1.659-2.084 2.9V92h-3.27V72.98h3.095l.158 3.024a8.738 8.738 0 0 1 2.786-2.47c1.084-.603 2.317-.905 3.7-.905zM201.19 65h9.721v24.188h6.205V92H201.19v-2.813h6.47V67.83h-6.47V65zm26.633 24.89c0-.35.056-.68.167-.984.112-.304.273-.571.484-.8.21-.228.474-.407.79-.536a2.921 2.921 0 0 1 1.108-.193c.422 0 .794.064 1.116.193.323.13.592.308.809.536.217.229.38.496.492.8.111.305.167.633.167.985 0 .34-.056.659-.167.958-.111.298-.275.56-.492.782a2.21 2.21 0 0 1-.809.518 3.117 3.117 0 0 1-1.116.185c-.422 0-.79-.062-1.107-.185a2.138 2.138 0 0 1-.791-.518 2.282 2.282 0 0 1-.484-.782 2.722 2.722 0 0 1-.167-.958zm0-15.398c0-.351.056-.68.167-.984.112-.305.273-.571.484-.8.21-.229.474-.407.79-.536a2.921 2.921 0 0 1 1.108-.193c.422 0 .794.064 1.116.193.323.129.592.307.809.536.217.229.38.495.492.8.111.305.167.633.167.984 0 .34-.056.66-.167.958-.111.299-.275.56-.492.782a2.21 2.21 0 0 1-.809.519 3.117 3.117 0 0 1-1.116.185c-.422 0-.79-.062-1.107-.185a2.138 2.138 0 0 1-.791-.519 2.282 2.282 0 0 1-.484-.782 2.722 2.722 0 0 1-.167-.958z" fill="#47EBB4"/><path d="M268.309 66.916l-.37 6.504h-2.285l.018-6.223V65h2.637v1.916zm6.275 0l-.37 6.504h-2.267l.018-6.223V65h2.637l-.018 1.916zm12.799 27.281h-2.918l10.687-27.79h2.9l-10.67 27.79zm22.133-27.281l-.37 6.504h-2.285l.018-6.223V65h2.637v1.916zm6.275 0l-.37 6.504h-2.267l.018-6.223V65h2.637l-.018 1.916z" fill="#39A7F1"/><path d="M84.758 116.375v4.605H92v2.514h-7.242v10.336c0 .738.094 1.348.281 1.828.188.48.445.864.774 1.152.328.287.706.489 1.133.606.428.117.882.176 1.363.176.351 0 .714-.02 1.09-.062.374-.04.74-.09 1.098-.15.357-.058.691-.12 1.002-.184.31-.064.565-.12.765-.167l.457 2.303a4.55 4.55 0 0 1-.985.43c-.386.124-.808.23-1.265.317-.457.088-.94.155-1.45.202-.51.047-1.017.07-1.521.07-.844 0-1.632-.12-2.364-.36a4.9 4.9 0 0 1-1.907-1.142c-.54-.522-.964-1.196-1.275-2.022-.31-.826-.466-1.825-.466-2.997v-10.336h-4.992v-2.514h4.992v-4.605h3.27zm13.414 4.605h9.72v16.207h6.206V140H98.172v-2.813h6.469v-13.376h-6.47v-2.83zm6.047-4.992c0-.539.16-.993.483-1.362.322-.37.812-.554 1.468-.554.644 0 1.13.185 1.459.554.328.37.492.823.492 1.362 0 .528-.164.967-.492 1.319-.328.351-.815.527-1.46.527-.655 0-1.145-.176-1.467-.527-.322-.352-.483-.791-.483-1.319zm21.746.387v4.605h7.242v2.514h-7.242v10.336c0 .738.094 1.348.281 1.828.188.48.445.864.774 1.152.328.287.706.489 1.133.606.428.117.882.176 1.363.176.351 0 .714-.02 1.09-.062.374-.04.74-.09 1.098-.15.358-.058.692-.12 1.002-.184.31-.064.565-.12.765-.167l.457 2.303a4.55 4.55 0 0 1-.985.43c-.386.124-.808.23-1.265.317-.457.088-.94.155-1.45.202-.51.047-1.017.07-1.521.07-.844 0-1.632-.12-2.364-.36a4.9 4.9 0 0 1-1.907-1.142c-.54-.522-.964-1.196-1.275-2.022-.31-.826-.466-1.825-.466-2.997v-10.336h-4.992v-2.514h4.992v-4.605h3.27zM139.379 113h9.72v24.188h6.206V140h-15.926v-2.813h6.469V115.83h-6.47V113zm28.496 27.352c-1.336 0-2.563-.229-3.683-.686a8.356 8.356 0 0 1-2.874-1.916 8.765 8.765 0 0 1-1.863-2.918c-.445-1.125-.668-2.35-.668-3.674v-.738c0-1.535.246-2.91.738-4.122.493-1.213 1.146-2.238 1.96-3.076a8.551 8.551 0 0 1 2.778-1.925 8.012 8.012 0 0 1 3.19-.668c1.371 0 2.57.237 3.595.712a7.055 7.055 0 0 1 2.557 1.969c.68.837 1.187 1.825 1.521 2.961.334 1.137.501 2.368.501 3.692v1.459h-13.588a7.47 7.47 0 0 0 .501 2.443 6.347 6.347 0 0 0 1.23 1.995 5.685 5.685 0 0 0 1.873 1.345c.726.328 1.529.492 2.408.492 1.16 0 2.191-.234 3.094-.703a6.71 6.71 0 0 0 2.25-1.863l1.986 1.547c-.317.48-.712.94-1.187 1.38-.474.44-1.022.829-1.643 1.169a9.248 9.248 0 0 1-2.11.817c-.785.205-1.64.308-2.566.308zm-.422-17.051c-.656 0-1.277.12-1.863.36a4.862 4.862 0 0 0-1.582 1.055 6.014 6.014 0 0 0-1.187 1.705c-.322.674-.548 1.45-.676 2.329h10.23v-.246a7.261 7.261 0 0 0-.36-1.881 5.24 5.24 0 0 0-.906-1.67 4.53 4.53 0 0 0-1.503-1.195c-.603-.305-1.32-.457-2.153-.457zm19.162 14.59c0-.352.056-.68.167-.985.112-.304.273-.571.484-.8.21-.228.474-.407.79-.536a2.921 2.921 0 0 1 1.108-.193c.422 0 .794.064 1.116.193.323.13.592.308.809.536.217.229.38.496.492.8.111.305.167.633.167.985 0 .34-.056.659-.167.958-.111.298-.275.56-.492.782a2.21 2.21 0 0 1-.809.518 3.117 3.117 0 0 1-1.116.185c-.422 0-.791-.062-1.107-.185a2.138 2.138 0 0 1-.791-.518 2.282 2.282 0 0 1-.484-.782 2.722 2.722 0 0 1-.167-.958zm0-15.399c0-.351.056-.68.167-.984.112-.305.273-.571.484-.8.21-.229.474-.407.79-.536a2.921 2.921 0 0 1 1.108-.193c.422 0 .794.064 1.116.193.323.129.592.307.809.536.217.229.38.495.492.8.111.305.167.633.167.984 0 .34-.056.66-.167.958-.111.299-.275.56-.492.782a2.21 2.21 0 0 1-.809.519 3.117 3.117 0 0 1-1.116.185c-.422 0-.791-.062-1.107-.185a2.138 2.138 0 0 1-.791-.519 2.282 2.282 0 0 1-.484-.782 2.722 2.722 0 0 1-.167-.958z" fill="#47EBB4"/><path d="M227.102 114.916l-.37 6.504h-2.285l.018-6.223V113h2.637v1.916zm6.275 0l-.37 6.504h-2.267l.018-6.223V113h2.637l-.018 1.916zm21.904 18.615c0-.785-.178-1.447-.536-1.986a4.779 4.779 0 0 0-1.38-1.362 8.98 8.98 0 0 0-1.854-.923 51.721 51.721 0 0 0-1.943-.668 29.255 29.255 0 0 1-2.75-1.055 11.994 11.994 0 0 1-2.55-1.512 7.616 7.616 0 0 1-1.88-2.118c-.487-.814-.73-1.772-.73-2.874 0-1.101.243-2.086.73-2.953a7.089 7.089 0 0 1 1.907-2.197 8.592 8.592 0 0 1 2.672-1.362c.996-.311 1.998-.466 3.006-.466 1.113 0 2.185.184 3.216.553a8.89 8.89 0 0 1 2.743 1.556 7.616 7.616 0 0 1 1.916 2.426c.48.95.732 2.01.756 3.181h-3.34a7.105 7.105 0 0 0-.545-2.012 4.978 4.978 0 0 0-1.073-1.556 4.702 4.702 0 0 0-1.59-1.01c-.616-.24-1.31-.361-2.083-.361-.621 0-1.228.088-1.82.264-.591.175-1.119.44-1.582.79a3.952 3.952 0 0 0-1.107 1.302c-.276.515-.413 1.113-.413 1.792.012.739.199 1.363.562 1.873.364.51.824.94 1.38 1.292a9.25 9.25 0 0 0 1.81.878c.651.235 1.263.44 1.838.616.632.199 1.271.424 1.916.676.644.252 1.265.542 1.863.87.598.329 1.154.698 1.67 1.108.515.41.967.876 1.353 1.397.387.522.689 1.096.906 1.723.216.627.325 1.321.325 2.083 0 1.149-.255 2.15-.765 3.006a6.893 6.893 0 0 1-1.977 2.136 8.94 8.94 0 0 1-2.743 1.283c-1.02.287-2.039.43-3.058.43-1.137 0-2.25-.175-3.34-.527a9.588 9.588 0 0 1-2.927-1.52 7.965 7.965 0 0 1-2.1-2.426c-.54-.955-.827-2.042-.862-3.26h3.323c.105.796.322 1.502.65 2.117.328.616.75 1.137 1.266 1.565a5.31 5.31 0 0 0 1.784.967c.674.216 1.409.325 2.206.325.633 0 1.257-.08 1.872-.238a5.058 5.058 0 0 0 1.643-.738c.481-.334.874-.756 1.178-1.265.305-.51.457-1.117.457-1.82zm14.908-17.156v4.605h7.243v2.514h-7.243v10.336c0 .738.094 1.348.282 1.828.187.48.445.864.773 1.152.328.287.706.489 1.134.606.428.117.882.176 1.362.176.352 0 .715-.02 1.09-.062.375-.04.741-.09 1.099-.15.357-.058.691-.12 1.002-.184.31-.064.565-.12.764-.167l.457 2.303a4.55 4.55 0 0 1-.984.43c-.387.124-.809.23-1.266.317-.457.088-.94.155-1.45.202-.51.047-1.016.07-1.52.07-.844 0-1.632-.12-2.365-.36a4.9 4.9 0 0 1-1.907-1.142c-.539-.522-.964-1.196-1.274-2.022-.31-.826-.466-1.825-.466-2.997v-10.336h-4.992v-2.514h4.992v-4.605h3.27zM295.592 140a3.542 3.542 0 0 1-.308-.923c-.076-.369-.132-.753-.167-1.151a9.102 9.102 0 0 1-1.098.931c-.405.293-.85.551-1.336.774a8.234 8.234 0 0 1-1.556.527 7.696 7.696 0 0 1-1.758.194c-1.008 0-1.919-.147-2.733-.44-.815-.293-1.506-.688-2.074-1.186a5.173 5.173 0 0 1-1.319-1.776 5.325 5.325 0 0 1-.466-2.223c0-1.043.208-1.957.624-2.743a5.436 5.436 0 0 1 1.767-1.96c.762-.521 1.679-.91 2.75-1.169 1.073-.257 2.271-.386 3.596-.386h3.55v-1.494a3.65 3.65 0 0 0-.316-1.547 3.307 3.307 0 0 0-.896-1.17 4.12 4.12 0 0 0-1.415-.746 6.202 6.202 0 0 0-1.873-.264c-.644 0-1.221.082-1.731.246-.51.164-.94.381-1.292.65-.352.27-.624.59-.817.959a2.45 2.45 0 0 0-.29 1.15h-3.27c.012-.69.19-1.37.536-2.038.346-.668.844-1.269 1.494-1.802.65-.533 1.442-.964 2.373-1.292.932-.328 1.99-.492 3.173-.492 1.078 0 2.08.132 3.006.395.926.264 1.726.663 2.4 1.196a5.654 5.654 0 0 1 1.59 1.995c.387.797.58 1.728.58 2.795v8.842c0 .632.059 1.303.176 2.012.117.71.281 1.327.492 1.855V140h-3.392zm-5.748-2.479c.633 0 1.224-.082 1.775-.246a6.578 6.578 0 0 0 1.503-.65c.451-.27.84-.577 1.169-.923.328-.346.586-.706.773-1.08v-3.85h-3.023c-1.898 0-3.375.28-4.43.843-1.054.563-1.582 1.447-1.582 2.655 0 .468.08.902.238 1.3.158.399.395.742.712 1.029.316.287.714.512 1.195.676.48.164 1.037.246 1.67.246zm21.957.194c.586 0 1.157-.094 1.714-.281a5.058 5.058 0 0 0 1.485-.783 4.075 4.075 0 0 0 1.046-1.177c.264-.452.401-.94.413-1.468h3.076a5.043 5.043 0 0 1-.659 2.417 6.944 6.944 0 0 1-1.714 2.021 8.702 8.702 0 0 1-2.46 1.389 8.223 8.223 0 0 1-2.901.519c-1.442 0-2.701-.258-3.78-.774a7.818 7.818 0 0 1-2.698-2.083 8.96 8.96 0 0 1-1.626-3.023 11.85 11.85 0 0 1-.545-3.613v-.738c0-1.254.182-2.455.545-3.603a8.946 8.946 0 0 1 1.626-3.033 7.818 7.818 0 0 1 2.698-2.083c1.079-.515 2.338-.773 3.78-.773 1.125 0 2.159.179 3.102.536.944.357 1.758.844 2.444 1.459a6.608 6.608 0 0 1 1.608 2.188 6.42 6.42 0 0 1 .58 2.708h-3.076a3.96 3.96 0 0 0-.378-1.626 4.425 4.425 0 0 0-.976-1.345c-.41-.387-.899-.692-1.467-.914a4.991 4.991 0 0 0-1.837-.334c-1.008 0-1.855.202-2.54.606a4.939 4.939 0 0 0-1.661 1.582 6.67 6.67 0 0 0-.906 2.189 11.115 11.115 0 0 0-.272 2.443v.738c0 .832.09 1.656.272 2.47.182.815.48 1.547.897 2.197.416.65.967 1.178 1.652 1.582.686.405 1.538.607 2.558.607zm18.195-6.592l-2.39 2.303V140h-3.27v-27h3.27v16.523l2.126-2.285 6.24-6.258h3.956l-7.7 7.928L341.106 140h-4.13l-6.979-8.877zm31.027-.422c0 1.36-.164 2.628-.492 3.806-.328 1.178-.808 2.2-1.441 3.067a6.814 6.814 0 0 1-2.347 2.04c-.931.491-2 .738-3.208.738-1.219 0-2.276-.217-3.173-.65a6.451 6.451 0 0 1-2.294-1.864L347.91 140h-2.988v-27h3.252v10.02a6.238 6.238 0 0 1 2.25-1.776c.879-.41 1.904-.615 3.076-.615 1.219 0 2.297.24 3.234.72a6.69 6.69 0 0 1 2.356 2.005c.633.855 1.113 1.877 1.441 3.067.328 1.19.492 2.493.492 3.911v.37zm-3.252-.369c0-.926-.09-1.808-.272-2.645-.182-.838-.472-1.577-.87-2.215a4.467 4.467 0 0 0-1.565-1.52c-.644-.376-1.435-.563-2.373-.563-.562 0-1.078.073-1.546.22a4.405 4.405 0 0 0-1.257.615c-.37.263-.698.574-.985.931-.287.358-.53.747-.73 1.17v8.314c.212.422.46.811.748 1.169.287.357.618.67.993.94a4.4 4.4 0 0 0 1.266.624c.468.147.984.22 1.547.22.89 0 1.655-.185 2.294-.554.638-.37 1.16-.87 1.564-1.503.404-.633.703-1.365.896-2.197.194-.832.29-1.711.29-2.637v-.369zm8.247-9.352h9.72v16.208h6.205V140h-15.925v-2.813h6.468v-13.376h-6.468v-2.83zm6.046-4.992c0-.539.162-.993.484-1.362.322-.37.811-.554 1.468-.554.644 0 1.13.185 1.459.554.328.37.492.823.492 1.362 0 .528-.164.967-.492 1.319-.329.351-.815.527-1.46.527-.656 0-1.145-.176-1.467-.527-.322-.352-.484-.791-.484-1.319zm21.747.387v4.605h7.242v2.514h-7.242v10.336c0 .738.093 1.348.28 1.828.188.48.446.864.774 1.152.328.287.706.489 1.134.606.428.117.882.176 1.362.176.352 0 .715-.02 1.09-.062.375-.04.741-.09 1.099-.15.357-.058.691-.12 1.002-.184.31-.064.565-.12.764-.167l.457 2.303a4.55 4.55 0 0 1-.984.43c-.387.124-.809.23-1.266.317-.457.088-.94.155-1.45.202-.51.047-1.016.07-1.52.07-.844 0-1.632-.12-2.365-.36a4.9 4.9 0 0 1-1.907-1.142c-.539-.522-.964-1.196-1.274-2.022-.31-.826-.466-1.825-.466-2.997v-10.336h-4.992v-2.514h4.992v-4.605h3.27zm45.724 16.998h-8.543L428.936 140h-3.252l8.261-25.594h2.725L444.79 140h-3.234l-2.022-6.627zm-7.664-2.83h6.803l-3.375-11.11-3.428 11.11zm17.545-9.563l.088 1.793a4.284 4.284 0 0 1 1.52-1.564c.627-.375 1.386-.568 2.277-.58 1.746 0 2.912.68 3.498 2.039.375-.61.87-1.099 1.485-1.468.615-.369 1.362-.56 2.241-.571 1.395 0 2.467.428 3.217 1.283.75.856 1.125 2.15 1.125 3.885V140h-3.094v-14.238c0-1.594-.732-2.385-2.197-2.373-.387 0-.72.052-1.002.158a2.008 2.008 0 0 0-.703.43 1.982 1.982 0 0 0-.44.633c-.105.24-.175.49-.21.747V140h-3.094v-14.256c0-.762-.17-1.348-.51-1.758-.34-.41-.879-.609-1.617-.597-.68 0-1.207.134-1.582.404s-.65.627-.826 1.072V140h-3.094v-19.02h2.918zm35.158 9.721c0 1.36-.164 2.628-.492 3.806-.328 1.178-.809 2.2-1.441 3.067a6.814 6.814 0 0 1-2.347 2.04c-.932.491-1.995.738-3.19.738-1.16 0-2.183-.188-3.068-.563a6.364 6.364 0 0 1-2.276-1.617v9.14h-3.252V120.98h2.97l.159 2.075a6.343 6.343 0 0 1 2.294-1.802c.896-.416 1.936-.624 3.12-.624 1.219 0 2.297.24 3.234.72a6.69 6.69 0 0 1 2.356 2.005c.632.855 1.113 1.877 1.441 3.067.328 1.19.492 2.493.492 3.911v.37zm-3.252-.369c0-.926-.102-1.808-.307-2.645-.205-.838-.522-1.577-.95-2.215a4.803 4.803 0 0 0-1.626-1.52c-.656-.376-1.44-.563-2.355-.563-1.043 0-1.919.243-2.628.73a5.424 5.424 0 0 0-1.696 1.871v9.158c.422.75.984 1.363 1.687 1.837.703.475 1.594.712 2.672.712.902 0 1.682-.19 2.338-.571a4.775 4.775 0 0 0 1.617-1.538c.422-.645.736-1.389.94-2.233.206-.843.308-1.728.308-2.654v-.369zm16.21 10.02c-1.337 0-2.564-.229-3.683-.686a8.356 8.356 0 0 1-2.874-1.916 8.765 8.765 0 0 1-1.864-2.918c-.445-1.125-.668-2.35-.668-3.674v-.738c0-1.535.246-2.91.739-4.122.492-1.213 1.145-2.238 1.96-3.076a8.551 8.551 0 0 1 2.777-1.925 8.012 8.012 0 0 1 3.19-.668c1.371 0 2.57.237 3.595.712a7.055 7.055 0 0 1 2.558 1.969c.68.837 1.186 1.825 1.52 2.961.334 1.137.501 2.368.501 3.692v1.459h-13.588a7.47 7.47 0 0 0 .501 2.443 6.347 6.347 0 0 0 1.23 1.995 5.685 5.685 0 0 0 1.873 1.345c.726.328 1.53.492 2.408.492 1.16 0 2.191-.234 3.094-.703a6.71 6.71 0 0 0 2.25-1.863l1.986 1.547c-.316.48-.712.94-1.186 1.38-.475.44-1.023.829-1.644 1.169a9.248 9.248 0 0 1-2.11.817c-.785.205-1.64.308-2.566.308zm-.423-17.051c-.656 0-1.277.12-1.863.36a4.862 4.862 0 0 0-1.582 1.055 6.014 6.014 0 0 0-1.186 1.705c-.323.674-.548 1.45-.677 2.329h10.23v-.246a7.261 7.261 0 0 0-.36-1.881 5.24 5.24 0 0 0-.905-1.67 4.53 4.53 0 0 0-1.503-1.195c-.604-.305-1.322-.457-2.154-.457zm25.086-2.672c.305 0 .621.009.95.026.328.018.641.047.94.088.299.041.574.091.826.15.252.058.46.123.624.193l-.44 3.182a17.331 17.331 0 0 0-1.801-.308 15.84 15.84 0 0 0-1.784-.097c-1.524 0-2.757.346-3.7 1.037-.944.692-1.638 1.659-2.083 2.9V140h-3.27v-19.02h3.094l.158 3.024a8.738 8.738 0 0 1 2.786-2.47c1.084-.603 2.317-.905 3.7-.905zm20.78 14.326c0-.387-.077-.735-.229-1.046-.152-.31-.41-.595-.773-.852-.364-.258-.844-.495-1.442-.712-.597-.217-1.342-.413-2.232-.59a22.505 22.505 0 0 1-2.98-.808c-.896-.316-1.664-.694-2.302-1.134-.64-.439-1.134-.955-1.486-1.546-.351-.592-.527-1.28-.527-2.066 0-.773.182-1.497.545-2.17a5.53 5.53 0 0 1 1.53-1.767c.655-.504 1.438-.903 2.346-1.196.908-.293 1.907-.44 2.997-.44 1.172 0 2.226.153 3.164.458.937.305 1.734.726 2.39 1.266a5.72 5.72 0 0 1 1.521 1.89 5.17 5.17 0 0 1 .536 2.328h-3.252c0-.41-.105-.811-.316-1.204a3.448 3.448 0 0 0-.88-1.046 4.512 4.512 0 0 0-1.361-.738c-.534-.187-1.134-.281-1.802-.281-.692 0-1.298.076-1.82.228-.52.153-.955.358-1.3.616a2.625 2.625 0 0 0-.782.896c-.176.34-.264.691-.264 1.055 0 .375.07.709.21 1.002.141.293.385.556.73.79.346.235.809.446 1.389.633.58.188 1.315.37 2.206.545 1.172.247 2.22.53 3.146.853.926.322 1.706.709 2.338 1.16.633.451 1.117.976 1.45 1.573.335.598.502 1.29.502 2.075 0 .843-.19 1.61-.572 2.302a5.394 5.394 0 0 1-1.59 1.776c-.68.492-1.495.873-2.444 1.142-.95.27-1.986.405-3.111.405-1.29 0-2.438-.173-3.446-.519-1.007-.346-1.86-.803-2.557-1.371a5.906 5.906 0 0 1-1.6-1.978 5.232 5.232 0 0 1-.553-2.338h3.251c.047.668.226 1.231.537 1.688.31.457.697.826 1.16 1.107.463.282.975.48 1.538.598a8.17 8.17 0 0 0 1.67.176c1.37 0 2.455-.252 3.252-.756.797-.504 1.2-1.172 1.213-2.004zM563.437 140a3.542 3.542 0 0 1-.307-.923c-.076-.369-.132-.753-.167-1.151a9.102 9.102 0 0 1-1.099.931c-.404.293-.85.551-1.336.774a8.234 8.234 0 0 1-1.555.527 7.696 7.696 0 0 1-1.758.194c-1.008 0-1.92-.147-2.734-.44-.814-.293-1.505-.688-2.074-1.186a5.173 5.173 0 0 1-1.318-1.776 5.325 5.325 0 0 1-.466-2.223c0-1.043.208-1.957.624-2.743a5.436 5.436 0 0 1 1.767-1.96c.761-.521 1.678-.91 2.75-1.169 1.073-.257 2.271-.386 3.595-.386h3.551v-1.494a3.65 3.65 0 0 0-.316-1.547 3.307 3.307 0 0 0-.897-1.17 4.12 4.12 0 0 0-1.415-.746 6.202 6.202 0 0 0-1.872-.264c-.644 0-1.222.082-1.731.246-.51.164-.94.381-1.292.65-.352.27-.624.59-.818.959a2.45 2.45 0 0 0-.29 1.15h-3.27c.012-.69.191-1.37.537-2.038.346-.668.844-1.269 1.494-1.802.65-.533 1.441-.964 2.373-1.292.932-.328 1.99-.492 3.173-.492 1.078 0 2.08.132 3.006.395.926.264 1.725.663 2.4 1.196a5.654 5.654 0 0 1 1.59 1.995c.387.797.58 1.728.58 2.795v8.842c0 .632.059 1.303.176 2.012.117.71.281 1.327.492 1.855V140h-3.393zm-5.748-2.479c.633 0 1.225-.082 1.776-.246a6.578 6.578 0 0 0 1.503-.65c.45-.27.84-.577 1.169-.923.328-.346.586-.706.773-1.08v-3.85h-3.023c-1.899 0-3.375.28-4.43.843-1.055.563-1.582 1.447-1.582 2.655 0 .468.08.902.237 1.3.159.399.396.742.712 1.029.317.287.715.512 1.196.676.48.164 1.037.246 1.67.246zm16.772-16.54l.228 2.812a7.553 7.553 0 0 1 2.55-2.312c1.007-.556 2.132-.84 3.374-.852.996 0 1.902.14 2.716.422.815.281 1.509.72 2.083 1.318.574.598 1.017 1.357 1.327 2.277.31.92.466 2.012.466 3.278V140h-3.252v-12.006c0-.844-.094-1.558-.281-2.144-.188-.586-.466-1.06-.835-1.424a3.262 3.262 0 0 0-1.354-.791c-.533-.164-1.145-.246-1.837-.246-1.09 0-2.047.272-2.874.817a6.028 6.028 0 0 0-1.977 2.153V140h-3.252v-19.02h2.918zm17.07 9.351c0-1.418.179-2.722.536-3.911.358-1.19.868-2.212 1.53-3.067a7.102 7.102 0 0 1 2.4-2.004c.937-.48 1.985-.721 3.146-.721 1.136 0 2.13.19 2.98.571.849.381 1.584.935 2.205 1.661V113h3.252v27h-2.988l-.14-2.004a6.22 6.22 0 0 1-2.268 1.758c-.88.398-1.905.598-3.077.598-1.148 0-2.188-.247-3.12-.739a7.15 7.15 0 0 1-2.382-2.039c-.656-.867-1.166-1.89-1.529-3.067-.363-1.178-.545-2.446-.545-3.806v-.369zm3.252.37c0 .925.1 1.804.299 2.636.2.832.507 1.564.923 2.197a4.645 4.645 0 0 0 1.59 1.503c.645.37 1.419.554 2.321.554.55 0 1.049-.065 1.494-.194a4.403 4.403 0 0 0 2.18-1.415c.281-.334.527-.706.738-1.116v-8.824a5.503 5.503 0 0 0-1.705-1.907c-.715-.498-1.605-.747-2.672-.747-.914 0-1.696.187-2.347.562a4.67 4.67 0 0 0-1.6 1.52c-.415.64-.723 1.378-.922 2.216-.2.837-.299 1.72-.299 2.645v.37zm55.832-13.518h-7.91V140h-3.164v-22.816h-7.91v-2.778h18.984v2.778zm6.594 6.627c.68-.997 1.518-1.773 2.514-2.33.996-.556 2.115-.84 3.357-.852.996 0 1.901.143 2.716.43a5.184 5.184 0 0 1 2.083 1.345c.574.61 1.017 1.38 1.327 2.312.31.931.466 2.036.466 3.313V140h-3.252v-12.006c0-1.558-.372-2.719-1.116-3.48-.744-.762-1.808-1.137-3.19-1.125-1.044 0-1.99.255-2.84.764a6.112 6.112 0 0 0-2.065 2.03V140h-3.252v-27h3.252v10.81zm25.754 16.54c-1.336 0-2.564-.228-3.683-.685a8.356 8.356 0 0 1-2.874-1.916 8.765 8.765 0 0 1-1.863-2.918c-.445-1.125-.668-2.35-.668-3.674v-.738c0-1.535.246-2.91.738-4.122.492-1.213 1.146-2.238 1.96-3.076a8.551 8.551 0 0 1 2.778-1.925 8.012 8.012 0 0 1 3.19-.668c1.371 0 2.57.237 3.595.712a7.055 7.055 0 0 1 2.557 1.969c.68.837 1.187 1.825 1.52 2.961.335 1.137.502 2.368.502 3.692v1.459h-13.588a7.47 7.47 0 0 0 .5 2.443 6.347 6.347 0 0 0 1.231 1.995 5.685 5.685 0 0 0 1.872 1.345c.727.328 1.53.492 2.409.492 1.16 0 2.191-.234 3.093-.703a6.71 6.71 0 0 0 2.25-1.863l1.987 1.547c-.317.48-.712.94-1.187 1.38-.474.44-1.022.829-1.643 1.169a9.248 9.248 0 0 1-2.11.817c-.785.205-1.64.308-2.566.308zm-.422-17.05c-.656 0-1.277.12-1.863.36a4.862 4.862 0 0 0-1.582 1.055 6.014 6.014 0 0 0-1.187 1.705c-.322.674-.548 1.45-.677 2.329h10.23v-.246a7.261 7.261 0 0 0-.36-1.881 5.24 5.24 0 0 0-.905-1.67 4.53 4.53 0 0 0-1.503-1.195c-.603-.305-1.32-.457-2.153-.457zm14.117-2.32l.088 1.792a4.284 4.284 0 0 1 1.52-1.564c.628-.375 1.386-.568 2.277-.58 1.746 0 2.912.68 3.498 2.039.375-.61.87-1.099 1.485-1.468.616-.369 1.363-.56 2.242-.571 1.394 0 2.466.428 3.216 1.283.75.856 1.125 2.15 1.125 3.885V140h-3.093v-14.238c0-1.594-.733-2.385-2.198-2.373-.386 0-.72.052-1.002.158a2.008 2.008 0 0 0-.703.43 1.982 1.982 0 0 0-.44.633c-.105.24-.175.49-.21.747V140h-3.094v-14.256c0-.762-.17-1.348-.51-1.758-.34-.41-.879-.609-1.617-.597-.68 0-1.207.134-1.582.404s-.65.627-.826 1.072V140h-3.094v-19.02h2.918zm27.512 19.37c-1.336 0-2.564-.228-3.683-.685a8.356 8.356 0 0 1-2.874-1.916 8.765 8.765 0 0 1-1.863-2.918c-.445-1.125-.668-2.35-.668-3.674v-.738c0-1.535.246-2.91.738-4.122.493-1.213 1.146-2.238 1.96-3.076a8.551 8.551 0 0 1 2.778-1.925 8.012 8.012 0 0 1 3.19-.668c1.371 0 2.57.237 3.595.712a7.055 7.055 0 0 1 2.557 1.969c.68.837 1.187 1.825 1.52 2.961.335 1.137.502 2.368.502 3.692v1.459h-13.588a7.47 7.47 0 0 0 .501 2.443 6.347 6.347 0 0 0 1.23 1.995 5.685 5.685 0 0 0 1.872 1.345c.727.328 1.53.492 2.409.492 1.16 0 2.191-.234 3.093-.703a6.71 6.71 0 0 0 2.25-1.863l1.987 1.547c-.317.48-.712.94-1.187 1.38-.474.44-1.022.829-1.643 1.169a9.247 9.247 0 0 1-2.11.817c-.785.205-1.64.308-2.566.308zm-.422-17.05c-.656 0-1.277.12-1.863.36a4.862 4.862 0 0 0-1.582 1.055 6.014 6.014 0 0 0-1.187 1.705c-.322.674-.548 1.45-.677 2.329h10.23v-.246a7.261 7.261 0 0 0-.36-1.881 5.24 5.24 0 0 0-.905-1.67 4.53 4.53 0 0 0-1.503-1.195c-.603-.305-1.32-.457-2.153-.457zm18.441-8.385l-.369 6.504h-2.285l.018-6.223V113h2.636v1.916zm6.276 0l-.37 6.504h-2.267l.018-6.223V113h2.636l-.017 1.916z" fill="#3EB0FD"/><path d="M93.107 178.701c0 1.36-.164 2.628-.492 3.806-.328 1.178-.808 2.2-1.441 3.067a6.814 6.814 0 0 1-2.347 2.04c-.931.491-1.995.738-3.19.738-1.16 0-2.183-.188-3.068-.563a6.364 6.364 0 0 1-2.276-1.617v9.14h-3.252V168.98h2.97l.159 2.075a6.343 6.343 0 0 1 2.294-1.802c.896-.416 1.936-.624 3.12-.624 1.219 0 2.297.24 3.234.72a6.69 6.69 0 0 1 2.356 2.005c.633.855 1.113 1.877 1.441 3.067.328 1.19.492 2.493.492 3.911v.37zm-3.252-.369c0-.926-.102-1.808-.307-2.645-.205-.838-.522-1.577-.95-2.215a4.803 4.803 0 0 0-1.625-1.52c-.657-.376-1.442-.563-2.356-.563-1.043 0-1.919.243-2.628.73a5.424 5.424 0 0 0-1.696 1.871v9.158c.422.75.984 1.363 1.687 1.837.704.475 1.594.712 2.672.712.903 0 1.682-.19 2.338-.571a4.775 4.775 0 0 0 1.617-1.538c.422-.645.736-1.389.94-2.233.206-.843.308-1.728.308-2.654v-.369zM110.16 188a3.542 3.542 0 0 1-.307-.923c-.077-.369-.132-.753-.167-1.151a9.102 9.102 0 0 1-1.1.931c-.403.293-.849.551-1.335.774a8.234 8.234 0 0 1-1.556.527 7.696 7.696 0 0 1-1.757.194c-1.008 0-1.92-.147-2.734-.44-.814-.293-1.506-.688-2.074-1.186a5.173 5.173 0 0 1-1.318-1.776 5.325 5.325 0 0 1-.466-2.223c0-1.043.208-1.957.624-2.743a5.436 5.436 0 0 1 1.766-1.96c.762-.521 1.679-.91 2.751-1.169 1.073-.257 2.27-.386 3.595-.386h3.55v-1.494a3.65 3.65 0 0 0-.316-1.547 3.307 3.307 0 0 0-.896-1.17 4.12 4.12 0 0 0-1.415-.746 6.202 6.202 0 0 0-1.872-.264c-.645 0-1.222.082-1.732.246-.51.164-.94.381-1.292.65-.351.27-.624.59-.817.959a2.45 2.45 0 0 0-.29 1.15h-3.27c.012-.69.19-1.37.537-2.038.345-.668.843-1.269 1.494-1.802.65-.533 1.441-.964 2.373-1.292.931-.328 1.989-.492 3.173-.492 1.078 0 2.08.132 3.005.395.926.264 1.726.663 2.4 1.196a5.654 5.654 0 0 1 1.59 1.995c.387.797.58 1.728.58 2.795v8.842c0 .632.06 1.303.177 2.012.117.71.28 1.327.492 1.855V188h-3.393zm-5.748-2.479c.633 0 1.225-.082 1.776-.246a6.578 6.578 0 0 0 1.502-.65c.452-.27.841-.577 1.17-.923.328-.346.585-.706.773-1.08v-3.85h-3.024c-1.898 0-3.375.28-4.43.843-1.054.563-1.581 1.447-1.581 2.655 0 .468.079.902.237 1.3.158.399.395.742.712 1.029.316.287.715.512 1.195.676.48.164 1.037.246 1.67.246zm13.256-7.189c0-1.418.173-2.722.519-3.911.345-1.19.846-2.212 1.502-3.067a7.017 7.017 0 0 1 2.391-2.004c.938-.48 1.998-.721 3.182-.721 1.172 0 2.2.208 3.085.624a6.228 6.228 0 0 1 2.258 1.802l.159-2.075h2.953v18.616c0 1.254-.196 2.367-.59 3.34a7.025 7.025 0 0 1-1.651 2.478 7.04 7.04 0 0 1-2.54 1.547c-.985.352-2.075.527-3.27.527a9.862 9.862 0 0 1-1.687-.167 10.24 10.24 0 0 1-1.925-.545 8.873 8.873 0 0 1-1.881-1.01 6.266 6.266 0 0 1-1.556-1.565l1.688-1.951c.398.48.808.888 1.23 1.222.422.334.85.6 1.283.8.434.199.868.342 1.301.43.434.088.867.132 1.3.132.774 0 1.472-.111 2.093-.334a4.352 4.352 0 0 0 1.59-.976c.44-.427.777-.958 1.011-1.59.235-.633.352-1.36.352-2.18v-1.635a6.346 6.346 0 0 1-2.241 1.661c-.862.381-1.86.572-2.997.572-1.16 0-2.21-.247-3.147-.739a7.037 7.037 0 0 1-2.382-2.039c-.65-.867-1.151-1.89-1.503-3.067-.351-1.178-.527-2.446-.527-3.806v-.369zm3.252.37c0 .925.097 1.804.29 2.636.193.832.498 1.564.914 2.197a4.645 4.645 0 0 0 1.59 1.503c.645.37 1.419.554 2.321.554.563 0 1.07-.068 1.52-.202a4.284 4.284 0 0 0 1.214-.572c.357-.246.676-.539.958-.879.28-.34.527-.714.738-1.125v-8.718a5.933 5.933 0 0 0-.738-1.09 4.631 4.631 0 0 0-.967-.853 4.6 4.6 0 0 0-1.213-.562 5.083 5.083 0 0 0-1.477-.202c-.914 0-1.696.187-2.346.562a4.67 4.67 0 0 0-1.6 1.52c-.416.64-.72 1.378-.914 2.216-.193.837-.29 1.72-.29 2.645v.37zm26.351 9.65c-1.335 0-2.563-.229-3.682-.686a8.356 8.356 0 0 1-2.874-1.916 8.765 8.765 0 0 1-1.863-2.918c-.446-1.125-.668-2.35-.668-3.674v-.738c0-1.535.246-2.91.738-4.122.492-1.213 1.145-2.238 1.96-3.076a8.551 8.551 0 0 1 2.777-1.925 8.012 8.012 0 0 1 3.19-.668c1.372 0 2.57.237 3.595.712a7.055 7.055 0 0 1 2.558 1.969c.68.837 1.186 1.825 1.52 2.961.334 1.137.501 2.368.501 3.692v1.459h-13.587a7.47 7.47 0 0 0 .5 2.443 6.347 6.347 0 0 0 1.231 1.995 5.685 5.685 0 0 0 1.872 1.345c.727.328 1.53.492 2.408.492 1.16 0 2.192-.234 3.094-.703a6.71 6.71 0 0 0 2.25-1.863l1.986 1.547c-.316.48-.712.94-1.186 1.38-.475.44-1.023.829-1.644 1.169a9.247 9.247 0 0 1-2.11.817c-.784.205-1.64.308-2.566.308zm-.421-17.051c-.657 0-1.278.12-1.864.36a4.862 4.862 0 0 0-1.582 1.055 6.014 6.014 0 0 0-1.186 1.705c-.322.674-.548 1.45-.677 2.329h10.23v-.246a7.261 7.261 0 0 0-.36-1.881 5.24 5.24 0 0 0-.905-1.67 4.53 4.53 0 0 0-1.503-1.195c-.604-.305-1.321-.457-2.153-.457zm28.408 19.353h-16.12V188h16.12v2.654zM180.586 161h9.72v24.188h6.206V188h-15.926v-2.813h6.469V163.83h-6.47V161zm19.18 17.314c0-1.37.199-2.645.597-3.823.399-1.178.97-2.2 1.714-3.067a7.981 7.981 0 0 1 2.716-2.048c1.066-.498 2.268-.747 3.603-.747 1.348 0 2.558.249 3.63.747a7.959 7.959 0 0 1 2.725 2.048c.744.867 1.315 1.89 1.714 3.067.398 1.178.598 2.452.598 3.823v.387c0 1.371-.2 2.643-.598 3.815-.399 1.172-.97 2.191-1.714 3.058a7.884 7.884 0 0 1-2.716 2.04c-1.066.491-2.267.738-3.603.738-1.348 0-2.558-.247-3.63-.739a7.863 7.863 0 0 1-2.725-2.039c-.744-.867-1.315-1.886-1.714-3.058-.398-1.172-.597-2.444-.597-3.815v-.387zm3.252.387c0 .938.11 1.831.334 2.68.222.85.56 1.598 1.01 2.242a4.989 4.989 0 0 0 1.697 1.53c.68.374 1.47.562 2.373.562.89 0 1.672-.188 2.346-.563a5.016 5.016 0 0 0 1.688-1.529 6.935 6.935 0 0 0 1.01-2.241c.223-.85.335-1.743.335-2.68v-.388c0-.925-.115-1.813-.343-2.663a7.075 7.075 0 0 0-1.02-2.24 5.104 5.104 0 0 0-1.687-1.539c-.674-.38-1.462-.571-2.365-.571-.902 0-1.687.19-2.355.571a5.133 5.133 0 0 0-1.679 1.538 6.935 6.935 0 0 0-1.01 2.241c-.223.85-.334 1.738-.334 2.663v.387zM233.78 188a3.542 3.542 0 0 1-.307-.923c-.077-.369-.132-.753-.167-1.151a9.102 9.102 0 0 1-1.099.931c-.404.293-.85.551-1.336.774a8.234 8.234 0 0 1-1.556.527 7.696 7.696 0 0 1-1.757.194c-1.008 0-1.92-.147-2.734-.44-.814-.293-1.506-.688-2.074-1.186a5.173 5.173 0 0 1-1.318-1.776 5.325 5.325 0 0 1-.466-2.223c0-1.043.208-1.957.624-2.743a5.436 5.436 0 0 1 1.766-1.96c.762-.521 1.68-.91 2.751-1.169 1.073-.257 2.27-.386 3.595-.386h3.55v-1.494a3.65 3.65 0 0 0-.315-1.547 3.307 3.307 0 0 0-.897-1.17 4.12 4.12 0 0 0-1.415-.746 6.202 6.202 0 0 0-1.872-.264c-.645 0-1.222.082-1.732.246-.51.164-.94.381-1.292.65-.351.27-.624.59-.817.959a2.45 2.45 0 0 0-.29 1.15h-3.27c.012-.69.19-1.37.537-2.038.345-.668.843-1.269 1.494-1.802.65-.533 1.441-.964 2.373-1.292.931-.328 1.99-.492 3.173-.492 1.078 0 2.08.132 3.006.395.925.264 1.725.663 2.399 1.196a5.654 5.654 0 0 1 1.59 1.995c.388.797.58 1.728.58 2.795v8.842c0 .632.06 1.303.177 2.012.117.71.28 1.327.492 1.855V188h-3.393zm-5.748-2.479c.633 0 1.225-.082 1.776-.246a6.578 6.578 0 0 0 1.503-.65c.45-.27.84-.577 1.168-.923.329-.346.586-.706.774-1.08v-3.85h-3.024c-1.898 0-3.375.28-4.43.843-1.054.563-1.581 1.447-1.581 2.655 0 .468.079.902.237 1.3.158.399.396.742.712 1.029.316.287.715.512 1.195.676.48.164 1.037.246 1.67.246zm13.238-7.189c0-1.418.18-2.722.537-3.911.357-1.19.867-2.212 1.529-3.067a7.102 7.102 0 0 1 2.4-2.004c.937-.48 1.986-.721 3.146-.721 1.137 0 2.13.19 2.98.571.849.381 1.584.935 2.205 1.661V161h3.252v27h-2.988l-.14-2.004a6.22 6.22 0 0 1-2.268 1.758c-.88.398-1.904.598-3.076.598-1.149 0-2.189-.247-3.12-.739a7.15 7.15 0 0 1-2.382-2.039c-.657-.867-1.166-1.89-1.53-3.067-.363-1.178-.545-2.446-.545-3.806v-.369zm3.252.37c0 .925.1 1.804.3 2.636.198.832.506 1.564.922 2.197a4.645 4.645 0 0 0 1.59 1.503c.645.37 1.419.554 2.321.554.551 0 1.05-.065 1.494-.194a4.403 4.403 0 0 0 2.18-1.415c.281-.334.527-.706.738-1.116v-8.824a5.503 5.503 0 0 0-1.705-1.907c-.715-.498-1.605-.747-2.672-.747-.914 0-1.696.187-2.346.562a4.67 4.67 0 0 0-1.6 1.52c-.416.64-.724 1.378-.923 2.216-.199.837-.299 1.72-.299 2.645v.37zm33.752 11.952h-16.119V188h16.12v2.654zm7.016-21.674h9.598v19.143c0 1.219-.167 2.297-.501 3.234-.334.938-.82 1.726-1.46 2.365-.638.638-1.417 1.125-2.337 1.459-.92.334-1.966.5-3.138.5-.668 0-1.292-.02-1.872-.06-.58-.042-1.192-.121-1.837-.238l.229-2.672c.199.035.45.067.756.097a23.543 23.543 0 0 0 1.819.105c.287.006.513.009.677.009.609 0 1.183-.08 1.722-.237a3.43 3.43 0 0 0 1.407-.8c.398-.375.711-.87.94-1.486.228-.615.343-1.374.343-2.276v-16.312h-6.346v-2.83zm5.889-5.01c0-.527.158-.975.474-1.344.317-.37.803-.554 1.46-.554.656 0 1.148.185 1.476.554.328.37.492.817.492 1.345 0 .527-.164.97-.492 1.327-.328.357-.82.536-1.477.536-.656 0-1.142-.179-1.459-.536-.316-.358-.474-.8-.474-1.327zm25.156 18.985c0-.387-.076-.735-.229-1.046-.152-.31-.41-.595-.773-.852-.363-.258-.844-.495-1.441-.712-.598-.217-1.342-.413-2.233-.59a22.505 22.505 0 0 1-2.98-.808c-.896-.316-1.663-.694-2.302-1.134-.639-.439-1.134-.955-1.485-1.546-.352-.592-.528-1.28-.528-2.066 0-.773.182-1.497.545-2.17a5.53 5.53 0 0 1 1.53-1.767c.656-.504 1.438-.903 2.346-1.196.908-.293 1.907-.44 2.997-.44 1.172 0 2.227.153 3.164.458.938.305 1.735.726 2.39 1.266a5.72 5.72 0 0 1 1.521 1.89 5.17 5.17 0 0 1 .537 2.328h-3.252c0-.41-.106-.811-.317-1.204a3.448 3.448 0 0 0-.879-1.046 4.512 4.512 0 0 0-1.362-.738c-.533-.187-1.134-.281-1.802-.281-.691 0-1.298.076-1.82.228-.52.153-.954.358-1.3.616a2.625 2.625 0 0 0-.782.896c-.176.34-.264.691-.264 1.055 0 .375.07.709.211 1.002.14.293.384.556.73.79.345.235.808.446 1.388.633.58.188 1.316.37 2.206.545 1.172.247 2.221.53 3.147.853.926.322 1.705.709 2.338 1.16.633.451 1.116.976 1.45 1.573.334.598.5 1.29.5 2.075 0 .843-.19 1.61-.57 2.302a5.394 5.394 0 0 1-1.591 1.776c-.68.492-1.494.873-2.444 1.142-.949.27-1.986.405-3.11.405-1.29 0-2.438-.173-3.446-.519-1.008-.346-1.86-.803-2.558-1.371a5.906 5.906 0 0 1-1.6-1.978 5.232 5.232 0 0 1-.553-2.338h3.252c.047.668.225 1.231.536 1.688.31.457.697.826 1.16 1.107.463.282.976.48 1.538.598a8.17 8.17 0 0 0 1.67.176c1.371 0 2.455-.252 3.252-.756.797-.504 1.201-1.172 1.213-2.004zm14.504 2.936c0-.352.056-.68.167-.985.111-.304.272-.571.483-.8.211-.228.475-.407.791-.536a2.921 2.921 0 0 1 1.108-.193c.422 0 .794.064 1.116.193.322.13.592.308.808.536.217.229.381.496.493.8.111.305.167.633.167.985 0 .34-.056.659-.167.958-.112.298-.276.56-.493.782a2.21 2.21 0 0 1-.808.518 3.117 3.117 0 0 1-1.116.185c-.422 0-.791-.062-1.108-.185a2.138 2.138 0 0 1-.79-.518 2.282 2.282 0 0 1-.484-.782 2.722 2.722 0 0 1-.167-.958zm0-15.399c0-.351.056-.68.167-.984.111-.305.272-.571.483-.8.211-.229.475-.407.791-.536a2.921 2.921 0 0 1 1.108-.193c.422 0 .794.064 1.116.193.322.129.592.307.808.536.217.229.381.495.493.8.111.305.167.633.167.984 0 .34-.056.66-.167.958-.112.299-.276.56-.493.782a2.21 2.21 0 0 1-.808.519 3.117 3.117 0 0 1-1.116.185c-.422 0-.791-.062-1.108-.185a2.138 2.138 0 0 1-.79-.519 2.282 2.282 0 0 1-.484-.782 2.722 2.722 0 0 1-.167-.958z" fill="#47EBB4"/><path d="M371.326 162.916l-.369 6.504h-2.285l.017-6.223V161h2.637v1.916zm6.276 0l-.37 6.504h-2.267l.017-6.223V161h2.637l-.017 1.916zM398.609 188a3.542 3.542 0 0 1-.307-.923c-.076-.369-.132-.753-.167-1.151a9.102 9.102 0 0 1-1.099.931c-.404.293-.85.551-1.336.774a8.234 8.234 0 0 1-1.555.527 7.696 7.696 0 0 1-1.758.194c-1.008 0-1.92-.147-2.734-.44-.814-.293-1.506-.688-2.074-1.186a5.173 5.173 0 0 1-1.318-1.776 5.325 5.325 0 0 1-.466-2.223c0-1.043.208-1.957.624-2.743a5.436 5.436 0 0 1 1.767-1.96c.761-.521 1.678-.91 2.75-1.169 1.073-.257 2.271-.386 3.595-.386h3.551v-1.494a3.65 3.65 0 0 0-.316-1.547 3.307 3.307 0 0 0-.897-1.17 4.12 4.12 0 0 0-1.415-.746 6.202 6.202 0 0 0-1.872-.264c-.645 0-1.222.082-1.731.246-.51.164-.94.381-1.292.65-.352.27-.624.59-.818.959a2.45 2.45 0 0 0-.29 1.15h-3.27c.012-.69.191-1.37.537-2.038.345-.668.844-1.269 1.494-1.802.65-.533 1.441-.964 2.373-1.292.932-.328 1.99-.492 3.173-.492 1.078 0 2.08.132 3.006.395.925.264 1.725.663 2.4 1.196a5.654 5.654 0 0 1 1.59 1.995c.387.797.58 1.728.58 2.795v8.842c0 .632.059 1.303.176 2.012.117.71.281 1.327.492 1.855V188h-3.393zm-5.748-2.479c.633 0 1.225-.082 1.776-.246a6.578 6.578 0 0 0 1.503-.65c.45-.27.84-.577 1.169-.923.328-.346.586-.706.773-1.08v-3.85h-3.023c-1.899 0-3.375.28-4.43.843-1.055.563-1.582 1.447-1.582 2.655 0 .468.079.902.237 1.3.158.399.396.742.712 1.029.317.287.715.512 1.195.676.48.164 1.038.246 1.67.246zm26.493-2.566c0-.387-.077-.735-.229-1.046-.152-.31-.41-.595-.773-.852-.364-.258-.844-.495-1.442-.712-.598-.217-1.342-.413-2.232-.59a22.505 22.505 0 0 1-2.98-.808c-.896-.316-1.664-.694-2.302-1.134-.64-.439-1.134-.955-1.486-1.546-.351-.592-.527-1.28-.527-2.066 0-.773.181-1.497.545-2.17a5.53 5.53 0 0 1 1.529-1.767c.656-.504 1.439-.903 2.347-1.196.908-.293 1.907-.44 2.997-.44 1.172 0 2.226.153 3.164.458.937.305 1.734.726 2.39 1.266a5.72 5.72 0 0 1 1.521 1.89 5.17 5.17 0 0 1 .536 2.328h-3.252c0-.41-.105-.811-.316-1.204a3.448 3.448 0 0 0-.88-1.046 4.512 4.512 0 0 0-1.361-.738c-.534-.187-1.134-.281-1.802-.281-.692 0-1.298.076-1.82.228-.521.153-.955.358-1.3.616a2.625 2.625 0 0 0-.783.896c-.175.34-.263.691-.263 1.055 0 .375.07.709.21 1.002.141.293.384.556.73.79.346.235.809.446 1.389.633.58.188 1.315.37 2.206.545 1.172.247 2.22.53 3.146.853.926.322 1.705.709 2.338 1.16.633.451 1.117.976 1.45 1.573.334.598.501 1.29.501 2.075 0 .843-.19 1.61-.57 2.302a5.394 5.394 0 0 1-1.592 1.776c-.68.492-1.494.873-2.443 1.142-.95.27-1.986.405-3.111.405-1.29 0-2.438-.173-3.446-.519-1.007-.346-1.86-.803-2.557-1.371a5.906 5.906 0 0 1-1.6-1.978 5.232 5.232 0 0 1-.554-2.338h3.252c.047.668.226 1.231.537 1.688.31.457.697.826 1.16 1.107.463.282.975.48 1.538.598a8.17 8.17 0 0 0 1.67.176c1.37 0 2.455-.252 3.252-.756.797-.504 1.2-1.172 1.213-2.004zm20.603 0c0-.387-.076-.735-.228-1.046-.153-.31-.41-.595-.774-.852-.363-.258-.844-.495-1.441-.712-.598-.217-1.342-.413-2.233-.59a22.505 22.505 0 0 1-2.98-.808c-.896-.316-1.663-.694-2.302-1.134-.639-.439-1.134-.955-1.485-1.546-.352-.592-.528-1.28-.528-2.066 0-.773.182-1.497.545-2.17a5.53 5.53 0 0 1 1.53-1.767c.656-.504 1.438-.903 2.346-1.196.908-.293 1.907-.44 2.997-.44 1.172 0 2.227.153 3.164.458.938.305 1.735.726 2.391 1.266a5.72 5.72 0 0 1 1.52 1.89 5.17 5.17 0 0 1 .537 2.328h-3.252c0-.41-.106-.811-.317-1.204a3.448 3.448 0 0 0-.879-1.046 4.512 4.512 0 0 0-1.362-.738c-.533-.187-1.134-.281-1.802-.281-.691 0-1.298.076-1.819.228-.522.153-.955.358-1.3.616a2.625 2.625 0 0 0-.783.896c-.176.34-.264.691-.264 1.055 0 .375.07.709.211 1.002.14.293.384.556.73.79.345.235.808.446 1.388.633.58.188 1.316.37 2.206.545 1.172.247 2.221.53 3.147.853.926.322 1.705.709 2.338 1.16.633.451 1.116.976 1.45 1.573.334.598.501 1.29.501 2.075 0 .843-.19 1.61-.571 2.302a5.394 5.394 0 0 1-1.591 1.776c-.68.492-1.494.873-2.443 1.142-.95.27-1.987.405-3.112.405-1.289 0-2.437-.173-3.445-.519-1.008-.346-1.86-.803-2.558-1.371a5.906 5.906 0 0 1-1.6-1.978 5.232 5.232 0 0 1-.553-2.338h3.252c.047.668.225 1.231.536 1.688.31.457.697.826 1.16 1.107.463.282.976.48 1.538.598a8.17 8.17 0 0 0 1.67.176c1.371 0 2.455-.252 3.252-.756.797-.504 1.201-1.172 1.213-2.004zm16.367 5.397c-1.336 0-2.563-.229-3.682-.686a8.356 8.356 0 0 1-2.874-1.916 8.765 8.765 0 0 1-1.864-2.918c-.445-1.125-.668-2.35-.668-3.674v-.738c0-1.535.246-2.91.739-4.122.492-1.213 1.145-2.238 1.96-3.076a8.551 8.551 0 0 1 2.777-1.925 8.012 8.012 0 0 1 3.19-.668c1.371 0 2.57.237 3.595.712a7.055 7.055 0 0 1 2.558 1.969c.68.837 1.186 1.825 1.52 2.961.334 1.137.501 2.368.501 3.692v1.459h-13.588a7.47 7.47 0 0 0 .501 2.443 6.347 6.347 0 0 0 1.23 1.995 5.685 5.685 0 0 0 1.873 1.345c.726.328 1.53.492 2.408.492 1.16 0 2.191-.234 3.094-.703a6.71 6.71 0 0 0 2.25-1.863l1.986 1.547c-.316.48-.712.94-1.186 1.38-.475.44-1.023.829-1.644 1.169a9.247 9.247 0 0 1-2.11.817c-.785.205-1.64.308-2.566.308zm-.422-17.051c-.656 0-1.277.12-1.863.36a4.862 4.862 0 0 0-1.582 1.055 6.014 6.014 0 0 0-1.186 1.705c-.323.674-.548 1.45-.677 2.329h10.23v-.246a7.26 7.26 0 0 0-.36-1.881 5.24 5.24 0 0 0-.905-1.67 4.53 4.53 0 0 0-1.503-1.195c-.604-.305-1.322-.457-2.154-.457zm20.323-6.926v4.605h7.242v2.514h-7.242v10.336c0 .738.093 1.348.28 1.828.188.48.446.864.774 1.152.328.287.706.489 1.134.606.428.117.882.176 1.362.176.352 0 .715-.02 1.09-.062.375-.04.741-.09 1.099-.15.357-.058.691-.12 1.002-.184.31-.064.565-.12.764-.167l.457 2.303a4.55 4.55 0 0 1-.984.43c-.387.124-.808.23-1.265.317-.458.088-.94.155-1.45.202-.51.047-1.017.07-1.521.07-.844 0-1.632-.12-2.364-.36a4.9 4.9 0 0 1-1.908-1.142c-.539-.522-.964-1.196-1.274-2.022-.31-.826-.466-1.825-.466-2.997v-10.336h-4.992v-2.514h4.992v-4.605h3.27zm25.543 18.58c0-.387-.077-.735-.229-1.046-.152-.31-.41-.595-.773-.852-.364-.258-.844-.495-1.442-.712-.597-.217-1.342-.413-2.232-.59a22.505 22.505 0 0 1-2.98-.808c-.896-.316-1.664-.694-2.302-1.134-.64-.439-1.134-.955-1.486-1.546-.351-.592-.527-1.28-.527-2.066 0-.773.182-1.497.545-2.17a5.53 5.53 0 0 1 1.53-1.767c.655-.504 1.438-.903 2.346-1.196.908-.293 1.907-.44 2.997-.44 1.172 0 2.226.153 3.164.458.937.305 1.734.726 2.39 1.266a5.72 5.72 0 0 1 1.521 1.89 5.17 5.17 0 0 1 .536 2.328h-3.252c0-.41-.105-.811-.316-1.204a3.448 3.448 0 0 0-.88-1.046 4.512 4.512 0 0 0-1.361-.738c-.534-.187-1.134-.281-1.802-.281-.692 0-1.298.076-1.82.228-.521.153-.955.358-1.3.616a2.625 2.625 0 0 0-.783.896c-.175.34-.263.691-.263 1.055 0 .375.07.709.21 1.002.141.293.385.556.73.79.346.235.809.446 1.389.633.58.188 1.315.37 2.206.545 1.172.247 2.22.53 3.146.853.926.322 1.706.709 2.338 1.16.633.451 1.117.976 1.45 1.573.335.598.502 1.29.502 2.075 0 .843-.19 1.61-.572 2.302a5.394 5.394 0 0 1-1.59 1.776c-.68.492-1.495.873-2.444 1.142-.95.27-1.986.405-3.111.405-1.29 0-2.438-.173-3.446-.519-1.007-.346-1.86-.803-2.557-1.371a5.906 5.906 0 0 1-1.6-1.978 5.232 5.232 0 0 1-.554-2.338h3.252c.047.668.226 1.231.537 1.688.31.457.697.826 1.16 1.107.463.282.975.48 1.538.598a8.17 8.17 0 0 0 1.67.176c1.37 0 2.455-.252 3.252-.756.797-.504 1.2-1.172 1.213-2.004zm12.253 7.242h-2.917l10.687-27.79h2.9l-10.67 27.79zm18.512-21.217h9.598v19.143c0 1.219-.167 2.297-.501 3.234-.334.938-.82 1.726-1.46 2.365-.638.638-1.417 1.125-2.337 1.459-.92.334-1.966.5-3.138.5-.668 0-1.292-.02-1.872-.06-.58-.042-1.192-.121-1.837-.238l.229-2.672c.2.035.451.067.756.097a23.543 23.543 0 0 0 1.819.105c.287.006.513.009.677.009.61 0 1.183-.08 1.722-.237a3.43 3.43 0 0 0 1.407-.8c.398-.375.712-.87.94-1.486.229-.615.343-1.374.343-2.276v-16.312h-6.346v-2.83zm5.889-5.01c0-.527.158-.975.474-1.344.317-.37.803-.554 1.46-.554.656 0 1.148.185 1.476.554.328.37.492.817.492 1.345 0 .527-.164.97-.492 1.327-.328.357-.82.536-1.477.536-.656 0-1.142-.179-1.459-.536-.316-.358-.474-.8-.474-1.327zm25.156 18.985c0-.387-.076-.735-.228-1.046-.153-.31-.41-.595-.774-.852-.363-.258-.844-.495-1.441-.712-.598-.217-1.342-.413-2.233-.59a22.505 22.505 0 0 1-2.98-.808c-.896-.316-1.663-.694-2.302-1.134-.639-.439-1.134-.955-1.485-1.546-.352-.592-.528-1.28-.528-2.066 0-.773.182-1.497.545-2.17a5.53 5.53 0 0 1 1.53-1.767c.656-.504 1.438-.903 2.346-1.196.909-.293 1.908-.44 2.997-.44 1.172 0 2.227.153 3.164.458.938.305 1.735.726 2.391 1.266a5.72 5.72 0 0 1 1.52 1.89 5.17 5.17 0 0 1 .537 2.328h-3.252c0-.41-.106-.811-.317-1.204a3.448 3.448 0 0 0-.879-1.046 4.512 4.512 0 0 0-1.362-.738c-.533-.187-1.134-.281-1.802-.281-.691 0-1.297.076-1.819.228-.521.153-.955.358-1.3.616a2.625 2.625 0 0 0-.783.896c-.176.34-.264.691-.264 1.055 0 .375.07.709.211 1.002.14.293.384.556.73.79.346.235.808.446 1.388.633.58.188 1.316.37 2.207.545 1.171.247 2.22.53 3.146.853.926.322 1.705.709 2.338 1.16.633.451 1.116.976 1.45 1.573.334.598.501 1.29.501 2.075 0 .843-.19 1.61-.571 2.302a5.394 5.394 0 0 1-1.591 1.776c-.68.492-1.494.873-2.443 1.142-.95.27-1.987.405-3.112.405-1.289 0-2.437-.173-3.445-.519-1.008-.346-1.86-.803-2.558-1.371a5.906 5.906 0 0 1-1.6-1.978 5.232 5.232 0 0 1-.553-2.338h3.252c.047.668.226 1.231.536 1.688.31.457.697.826 1.16 1.107.463.282.976.48 1.538.598a8.17 8.17 0 0 0 1.67.176c1.371 0 2.455-.252 3.252-.756.797-.504 1.201-1.172 1.213-2.004zm12.254 7.242h-2.918l10.688-27.79h2.9l-10.67 27.79zm17.809-21.217l.088 1.793a4.284 4.284 0 0 1 1.52-1.564c.627-.375 1.386-.568 2.276-.58 1.746 0 2.912.68 3.498 2.039.375-.61.87-1.099 1.486-1.468.615-.369 1.362-.56 2.241-.571 1.395 0 2.467.428 3.217 1.283.75.856 1.125 2.15 1.125 3.885V188h-3.094v-14.238c0-1.594-.732-2.385-2.197-2.373-.387 0-.72.052-1.002.158a2.008 2.008 0 0 0-.703.43 1.982 1.982 0 0 0-.44.633c-.105.24-.176.49-.21.747V188h-3.094v-14.256c0-.762-.17-1.348-.51-1.758-.34-.41-.88-.609-1.617-.597-.68 0-1.207.134-1.582.404s-.65.627-.827 1.072V188h-3.093v-19.02h2.918zM625.248 188a3.542 3.542 0 0 1-.308-.923c-.076-.369-.131-.753-.167-1.151a9.102 9.102 0 0 1-1.098.931c-.404.293-.85.551-1.336.774a8.234 8.234 0 0 1-1.556.527 7.696 7.696 0 0 1-1.758.194c-1.007 0-1.919-.147-2.733-.44-.814-.293-1.506-.688-2.074-1.186a5.173 5.173 0 0 1-1.319-1.776 5.325 5.325 0 0 1-.465-2.223c0-1.043.208-1.957.624-2.743a5.436 5.436 0 0 1 1.766-1.96c.762-.521 1.679-.91 2.751-1.169 1.072-.257 2.27-.386 3.595-.386h3.55v-1.494a3.65 3.65 0 0 0-.316-1.547 3.307 3.307 0 0 0-.896-1.17 4.12 4.12 0 0 0-1.415-.746 6.202 6.202 0 0 0-1.872-.264c-.645 0-1.222.082-1.732.246-.51.164-.94.381-1.292.65-.351.27-.624.59-.817.959a2.45 2.45 0 0 0-.29 1.15h-3.27c.012-.69.19-1.37.536-2.038.346-.668.844-1.269 1.495-1.802.65-.533 1.441-.964 2.373-1.292.931-.328 1.989-.492 3.172-.492 1.079 0 2.08.132 3.006.395.926.264 1.726.663 2.4 1.196a5.654 5.654 0 0 1 1.59 1.995c.387.797.58 1.728.58 2.795v8.842c0 .632.06 1.303.176 2.012.118.71.282 1.327.493 1.855V188h-3.393zm-5.748-2.479c.633 0 1.225-.082 1.775-.246a6.578 6.578 0 0 0 1.503-.65c.451-.27.841-.577 1.17-.923.327-.346.585-.706.773-1.08v-3.85h-3.024c-1.898 0-3.375.28-4.43.843-1.054.563-1.581 1.447-1.581 2.655 0 .468.079.902.237 1.3.158.399.395.742.712 1.029.316.287.715.512 1.195.676.48.164 1.037.246 1.67.246zm14.363-16.54h9.721v16.207h6.205V188h-15.926v-2.812h6.469V171.81h-6.469v-2.83zm6.047-4.993c0-.539.161-.993.484-1.362.322-.37.811-.554 1.467-.554.645 0 1.131.185 1.46.554.327.37.491.823.491 1.362 0 .528-.164.967-.492 1.319-.328.351-.814.527-1.459.527-.656 0-1.145-.176-1.467-.527-.323-.352-.484-.791-.484-1.319zm16.965 4.992l.229 2.813a7.553 7.553 0 0 1 2.548-2.312c1.008-.556 2.133-.84 3.375-.852.996 0 1.902.14 2.716.422.815.281 1.509.72 2.083 1.318.574.598 1.017 1.357 1.327 2.277.31.92.466 2.012.466 3.278V188h-3.252v-12.006c0-.844-.094-1.558-.281-2.144-.188-.586-.466-1.06-.835-1.424a3.262 3.262 0 0 0-1.354-.791c-.533-.164-1.145-.246-1.836-.246-1.09 0-2.048.272-2.874.817a6.028 6.028 0 0 0-1.978 2.153V188h-3.252v-19.02h2.918zm23.346 16.91c0-.35.055-.68.167-.984.111-.304.272-.571.483-.8.211-.228.475-.407.791-.536a2.921 2.921 0 0 1 1.108-.193c.421 0 .793.064 1.116.193.322.13.592.308.808.536.217.229.381.496.493.8.11.305.167.633.167.985 0 .34-.056.659-.167.958-.112.298-.276.56-.493.782a2.21 2.21 0 0 1-.808.518 3.117 3.117 0 0 1-1.116.185c-.422 0-.791-.062-1.108-.185a2.138 2.138 0 0 1-.79-.518 2.282 2.282 0 0 1-.484-.782 2.722 2.722 0 0 1-.167-.958zm17.14-16.91h9.598v19.143c0 1.219-.167 2.297-.501 3.234-.334.938-.82 1.726-1.459 2.365-.639.638-1.418 1.125-2.338 1.459-.92.334-1.966.5-3.138.5-.668 0-1.292-.02-1.872-.06-.58-.042-1.192-.121-1.837-.238l.229-2.672c.2.035.451.067.756.097a23.543 23.543 0 0 0 1.82.105c.286.006.512.009.676.009.61 0 1.184-.08 1.723-.237a3.43 3.43 0 0 0 1.406-.8c.398-.375.712-.87.94-1.486.229-.615.343-1.374.343-2.276v-16.312h-6.346v-2.83zm5.889-5.01c0-.527.158-.975.475-1.344.316-.37.802-.554 1.459-.554.656 0 1.148.185 1.476.554.328.37.492.817.492 1.345 0 .527-.164.97-.492 1.327-.328.357-.82.536-1.476.536-.657 0-1.143-.179-1.46-.536-.316-.358-.474-.8-.474-1.327zm25.156 18.985c0-.387-.076-.735-.228-1.046-.153-.31-.41-.595-.774-.852-.363-.258-.843-.495-1.441-.712-.598-.217-1.342-.413-2.233-.59a22.505 22.505 0 0 1-2.979-.808c-.897-.316-1.664-.694-2.303-1.134-.638-.439-1.134-.955-1.485-1.546-.352-.592-.527-1.28-.527-2.066 0-.773.181-1.497.544-2.17a5.53 5.53 0 0 1 1.53-1.767c.656-.504 1.438-.903 2.346-1.196.909-.293 1.908-.44 2.998-.44 1.171 0 2.226.153 3.164.458.937.305 1.734.726 2.39 1.266a5.72 5.72 0 0 1 1.52 1.89 5.17 5.17 0 0 1 .537 2.328h-3.252c0-.41-.106-.811-.317-1.204a3.448 3.448 0 0 0-.878-1.046 4.512 4.512 0 0 0-1.363-.738c-.533-.187-1.134-.281-1.801-.281-.692 0-1.298.076-1.82.228-.521.153-.955.358-1.3.616a2.625 2.625 0 0 0-.783.896c-.176.34-.264.691-.264 1.055 0 .375.07.709.211 1.002.141.293.384.556.73.79.346.235.809.446 1.389.633.58.188 1.315.37 2.206.545 1.172.247 2.22.53 3.146.853.926.322 1.705.709 2.338 1.16.633.451 1.116.976 1.45 1.573.334.598.501 1.29.501 2.075 0 .843-.19 1.61-.571 2.302a5.394 5.394 0 0 1-1.59 1.776c-.68.492-1.495.873-2.444 1.142-.95.27-1.987.405-3.112.405-1.289 0-2.437-.173-3.445-.519-1.008-.346-1.86-.803-2.558-1.371a5.906 5.906 0 0 1-1.6-1.978 5.232 5.232 0 0 1-.553-2.338h3.252c.047.668.226 1.231.536 1.688.31.457.698.826 1.16 1.107.463.282.976.48 1.538.598a8.17 8.17 0 0 0 1.67.176c1.372 0 2.455-.252 3.252-.756.797-.504 1.202-1.172 1.213-2.004zm13.783-20.039l-.369 6.504h-2.285l.018-6.223V161h2.636v1.916zm6.276 0l-.37 6.504h-2.267l.018-6.223V161h2.636l-.017 1.916z" fill="#3EB0FD"/><path d="M93.107 226.701c0 1.36-.164 2.628-.492 3.806-.328 1.178-.808 2.2-1.441 3.067a6.814 6.814 0 0 1-2.347 2.04c-.931.491-1.995.738-3.19.738-1.16 0-2.183-.188-3.068-.563a6.364 6.364 0 0 1-2.276-1.617v9.14h-3.252V216.98h2.97l.159 2.075a6.343 6.343 0 0 1 2.294-1.802c.896-.416 1.936-.624 3.12-.624 1.219 0 2.297.24 3.234.72a6.69 6.69 0 0 1 2.356 2.005c.633.855 1.113 1.877 1.441 3.067.328 1.19.492 2.493.492 3.911v.37zm-3.252-.369c0-.926-.102-1.808-.307-2.645-.205-.838-.522-1.577-.95-2.215a4.803 4.803 0 0 0-1.625-1.52c-.657-.376-1.442-.563-2.356-.563-1.043 0-1.919.243-2.628.73a5.424 5.424 0 0 0-1.696 1.871v9.158c.422.75.984 1.363 1.687 1.837.704.475 1.594.712 2.672.712.903 0 1.682-.19 2.338-.571a4.775 4.775 0 0 0 1.617-1.538c.422-.645.736-1.389.94-2.233.206-.843.308-1.728.308-2.654v-.369zM110.16 236a3.542 3.542 0 0 1-.307-.923c-.077-.369-.132-.753-.167-1.151a9.102 9.102 0 0 1-1.1.931c-.403.293-.849.551-1.335.774a8.234 8.234 0 0 1-1.556.527 7.696 7.696 0 0 1-1.757.194c-1.008 0-1.92-.147-2.734-.44-.814-.293-1.506-.688-2.074-1.186a5.173 5.173 0 0 1-1.318-1.776 5.325 5.325 0 0 1-.466-2.223c0-1.043.208-1.957.624-2.743a5.436 5.436 0 0 1 1.766-1.96c.762-.521 1.679-.91 2.751-1.169 1.073-.257 2.27-.386 3.595-.386h3.55v-1.494a3.65 3.65 0 0 0-.316-1.547 3.307 3.307 0 0 0-.896-1.17 4.12 4.12 0 0 0-1.415-.746 6.202 6.202 0 0 0-1.872-.264c-.645 0-1.222.082-1.732.246-.51.164-.94.381-1.292.65-.351.27-.624.59-.817.959a2.45 2.45 0 0 0-.29 1.15h-3.27c.012-.69.19-1.37.537-2.038.345-.668.843-1.269 1.494-1.802.65-.533 1.441-.964 2.373-1.292.931-.328 1.989-.492 3.173-.492 1.078 0 2.08.132 3.005.395.926.264 1.726.663 2.4 1.196a5.654 5.654 0 0 1 1.59 1.995c.387.797.58 1.728.58 2.795v8.842c0 .632.06 1.303.177 2.012.117.71.28 1.327.492 1.855V236h-3.393zm-5.748-2.479c.633 0 1.225-.082 1.776-.246a6.578 6.578 0 0 0 1.502-.65c.452-.27.841-.577 1.17-.923.328-.346.585-.706.773-1.08v-3.85h-3.024c-1.898 0-3.375.28-4.43.843-1.054.563-1.581 1.447-1.581 2.655 0 .468.079.902.237 1.3.158.399.395.742.712 1.029.316.287.715.512 1.195.676.48.164 1.037.246 1.67.246zm26.317-16.892c.304 0 .62.009.949.026.328.018.641.047.94.088.299.041.574.091.826.15.252.058.46.123.624.193l-.44 3.182a17.331 17.331 0 0 0-1.8-.308 15.84 15.84 0 0 0-1.785-.097c-1.523 0-2.757.346-3.7 1.037-.944.692-1.638 1.659-2.083 2.9V236h-3.27v-19.02h3.094l.158 3.024a8.738 8.738 0 0 1 2.786-2.47c1.084-.603 2.318-.905 3.7-.905zM151.367 236a3.542 3.542 0 0 1-.307-.923c-.077-.369-.132-.753-.167-1.151a9.102 9.102 0 0 1-1.1.931c-.403.293-.849.551-1.335.774a8.234 8.234 0 0 1-1.556.527 7.696 7.696 0 0 1-1.757.194c-1.008 0-1.92-.147-2.734-.44-.814-.293-1.506-.688-2.074-1.186a5.173 5.173 0 0 1-1.318-1.776 5.325 5.325 0 0 1-.466-2.223c0-1.043.208-1.957.624-2.743a5.436 5.436 0 0 1 1.766-1.96c.762-.521 1.68-.91 2.751-1.169 1.073-.257 2.27-.386 3.595-.386h3.55v-1.494a3.65 3.65 0 0 0-.316-1.547 3.307 3.307 0 0 0-.896-1.17 4.12 4.12 0 0 0-1.415-.746 6.202 6.202 0 0 0-1.872-.264c-.645 0-1.222.082-1.732.246-.51.164-.94.381-1.292.65-.351.27-.624.59-.817.959a2.45 2.45 0 0 0-.29 1.15h-3.27c.012-.69.19-1.37.537-2.038.345-.668.843-1.269 1.494-1.802.65-.533 1.441-.964 2.373-1.292.931-.328 1.989-.492 3.173-.492 1.078 0 2.08.132 3.005.395.926.264 1.726.663 2.4 1.196a5.654 5.654 0 0 1 1.59 1.995c.387.797.58 1.728.58 2.795v8.842c0 .632.06 1.303.177 2.012.117.71.28 1.327.492 1.855V236h-3.393zm-5.748-2.479c.633 0 1.225-.082 1.776-.246a6.578 6.578 0 0 0 1.502-.65c.452-.27.841-.577 1.17-.923.328-.346.585-.706.773-1.08v-3.85h-3.024c-1.898 0-3.375.28-4.43.843-1.054.563-1.581 1.447-1.581 2.655 0 .468.079.902.237 1.3.158.399.395.742.712 1.029.316.287.715.512 1.195.676.48.164 1.037.246 1.67.246zm15.348-16.54l.088 1.792a4.284 4.284 0 0 1 1.52-1.564c.627-.375 1.386-.568 2.277-.58 1.746 0 2.912.68 3.498 2.039.375-.61.87-1.099 1.485-1.468.615-.369 1.362-.56 2.241-.571 1.395 0 2.467.428 3.217 1.283.75.856 1.125 2.15 1.125 3.885V236h-3.094v-14.238c0-1.594-.732-2.385-2.197-2.373-.387 0-.72.052-1.002.158a2.008 2.008 0 0 0-.703.43 1.982 1.982 0 0 0-.44.633c-.105.24-.175.49-.21.747V236h-3.094v-14.256c0-.762-.17-1.348-.51-1.758-.34-.41-.879-.609-1.617-.597-.68 0-1.207.134-1.582.404s-.65.627-.826 1.072V236h-3.094v-19.02h2.918zm31.748 13.974c0-.387-.076-.735-.229-1.046-.152-.31-.41-.595-.773-.852-.363-.258-.844-.495-1.442-.712-.597-.217-1.341-.413-2.232-.59a22.505 22.505 0 0 1-2.98-.808c-.896-.316-1.663-.694-2.302-1.134-.639-.439-1.134-.955-1.486-1.546-.351-.592-.527-1.28-.527-2.066 0-.773.182-1.497.545-2.17a5.53 5.53 0 0 1 1.53-1.767c.656-.504 1.438-.903 2.346-1.196.908-.293 1.907-.44 2.997-.44 1.172 0 2.227.153 3.164.458.938.305 1.735.726 2.39 1.266a5.72 5.72 0 0 1 1.521 1.89 5.17 5.17 0 0 1 .536 2.328h-3.252c0-.41-.105-.811-.316-1.204a3.448 3.448 0 0 0-.879-1.046 4.512 4.512 0 0 0-1.362-.738c-.533-.187-1.134-.281-1.802-.281-.691 0-1.298.076-1.82.228-.52.153-.954.358-1.3.616a2.625 2.625 0 0 0-.782.896c-.176.34-.264.691-.264 1.055 0 .375.07.709.211 1.002.14.293.384.556.73.79.345.235.808.446 1.388.633.58.188 1.316.37 2.206.545 1.172.247 2.22.53 3.147.853.926.322 1.705.709 2.338 1.16.632.451 1.116.976 1.45 1.573.334.598.5 1.29.5 2.075 0 .843-.19 1.61-.57 2.302a5.394 5.394 0 0 1-1.591 1.776c-.68.492-1.494.873-2.444 1.142-.949.27-1.986.405-3.111.405-1.29 0-2.437-.173-3.445-.519-1.008-.346-1.86-.803-2.558-1.371a5.906 5.906 0 0 1-1.6-1.978 5.232 5.232 0 0 1-.553-2.338h3.252c.047.668.225 1.231.536 1.688.31.457.697.826 1.16 1.107.463.282.976.48 1.538.598a8.17 8.17 0 0 0 1.67.176c1.371 0 2.455-.252 3.252-.756.797-.504 1.201-1.172 1.213-2.004zm14.504 2.936c0-.352.055-.68.167-.985.111-.304.272-.571.483-.8.211-.228.475-.407.791-.536a2.921 2.921 0 0 1 1.108-.193c.421 0 .794.064 1.116.193.322.13.592.308.808.536.217.229.381.496.493.8.11.305.167.633.167.985 0 .34-.056.659-.167.958-.112.298-.276.56-.493.782a2.21 2.21 0 0 1-.808.518 3.117 3.117 0 0 1-1.116.185c-.422 0-.791-.062-1.108-.185a2.138 2.138 0 0 1-.79-.518 2.282 2.282 0 0 1-.484-.782 2.722 2.722 0 0 1-.167-.958zm0-15.399c0-.351.055-.68.167-.984.111-.305.272-.571.483-.8.211-.229.475-.407.791-.536a2.921 2.921 0 0 1 1.108-.193c.421 0 .794.064 1.116.193.322.129.592.307.808.536.217.229.381.495.493.8.11.305.167.633.167.984 0 .34-.056.66-.167.958-.112.299-.276.56-.493.782a2.21 2.21 0 0 1-.808.519 3.117 3.117 0 0 1-1.116.185c-.422 0-.791-.062-1.108-.185a2.138 2.138 0 0 1-.79-.519 2.282 2.282 0 0 1-.484-.782 2.722 2.722 0 0 1-.167-.958zm-85.701 49.319c.68-.997 1.517-1.773 2.513-2.33.996-.556 2.115-.84 3.358-.852.996 0 1.901.143 2.715.43a5.184 5.184 0 0 1 2.084 1.345c.574.61 1.016 1.38 1.327 2.312.31.931.465 2.036.465 3.313V284h-3.251v-12.006c0-1.558-.373-2.719-1.117-3.48-.744-.762-1.807-1.137-3.19-1.125-1.043 0-1.99.255-2.839.764a6.112 6.112 0 0 0-2.065 2.03V284h-3.252v-27h3.252v10.81zm25.753 16.54c-1.335 0-2.563-.228-3.682-.685a8.356 8.356 0 0 1-2.874-1.916 8.765 8.765 0 0 1-1.863-2.918c-.446-1.125-.668-2.35-.668-3.674v-.738c0-1.535.246-2.91.738-4.122.492-1.213 1.145-2.238 1.96-3.076a8.551 8.551 0 0 1 2.777-1.925 8.012 8.012 0 0 1 3.19-.668c1.372 0 2.57.237 3.595.712a7.055 7.055 0 0 1 2.558 1.969c.68.837 1.186 1.825 1.52 2.961.334 1.137.501 2.368.501 3.692v1.459h-13.587a7.47 7.47 0 0 0 .5 2.443 6.347 6.347 0 0 0 1.231 1.995 5.685 5.685 0 0 0 1.872 1.345c.727.328 1.53.492 2.408.492 1.16 0 2.192-.234 3.094-.703a6.71 6.71 0 0 0 2.25-1.863l1.986 1.547c-.316.48-.712.94-1.186 1.38-.475.44-1.023.829-1.644 1.169a9.247 9.247 0 0 1-2.11.817c-.784.205-1.64.308-2.566.308zm-.421-17.05c-.657 0-1.278.12-1.864.36a4.862 4.862 0 0 0-1.582 1.055 6.014 6.014 0 0 0-1.186 1.705c-.322.674-.548 1.45-.677 2.329h10.23v-.246a7.261 7.261 0 0 0-.36-1.881 5.24 5.24 0 0 0-.905-1.67 4.53 4.53 0 0 0-1.503-1.195c-.604-.305-1.321-.457-2.153-.457zM171.97 284a3.542 3.542 0 0 1-.307-.923c-.076-.369-.132-.753-.167-1.151a9.102 9.102 0 0 1-1.099.931c-.404.293-.85.551-1.335.774a8.234 8.234 0 0 1-1.556.527 7.696 7.696 0 0 1-1.758.194c-1.008 0-1.919-.147-2.733-.44-.815-.293-1.506-.688-2.075-1.186a5.173 5.173 0 0 1-1.318-1.776 5.325 5.325 0 0 1-.466-2.223c0-1.043.208-1.957.624-2.743a5.436 5.436 0 0 1 1.767-1.96c.762-.521 1.679-.91 2.75-1.169 1.073-.257 2.271-.386 3.596-.386h3.55v-1.494a3.65 3.65 0 0 0-.316-1.547 3.307 3.307 0 0 0-.897-1.17 4.12 4.12 0 0 0-1.415-.746 6.202 6.202 0 0 0-1.872-.264c-.644 0-1.221.082-1.731.246-.51.164-.94.381-1.292.65-.352.27-.624.59-.817.959a2.45 2.45 0 0 0-.29 1.15h-3.27c.012-.69.19-1.37.536-2.038.346-.668.844-1.269 1.494-1.802.65-.533 1.442-.964 2.373-1.292.932-.328 1.99-.492 3.173-.492 1.078 0 2.08.132 3.006.395.926.264 1.726.663 2.4 1.196a5.654 5.654 0 0 1 1.59 1.995c.387.797.58 1.728.58 2.795v8.842c0 .632.059 1.303.176 2.012.117.71.281 1.327.492 1.855V284h-3.392zm-5.747-2.479c.632 0 1.224-.082 1.775-.246a6.578 6.578 0 0 0 1.503-.65c.451-.27.84-.577 1.169-.923.328-.346.586-.706.773-1.08v-3.85h-3.023c-1.899 0-3.375.28-4.43.843-1.054.563-1.582 1.447-1.582 2.655 0 .468.08.902.238 1.3.158.399.395.742.711 1.029.317.287.715.512 1.196.676.48.164 1.037.246 1.67.246zm13.238-7.189c0-1.418.179-2.722.536-3.911.357-1.19.867-2.212 1.53-3.067a7.102 7.102 0 0 1 2.399-2.004c.937-.48 1.986-.721 3.146-.721 1.137 0 2.13.19 2.98.571.85.381 1.585.935 2.206 1.661V257h3.252v27h-2.989l-.14-2.004a6.22 6.22 0 0 1-2.268 1.758c-.879.398-1.904.598-3.076.598-1.148 0-2.188-.247-3.12-.739a7.15 7.15 0 0 1-2.382-2.039c-.656-.867-1.166-1.89-1.53-3.067-.362-1.178-.544-2.446-.544-3.806v-.369zm3.252.37c0 .925.1 1.804.299 2.636.199.832.507 1.564.923 2.197a4.645 4.645 0 0 0 1.59 1.503c.645.37 1.418.554 2.32.554.551 0 1.05-.065 1.495-.194a4.403 4.403 0 0 0 2.18-1.415c.28-.334.527-.706.738-1.116v-8.824a5.503 5.503 0 0 0-1.705-1.907c-.715-.498-1.606-.747-2.672-.747-.914 0-1.696.187-2.347.562a4.67 4.67 0 0 0-1.6 1.52c-.415.64-.723 1.378-.922 2.216-.2.837-.3 1.72-.3 2.645v.37zm26.369 9.65c-1.336 0-2.563-.229-3.683-.686a8.356 8.356 0 0 1-2.874-1.916 8.765 8.765 0 0 1-1.863-2.918c-.445-1.125-.668-2.35-.668-3.674v-.738c0-1.535.246-2.91.738-4.122.493-1.213 1.146-2.238 1.96-3.076a8.551 8.551 0 0 1 2.778-1.925 8.012 8.012 0 0 1 3.19-.668c1.371 0 2.57.237 3.595.712a7.055 7.055 0 0 1 2.557 1.969c.68.837 1.187 1.825 1.521 2.961.334 1.137.501 2.368.501 3.692v1.459h-13.588a7.47 7.47 0 0 0 .501 2.443 6.347 6.347 0 0 0 1.23 1.995 5.685 5.685 0 0 0 1.873 1.345c.726.328 1.529.492 2.408.492 1.16 0 2.191-.234 3.094-.703a6.71 6.71 0 0 0 2.25-1.863l1.986 1.547c-.317.48-.712.94-1.187 1.38-.474.44-1.022.829-1.643 1.169a9.247 9.247 0 0 1-2.11.817c-.785.205-1.64.308-2.566.308zm-.422-17.051c-.656 0-1.277.12-1.863.36a4.862 4.862 0 0 0-1.582 1.055 6.014 6.014 0 0 0-1.187 1.705c-.322.674-.548 1.45-.676 2.329h10.23v-.246a7.261 7.261 0 0 0-.36-1.881 5.24 5.24 0 0 0-.906-1.67 4.53 4.53 0 0 0-1.503-1.195c-.603-.305-1.32-.457-2.153-.457zm25.086-2.672c.305 0 .621.009.95.026.327.018.64.047.94.088.299.041.574.091.826.15.252.058.46.123.624.193l-.44 3.182a17.331 17.331 0 0 0-1.801-.308 15.84 15.84 0 0 0-1.784-.097c-1.524 0-2.757.346-3.7 1.037-.944.692-1.638 1.659-2.084 2.9V284h-3.27v-19.02h3.095l.158 3.024a8.738 8.738 0 0 1 2.786-2.47c1.084-.603 2.317-.905 3.7-.905zm14.68 17.262c0-.352.055-.68.167-.985.111-.304.272-.571.483-.8.211-.228.475-.407.791-.536a2.921 2.921 0 0 1 1.108-.193c.421 0 .794.064 1.116.193.322.13.592.308.808.536.217.229.381.496.493.8.11.305.167.633.167.985 0 .34-.056.659-.167.958-.112.298-.276.56-.493.782a2.21 2.21 0 0 1-.808.518 3.117 3.117 0 0 1-1.116.185c-.422 0-.791-.062-1.108-.185a2.138 2.138 0 0 1-.79-.518 2.282 2.282 0 0 1-.484-.782 2.722 2.722 0 0 1-.167-.958zm0-15.399c0-.351.055-.68.167-.984.111-.305.272-.571.483-.8.211-.229.475-.407.791-.536a2.921 2.921 0 0 1 1.108-.193c.421 0 .794.064 1.116.193.322.129.592.307.808.536.217.229.381.495.493.8.11.305.167.633.167.984 0 .34-.056.66-.167.958-.112.299-.276.56-.493.782a2.21 2.21 0 0 1-.808.519 3.117 3.117 0 0 1-1.116.185c-.422 0-.791-.062-1.108-.185a2.138 2.138 0 0 1-.79-.519 2.282 2.282 0 0 1-.484-.782 2.722 2.722 0 0 1-.167-.958zm-81.254 41.883v4.605h7.242v2.514h-7.242v10.336c0 .738.094 1.348.281 1.828.188.48.445.864.774 1.152.328.287.706.489 1.133.606.428.117.882.176 1.363.176.351 0 .714-.02 1.09-.062.375-.04.74-.09 1.098-.15.358-.058.692-.12 1.002-.184.31-.064.566-.12.765-.167l.457 2.303a4.55 4.55 0 0 1-.985.43c-.386.124-.808.23-1.265.317-.457.088-.94.155-1.45.202-.51.047-1.017.07-1.52.07-.845 0-1.633-.12-2.365-.36a4.9 4.9 0 0 1-1.907-1.142c-.54-.522-.964-1.196-1.275-2.022-.31-.826-.466-1.825-.466-2.997v-10.336h-4.992v-2.514h4.992v-4.605h3.27zm13.414 4.605h9.72v16.207h6.206V332h-15.926v-2.813h6.469v-13.376h-6.47v-2.83zm6.047-4.992c0-.539.16-.993.483-1.362.322-.37.812-.554 1.468-.554.645 0 1.13.185 1.459.554.328.37.492.823.492 1.362 0 .528-.164.967-.492 1.319-.328.351-.814.527-1.459.527-.656 0-1.146-.176-1.468-.527-.322-.352-.483-.791-.483-1.319zm21.746.387v4.605h7.242v2.514h-7.242v10.336c0 .738.094 1.348.281 1.828.188.48.445.864.774 1.152.328.287.706.489 1.133.606.428.117.882.176 1.363.176.351 0 .715-.02 1.09-.062.375-.04.74-.09 1.098-.15.358-.058.692-.12 1.002-.184.31-.064.566-.12.765-.167l.457 2.303a4.55 4.55 0 0 1-.985.43c-.386.124-.808.23-1.265.317-.457.088-.94.155-1.45.202-.51.047-1.017.07-1.52.07-.845 0-1.633-.12-2.365-.36a4.9 4.9 0 0 1-1.907-1.142c-.54-.522-.964-1.196-1.275-2.022-.31-.826-.466-1.825-.466-2.997v-10.336h-4.992v-2.514h4.992v-4.605h3.27zM221.793 305h9.72v24.188h6.206V332h-15.926v-2.813h6.469V307.83h-6.469V305zm28.496 27.352c-1.336 0-2.563-.229-3.683-.686a8.356 8.356 0 0 1-2.874-1.916 8.765 8.765 0 0 1-1.863-2.918c-.445-1.125-.668-2.35-.668-3.674v-.738c0-1.535.246-2.91.738-4.122.493-1.213 1.146-2.238 1.96-3.076a8.551 8.551 0 0 1 2.778-1.925 8.012 8.012 0 0 1 3.19-.668c1.371 0 2.57.237 3.595.712a7.055 7.055 0 0 1 2.558 1.969c.68.837 1.186 1.825 1.52 2.961.334 1.137.501 2.368.501 3.692v1.459h-13.588a7.47 7.47 0 0 0 .501 2.443 6.347 6.347 0 0 0 1.23 1.995 5.685 5.685 0 0 0 1.873 1.345c.726.328 1.529.492 2.408.492 1.16 0 2.191-.234 3.094-.703a6.71 6.71 0 0 0 2.25-1.863l1.986 1.547c-.316.48-.712.94-1.187 1.38-.474.44-1.022.829-1.643 1.169a9.247 9.247 0 0 1-2.11.817c-.785.205-1.64.308-2.566.308zm-.422-17.051c-.656 0-1.277.12-1.863.36a4.862 4.862 0 0 0-1.582 1.055 6.014 6.014 0 0 0-1.187 1.705c-.322.674-.547 1.45-.676 2.329h10.23v-.246a7.261 7.261 0 0 0-.36-1.881 5.24 5.24 0 0 0-.906-1.67 4.53 4.53 0 0 0-1.502-1.195c-.604-.305-1.322-.457-2.154-.457zm19.162 14.59c0-.352.056-.68.167-.985.112-.304.273-.571.484-.8.21-.228.474-.407.79-.536a2.921 2.921 0 0 1 1.108-.193c.422 0 .794.064 1.116.193.323.13.592.308.809.536.217.229.38.496.492.8.111.305.167.633.167.985 0 .34-.056.659-.167.958-.111.298-.275.56-.492.782a2.21 2.21 0 0 1-.809.518 3.117 3.117 0 0 1-1.116.185c-.422 0-.79-.062-1.107-.185a2.138 2.138 0 0 1-.791-.518 2.282 2.282 0 0 1-.484-.782 2.722 2.722 0 0 1-.167-.958zm0-15.399c0-.351.056-.68.167-.984.112-.305.273-.571.484-.8.21-.229.474-.407.79-.536a2.921 2.921 0 0 1 1.108-.193c.422 0 .794.064 1.116.193.323.129.592.307.809.536.217.229.38.495.492.8.111.305.167.633.167.984 0 .34-.056.66-.167.958-.111.299-.275.56-.492.782a2.21 2.21 0 0 1-.809.519 3.117 3.117 0 0 1-1.116.185c-.422 0-.79-.062-1.107-.185a2.138 2.138 0 0 1-.791-.519 2.282 2.282 0 0 1-.484-.782 2.722 2.722 0 0 1-.167-.958z" fill="#47EBB4"/><path d="M309.516 306.916l-.37 6.504h-2.285l.018-6.223V305h2.637v1.916zm6.275 0l-.37 6.504h-2.267l.018-6.223V305h2.637l-.018 1.916zm20.727 18.457h-8.543L325.918 332h-3.252l8.262-25.594h2.724L341.773 332h-3.234l-2.021-6.627zm-7.664-2.83h6.802l-3.375-11.11-3.427 11.11zm17.544-9.563l.088 1.793a4.284 4.284 0 0 1 1.52-1.564c.628-.375 1.387-.568 2.277-.58 1.746 0 2.912.68 3.498 2.039.375-.61.87-1.099 1.486-1.468.615-.369 1.362-.56 2.24-.571 1.395 0 2.468.428 3.218 1.283.75.856 1.125 2.15 1.125 3.885V332h-3.094v-14.238c0-1.594-.733-2.385-2.197-2.373-.387 0-.721.052-1.002.158a2.008 2.008 0 0 0-.703.43 1.982 1.982 0 0 0-.44.633c-.105.24-.176.49-.21.747V332h-3.095v-14.256c0-.762-.17-1.348-.51-1.758-.34-.41-.878-.609-1.617-.597-.68 0-1.207.134-1.582.404s-.65.627-.826 1.072V332h-3.094v-19.02h2.918zm35.159 9.721c0 1.36-.164 2.628-.493 3.806-.328 1.178-.808 2.2-1.441 3.067a6.814 6.814 0 0 1-2.347 2.04c-.931.491-1.995.738-3.19.738-1.16 0-2.183-.188-3.067-.563a6.364 6.364 0 0 1-2.277-1.617v9.14h-3.252V312.98h2.97l.16 2.075a6.343 6.343 0 0 1 2.293-1.802c.897-.416 1.937-.624 3.12-.624 1.219 0 2.297.24 3.235.72a6.69 6.69 0 0 1 2.355 2.005c.633.855 1.113 1.877 1.441 3.067.329 1.19.493 2.493.493 3.911v.37zm-3.252-.369c0-.926-.103-1.808-.308-2.645-.205-.838-.521-1.577-.95-2.215a4.803 4.803 0 0 0-1.625-1.52c-.656-.376-1.442-.563-2.356-.563-1.043 0-1.919.243-2.628.73a5.424 5.424 0 0 0-1.696 1.871v9.158c.422.75.985 1.363 1.688 1.837.703.475 1.593.712 2.672.712.902 0 1.681-.19 2.337-.571a4.775 4.775 0 0 0 1.618-1.538c.422-.645.735-1.389.94-2.233.205-.843.308-1.728.308-2.654v-.369zm16.209 10.02c-1.336 0-2.564-.229-3.683-.686a8.356 8.356 0 0 1-2.874-1.916 8.765 8.765 0 0 1-1.863-2.918c-.446-1.125-.668-2.35-.668-3.674v-.738c0-1.535.246-2.91.738-4.122.492-1.213 1.146-2.238 1.96-3.076a8.551 8.551 0 0 1 2.777-1.925 8.012 8.012 0 0 1 3.19-.668c1.372 0 2.57.237 3.596.712a7.055 7.055 0 0 1 2.557 1.969c.68.837 1.187 1.825 1.52 2.961.335 1.137.502 2.368.502 3.692v1.459h-13.588a7.47 7.47 0 0 0 .5 2.443 6.347 6.347 0 0 0 1.231 1.995 5.685 5.685 0 0 0 1.872 1.345c.727.328 1.53.492 2.408.492 1.16 0 2.192-.234 3.094-.703a6.71 6.71 0 0 0 2.25-1.863l1.987 1.547c-.317.48-.712.94-1.187 1.38-.475.44-1.022.829-1.644 1.169a9.247 9.247 0 0 1-2.109.817c-.785.205-1.64.308-2.566.308zm-.422-17.051c-.656 0-1.278.12-1.863.36a4.862 4.862 0 0 0-1.583 1.055 6.014 6.014 0 0 0-1.186 1.705c-.322.674-.548 1.45-.677 2.329h10.23v-.246a7.261 7.261 0 0 0-.36-1.881 5.24 5.24 0 0 0-.905-1.67 4.53 4.53 0 0 0-1.503-1.195c-.603-.305-1.321-.457-2.153-.457zm25.086-2.672c.304 0 .62.009.949.026.328.018.642.047.94.088.3.041.575.091.827.15.252.058.46.123.624.193l-.44 3.182a17.331 17.331 0 0 0-1.802-.308 15.84 15.84 0 0 0-1.784-.097c-1.523 0-2.757.346-3.7 1.037-.943.692-1.638 1.659-2.083 2.9V332h-3.27v-19.02h3.094l.158 3.024a8.738 8.738 0 0 1 2.787-2.47c1.084-.603 2.317-.905 3.7-.905zm20.779 14.326c0-.387-.076-.735-.228-1.046-.153-.31-.41-.595-.774-.852-.363-.258-.844-.495-1.441-.712-.598-.217-1.342-.413-2.233-.59a22.505 22.505 0 0 1-2.98-.808c-.896-.316-1.663-.694-2.302-1.134-.639-.439-1.134-.955-1.485-1.546-.352-.592-.528-1.28-.528-2.066 0-.773.182-1.497.545-2.17a5.53 5.53 0 0 1 1.53-1.767c.656-.504 1.438-.903 2.346-1.196.908-.293 1.907-.44 2.997-.44 1.172 0 2.227.153 3.164.458.938.305 1.735.726 2.391 1.266a5.72 5.72 0 0 1 1.52 1.89 5.17 5.17 0 0 1 .537 2.328h-3.252c0-.41-.106-.811-.317-1.204a3.448 3.448 0 0 0-.879-1.046 4.512 4.512 0 0 0-1.362-.738c-.533-.187-1.134-.281-1.802-.281-.691 0-1.298.076-1.819.228-.522.153-.955.358-1.3.616a2.625 2.625 0 0 0-.783.896c-.176.34-.264.691-.264 1.055 0 .375.07.709.211 1.002.14.293.384.556.73.79.345.235.808.446 1.388.633.58.188 1.316.37 2.206.545 1.172.247 2.221.53 3.147.853.926.322 1.705.709 2.338 1.16.633.451 1.116.976 1.45 1.573.334.598.501 1.29.501 2.075 0 .843-.19 1.61-.571 2.302a5.394 5.394 0 0 1-1.591 1.776c-.68.492-1.494.873-2.443 1.142-.95.27-1.987.405-3.112.405-1.289 0-2.437-.173-3.445-.519-1.008-.346-1.86-.803-2.558-1.371a5.906 5.906 0 0 1-1.6-1.978 5.232 5.232 0 0 1-.553-2.338h3.252c.047.668.225 1.231.536 1.688.31.457.697.826 1.16 1.107.463.282.976.48 1.538.598a8.17 8.17 0 0 0 1.67.176c1.371 0 2.455-.252 3.252-.756.797-.504 1.201-1.172 1.213-2.004zM460.42 332a3.542 3.542 0 0 1-.308-.923c-.076-.369-.132-.753-.167-1.151a9.102 9.102 0 0 1-1.098.931c-.405.293-.85.551-1.336.774a8.234 8.234 0 0 1-1.556.527 7.696 7.696 0 0 1-1.758.194c-1.008 0-1.919-.147-2.733-.44-.815-.293-1.506-.688-2.074-1.186a5.173 5.173 0 0 1-1.319-1.776 5.325 5.325 0 0 1-.466-2.223c0-1.043.208-1.957.624-2.743a5.436 5.436 0 0 1 1.767-1.96c.762-.521 1.679-.91 2.751-1.169 1.072-.257 2.27-.386 3.595-.386h3.55v-1.494a3.65 3.65 0 0 0-.316-1.547 3.307 3.307 0 0 0-.896-1.17 4.12 4.12 0 0 0-1.415-.746 6.202 6.202 0 0 0-1.872-.264c-.645 0-1.222.082-1.732.246-.51.164-.94.381-1.292.65-.351.27-.624.59-.817.959a2.45 2.45 0 0 0-.29 1.15h-3.27c.012-.69.19-1.37.536-2.038.346-.668.844-1.269 1.494-1.802.65-.533 1.442-.964 2.374-1.292.931-.328 1.989-.492 3.172-.492 1.078 0 2.08.132 3.006.395.926.264 1.726.663 2.4 1.196a5.654 5.654 0 0 1 1.59 1.995c.387.797.58 1.728.58 2.795v8.842c0 .632.06 1.303.176 2.012.118.71.282 1.327.493 1.855V332h-3.393zm-5.748-2.479c.633 0 1.224-.082 1.775-.246a6.578 6.578 0 0 0 1.503-.65c.451-.27.841-.577 1.17-.923.327-.346.585-.706.773-1.08v-3.85h-3.024c-1.898 0-3.375.28-4.43.843-1.054.563-1.582 1.447-1.582 2.655 0 .468.08.902.238 1.3.158.399.395.742.712 1.029.316.287.714.512 1.195.676.48.164 1.037.246 1.67.246zm16.771-16.54l.229 2.812a7.553 7.553 0 0 1 2.549-2.312c1.008-.556 2.133-.84 3.375-.852.996 0 1.901.14 2.716.422.814.281 1.508.72 2.083 1.318.574.598 1.016 1.357 1.327 2.277.31.92.466 2.012.466 3.278V332h-3.252v-12.006c0-.844-.094-1.558-.282-2.144-.187-.586-.466-1.06-.835-1.424a3.262 3.262 0 0 0-1.353-.791c-.533-.164-1.146-.246-1.837-.246-1.09 0-2.048.272-2.874.817a6.028 6.028 0 0 0-1.978 2.153V332h-3.252v-19.02h2.918zm17.07 9.351c0-1.418.18-2.722.537-3.911.357-1.19.867-2.212 1.53-3.067a7.102 7.102 0 0 1 2.399-2.004c.937-.48 1.986-.721 3.146-.721 1.137 0 2.13.19 2.98.571.85.381 1.584.935 2.206 1.661V305h3.252v27h-2.989l-.14-2.004a6.22 6.22 0 0 1-2.268 1.758c-.879.398-1.904.598-3.076.598-1.149 0-2.189-.247-3.12-.739a7.15 7.15 0 0 1-2.382-2.039c-.656-.867-1.166-1.89-1.53-3.067-.363-1.178-.544-2.446-.544-3.806v-.369zm3.253.37c0 .925.1 1.804.298 2.636.2.832.507 1.564.923 2.197a4.645 4.645 0 0 0 1.591 1.503c.645.37 1.418.554 2.32.554.551 0 1.05-.065 1.495-.194a4.403 4.403 0 0 0 2.18-1.415c.28-.334.527-.706.738-1.116v-8.824a5.503 5.503 0 0 0-1.706-1.907c-.714-.498-1.605-.747-2.671-.747-.914 0-1.697.187-2.347.562a4.67 4.67 0 0 0-1.6 1.52c-.416.64-.723 1.378-.923 2.216-.199.837-.298 1.72-.298 2.645v.37zm23.785-15.786l-.37 6.504h-2.285l.018-6.223V305h2.637v1.916zm6.275 0l-.369 6.504h-2.268l.018-6.223V305h2.637l-.018 1.916z" fill="#39A7F1"/></g></g></svg>