<?xml version="1.0" encoding="UTF-8"?>
<svg width="234px" height="234px" viewBox="0 0 234 234" version="1.1" xmlns="http://www.w3.org/2000/svg" xmlns:xlink="http://www.w3.org/1999/xlink">
    <!-- Generator: Sketch 55.2 (78181) - https://sketchapp.com -->
    <title>next js</title>
    <desc>Created with Sketch.</desc>
    <defs>
        <circle id="path-1" cx="84" cy="84" r="84"></circle>
        <filter x="-33.3%" y="-27.4%" width="166.7%" height="166.7%" filterUnits="objectBoundingBox" id="filter-2">
            <feOffset dx="0" dy="10" in="SourceAlpha" result="shadowOffsetOuter1"></feOffset>
            <feGaussianBlur stdDeviation="17" in="shadowOffsetOuter1" result="shadowBlurOuter1"></feGaussianBlur>
            <feColorMatrix values="0 0 0 0 0   0 0 0 0 0   0 0 0 0 0  0 0 0 0.2 0" type="matrix" in="shadowBlurOuter1"></feColorMatrix>
        </filter>
    </defs>
    <g id="Page-1" stroke="none" stroke-width="1" fill="none" fill-rule="evenodd">
        <g id="next-js" transform="translate(33.000000, 23.000000)">
            <g id="Oval">
                <use fill="black" fill-opacity="1" filter="url(#filter-2)" xlink:href="#path-1"></use>
                <use fill="#FFFFFF" fill-rule="evenodd" xlink:href="#path-1"></use>
            </g>
            <path d="M52.0228181,66.2929999 L75.221746,66.2929999 L75.221746,68.1311093 L54.1493865,68.1311093 L54.1493865,81.9653013 L73.9651374,81.9653013 L73.9651374,83.8034105 L54.1493865,83.8034105 L54.1493865,98.9919989 L75.4634016,98.9919989 L75.4634016,100.830108 L52.0228181,100.830108 L52.0228181,66.2929999 Z M77.2999836,66.2929999 L79.7648695,66.2929999 L90.6876981,81.4815882 L101.852182,66.2929999 L117.037701,47 L92.0892999,83.077841 L104.945373,100.830108 L102.383825,100.830108 L90.6876981,84.674094 L78.9432408,100.830108 L76.4300238,100.830108 L89.3827584,83.077841 L77.2999836,66.2929999 Z M105.863664,68.1311092 L105.863664,66.2929999 L132.300775,66.2929999 L132.300775,68.1311093 L120.121338,68.1311093 L120.121338,100.830108 L117.99477,100.830108 L117.99477,68.1311093 L105.863664,68.1311092 Z M23,66.2929999 L25.6582105,66.2929999 L62.3133777,120.972222 L47.1655501,100.830108 L25.2232306,68.9050501 L25.1265684,100.830108 L23,100.830108 L23,66.2929999 Z M132.086515,98.4372968 C131.652042,98.4372968 131.326187,98.101713 131.326187,97.6680359 C131.326187,97.2343583 131.652042,96.8987745 132.086515,96.8987745 C132.526161,96.8987745 132.846843,97.2343583 132.846843,97.6680359 C132.846843,98.101713 132.526161,98.4372968 132.086515,98.4372968 Z M134.176124,96.4134684 L135.31403,96.4134684 C135.329547,97.0278449 135.779537,97.4408712 136.441591,97.4408712 C137.18123,97.4408712 137.600186,96.9968679 137.600186,96.1656527 L137.600186,90.8995691 L138.758781,90.8995691 L138.758781,96.1708157 C138.758781,97.6680359 137.889835,98.5302276 136.451936,98.5302276 C135.101966,98.5302276 134.176124,97.6938499 134.176124,96.4134684 Z M140.274265,96.3463521 L141.422515,96.3463521 C141.520789,97.0536594 142.213877,97.5028253 143.212131,97.5028253 C144.143145,97.5028253 144.825888,97.0226824 144.825888,96.3618403 C144.825888,95.7939296 144.391415,95.4531828 143.403506,95.2208554 L142.441458,94.9885285 C141.091488,94.6735957 140.475984,94.0230794 140.475984,92.9285603 C140.475984,91.6017135 141.562167,90.7188702 143.191442,90.7188702 C144.706925,90.7188702 145.813797,91.6017135 145.881037,92.8562805 L144.753476,92.8562805 C144.644858,92.1696247 144.044871,91.7411101 143.175925,91.7411101 C142.260428,91.7411101 141.650097,92.1799502 141.650097,92.851118 C141.650097,93.3828889 142.043191,93.6874957 143.015583,93.9146603 L143.837979,94.1160103 C145.36898,94.4722458 146,95.0917846 146,96.2121185 C146,97.6370589 144.893128,98.5302276 143.124202,98.5302276 C141.469066,98.5302276 140.357022,97.6783612 140.274265,96.3463521 Z" id="Shape" fill="#000000" fill-rule="nonzero"></path>
        </g>
    </g>
</svg>