<svg width="903" height="498" xmlns="http://www.w3.org/2000/svg"><g fill="none" fill-rule="evenodd"><rect fill="#07335C" width="903" height="498" rx="25"/><g fill-rule="nonzero"><path d="M55.398 65.38a6.772 6.772 0 0 1-2.373 2.19c-.949.52-2.045.782-3.287.782-.996 0-1.898-.156-2.707-.466a5.19 5.19 0 0 1-2.074-1.45c-.574-.657-1.017-1.492-1.327-2.505-.31-1.014-.466-2.23-.466-3.648V48.98h3.252v11.338c0 1.032.082 1.887.246 2.567.164.68.41 1.221.738 1.626.329.404.73.688 1.204.852.475.164 1.023.246 1.644.246 1.324 0 2.394-.27 3.208-.808a4.906 4.906 0 0 0 1.82-2.18v-13.64h3.269V68h-2.953l-.194-2.62zm24.313-6.679c0 1.36-.164 2.628-.492 3.806-.328 1.178-.809 2.2-1.442 3.067a6.814 6.814 0 0 1-2.346 2.04c-.932.491-1.995.738-3.19.738-1.16 0-2.183-.188-3.068-.563a6.364 6.364 0 0 1-2.277-1.617v9.14h-3.251V48.98h2.97l.158 2.075a6.343 6.343 0 0 1 2.294-1.802c.897-.416 1.937-.624 3.12-.624 1.22 0 2.297.24 3.235.72a6.69 6.69 0 0 1 2.355 2.005c.633.855 1.114 1.877 1.442 3.067.328 1.19.492 2.493.492 3.911v.37zm-3.252-.369c0-.926-.103-1.808-.308-2.645-.205-.838-.521-1.577-.949-2.215a4.803 4.803 0 0 0-1.626-1.52c-.656-.376-1.441-.563-2.355-.563-1.043 0-1.92.243-2.628.73a5.424 5.424 0 0 0-1.697 1.871v9.158c.422.75.985 1.363 1.688 1.837.703.475 1.594.712 2.672.712.902 0 1.681-.19 2.338-.571a4.775 4.775 0 0 0 1.617-1.538c.422-.645.735-1.389.94-2.233.205-.843.308-1.728.308-2.654v-.369zM84.775 41h9.721v24.187h6.205V68H84.775v-2.813h6.47V43.83h-6.47V41zm19.18 17.314c0-1.37.2-2.645.598-3.823.398-1.178.97-2.2 1.714-3.067a7.981 7.981 0 0 1 2.715-2.048c1.067-.498 2.268-.747 3.604-.747 1.348 0 2.558.249 3.63.747a7.959 7.959 0 0 1 2.724 2.048c.745.867 1.316 1.89 1.714 3.067.399 1.178.598 2.452.598 3.823v.387c0 1.371-.2 2.643-.598 3.815-.398 1.172-.97 2.191-1.714 3.058a7.884 7.884 0 0 1-2.715 2.04c-1.067.491-2.268.738-3.604.738-1.348 0-2.558-.247-3.63-.739a7.863 7.863 0 0 1-2.724-2.039c-.745-.867-1.316-1.886-1.714-3.058-.399-1.172-.598-2.444-.598-3.815v-.387zm3.252.387c0 .938.111 1.831.334 2.68.223.85.56 1.598 1.01 2.242a4.989 4.989 0 0 0 1.697 1.53c.68.374 1.47.562 2.373.562.89 0 1.673-.188 2.347-.563a5.016 5.016 0 0 0 1.687-1.529 6.935 6.935 0 0 0 1.011-2.241c.223-.85.334-1.743.334-2.68v-.388c0-.925-.114-1.813-.343-2.663a7.075 7.075 0 0 0-1.02-2.24 5.104 5.104 0 0 0-1.687-1.539c-.674-.38-1.462-.571-2.364-.571-.902 0-1.688.19-2.356.571a5.133 5.133 0 0 0-1.678 1.538 6.935 6.935 0 0 0-1.011 2.241c-.223.85-.334 1.738-.334 2.663v.387zM137.971 68a3.542 3.542 0 0 1-.308-.923c-.076-.369-.132-.753-.167-1.151a9.102 9.102 0 0 1-1.099.931c-.404.293-.85.551-1.335.774a8.234 8.234 0 0 1-1.556.527 7.696 7.696 0 0 1-1.758.194c-1.008 0-1.919-.147-2.733-.44-.815-.293-1.506-.688-2.075-1.186a5.173 5.173 0 0 1-1.318-1.776 5.325 5.325 0 0 1-.466-2.223c0-1.043.208-1.957.624-2.743a5.436 5.436 0 0 1 1.767-1.96c.762-.521 1.679-.91 2.75-1.169 1.073-.257 2.271-.386 3.596-.386h3.55v-1.494a3.65 3.65 0 0 0-.316-1.547 3.307 3.307 0 0 0-.897-1.17 4.12 4.12 0 0 0-1.415-.746 6.202 6.202 0 0 0-1.872-.264c-.644 0-1.221.082-1.731.246-.51.164-.94.381-1.292.65-.352.27-.624.59-.817.959a2.45 2.45 0 0 0-.29 1.15h-3.27c.012-.69.19-1.37.536-2.038.346-.668.844-1.269 1.494-1.802.65-.533 1.442-.964 2.373-1.292.932-.328 1.99-.492 3.173-.492 1.078 0 2.08.132 3.006.395.926.264 1.726.663 2.4 1.196a5.654 5.654 0 0 1 1.59 1.995c.387.797.58 1.728.58 2.795v8.842c0 .632.059 1.303.176 2.012.117.71.281 1.327.492 1.855V68h-3.392zm-5.748-2.479c.632 0 1.224-.082 1.775-.246a6.578 6.578 0 0 0 1.503-.65c.451-.27.84-.577 1.169-.923.328-.346.586-.706.773-1.08v-3.85h-3.023c-1.899 0-3.375.28-4.43.843-1.054.563-1.582 1.447-1.582 2.655 0 .468.08.902.238 1.3.158.399.395.742.711 1.029.317.287.715.512 1.196.676.48.164 1.037.246 1.67.246zm13.238-7.189c0-1.418.179-2.722.536-3.911.357-1.19.867-2.212 1.53-3.067a7.102 7.102 0 0 1 2.399-2.004c.937-.48 1.986-.721 3.146-.721 1.137 0 2.13.19 2.98.571.85.381 1.585.935 2.206 1.661V41h3.252v27h-2.989l-.14-2.004a6.22 6.22 0 0 1-2.268 1.758c-.879.398-1.904.598-3.076.598-1.148 0-2.188-.247-3.12-.739a7.15 7.15 0 0 1-2.382-2.039c-.656-.867-1.166-1.89-1.53-3.067-.362-1.178-.544-2.446-.544-3.806v-.369zm3.252.37c0 .925.1 1.804.299 2.636.199.832.507 1.564.923 2.197a4.645 4.645 0 0 0 1.59 1.503c.645.37 1.418.554 2.32.554.551 0 1.05-.065 1.495-.194a4.403 4.403 0 0 0 2.18-1.415c.28-.334.527-.706.738-1.116v-8.824a5.503 5.503 0 0 0-1.705-1.907c-.715-.498-1.606-.747-2.672-.747-.914 0-1.696.187-2.347.562a4.67 4.67 0 0 0-1.6 1.52c-.415.64-.723 1.378-.922 2.216-.2.837-.3 1.72-.3 2.645v.37zM166.346 68V42.406h5.924c1.78.024 3.372.325 4.772.906 1.4.58 2.584 1.388 3.55 2.425.968 1.037 1.706 2.28 2.216 3.727.51 1.447.77 3.05.782 4.807v1.881c-.012 1.758-.273 3.36-.782 4.808-.51 1.447-1.248 2.69-2.215 3.727-.967 1.037-2.15 1.845-3.551 2.425-1.4.58-2.991.876-4.772.888h-5.924zm3.304-22.922v20.268h2.62c1.382-.012 2.578-.255 3.585-.73a6.994 6.994 0 0 0 2.505-1.942c.662-.82 1.155-1.787 1.477-2.9.322-1.114.49-2.32.5-3.622v-1.916c-.01-1.3-.18-2.505-.509-3.612-.328-1.107-.82-2.068-1.476-2.883-.657-.814-1.489-1.456-2.497-1.925-1.007-.468-2.203-.714-3.585-.738h-2.62zm18.143 3.902h9.72v16.208h6.206V68h-15.926v-2.813h6.469V51.812h-6.469v-2.83zm6.047-4.992c0-.539.161-.993.483-1.362.323-.37.812-.554 1.468-.554.645 0 1.13.185 1.459.554.328.37.492.823.492 1.362 0 .528-.164.967-.492 1.319-.328.351-.814.527-1.459.527-.656 0-1.145-.176-1.468-.527-.322-.352-.483-.791-.483-1.319zm26.51 4.64c.304 0 .62.01.949.027.328.018.641.047.94.088.3.041.574.091.826.15.252.058.46.123.624.193l-.439 3.182a17.331 17.331 0 0 0-1.802-.308 15.84 15.84 0 0 0-1.784-.097c-1.523 0-2.757.346-3.7 1.037-.943.692-1.638 1.659-2.083 2.9V68h-3.27V48.98h3.094l.158 3.024a8.738 8.738 0 0 1 2.786-2.47c1.084-.603 2.318-.905 3.7-.905zm14.68 17.263c0-.352.055-.68.166-.985.112-.304.273-.571.484-.8.21-.228.474-.407.79-.536a2.921 2.921 0 0 1 1.108-.193c.422 0 .794.064 1.116.193.323.13.592.308.809.536.217.229.38.496.492.8.111.305.167.633.167.985 0 .34-.056.659-.167.958-.111.298-.275.56-.492.782a2.21 2.21 0 0 1-.809.518 3.117 3.117 0 0 1-1.116.185c-.422 0-.79-.062-1.107-.185a2.138 2.138 0 0 1-.791-.518 2.282 2.282 0 0 1-.484-.782 2.722 2.722 0 0 1-.167-.958zm0-15.399c0-.351.055-.68.166-.984.112-.305.273-.571.484-.8.21-.229.474-.407.79-.536a2.921 2.921 0 0 1 1.108-.193c.422 0 .794.064 1.116.193.323.129.592.307.809.536.217.229.38.495.492.8.111.305.167.633.167.984 0 .34-.056.66-.167.958-.111.299-.275.56-.492.782a2.21 2.21 0 0 1-.809.519 3.117 3.117 0 0 1-1.116.185c-.422 0-.79-.062-1.107-.185a2.138 2.138 0 0 1-.791-.519 2.282 2.282 0 0 1-.484-.782 2.722 2.722 0 0 1-.167-.958z" fill="#47EBB4"/><path d="M270.207 48.98h9.72v16.208h6.206V68h-15.926v-2.813h6.469V51.812h-6.469v-2.83zm6.047-4.992c0-.539.161-.993.483-1.362.323-.37.812-.554 1.468-.554.645 0 1.13.185 1.46.554.327.37.491.823.491 1.362 0 .528-.164.967-.492 1.319-.328.351-.814.527-1.459.527-.656 0-1.145-.176-1.468-.527-.322-.352-.483-.791-.483-1.319zm15.54 4.992l.089 1.793a4.284 4.284 0 0 1 1.52-1.564c.627-.375 1.386-.568 2.277-.58 1.746 0 2.912.68 3.498 2.039.375-.61.87-1.099 1.485-1.468.615-.369 1.362-.56 2.241-.571 1.395 0 2.467.428 3.217 1.283.75.856 1.125 2.15 1.125 3.885V68h-3.094V53.762c0-1.594-.732-2.385-2.197-2.373-.387 0-.72.052-1.002.158a2.008 2.008 0 0 0-.703.43 1.982 1.982 0 0 0-.44.633c-.105.24-.175.49-.21.747V68h-3.094V53.744c0-.762-.17-1.348-.51-1.758-.34-.41-.879-.609-1.617-.597-.68 0-1.207.134-1.582.404s-.65.627-.826 1.072V68h-3.094V48.98h2.918zM323.403 68a3.542 3.542 0 0 1-.307-.923c-.076-.369-.132-.753-.167-1.151a9.102 9.102 0 0 1-1.099.931c-.404.293-.85.551-1.336.774a8.234 8.234 0 0 1-1.555.527 7.696 7.696 0 0 1-1.758.194c-1.008 0-1.92-.147-2.734-.44-.814-.293-1.506-.688-2.074-1.186a5.173 5.173 0 0 1-1.318-1.776 5.325 5.325 0 0 1-.466-2.223c0-1.043.208-1.957.624-2.743a5.436 5.436 0 0 1 1.767-1.96c.761-.521 1.678-.91 2.75-1.169 1.073-.257 2.271-.386 3.595-.386h3.551v-1.494a3.65 3.65 0 0 0-.316-1.547 3.307 3.307 0 0 0-.897-1.17 4.12 4.12 0 0 0-1.415-.746 6.202 6.202 0 0 0-1.872-.264c-.645 0-1.222.082-1.731.246-.51.164-.94.381-1.292.65-.352.27-.624.59-.818.959a2.45 2.45 0 0 0-.29 1.15h-3.27c.012-.69.191-1.37.537-2.038.345-.668.843-1.269 1.494-1.802.65-.533 1.441-.964 2.373-1.292.932-.328 1.99-.492 3.173-.492 1.078 0 2.08.132 3.006.395.925.264 1.725.663 2.4 1.196a5.654 5.654 0 0 1 1.59 1.995c.387.797.58 1.728.58 2.795v8.842c0 .632.059 1.303.176 2.012.117.71.281 1.327.492 1.855V68h-3.393zm-5.748-2.479c.633 0 1.225-.082 1.776-.246a6.578 6.578 0 0 0 1.503-.65c.45-.27.84-.577 1.169-.923.328-.346.585-.706.773-1.08v-3.85h-3.023c-1.899 0-3.375.28-4.43.843-1.055.563-1.582 1.447-1.582 2.655 0 .468.079.902.237 1.3.158.399.396.742.712 1.029.316.287.715.512 1.195.676.48.164 1.037.246 1.67.246zm13.256-7.189c0-1.418.173-2.722.519-3.911.345-1.19.846-2.212 1.503-3.067a7.017 7.017 0 0 1 2.39-2.004c.938-.48 1.998-.721 3.182-.721 1.172 0 2.2.208 3.085.624a6.228 6.228 0 0 1 2.259 1.802l.158-2.075h2.953v18.616c0 1.254-.196 2.367-.589 3.34a7.025 7.025 0 0 1-1.652 2.478 7.04 7.04 0 0 1-2.54 1.547c-.985.352-2.074.527-3.27.527a9.862 9.862 0 0 1-1.687-.167 10.24 10.24 0 0 1-1.925-.545 8.873 8.873 0 0 1-1.881-1.01 6.266 6.266 0 0 1-1.556-1.565l1.688-1.951c.398.48.808.888 1.23 1.222.422.334.85.6 1.284.8.433.199.867.342 1.3.43.434.088.868.132 1.301.132.774 0 1.47-.111 2.092-.334a4.352 4.352 0 0 0 1.59-.976c.44-.427.777-.958 1.011-1.59.235-.633.352-1.36.352-2.18v-1.635a6.346 6.346 0 0 1-2.241 1.661c-.862.381-1.86.572-2.997.572-1.16 0-2.21-.247-3.147-.739a7.037 7.037 0 0 1-2.382-2.039c-.65-.867-1.15-1.89-1.502-3.067-.352-1.178-.528-2.446-.528-3.806v-.369zm3.252.37c0 .925.097 1.804.29 2.636.194.832.498 1.564.914 2.197a4.645 4.645 0 0 0 1.591 1.503c.645.37 1.418.554 2.32.554.563 0 1.07-.068 1.52-.202a4.284 4.284 0 0 0 1.214-.572c.357-.246.676-.539.958-.879.281-.34.527-.714.738-1.125v-8.718a5.933 5.933 0 0 0-.738-1.09 4.631 4.631 0 0 0-.967-.853 4.6 4.6 0 0 0-1.213-.562 5.083 5.083 0 0 0-1.476-.202c-.915 0-1.697.187-2.347.562a4.67 4.67 0 0 0-1.6 1.52c-.416.64-.72 1.378-.914 2.216-.193.837-.29 1.72-.29 2.645v.37zm26.352 9.65c-1.336 0-2.564-.229-3.683-.686a8.356 8.356 0 0 1-2.874-1.916 8.765 8.765 0 0 1-1.863-2.918c-.446-1.125-.668-2.35-.668-3.674v-.738c0-1.535.246-2.91.738-4.122.492-1.213 1.146-2.238 1.96-3.076a8.551 8.551 0 0 1 2.777-1.925 8.012 8.012 0 0 1 3.19-.668c1.372 0 2.57.237 3.596.712a7.055 7.055 0 0 1 2.557 1.969c.68.837 1.187 1.825 1.52 2.961.335 1.137.502 2.368.502 3.692v1.459h-13.588a7.47 7.47 0 0 0 .5 2.443 6.347 6.347 0 0 0 1.231 1.995 5.685 5.685 0 0 0 1.872 1.345c.727.328 1.53.492 2.408.492 1.16 0 2.192-.234 3.094-.703a6.71 6.71 0 0 0 2.25-1.863l1.987 1.547c-.317.48-.712.94-1.187 1.38-.475.44-1.022.829-1.644 1.169a9.248 9.248 0 0 1-2.109.817c-.785.205-1.64.308-2.566.308zm-.422-17.051c-.656 0-1.278.12-1.863.36a4.862 4.862 0 0 0-1.583 1.055 6.014 6.014 0 0 0-1.186 1.705c-.322.674-.548 1.45-.677 2.329h10.23v-.246a7.261 7.261 0 0 0-.36-1.881 5.24 5.24 0 0 0-.905-1.67 4.53 4.53 0 0 0-1.503-1.195c-.603-.305-1.321-.457-2.153-.457zm25.262 11.654c0-.387-.077-.735-.229-1.046-.152-.31-.41-.595-.773-.852-.364-.258-.844-.495-1.442-.712-.598-.217-1.342-.413-2.232-.59a22.505 22.505 0 0 1-2.98-.808c-.896-.316-1.664-.694-2.302-1.134-.64-.439-1.134-.955-1.486-1.546-.351-.592-.527-1.28-.527-2.066 0-.773.181-1.497.545-2.17a5.53 5.53 0 0 1 1.529-1.767c.656-.504 1.439-.903 2.347-1.196.908-.293 1.907-.44 2.997-.44 1.172 0 2.226.153 3.164.458.937.305 1.734.726 2.39 1.266a5.72 5.72 0 0 1 1.521 1.89 5.17 5.17 0 0 1 .536 2.328h-3.252c0-.41-.105-.811-.316-1.204a3.448 3.448 0 0 0-.88-1.046 4.512 4.512 0 0 0-1.361-.738c-.534-.187-1.134-.281-1.802-.281-.692 0-1.298.076-1.82.228-.521.153-.955.358-1.3.616a2.625 2.625 0 0 0-.783.896c-.175.34-.263.691-.263 1.055 0 .375.07.709.21 1.002.141.293.384.556.73.79.346.235.809.446 1.389.633.58.188 1.315.37 2.206.545 1.172.247 2.22.53 3.146.853.926.322 1.705.709 2.338 1.16.633.451 1.117.976 1.45 1.573.334.598.501 1.29.501 2.075 0 .843-.19 1.61-.57 2.302a5.394 5.394 0 0 1-1.592 1.776c-.68.492-1.494.873-2.443 1.142-.95.27-1.986.405-3.111.405-1.29 0-2.438-.173-3.446-.519-1.007-.346-1.86-.803-2.557-1.371a5.906 5.906 0 0 1-1.6-1.978 5.232 5.232 0 0 1-.554-2.338h3.252c.047.668.226 1.231.537 1.688.31.457.697.826 1.16 1.107.463.282.975.48 1.538.598a8.17 8.17 0 0 0 1.67.176c1.37 0 2.455-.252 3.252-.756.797-.504 1.2-1.172 1.213-2.004z" fill="#3EB0FD"/><path d="M44.553 96.98l.088 1.793a4.284 4.284 0 0 1 1.52-1.564c.627-.375 1.386-.568 2.277-.58 1.746 0 2.912.68 3.498 2.039.375-.61.87-1.099 1.485-1.468.615-.369 1.362-.56 2.241-.571 1.395 0 2.467.428 3.217 1.283.75.856 1.125 2.15 1.125 3.885V116H56.91v-14.238c0-1.594-.732-2.385-2.197-2.373-.387 0-.72.052-1.002.158a2.008 2.008 0 0 0-.703.43 1.982 1.982 0 0 0-.44.633c-.105.24-.175.49-.21.747V116h-3.094v-14.256c0-.762-.17-1.348-.51-1.758-.34-.41-.879-.609-1.617-.597-.68 0-1.207.134-1.582.404s-.65.627-.826 1.072V116h-3.094V96.98h2.918zm18.195 9.334c0-1.37.2-2.645.598-3.823.398-1.178.97-2.2 1.714-3.067a7.981 7.981 0 0 1 2.715-2.048c1.067-.498 2.268-.747 3.604-.747 1.348 0 2.558.249 3.63.747a7.959 7.959 0 0 1 2.724 2.048c.745.867 1.316 1.89 1.714 3.067.399 1.178.598 2.452.598 3.823v.387c0 1.371-.2 2.643-.598 3.815-.398 1.172-.97 2.191-1.714 3.058a7.884 7.884 0 0 1-2.715 2.04c-1.067.491-2.268.738-3.604.738-1.348 0-2.558-.247-3.63-.739a7.863 7.863 0 0 1-2.724-2.039c-.745-.867-1.316-1.886-1.714-3.058-.399-1.172-.598-2.444-.598-3.815v-.387zm3.252.387c0 .938.111 1.831.334 2.68.223.85.56 1.598 1.01 2.242a4.989 4.989 0 0 0 1.697 1.53c.68.374 1.47.562 2.373.562.89 0 1.673-.188 2.347-.563a5.016 5.016 0 0 0 1.687-1.529 6.935 6.935 0 0 0 1.011-2.241c.223-.85.334-1.743.334-2.68v-.388c0-.925-.114-1.813-.343-2.663a7.075 7.075 0 0 0-1.02-2.24 5.104 5.104 0 0 0-1.687-1.539c-.674-.38-1.462-.571-2.364-.571-.902 0-1.688.19-2.356.571a5.133 5.133 0 0 0-1.678 1.538 6.935 6.935 0 0 0-1.011 2.241c-.223.85-.334 1.738-.334 2.663v.387zm17.65-.369c0-1.418.18-2.722.537-3.911.357-1.19.867-2.212 1.529-3.067a7.102 7.102 0 0 1 2.4-2.004c.937-.48 1.986-.721 3.146-.721 1.136 0 2.13.19 2.98.571.849.381 1.584.935 2.205 1.661V89H99.7v27h-2.988l-.14-2.004a6.22 6.22 0 0 1-2.268 1.758c-.88.398-1.905.598-3.076.598-1.149 0-2.189-.247-3.12-.739a7.15 7.15 0 0 1-2.382-2.039c-.657-.867-1.166-1.89-1.53-3.067-.363-1.178-.545-2.446-.545-3.806v-.369zm3.252.37c0 .925.1 1.804.3 2.636.198.832.506 1.564.922 2.197a4.645 4.645 0 0 0 1.59 1.503c.645.37 1.419.554 2.321.554.55 0 1.049-.065 1.494-.194a4.403 4.403 0 0 0 2.18-1.415c.281-.334.527-.706.738-1.116v-8.824a5.503 5.503 0 0 0-1.705-1.907c-.715-.498-1.605-.747-2.672-.747-.914 0-1.696.187-2.346.562a4.67 4.67 0 0 0-1.6 1.52c-.416.64-.724 1.378-.923 2.216-.199.837-.299 1.72-.299 2.645v.37zm26.37 9.65c-1.336 0-2.564-.229-3.683-.686a8.356 8.356 0 0 1-2.874-1.916 8.765 8.765 0 0 1-1.863-2.918c-.446-1.125-.668-2.35-.668-3.674v-.738c0-1.535.246-2.91.738-4.122.492-1.213 1.145-2.238 1.96-3.076a8.551 8.551 0 0 1 2.777-1.925 8.012 8.012 0 0 1 3.19-.668c1.372 0 2.57.237 3.595.712a7.055 7.055 0 0 1 2.558 1.969c.68.837 1.186 1.825 1.52 2.961.334 1.137.501 2.368.501 3.692v1.459h-13.587a7.47 7.47 0 0 0 .5 2.443 6.347 6.347 0 0 0 1.231 1.995 5.685 5.685 0 0 0 1.872 1.345c.727.328 1.53.492 2.408.492 1.16 0 2.192-.234 3.094-.703a6.71 6.71 0 0 0 2.25-1.863l1.986 1.547c-.316.48-.712.94-1.186 1.38-.475.44-1.023.829-1.644 1.169a9.248 9.248 0 0 1-2.11.817c-.784.205-1.64.308-2.566.308zM112.85 99.3c-.657 0-1.278.12-1.864.36a4.862 4.862 0 0 0-1.582 1.055 6.014 6.014 0 0 0-1.186 1.705c-.322.674-.548 1.45-.677 2.329h10.23v-.246a7.261 7.261 0 0 0-.36-1.881 5.24 5.24 0 0 0-.905-1.67 4.53 4.53 0 0 0-1.503-1.195c-.604-.305-1.321-.457-2.153-.457zM125.982 89h9.721v24.188h6.205V116h-15.926v-2.813h6.47V91.83h-6.47V89zm32.733 21.955c0-.387-.076-.735-.229-1.046-.152-.31-.41-.595-.773-.852-.363-.258-.844-.495-1.442-.712-.597-.217-1.341-.413-2.232-.59a22.505 22.505 0 0 1-2.98-.808c-.896-.316-1.663-.694-2.302-1.134-.639-.439-1.134-.955-1.486-1.546-.351-.592-.527-1.28-.527-2.066 0-.773.182-1.497.545-2.17a5.53 5.53 0 0 1 1.53-1.767c.656-.504 1.438-.903 2.346-1.196.908-.293 1.907-.44 2.997-.44 1.172 0 2.227.153 3.164.458.938.305 1.735.726 2.39 1.266a5.72 5.72 0 0 1 1.521 1.89 5.17 5.17 0 0 1 .536 2.328h-3.252c0-.41-.105-.811-.316-1.204a3.448 3.448 0 0 0-.879-1.046 4.512 4.512 0 0 0-1.362-.738c-.533-.187-1.134-.281-1.802-.281-.691 0-1.298.076-1.82.228-.52.153-.954.358-1.3.616a2.625 2.625 0 0 0-.782.896c-.176.34-.264.691-.264 1.055 0 .375.07.709.211 1.002.14.293.384.556.73.79.345.235.808.446 1.388.633.58.188 1.316.37 2.206.545 1.172.247 2.22.53 3.147.853.926.322 1.705.709 2.338 1.16.632.451 1.116.976 1.45 1.573.334.598.5 1.29.5 2.075 0 .843-.19 1.61-.57 2.302a5.394 5.394 0 0 1-1.591 1.776c-.68.492-1.494.873-2.444 1.142-.949.27-1.986.405-3.111.405-1.29 0-2.437-.173-3.445-.519-1.008-.346-1.86-.803-2.558-1.371a5.906 5.906 0 0 1-1.6-1.978 5.232 5.232 0 0 1-.553-2.338h3.252c.047.668.225 1.231.536 1.688.31.457.697.826 1.16 1.107.463.282.976.48 1.538.598a8.17 8.17 0 0 0 1.67.176c1.371 0 2.455-.252 3.252-.756.797-.504 1.201-1.172 1.213-2.004zm14.504 2.936c0-.352.055-.68.167-.985.111-.304.272-.571.483-.8.211-.228.475-.407.791-.536a2.921 2.921 0 0 1 1.108-.193c.421 0 .794.064 1.116.193.322.13.592.308.808.536.217.229.381.496.493.8.11.305.167.633.167.985 0 .34-.056.659-.167.958-.112.298-.276.56-.493.782a2.21 2.21 0 0 1-.808.518 3.117 3.117 0 0 1-1.116.185c-.422 0-.791-.062-1.108-.185a2.138 2.138 0 0 1-.79-.518 2.282 2.282 0 0 1-.484-.782 2.722 2.722 0 0 1-.167-.958zm0-15.399c0-.351.055-.68.167-.984.111-.305.272-.571.483-.8.211-.229.475-.407.791-.536a2.921 2.921 0 0 1 1.108-.193c.421 0 .794.064 1.116.193.322.129.592.307.808.536.217.229.381.495.493.8.11.305.167.633.167.984 0 .34-.056.66-.167.958-.112.299-.276.56-.493.782a2.21 2.21 0 0 1-.808.519 3.117 3.117 0 0 1-1.116.185c-.422 0-.791-.062-1.108-.185a2.138 2.138 0 0 1-.79-.519 2.282 2.282 0 0 1-.484-.782 2.722 2.722 0 0 1-.167-.958zm-80.85 63.223c.586 0 1.157-.094 1.714-.281a5.058 5.058 0 0 0 1.485-.783 4.075 4.075 0 0 0 1.046-1.177c.264-.452.402-.94.413-1.468h3.077a5.043 5.043 0 0 1-.66 2.417 6.944 6.944 0 0 1-1.714 2.021 8.702 8.702 0 0 1-2.46 1.389 8.223 8.223 0 0 1-2.9.519c-1.442 0-2.702-.258-3.78-.774a7.818 7.818 0 0 1-2.698-2.083 8.96 8.96 0 0 1-1.626-3.023 11.85 11.85 0 0 1-.545-3.613v-.738c0-1.254.181-2.455.545-3.603a8.946 8.946 0 0 1 1.626-3.033 7.818 7.818 0 0 1 2.698-2.083c1.078-.515 2.338-.773 3.78-.773 1.124 0 2.158.179 3.102.536.943.357 1.757.844 2.443 1.459a6.608 6.608 0 0 1 1.608 2.188 6.42 6.42 0 0 1 .58 2.708h-3.076a3.96 3.96 0 0 0-.378-1.626 4.425 4.425 0 0 0-.975-1.345c-.41-.387-.9-.692-1.468-.914a4.991 4.991 0 0 0-1.837-.334c-1.008 0-1.854.202-2.54.606a4.939 4.939 0 0 0-1.661 1.582 6.67 6.67 0 0 0-.905 2.189 11.115 11.115 0 0 0-.273 2.443v.738c0 .832.091 1.656.273 2.47.181.815.48 1.547.896 2.197.416.65.967 1.178 1.653 1.582.685.405 1.538.607 2.557.607zm11.586-7.4c0-1.372.2-2.646.598-3.824.398-1.178.97-2.2 1.714-3.067a7.981 7.981 0 0 1 2.715-2.048c1.067-.498 2.268-.747 3.604-.747 1.348 0 2.558.249 3.63.747a7.959 7.959 0 0 1 2.724 2.048c.745.867 1.316 1.89 1.714 3.067.399 1.178.598 2.452.598 3.823v.387c0 1.371-.2 2.643-.598 3.815-.398 1.172-.97 2.191-1.714 3.058a7.884 7.884 0 0 1-2.715 2.04c-1.067.491-2.268.738-3.604.738-1.348 0-2.558-.247-3.63-.739a7.863 7.863 0 0 1-2.724-2.039c-.745-.867-1.316-1.886-1.714-3.058-.399-1.172-.598-2.444-.598-3.815v-.387zm3.252.386c0 .938.111 1.831.334 2.68.223.85.56 1.598 1.01 2.242a4.989 4.989 0 0 0 1.697 1.53c.68.374 1.47.562 2.373.562.89 0 1.673-.188 2.347-.563a5.016 5.016 0 0 0 1.687-1.529 6.935 6.935 0 0 0 1.011-2.241c.223-.85.334-1.743.334-2.68v-.388c0-.925-.114-1.813-.343-2.663a7.075 7.075 0 0 0-1.02-2.24 5.104 5.104 0 0 0-1.687-1.539c-.674-.38-1.462-.571-2.364-.571-.902 0-1.688.19-2.356.571a5.133 5.133 0 0 0-1.678 1.538 6.935 6.935 0 0 0-1.011 2.241c-.223.85-.334 1.738-.334 2.663v.387zm21.184-9.72l.228 2.812a7.553 7.553 0 0 1 2.549-2.312c1.008-.556 2.133-.84 3.375-.852.996 0 1.901.14 2.716.422.814.281 1.509.72 2.083 1.318.574.598 1.016 1.357 1.327 2.277.31.92.466 2.012.466 3.278V164h-3.252v-12.006c0-.844-.094-1.558-.281-2.144-.188-.586-.466-1.06-.835-1.424a3.262 3.262 0 0 0-1.354-.791c-.533-.164-1.145-.246-1.837-.246-1.09 0-2.048.272-2.874.817a6.028 6.028 0 0 0-1.977 2.153V164h-3.252v-19.02h2.918zM150.928 164v-16.506h-5.239v-2.514h5.239v-1.335c0-1.22.178-2.289.536-3.208.357-.92.861-1.69 1.512-2.312a6.358 6.358 0 0 1 2.346-1.406c.914-.317 1.934-.475 3.059-.475.773 0 1.526.065 2.259.194.732.128 1.485.292 2.258.492l-.386 2.69c-.48-.165-1.04-.308-1.679-.432a10.82 10.82 0 0 0-2.048-.184c-1.523.012-2.669.398-3.436 1.16-.768.762-1.152 1.922-1.152 3.48v1.336h7.33v2.514h-7.33V164h-3.27zm16.279-19.02h9.72v16.208h6.206V164h-15.926v-2.812h6.469V147.81h-6.469v-2.83zm6.047-4.992c0-.539.161-.993.483-1.362.323-.37.812-.554 1.468-.554.645 0 1.13.185 1.46.554.327.37.491.823.491 1.362 0 .528-.164.967-.492 1.319-.328.351-.814.527-1.459.527-.656 0-1.145-.176-1.468-.527-.322-.352-.483-.791-.483-1.319zm13.45 14.344c0-1.418.172-2.722.518-3.911.345-1.19.846-2.212 1.503-3.067a7.017 7.017 0 0 1 2.39-2.004c.938-.48 1.998-.721 3.182-.721 1.172 0 2.2.208 3.085.624a6.228 6.228 0 0 1 2.259 1.802l.158-2.075h2.953v18.616c0 1.254-.196 2.367-.589 3.34a7.025 7.025 0 0 1-1.652 2.478 7.04 7.04 0 0 1-2.54 1.547c-.985.352-2.075.527-3.27.527a9.862 9.862 0 0 1-1.687-.167 10.24 10.24 0 0 1-1.925-.545 8.873 8.873 0 0 1-1.881-1.01 6.266 6.266 0 0 1-1.556-1.565l1.688-1.951c.398.48.808.888 1.23 1.222.422.334.85.6 1.284.8.433.199.867.342 1.3.43.434.088.867.132 1.301.132.774 0 1.47-.111 2.092-.334a4.352 4.352 0 0 0 1.59-.976c.44-.427.777-.958 1.011-1.59.235-.633.352-1.36.352-2.18v-1.635a6.346 6.346 0 0 1-2.241 1.661c-.862.381-1.86.572-2.997.572-1.16 0-2.21-.247-3.147-.739a7.037 7.037 0 0 1-2.382-2.039c-.65-.867-1.151-1.89-1.503-3.067-.351-1.178-.527-2.446-.527-3.806v-.369zm3.251.37c0 .925.097 1.804.29 2.636.193.832.498 1.564.914 2.197a4.645 4.645 0 0 0 1.591 1.503c.645.37 1.418.554 2.32.554.563 0 1.07-.068 1.52-.202a4.284 4.284 0 0 0 1.214-.572c.357-.246.676-.539.958-.879.281-.34.527-.714.738-1.125v-8.718a5.933 5.933 0 0 0-.738-1.09 4.631 4.631 0 0 0-.967-.853 4.6 4.6 0 0 0-1.213-.562 5.083 5.083 0 0 0-1.477-.202c-.914 0-1.696.187-2.346.562a4.67 4.67 0 0 0-1.6 1.52c-.416.64-.72 1.378-.914 2.216-.193.837-.29 1.72-.29 2.645v.37zm24.488 7.189c0-.352.056-.68.167-.985.112-.304.273-.571.484-.8.21-.228.474-.407.79-.536a2.921 2.921 0 0 1 1.108-.193c.422 0 .794.064 1.116.193.323.13.592.308.809.536.217.229.38.496.492.8.112.305.167.633.167.985 0 .34-.055.659-.167.958-.111.298-.275.56-.492.782a2.21 2.21 0 0 1-.809.518 3.117 3.117 0 0 1-1.116.185c-.422 0-.79-.062-1.107-.185a2.138 2.138 0 0 1-.791-.518 2.282 2.282 0 0 1-.484-.782 2.722 2.722 0 0 1-.167-.958zm0-15.399c0-.351.056-.68.167-.984.112-.305.273-.571.484-.8.21-.229.474-.407.79-.536a2.921 2.921 0 0 1 1.108-.193c.422 0 .794.064 1.116.193.323.129.592.307.809.536.217.229.38.495.492.8.112.305.167.633.167.984 0 .34-.055.66-.167.958-.111.299-.275.56-.492.782a2.21 2.21 0 0 1-.809.519 3.117 3.117 0 0 1-1.116.185c-.422 0-.79-.062-1.107-.185a2.138 2.138 0 0 1-.791-.519 2.282 2.282 0 0 1-.484-.782 2.722 2.722 0 0 1-.167-.958zm-81.271 41.883v4.605h7.242v2.514h-7.242v10.336c0 .738.094 1.348.281 1.828.188.48.445.864.774 1.152.328.287.706.489 1.133.606.428.117.882.176 1.363.176.351 0 .714-.02 1.09-.062.375-.04.74-.09 1.098-.15.358-.058.692-.12 1.002-.184.31-.064.566-.12.765-.167l.457 2.303a4.55 4.55 0 0 1-.985.43c-.386.124-.808.23-1.265.317-.457.088-.94.155-1.45.202-.51.047-1.017.07-1.52.07-.845 0-1.633-.12-2.365-.36a4.9 4.9 0 0 1-1.907-1.142c-.54-.522-.964-1.196-1.275-2.022-.31-.826-.466-1.825-.466-2.997v-10.336h-4.992v-2.514h4.992v-4.605h3.27zm19.9 16.875l.844 2.303 5.8-14.573h3.64l-9.65 21.956a13.211 13.211 0 0 1-.853 1.564 7.934 7.934 0 0 1-1.257 1.53 6.686 6.686 0 0 1-1.723 1.177c-.656.316-1.412.475-2.268.475-.152 0-.322-.01-.51-.027a9.214 9.214 0 0 1-1.09-.167 56.635 56.635 0 0 1-.403-.088l.527-2.654c.082 0 .193.006.334.018l.44.035a12.546 12.546 0 0 0 .773.035c.445 0 .852-.123 1.221-.37.37-.245.698-.538.985-.878.287-.34.533-.691.738-1.055.205-.363.366-.662.484-.896l1.3-2.531-8.191-18.124h3.639l5.22 12.27zm29.657-2.549c0 1.36-.165 2.628-.493 3.806-.328 1.178-.808 2.2-1.441 3.067a6.814 6.814 0 0 1-2.347 2.04c-.931.491-1.995.738-3.19.738-1.16 0-2.183-.188-3.068-.563a6.364 6.364 0 0 1-2.276-1.617v9.14h-3.252V192.98h2.97l.159 2.075a6.343 6.343 0 0 1 2.294-1.802c.896-.416 1.936-.624 3.12-.624 1.219 0 2.297.24 3.234.72a6.69 6.69 0 0 1 2.356 2.005c.633.855 1.113 1.877 1.441 3.067.328 1.19.493 2.493.493 3.911v.37zm-3.252-.369c0-.926-.103-1.808-.308-2.645-.205-.838-.522-1.577-.95-2.215a4.803 4.803 0 0 0-1.625-1.52c-.657-.376-1.442-.563-2.356-.563-1.043 0-1.919.243-2.628.73a5.424 5.424 0 0 0-1.696 1.871v9.158c.422.75.984 1.363 1.688 1.837.703.475 1.593.712 2.671.712.903 0 1.682-.19 2.338-.571a4.775 4.775 0 0 0 1.618-1.538c.421-.645.735-1.389.94-2.233.205-.843.308-1.728.308-2.654v-.369zm16.209 10.02c-1.336 0-2.564-.229-3.683-.686a8.356 8.356 0 0 1-2.874-1.916 8.765 8.765 0 0 1-1.863-2.918c-.446-1.125-.668-2.35-.668-3.674v-.738c0-1.535.246-2.91.738-4.122.492-1.213 1.145-2.238 1.96-3.076a8.551 8.551 0 0 1 2.777-1.925 8.012 8.012 0 0 1 3.19-.668c1.372 0 2.57.237 3.595.712a7.055 7.055 0 0 1 2.558 1.969c.68.837 1.187 1.825 1.52 2.961.335 1.137.501 2.368.501 3.692v1.459H189.85a7.47 7.47 0 0 0 .5 2.443 6.347 6.347 0 0 0 1.231 1.995 5.685 5.685 0 0 0 1.872 1.345c.727.328 1.53.492 2.408.492 1.16 0 2.192-.234 3.094-.703a6.71 6.71 0 0 0 2.25-1.863l1.986 1.547c-.316.48-.712.94-1.186 1.38-.475.44-1.023.829-1.644 1.169a9.247 9.247 0 0 1-2.109.817c-.785.205-1.64.308-2.566.308zm-.422-17.051c-.657 0-1.278.12-1.864.36a4.862 4.862 0 0 0-1.582 1.055 6.014 6.014 0 0 0-1.186 1.705c-.322.674-.548 1.45-.677 2.329h10.23v-.246a7.261 7.261 0 0 0-.36-1.881 5.24 5.24 0 0 0-.905-1.67 4.53 4.53 0 0 0-1.503-1.195c-.604-.305-1.321-.457-2.153-.457zm19.162 14.59c0-.352.055-.68.167-.985.111-.304.272-.571.483-.8.211-.228.475-.407.791-.536a2.921 2.921 0 0 1 1.108-.193c.421 0 .794.064 1.116.193.322.13.592.308.808.536.217.229.381.496.493.8.11.305.167.633.167.985 0 .34-.056.659-.167.958-.112.298-.276.56-.493.782a2.21 2.21 0 0 1-.808.518 3.117 3.117 0 0 1-1.116.185c-.422 0-.791-.062-1.108-.185a2.138 2.138 0 0 1-.79-.518 2.282 2.282 0 0 1-.484-.782 2.722 2.722 0 0 1-.167-.958zm0-15.399c0-.351.055-.68.167-.984.111-.305.272-.571.483-.8.211-.229.475-.407.791-.536a2.921 2.921 0 0 1 1.108-.193c.421 0 .794.064 1.116.193.322.129.592.307.808.536.217.229.381.495.493.8.11.305.167.633.167.984 0 .34-.056.66-.167.958-.112.299-.276.56-.493.782a2.21 2.21 0 0 1-.808.519 3.117 3.117 0 0 1-1.116.185c-.422 0-.791-.062-1.108-.185a2.138 2.138 0 0 1-.79-.519 2.282 2.282 0 0 1-.484-.782 2.722 2.722 0 0 1-.167-.958z" fill="#47EBB4"/><path d="M257.197 209.715c.586 0 1.157-.094 1.714-.281a5.058 5.058 0 0 0 1.485-.783 4.074 4.074 0 0 0 1.046-1.177c.264-.452.402-.94.413-1.468h3.077a5.043 5.043 0 0 1-.66 2.417 6.944 6.944 0 0 1-1.713 2.021 8.702 8.702 0 0 1-2.461 1.389 8.223 8.223 0 0 1-2.9.519c-1.442 0-2.702-.258-3.78-.774a7.818 7.818 0 0 1-2.698-2.083 8.96 8.96 0 0 1-1.626-3.023 11.85 11.85 0 0 1-.545-3.613v-.738c0-1.254.181-2.455.545-3.603a8.946 8.946 0 0 1 1.626-3.033 7.818 7.818 0 0 1 2.698-2.083c1.078-.515 2.338-.773 3.78-.773 1.124 0 2.158.179 3.102.536.943.357 1.758.844 2.443 1.459a6.608 6.608 0 0 1 1.609 2.189 6.42 6.42 0 0 1 .58 2.707h-3.077a3.96 3.96 0 0 0-.377-1.626 4.425 4.425 0 0 0-.976-1.345c-.41-.387-.9-.692-1.468-.914a4.991 4.991 0 0 0-1.837-.334c-1.008 0-1.854.202-2.54.606a4.939 4.939 0 0 0-1.66 1.582 6.67 6.67 0 0 0-.906 2.189 11.115 11.115 0 0 0-.273 2.443v.738c0 .832.091 1.656.273 2.47.181.815.48 1.547.896 2.197.416.65.967 1.178 1.653 1.582.685.405 1.538.607 2.557.607zm11.586-7.4c0-1.372.2-2.646.598-3.824.398-1.178.97-2.2 1.714-3.067a7.981 7.981 0 0 1 2.716-2.048c1.066-.498 2.267-.747 3.603-.747 1.348 0 2.558.249 3.63.747a7.959 7.959 0 0 1 2.725 2.048c.744.867 1.315 1.89 1.713 3.067.399 1.178.598 2.452.598 3.823v.387c0 1.371-.2 2.643-.598 3.815-.398 1.172-.97 2.191-1.713 3.058a7.884 7.884 0 0 1-2.716 2.04c-1.067.491-2.268.738-3.604.738-1.347 0-2.557-.247-3.63-.739a7.863 7.863 0 0 1-2.724-2.039c-.744-.867-1.316-1.886-1.714-3.058-.399-1.172-.598-2.444-.598-3.815v-.387zm3.252.386c0 .938.111 1.831.334 2.68.223.85.56 1.598 1.01 2.242a4.989 4.989 0 0 0 1.697 1.53c.68.374 1.47.562 2.373.562.89 0 1.673-.188 2.347-.563a5.016 5.016 0 0 0 1.687-1.529 6.935 6.935 0 0 0 1.011-2.241c.223-.85.334-1.743.334-2.68v-.388c0-.925-.114-1.813-.343-2.663a7.075 7.075 0 0 0-1.02-2.24 5.104 5.104 0 0 0-1.687-1.539c-.674-.38-1.462-.571-2.364-.571-.902 0-1.687.19-2.355.571a5.133 5.133 0 0 0-1.68 1.538 6.935 6.935 0 0 0-1.01 2.241c-.223.85-.334 1.738-.334 2.663v.387zm21.184-9.72l.228 2.812a7.553 7.553 0 0 1 2.55-2.312c1.007-.556 2.132-.84 3.374-.852.996 0 1.901.14 2.716.422.814.281 1.509.72 2.083 1.318.574.598 1.017 1.357 1.327 2.277.31.92.466 2.012.466 3.278V212h-3.252v-12.006c0-.844-.094-1.558-.281-2.144-.188-.586-.466-1.06-.835-1.424a3.262 3.262 0 0 0-1.354-.791c-.533-.164-1.145-.246-1.837-.246-1.09 0-2.048.272-2.874.817a6.028 6.028 0 0 0-1.977 2.153V212H290.3v-19.02h2.918zM315.756 212v-16.506h-5.238v-2.514h5.238v-1.335c0-1.22.179-2.289.536-3.208.357-.92.861-1.69 1.512-2.312a6.358 6.358 0 0 1 2.346-1.406c.914-.317 1.934-.475 3.059-.475.773 0 1.526.065 2.259.194.732.128 1.485.292 2.259.492l-.387 2.69c-.48-.165-1.04-.308-1.679-.432a10.82 10.82 0 0 0-2.048-.184c-1.523.012-2.669.398-3.436 1.16-.768.762-1.152 1.922-1.152 3.48v1.336h7.33v2.514h-7.33V212h-3.27zm16.28-19.02h9.72v16.208h6.205V212h-15.926v-2.813h6.469v-13.376h-6.469v-2.83zm6.046-4.992c0-.539.161-.993.483-1.362.323-.37.812-.554 1.468-.554.645 0 1.131.185 1.46.554.327.37.491.823.491 1.362 0 .528-.164.967-.492 1.319-.328.351-.814.527-1.459.527-.656 0-1.145-.176-1.468-.527-.322-.352-.483-.791-.483-1.319zm13.45 14.344c0-1.418.172-2.722.518-3.911.346-1.19.846-2.212 1.503-3.067a7.017 7.017 0 0 1 2.39-2.004c.938-.48 1.998-.721 3.182-.721 1.172 0 2.2.208 3.085.624a6.228 6.228 0 0 1 2.259 1.802l.158-2.075h2.953v18.616c0 1.254-.196 2.367-.589 3.34a7.025 7.025 0 0 1-1.652 2.478 7.04 7.04 0 0 1-2.54 1.547c-.985.352-2.074.527-3.27.527a9.862 9.862 0 0 1-1.687-.167 10.24 10.24 0 0 1-1.925-.545 8.873 8.873 0 0 1-1.88-1.01 6.266 6.266 0 0 1-1.557-1.565l1.688-1.951c.398.48.809.888 1.23 1.222.422.334.85.6 1.284.8.433.199.867.342 1.3.43.434.088.868.132 1.301.132.774 0 1.47-.111 2.092-.334a4.352 4.352 0 0 0 1.59-.976c.44-.427.777-.958 1.012-1.59.234-.633.351-1.36.351-2.18v-1.635a6.346 6.346 0 0 1-2.241 1.661c-.861.381-1.86.572-2.997.572-1.16 0-2.21-.247-3.147-.739a7.037 7.037 0 0 1-2.381-2.039c-.65-.867-1.152-1.89-1.503-3.067-.352-1.178-.528-2.446-.528-3.806v-.369zm3.251.37c0 .925.097 1.804.29 2.636.194.832.498 1.564.914 2.197a4.645 4.645 0 0 0 1.591 1.503c.645.37 1.418.554 2.32.554.563 0 1.07-.068 1.52-.202a4.284 4.284 0 0 0 1.214-.572c.357-.246.677-.539.958-.879.281-.34.527-.714.738-1.125v-8.718a5.933 5.933 0 0 0-.738-1.09 4.631 4.631 0 0 0-.967-.853 4.6 4.6 0 0 0-1.213-.562 5.083 5.083 0 0 0-1.476-.202c-.914 0-1.697.187-2.347.562a4.67 4.67 0 0 0-1.6 1.52c-.416.64-.72 1.378-.914 2.216-.193.837-.29 1.72-.29 2.645v.37z" fill="#3EB0FD"/><path d="M125.982 233h9.721v24.188h6.205V260h-15.926v-2.813h6.47V235.83h-6.47V233zm32.592 27a3.542 3.542 0 0 1-.307-.923c-.077-.369-.132-.753-.167-1.151a9.102 9.102 0 0 1-1.099.931c-.404.293-.85.551-1.336.774a8.234 8.234 0 0 1-1.556.527 7.696 7.696 0 0 1-1.757.194c-1.008 0-1.92-.147-2.734-.44-.814-.293-1.506-.688-2.074-1.186a5.173 5.173 0 0 1-1.318-1.776 5.325 5.325 0 0 1-.466-2.223c0-1.043.208-1.957.624-2.743a5.436 5.436 0 0 1 1.766-1.96c.762-.521 1.68-.91 2.751-1.169 1.073-.257 2.27-.386 3.595-.386h3.55v-1.494a3.65 3.65 0 0 0-.316-1.547 3.307 3.307 0 0 0-.896-1.17 4.12 4.12 0 0 0-1.415-.746 6.202 6.202 0 0 0-1.872-.264c-.645 0-1.222.082-1.732.246-.51.164-.94.381-1.292.65-.351.27-.624.59-.817.959a2.45 2.45 0 0 0-.29 1.15h-3.27c.012-.69.19-1.37.537-2.038.345-.668.843-1.269 1.494-1.802.65-.533 1.441-.964 2.373-1.292.931-.328 1.99-.492 3.173-.492 1.078 0 2.08.132 3.006.395.925.264 1.725.663 2.399 1.196a5.654 5.654 0 0 1 1.59 1.995c.387.797.58 1.728.58 2.795v8.842c0 .632.06 1.303.177 2.012.117.71.28 1.327.492 1.855V260h-3.393zm-5.748-2.479c.633 0 1.225-.082 1.776-.246a6.578 6.578 0 0 0 1.502-.65c.452-.27.841-.577 1.17-.923.328-.346.585-.706.773-1.08v-3.85h-3.024c-1.898 0-3.375.28-4.43.843-1.054.563-1.581 1.447-1.581 2.655 0 .468.079.902.237 1.3.158.399.396.742.712 1.029.316.287.715.512 1.195.676.48.164 1.037.246 1.67.246zm29.973-6.82c0 1.36-.164 2.628-.492 3.806-.328 1.178-.809 2.2-1.442 3.067a6.814 6.814 0 0 1-2.346 2.04c-.932.491-2.001.738-3.208.738-1.22 0-2.277-.217-3.173-.65a6.451 6.451 0 0 1-2.294-1.864l-.158 2.162h-2.989v-27h3.252v10.02a6.238 6.238 0 0 1 2.25-1.776c.88-.41 1.905-.615 3.076-.615 1.22 0 2.297.24 3.235.72a6.69 6.69 0 0 1 2.355 2.005c.633.855 1.114 1.877 1.442 3.067.328 1.19.492 2.493.492 3.911v.37zm-3.252-.369c0-.926-.09-1.808-.273-2.645-.181-.838-.471-1.577-.87-2.215a4.467 4.467 0 0 0-1.564-1.52c-.645-.376-1.436-.563-2.373-.563-.563 0-1.078.073-1.547.22a4.405 4.405 0 0 0-1.257.615c-.37.263-.697.574-.984.931-.287.358-.53.747-.73 1.17v8.314c.211.422.46.811.747 1.169.287.357.618.67.993.94a4.4 4.4 0 0 0 1.266.624c.469.147.984.22 1.547.22.89 0 1.655-.185 2.294-.554.639-.37 1.16-.87 1.564-1.503.405-.633.703-1.365.897-2.197.193-.832.29-1.711.29-2.637v-.369zm16.139 10.02c-1.336 0-2.564-.229-3.683-.686a8.356 8.356 0 0 1-2.874-1.916 8.765 8.765 0 0 1-1.863-2.918c-.446-1.125-.668-2.35-.668-3.674v-.738c0-1.535.246-2.91.738-4.122.492-1.213 1.145-2.238 1.96-3.076a8.551 8.551 0 0 1 2.777-1.925 8.012 8.012 0 0 1 3.19-.668c1.372 0 2.57.237 3.595.712a7.055 7.055 0 0 1 2.558 1.969c.68.837 1.187 1.825 1.52 2.961.335 1.137.501 2.368.501 3.692v1.459H189.85a7.47 7.47 0 0 0 .5 2.443 6.347 6.347 0 0 0 1.231 1.995 5.685 5.685 0 0 0 1.872 1.345c.727.328 1.53.492 2.408.492 1.16 0 2.192-.234 3.094-.703a6.71 6.71 0 0 0 2.25-1.863l1.986 1.547c-.316.48-.712.94-1.186 1.38-.475.44-1.023.829-1.644 1.169a9.247 9.247 0 0 1-2.109.817c-.785.205-1.64.308-2.566.308zm-.422-17.051c-.657 0-1.278.12-1.864.36a4.862 4.862 0 0 0-1.582 1.055 6.014 6.014 0 0 0-1.186 1.705c-.322.674-.548 1.45-.677 2.329h10.23v-.246a7.261 7.261 0 0 0-.36-1.881 5.24 5.24 0 0 0-.905-1.67 4.53 4.53 0 0 0-1.503-1.195c-.604-.305-1.321-.457-2.153-.457zM208.396 233h9.721v24.188h6.205V260h-15.926v-2.813h6.47V235.83h-6.47V233zm26.633 24.89c0-.35.056-.68.167-.984.112-.304.273-.571.484-.8.21-.228.474-.407.79-.536a2.921 2.921 0 0 1 1.108-.193c.422 0 .794.064 1.116.193.323.13.592.308.809.536.217.229.38.496.492.8.111.305.167.633.167.985 0 .34-.056.659-.167.958-.111.298-.275.56-.492.782a2.21 2.21 0 0 1-.809.518 3.117 3.117 0 0 1-1.116.185c-.422 0-.79-.062-1.107-.185a2.138 2.138 0 0 1-.791-.518 2.282 2.282 0 0 1-.484-.782 2.722 2.722 0 0 1-.167-.958zm0-15.398c0-.351.056-.68.167-.984.112-.305.273-.571.484-.8.21-.229.474-.407.79-.536a2.921 2.921 0 0 1 1.108-.193c.422 0 .794.064 1.116.193.323.129.592.307.809.536.217.229.38.495.492.8.111.305.167.633.167.984 0 .34-.056.66-.167.958-.111.299-.275.56-.492.782a2.21 2.21 0 0 1-.809.519 3.117 3.117 0 0 1-1.116.185c-.422 0-.79-.062-1.107-.185a2.138 2.138 0 0 1-.791-.519 2.282 2.282 0 0 1-.484-.782 2.722 2.722 0 0 1-.167-.958z" fill="#47EBB4"/><path d="M286.256 256.643c-1.078 1.265-2.315 2.203-3.71 2.812-1.394.61-2.923.908-4.587.897-1.055-.012-2.024-.173-2.91-.484a8.395 8.395 0 0 1-2.381-1.283 9.141 9.141 0 0 1-1.846-1.925 12.073 12.073 0 0 1-1.327-2.4 13.9 13.9 0 0 1-.808-2.706 16.117 16.117 0 0 1-.29-2.857v-2.97c.011-.95.096-1.896.254-2.84a14.37 14.37 0 0 1 .73-2.715c.328-.867.738-1.673 1.23-2.417a8.303 8.303 0 0 1 1.767-1.934 8.265 8.265 0 0 1 2.329-1.292c.867-.316 1.84-.474 2.918-.474 1.195 0 2.297.184 3.305.553a7.876 7.876 0 0 1 2.636 1.582 7.877 7.877 0 0 1 1.811 2.479c.457.967.738 2.048.844 3.243h-3.217a9.154 9.154 0 0 0-.598-2.048 5.166 5.166 0 0 0-1.063-1.608 4.71 4.71 0 0 0-1.573-1.046c-.61-.252-1.319-.378-2.127-.378-.774 0-1.46.132-2.057.396a5.101 5.101 0 0 0-1.565 1.063 5.852 5.852 0 0 0-1.107 1.556 11.054 11.054 0 0 0-.72 1.872 12.916 12.916 0 0 0-.405 2.004c-.082.68-.123 1.336-.123 1.968v3.006c.012.645.067 1.31.167 1.995.1.686.255 1.357.466 2.013.21.656.48 1.277.808 1.863a6.616 6.616 0 0 0 1.187 1.547c.463.446.999.8 1.608 1.064.61.263 1.301.401 2.075.413.445.012.91-.006 1.397-.053.486-.047.958-.14 1.415-.281.457-.14.885-.331 1.283-.571.399-.24.733-.554 1.002-.94l.035-5.749h-5.203v-2.742h8.297l.053 9.387zM290.81 233h9.72v24.187h6.205V260h-15.925v-2.813h6.468V235.83h-6.468V233zm19.18 17.314c0-1.37.198-2.645.597-3.823.398-1.178.97-2.2 1.714-3.067a7.981 7.981 0 0 1 2.716-2.048c1.066-.498 2.267-.747 3.603-.747 1.348 0 2.558.249 3.63.747a7.959 7.959 0 0 1 2.725 2.048c.744.867 1.315 1.89 1.713 3.067.399 1.178.598 2.452.598 3.823v.387c0 1.371-.2 2.643-.598 3.815-.398 1.172-.97 2.191-1.713 3.058a7.884 7.884 0 0 1-2.716 2.04c-1.067.491-2.268.738-3.604.738-1.347 0-2.557-.247-3.63-.739a7.863 7.863 0 0 1-2.724-2.039c-.744-.867-1.316-1.886-1.714-3.058-.399-1.172-.598-2.444-.598-3.815v-.387zm3.251.387c0 .938.112 1.831.334 2.68.223.85.56 1.598 1.01 2.242a4.989 4.989 0 0 0 1.697 1.53c.68.374 1.47.562 2.373.562.89 0 1.673-.188 2.347-.563a5.016 5.016 0 0 0 1.687-1.529 6.935 6.935 0 0 0 1.011-2.241c.223-.85.334-1.743.334-2.68v-.388c0-.925-.114-1.813-.343-2.663a7.075 7.075 0 0 0-1.02-2.24 5.104 5.104 0 0 0-1.687-1.539c-.673-.38-1.462-.571-2.364-.571-.902 0-1.687.19-2.355.571a5.133 5.133 0 0 0-1.68 1.538 6.935 6.935 0 0 0-1.01 2.241c-.222.85-.334 1.738-.334 2.663v.387zm34.385 0c0 1.36-.164 2.628-.492 3.806-.328 1.178-.809 2.2-1.442 3.067a6.814 6.814 0 0 1-2.346 2.04c-.932.491-2.001.738-3.208.738-1.22 0-2.277-.217-3.173-.65a6.451 6.451 0 0 1-2.294-1.864l-.158 2.162h-2.989v-27h3.252v10.02a6.238 6.238 0 0 1 2.25-1.776c.88-.41 1.905-.615 3.077-.615 1.218 0 2.296.24 3.234.72a6.69 6.69 0 0 1 2.355 2.005c.633.855 1.114 1.877 1.442 3.067.328 1.19.492 2.493.492 3.911v.37zm-3.252-.369c0-.926-.09-1.808-.272-2.645-.182-.838-.472-1.577-.87-2.215a4.467 4.467 0 0 0-1.565-1.52c-.645-.376-1.436-.563-2.373-.563-.563 0-1.078.073-1.547.22a4.405 4.405 0 0 0-1.257.615c-.369.263-.697.574-.984.931-.287.358-.53.747-.73 1.17v8.314c.211.422.46.811.747 1.169.288.357.619.67.994.94a4.4 4.4 0 0 0 1.265.624c.469.147.985.22 1.547.22.89 0 1.655-.185 2.294-.554.639-.37 1.16-.87 1.564-1.503.405-.633.704-1.365.897-2.197.193-.832.29-1.711.29-2.637v-.369zM364.609 260a3.542 3.542 0 0 1-.307-.923c-.076-.369-.132-.753-.167-1.151a9.102 9.102 0 0 1-1.099.931c-.404.293-.85.551-1.336.774a8.234 8.234 0 0 1-1.555.527 7.696 7.696 0 0 1-1.758.194c-1.008 0-1.92-.147-2.734-.44-.814-.293-1.506-.688-2.074-1.186a5.173 5.173 0 0 1-1.318-1.776 5.325 5.325 0 0 1-.466-2.223c0-1.043.208-1.957.624-2.743a5.436 5.436 0 0 1 1.767-1.96c.761-.521 1.678-.91 2.75-1.169 1.073-.257 2.271-.386 3.595-.386h3.551v-1.494a3.65 3.65 0 0 0-.316-1.547 3.307 3.307 0 0 0-.897-1.17 4.12 4.12 0 0 0-1.415-.746 6.202 6.202 0 0 0-1.872-.264c-.645 0-1.222.082-1.731.246-.51.164-.94.381-1.292.65-.352.27-.624.59-.818.959a2.45 2.45 0 0 0-.29 1.15h-3.27c.012-.69.191-1.37.537-2.038.345-.668.844-1.269 1.494-1.802.65-.533 1.441-.964 2.373-1.292.932-.328 1.99-.492 3.173-.492 1.078 0 2.08.132 3.006.395.925.264 1.725.663 2.4 1.196a5.654 5.654 0 0 1 1.59 1.995c.387.797.58 1.728.58 2.795v8.842c0 .632.059 1.303.176 2.012.117.71.281 1.327.492 1.855V260h-3.393zm-5.748-2.479c.633 0 1.225-.082 1.776-.246a6.578 6.578 0 0 0 1.503-.65c.45-.27.84-.577 1.169-.923.328-.346.586-.706.773-1.08v-3.85h-3.023c-1.899 0-3.375.28-4.43.843-1.055.563-1.582 1.447-1.582 2.655 0 .468.079.902.237 1.3.158.399.396.742.712 1.029.317.287.715.512 1.195.676.48.164 1.038.246 1.67.246zM373.225 233h9.72v24.188h6.205V260h-15.925v-2.813h6.468V235.83h-6.468V233zm57.273 19.3a11.12 11.12 0 0 1-.914 3.262 8.41 8.41 0 0 1-1.784 2.548 7.768 7.768 0 0 1-2.602 1.653c-1.002.392-2.118.589-3.348.589-1.055 0-2.013-.15-2.874-.449a7.91 7.91 0 0 1-2.303-1.239 8.226 8.226 0 0 1-1.74-1.863 11.317 11.317 0 0 1-1.213-2.338 14.055 14.055 0 0 1-.721-2.654 17.99 17.99 0 0 1-.255-2.813v-3.568c.012-.95.097-1.887.255-2.813.158-.926.398-1.81.72-2.654.323-.844.727-1.626 1.214-2.347a7.937 7.937 0 0 1 4.034-3.111c.855-.299 1.816-.448 2.883-.448 1.277 0 2.42.196 3.427.589a7.52 7.52 0 0 1 2.602 1.67 8.252 8.252 0 0 1 1.749 2.592c.44 1.008.73 2.121.87 3.34h-3.252a9.58 9.58 0 0 0-.545-2.162 5.956 5.956 0 0 0-1.037-1.758 4.59 4.59 0 0 0-1.59-1.186c-.628-.287-1.369-.431-2.224-.431-.774 0-1.456.126-2.048.378a4.717 4.717 0 0 0-1.53 1.028 5.876 5.876 0 0 0-1.072 1.512 9.902 9.902 0 0 0-.694 1.828 13.094 13.094 0 0 0-.378 1.978 17.452 17.452 0 0 0-.114 1.96v3.603c0 .633.038 1.286.114 1.96.076.674.202 1.336.378 1.986.176.65.404 1.263.685 1.837a5.745 5.745 0 0 0 1.073 1.52c.433.44.943.786 1.529 1.038s1.271.378 2.057.378c.855 0 1.596-.135 2.223-.404a4.459 4.459 0 0 0 1.591-1.134c.434-.487.78-1.06 1.037-1.723.258-.662.44-1.38.545-2.153h3.252zm3.113-1.986c0-1.37.2-2.645.598-3.823.398-1.178.97-2.2 1.714-3.067a7.981 7.981 0 0 1 2.716-2.048c1.066-.498 2.267-.747 3.603-.747 1.348 0 2.558.249 3.63.747a7.959 7.959 0 0 1 2.725 2.048c.744.867 1.315 1.89 1.714 3.067.398 1.178.597 2.452.597 3.823v.387c0 1.371-.199 2.643-.597 3.815-.399 1.172-.97 2.191-1.714 3.058a7.884 7.884 0 0 1-2.716 2.04c-1.067.491-2.268.738-3.604.738-1.347 0-2.557-.247-3.63-.739a7.863 7.863 0 0 1-2.724-2.039c-.744-.867-1.316-1.886-1.714-3.058-.398-1.172-.598-2.444-.598-3.815v-.387zm3.252.387c0 .938.112 1.831.334 2.68.223.85.56 1.598 1.011 2.242a4.989 4.989 0 0 0 1.696 1.53c.68.374 1.471.562 2.373.562.891 0 1.673-.188 2.347-.563a5.016 5.016 0 0 0 1.688-1.529 6.935 6.935 0 0 0 1.01-2.241c.223-.85.334-1.743.334-2.68v-.388c0-.925-.114-1.813-.343-2.663a7.075 7.075 0 0 0-1.02-2.24 5.104 5.104 0 0 0-1.687-1.539c-.673-.38-1.461-.571-2.364-.571-.902 0-1.687.19-2.355.571a5.133 5.133 0 0 0-1.679 1.538 6.935 6.935 0 0 0-1.01 2.241c-.223.85-.335 1.738-.335 2.663v.387zm21.184-9.72l.228 2.812a7.553 7.553 0 0 1 2.55-2.312c1.007-.556 2.132-.84 3.374-.852.996 0 1.902.14 2.716.422.814.281 1.509.72 2.083 1.318.574.598 1.017 1.357 1.327 2.277.31.92.466 2.012.466 3.278V260h-3.252v-12.006c0-.844-.094-1.558-.281-2.144-.188-.586-.466-1.06-.835-1.424a3.262 3.262 0 0 0-1.354-.791c-.533-.164-1.145-.246-1.837-.246-1.09 0-2.047.272-2.874.817a6.028 6.028 0 0 0-1.977 2.153V260h-3.252v-19.02h2.918zM480.584 260v-16.506h-5.238v-2.514h5.238v-1.335c0-1.22.179-2.289.536-3.208.358-.92.861-1.69 1.512-2.312a6.358 6.358 0 0 1 2.347-1.406c.914-.317 1.933-.475 3.058-.475.774 0 1.526.065 2.259.194.732.128 1.485.292 2.259.492l-.387 2.69c-.48-.165-1.04-.308-1.679-.432a10.82 10.82 0 0 0-2.048-.184c-1.523.012-2.669.398-3.436 1.16-.768.762-1.151 1.922-1.151 3.48v1.336h7.33v2.514h-7.33V260h-3.27zm16.28-19.02h9.72v16.208h6.205V260h-15.926v-2.813h6.469v-13.376h-6.469v-2.83zm6.046-4.992c0-.539.161-.993.484-1.362.322-.37.811-.554 1.467-.554.645 0 1.131.185 1.46.554.327.37.491.823.491 1.362 0 .528-.164.967-.492 1.319-.328.351-.814.527-1.459.527-.656 0-1.145-.176-1.467-.527-.323-.352-.484-.791-.484-1.319zm13.45 14.344c0-1.418.172-2.722.518-3.911.346-1.19.847-2.212 1.503-3.067a7.017 7.017 0 0 1 2.39-2.004c.938-.48 1.999-.721 3.182-.721 1.172 0 2.2.208 3.085.624a6.228 6.228 0 0 1 2.259 1.802l.158-2.075h2.953v18.616c0 1.254-.196 2.367-.589 3.34a7.025 7.025 0 0 1-1.652 2.478 7.04 7.04 0 0 1-2.54 1.547c-.984.352-2.074.527-3.27.527a9.862 9.862 0 0 1-1.687-.167 10.24 10.24 0 0 1-1.925-.545 8.873 8.873 0 0 1-1.88-1.01 6.266 6.266 0 0 1-1.556-1.565l1.687-1.951c.399.48.809.888 1.23 1.222.422.334.85.6 1.284.8.433.199.867.342 1.3.43.434.088.868.132 1.301.132.774 0 1.471-.111 2.092-.334a4.352 4.352 0 0 0 1.59-.976c.44-.427.777-.958 1.012-1.59.234-.633.351-1.36.351-2.18v-1.635a6.346 6.346 0 0 1-2.241 1.661c-.861.381-1.86.572-2.997.572-1.16 0-2.209-.247-3.147-.739a7.037 7.037 0 0 1-2.381-2.039c-.65-.867-1.152-1.89-1.503-3.067-.352-1.178-.528-2.446-.528-3.806v-.369zm3.251.37c0 .925.097 1.804.29 2.636.194.832.498 1.564.914 2.197a4.645 4.645 0 0 0 1.591 1.503c.645.37 1.418.554 2.32.554.563 0 1.07-.068 1.521-.202a4.284 4.284 0 0 0 1.213-.572c.357-.246.677-.539.958-.879.281-.34.527-.714.738-1.125v-8.718a5.933 5.933 0 0 0-.738-1.09 4.631 4.631 0 0 0-.967-.853 4.6 4.6 0 0 0-1.213-.562 5.083 5.083 0 0 0-1.476-.202c-.914 0-1.697.187-2.347.562a4.67 4.67 0 0 0-1.6 1.52c-.416.64-.72 1.378-.914 2.216-.193.837-.29 1.72-.29 2.645v.37zm30.29 6.679a6.772 6.772 0 0 1-2.374 2.188c-.949.522-2.045.783-3.287.783-.996 0-1.898-.156-2.707-.466a5.19 5.19 0 0 1-2.074-1.45c-.574-.657-1.017-1.492-1.327-2.505-.31-1.014-.466-2.23-.466-3.648V240.98h3.252v11.338c0 1.032.082 1.887.246 2.567.164.68.41 1.221.738 1.626.328.404.73.688 1.204.852.475.164 1.023.246 1.644.246 1.324 0 2.394-.27 3.208-.808a4.906 4.906 0 0 0 1.82-2.18v-13.64h3.269V260h-2.953l-.194-2.62zm20.726-16.752c.305 0 .621.009.95.026.327.018.64.047.94.088.298.041.574.091.826.15.252.058.46.123.624.193l-.44 3.182a17.331 17.331 0 0 0-1.801-.308 15.84 15.84 0 0 0-1.785-.097c-1.523 0-2.756.346-3.7 1.037-.943.692-1.637 1.659-2.083 2.9V260h-3.27v-19.02h3.094l.159 3.024a8.738 8.738 0 0 1 2.786-2.47c1.084-.603 2.317-.905 3.7-.905zM591.266 260a3.542 3.542 0 0 1-.308-.923c-.076-.369-.132-.753-.167-1.151a9.102 9.102 0 0 1-1.099.931c-.404.293-.85.551-1.336.774a8.234 8.234 0 0 1-1.555.527 7.696 7.696 0 0 1-1.758.194c-1.008 0-1.919-.147-2.733-.44-.815-.293-1.506-.688-2.075-1.186a5.173 5.173 0 0 1-1.318-1.776 5.325 5.325 0 0 1-.466-2.223c0-1.043.208-1.957.624-2.743a5.436 5.436 0 0 1 1.767-1.96c.762-.521 1.679-.91 2.75-1.169 1.073-.257 2.271-.386 3.595-.386h3.551v-1.494a3.65 3.65 0 0 0-.316-1.547 3.307 3.307 0 0 0-.897-1.17 4.12 4.12 0 0 0-1.415-.746 6.202 6.202 0 0 0-1.872-.264c-.644 0-1.221.082-1.731.246-.51.164-.94.381-1.292.65-.352.27-.624.59-.818.959a2.45 2.45 0 0 0-.29 1.15h-3.27c.013-.69.191-1.37.537-2.038.346-.668.844-1.269 1.494-1.802.65-.533 1.442-.964 2.373-1.292.932-.328 1.99-.492 3.173-.492 1.078 0 2.08.132 3.006.395.926.264 1.726.663 2.4 1.196a5.654 5.654 0 0 1 1.59 1.995c.387.797.58 1.728.58 2.795v8.842c0 .632.059 1.303.176 2.012.117.71.281 1.327.492 1.855V260h-3.392zm-5.748-2.479c.632 0 1.224-.082 1.775-.246a6.578 6.578 0 0 0 1.503-.65c.451-.27.84-.577 1.169-.923.328-.346.586-.706.773-1.08v-3.85h-3.023c-1.899 0-3.375.28-4.43.843-1.055.563-1.582 1.447-1.582 2.655 0 .468.08.902.237 1.3.159.399.396.742.712 1.029.317.287.715.512 1.196.676.48.164 1.037.246 1.67.246zm21.552-21.146v4.605h7.242v2.514h-7.242v10.336c0 .738.094 1.348.282 1.828.187.48.445.864.773 1.152.328.287.706.489 1.134.606.428.117.882.176 1.362.176.352 0 .715-.02 1.09-.062.375-.04.741-.09 1.099-.15.357-.058.691-.12 1.002-.184.31-.064.565-.12.764-.167l.457 2.303a4.55 4.55 0 0 1-.984.43c-.387.124-.809.23-1.266.317-.457.088-.94.155-1.45.202-.51.047-1.017.07-1.52.07-.844 0-1.632-.12-2.365-.36a4.9 4.9 0 0 1-1.907-1.142c-.539-.522-.964-1.196-1.274-2.022-.31-.826-.466-1.825-.466-2.997v-10.336h-4.992v-2.514h4.992v-4.605h3.27zm13.414 4.605h9.721v16.208h6.205V260h-15.926v-2.813h6.47v-13.376h-6.47v-2.83zm6.047-4.992c0-.539.161-.993.484-1.362.322-.37.811-.554 1.467-.554.645 0 1.131.185 1.46.554.328.37.492.823.492 1.362 0 .528-.164.967-.493 1.319-.328.351-.814.527-1.459.527-.656 0-1.145-.176-1.467-.527-.323-.352-.484-.791-.484-1.319zm13.133 14.326c0-1.37.2-2.645.598-3.823.398-1.178.97-2.2 1.714-3.067a7.981 7.981 0 0 1 2.715-2.048c1.067-.498 2.268-.747 3.604-.747 1.348 0 2.558.249 3.63.747a7.959 7.959 0 0 1 2.724 2.048c.745.867 1.316 1.89 1.714 3.067.399 1.178.598 2.452.598 3.823v.387c0 1.371-.2 2.643-.598 3.815-.398 1.172-.97 2.191-1.714 3.058a7.884 7.884 0 0 1-2.715 2.04c-1.067.491-2.268.738-3.604.738-1.348 0-2.558-.247-3.63-.739a7.863 7.863 0 0 1-2.724-2.039c-.745-.867-1.316-1.886-1.714-3.058-.399-1.172-.598-2.444-.598-3.815v-.387zm3.252.387c0 .938.111 1.831.334 2.68.223.85.56 1.598 1.01 2.242a4.989 4.989 0 0 0 1.697 1.53c.68.374 1.47.562 2.373.562.89 0 1.673-.188 2.347-.563a5.016 5.016 0 0 0 1.687-1.529 6.935 6.935 0 0 0 1.011-2.241c.223-.85.334-1.743.334-2.68v-.388c0-.925-.114-1.813-.343-2.663a7.075 7.075 0 0 0-1.02-2.24 5.104 5.104 0 0 0-1.687-1.539c-.674-.38-1.462-.571-2.364-.571-.902 0-1.688.19-2.356.571a5.133 5.133 0 0 0-1.678 1.538 6.935 6.935 0 0 0-1.011 2.241c-.223.85-.334 1.738-.334 2.663v.387zm21.184-9.72l.228 2.812a7.553 7.553 0 0 1 2.549-2.312c1.008-.556 2.133-.84 3.375-.852.996 0 1.901.14 2.716.422.814.281 1.509.72 2.083 1.318.574.598 1.016 1.357 1.327 2.277.31.92.466 2.012.466 3.278V260h-3.252v-12.006c0-.844-.094-1.558-.281-2.144-.188-.586-.466-1.06-.835-1.424a3.262 3.262 0 0 0-1.354-.791c-.533-.164-1.145-.246-1.837-.246-1.09 0-2.048.272-2.874.817a6.028 6.028 0 0 0-1.977 2.153V260h-3.252v-19.02h2.918z" fill="#3EB0FD"/><path d="M130.324 308v-16.506h-5.238v-2.514h5.238v-1.335c0-1.22.179-2.289.536-3.208.358-.92.862-1.69 1.512-2.312a6.358 6.358 0 0 1 2.347-1.406c.914-.317 1.933-.475 3.058-.475.774 0 1.527.065 2.26.193.732.13 1.484.293 2.258.493l-.387 2.69c-.48-.165-1.04-.308-1.679-.432a10.82 10.82 0 0 0-2.047-.184c-1.524.012-2.67.398-3.437 1.16-.767.762-1.151 1.922-1.151 3.48v1.336h7.33v2.514h-7.33V308h-3.27zm16.28-19.02h9.72v16.207h6.205V308h-15.925v-2.813h6.468v-13.376h-6.468v-2.83zm6.046-4.992c0-.539.162-.993.484-1.362.322-.37.811-.554 1.468-.554.644 0 1.13.185 1.459.554.328.37.492.823.492 1.362 0 .528-.164.967-.492 1.319-.329.351-.815.527-1.46.527-.656 0-1.145-.176-1.467-.527-.322-.352-.484-.791-.484-1.319zm22.45 24.364c-1.336 0-2.564-.229-3.683-.686a8.356 8.356 0 0 1-2.874-1.916 8.765 8.765 0 0 1-1.863-2.918c-.446-1.125-.668-2.35-.668-3.674v-.738c0-1.535.246-2.91.738-4.122.492-1.213 1.146-2.238 1.96-3.076a8.551 8.551 0 0 1 2.777-1.925 8.012 8.012 0 0 1 3.19-.668c1.372 0 2.57.237 3.595.712a7.055 7.055 0 0 1 2.558 1.969c.68.837 1.187 1.825 1.52 2.961.335 1.137.502 2.368.502 3.692v1.459h-13.588a7.47 7.47 0 0 0 .5 2.443 6.347 6.347 0 0 0 1.231 1.995 5.685 5.685 0 0 0 1.872 1.345c.727.328 1.53.492 2.408.492 1.16 0 2.192-.234 3.094-.703a6.71 6.71 0 0 0 2.25-1.863l1.986 1.547c-.316.48-.711.94-1.186 1.38-.475.44-1.023.829-1.644 1.169a9.247 9.247 0 0 1-2.109.817c-.785.205-1.64.308-2.566.308zm-.422-17.051c-.657 0-1.278.12-1.864.36a4.862 4.862 0 0 0-1.582 1.055 6.014 6.014 0 0 0-1.186 1.705c-.322.674-.548 1.45-.677 2.329h10.23v-.246a7.261 7.261 0 0 0-.36-1.881 5.24 5.24 0 0 0-.905-1.67 4.53 4.53 0 0 0-1.503-1.195c-.603-.305-1.321-.457-2.153-.457zM187.81 281h9.72v24.187h6.205V308h-15.925v-2.813h6.468V283.83h-6.468V281zm19.478 17.332c0-1.418.179-2.722.536-3.911.358-1.19.867-2.212 1.53-3.067a7.102 7.102 0 0 1 2.399-2.004c.937-.48 1.986-.721 3.146-.721 1.137 0 2.13.19 2.98.571.85.381 1.585.935 2.206 1.661V281h3.252v27h-2.988l-.141-2.004a6.22 6.22 0 0 1-2.268 1.758c-.879.398-1.904.598-3.076.598-1.148 0-2.188-.247-3.12-.739a7.15 7.15 0 0 1-2.382-2.039c-.656-.867-1.166-1.89-1.529-3.067-.363-1.178-.545-2.446-.545-3.806v-.369zm3.252.37c0 .925.1 1.804.299 2.636.2.832.507 1.564.923 2.197a4.645 4.645 0 0 0 1.59 1.503c.645.37 1.418.554 2.32.554.552 0 1.05-.065 1.495-.194a4.403 4.403 0 0 0 2.18-1.415c.28-.334.527-.706.738-1.116v-8.824a5.503 5.503 0 0 0-1.705-1.907c-.715-.498-1.606-.747-2.672-.747-.914 0-1.696.187-2.347.562a4.67 4.67 0 0 0-1.6 1.52c-.415.64-.723 1.378-.922 2.216-.2.837-.299 1.72-.299 2.645v.37zm30.605 4.253c0-.387-.076-.735-.228-1.046-.152-.31-.41-.595-.773-.852-.364-.258-.844-.495-1.442-.712-.598-.217-1.342-.413-2.232-.59a22.505 22.505 0 0 1-2.98-.808c-.896-.316-1.664-.694-2.303-1.134-.638-.439-1.133-.955-1.485-1.546-.351-.592-.527-1.28-.527-2.066 0-.773.181-1.497.545-2.17a5.53 5.53 0 0 1 1.529-1.767c.656-.504 1.438-.903 2.347-1.196.908-.293 1.907-.44 2.997-.44 1.172 0 2.226.153 3.164.458.937.305 1.734.726 2.39 1.266a5.72 5.72 0 0 1 1.52 1.89 5.17 5.17 0 0 1 .537 2.328h-3.252c0-.41-.105-.811-.316-1.204a3.448 3.448 0 0 0-.88-1.046 4.512 4.512 0 0 0-1.361-.738c-.534-.187-1.134-.281-1.802-.281-.692 0-1.298.076-1.82.228-.521.153-.955.358-1.3.616a2.625 2.625 0 0 0-.783.896c-.175.34-.263.691-.263 1.055 0 .375.07.709.21 1.002.141.293.384.556.73.79.346.235.809.446 1.389.633.58.188 1.315.37 2.206.545 1.172.247 2.22.53 3.146.853.926.322 1.705.709 2.338 1.16.633.451 1.116.976 1.45 1.573.334.598.501 1.29.501 2.075 0 .843-.19 1.61-.57 2.302a5.394 5.394 0 0 1-1.592 1.776c-.68.492-1.494.873-2.443 1.142-.95.27-1.986.405-3.111.405-1.29 0-2.438-.173-3.446-.519-1.007-.346-1.86-.803-2.557-1.371a5.906 5.906 0 0 1-1.6-1.978 5.232 5.232 0 0 1-.554-2.338h3.252c.047.668.226 1.231.536 1.688.311.457.698.826 1.16 1.107.464.282.976.48 1.539.598a8.17 8.17 0 0 0 1.67.176c1.37 0 2.455-.252 3.252-.756.796-.504 1.2-1.172 1.212-2.004zm14.504 2.936c0-.352.056-.68.167-.985.112-.304.273-.571.484-.8.21-.228.474-.407.79-.536a2.921 2.921 0 0 1 1.108-.193c.422 0 .794.064 1.116.193.323.13.592.308.809.536.217.229.38.496.492.8.112.305.167.633.167.985 0 .34-.055.659-.167.958-.111.298-.275.56-.492.782a2.21 2.21 0 0 1-.809.518 3.117 3.117 0 0 1-1.116.185c-.422 0-.79-.062-1.107-.185a2.138 2.138 0 0 1-.791-.518 2.282 2.282 0 0 1-.484-.782 2.722 2.722 0 0 1-.167-.958zm0-15.399c0-.351.056-.68.167-.984.112-.305.273-.571.484-.8.21-.229.474-.407.79-.536a2.921 2.921 0 0 1 1.108-.193c.422 0 .794.064 1.116.193.323.129.592.307.809.536.217.229.38.495.492.8.112.305.167.633.167.984 0 .34-.055.66-.167.958-.111.299-.275.56-.492.782a2.21 2.21 0 0 1-.809.519 3.117 3.117 0 0 1-1.116.185c-.422 0-.79-.062-1.107-.185a2.138 2.138 0 0 1-.791-.519 2.282 2.282 0 0 1-.484-.782 2.722 2.722 0 0 1-.167-.958zM180.9 346.14h-13.447v-2.672H180.9v2.672zm34.704-13.764v4.605h7.242v2.514h-7.242v10.336c0 .738.093 1.348.28 1.828.188.48.446.864.774 1.152.328.287.706.489 1.134.606.428.117.882.176 1.362.176.352 0 .715-.02 1.09-.062.375-.04.741-.09 1.099-.15.357-.058.691-.12 1.002-.184.31-.064.565-.12.764-.167l.457 2.303a4.55 4.55 0 0 1-.984.43c-.387.124-.809.23-1.266.317-.457.088-.94.155-1.45.202-.51.047-1.016.07-1.52.07-.844 0-1.632-.12-2.365-.36a4.9 4.9 0 0 1-1.907-1.142c-.539-.522-.964-1.196-1.274-2.022-.31-.826-.466-1.825-.466-2.997v-10.336h-4.992v-2.514h4.992v-4.605h3.27zm19.9 16.875l.844 2.303 5.8-14.573h3.64l-9.651 21.956a13.211 13.211 0 0 1-.853 1.564 7.934 7.934 0 0 1-1.257 1.53 6.686 6.686 0 0 1-1.722 1.177c-.657.316-1.412.475-2.268.475-.152 0-.322-.01-.51-.027a9.214 9.214 0 0 1-1.09-.167 56.645 56.645 0 0 1-.404-.088l.528-2.654c.082 0 .193.006.334.018l.439.035a12.546 12.546 0 0 0 .773.035c.446 0 .853-.123 1.222-.37.37-.245.697-.538.984-.878.288-.34.534-.691.739-1.055.205-.363.366-.662.483-.896l1.3-2.531-8.19-18.124h3.638l5.22 12.27zm29.656-2.549c0 1.36-.164 2.628-.492 3.806-.328 1.178-.809 2.2-1.441 3.067a6.814 6.814 0 0 1-2.347 2.04c-.932.491-1.995.738-3.19.738-1.16 0-2.183-.188-3.068-.563a6.364 6.364 0 0 1-2.276-1.617v9.14h-3.252V336.98h2.97l.159 2.075a6.343 6.343 0 0 1 2.294-1.802c.896-.416 1.936-.624 3.12-.624 1.218 0 2.297.24 3.234.72a6.69 6.69 0 0 1 2.356 2.005c.632.855 1.113 1.877 1.441 3.067.328 1.19.492 2.493.492 3.911v.37zm-3.252-.369c0-.926-.102-1.808-.307-2.645-.205-.838-.522-1.577-.95-2.215a4.803 4.803 0 0 0-1.626-1.52c-.656-.376-1.441-.563-2.355-.563-1.043 0-1.919.243-2.628.73a5.424 5.424 0 0 0-1.696 1.871v9.158c.422.75.984 1.363 1.687 1.837.703.475 1.594.712 2.672.712.902 0 1.682-.19 2.338-.571a4.775 4.775 0 0 0 1.617-1.538c.422-.645.736-1.389.94-2.233.206-.843.308-1.728.308-2.654v-.369zm16.21 10.02c-1.337 0-2.564-.229-3.683-.686a8.356 8.356 0 0 1-2.874-1.916 8.765 8.765 0 0 1-1.864-2.918c-.445-1.125-.668-2.35-.668-3.674v-.738c0-1.535.246-2.91.739-4.122.492-1.213 1.145-2.238 1.96-3.076a8.551 8.551 0 0 1 2.777-1.925 8.012 8.012 0 0 1 3.19-.668c1.371 0 2.57.237 3.595.712a7.055 7.055 0 0 1 2.558 1.969c.68.837 1.186 1.825 1.52 2.961.334 1.137.501 2.368.501 3.692v1.459h-13.588a7.47 7.47 0 0 0 .501 2.443 6.347 6.347 0 0 0 1.23 1.995 5.685 5.685 0 0 0 1.873 1.345c.726.328 1.53.492 2.408.492 1.16 0 2.191-.234 3.094-.703a6.71 6.71 0 0 0 2.25-1.863l1.986 1.547c-.316.48-.712.94-1.186 1.38-.475.44-1.023.829-1.644 1.169a9.247 9.247 0 0 1-2.11.817c-.785.205-1.64.308-2.566.308zm-.423-17.051c-.656 0-1.277.12-1.863.36a4.862 4.862 0 0 0-1.582 1.055 6.014 6.014 0 0 0-1.187 1.705c-.322.674-.547 1.45-.676 2.329h10.23v-.246a7.261 7.261 0 0 0-.36-1.881 5.24 5.24 0 0 0-.905-1.67 4.53 4.53 0 0 0-1.503-1.195c-.604-.305-1.322-.457-2.154-.457zm19.162 14.59c0-.352.056-.68.167-.985.112-.304.273-.571.484-.8.21-.228.474-.407.79-.536a2.921 2.921 0 0 1 1.108-.193c.422 0 .794.064 1.116.193.323.13.592.308.81.536.216.229.38.496.491.8.112.305.167.633.167.985 0 .34-.055.659-.167.958-.111.298-.275.56-.492.782a2.21 2.21 0 0 1-.809.518 3.117 3.117 0 0 1-1.116.185c-.422 0-.79-.062-1.107-.185a2.138 2.138 0 0 1-.791-.518 2.282 2.282 0 0 1-.484-.782 2.722 2.722 0 0 1-.167-.958zm0-15.399c0-.351.056-.68.167-.984.112-.305.273-.571.484-.8.21-.229.474-.407.79-.536a2.921 2.921 0 0 1 1.108-.193c.422 0 .794.064 1.116.193.323.129.592.307.81.536.216.229.38.495.491.8.112.305.167.633.167.984 0 .34-.055.66-.167.958-.111.299-.275.56-.492.782a2.21 2.21 0 0 1-.809.519 3.117 3.117 0 0 1-1.116.185c-.422 0-.79-.062-1.107-.185a2.138 2.138 0 0 1-.791-.519 2.282 2.282 0 0 1-.484-.782 2.722 2.722 0 0 1-.167-.958z" fill="#47EBB4"/><path d="M339.928 356.352c-1.336 0-2.564-.229-3.683-.686a8.356 8.356 0 0 1-2.874-1.916 8.765 8.765 0 0 1-1.863-2.918c-.446-1.125-.668-2.35-.668-3.674v-.738c0-1.535.246-2.91.738-4.122.492-1.213 1.146-2.238 1.96-3.076a8.551 8.551 0 0 1 2.777-1.925 8.012 8.012 0 0 1 3.19-.668c1.372 0 2.57.237 3.596.712a7.055 7.055 0 0 1 2.557 1.969c.68.837 1.187 1.825 1.52 2.961.335 1.137.502 2.368.502 3.692v1.459h-13.588a7.47 7.47 0 0 0 .5 2.443 6.347 6.347 0 0 0 1.231 1.995 5.685 5.685 0 0 0 1.872 1.345c.727.328 1.53.492 2.409.492 1.16 0 2.19-.234 3.093-.703a6.71 6.71 0 0 0 2.25-1.863l1.987 1.547c-.317.48-.712.94-1.187 1.38-.475.44-1.022.829-1.643 1.169a9.247 9.247 0 0 1-2.11.817c-.785.205-1.64.308-2.566.308zm-.422-17.051c-.656 0-1.277.12-1.863.36a4.862 4.862 0 0 0-1.582 1.055 6.014 6.014 0 0 0-1.187 1.705c-.322.674-.548 1.45-.677 2.329h10.23v-.246a7.261 7.261 0 0 0-.36-1.881 5.24 5.24 0 0 0-.905-1.67 4.53 4.53 0 0 0-1.503-1.195c-.603-.305-1.321-.457-2.153-.457zm15.54-2.32l.23 2.812a7.553 7.553 0 0 1 2.548-2.312c1.008-.556 2.133-.84 3.375-.852.996 0 1.902.14 2.716.422.814.281 1.509.72 2.083 1.318.574.598 1.017 1.357 1.327 2.277.31.92.466 2.012.466 3.278V356h-3.252v-12.006c0-.844-.094-1.558-.281-2.144-.188-.586-.466-1.06-.835-1.424a3.262 3.262 0 0 0-1.354-.791c-.533-.164-1.145-.246-1.837-.246-1.09 0-2.047.272-2.874.817a6.028 6.028 0 0 0-1.977 2.153V356h-3.252v-19.02h2.918zm30.026 16.4a6.772 6.772 0 0 1-2.373 2.188c-.949.522-2.045.783-3.287.783-.996 0-1.898-.156-2.707-.466a5.19 5.19 0 0 1-2.074-1.45c-.574-.657-1.017-1.492-1.327-2.505-.31-1.014-.466-2.23-.466-3.648V336.98h3.252v11.338c0 1.032.082 1.887.246 2.567.164.68.41 1.221.738 1.626.328.404.73.688 1.204.852.475.164 1.023.246 1.644.246 1.324 0 2.393-.27 3.208-.808a4.906 4.906 0 0 0 1.82-2.18v-13.64h3.269V356h-2.953l-.194-2.62zm9.758-16.4l.088 1.792a4.284 4.284 0 0 1 1.52-1.564c.627-.375 1.386-.568 2.277-.58 1.746 0 2.912.68 3.498 2.039.375-.61.87-1.099 1.485-1.468.615-.369 1.363-.56 2.241-.571 1.395 0 2.467.428 3.217 1.283.75.856 1.125 2.15 1.125 3.885V356h-3.094v-14.238c0-1.594-.732-2.385-2.197-2.373-.386 0-.72.052-1.002.158a2.008 2.008 0 0 0-.703.43 1.982 1.982 0 0 0-.44.633c-.105.24-.175.49-.21.747V356h-3.094v-14.256c0-.762-.17-1.348-.51-1.758-.34-.41-.879-.609-1.617-.597-.68 0-1.207.134-1.582.404s-.65.627-.826 1.072V356h-3.094v-19.02h2.918z" fill="#3EB0FD"/><path d="M210.805 384.98l.228 2.813a7.553 7.553 0 0 1 2.549-2.312c1.008-.556 2.133-.84 3.375-.852.996 0 1.901.14 2.716.422.814.281 1.509.72 2.083 1.318.574.598 1.016 1.357 1.327 2.277.31.92.466 2.012.466 3.278V404h-3.252v-12.006c0-.844-.094-1.558-.281-2.144-.188-.586-.466-1.06-.835-1.424a3.262 3.262 0 0 0-1.354-.791c-.533-.164-1.145-.246-1.837-.246-1.09 0-2.048.272-2.874.817a6.028 6.028 0 0 0-1.977 2.153V404h-3.252v-19.02h2.918zM240.988 404a3.542 3.542 0 0 1-.307-.923c-.077-.369-.132-.753-.167-1.151a9.102 9.102 0 0 1-1.099.931c-.404.293-.85.551-1.336.774a8.234 8.234 0 0 1-1.556.527 7.696 7.696 0 0 1-1.757.194c-1.008 0-1.92-.147-2.734-.44-.814-.293-1.506-.688-2.074-1.186a5.173 5.173 0 0 1-1.318-1.776 5.325 5.325 0 0 1-.466-2.223c0-1.043.208-1.957.624-2.743a5.436 5.436 0 0 1 1.766-1.96c.762-.521 1.68-.91 2.751-1.169 1.073-.257 2.27-.386 3.595-.386h3.55v-1.494a3.65 3.65 0 0 0-.315-1.547 3.307 3.307 0 0 0-.897-1.17 4.12 4.12 0 0 0-1.415-.746 6.202 6.202 0 0 0-1.872-.264c-.645 0-1.222.082-1.732.246-.51.164-.94.381-1.292.65-.351.27-.624.59-.817.959a2.45 2.45 0 0 0-.29 1.15h-3.27c.012-.69.191-1.37.537-2.038.345-.668.843-1.269 1.494-1.802.65-.533 1.441-.964 2.373-1.292.932-.328 1.99-.492 3.173-.492 1.078 0 2.08.132 3.006.395.925.264 1.725.663 2.399 1.196a5.654 5.654 0 0 1 1.59 1.995c.388.797.58 1.728.58 2.795v8.842c0 .632.06 1.303.177 2.012.117.71.28 1.327.492 1.855V404h-3.393zm-5.748-2.479c.633 0 1.225-.082 1.776-.246a6.578 6.578 0 0 0 1.503-.65c.45-.27.84-.577 1.168-.923.329-.346.586-.706.774-1.08v-3.85h-3.024c-1.898 0-3.374.28-4.43.843-1.054.563-1.581 1.447-1.581 2.655 0 .468.079.902.237 1.3.158.399.396.742.712 1.029.316.287.715.512 1.195.676.48.164 1.037.246 1.67.246zm15.348-16.54l.088 1.792a4.284 4.284 0 0 1 1.52-1.564c.627-.375 1.386-.568 2.277-.58 1.746 0 2.912.68 3.498 2.039.375-.61.87-1.099 1.485-1.468.615-.369 1.362-.56 2.241-.571 1.395 0 2.467.428 3.217 1.283.75.856 1.125 2.15 1.125 3.885V404h-3.094v-14.238c0-1.594-.732-2.385-2.197-2.373-.387 0-.72.052-1.002.158a2.008 2.008 0 0 0-.703.43 1.982 1.982 0 0 0-.44.633c-.105.24-.175.49-.21.747V404h-3.094v-14.256c0-.762-.17-1.348-.51-1.758-.34-.41-.879-.609-1.617-.597-.68 0-1.207.134-1.582.404s-.65.627-.826 1.072V404h-3.094v-19.02h2.918zm27.512 19.37c-1.336 0-2.564-.228-3.683-.685a8.356 8.356 0 0 1-2.874-1.916 8.765 8.765 0 0 1-1.863-2.918c-.446-1.125-.668-2.35-.668-3.674v-.738c0-1.535.246-2.91.738-4.122.492-1.213 1.146-2.238 1.96-3.076a8.551 8.551 0 0 1 2.777-1.925 8.012 8.012 0 0 1 3.19-.668c1.372 0 2.57.237 3.595.712a7.055 7.055 0 0 1 2.558 1.969c.68.837 1.187 1.825 1.52 2.961.335 1.137.502 2.368.502 3.692v1.459h-13.588a7.47 7.47 0 0 0 .5 2.443 6.347 6.347 0 0 0 1.231 1.995 5.685 5.685 0 0 0 1.872 1.345c.727.328 1.53.492 2.408.492 1.16 0 2.192-.234 3.094-.703a6.71 6.71 0 0 0 2.25-1.863l1.986 1.547c-.316.48-.711.94-1.186 1.38-.475.44-1.023.829-1.644 1.169a9.247 9.247 0 0 1-2.109.817c-.785.205-1.64.308-2.566.308zm-.422-17.05c-.657 0-1.278.12-1.864.36a4.862 4.862 0 0 0-1.582 1.055 6.014 6.014 0 0 0-1.186 1.705c-.322.674-.548 1.45-.677 2.329h10.23v-.246a7.261 7.261 0 0 0-.36-1.881 5.24 5.24 0 0 0-.905-1.67 4.53 4.53 0 0 0-1.503-1.195c-.603-.305-1.321-.457-2.153-.457zm19.162 14.59c0-.352.056-.68.167-.985.111-.304.272-.571.483-.8.211-.228.475-.407.791-.536a2.921 2.921 0 0 1 1.108-.193c.422 0 .794.064 1.116.193.322.13.592.308.808.536.217.229.381.496.493.8.111.305.167.633.167.985 0 .34-.056.659-.167.958-.112.298-.276.56-.493.782a2.21 2.21 0 0 1-.808.518 3.117 3.117 0 0 1-1.116.185c-.422 0-.791-.062-1.108-.185a2.138 2.138 0 0 1-.79-.518 2.282 2.282 0 0 1-.484-.782 2.722 2.722 0 0 1-.167-.958zm0-15.399c0-.351.056-.68.167-.984.111-.305.272-.571.483-.8.211-.229.475-.407.791-.536a2.921 2.921 0 0 1 1.108-.193c.422 0 .794.064 1.116.193.322.129.592.307.808.536.217.229.381.495.493.8.111.305.167.633.167.984 0 .34-.056.66-.167.958-.112.299-.276.56-.493.782a2.21 2.21 0 0 1-.808.519 3.117 3.117 0 0 1-1.116.185c-.422 0-.791-.062-1.108-.185a2.138 2.138 0 0 1-.79-.519 2.282 2.282 0 0 1-.484-.782 2.722 2.722 0 0 1-.167-.958z" fill="#47EBB4"/><path d="M332.018 377h9.72v24.188h6.205V404h-15.925v-2.813h6.468V379.83h-6.468V377zm32.591 27a3.542 3.542 0 0 1-.307-.923c-.076-.369-.132-.753-.167-1.151a9.102 9.102 0 0 1-1.099.931c-.404.293-.85.551-1.336.774a8.234 8.234 0 0 1-1.555.527 7.696 7.696 0 0 1-1.758.194c-1.008 0-1.92-.147-2.734-.44-.814-.293-1.506-.688-2.074-1.186a5.173 5.173 0 0 1-1.318-1.776 5.325 5.325 0 0 1-.466-2.223c0-1.043.208-1.957.624-2.743a5.436 5.436 0 0 1 1.767-1.96c.761-.521 1.678-.91 2.75-1.169 1.073-.257 2.271-.386 3.595-.386h3.551v-1.494a3.65 3.65 0 0 0-.316-1.547 3.307 3.307 0 0 0-.897-1.17 4.12 4.12 0 0 0-1.415-.746 6.202 6.202 0 0 0-1.872-.264c-.645 0-1.222.082-1.731.246-.51.164-.94.381-1.292.65-.352.27-.624.59-.818.959a2.45 2.45 0 0 0-.29 1.15h-3.27c.012-.69.191-1.37.537-2.038.345-.668.844-1.269 1.494-1.802.65-.533 1.441-.964 2.373-1.292.932-.328 1.99-.492 3.173-.492 1.078 0 2.08.132 3.006.395.925.264 1.725.663 2.4 1.196a5.654 5.654 0 0 1 1.59 1.995c.387.797.58 1.728.58 2.795v8.842c0 .632.059 1.303.176 2.012.117.71.281 1.327.492 1.855V404h-3.393zm-5.748-2.479c.633 0 1.225-.082 1.776-.246a6.578 6.578 0 0 0 1.503-.65c.45-.27.84-.577 1.169-.923.328-.346.586-.706.773-1.08v-3.85h-3.023c-1.899 0-3.375.28-4.43.843-1.055.563-1.582 1.447-1.582 2.655 0 .468.079.902.237 1.3.158.399.396.742.712 1.029.317.287.715.512 1.195.676.48.164 1.038.246 1.67.246zm20.85-4.271l.844 2.303 5.8-14.573h3.64l-9.651 21.956a13.211 13.211 0 0 1-.853 1.564 7.934 7.934 0 0 1-1.257 1.53 6.686 6.686 0 0 1-1.722 1.177c-.657.316-1.412.475-2.268.475-.152 0-.322-.01-.51-.027a9.214 9.214 0 0 1-1.09-.167 56.635 56.635 0 0 1-.404-.088l.528-2.654c.082 0 .193.006.334.018l.439.035a12.546 12.546 0 0 0 .773.035c.446 0 .853-.123 1.222-.37.37-.245.697-.538.985-.878.287-.34.533-.691.738-1.055.205-.363.366-.662.483-.896l1.301-2.531-8.191-18.124h3.638l5.22 12.27zm12.693-2.936c0-1.37.2-2.645.598-3.823.398-1.178.97-2.2 1.714-3.067a7.981 7.981 0 0 1 2.716-2.048c1.066-.498 2.267-.747 3.603-.747 1.348 0 2.558.249 3.63.747a7.959 7.959 0 0 1 2.725 2.048c.744.867 1.315 1.89 1.714 3.067.398 1.178.597 2.452.597 3.823v.387c0 1.371-.199 2.643-.597 3.815-.399 1.172-.97 2.191-1.714 3.058a7.884 7.884 0 0 1-2.716 2.04c-1.067.491-2.268.738-3.604.738-1.347 0-2.557-.247-3.63-.739a7.863 7.863 0 0 1-2.724-2.039c-.744-.867-1.316-1.886-1.714-3.058-.398-1.172-.598-2.444-.598-3.815v-.387zm3.252.387c0 .938.112 1.831.334 2.68.223.85.56 1.598 1.011 2.242a4.989 4.989 0 0 0 1.696 1.53c.68.374 1.471.562 2.373.562.89 0 1.673-.188 2.347-.563a5.016 5.016 0 0 0 1.687-1.529 6.935 6.935 0 0 0 1.011-2.241c.223-.85.334-1.743.334-2.68v-.388c0-.925-.114-1.813-.343-2.663a7.075 7.075 0 0 0-1.02-2.24 5.104 5.104 0 0 0-1.687-1.539c-.673-.38-1.461-.571-2.364-.571-.902 0-1.687.19-2.355.571A5.133 5.133 0 0 0 397 389.41a6.935 6.935 0 0 0-1.01 2.241c-.223.85-.335 1.738-.335 2.663v.387zm30.606 6.68a6.772 6.772 0 0 1-2.373 2.188c-.95.522-2.045.783-3.287.783-.997 0-1.899-.156-2.707-.466a5.19 5.19 0 0 1-2.075-1.45c-.574-.657-1.016-1.492-1.327-2.505-.31-1.014-.466-2.23-.466-3.648V384.98h3.252v11.338c0 1.032.082 1.887.246 2.567.164.68.41 1.221.739 1.626.328.404.73.688 1.204.852.474.164 1.022.246 1.643.246 1.325 0 2.394-.27 3.208-.808a4.906 4.906 0 0 0 1.82-2.18v-13.64h3.27V404h-2.954l-.193-2.62zm15.963-21.006v4.605h7.242v2.514h-7.242v10.336c0 .738.093 1.348.28 1.828.188.48.446.864.774 1.152.328.287.706.489 1.134.606.428.117.882.176 1.362.176.352 0 .715-.02 1.09-.062.375-.04.741-.09 1.099-.15.357-.058.691-.12 1.002-.184.31-.064.565-.12.764-.167l.457 2.303a4.55 4.55 0 0 1-.984.43c-.387.124-.808.23-1.265.317-.458.088-.94.155-1.45.202-.51.047-1.017.07-1.521.07-.844 0-1.632-.12-2.364-.36a4.9 4.9 0 0 1-1.908-1.142c-.539-.522-.964-1.196-1.274-2.022-.31-.826-.466-1.825-.466-2.997v-10.336h-4.992v-2.514h4.992v-4.605h3.27zm28.69 26.28h-16.12V404h16.12v2.654zm17.456-7.7c0-.387-.076-.735-.228-1.046-.153-.31-.41-.595-.774-.852-.363-.258-.844-.495-1.441-.712-.598-.217-1.342-.413-2.233-.59a22.505 22.505 0 0 1-2.98-.808c-.896-.316-1.663-.694-2.302-1.134-.639-.439-1.134-.955-1.485-1.546-.352-.592-.528-1.28-.528-2.066 0-.773.182-1.497.545-2.17a5.53 5.53 0 0 1 1.53-1.767c.656-.504 1.438-.903 2.346-1.196.908-.293 1.908-.44 2.997-.44 1.172 0 2.227.153 3.164.458.938.305 1.735.726 2.391 1.266a5.72 5.72 0 0 1 1.52 1.89 5.17 5.17 0 0 1 .537 2.328h-3.252c0-.41-.106-.811-.317-1.204a3.448 3.448 0 0 0-.879-1.046 4.512 4.512 0 0 0-1.362-.738c-.533-.187-1.134-.281-1.802-.281-.691 0-1.297.076-1.819.228-.521.153-.955.358-1.3.616a2.625 2.625 0 0 0-.783.896c-.176.34-.264.691-.264 1.055 0 .375.07.709.211 1.002.14.293.384.556.73.79.345.235.808.446 1.388.633.58.188 1.316.37 2.207.545 1.171.247 2.22.53 3.146.853.926.322 1.705.709 2.338 1.16.633.451 1.116.976 1.45 1.573.334.598.501 1.29.501 2.075 0 .843-.19 1.61-.571 2.302a5.394 5.394 0 0 1-1.591 1.776c-.68.492-1.494.873-2.443 1.142-.95.27-1.987.405-3.112.405-1.289 0-2.437-.173-3.445-.519-1.008-.346-1.86-.803-2.558-1.371a5.906 5.906 0 0 1-1.6-1.978 5.232 5.232 0 0 1-.553-2.338h3.252c.047.668.226 1.231.536 1.688.31.457.697.826 1.16 1.107.463.282.976.48 1.538.598a8.17 8.17 0 0 0 1.67.176c1.371 0 2.455-.252 3.252-.756.797-.504 1.201-1.172 1.213-2.004zm15.664-18.58v4.605h7.242v2.514h-7.242v10.336c0 .738.094 1.348.281 1.828.188.48.446.864.774 1.152.328.287.706.489 1.134.606.427.117.881.176 1.362.176.352 0 .715-.02 1.09-.062.375-.04.741-.09 1.098-.15.358-.058.692-.12 1.002-.184.31-.064.566-.12.765-.167l.457 2.303a4.55 4.55 0 0 1-.984.43c-.387.124-.809.23-1.266.317-.457.088-.94.155-1.45.202-.51.047-1.017.07-1.52.07-.844 0-1.632-.12-2.365-.36a4.9 4.9 0 0 1-1.907-1.142c-.54-.522-.964-1.196-1.275-2.022-.31-.826-.465-1.825-.465-2.997v-10.336h-4.993v-2.514h4.993v-4.605h3.27zm19.9 16.875l.844 2.303 5.801-14.573h3.639l-9.65 21.956a13.212 13.212 0 0 1-.853 1.564 7.934 7.934 0 0 1-1.257 1.53 6.686 6.686 0 0 1-1.723 1.177c-.656.316-1.412.475-2.267.475-.153 0-.323-.01-.51-.027a9.214 9.214 0 0 1-1.09-.167 56.647 56.647 0 0 1-.404-.088l.527-2.654c.082 0 .194.006.334.018l.44.035a12.546 12.546 0 0 0 .773.035c.445 0 .853-.123 1.222-.37.369-.245.697-.538.984-.878.287-.34.533-.691.738-1.055.205-.363.367-.662.484-.896l1.3-2.531-8.19-18.124h3.638l5.22 12.27zM538.054 377h9.72v24.188h6.206V404h-15.926v-2.813h6.468V379.83h-6.468V377zm28.496 27.352c-1.336 0-2.564-.229-3.683-.686a8.356 8.356 0 0 1-2.874-1.916 8.765 8.765 0 0 1-1.863-2.918c-.445-1.125-.668-2.35-.668-3.674v-.738c0-1.535.246-2.91.738-4.122.492-1.213 1.146-2.238 1.96-3.076a8.551 8.551 0 0 1 2.778-1.925 8.012 8.012 0 0 1 3.19-.668c1.371 0 2.57.237 3.595.712a7.055 7.055 0 0 1 2.557 1.969c.68.837 1.187 1.825 1.52 2.961.335 1.137.502 2.368.502 3.692v1.459h-13.588a7.47 7.47 0 0 0 .5 2.443 6.347 6.347 0 0 0 1.231 1.995 5.685 5.685 0 0 0 1.872 1.345c.727.328 1.53.492 2.409.492 1.16 0 2.191-.234 3.093-.703a6.71 6.71 0 0 0 2.25-1.863l1.987 1.547c-.317.48-.712.94-1.187 1.38-.474.44-1.022.829-1.643 1.169a9.247 9.247 0 0 1-2.11.817c-.785.205-1.64.308-2.566.308zm-.422-17.051c-.656 0-1.277.12-1.863.36a4.862 4.862 0 0 0-1.582 1.055 6.014 6.014 0 0 0-1.187 1.705c-.322.674-.548 1.45-.677 2.329h10.23v-.246a7.261 7.261 0 0 0-.36-1.881 5.24 5.24 0 0 0-.905-1.67 4.53 4.53 0 0 0-1.503-1.195c-.603-.305-1.321-.457-2.153-.457z" fill="#3EB0FD"/><path d="M208.396 425h9.721v24.188h6.205V452h-15.926v-2.813h6.47V427.83h-6.47V425zm32.592 27a3.542 3.542 0 0 1-.307-.923c-.077-.369-.132-.753-.167-1.151a9.102 9.102 0 0 1-1.099.931c-.404.293-.85.551-1.336.774a8.234 8.234 0 0 1-1.556.527 7.696 7.696 0 0 1-1.757.194c-1.008 0-1.92-.147-2.734-.44-.814-.293-1.506-.688-2.074-1.186a5.173 5.173 0 0 1-1.318-1.776 5.325 5.325 0 0 1-.466-2.223c0-1.043.208-1.957.624-2.743a5.436 5.436 0 0 1 1.766-1.96c.762-.521 1.68-.91 2.751-1.169 1.073-.257 2.27-.386 3.595-.386h3.55v-1.494a3.65 3.65 0 0 0-.315-1.547 3.307 3.307 0 0 0-.897-1.17 4.12 4.12 0 0 0-1.415-.746 6.202 6.202 0 0 0-1.872-.264c-.645 0-1.222.082-1.732.246-.51.164-.94.381-1.292.65-.351.27-.624.59-.817.959a2.45 2.45 0 0 0-.29 1.15h-3.27c.012-.69.191-1.37.537-2.038.345-.668.843-1.269 1.494-1.802.65-.533 1.441-.964 2.373-1.292.932-.328 1.99-.492 3.173-.492 1.078 0 2.08.132 3.006.395.925.264 1.725.663 2.399 1.196a5.654 5.654 0 0 1 1.59 1.995c.388.797.58 1.728.58 2.795v8.842c0 .632.06 1.303.177 2.012.117.71.28 1.327.492 1.855V452h-3.393zm-5.748-2.479c.633 0 1.225-.082 1.776-.246a6.578 6.578 0 0 0 1.503-.65c.45-.27.84-.577 1.168-.923.329-.346.586-.706.774-1.08v-3.85h-3.024c-1.898 0-3.374.28-4.43.843-1.054.563-1.581 1.447-1.581 2.655 0 .468.079.902.237 1.3.158.399.396.742.712 1.029.316.287.715.512 1.195.676.48.164 1.037.246 1.67.246zm29.973-6.82c0 1.36-.164 2.628-.492 3.806-.328 1.178-.809 2.2-1.442 3.067a6.814 6.814 0 0 1-2.346 2.04c-.932.491-2.001.738-3.208.738-1.22 0-2.277-.217-3.173-.65a6.451 6.451 0 0 1-2.294-1.864L252.1 452h-2.989v-27h3.252v10.02a6.238 6.238 0 0 1 2.25-1.776c.88-.41 1.905-.615 3.076-.615 1.22 0 2.297.24 3.235.72a6.69 6.69 0 0 1 2.355 2.005c.633.855 1.114 1.877 1.442 3.067.328 1.19.492 2.493.492 3.911v.37zm-3.252-.369c0-.926-.09-1.808-.273-2.645-.181-.838-.471-1.577-.87-2.215a4.467 4.467 0 0 0-1.564-1.52c-.645-.376-1.436-.563-2.373-.563-.563 0-1.078.073-1.547.22a4.405 4.405 0 0 0-1.257.615c-.369.263-.697.574-.984.931-.287.358-.53.747-.73 1.17v8.314c.211.422.46.811.747 1.169.287.357.619.67.994.94a4.4 4.4 0 0 0 1.265.624c.469.147.985.22 1.547.22.89 0 1.655-.185 2.294-.554.639-.37 1.16-.87 1.564-1.503.405-.633.704-1.365.897-2.197.193-.832.29-1.711.29-2.637v-.369zm16.139 10.02c-1.336 0-2.564-.229-3.683-.686a8.356 8.356 0 0 1-2.874-1.916 8.765 8.765 0 0 1-1.863-2.918c-.446-1.125-.668-2.35-.668-3.674v-.738c0-1.535.246-2.91.738-4.122.492-1.213 1.146-2.238 1.96-3.076a8.551 8.551 0 0 1 2.777-1.925 8.012 8.012 0 0 1 3.19-.668c1.372 0 2.57.237 3.595.712a7.055 7.055 0 0 1 2.558 1.969c.68.837 1.187 1.825 1.52 2.961.335 1.137.502 2.368.502 3.692v1.459h-13.588a7.47 7.47 0 0 0 .5 2.443 6.347 6.347 0 0 0 1.231 1.995 5.685 5.685 0 0 0 1.872 1.345c.727.328 1.53.492 2.408.492 1.16 0 2.192-.234 3.094-.703a6.71 6.71 0 0 0 2.25-1.863l1.986 1.547c-.316.48-.711.94-1.186 1.38-.475.44-1.023.829-1.644 1.169a9.247 9.247 0 0 1-2.109.817c-.785.205-1.64.308-2.566.308zm-.422-17.051c-.657 0-1.278.12-1.864.36a4.862 4.862 0 0 0-1.582 1.055 6.014 6.014 0 0 0-1.186 1.705c-.322.674-.548 1.45-.677 2.329h10.23v-.246a7.261 7.261 0 0 0-.36-1.881 5.24 5.24 0 0 0-.905-1.67 4.53 4.53 0 0 0-1.503-1.195c-.603-.305-1.321-.457-2.153-.457zM290.81 425h9.72v24.188h6.205V452h-15.925v-2.813h6.468V427.83h-6.468V425zm26.632 24.89c0-.35.056-.68.167-.984.112-.304.273-.571.484-.8.21-.228.474-.407.79-.536a2.921 2.921 0 0 1 1.108-.193c.422 0 .794.064 1.116.193.323.13.592.308.809.536.217.229.38.496.492.8.112.305.167.633.167.985 0 .34-.055.659-.167.958-.111.298-.275.56-.492.782a2.21 2.21 0 0 1-.809.518 3.117 3.117 0 0 1-1.116.185c-.422 0-.79-.062-1.107-.185a2.138 2.138 0 0 1-.791-.518 2.282 2.282 0 0 1-.484-.782 2.722 2.722 0 0 1-.167-.958zm0-15.398c0-.351.056-.68.167-.984.112-.305.273-.571.484-.8.21-.229.474-.407.79-.536a2.921 2.921 0 0 1 1.108-.193c.422 0 .794.064 1.116.193.323.129.592.307.809.536.217.229.38.495.492.8.112.305.167.633.167.984 0 .34-.055.66-.167.958-.111.299-.275.56-.492.782a2.21 2.21 0 0 1-.809.519 3.117 3.117 0 0 1-1.116.185c-.422 0-.79-.062-1.107-.185a2.138 2.138 0 0 1-.791-.519 2.282 2.282 0 0 1-.484-.782 2.722 2.722 0 0 1-.167-.958z" fill="#47EBB4"/><path d="M355.785 449.24h12.516V452h-15.768v-25.594h3.252v22.834zm29.428 2.76a3.542 3.542 0 0 1-.308-.923c-.076-.369-.132-.753-.167-1.151a9.102 9.102 0 0 1-1.098.931c-.405.293-.85.551-1.336.774a8.234 8.234 0 0 1-1.556.527 7.696 7.696 0 0 1-1.758.194c-1.008 0-1.919-.147-2.733-.44-.815-.293-1.506-.688-2.074-1.186a5.173 5.173 0 0 1-1.319-1.776 5.325 5.325 0 0 1-.466-2.223c0-1.043.208-1.957.624-2.743a5.436 5.436 0 0 1 1.767-1.96c.762-.521 1.679-.91 2.751-1.169 1.072-.257 2.27-.386 3.595-.386h3.55v-1.494a3.65 3.65 0 0 0-.316-1.547 3.307 3.307 0 0 0-.896-1.17 4.12 4.12 0 0 0-1.415-.746 6.202 6.202 0 0 0-1.872-.264c-.645 0-1.222.082-1.732.246-.51.164-.94.381-1.292.65-.351.27-.624.59-.817.959a2.45 2.45 0 0 0-.29 1.15h-3.27c.012-.69.19-1.37.536-2.038.346-.668.844-1.269 1.494-1.802.65-.533 1.442-.964 2.373-1.292.932-.328 1.99-.492 3.173-.492 1.078 0 2.08.132 3.006.395.926.264 1.726.663 2.4 1.196a5.654 5.654 0 0 1 1.59 1.995c.387.797.58 1.728.58 2.795v8.842c0 .632.06 1.303.176 2.012.117.71.282 1.327.492 1.855V452h-3.392zm-5.748-2.479c.633 0 1.224-.082 1.775-.246a6.578 6.578 0 0 0 1.503-.65c.451-.27.841-.577 1.17-.923.327-.346.585-.706.773-1.08v-3.85h-3.024c-1.898 0-3.375.28-4.43.843-1.054.563-1.582 1.447-1.582 2.655 0 .468.08.902.238 1.3.158.399.395.742.712 1.029.316.287.714.512 1.195.676.48.164 1.037.246 1.67.246zm20.85-4.271l.843 2.303 5.801-14.573h3.639l-9.65 21.956a13.211 13.211 0 0 1-.853 1.564 7.934 7.934 0 0 1-1.257 1.53 6.686 6.686 0 0 1-1.723 1.177c-.656.316-1.412.475-2.267.475-.153 0-.323-.01-.51-.027a9.214 9.214 0 0 1-1.09-.167 56.66 56.66 0 0 1-.404-.088l.527-2.654c.082 0 .193.006.334.018l.44.035a12.546 12.546 0 0 0 .773.035c.445 0 .853-.123 1.222-.37.369-.245.697-.538.984-.878.287-.34.533-.691.738-1.055.205-.363.367-.662.484-.896l1.3-2.531-8.19-18.124h3.638l5.22 12.27zm12.693-2.936c0-1.37.199-2.645.597-3.823.399-1.178.97-2.2 1.714-3.067a7.981 7.981 0 0 1 2.716-2.048c1.067-.498 2.268-.747 3.604-.747 1.347 0 2.557.249 3.63.747a7.959 7.959 0 0 1 2.724 2.048c.744.867 1.316 1.89 1.714 3.067.398 1.178.598 2.452.598 3.823v.387c0 1.371-.2 2.643-.598 3.815-.398 1.172-.97 2.191-1.714 3.058a7.884 7.884 0 0 1-2.716 2.04c-1.066.491-2.267.738-3.603.738-1.348 0-2.558-.247-3.63-.739a7.863 7.863 0 0 1-2.725-2.039c-.744-.867-1.315-1.886-1.714-3.058-.398-1.172-.597-2.444-.597-3.815v-.387zm3.252.387c0 .938.111 1.831.334 2.68.222.85.56 1.598 1.01 2.242a4.989 4.989 0 0 0 1.697 1.53c.68.374 1.47.562 2.373.562.89 0 1.673-.188 2.347-.563a5.016 5.016 0 0 0 1.687-1.529 6.935 6.935 0 0 0 1.01-2.241c.223-.85.335-1.743.335-2.68v-.388c0-.925-.115-1.813-.343-2.663a7.075 7.075 0 0 0-1.02-2.24 5.104 5.104 0 0 0-1.687-1.539c-.674-.38-1.462-.571-2.364-.571-.903 0-1.688.19-2.356.571a5.133 5.133 0 0 0-1.679 1.538 6.935 6.935 0 0 0-1.01 2.241c-.223.85-.334 1.738-.334 2.663v.387zm30.605 6.68a6.772 6.772 0 0 1-2.373 2.188c-.949.522-2.045.783-3.287.783-.996 0-1.898-.156-2.707-.466a5.19 5.19 0 0 1-2.074-1.45c-.574-.657-1.017-1.492-1.327-2.505-.31-1.014-.466-2.23-.466-3.648V432.98h3.252v11.338c0 1.032.082 1.887.246 2.567.164.68.41 1.221.738 1.626.328.404.73.688 1.204.852.475.164 1.023.246 1.644.246 1.324 0 2.393-.27 3.208-.808a4.906 4.906 0 0 0 1.82-2.18v-13.64h3.269V452h-2.953l-.194-2.62zm15.963-21.006v4.605h7.242v2.514h-7.242v10.336c0 .738.094 1.348.281 1.828.188.48.446.864.774 1.152.328.287.706.489 1.134.606.427.117.881.176 1.362.176.351 0 .715-.02 1.09-.062.375-.04.741-.09 1.098-.15.358-.058.692-.12 1.002-.184.31-.064.566-.12.765-.167l.457 2.303a4.55 4.55 0 0 1-.984.43c-.387.124-.809.23-1.266.317-.457.088-.94.155-1.45.202-.51.047-1.017.07-1.52.07-.844 0-1.633-.12-2.365-.36a4.9 4.9 0 0 1-1.907-1.142c-.54-.522-.964-1.196-1.275-2.022-.31-.826-.465-1.825-.465-2.997v-10.336h-4.993v-2.514h4.993v-4.605h3.27zm46.902 17.156c0-.785-.178-1.447-.536-1.986a4.779 4.779 0 0 0-1.38-1.362 8.98 8.98 0 0 0-1.854-.923 51.721 51.721 0 0 0-1.942-.668 29.255 29.255 0 0 1-2.751-1.055 11.994 11.994 0 0 1-2.55-1.512 7.616 7.616 0 0 1-1.88-2.118c-.486-.814-.73-1.772-.73-2.874 0-1.101.244-2.086.73-2.953a7.089 7.089 0 0 1 1.907-2.197 8.592 8.592 0 0 1 2.672-1.362c.996-.311 1.998-.466 3.006-.466 1.113 0 2.185.184 3.217.553a8.89 8.89 0 0 1 2.742 1.556 7.616 7.616 0 0 1 1.916 2.426c.48.95.732 2.01.756 3.181h-3.34a7.105 7.105 0 0 0-.545-2.012 4.978 4.978 0 0 0-1.072-1.556 4.702 4.702 0 0 0-1.591-1.01c-.615-.24-1.31-.361-2.083-.361-.621 0-1.228.088-1.82.264-.591.175-1.119.44-1.581.79a3.952 3.952 0 0 0-1.108 1.301c-.275.516-.413 1.114-.413 1.793.012.739.2 1.363.562 1.873.364.51.824.94 1.38 1.292a9.25 9.25 0 0 0 1.81.878c.651.235 1.264.44 1.838.616.633.199 1.271.424 1.916.676.644.252 1.265.542 1.863.87.598.329 1.154.698 1.67 1.108.516.41.967.876 1.354 1.397.386.522.688 1.096.905 1.723.217.627.325 1.321.325 2.083 0 1.149-.255 2.15-.765 3.006a6.893 6.893 0 0 1-1.977 2.136 8.94 8.94 0 0 1-2.742 1.283c-1.02.287-2.04.43-3.059.43-1.137 0-2.25-.175-3.34-.527a9.588 9.588 0 0 1-2.927-1.52 7.965 7.965 0 0 1-2.1-2.426c-.54-.955-.826-2.042-.861-3.26h3.322c.105.796.322 1.502.65 2.117.328.616.75 1.137 1.266 1.565a5.31 5.31 0 0 0 1.784.967c.674.216 1.41.325 2.206.325.633 0 1.257-.08 1.872-.238a5.058 5.058 0 0 0 1.644-.738c.48-.334.873-.756 1.177-1.265.305-.51.457-1.117.457-1.82zm14.909-17.156v4.605h7.242v2.514h-7.242v10.336c0 .738.093 1.348.28 1.828.188.48.446.864.774 1.152.328.287.706.489 1.134.606.428.117.882.176 1.362.176.352 0 .715-.02 1.09-.062.375-.04.742-.09 1.099-.15.357-.058.691-.12 1.002-.184.31-.064.565-.12.765-.167l.457 2.303a4.55 4.55 0 0 1-.985.43c-.387.124-.808.23-1.265.317-.457.088-.94.155-1.45.202-.51.047-1.017.07-1.521.07-.844 0-1.632-.12-2.364-.36a4.9 4.9 0 0 1-1.908-1.142c-.539-.522-.963-1.196-1.274-2.022-.31-.826-.466-1.825-.466-2.997v-10.336h-4.992v-2.514h4.992v-4.605h3.27zm19.9 16.875l.844 2.303 5.8-14.573h3.64l-9.651 21.956a13.211 13.211 0 0 1-.853 1.564 7.934 7.934 0 0 1-1.256 1.53 6.686 6.686 0 0 1-1.723 1.177c-.656.316-1.412.475-2.268.475-.152 0-.322-.01-.51-.027a9.214 9.214 0 0 1-1.09-.167 56.635 56.635 0 0 1-.404-.088l.528-2.654c.082 0 .193.006.334.018l.44.035a12.546 12.546 0 0 0 .773.035c.445 0 .852-.123 1.221-.37.37-.245.698-.538.985-.878.287-.34.533-.691.738-1.055.205-.363.366-.662.483-.896l1.301-2.531-8.191-18.124h3.638l5.221 12.27zM558.656 425h9.721v24.188h6.205V452h-15.926v-2.813h6.469V427.83h-6.469V425zm28.496 27.352c-1.336 0-2.563-.229-3.682-.686a8.356 8.356 0 0 1-2.874-1.916 8.765 8.765 0 0 1-1.864-2.918c-.445-1.125-.668-2.35-.668-3.674v-.738c0-1.535.247-2.91.739-4.122.492-1.213 1.145-2.238 1.96-3.076a8.551 8.551 0 0 1 2.777-1.925 8.012 8.012 0 0 1 3.19-.668c1.372 0 2.57.237 3.595.712a7.055 7.055 0 0 1 2.558 1.969c.68.837 1.186 1.825 1.52 2.961.334 1.137.501 2.368.501 3.692v1.459h-13.588a7.47 7.47 0 0 0 .501 2.443 6.347 6.347 0 0 0 1.23 1.995 5.685 5.685 0 0 0 1.873 1.345c.726.328 1.53.492 2.408.492 1.16 0 2.192-.234 3.094-.703a6.71 6.71 0 0 0 2.25-1.863l1.986 1.547c-.316.48-.712.94-1.186 1.38-.475.44-1.023.829-1.644 1.169a9.247 9.247 0 0 1-2.11.817c-.784.205-1.64.308-2.566.308zm-.422-17.051c-.656 0-1.277.12-1.863.36a4.862 4.862 0 0 0-1.582 1.055 6.014 6.014 0 0 0-1.186 1.705c-.323.674-.548 1.45-.677 2.329h10.23v-.246a7.261 7.261 0 0 0-.36-1.881 5.24 5.24 0 0 0-.905-1.67 4.53 4.53 0 0 0-1.503-1.195c-.604-.305-1.321-.457-2.154-.457z" fill="#3EB0FD"/></g></g></svg>