<svg width="1081" height="321" viewBox="0 0 1081 321" xmlns="http://www.w3.org/2000/svg"><g fill="none" fill-rule="evenodd"><g opacity=".4" fill="#D9ECFC"><path opacity=".497" d="M47.7 102.5v-12h12v12z"/><path d="M50.9 99.3v-5.6h5.6v5.6z"/><path opacity=".5" d="M132.5 74.5V64.1h10.4v10.4zm-120 128v-10.4h10.4v10.4z"/><path d="M14.9 200.1v-5.6h5.6v5.6z"/><path opacity=".5" d="M188.5 44.1V33.7h10.4v10.4z"/><path d="M190.9 41.7v-5.6h5.6v5.6zm-48 128v-6.4h6.4v6.4z"/><path opacity=".5" d="M239.7 96.9v-8.8h8.8v8.8z"/><path d="M242.1 94.5v-4h4v4zM.5 152.1v-8.8h8.8v8.8z"/><path d="M2.9 149.7v-4h4v4zm262.4 9.6v-6.4h6.4v6.4zm-79.2 2.4v-5.6h5.6v5.6zm72.8-112v-5.6h5.6v5.6z"/></g><g fill="#D9ECFC"><path opacity=".497" d="M104 124v-15h15v15z"/><path d="M108 120v-7h7v7z"/><path opacity=".5" d="M155 193v-13h13v13z"/><path d="M159 189v-5h5v5z"/><path opacity=".5" d="M210 89V76h13v13z"/><path d="M213 86v-7h7v7z"/><path opacity=".5" d="M60 249v-13h13v13z"/><path d="M63 246v-7h7v7zm219-143v-5h5v5z"/><path opacity=".5" d="M280 51V38h13v13z"/><path d="M283 48v-7h7v7zm-60 160v-8h8v8z"/><path opacity=".5" d="M308 108V97h11v11z"/><path d="M311 105v-5h5v5zM45 186v-11h11v11z"/><path d="M48 183v-5h5v5z"/><path opacity=".445" d="M346 235v-8h8v8z"/><path d="M277 198v-7h7v7zm91-140v-7h7v7z"/></g><g fill="#D9ECFC"><path opacity=".3" d="M329.5 259.5v15h-15v-15z"/><path opacity=".8" d="M325.5 263.5v7h-7v-7z"/><path opacity=".3" d="M830 176v14h-14v-14z"/><path opacity=".8" d="M826 180v6h-6v-6z"/><path opacity=".2" d="M263.5 224.5v13h-13v-13z"/><path opacity=".8" d="M260.5 227.5v7h-7v-7z"/><path opacity=".3" d="M331.5 66.5v13h-13v-13z"/><path d="M328.5 69.5v7h-7v-7z"/><path opacity=".3" d="M191.5 210.5v5h-5v-5z"/><path opacity=".4" d="M193.5 262.5v13h-13v-13z"/><path opacity=".8" d="M190.5 265.5v7h-7v-7z"/><path opacity=".4" d="M129.5 176.5v11h-11v-11z"/><path opacity=".7" d="M126.5 179.5v5h-5v-5z"/><path opacity=".4" d="M98.5 77.5v11h-11v-11z"/><path opacity=".7" d="M95.5 80.5v5h-5v-5z"/><path opacity=".3" d="M37.5 118.5v8h-8v-8z"/><path opacity=".6" d="M176.5 85.5v7h-7v-7z"/><path opacity=".5" d="M85.5 235.5v7h-7v-7z"/><path opacity=".3" d="M764 245v15h-15v-15z"/><path opacity=".8" d="M760 249v7h-7v-7z"/></g><g fill="#D9ECFC"><path opacity=".3" d="M781 236v15h15v-15z"/><path opacity=".8" d="M785 240v7h7v-7z"/><path opacity=".2" d="M847 201v13h13v-13z"/><path opacity=".8" d="M850 204v7h7v-7z"/><path opacity=".3" d="M779 43v13h13V43z"/><path d="M782 46v7h7v-7z"/><path opacity=".3" d="M919 187v5h5v-5z"/><path opacity=".4" d="M917 239v13h13v-13z"/><path opacity=".8" d="M920 242v7h7v-7z"/><path opacity=".4" d="M981 153v11h11v-11z"/><path opacity=".7" d="M984 156v5h5v-5z"/><path opacity=".4" d="M992 54v11h11V54z"/><path opacity=".7" d="M995 57v5h5v-5z"/><path opacity=".3" d="M1073 95v8h8v-8z"/><path opacity=".6" d="M934 62v7h7v-7z"/></g><g opacity=".4" fill="#D9ECFC"><path opacity=".497" d="M737.7 92.5v-12h12v12z"/><path d="M740.9 89.3v-5.6h5.6v5.6z"/><path opacity=".5" d="M822.5 64.5V54.1h10.4v10.4zm-120 128v-10.4h10.4v10.4z"/><path d="M704.9 190.1v-5.6h5.6v5.6z"/><path opacity=".5" d="M878.5 34.1V23.7h10.4v10.4z"/><path d="M880.9 31.7v-5.6h5.6v5.6zm-48 128v-6.4h6.4v6.4z"/><path opacity=".5" d="M929.7 86.9v-8.8h8.8v8.8z"/><path d="M932.1 84.5v-4h4v4zm-241.6 57.6v-8.8h8.8v8.8z"/><path d="M692.9 139.7v-4h4v4zm262.4 9.6v-6.4h6.4v6.4zm-79.2 2.4v-5.6h5.6v5.6zm72.8-112v-5.6h5.6v5.6z"/></g><g fill="#D9ECFC"><path opacity=".35" d="M1013.582 124.418v-15h-15v15z"/><path opacity=".8" d="M1009.582 120.418v-7h-7v7z"/><path opacity=".3" d="M962.582 193.418v-13h-13v13z"/><path opacity=".8" d="M958.582 189.418v-5h-5v5z"/><path opacity=".2" d="M907.582 89.418v-13h-13v13z"/><path opacity=".8" d="M904.582 86.418v-7h-7v7z"/><path opacity=".3" d="M835.582 103.418v-5h-5v5z"/><path opacity=".4" d="M837.582 51.418v-13h-13v13z"/><path opacity=".8" d="M834.582 48.418v-7h-7v7z"/><path opacity=".5" d="M894.582 208.418v-8h-8v8z"/><path opacity=".4" d="M773.582 137.418v-11h-11v11z"/><path opacity=".7" d="M770.582 134.418v-5h-5v5z"/><path opacity=".4" d="M742.582 236.418v-11h-11v11z"/><path opacity=".7" d="M739.582 233.418v-5h-5v5z"/><path opacity=".3" d="M681.582 195.418v-8h-8v8z"/><path opacity=".6" d="M860.582 248.418v-7h-7v7z"/><path opacity=".5" d="M729.582 78.418v-7h-7v7z"/></g><path d="M111.5 116.5l82 .043m.75 18.467H420.5m-227 0v-18.467M160.5 186.5l82 .043m.75-18.533H404.5m-162 18v-18M326.331 73H463.5M648.5 98.543h127m.75 18.467h226.25m-227 0V98.544M651.5 164.51l78.98-.01m89.895 18.5h-90.563m.188-.49v-18M752.5 252.5h-82.98M569.5 270.51l100.688.49m-.188-.49v-18" stroke="#D9ECFC" stroke-dasharray="2" stroke-linecap="square"/><g fill="#0495F3"><path d="M634.571 44.68c30.611 32.344 55.142 30.018 2.154 158.01-52.988 127.992-294.204 106.126-226.568-47.575C477.792 1.413 603.96 12.338 634.57 44.68z" opacity=".1"/><path d="M523.58 7.032c46.025-6.823 61.426-28.24 121.683 87.455C705.52 210.18 520.056 395.513 450.497 253.299 380.94 111.084 477.557 13.856 523.581 7.032z" opacity=".15"/><path d="M406.035 86.64c19.53 79.577-59.078 9.018-55.322 89.162 3.755 80.144 120.49 26.963 210.64 126.553 90.151 99.59 158.444-238.835 60.64-265.826C524.19 9.54 386.504 7.063 406.035 86.64z" opacity=".1"/></g></g></svg>