<svg width="118" height="15" xmlns="http://www.w3.org/2000/svg"><path d="M98.446 2.548a2.539 2.539 0 0 0 2.547 2.539 2.544 2.544 0 0 0 2.545-2.54A2.543 2.543 0 0 0 100.993.01a2.538 2.538 0 0 0-2.547 2.539m14.089-.001a2.539 2.539 0 0 0 2.548 2.539 2.544 2.544 0 0 0 2.545-2.54A2.543 2.543 0 0 0 115.083.01a2.538 2.538 0 0 0-2.548 2.539m-27.668-.001a2.539 2.539 0 0 0 2.547 2.539 2.539 2.539 0 0 0 0-5.078 2.538 2.538 0 0 0-2.547 2.539m-14.427 0a2.54 2.54 0 0 0 2.534 2.539 2.551 2.551 0 0 0 2.557-2.54A2.55 2.55 0 0 0 72.974.01a2.54 2.54 0 0 0-2.535 2.539M56.86 2.548a2.544 2.544 0 0 0 5.086 0 2.543 2.543 0 1 0-5.086 0m-13.58 0a2.539 2.539 0 0 0 2.548 2.539 2.544 2.544 0 0 0 2.545-2.54A2.543 2.543 0 0 0 45.828.01a2.538 2.538 0 0 0-2.547 2.539m-14.428-.001A2.539 2.539 0 0 0 31.4 5.087a2.539 2.539 0 0 0 0-5.078 2.538 2.538 0 0 0-2.547 2.539m-13.579 0a2.548 2.548 0 0 0 4.348 1.797 2.537 2.537 0 0 0 .744-1.798A2.536 2.536 0 0 0 17.824.01a2.547 2.547 0 0 0-2.55 2.539M.872 2.548a2.54 2.54 0 0 0 2.534 2.539 2.551 2.551 0 0 0 2.558-2.54A2.55 2.55 0 0 0 3.406.01 2.54 2.54 0 0 0 .872 2.548" fill="#3EB0FD" opacity=".25"/></svg>