<svg width="324" height="796" viewBox="0 0 324 796" xmlns="http://www.w3.org/2000/svg"><g fill="none" fill-rule="evenodd"><g opacity=".35"><g opacity=".9"><path stroke="#FFF" stroke-width="1.28" d="M25.14 265.86v-79.72h48.72v79.72z"/><path fill="#FFF" fill-rule="nonzero" d="M25.799 258.143v-1.286H74.5v1.286z"/><path d="M34.24 265.214h-1.298V185.5h1.298v79.714zm8.442 0h-1.299V185.5h1.299v79.714zm7.792 0h-1.299V185.5h1.299v79.714zm7.792 0h-1.298V185.5h1.298v79.714zm7.792 0H64.76V185.5h1.298v79.714z" fill="#FFF" fill-rule="nonzero"/><path d="M25.799 250.429v-1.286H74.5v1.286H25.799zm0-8.358v-1.286H74.5v1.286H25.799zm0-7.714v-1.286H74.5v1.286H25.799zm0-7.714v-1.286H74.5v1.286H25.799zm0-7.714v-1.286H74.5v1.286H25.799zm0-8.358v-1.286H74.5v1.286H25.799zm0-7.714v-1.286H74.5v1.286H25.799zm0-7.714v-1.286H74.5v1.286H25.799z" fill="#FFF" fill-rule="nonzero"/></g><g opacity=".7"><path stroke="#FFF" stroke-width="1.12" d="M177.44 302.56v69.88h-41.88v-69.88z"/><path fill="#FFF" fill-rule="nonzero" d="M176.883 309.325v1.127H135v-1.127z"/><path d="M169.623 303.127h1.117V373h-1.117v-69.873zm-7.259 0h1.117V373h-1.117v-69.873zm-6.702 0h1.117V373h-1.117v-69.873zm-6.701 0h1.117V373h-1.117v-69.873zm-6.701 0h1.117V373h-1.117v-69.873z" fill="#FFF" fill-rule="nonzero"/><path d="M176.883 316.087v1.127H135v-1.127h41.883zm0 7.326v1.127H135v-1.127h41.883zm0 6.762v1.127H135v-1.127h41.883zm0 6.762v1.127H135v-1.127h41.883zm0 6.761v1.127H135v-1.127h41.883zm0 7.326v1.127H135v-1.127h41.883zm0 6.762v1.127H135v-1.127h41.883zm0 6.762v1.127H135v-1.127h41.883z" fill="#FFF" fill-rule="nonzero"/></g><g opacity=".5" fill="#FFF" fill-rule="nonzero"><path d="M163.389 153.454h1.445V208h-1.445z"/><path d="M155.444 162.91v-1.455H245v1.454h-89.556zm0 9.453v-1.454H245v1.454h-89.556zm0 8.728v-1.454H245v1.454h-89.556zm0 8.727v-1.454H245v1.454h-89.556zm0 8.727v-1.454H245v1.454h-89.556z"/><path d="M172.056 153.454h1.444V208h-1.444v-54.546zm9.388 0h1.444V208h-1.444v-54.546zm8.667 0h1.444V208h-1.444v-54.546zm8.666 0h1.445V208h-1.445v-54.546zm8.667 0h1.444V208h-1.444v-54.546zm9.39 0h1.444V208h-1.445v-54.546zm8.666 0h1.444V208H225.5v-54.546zm8.666 0h1.445V208h-1.445v-54.546z"/></g><g opacity=".3"><path stroke="#FFF" stroke-width="2" d="M66 604v-74h38v74z"/><path d="M80 604h-2v-75h2v75zm13 0h-2v-75h2v75z" fill="#FFF" fill-rule="nonzero"/><path d="M67 593v-2h37v2H67zm0-12v-2h37v2H67zm0-13v-2h37v2H67zm0-12v-2h37v2H67zm0-12v-2h37v2H67z" fill="#FFF" fill-rule="nonzero"/></g></g><g opacity=".7"><path stroke="#FFF" stroke-width="1.28" d="M33.14 256.86v-79.72h48.72v79.72z"/><path fill="#FFF" fill-rule="nonzero" d="M33.799 249.143v-1.286H82.5v1.286z"/><path d="M42.24 256.214h-1.298V176.5h1.298v79.714zm8.442 0h-1.299V176.5h1.299v79.714zm7.792 0h-1.299V176.5h1.299v79.714zm7.792 0h-1.298V176.5h1.298v79.714zm7.792 0H72.76V176.5h1.298v79.714z" fill="#FFF" fill-rule="nonzero"/><path d="M33.799 241.429v-1.286H82.5v1.286H33.799zm0-8.358v-1.286H82.5v1.286H33.799zm0-7.714v-1.286H82.5v1.286H33.799zm0-7.714v-1.286H82.5v1.286H33.799zm0-7.714v-1.286H82.5v1.286H33.799zm0-8.358v-1.286H82.5v1.286H33.799zm0-7.714v-1.286H82.5v1.286H33.799zm0-7.714v-1.286H82.5v1.286H33.799z" fill="#FFF" fill-rule="nonzero"/></g><g opacity=".6"><path stroke="#FFF" stroke-width="1.12" d="M184.44 294.56v69.88h-41.88v-69.88z"/><path fill="#FFF" fill-rule="nonzero" d="M183.883 301.325v1.127H142v-1.127z"/><path d="M176.623 295.127h1.117V365h-1.117v-69.873zm-7.259 0h1.117V365h-1.117v-69.873zm-6.702 0h1.117V365h-1.117v-69.873zm-6.701 0h1.117V365h-1.117v-69.873zm-6.701 0h1.117V365h-1.117v-69.873z" fill="#FFF" fill-rule="nonzero"/><path d="M183.883 308.087v1.127H142v-1.127h41.883zm0 7.326v1.127H142v-1.127h41.883zm0 6.762v1.127H142v-1.127h41.883zm0 6.762v1.127H142v-1.127h41.883zm0 6.761v1.127H142v-1.127h41.883zm0 7.326v1.127H142v-1.127h41.883zm0 6.762v1.127H142v-1.127h41.883zm0 6.762v1.127H142v-1.127h41.883z" fill="#FFF" fill-rule="nonzero"/></g><g opacity=".5" fill="#FFF" fill-rule="nonzero"><path d="M172.389 143.454h1.445V198h-1.445z"/><path d="M164.444 152.91v-1.455H254v1.454h-89.556zm0 9.453v-1.454H254v1.454h-89.556zm0 8.728v-1.454H254v1.454h-89.556zm0 8.727v-1.454H254v1.454h-89.556zm0 8.727v-1.454H254v1.454h-89.556z"/><path d="M181.056 143.454h1.444V198h-1.444v-54.546zm9.388 0h1.444V198h-1.444v-54.546zm8.667 0h1.444V198h-1.444v-54.546zm8.666 0h1.445V198h-1.445v-54.546zm8.667 0h1.444V198h-1.444v-54.546zm9.39 0h1.444V198h-1.445v-54.546zm8.666 0h1.444V198H234.5v-54.546zm8.666 0h1.445V198h-1.445v-54.546z"/></g><g opacity=".334"><path stroke="#FFF" stroke-width="2" d="M78 592v-74h38v74z"/><path d="M92 592h-2v-75h2v75zm13 0h-2v-75h2v75z" fill="#FFF" fill-rule="nonzero"/><path d="M79 581v-2h37v2H79zm0-12v-2h37v2H79zm0-13v-2h37v2H79zm0-12v-2h37v2H79zm0-12v-2h37v2H79z" fill="#FFF" fill-rule="nonzero"/></g><path d="M63.017 382.06a.683.683 0 0 0-.969 0l-9.204 9.277a.693.693 0 0 0 0 .976.683.683 0 0 0 .97 0l9.203-9.277a.693.693 0 0 0 0-.977zm0-8.976a.683.683 0 0 0-.969 0l-17.043 17.178a.693.693 0 0 0 0 .976.683.683 0 0 0 .969 0l17.043-17.178a.693.693 0 0 0 0-.976zm0-8.977a.683.683 0 0 0-.969 0l-27.662 27.881a.693.693 0 0 0 0 .976.683.683 0 0 0 .97 0l27.661-27.88a.693.693 0 0 0 0-.977zm0-8.976a.683.683 0 0 0-.969 0l-36.567 36.857a.693.693 0 0 0 0 .976.683.683 0 0 0 .968 0l36.568-36.857a.693.693 0 0 0 0-.976zm0-9.666a.683.683 0 0 0-.969 0L15.89 391.988a.693.693 0 0 0 0 .976.683.683 0 0 0 .968 0l46.16-46.523a.693.693 0 0 0 0-.976zm0-8.977a.683.683 0 0 0-.969 0L6.641 392.333a.693.693 0 0 0 0 .976.683.683 0 0 0 .969 0l55.407-55.845a.693.693 0 0 0 0-.976zm-8.906 0a.683.683 0 0 0-.968 0l-55.408 55.844a.693.693 0 0 0 0 .977.683.683 0 0 0 .97 0l55.407-55.845a.693.693 0 0 0 0-.976h-.001zm-9.59 0a.683.683 0 0 0-.969 0l-55.407 55.844a.693.693 0 0 0 0 .977.683.683 0 0 0 .968 0l55.407-55.845a.693.693 0 0 0 0-.976zm-8.906 0a.683.683 0 0 0-.97 0l-55.407 55.844a.693.693 0 0 0 0 .977.683.683 0 0 0 .97 0l55.407-55.845a.693.693 0 0 0 0-.976zm-9.591 0a.683.683 0 0 0-.969 0l-55.407 55.845a.693.693 0 0 0 0 .976.683.683 0 0 0 .968 0l55.408-55.845a.693.693 0 0 0 0-.976zm-9.591 0a.683.683 0 0 0-.968 0l-45.132 45.488a.693.693 0 0 0 0 .977.683.683 0 0 0 .969 0l45.131-45.488a.693.693 0 0 0 0-.977zm-8.906 0a.683.683 0 0 0-.969 0l-36.91 37.202a.693.693 0 0 0 0 .977.683.683 0 0 0 .968 0l36.911-37.202a.693.693 0 0 0 0-.977zm-8.905 0a.683.683 0 0 0-.97 0l-28.004 28.226a.693.693 0 0 0 0 .977.683.683 0 0 0 .968 0l28.005-28.226a.693.693 0 0 0 0-.977zm-9.591 0a.683.683 0 0 0-.97 0l-18.413 18.56a.693.693 0 0 0 0 .976.683.683 0 0 0 .968 0l18.415-18.56a.693.693 0 0 0 0-.976zm-8.906 0a.683.683 0 0 0-.969 0l-9.508 9.583a.693.693 0 0 0 0 .976.683.683 0 0 0 .968 0l9.509-9.583a.693.693 0 0 0 0-.976z" opacity=".359" fill="#FFF" fill-rule="nonzero"/><path d="M245.131 501.5a.605.605 0 0 0-.857 0l-8.138 8.158a.607.607 0 0 0 .857.858l8.138-8.157a.607.607 0 0 0 0-.859zm0-7.892a.605.605 0 0 0-.857 0l-15.07 15.105a.607.607 0 0 0 .857.858l15.07-15.105a.607.607 0 0 0 0-.858zm0-7.893a.605.605 0 0 0-.857 0l-24.459 24.516a.607.607 0 0 0 .857.858l24.46-24.516a.607.607 0 0 0 0-.858zm0-7.893a.605.605 0 0 0-.857 0l-32.333 32.409a.607.607 0 0 0 .856.858l32.334-32.409a.607.607 0 0 0 0-.858zm0-8.5a.605.605 0 0 0-.857 0l-40.813 40.909a.607.607 0 0 0 .856.858l40.814-40.908a.607.607 0 0 0 0-.858zm0-7.892a.605.605 0 0 0-.857 0l-48.992 49.105a.607.607 0 0 0 .857.858l48.992-49.105a.607.607 0 0 0 0-.858zm-7.875 0a.605.605 0 0 0-.856 0l-48.992 49.104a.607.607 0 0 0 .857.858l48.992-49.105a.607.607 0 0 0 0-.858h-.001zm-8.48 0a.605.605 0 0 0-.856 0l-48.992 49.104a.607.607 0 0 0 .856.858l48.992-49.105a.607.607 0 0 0 0-.858zm-7.874 0a.605.605 0 0 0-.857 0l-48.992 49.104a.607.607 0 0 0 .857.858l48.992-49.105a.607.607 0 0 0 0-.858zm-8.481 0a.605.605 0 0 0-.856 0l-48.992 49.105a.607.607 0 0 0 .856.858l48.992-49.105a.607.607 0 0 0 0-.858zm-8.48 0a.605.605 0 0 0-.856 0l-39.907 39.997a.607.607 0 0 0 .857.86l39.906-40a.607.607 0 0 0 0-.857zm-7.875 0a.605.605 0 0 0-.856 0l-32.637 32.711a.607.607 0 0 0 .856.86l32.637-32.712a.607.607 0 0 0 0-.86zm-7.874 0a.605.605 0 0 0-.858 0l-24.761 24.818a.607.607 0 0 0 .856.86l24.762-24.82a.607.607 0 0 0 0-.858h.001zm-8.48 0a.605.605 0 0 0-.858 0l-16.281 16.319a.607.607 0 0 0 .856.858l16.282-16.32a.607.607 0 0 0 0-.857zm-7.875 0a.605.605 0 0 0-.857 0l-8.407 8.426a.607.607 0 0 0 .856.858l8.408-8.426a.607.607 0 0 0 0-.858z" opacity=".9" fill="#FFF" fill-rule="nonzero"/><path d="M235.131 510.5a.605.605 0 0 0-.857 0l-8.138 8.158a.607.607 0 0 0 .857.858l8.138-8.157a.607.607 0 0 0 0-.859zm0-7.892a.605.605 0 0 0-.857 0l-15.07 15.105a.607.607 0 0 0 .857.858l15.07-15.105a.607.607 0 0 0 0-.858zm0-7.893a.605.605 0 0 0-.857 0l-24.459 24.516a.607.607 0 0 0 .857.858l24.46-24.516a.607.607 0 0 0 0-.858zm0-7.893a.605.605 0 0 0-.857 0l-32.333 32.409a.607.607 0 0 0 .856.858l32.334-32.409a.607.607 0 0 0 0-.858zm0-8.5a.605.605 0 0 0-.857 0l-40.813 40.909a.607.607 0 0 0 .856.858l40.814-40.908a.607.607 0 0 0 0-.858zm0-7.892a.605.605 0 0 0-.857 0l-48.992 49.105a.607.607 0 0 0 .857.858l48.992-49.105a.607.607 0 0 0 0-.858zm-7.875 0a.605.605 0 0 0-.856 0l-48.992 49.104a.607.607 0 0 0 .857.858l48.992-49.105a.607.607 0 0 0 0-.858h-.001zm-8.48 0a.605.605 0 0 0-.856 0l-48.992 49.104a.607.607 0 0 0 .856.858l48.992-49.105a.607.607 0 0 0 0-.858zm-7.874 0a.605.605 0 0 0-.857 0l-48.992 49.104a.607.607 0 0 0 .857.858l48.992-49.105a.607.607 0 0 0 0-.858zm-8.481 0a.605.605 0 0 0-.856 0l-48.992 49.105a.607.607 0 0 0 .856.858l48.992-49.105a.607.607 0 0 0 0-.858zm-8.48 0a.605.605 0 0 0-.856 0l-39.907 39.997a.607.607 0 0 0 .857.86l39.906-40a.607.607 0 0 0 0-.857zm-7.875 0a.605.605 0 0 0-.856 0l-32.637 32.711a.607.607 0 0 0 .856.86l32.637-32.712a.607.607 0 0 0 0-.86zm-7.874 0a.605.605 0 0 0-.858 0l-24.761 24.818a.607.607 0 0 0 .856.86l24.762-24.82a.607.607 0 0 0 0-.858h.001zm-8.48 0a.605.605 0 0 0-.858 0l-16.281 16.319a.607.607 0 0 0 .856.858l16.282-16.32a.607.607 0 0 0 0-.857zm-7.875 0a.605.605 0 0 0-.857 0l-8.407 8.426a.607.607 0 0 0 .856.858l8.408-8.426a.607.607 0 0 0 0-.858z" opacity=".224" fill="#FFF" fill-rule="nonzero"/><g transform="rotate(-180 65 149)" fill="#D9ECFC" fill-rule="nonzero"><circle style="mix-blend-mode:overlay" transform="rotate(-135 2.224 18.794)" cx="2.224" cy="18.794" r="1.503"/><circle style="mix-blend-mode:overlay" transform="rotate(-135 10.439 18.49)" cx="10.439" cy="18.491" r="1.503"/><circle style="mix-blend-mode:overlay" transform="rotate(-135 10.438 10.612)" cx="10.438" cy="10.612" r="1.503"/><circle style="mix-blend-mode:overlay" transform="rotate(-135 18.349 18.49)" cx="18.349" cy="18.491" r="1.503"/><circle style="mix-blend-mode:overlay" transform="rotate(-135 18.652 10.31)" cx="18.652" cy="10.309" r="1.503"/><circle style="mix-blend-mode:overlay" transform="rotate(-135 18.652 2.43)" cx="18.652" cy="2.43" r="1.503"/><circle style="mix-blend-mode:overlay" transform="rotate(-135 26.562 10.31)" cx="26.562" cy="10.309" r="1.503"/><circle style="mix-blend-mode:overlay" transform="rotate(-135 26.867 18.491)" cx="26.867" cy="18.491" r="1.503"/><circle style="mix-blend-mode:overlay" transform="rotate(-135 34.776 18.49)" cx="34.776" cy="18.491" r="1.503"/></g><g transform="translate(218 546)" fill="#D9ECFC" fill-rule="nonzero"><circle style="mix-blend-mode:overlay" transform="rotate(-135 1.731 15.035)" cx="1.731" cy="15.035" r="1.186"/><circle style="mix-blend-mode:overlay" transform="rotate(-135 8.126 14.794)" cx="8.126" cy="14.794" r="1.186"/><circle style="mix-blend-mode:overlay" transform="rotate(-135 8.126 8.49)" cx="8.126" cy="8.49" r="1.186"/><circle style="mix-blend-mode:overlay" transform="rotate(-135 14.282 14.793)" cx="14.282" cy="14.793" r="1.186"/><circle style="mix-blend-mode:overlay" transform="rotate(-135 14.518 8.248)" cx="14.518" cy="8.248" r="1.186"/><circle style="mix-blend-mode:overlay" transform="rotate(-135 14.518 1.944)" cx="14.518" cy="1.944" r="1.186"/><circle style="mix-blend-mode:overlay" transform="rotate(-135 20.674 8.247)" cx="20.674" cy="8.247" r="1.186"/><circle style="mix-blend-mode:overlay" transform="rotate(-135 20.912 14.793)" cx="20.912" cy="14.793" r="1.186"/><circle style="mix-blend-mode:overlay" transform="rotate(-135 27.069 14.793)" cx="27.069" cy="14.793" r="1.186"/></g><g transform="translate(262 70)" fill="#D9ECFC" fill-rule="nonzero"><circle style="mix-blend-mode:overlay" transform="rotate(-135 1.863 15.215)" cx="1.863" cy="15.215" r="1.238"/><circle style="mix-blend-mode:overlay" transform="rotate(-135 8.745 14.97)" cx="8.745" cy="14.969" r="1.238"/><circle style="mix-blend-mode:overlay" transform="rotate(-135 8.745 8.59)" cx="8.745" cy="8.591" r="1.238"/><circle style="mix-blend-mode:overlay" transform="rotate(-135 15.373 14.97)" cx="15.373" cy="14.969" r="1.238"/><circle style="mix-blend-mode:overlay" transform="rotate(-135 15.627 8.345)" cx="15.627" cy="8.345" r="1.238"/><circle style="mix-blend-mode:overlay" transform="rotate(-135 15.627 1.967)" cx="15.627" cy="1.967" r="1.238"/><circle style="mix-blend-mode:overlay" transform="rotate(-135 22.255 8.345)" cx="22.255" cy="8.345" r="1.238"/><circle style="mix-blend-mode:overlay" transform="rotate(-135 22.51 14.97)" cx="22.509" cy="14.969" r="1.238"/><circle style="mix-blend-mode:overlay" transform="rotate(-135 29.137 14.97)" cx="29.137" cy="14.969" r="1.238"/></g><g transform="translate(32 474)" fill="#D9ECFC" fill-rule="nonzero"><circle style="mix-blend-mode:overlay" transform="rotate(-135 1.563 12.53)" cx="1.563" cy="12.53" r="1.029"/><circle style="mix-blend-mode:overlay" transform="rotate(-135 7.334 12.327)" cx="7.334" cy="12.327" r="1.029"/><circle style="mix-blend-mode:overlay" transform="rotate(-135 7.334 7.074)" cx="7.334" cy="7.074" r="1.029"/><circle style="mix-blend-mode:overlay" transform="rotate(-135 12.893 12.328)" cx="12.893" cy="12.328" r="1.029"/><circle style="mix-blend-mode:overlay" transform="rotate(-135 13.107 6.873)" cx="13.107" cy="6.873" r="1.029"/><circle style="mix-blend-mode:overlay" transform="rotate(-135 13.107 1.62)" cx="13.107" cy="1.62" r="1.029"/><circle style="mix-blend-mode:overlay" transform="rotate(-135 18.666 6.873)" cx="18.666" cy="6.873" r="1.029"/><circle style="mix-blend-mode:overlay" transform="rotate(-135 18.879 12.328)" cx="18.879" cy="12.328" r="1.029"/><circle style="mix-blend-mode:overlay" transform="rotate(-135 24.437 12.328)" cx="24.437" cy="12.328" r="1.029"/></g><path d="M35 297.796l-5.196 8.804-5.204-8.804H35zm89-153.797l-6.505 11-6.495-11h13zm87.4-127.964l-7.995 14.407-8.005-14.407h16zm-136 401.756l-5.2 9.604-5.2-9.604h10.4zm-42-334.372L41 69.813l7.6 13.606H33.4zM71 20.108l4.685-8.109 4.682 8.109H71zm167.2 252.815l6.805-11.205 6.795 11.205h-13.6zm-8.4 51.624l4.799-8.004 4.801 8.004h-9.6zm-64 74.435l5.594-9.604 5.606 9.604h-11.2zm54.6 228.053l-7.995 14.407-8.005-14.407h16zm-178 67.384l7.6-13.606 7.6 13.606H42.4zM80 631.108l4.685-8.109 4.682 8.109H80z" style="mix-blend-mode:overlay" fill="#D9ECFC" fill-rule="nonzero"/><path d="M59.11 140.122l5.196-8.804 5.203 8.804H59.11zm208 191.676l11.2-19.209 11.2 19.21-22.4-.001zM17.51 445.833l9.206-16.007 9.193 16.007H17.51zm195.2 6.05l7.995-14.407 8.004 14.407H212.71zm66-331.756l5.2-9.605 5.2 9.605h-10.4zm-92.8 144.868l-6.806 11.205-6.795-11.205h13.601zm8.4-51.625l-4.8 8.005-4.8-8.004 9.6-.001zm44-154.434l-5.595 9.604-5.606-9.604h11.201z" style="mix-blend-mode:overlay" fill="#D9ECFC" fill-opacity=".4" fill-rule="nonzero"/><path d="M298.6 392.965l7.995-14.407 8.005 14.407h-16zm-12 103.616l-7.6 13.606-7.6-13.606h15.2zm-14.8-290.504l-6.805 11.205-6.795-11.205h13.6zm-21.6 178.376l-4.799 8.004-4.801-8.004h9.6zM149 623.204l5.196-8.804 5.204 8.804H149zM67 754.88l11.2-19.209 11.2 19.21-22.4-.001zm221.6-121.671l5.2-9.604 5.2 9.604h-10.4zm-92.8 144.868l-6.805 11.205-6.795-11.205h13.6zm8.4-51.624l-4.799 8.004-4.801-8.004h9.6zm64-74.435l-5.594 9.604-5.606-9.604h11.2z" style="mix-blend-mode:overlay" fill="#D9ECFC" fill-opacity=".3" fill-rule="nonzero"/><path d="M-2 412.204l5.196-8.804 5.204 8.804H-2zM146 573.88l11.2-19.209 11.2 19.21-22.4-.001zm-8.4-151.671l5.2-9.604 5.2 9.604h-10.4zM44.8 567.077l-6.805 11.205-6.795-11.205h13.6zm8.4-51.624l-4.799 8.004-4.801-8.004h9.6zm64-74.435l-5.594 9.604-5.606-9.604h11.2z" style="mix-blend-mode:overlay" fill="#D9ECFC" fill-opacity=".15" fill-rule="nonzero"/><path d="M111.777 108.726a1.27 1.27 0 0 0-1.273-1.27c-.702 0-1.272.569-1.273 1.27.002.702.571 1.27 1.273 1.269a1.269 1.269 0 0 0 1.273-1.27m0-6.768a1.272 1.272 0 1 0-2.544.003 1.272 1.272 0 0 0 2.544-.004m0-7.194a1.274 1.274 0 0 0-2.546 0 1.27 1.27 0 0 0 1.273 1.27 1.268 1.268 0 0 0 1.273-1.27m0-6.773a1.27 1.27 0 0 0-1.273-1.267c-.701 0-1.27.566-1.273 1.267a1.273 1.273 0 0 0 2.546 0m0-7.191a1.272 1.272 0 0 0-2.546 0 1.27 1.27 0 0 0 1.273 1.269 1.269 1.269 0 0 0 1.273-1.269m0-6.77a1.273 1.273 0 1 0-2.546 0 1.271 1.271 0 0 0 1.273 1.269 1.269 1.269 0 0 0 1.273-1.269m0-7.195a1.269 1.269 0 0 0-1.273-1.269c-.702 0-1.272.567-1.273 1.269a1.272 1.272 0 0 0 2.173.9 1.27 1.27 0 0 0 .373-.9m0-6.77a1.27 1.27 0 0 0-1.274-1.27c-.701 0-1.27.569-1.272 1.27a1.272 1.272 0 0 0 2.546 0m0-6.77a1.27 1.27 0 0 0-1.274-1.27 1.27 1.27 0 1 0 0 2.539 1.268 1.268 0 0 0 1.274-1.269m0-7.194a1.274 1.274 0 0 0-2.546 0 1.27 1.27 0 0 0 1.272 1.269 1.269 1.269 0 0 0 1.274-1.269m0-6.773a1.268 1.268 0 0 0-1.274-1.268 1.271 1.271 0 1 0 .001 2.541c.703 0 1.273-.57 1.273-1.273m0-7.19a1.272 1.272 0 0 0-1.274-1.271c-.701 0-1.27.57-1.272 1.271a1.273 1.273 0 0 0 2.546 0m0-6.773a1.269 1.269 0 0 0-1.274-1.269 1.27 1.27 0 0 0 0 2.539 1.269 1.269 0 0 0 1.274-1.27m0-7.194a1.269 1.269 0 0 0-1.274-1.269c-.701 0-1.27.568-1.272 1.27a1.273 1.273 0 0 0 2.546 0m0-6.772a1.269 1.269 0 0 0-1.274-1.268c-.7 0-1.27.567-1.272 1.268a1.273 1.273 0 0 0 2.546 0m-7.044 97.328a1.27 1.27 0 0 0-1.275-1.27c-.701 0-1.27.569-1.272 1.27.002.702.571 1.27 1.272 1.269a1.27 1.27 0 0 0 1.275-1.27m0-6.769a1.272 1.272 0 0 0-1.275-1.27 1.275 1.275 0 0 0-1.272 1.27 1.273 1.273 0 1 0 2.546 0m0-7.194a1.274 1.274 0 0 0-2.546 0 1.27 1.27 0 0 0 1.272 1.27 1.268 1.268 0 0 0 1.275-1.27m0-6.773a1.27 1.27 0 0 0-1.275-1.267c-.7 0-1.269.566-1.272 1.267a1.273 1.273 0 0 0 2.546 0m0-7.191a1.272 1.272 0 0 0-1.274-1.27 1.275 1.275 0 0 0-1.272 1.27 1.27 1.27 0 0 0 1.272 1.269 1.269 1.269 0 0 0 1.275-1.269m0-6.77a1.273 1.273 0 1 0-2.547 0c.002.702.571 1.27 1.272 1.269a1.269 1.269 0 0 0 1.274-1.269m0-7.195a1.269 1.269 0 0 0-1.274-1.269c-.701 0-1.27.567-1.272 1.269.001.702.57 1.27 1.272 1.27a1.27 1.27 0 0 0 1.275-1.27m0-6.77a1.27 1.27 0 0 0-1.275-1.27c-.701 0-1.27.569-1.272 1.27.002.702.571 1.27 1.272 1.27a1.27 1.27 0 0 0 1.274-1.27m0-6.77a1.27 1.27 0 0 0-1.274-1.27 1.27 1.27 0 1 0 0 2.539 1.268 1.268 0 0 0 1.275-1.269m0-7.194a1.273 1.273 0 0 0-2.547 0c.002.701.571 1.27 1.272 1.269a1.27 1.27 0 0 0 1.274-1.269m0-6.773a1.268 1.268 0 0 0-1.274-1.268 1.271 1.271 0 1 0 .001 2.542c.703 0 1.273-.57 1.273-1.274m0-7.19a1.271 1.271 0 0 0-1.274-1.271c-.701 0-1.27.57-1.272 1.271a1.273 1.273 0 0 0 2.546 0m0-6.773a1.269 1.269 0 0 0-1.274-1.269 1.27 1.27 0 0 0 0 2.539 1.27 1.27 0 0 0 1.275-1.27m0-7.194a1.269 1.269 0 0 0-1.275-1.269c-.701 0-1.27.568-1.272 1.27a1.273 1.273 0 0 0 2.546 0m0-6.772a1.269 1.269 0 0 0-1.274-1.268c-.7 0-1.27.567-1.272 1.268a1.273 1.273 0 0 0 2.547 0m13.834 97.328a1.27 1.27 0 0 0-1.274-1.27 1.27 1.27 0 0 0 0 2.54 1.269 1.269 0 0 0 1.274-1.27m0-6.77a1.272 1.272 0 1 0-2.173.898c.239.238.562.372.899.371a1.27 1.27 0 0 0 1.273-1.269m0-7.194c0-.7-.567-1.27-1.273-1.27a1.27 1.27 0 1 0 0 2.54 1.268 1.268 0 0 0 1.274-1.27m0-6.773a1.27 1.27 0 0 0-1.274-1.267 1.27 1.27 0 1 0 0 2.539 1.271 1.271 0 0 0 1.274-1.272m0-7.191a1.272 1.272 0 1 0-2.174.899c.239.238.563.371.9.37a1.269 1.269 0 0 0 1.274-1.269m0-6.77a1.27 1.27 0 0 0-1.274-1.27 1.27 1.27 0 1 0 0 2.539 1.269 1.269 0 0 0 1.274-1.269m0-7.195a1.269 1.269 0 0 0-1.274-1.269 1.27 1.27 0 0 0 0 2.539 1.27 1.27 0 0 0 1.274-1.27m0-6.77a1.27 1.27 0 0 0-1.274-1.27 1.27 1.27 0 1 0 0 2.54 1.27 1.27 0 0 0 1.273-1.27m0-6.77a1.27 1.27 0 0 0-1.273-1.27 1.27 1.27 0 1 0 0 2.538 1.268 1.268 0 0 0 1.274-1.268m0-7.194c0-.7-.568-1.27-1.274-1.27a1.27 1.27 0 1 0 .9 2.169c.24-.238.374-.562.374-.899m0-6.773a1.269 1.269 0 0 0-1.274-1.268 1.269 1.269 0 1 0 0 2.54 1.27 1.27 0 0 0 1.274-1.272m0-7.19a1.272 1.272 0 0 0-1.274-1.271 1.27 1.27 0 0 0 0 2.539 1.27 1.27 0 0 0 1.274-1.268m0-6.773a1.269 1.269 0 0 0-1.274-1.269 1.27 1.27 0 0 0 0 2.539 1.269 1.269 0 0 0 1.274-1.27m0-7.194a1.269 1.269 0 0 0-1.274-1.269 1.27 1.27 0 0 0 0 2.54 1.27 1.27 0 0 0 1.274-1.27m0-6.772a1.269 1.269 0 0 0-1.274-1.268 1.27 1.27 0 0 0 0 2.539 1.27 1.27 0 0 0 1.274-1.271m7.213 97.328c0-.7-.567-1.268-1.267-1.27-.703 0-1.278.568-1.278 1.27.003.703.575 1.27 1.278 1.269a1.27 1.27 0 0 0 1.268-1.27m-.001-6.769a1.273 1.273 0 0 0-2.545 0c0 .699.575 1.269 1.278 1.269a1.272 1.272 0 0 0 1.268-1.269m-.001-7.194c0-.7-.57-1.27-1.267-1.27-.703 0-1.278.57-1.278 1.27a1.274 1.274 0 0 0 2.546 0m-.001-6.773a1.271 1.271 0 0 0-1.267-1.267c-.703 0-1.278.57-1.278 1.267a1.272 1.272 0 1 0 2.546 0m-.001-7.191a1.273 1.273 0 0 0-2.545 0c0 .702.575 1.269 1.278 1.269a1.27 1.27 0 0 0 1.268-1.269m-.001-6.77a1.272 1.272 0 0 0-2.545 0c0 .701.575 1.268 1.278 1.268a1.27 1.27 0 0 0 1.268-1.268m-.001-7.195c0-.7-.567-1.268-1.267-1.269-.703 0-1.278.566-1.278 1.269a1.275 1.275 0 0 0 1.278 1.27 1.27 1.27 0 0 0 1.268-1.27m-.001-6.77c0-.7-.567-1.268-1.267-1.27a1.276 1.276 0 0 0-1.278 1.27c0 .701.575 1.27 1.278 1.27a1.27 1.27 0 0 0 1.268-1.27m-.001-6.77c0-.7-.567-1.268-1.267-1.27a1.276 1.276 0 0 0-1.278 1.27 1.274 1.274 0 0 0 2.546 0m-.001-7.194c0-.7-.57-1.27-1.267-1.27-.703 0-1.278.57-1.278 1.27 0 .702.575 1.269 1.278 1.269a1.27 1.27 0 0 0 1.268-1.269m-.001-6.773c0-.7-.567-1.266-1.267-1.268-.703 0-1.278.567-1.278 1.268a1.277 1.277 0 0 0 1.278 1.272 1.274 1.274 0 0 0 1.268-1.272m-.001-7.19a1.272 1.272 0 0 0-2.545 0c0 .698.575 1.267 1.278 1.267a1.271 1.271 0 0 0 1.268-1.267m-.001-6.773c0-.7-.567-1.267-1.267-1.269a1.275 1.275 0 0 0-1.278 1.27c.003.703.575 1.27 1.278 1.269a1.27 1.27 0 0 0 1.268-1.27m-.001-7.194c0-.7-.567-1.267-1.267-1.269-.703 0-1.278.568-1.278 1.27a1.272 1.272 0 1 0 2.546 0m-.001-6.772c0-.7-.567-1.267-1.267-1.268-.703 0-1.278.567-1.278 1.268a1.276 1.276 0 0 0 1.278 1.271c.7-.002 1.268-.57 1.268-1.271m6.789 97.328a1.272 1.272 0 0 0-2.543 0 1.27 1.27 0 0 0 2.17.899 1.28 1.28 0 0 0 .373-.899m0-6.77a1.275 1.275 0 0 0-1.273-1.27c-.703 0-1.272.568-1.273 1.27a1.273 1.273 0 0 0 2.546 0m0-7.194a1.274 1.274 0 0 0-2.546 0 1.268 1.268 0 0 0 1.273 1.27 1.271 1.271 0 0 0 1.273-1.27m0-6.773a1.273 1.273 0 0 0-1.273-1.267 1.27 1.27 0 1 0 0 2.539c.702 0 1.272-.57 1.273-1.272m0-7.191a1.272 1.272 0 1 0-2.173.899c.239.238.562.371.9.37a1.272 1.272 0 0 0 1.273-1.269m0-6.77a1.273 1.273 0 0 0-2.546 0 1.268 1.268 0 0 0 1.273 1.269 1.272 1.272 0 0 0 1.273-1.269m0-7.195a1.272 1.272 0 0 0-2.543 0 1.272 1.272 0 0 0 2.543 0m0-6.77a1.272 1.272 0 0 0-1.273-1.27 1.27 1.27 0 1 0 0 2.54c.701 0 1.271-.568 1.273-1.27m0-6.77a1.272 1.272 0 0 0-1.273-1.27 1.27 1.27 0 1 0 0 2.538 1.27 1.27 0 0 0 1.273-1.268m0-7.194a1.274 1.274 0 0 0-2.546 0 1.269 1.269 0 0 0 1.273 1.269 1.272 1.272 0 0 0 1.273-1.269m0-6.773a1.272 1.272 0 0 0-1.273-1.268 1.269 1.269 0 0 0-1.273 1.268 1.273 1.273 0 0 0 2.546 0m0-7.19a1.274 1.274 0 0 0-1.273-1.271 1.27 1.27 0 0 0 0 2.539c.7 0 1.27-.567 1.273-1.268m0-6.773a1.272 1.272 0 0 0-2.543 0 1.272 1.272 0 0 0 2.543 0m0-7.194a1.272 1.272 0 0 0-2.543.001 1.273 1.273 0 0 0 2.543 0m0-6.772a1.272 1.272 0 0 0-1.273-1.268 1.27 1.27 0 0 0 0 2.539c.702 0 1.272-.569 1.273-1.271m6.79 97.328a1.27 1.27 0 0 0-1.274-1.27 1.27 1.27 0 0 0 0 2.539 1.269 1.269 0 0 0 1.274-1.27m0-6.769a1.272 1.272 0 0 0-1.274-1.27 1.275 1.275 0 0 0-1.272 1.27 1.273 1.273 0 1 0 2.546 0m0-7.194a1.273 1.273 0 0 0-2.546 0 1.27 1.27 0 0 0 1.272 1.27 1.268 1.268 0 0 0 1.274-1.27m0-6.773a1.27 1.27 0 0 0-1.274-1.267c-.7 0-1.27.566-1.272 1.267a1.273 1.273 0 0 0 2.546 0m0-7.191a1.272 1.272 0 0 0-1.274-1.27 1.275 1.275 0 0 0-1.272 1.27c0 .702.57 1.27 1.272 1.269a1.269 1.269 0 0 0 1.274-1.269m0-6.77a1.273 1.273 0 1 0-2.546 0 1.27 1.27 0 0 0 1.272 1.269 1.269 1.269 0 0 0 1.274-1.269m0-7.195a1.269 1.269 0 0 0-1.274-1.269 1.27 1.27 0 0 0-1.272 1.269 1.272 1.272 0 0 0 2.172.9 1.27 1.27 0 0 0 .374-.9m0-6.77a1.27 1.27 0 0 0-1.274-1.27c-.702 0-1.271.569-1.272 1.27a1.272 1.272 0 0 0 2.546 0m0-6.77a1.27 1.27 0 0 0-1.274-1.27 1.27 1.27 0 1 0 0 2.539 1.268 1.268 0 0 0 1.274-1.269m0-7.194a1.273 1.273 0 0 0-2.546 0 1.27 1.27 0 0 0 1.272 1.269 1.269 1.269 0 0 0 1.274-1.269m0-6.773a1.268 1.268 0 0 0-1.274-1.268 1.271 1.271 0 1 0 0 2.541c.704 0 1.274-.57 1.274-1.273m0-7.19a1.271 1.271 0 0 0-1.274-1.271c-.702 0-1.27.57-1.272 1.271a1.273 1.273 0 0 0 2.546 0m0-6.773a1.269 1.269 0 0 0-1.274-1.269 1.27 1.27 0 1 0 0 2.539 1.269 1.269 0 0 0 1.274-1.27m0-7.194a1.269 1.269 0 0 0-1.274-1.269c-.702 0-1.271.568-1.272 1.27a1.273 1.273 0 0 0 2.546 0m0-6.772a1.268 1.268 0 0 0-1.274-1.268c-.701 0-1.27.567-1.272 1.268a1.273 1.273 0 0 0 2.546 0m7.214 97.328a1.27 1.27 0 0 0-1.274-1.27 1.27 1.27 0 0 0 0 2.54 1.269 1.269 0 0 0 1.274-1.27m0-6.77a1.272 1.272 0 1 0-2.173.898c.239.238.562.372.899.371a1.27 1.27 0 0 0 1.274-1.269m0-7.194c0-.7-.568-1.27-1.274-1.27a1.27 1.27 0 1 0 0 2.54 1.268 1.268 0 0 0 1.274-1.27m0-6.773a1.27 1.27 0 0 0-1.274-1.267 1.27 1.27 0 1 0 0 2.539 1.271 1.271 0 0 0 1.274-1.272m0-7.191a1.272 1.272 0 1 0-2.174.899c.239.238.563.371.9.37a1.269 1.269 0 0 0 1.274-1.269m0-6.77a1.27 1.27 0 0 0-1.274-1.27 1.27 1.27 0 1 0 0 2.539 1.269 1.269 0 0 0 1.274-1.269m0-7.195a1.269 1.269 0 0 0-1.274-1.269 1.27 1.27 0 0 0 0 2.539 1.27 1.27 0 0 0 1.274-1.27m0-6.77a1.27 1.27 0 0 0-1.274-1.27 1.27 1.27 0 1 0 0 2.54 1.27 1.27 0 0 0 1.274-1.27m0-6.77a1.27 1.27 0 0 0-1.274-1.27 1.27 1.27 0 1 0 0 2.538 1.268 1.268 0 0 0 1.274-1.268m0-7.194c0-.7-.568-1.27-1.274-1.27a1.27 1.27 0 1 0 .9 2.169c.24-.238.374-.562.374-.899m0-6.773a1.269 1.269 0 0 0-1.274-1.268 1.269 1.269 0 1 0 0 2.54 1.27 1.27 0 0 0 1.274-1.272m0-7.19a1.272 1.272 0 0 0-1.274-1.271 1.27 1.27 0 0 0 0 2.539 1.27 1.27 0 0 0 1.274-1.268m0-6.773a1.269 1.269 0 0 0-1.274-1.269 1.27 1.27 0 0 0 0 2.539 1.269 1.269 0 0 0 1.274-1.27m0-7.194A1.269 1.269 0 0 0 145.3 16.9a1.27 1.27 0 0 0 0 2.539 1.27 1.27 0 0 0 1.274-1.27m0-6.771a1.269 1.269 0 0 0-1.274-1.268 1.27 1.27 0 0 0 0 2.539 1.27 1.27 0 0 0 1.274-1.271m6.789 97.328a1.274 1.274 0 0 0-2.546 0 1.268 1.268 0 0 0 1.271 1.269c.702 0 1.273-.567 1.275-1.27m0-6.769a1.276 1.276 0 0 0-1.275-1.27 1.27 1.27 0 0 0 0 2.54c.702 0 1.272-.568 1.275-1.27m0-7.194c0-.7-.574-1.27-1.275-1.27a1.27 1.27 0 1 0 0 2.54 1.273 1.273 0 0 0 1.275-1.27m0-6.773c0-.698-.574-1.267-1.275-1.267a1.27 1.27 0 1 0 0 2.539c.703 0 1.273-.57 1.275-1.272m0-7.191a1.277 1.277 0 0 0-1.275-1.27 1.271 1.271 0 0 0-.9 2.168c.24.239.563.372.9.371a1.273 1.273 0 0 0 1.275-1.269m0-6.77a1.275 1.275 0 0 0-1.275-1.27 1.27 1.27 0 1 0 0 2.538 1.273 1.273 0 0 0 1.275-1.268m0-7.195a1.273 1.273 0 0 0-2.546 0 1.269 1.269 0 0 0 1.271 1.27c.702 0 1.273-.568 1.275-1.27m0-6.77a1.275 1.275 0 0 0-2.174-.898 1.269 1.269 0 0 0 .899 2.168c.702 0 1.272-.567 1.275-1.27m0-6.77a1.275 1.275 0 0 0-2.174-.899 1.269 1.269 0 0 0 .899 2.168 1.273 1.273 0 0 0 1.275-1.269m0-7.194a1.276 1.276 0 0 0-2.174-.898 1.27 1.27 0 0 0 .899 2.167c.702 0 1.273-.567 1.275-1.269m0-6.773a1.274 1.274 0 0 0-1.275-1.268 1.27 1.27 0 0 0 0 2.54c.703 0 1.273-.569 1.275-1.272m0-7.19a1.276 1.276 0 0 0-1.275-1.271 1.27 1.27 0 1 0 0 2.539c.701 0 1.271-.567 1.275-1.268m0-6.773a1.274 1.274 0 0 0-2.546.001 1.268 1.268 0 0 0 1.271 1.269c.702 0 1.273-.567 1.275-1.27m0-7.194a1.274 1.274 0 0 0-1.275-1.269 1.27 1.27 0 0 0 0 2.54c.702 0 1.272-.568 1.275-1.27m0-6.772a1.274 1.274 0 0 0-2.544.001c0 .702.568 1.27 1.269 1.27.703 0 1.273-.568 1.275-1.271m7.201 97.328c0-.7-.567-1.268-1.267-1.27-.704 0-1.279.568-1.279 1.27a1.275 1.275 0 0 0 1.279 1.269 1.27 1.27 0 0 0 1.267-1.269m0-6.77a1.273 1.273 0 0 0-2.546 0c0 .699.575 1.269 1.279 1.269.7-.002 1.265-.57 1.267-1.269m0-7.194a1.272 1.272 0 1 0-2.17.9 1.274 1.274 0 0 0 2.17-.9m0-6.773a1.271 1.271 0 0 0-1.267-1.267c-.704 0-1.279.57-1.279 1.267a1.272 1.272 0 1 0 2.546 0m0-7.191a1.273 1.273 0 0 0-2.546 0c0 .702.575 1.269 1.279 1.269a1.27 1.27 0 0 0 1.267-1.269m0-6.77c0-.7-.567-1.268-1.267-1.27a1.277 1.277 0 0 0-1.279 1.27c0 .701.575 1.268 1.279 1.268a1.27 1.27 0 0 0 1.267-1.268m0-7.195a1.274 1.274 0 0 0-2.546 0 1.275 1.275 0 0 0 1.279 1.27 1.27 1.27 0 0 0 1.267-1.27m0-6.77c0-.7-.567-1.268-1.267-1.27a1.276 1.276 0 0 0-1.279 1.27c0 .701.575 1.27 1.279 1.27a1.27 1.27 0 0 0 1.267-1.27m0-6.77c0-.7-.567-1.268-1.267-1.27a1.276 1.276 0 0 0-1.279 1.27 1.274 1.274 0 0 0 2.546 0m0-7.194a1.272 1.272 0 0 0-2.546 0c0 .702.575 1.269 1.279 1.269a1.27 1.27 0 0 0 1.267-1.269m0-6.773c0-.7-.567-1.266-1.267-1.268-.704 0-1.279.567-1.279 1.268a1.277 1.277 0 0 0 1.279 1.272 1.272 1.272 0 0 0 1.267-1.272m0-7.19a1.272 1.272 0 0 0-2.546 0c0 .698.575 1.267 1.279 1.267a1.271 1.271 0 0 0 1.267-1.267m0-6.773c0-.7-.567-1.267-1.267-1.269a1.275 1.275 0 0 0-1.279 1.27 1.275 1.275 0 0 0 1.279 1.269 1.27 1.27 0 0 0 1.267-1.27m0-7.194c0-.7-.567-1.267-1.267-1.269-.704 0-1.279.568-1.279 1.27a1.272 1.272 0 1 0 2.546 0m0-6.772c0-.7-.567-1.267-1.267-1.268-.704 0-1.279.567-1.279 1.268a1.276 1.276 0 0 0 1.279 1.271 1.27 1.27 0 0 0 1.267-1.271M131.622 735.98a1.016 1.016 0 0 0-1.02-1.015c-.56 0-1.016.455-1.017 1.016a1.017 1.017 0 0 0 1.018 1.015 1.015 1.015 0 0 0 1.019-1.016m0-5.415a1.018 1.018 0 1 0-2.036.003 1.018 1.018 0 0 0 2.036-.003m0-5.755a1.019 1.019 0 0 0-2.037 0 1.016 1.016 0 0 0 1.018 1.015 1.014 1.014 0 0 0 1.019-1.015m0-5.419a1.016 1.016 0 0 0-1.02-1.013c-.56 0-1.015.453-1.017 1.013a1.019 1.019 0 0 0 2.037 0m0-5.753a1.018 1.018 0 0 0-2.037 0c0 .562.456 1.016 1.018 1.016a1.015 1.015 0 0 0 1.019-1.016m0-5.415a1.018 1.018 0 1 0-2.037 0 1.017 1.017 0 0 0 1.018 1.014 1.015 1.015 0 0 0 1.019-1.014m0-5.757a1.015 1.015 0 0 0-1.02-1.015 1.017 1.017 0 1 0 .721 1.735c.191-.19.299-.45.299-.72m0-5.415a1.016 1.016 0 0 0-1.02-1.016c-.56 0-1.016.454-1.017 1.016a1.018 1.018 0 0 0 2.037 0m0-5.416a1.016 1.016 0 0 0-1.02-1.017 1.018 1.018 0 0 0-.718 1.735c.19.19.45.297.719.296a1.014 1.014 0 0 0 1.019-1.014m0-5.756a1.019 1.019 0 1 0-2.037 0 1.017 1.017 0 0 0 1.018 1.015 1.015 1.015 0 0 0 1.019-1.015m0-5.418a1.015 1.015 0 0 0-1.02-1.014 1.017 1.017 0 1 0 .001 2.033c.563 0 1.019-.456 1.019-1.019m0-5.752a1.017 1.017 0 0 0-2.037 0 1.018 1.018 0 0 0 2.037 0m0-5.418a1.015 1.015 0 0 0-1.02-1.016c-.56 0-1.017.455-1.017 1.016a1.017 1.017 0 0 0 1.018 1.015 1.015 1.015 0 0 0 1.019-1.015m0-5.755a1.015 1.015 0 0 0-1.02-1.016c-.56 0-1.016.454-1.017 1.016a1.018 1.018 0 0 0 2.037 0m0-5.418a1.015 1.015 0 0 0-1.02-1.014 1.017 1.017 0 1 0 .721 1.734c.191-.19.299-.45.299-.72m-5.636 77.863a1.016 1.016 0 0 0-1.02-1.016c-.56 0-1.016.455-1.017 1.016a1.017 1.017 0 0 0 1.018 1.015 1.015 1.015 0 0 0 1.019-1.016m0-5.415a1.018 1.018 0 1 0-2.035.003 1.018 1.018 0 0 0 2.035-.003m0-5.755a1.019 1.019 0 0 0-2.037 0 1.016 1.016 0 0 0 1.018 1.015 1.014 1.014 0 0 0 1.019-1.015m0-5.419a1.016 1.016 0 0 0-1.02-1.013c-.56 0-1.015.453-1.017 1.013a1.019 1.019 0 0 0 2.037 0m0-5.753a1.018 1.018 0 0 0-2.037 0c0 .562.456 1.016 1.018 1.016a1.015 1.015 0 0 0 1.019-1.016m0-5.415a1.018 1.018 0 1 0-2.037 0c.002.56.457 1.015 1.018 1.014a1.015 1.015 0 0 0 1.019-1.014m0-5.757a1.015 1.015 0 0 0-1.02-1.015 1.017 1.017 0 1 0 .721 1.735c.192-.19.3-.45.299-.72m0-5.415a1.016 1.016 0 0 0-1.02-1.016c-.56 0-1.016.454-1.017 1.016a1.018 1.018 0 0 0 2.037 0m0-5.416a1.016 1.016 0 0 0-1.02-1.017 1.018 1.018 0 0 0-.718 1.735c.19.19.45.297.719.296a1.014 1.014 0 0 0 1.019-1.014m0-5.756a1.019 1.019 0 0 0-2.037 0 1.017 1.017 0 0 0 1.018 1.015 1.015 1.015 0 0 0 1.019-1.015m0-5.418a1.015 1.015 0 0 0-1.02-1.014 1.017 1.017 0 1 0 .001 2.033c.563 0 1.019-.456 1.019-1.019m0-5.752a1.017 1.017 0 0 0-1.02-1.017 1.02 1.02 0 0 0-1.017 1.017 1.018 1.018 0 0 0 2.037 0m0-5.418a1.015 1.015 0 0 0-1.02-1.016c-.56 0-1.017.455-1.017 1.016a1.017 1.017 0 0 0 1.018 1.015 1.015 1.015 0 0 0 1.019-1.015m0-5.755a1.015 1.015 0 0 0-1.02-1.016c-.56 0-1.016.454-1.017 1.016a1.018 1.018 0 0 0 2.037 0m0-5.418a1.015 1.015 0 0 0-1.02-1.014 1.017 1.017 0 1 0 .722 1.734c.19-.19.298-.45.298-.72m11.067 77.863a1.016 1.016 0 0 0-1.019-1.016 1.016 1.016 0 1 0 .72 1.735c.192-.19.3-.45.3-.72m0-5.415a1.018 1.018 0 1 0-1.739.719c.191.19.45.297.72.296a1.016 1.016 0 0 0 1.018-1.015m0-5.755c0-.56-.454-1.016-1.019-1.016a1.017 1.017 0 1 0 .72 1.735c.192-.19.3-.45.3-.719m0-5.419a1.016 1.016 0 0 0-1.02-1.013 1.016 1.016 0 1 0 0 2.03 1.017 1.017 0 0 0 1.02-1.017m0-5.753a1.018 1.018 0 1 0-1.74.72c.192.19.45.296.72.296a1.015 1.015 0 0 0 1.02-1.016m0-5.415a1.016 1.016 0 0 0-1.02-1.017 1.016 1.016 0 1 0 .72 1.736c.192-.19.3-.45.3-.72m0-5.756a1.015 1.015 0 0 0-1.02-1.015 1.016 1.016 0 1 0 .72 1.735c.192-.19.3-.45.3-.72m0-5.415a1.016 1.016 0 0 0-1.02-1.016 1.016 1.016 0 1 0 0 2.031 1.016 1.016 0 0 0 1.02-1.015m0-5.416a1.016 1.016 0 0 0-1.02-1.017 1.016 1.016 0 1 0 0 2.031 1.014 1.014 0 0 0 1.02-1.014m0-5.756c0-.56-.455-1.016-1.02-1.016a1.017 1.017 0 1 0 .72 1.735c.192-.19.3-.449.3-.719m0-5.418a1.015 1.015 0 0 0-1.02-1.014 1.015 1.015 0 1 0 0 2.031 1.016 1.016 0 0 0 1.02-1.017m0-5.752a1.017 1.017 0 0 0-1.02-1.017 1.016 1.016 0 0 0 0 2.031 1.016 1.016 0 0 0 1.02-1.014m0-5.418a1.015 1.015 0 0 0-1.02-1.016 1.016 1.016 0 1 0 .72 1.735c.192-.19.3-.45.3-.72m0-5.754a1.015 1.015 0 0 0-1.02-1.016 1.016 1.016 0 1 0 .72 1.735c.192-.19.3-.45.3-.72m0-5.417a1.015 1.015 0 0 0-1.02-1.014 1.016 1.016 0 0 0 0 2.031 1.016 1.016 0 0 0 1.02-1.017m5.77 77.863c0-.56-.454-1.014-1.014-1.016a1.02 1.02 0 0 0-1.022 1.016 1.02 1.02 0 0 0 1.022 1.015 1.016 1.016 0 0 0 1.014-1.016m0-5.415a1.018 1.018 0 0 0-2.036 0 1.017 1.017 0 1 0 2.037 0m-.001-5.755a1.017 1.017 0 0 0-2.036 0 1.02 1.02 0 0 0 2.036 0m0-5.419a1.017 1.017 0 0 0-1.014-1.013 1.02 1.02 0 0 0-1.022 1.013 1.018 1.018 0 1 0 2.037 0m-.001-5.753a1.018 1.018 0 0 0-2.036 0 1.02 1.02 0 0 0 2.036 0m0-5.415a1.017 1.017 0 0 0-2.036 0 1.02 1.02 0 0 0 2.036 0m0-5.757a1.02 1.02 0 0 0-2.036 0 1.02 1.02 0 0 0 1.022 1.016 1.016 1.016 0 0 0 1.014-1.016m0-5.415c0-.56-.454-1.015-1.014-1.016a1.02 1.02 0 0 0-1.022 1.016c0 .56.46 1.015 1.022 1.015a1.016 1.016 0 0 0 1.014-1.015m0-5.416c0-.56-.453-1.015-1.014-1.017a1.02 1.02 0 0 0-1.022 1.016 1.019 1.019 0 0 0 2.036 0m0-5.755a1.017 1.017 0 0 0-2.036 0c0 .562.46 1.015 1.022 1.015a1.016 1.016 0 0 0 1.014-1.015m0-5.418a1.02 1.02 0 0 0-2.036 0 1.017 1.017 0 1 0 2.037 0m-.001-5.752a1.018 1.018 0 0 0-2.036 0 1.017 1.017 0 1 0 2.037 0m-.001-5.418c0-.56-.454-1.014-1.014-1.016a1.02 1.02 0 0 0-1.022 1.016 1.02 1.02 0 0 0 1.022 1.015 1.016 1.016 0 0 0 1.014-1.015m0-5.755c0-.56-.454-1.014-1.014-1.016a1.02 1.02 0 0 0-1.022 1.016 1.017 1.017 0 1 0 2.037 0m-.001-5.418a1.02 1.02 0 0 0-2.036 0 1.02 1.02 0 0 0 1.022 1.017 1.017 1.017 0 0 0 1.014-1.017m5.432 77.863a1.018 1.018 0 0 0-2.034 0 1.016 1.016 0 0 0 1.735.719c.191-.19.299-.45.299-.72m0-5.415a1.017 1.017 0 1 0-2.037 0 1.019 1.019 0 0 0 2.037 0m0-5.755a1.02 1.02 0 0 0-2.037 0 1.014 1.014 0 0 0 1.018 1.015 1.017 1.017 0 0 0 1.019-1.015m0-5.419a1.018 1.018 0 0 0-1.019-1.013 1.016 1.016 0 1 0 0 2.03c.562 0 1.018-.455 1.019-1.017m0-5.753a1.018 1.018 0 1 0-1.739.719 1.017 1.017 0 0 0 1.739-.719m0-5.415a1.019 1.019 0 0 0-2.037 0 1.015 1.015 0 0 0 1.018 1.014 1.017 1.017 0 0 0 1.019-1.014m0-5.757a1.017 1.017 0 0 0-2.034 0 1.018 1.018 0 0 0 2.034 0m0-5.415a1.018 1.018 0 0 0-1.019-1.016 1.016 1.016 0 1 0 0 2.031c.562 0 1.017-.454 1.019-1.015m0-5.416c0-.562-.457-1.017-1.019-1.017a1.016 1.016 0 1 0 0 2.031 1.016 1.016 0 0 0 1.019-1.014m0-5.756a1.02 1.02 0 0 0-2.037 0 1.015 1.015 0 0 0 1.018 1.015 1.017 1.017 0 0 0 1.019-1.015m0-5.418a1.017 1.017 0 0 0-1.019-1.014 1.015 1.015 0 0 0-1.018 1.014 1.019 1.019 0 0 0 2.037 0m0-5.752a1.02 1.02 0 0 0-1.019-1.017 1.016 1.016 0 0 0 0 2.031c.561 0 1.017-.453 1.019-1.014m0-5.418a1.018 1.018 0 0 0-2.034 0 1.018 1.018 0 0 0 2.034 0m0-5.755a1.018 1.018 0 0 0-2.034 0 1.016 1.016 0 1 0 2.034 0m0-5.418a1.017 1.017 0 0 0-1.019-1.014 1.016 1.016 0 0 0 0 2.031c.562 0 1.018-.455 1.019-1.017m5.432 77.863a1.016 1.016 0 0 0-1.02-1.016c-.56 0-1.016.455-1.017 1.016a1.017 1.017 0 0 0 1.018 1.015 1.015 1.015 0 0 0 1.019-1.016m0-5.415a1.018 1.018 0 1 0-2.034.003 1.018 1.018 0 0 0 2.034-.003m0-5.755a1.019 1.019 0 0 0-2.037 0 1.016 1.016 0 0 0 1.018 1.015 1.014 1.014 0 0 0 1.019-1.015m0-5.419a1.016 1.016 0 0 0-1.02-1.013c-.56 0-1.015.453-1.017 1.013a1.019 1.019 0 0 0 2.037 0m0-5.753a1.018 1.018 0 0 0-2.037 0c0 .562.456 1.016 1.018 1.016a1.015 1.015 0 0 0 1.019-1.016m0-5.415a1.018 1.018 0 1 0-2.037 0c.002.56.457 1.015 1.018 1.014a1.015 1.015 0 0 0 1.019-1.014m0-5.757a1.015 1.015 0 0 0-1.02-1.015 1.017 1.017 0 1 0 .721 1.735c.191-.19.299-.45.299-.72m0-5.415a1.016 1.016 0 0 0-1.02-1.016c-.56 0-1.016.454-1.017 1.016a1.018 1.018 0 0 0 2.037 0m0-5.416a1.016 1.016 0 0 0-1.02-1.017 1.018 1.018 0 0 0-.718 1.735c.19.19.45.297.719.296a1.014 1.014 0 0 0 1.019-1.014m0-5.756a1.019 1.019 0 0 0-2.037 0 1.017 1.017 0 0 0 2.037 0m0-5.418a1.015 1.015 0 0 0-1.02-1.014 1.017 1.017 0 1 0 .001 2.033c.563 0 1.019-.456 1.019-1.019m0-5.752a1.017 1.017 0 0 0-1.02-1.017 1.02 1.02 0 0 0-1.017 1.017 1.018 1.018 0 0 0 2.037 0m0-5.418a1.015 1.015 0 0 0-1.02-1.016c-.56 0-1.017.455-1.017 1.016a1.017 1.017 0 0 0 1.018 1.015 1.015 1.015 0 0 0 1.019-1.015m0-5.755a1.015 1.015 0 0 0-1.02-1.016c-.56 0-1.016.454-1.017 1.016a1.018 1.018 0 0 0 2.037 0m0-5.418a1.015 1.015 0 0 0-1.02-1.014 1.017 1.017 0 1 0 .721 1.734c.191-.19.299-.45.299-.72m5.77 77.863a1.016 1.016 0 0 0-1.018-1.016 1.016 1.016 0 1 0 .72 1.735c.192-.19.299-.45.299-.72m0-5.415a1.018 1.018 0 1 0-1.738.719c.19.19.45.297.719.296a1.016 1.016 0 0 0 1.019-1.015m0-5.755c0-.56-.454-1.016-1.019-1.016a1.017 1.017 0 1 0 .72 1.735c.192-.19.299-.45.299-.719m0-5.419a1.016 1.016 0 0 0-1.019-1.013 1.016 1.016 0 1 0 0 2.03 1.017 1.017 0 0 0 1.019-1.017m0-5.753a1.018 1.018 0 1 0-1.739.72c.191.19.45.296.72.296a1.015 1.015 0 0 0 1.019-1.016m0-5.415a1.016 1.016 0 0 0-1.019-1.017 1.016 1.016 0 1 0 .72 1.736c.191-.19.299-.45.299-.72m0-5.756a1.015 1.015 0 0 0-1.019-1.015 1.016 1.016 0 1 0 .72 1.735c.192-.19.299-.45.299-.72m0-5.415a1.016 1.016 0 0 0-1.019-1.016 1.016 1.016 0 1 0 0 2.031 1.016 1.016 0 0 0 1.019-1.015m0-5.416a1.016 1.016 0 0 0-1.019-1.017 1.016 1.016 0 1 0 0 2.031 1.014 1.014 0 0 0 1.019-1.014m0-5.756c0-.56-.454-1.016-1.019-1.016a1.017 1.017 0 1 0 .72 1.735c.191-.19.299-.449.299-.719m0-5.418a1.015 1.015 0 0 0-1.019-1.014 1.015 1.015 0 1 0 0 2.031 1.016 1.016 0 0 0 1.019-1.017m0-5.752a1.017 1.017 0 0 0-1.019-1.017 1.016 1.016 0 0 0 0 2.031 1.016 1.016 0 0 0 1.019-1.014m0-5.418a1.015 1.015 0 0 0-1.019-1.016 1.016 1.016 0 1 0 .72 1.735c.192-.19.299-.45.299-.72m0-5.754a1.015 1.015 0 0 0-1.019-1.016 1.016 1.016 0 1 0 .72 1.735c.191-.191.299-.45.299-.72m0-5.417a1.015 1.015 0 0 0-1.019-1.014 1.016 1.016 0 0 0 0 2.031 1.016 1.016 0 0 0 1.019-1.017m5.431 77.863a1.02 1.02 0 0 0-2.036 0 1.014 1.014 0 0 0 1.016 1.015c.562 0 1.019-.454 1.02-1.016m0-5.415a1.021 1.021 0 0 0-1.02-1.016 1.016 1.016 0 0 0 0 2.031 1.02 1.02 0 0 0 1.02-1.015m0-5.755c0-.56-.46-1.016-1.02-1.016a1.016 1.016 0 1 0 0 2.031 1.017 1.017 0 0 0 1.02-1.015m0-5.419a1.02 1.02 0 0 0-1.02-1.013 1.016 1.016 0 1 0 0 2.03 1.02 1.02 0 0 0 1.02-1.017m0-5.753a1.022 1.022 0 0 0-1.02-1.016 1.017 1.017 0 0 0 0 2.032c.562 0 1.019-.454 1.02-1.016m0-5.415a1.02 1.02 0 0 0-1.02-1.017 1.016 1.016 0 1 0 0 2.031c.562 0 1.018-.453 1.02-1.014m0-5.757a1.018 1.018 0 1 0-1.739.72 1.02 1.02 0 0 0 1.74-.72m0-5.415a1.02 1.02 0 0 0-2.037 0 1.015 1.015 0 0 0 1.016 1.015 1.02 1.02 0 0 0 1.02-1.015m0-5.416a1.02 1.02 0 0 0-2.036 0 1.014 1.014 0 0 0 1.016 1.014 1.018 1.018 0 0 0 1.02-1.014m0-5.756a1.02 1.02 0 0 0-1.739-.719 1.016 1.016 0 0 0 .72 1.734 1.02 1.02 0 0 0 1.02-1.015m0-5.418a1.019 1.019 0 0 0-1.02-1.014 1.016 1.016 0 0 0 0 2.031 1.02 1.02 0 0 0 1.02-1.017m0-5.752a1.02 1.02 0 0 0-1.02-1.017 1.016 1.016 0 1 0 0 2.031 1.02 1.02 0 0 0 1.02-1.014m0-5.418a1.02 1.02 0 0 0-2.037 0 1.014 1.014 0 0 0 1.016 1.015 1.02 1.02 0 0 0 1.02-1.015m0-5.755a1.02 1.02 0 0 0-1.02-1.016 1.016 1.016 0 0 0 0 2.032 1.02 1.02 0 0 0 1.02-1.016m0-5.418a1.019 1.019 0 0 0-2.035.002c0 .56.454 1.015 1.015 1.015a1.02 1.02 0 0 0 1.02-1.017m5.761 77.863c0-.56-.453-1.014-1.013-1.016a1.02 1.02 0 0 0-1.024 1.016 1.02 1.02 0 0 0 1.024 1.015 1.016 1.016 0 0 0 1.013-1.015m0-5.416a1.018 1.018 0 0 0-2.037 0c0 .559.46 1.015 1.024 1.015a1.017 1.017 0 0 0 1.013-1.015m0-5.755a1.017 1.017 0 1 0-1.735.72 1.02 1.02 0 0 0 1.735-.72m0-5.419a1.017 1.017 0 0 0-1.013-1.013 1.02 1.02 0 0 0-1.024 1.013 1.018 1.018 0 1 0 2.037 0m0-5.753a1.018 1.018 0 0 0-2.037 0 1.02 1.02 0 0 0 2.037 0m0-5.415a1.017 1.017 0 0 0-2.037 0c0 .56.46 1.014 1.024 1.014a1.016 1.016 0 0 0 1.013-1.014m0-5.757c0-.56-.453-1.014-1.013-1.015a1.02 1.02 0 0 0-1.024 1.015 1.02 1.02 0 0 0 1.024 1.016 1.016 1.016 0 0 0 1.013-1.016m0-5.415c0-.56-.453-1.015-1.013-1.016a1.02 1.02 0 0 0-1.024 1.016c0 .56.46 1.015 1.024 1.015a1.016 1.016 0 0 0 1.013-1.015m0-5.416c0-.56-.453-1.015-1.013-1.017a1.02 1.02 0 0 0-1.024 1.016 1.019 1.019 0 0 0 2.037 0m0-5.755a1.017 1.017 0 0 0-2.037 0c0 .562.46 1.015 1.024 1.015a1.016 1.016 0 0 0 1.013-1.015m0-5.418c0-.56-.454-1.013-1.013-1.014a1.02 1.02 0 0 0-1.024 1.014c.003.563.46 1.018 1.024 1.017a1.017 1.017 0 0 0 1.013-1.017m0-5.752a1.018 1.018 0 0 0-2.037 0c0 .559.46 1.014 1.024 1.014a1.017 1.017 0 0 0 1.013-1.014m0-5.418c0-.56-.453-1.014-1.013-1.016a1.02 1.02 0 0 0-1.024 1.016 1.02 1.02 0 0 0 1.024 1.015 1.016 1.016 0 0 0 1.013-1.015m0-5.755c0-.56-.454-1.014-1.013-1.016a1.02 1.02 0 0 0-1.024 1.016c0 .56.46 1.016 1.024 1.016a1.017 1.017 0 0 0 1.013-1.016m0-5.418c0-.56-.454-1.013-1.013-1.014a1.02 1.02 0 0 0-1.024 1.014 1.02 1.02 0 0 0 1.024 1.017 1.017 1.017 0 0 0 1.013-1.017" fill="#D9ECFC" fill-rule="nonzero" opacity=".741"/><path d="M125.673 741.877a1.016 1.016 0 0 0-1.019-1.016c-.562 0-1.017.455-1.018 1.016a1.017 1.017 0 0 0 1.018 1.015 1.015 1.015 0 0 0 1.019-1.016m-5.636.001a1.016 1.016 0 0 0-1.019-1.016c-.562 0-1.017.455-1.018 1.016a1.017 1.017 0 0 0 1.018 1.015 1.015 1.015 0 0 0 1.02-1.016m-.001-5.415a1.018 1.018 0 1 0-2.035.003 1.018 1.018 0 0 0 2.035-.003m0-5.755a1.019 1.019 0 0 0-2.037 0 1.016 1.016 0 0 0 1.018 1.015 1.014 1.014 0 0 0 1.02-1.015m-.001-5.419a1.016 1.016 0 0 0-1.019-1.013c-.56 0-1.016.453-1.018 1.013a1.019 1.019 0 0 0 2.037 0m0-5.753a1.018 1.018 0 0 0-2.037 0c0 .562.457 1.016 1.018 1.016a1.015 1.015 0 0 0 1.02-1.016m-.001-5.415a1.018 1.018 0 1 0-2.037 0c.002.56.457 1.015 1.018 1.014a1.015 1.015 0 0 0 1.02-1.014m-.001-5.757a1.015 1.015 0 0 0-1.019-1.015 1.017 1.017 0 1 0 .72 1.735c.192-.19.3-.45.3-.72m-.001-5.415a1.016 1.016 0 0 0-1.019-1.016c-.561 0-1.017.454-1.018 1.016a1.018 1.018 0 0 0 2.037 0m0-5.417a1.016 1.016 0 0 0-1.019-1.016 1.018 1.018 0 0 0-.72 1.735c.192.19.45.297.72.296a1.014 1.014 0 0 0 1.02-1.014m-.001-5.756a1.019 1.019 0 0 0-2.037 0 1.017 1.017 0 0 0 1.018 1.015 1.015 1.015 0 0 0 1.02-1.015m-.001-5.418a1.015 1.015 0 0 0-1.019-1.014 1.017 1.017 0 1 0 0 2.033 1.02 1.02 0 0 0 1.02-1.019m-.001-5.752a1.017 1.017 0 0 0-1.019-1.017 1.02 1.02 0 0 0-1.018 1.017 1.018 1.018 0 0 0 2.037 0m0-5.418a1.015 1.015 0 0 0-1.019-1.016c-.562 0-1.017.455-1.018 1.016a1.017 1.017 0 0 0 1.018 1.015 1.015 1.015 0 0 0 1.02-1.015m-.001-5.755a1.015 1.015 0 0 0-1.019-1.016c-.561 0-1.017.454-1.018 1.016a1.018 1.018 0 0 0 2.037 0m0-5.418a1.015 1.015 0 0 0-1.019-1.014 1.017 1.017 0 1 0 .72 1.734c.192-.19.3-.45.3-.72m11.066 77.863a1.016 1.016 0 0 0-1.018-1.016 1.016 1.016 0 1 0 .72 1.735c.191-.19.299-.45.298-.72m5.771.001c0-.56-.453-1.014-1.013-1.016a1.02 1.02 0 0 0-1.023 1.016 1.02 1.02 0 0 0 1.023 1.015 1.016 1.016 0 0 0 1.014-1.016m5.431.001a1.018 1.018 0 0 0-2.034 0 1.016 1.016 0 0 0 1.735.719c.191-.19.299-.45.3-.72m5.432.001a1.016 1.016 0 0 0-1.02-1.016c-.562 0-1.017.455-1.018 1.016a1.017 1.017 0 0 0 1.018 1.015 1.015 1.015 0 0 0 1.019-1.016m5.771.001a1.016 1.016 0 0 0-1.019-1.016 1.016 1.016 0 1 0 .72 1.735c.192-.19.3-.45.299-.72m5.432.001a1.02 1.02 0 0 0-2.037 0 1.014 1.014 0 0 0 1.017 1.015 1.02 1.02 0 0 0 1.02-1.016m5.76.001c0-.56-.453-1.014-1.013-1.016a1.02 1.02 0 0 0-1.023 1.016 1.02 1.02 0 0 0 1.023 1.015 1.016 1.016 0 0 0 1.013-1.015" opacity=".35" fill="#D9ECFC" fill-rule="nonzero"/><path d="M104.591 115.596a1.27 1.27 0 0 0-1.274-1.27c-.701 0-1.27.569-1.272 1.27.002.702.571 1.27 1.272 1.269a1.269 1.269 0 0 0 1.274-1.27m-7.044.001a1.27 1.27 0 0 0-1.275-1.27c-.701 0-1.27.569-1.272 1.27.002.702.571 1.27 1.272 1.269a1.27 1.27 0 0 0 1.274-1.27m.001-6.768a1.272 1.272 0 0 0-1.274-1.27 1.275 1.275 0 0 0-1.273 1.27 1.273 1.273 0 1 0 2.547 0m-.001-7.194a1.274 1.274 0 0 0-2.546 0 1.27 1.27 0 0 0 1.272 1.269 1.268 1.268 0 0 0 1.274-1.27m.001-6.773a1.27 1.27 0 0 0-1.275-1.267c-.7 0-1.269.566-1.272 1.267a1.274 1.274 0 0 0 2.547 0m0-7.191a1.272 1.272 0 0 0-1.275-1.27A1.275 1.275 0 0 0 95 87.668a1.27 1.27 0 0 0 1.272 1.269 1.269 1.269 0 0 0 1.275-1.269m0-6.769a1.273 1.273 0 1 0-2.546 0c.001.7.57 1.268 1.272 1.268a1.269 1.269 0 0 0 1.274-1.268m0-7.196a1.269 1.269 0 0 0-1.275-1.269c-.701 0-1.27.567-1.272 1.269.001.702.57 1.27 1.272 1.27a1.27 1.27 0 0 0 1.275-1.27m0-6.769a1.27 1.27 0 0 0-1.274-1.27c-.702 0-1.272.568-1.273 1.27a1.273 1.273 0 0 0 1.273 1.269 1.27 1.27 0 0 0 1.274-1.27m0-6.769a1.27 1.27 0 0 0-1.275-1.271 1.27 1.27 0 1 0 0 2.539 1.268 1.268 0 0 0 1.275-1.268m-.001-7.195a1.274 1.274 0 0 0-2.546 0c.002.701.571 1.27 1.273 1.269a1.27 1.27 0 0 0 1.274-1.269m0-6.772a1.268 1.268 0 0 0-1.275-1.268 1.271 1.271 0 1 0 .001 2.54c.703 0 1.274-.57 1.274-1.272m0-7.191a1.271 1.271 0 0 0-1.274-1.271c-.702 0-1.271.57-1.273 1.271a1.273 1.273 0 0 0 2.547 0m0-6.772a1.269 1.269 0 0 0-1.275-1.27 1.27 1.27 0 0 0 0 2.539 1.27 1.27 0 0 0 1.275-1.27m0-7.193a1.269 1.269 0 0 0-1.274-1.27c-.702 0-1.272.568-1.273 1.27a1.273 1.273 0 0 0 2.547 0m0-6.772A1.269 1.269 0 0 0 96.272 17c-.7 0-1.27.567-1.272 1.268a1.273 1.273 0 0 0 2.547 0m13.833 97.328a1.27 1.27 0 0 0-1.273-1.27 1.27 1.27 0 0 0 0 2.54 1.269 1.269 0 0 0 1.273-1.27m7.214 0c0-.7-.567-1.268-1.267-1.27-.703 0-1.278.569-1.278 1.27.003.704.575 1.27 1.278 1.269a1.27 1.27 0 0 0 1.267-1.27m6.79.001a1.272 1.272 0 0 0-2.543 0 1.27 1.27 0 0 0 2.17.899 1.28 1.28 0 0 0 .373-.899m6.79 0a1.27 1.27 0 0 0-1.274-1.27 1.27 1.27 0 0 0 0 2.539 1.269 1.269 0 0 0 1.274-1.27m7.213.001a1.27 1.27 0 0 0-1.273-1.27 1.27 1.27 0 0 0 0 2.54 1.269 1.269 0 0 0 1.273-1.27m6.79 0a1.274 1.274 0 0 0-2.546 0 1.268 1.268 0 0 0 1.271 1.269c.702 0 1.273-.567 1.275-1.27m7.201.001c0-.7-.567-1.268-1.267-1.27-.704 0-1.279.569-1.279 1.27a1.275 1.275 0 0 0 1.279 1.269 1.27 1.27 0 0 0 1.267-1.269" opacity=".3" fill="#D9ECFC" fill-rule="nonzero"/><path d="M224 588.204l5.196-8.804 5.204 8.804H224zm46.8 154.873l-6.805 11.205-6.795-11.205h13.6zm8.4-51.624l-4.799 8.004-4.801-8.004h9.6z" style="mix-blend-mode:overlay" fill="#D9ECFC" fill-opacity=".15" fill-rule="nonzero"/></g></svg>