<svg width="324" height="808" viewBox="0 0 324 808" xmlns="http://www.w3.org/2000/svg"><g fill="none" fill-rule="evenodd"><g opacity=".35"><g opacity=".9"><path stroke="#FFF" stroke-width="1.28" d="M293.86 554.14v79.72h-48.72v-79.72z"/><path fill="#FFF" fill-rule="nonzero" d="M293.201 561.857v1.286H244.5v-1.286z"/><path d="M284.76 554.786h1.298V634.5h-1.298v-79.714zm-8.442 0h1.299V634.5h-1.299v-79.714zm-7.792 0h1.299V634.5h-1.299v-79.714zm-7.792 0h1.298V634.5h-1.298v-79.714zm-7.792 0h1.298V634.5h-1.298v-79.714z" fill="#FFF" fill-rule="nonzero"/><path d="M293.201 569.571v1.286H244.5v-1.286h48.701zm0 8.358v1.286H244.5v-1.286h48.701zm0 7.714v1.286H244.5v-1.286h48.701zm0 7.714v1.286H244.5v-1.286h48.701zm0 7.714v1.286H244.5v-1.286h48.701zm0 8.358v1.286H244.5v-1.286h48.701zm0 7.714v1.286H244.5v-1.286h48.701zm0 7.714v1.286H244.5v-1.286h48.701z" fill="#FFF" fill-rule="nonzero"/></g><g opacity=".7"><path stroke="#FFF" stroke-width="1.12" d="M106.56 564.44v-69.88h41.88v69.88z"/><path fill="#FFF" fill-rule="nonzero" d="M107.117 557.675v-1.127H149v1.127z"/><path d="M114.377 563.873h-1.117V494h1.117v69.873zm7.259 0h-1.117V494h1.117v69.873zm6.702 0h-1.117V494h1.117v69.873zm6.701 0h-1.117V494h1.117v69.873zm6.701 0h-1.117V494h1.117v69.873z" fill="#FFF" fill-rule="nonzero"/><path d="M107.117 550.913v-1.127H149v1.127h-41.883zm0-7.326v-1.127H149v1.127h-41.883zm0-6.762v-1.127H149v1.127h-41.883zm0-6.762v-1.127H149v1.127h-41.883zm0-6.761v-1.127H149v1.127h-41.883zm0-7.326v-1.127H149v1.127h-41.883zm0-6.762v-1.127H149v1.127h-41.883zm0-6.762v-1.127H149v1.127h-41.883z" fill="#FFF" fill-rule="nonzero"/></g><g opacity=".5" fill="#FFF" fill-rule="nonzero"><path d="M155.611 667.546h-1.445V613h1.445z"/><path d="M163.556 658.09v1.455H74v-1.454h89.556zm0-9.453v1.454H74v-1.454h89.556zm0-8.728v1.454H74v-1.454h89.556zm0-8.727v1.454H74v-1.454h89.556zm0-8.727v1.454H74v-1.454h89.556z"/><path d="M146.944 667.546H145.5V613h1.444v54.546zm-9.388 0h-1.444V613h1.444v54.546zm-8.667 0h-1.444V613h1.444v54.546zm-8.666 0h-1.445V613h1.445v54.546zm-8.667 0h-1.444V613h1.444v54.546zm-9.39 0h-1.444V613h1.445v54.546zm-8.666 0h-1.444V613H93.5v54.546zm-8.666 0h-1.445V613h1.445v54.546z"/></g><g opacity=".4"><path stroke="#FFF" stroke-width="1.44" d="M161.271 790.73v-89.559h54.555v89.559z"/><path fill="#FFF" fill-rule="nonzero" d="M162.003 782.061v-1.444h54.545v1.444z"/><path d="M171.458 790.006h-1.455V700.45h1.455v89.556zm9.454 0h-1.455V700.45h1.455v89.556zm8.727 0h-1.454V700.45h1.454v89.556zm8.727 0h-1.454V700.45h1.454v89.556zm8.727 0h-1.454V700.45h1.454v89.556z" fill="#FFF" fill-rule="nonzero"/><path d="M162.003 773.395v-1.445h54.545v1.445h-54.545zm0-9.389v-1.444h54.545v1.444h-54.545zm0-8.666v-1.445h54.545v1.445h-54.545zm0-8.667v-1.444h54.545v1.444h-54.545zm0-8.667v-1.444h54.545v1.444h-54.545zm0-9.389v-1.444h54.545v1.444h-54.545zm0-8.666v-1.445h54.545v1.445h-54.545zm0-8.667v-1.444h54.545v1.444h-54.545z" fill="#FFF" fill-rule="nonzero"/></g><g opacity=".3"><path stroke="#FFF" stroke-width="2" d="M252 223v74h-38v-74z"/><path d="M238 223h2v75h-2v-75zm-13 0h2v75h-2v-75z" fill="#FFF" fill-rule="nonzero"/><path d="M251 234v2h-37v-2h37zm0 12v2h-37v-2h37zm0 13v2h-37v-2h37zm0 12v2h-37v-2h37zm0 12v2h-37v-2h37z" fill="#FFF" fill-rule="nonzero"/></g></g><g opacity=".7"><path stroke="#FFF" stroke-width="1.28" d="M284.86 545.14v79.72h-48.72v-79.72z"/><path fill="#FFF" fill-rule="nonzero" d="M284.201 552.857v1.286H235.5v-1.286z"/><path d="M275.76 545.786h1.298V625.5h-1.298v-79.714zm-8.442 0h1.299V625.5h-1.299v-79.714zm-7.792 0h1.299V625.5h-1.299v-79.714zm-7.792 0h1.298V625.5h-1.298v-79.714zm-7.792 0h1.298V625.5h-1.298v-79.714z" fill="#FFF" fill-rule="nonzero"/><path d="M284.201 560.571v1.286H235.5v-1.286h48.701zm0 8.358v1.286H235.5v-1.286h48.701zm0 7.714v1.286H235.5v-1.286h48.701zm0 7.714v1.286H235.5v-1.286h48.701zm0 7.714v1.286H235.5v-1.286h48.701zm0 8.358v1.286H235.5v-1.286h48.701zm0 7.714v1.286H235.5v-1.286h48.701zm0 7.714v1.286H235.5v-1.286h48.701z" fill="#FFF" fill-rule="nonzero"/></g><g opacity=".7"><path stroke="#FFF" stroke-width="1.12" d="M99.56 557.44v-69.88h41.88v69.88z"/><path fill="#FFF" fill-rule="nonzero" d="M100.117 550.675v-1.127H142v1.127z"/><path d="M107.377 556.873h-1.117V487h1.117v69.873zm7.259 0h-1.117V487h1.117v69.873zm6.702 0h-1.117V487h1.117v69.873zm6.701 0h-1.117V487h1.117v69.873zm6.701 0h-1.117V487h1.117v69.873z" fill="#FFF" fill-rule="nonzero"/><path d="M100.117 543.913v-1.127H142v1.127h-41.883zm0-7.326v-1.127H142v1.127h-41.883zm0-6.762v-1.127H142v1.127h-41.883zm0-6.762v-1.127H142v1.127h-41.883zm0-6.761v-1.127H142v1.127h-41.883zm0-7.326v-1.127H142v1.127h-41.883zm0-6.762v-1.127H142v1.127h-41.883zm0-6.762v-1.127H142v1.127h-41.883z" fill="#FFF" fill-rule="nonzero"/></g><g opacity=".5" fill="#FFF" fill-rule="nonzero"><path d="M145.611 658.546h-1.445V604h1.445z"/><path d="M153.556 649.09v1.455H64v-1.454h89.556zm0-9.453v1.454H64v-1.454h89.556zm0-8.728v1.454H64v-1.454h89.556zm0-8.727v1.454H64v-1.454h89.556zm0-8.727v1.454H64v-1.454h89.556z"/><path d="M136.944 658.546H135.5V604h1.444v54.546zm-9.388 0h-1.444V604h1.444v54.546zm-8.667 0h-1.444V604h1.444v54.546zm-8.666 0h-1.445V604h1.445v54.546zm-8.667 0h-1.444V604h1.444v54.546zm-9.39 0h-1.444V604h1.445v54.546zm-8.666 0h-1.444V604H83.5v54.546zm-8.666 0h-1.445V604h1.445v54.546z"/></g><g opacity=".334"><path stroke="#FFF" stroke-width="2" d="M240 210v74h-38v-74z"/><path d="M226 210h2v75h-2v-75zm-13 0h2v75h-2v-75z" fill="#FFF" fill-rule="nonzero"/><path d="M239 221v2h-37v-2h37zm0 12v2h-37v-2h37zm0 13v2h-37v-2h37zm0 12v2h-37v-2h37zm0 12v2h-37v-2h37z" fill="#FFF" fill-rule="nonzero"/></g><g opacity=".4"><path stroke="#FFF" stroke-width="1.44" d="M151.271 781.73v-89.559h54.555v89.559z"/><path fill="#FFF" fill-rule="nonzero" d="M152.003 773.061v-1.444h54.545v1.444z"/><path d="M161.458 781.006h-1.455V691.45h1.455v89.556zm9.454 0h-1.455V691.45h1.455v89.556zm8.727 0h-1.454V691.45h1.454v89.556zm8.727 0h-1.454V691.45h1.454v89.556zm8.727 0h-1.454V691.45h1.454v89.556z" fill="#FFF" fill-rule="nonzero"/><path d="M152.003 764.395v-1.445h54.545v1.445h-54.545zm0-9.389v-1.444h54.545v1.444h-54.545zm0-8.666v-1.445h54.545v1.445h-54.545zm0-8.667v-1.444h54.545v1.444h-54.545zm0-8.667v-1.444h54.545v1.444h-54.545zm0-9.389v-1.444h54.545v1.444h-54.545zm0-8.666v-1.445h54.545v1.445h-54.545zm0-8.667v-1.444h54.545v1.444h-54.545z" fill="#FFF" fill-rule="nonzero"/></g><path d="M213.983 428.94a.683.683 0 0 0 .969 0l9.204-9.277a.693.693 0 0 0 0-.976.683.683 0 0 0-.97 0l-9.203 9.277a.693.693 0 0 0 0 .977zm0 8.976a.683.683 0 0 0 .969 0l17.043-17.178a.693.693 0 0 0 0-.976.683.683 0 0 0-.969 0l-17.043 17.178a.693.693 0 0 0 0 .976zm0 8.977a.683.683 0 0 0 .969 0l27.662-27.881a.693.693 0 0 0 0-.976.683.683 0 0 0-.97 0l-27.661 27.88a.693.693 0 0 0 0 .977zm0 8.976a.683.683 0 0 0 .969 0l36.567-36.857a.693.693 0 0 0 0-.976.683.683 0 0 0-.968 0l-36.568 36.857a.693.693 0 0 0 0 .976zm0 9.666a.683.683 0 0 0 .969 0l46.158-46.523a.693.693 0 0 0 0-.976.683.683 0 0 0-.968 0l-46.16 46.523a.693.693 0 0 0 0 .976zm0 8.977a.683.683 0 0 0 .969 0l55.407-55.845a.693.693 0 0 0 0-.976.683.683 0 0 0-.969 0l-55.407 55.845a.693.693 0 0 0 0 .976zm8.906 0a.683.683 0 0 0 .968 0l55.408-55.844a.693.693 0 0 0 0-.977.683.683 0 0 0-.97 0l-55.407 55.845a.693.693 0 0 0 0 .976h.001zm9.59 0a.683.683 0 0 0 .969 0l55.407-55.844a.693.693 0 0 0 0-.977.683.683 0 0 0-.968 0l-55.407 55.845a.693.693 0 0 0 0 .976zm8.906 0a.683.683 0 0 0 .97 0l55.407-55.844a.693.693 0 0 0 0-.977.683.683 0 0 0-.97 0l-55.407 55.845a.693.693 0 0 0 0 .976zm9.591 0a.683.683 0 0 0 .969 0l55.407-55.845a.693.693 0 0 0 0-.976.683.683 0 0 0-.968 0l-55.408 55.845a.693.693 0 0 0 0 .976zm9.591 0a.683.683 0 0 0 .968 0l45.132-45.488a.693.693 0 0 0 0-.977.683.683 0 0 0-.969 0l-45.131 45.488a.693.693 0 0 0 0 .977zm8.906 0a.683.683 0 0 0 .969 0l36.91-37.202a.693.693 0 0 0 0-.977.683.683 0 0 0-.968 0l-36.911 37.202a.693.693 0 0 0 0 .977zm8.905 0a.683.683 0 0 0 .97 0l28.004-28.226a.693.693 0 0 0 0-.977.683.683 0 0 0-.968 0l-28.005 28.226a.693.693 0 0 0 0 .977zm9.591 0a.683.683 0 0 0 .97 0l18.413-18.56a.693.693 0 0 0 0-.976.683.683 0 0 0-.968 0l-18.415 18.56a.693.693 0 0 0 0 .976zm8.906 0a.683.683 0 0 0 .969 0l9.508-9.583a.693.693 0 0 0 0-.976.683.683 0 0 0-.968 0l-9.509 9.583a.693.693 0 0 0 0 .976z" opacity=".159" fill="#FFF" fill-rule="nonzero"/><path d="M204.983 419.94a.683.683 0 0 0 .969 0l9.204-9.277a.693.693 0 0 0 0-.976.683.683 0 0 0-.97 0l-9.203 9.277a.693.693 0 0 0 0 .977zm0 8.976a.683.683 0 0 0 .969 0l17.043-17.178a.693.693 0 0 0 0-.976.683.683 0 0 0-.969 0l-17.043 17.178a.693.693 0 0 0 0 .976zm0 8.977a.683.683 0 0 0 .969 0l27.662-27.881a.693.693 0 0 0 0-.976.683.683 0 0 0-.97 0l-27.661 27.88a.693.693 0 0 0 0 .977zm0 8.976a.683.683 0 0 0 .969 0l36.567-36.857a.693.693 0 0 0 0-.976.683.683 0 0 0-.968 0l-36.568 36.857a.693.693 0 0 0 0 .976zm0 9.666a.683.683 0 0 0 .969 0l46.158-46.523a.693.693 0 0 0 0-.976.683.683 0 0 0-.968 0l-46.16 46.523a.693.693 0 0 0 0 .976zm0 8.977a.683.683 0 0 0 .969 0l55.407-55.845a.693.693 0 0 0 0-.976.683.683 0 0 0-.969 0l-55.407 55.845a.693.693 0 0 0 0 .976zm8.906 0a.683.683 0 0 0 .968 0l55.408-55.844a.693.693 0 0 0 0-.977.683.683 0 0 0-.97 0l-55.407 55.845a.693.693 0 0 0 0 .976h.001zm9.59 0a.683.683 0 0 0 .969 0l55.407-55.844a.693.693 0 0 0 0-.977.683.683 0 0 0-.968 0l-55.407 55.845a.693.693 0 0 0 0 .976zm8.906 0a.683.683 0 0 0 .97 0l55.407-55.844a.693.693 0 0 0 0-.977.683.683 0 0 0-.97 0l-55.407 55.845a.693.693 0 0 0 0 .976zm9.591 0a.683.683 0 0 0 .969 0l55.407-55.845a.693.693 0 0 0 0-.976.683.683 0 0 0-.968 0l-55.408 55.845a.693.693 0 0 0 0 .976zm9.591 0a.683.683 0 0 0 .968 0l45.132-45.488a.693.693 0 0 0 0-.977.683.683 0 0 0-.969 0l-45.131 45.488a.693.693 0 0 0 0 .977zm8.906 0a.683.683 0 0 0 .969 0l36.91-37.202a.693.693 0 0 0 0-.977.683.683 0 0 0-.968 0l-36.911 37.202a.693.693 0 0 0 0 .977zm8.905 0a.683.683 0 0 0 .97 0l28.004-28.226a.693.693 0 0 0 0-.977.683.683 0 0 0-.968 0l-28.005 28.226a.693.693 0 0 0 0 .977zm9.591 0a.683.683 0 0 0 .97 0l18.413-18.56a.693.693 0 0 0 0-.976.683.683 0 0 0-.968 0l-18.415 18.56a.693.693 0 0 0 0 .976zm8.906 0a.683.683 0 0 0 .969 0l9.508-9.583a.693.693 0 0 0 0-.976.683.683 0 0 0-.968 0l-9.509 9.583a.693.693 0 0 0 0 .976z" opacity=".9" fill="#FFF" fill-rule="nonzero"/><path d="M195.347 72.286a.546.546 0 0 0 0 .775l7.422 7.364a.555.555 0 0 0 .781 0 .546.546 0 0 0 0-.776l-7.421-7.363a.555.555 0 0 0-.782 0zm-7.18 0a.546.546 0 0 0 0 .775l13.742 13.635a.555.555 0 0 0 .781 0 .546.546 0 0 0 0-.775l-13.742-13.635a.555.555 0 0 0-.781 0zm-7.181 0a.546.546 0 0 0 0 .775l22.305 22.13a.555.555 0 0 0 .78 0 .546.546 0 0 0 0-.775l-22.304-22.13a.555.555 0 0 0-.781 0zm-7.181 0a.546.546 0 0 0 0 .775l29.485 29.254a.555.555 0 0 0 .781 0 .546.546 0 0 0 0-.774l-29.485-29.255a.555.555 0 0 0-.781 0zm-7.733 0a.546.546 0 0 0 0 .775l37.218 36.927a.555.555 0 0 0 .781 0 .546.546 0 0 0 0-.775l-37.218-36.927a.555.555 0 0 0-.781 0zm-7.181 0a.546.546 0 0 0 0 .775l44.676 44.326a.555.555 0 0 0 .78 0 .546.546 0 0 0 0-.775l-44.675-44.326a.555.555 0 0 0-.781 0zm0 7.125a.546.546 0 0 0 0 .775l44.675 44.326a.555.555 0 0 0 .78 0 .546.546 0 0 0 0-.775L159.672 79.41a.555.555 0 0 0-.781 0zm0 7.673a.546.546 0 0 0 0 .774l44.675 44.326a.555.555 0 0 0 .78 0 .546.546 0 0 0 0-.774l-44.675-44.326a.555.555 0 0 0-.781 0zm0 7.124a.546.546 0 0 0 0 .775l44.675 44.326a.555.555 0 0 0 .78 0 .546.546 0 0 0 0-.775l-44.675-44.326a.555.555 0 0 0-.781 0zm0 7.673a.546.546 0 0 0 0 .775l44.676 44.326a.555.555 0 0 0 .78 0 .546.546 0 0 0 0-.775l-44.675-44.326a.555.555 0 0 0-.781 0zm0 7.673a.546.546 0 0 0 0 .774l36.39 36.106a.555.555 0 0 0 .943-.388.546.546 0 0 0-.162-.387l-36.39-36.105a.555.555 0 0 0-.781 0zm0 7.124a.546.546 0 0 0 0 .775l29.761 29.529a.555.555 0 0 0 .782 0 .546.546 0 0 0 0-.775l-29.762-29.529a.555.555 0 0 0-.781 0zm0 7.124a.546.546 0 0 0 0 .776l22.58 22.404a.555.555 0 0 0 .781 0 .546.546 0 0 0 0-.775l-22.58-22.404a.555.555 0 0 0-.781 0zm0 7.674a.546.546 0 0 0 0 .775l14.847 14.73a.555.555 0 0 0 .78 0 .546.546 0 0 0 0-.774l-14.846-14.731a.555.555 0 0 0-.781 0zm0 7.124a.546.546 0 0 0 0 .775l7.666 7.607a.555.555 0 0 0 .78 0 .546.546 0 0 0 0-.775l-7.665-7.607a.555.555 0 0 0-.781 0z" opacity=".159" fill="#FFF" fill-rule="nonzero"/><path d="M187.347 65.286a.546.546 0 0 0 0 .775l7.422 7.364a.555.555 0 0 0 .781 0 .546.546 0 0 0 0-.776l-7.421-7.363a.555.555 0 0 0-.782 0zm-7.18 0a.546.546 0 0 0 0 .775l13.742 13.635a.555.555 0 0 0 .781 0 .546.546 0 0 0 0-.775l-13.742-13.635a.555.555 0 0 0-.781 0zm-7.181 0a.546.546 0 0 0 0 .775l22.305 22.13a.555.555 0 0 0 .78 0 .546.546 0 0 0 0-.775l-22.304-22.13a.555.555 0 0 0-.781 0zm-7.181 0a.546.546 0 0 0 0 .775l29.485 29.254a.555.555 0 0 0 .781 0 .546.546 0 0 0 0-.774l-29.485-29.255a.555.555 0 0 0-.781 0zm-7.733 0a.546.546 0 0 0 0 .775l37.218 36.927a.555.555 0 0 0 .781 0 .546.546 0 0 0 0-.775l-37.218-36.927a.555.555 0 0 0-.781 0zm-7.181 0a.546.546 0 0 0 0 .775l44.676 44.326a.555.555 0 0 0 .78 0 .546.546 0 0 0 0-.775l-44.675-44.326a.555.555 0 0 0-.781 0zm0 7.125a.546.546 0 0 0 0 .775l44.675 44.326a.555.555 0 0 0 .78 0 .546.546 0 0 0 0-.775L151.672 72.41a.555.555 0 0 0-.781 0zm0 7.673a.546.546 0 0 0 0 .774l44.675 44.326a.555.555 0 0 0 .78 0 .546.546 0 0 0 0-.774l-44.675-44.326a.555.555 0 0 0-.781 0zm0 7.124a.546.546 0 0 0 0 .775l44.675 44.326a.555.555 0 0 0 .78 0 .546.546 0 0 0 0-.775l-44.675-44.326a.555.555 0 0 0-.781 0zm0 7.673a.546.546 0 0 0 0 .775l44.676 44.326a.555.555 0 0 0 .78 0 .546.546 0 0 0 0-.775l-44.675-44.326a.555.555 0 0 0-.781 0zm0 7.673a.546.546 0 0 0 0 .774l36.39 36.106a.555.555 0 0 0 .943-.388.546.546 0 0 0-.162-.387l-36.39-36.105a.555.555 0 0 0-.781 0zm0 7.124a.546.546 0 0 0 0 .775l29.761 29.529a.555.555 0 0 0 .782 0 .546.546 0 0 0 0-.775l-29.762-29.529a.555.555 0 0 0-.781 0zm0 7.124a.546.546 0 0 0 0 .776l22.58 22.404a.555.555 0 0 0 .781 0 .546.546 0 0 0 0-.775l-22.58-22.404a.555.555 0 0 0-.781 0zm0 7.674a.546.546 0 0 0 0 .775l14.847 14.73a.555.555 0 0 0 .78 0 .546.546 0 0 0 0-.774l-14.846-14.731a.555.555 0 0 0-.781 0zm0 7.124a.546.546 0 0 0 0 .775l7.666 7.607a.555.555 0 0 0 .78 0 .546.546 0 0 0 0-.775l-7.665-7.607a.555.555 0 0 0-.781 0z" opacity=".488" fill="#FFF" fill-rule="nonzero"/><path d="M72.869 300.5a.605.605 0 0 0 .857 0l8.138-8.158a.607.607 0 0 0-.857-.858l-8.138 8.157a.607.607 0 0 0 0 .859zm0 7.892a.605.605 0 0 0 .857 0l15.07-15.105a.607.607 0 0 0-.857-.858l-15.07 15.105a.607.607 0 0 0 0 .858zm0 7.893a.605.605 0 0 0 .857 0l24.459-24.516a.607.607 0 0 0-.857-.858l-24.46 24.516a.607.607 0 0 0 0 .858zm0 7.893a.605.605 0 0 0 .857 0l32.333-32.409a.607.607 0 0 0-.856-.858L72.87 323.32a.607.607 0 0 0 0 .858zm0 8.5a.605.605 0 0 0 .857 0l40.813-40.909a.607.607 0 0 0-.856-.858L72.87 331.819a.607.607 0 0 0 0 .858zm0 7.892a.605.605 0 0 0 .857 0l48.992-49.105a.607.607 0 0 0-.857-.858l-48.992 49.105a.607.607 0 0 0 0 .858zm7.875 0a.605.605 0 0 0 .856 0l48.992-49.104a.607.607 0 0 0-.857-.858l-48.992 49.105a.607.607 0 0 0 0 .858h.001zm8.48 0a.605.605 0 0 0 .856 0l48.992-49.104a.607.607 0 0 0-.856-.858l-48.992 49.105a.607.607 0 0 0 0 .858zm7.874 0a.605.605 0 0 0 .857 0l48.992-49.104a.607.607 0 0 0-.857-.858l-48.992 49.105a.607.607 0 0 0 0 .858zm8.481 0a.605.605 0 0 0 .856 0l48.992-49.105a.607.607 0 0 0-.856-.858l-48.992 49.105a.607.607 0 0 0 0 .858zm8.48 0a.605.605 0 0 0 .856 0l39.907-39.997a.607.607 0 0 0-.857-.86l-39.906 40a.607.607 0 0 0 0 .857zm7.875 0a.605.605 0 0 0 .856 0l32.637-32.711a.607.607 0 0 0-.856-.86l-32.637 32.712a.607.607 0 0 0 0 .86zm7.874 0a.605.605 0 0 0 .858 0l24.761-24.818a.607.607 0 0 0-.856-.86l-24.762 24.82a.607.607 0 0 0 0 .858h-.001zm8.48 0a.605.605 0 0 0 .858 0l16.281-16.319a.607.607 0 0 0-.856-.858l-16.282 16.32a.607.607 0 0 0 0 .857zm7.875 0a.605.605 0 0 0 .857 0l8.407-8.426a.607.607 0 0 0-.856-.858l-8.408 8.426a.607.607 0 0 0 0 .858z" opacity=".9" fill="#FFF" fill-rule="nonzero"/><path d="M82.869 307.5a.605.605 0 0 0 .857 0l8.138-8.158a.607.607 0 0 0-.857-.858l-8.138 8.157a.607.607 0 0 0 0 .859zm0 7.892a.605.605 0 0 0 .857 0l15.07-15.105a.607.607 0 0 0-.857-.858l-15.07 15.105a.607.607 0 0 0 0 .858zm0 7.893a.605.605 0 0 0 .857 0l24.459-24.516a.607.607 0 0 0-.857-.858l-24.46 24.516a.607.607 0 0 0 0 .858zm0 7.893a.605.605 0 0 0 .857 0l32.333-32.409a.607.607 0 0 0-.856-.858L82.87 330.32a.607.607 0 0 0 0 .858zm0 8.5a.605.605 0 0 0 .857 0l40.813-40.909a.607.607 0 0 0-.856-.858L82.87 338.819a.607.607 0 0 0 0 .858zm0 7.892a.605.605 0 0 0 .857 0l48.992-49.105a.607.607 0 0 0-.857-.858l-48.992 49.105a.607.607 0 0 0 0 .858zm7.875 0a.605.605 0 0 0 .856 0l48.992-49.104a.607.607 0 0 0-.857-.858l-48.992 49.105a.607.607 0 0 0 0 .858h.001zm8.48 0a.605.605 0 0 0 .856 0l48.992-49.104a.607.607 0 0 0-.856-.858l-48.992 49.105a.607.607 0 0 0 0 .858zm7.874 0a.605.605 0 0 0 .857 0l48.992-49.104a.607.607 0 0 0-.857-.858l-48.992 49.105a.607.607 0 0 0 0 .858zm8.481 0a.605.605 0 0 0 .856 0l48.992-49.105a.607.607 0 0 0-.856-.858l-48.992 49.105a.607.607 0 0 0 0 .858zm8.48 0a.605.605 0 0 0 .856 0l39.907-39.997a.607.607 0 0 0-.857-.86l-39.906 40a.607.607 0 0 0 0 .857zm7.875 0a.605.605 0 0 0 .856 0l32.637-32.711a.607.607 0 0 0-.856-.86l-32.637 32.712a.607.607 0 0 0 0 .86zm7.874 0a.605.605 0 0 0 .858 0l24.761-24.818a.607.607 0 0 0-.856-.86l-24.762 24.82a.607.607 0 0 0 0 .858h-.001zm8.48 0a.605.605 0 0 0 .858 0l16.281-16.319a.607.607 0 0 0-.856-.858l-16.282 16.32a.607.607 0 0 0 0 .857zm7.875 0a.605.605 0 0 0 .857 0l8.407-8.426a.607.607 0 0 0-.856-.858l-8.408 8.426a.607.607 0 0 0 0 .858z" opacity=".224" fill="#FFF" fill-rule="nonzero"/><g transform="translate(188 504)" fill="#D9ECFC" fill-rule="nonzero"><circle style="mix-blend-mode:overlay" transform="rotate(-135 2.224 18.794)" cx="2.224" cy="18.794" r="1.503"/><circle style="mix-blend-mode:overlay" transform="rotate(-135 10.439 18.49)" cx="10.439" cy="18.491" r="1.503"/><circle style="mix-blend-mode:overlay" transform="rotate(-135 10.438 10.612)" cx="10.438" cy="10.612" r="1.503"/><circle style="mix-blend-mode:overlay" transform="rotate(-135 18.349 18.49)" cx="18.349" cy="18.491" r="1.503"/><circle style="mix-blend-mode:overlay" transform="rotate(-135 18.652 10.31)" cx="18.652" cy="10.309" r="1.503"/><circle style="mix-blend-mode:overlay" transform="rotate(-135 18.652 2.43)" cx="18.652" cy="2.43" r="1.503"/><circle style="mix-blend-mode:overlay" transform="rotate(-135 26.562 10.31)" cx="26.562" cy="10.309" r="1.503"/><circle style="mix-blend-mode:overlay" transform="rotate(-135 26.867 18.491)" cx="26.867" cy="18.491" r="1.503"/><circle style="mix-blend-mode:overlay" transform="rotate(-135 34.776 18.49)" cx="34.776" cy="18.491" r="1.503"/></g><g transform="rotate(-180 50 128)" fill="#D9ECFC" fill-rule="nonzero"><circle style="mix-blend-mode:overlay" transform="rotate(-135 1.731 15.035)" cx="1.731" cy="15.035" r="1.186"/><circle style="mix-blend-mode:overlay" transform="rotate(-135 8.126 14.794)" cx="8.126" cy="14.794" r="1.186"/><circle style="mix-blend-mode:overlay" transform="rotate(-135 8.126 8.49)" cx="8.126" cy="8.49" r="1.186"/><circle style="mix-blend-mode:overlay" transform="rotate(-135 14.282 14.793)" cx="14.282" cy="14.793" r="1.186"/><circle style="mix-blend-mode:overlay" transform="rotate(-135 14.518 8.248)" cx="14.518" cy="8.248" r="1.186"/><circle style="mix-blend-mode:overlay" transform="rotate(-135 14.518 1.944)" cx="14.518" cy="1.944" r="1.186"/><circle style="mix-blend-mode:overlay" transform="rotate(-135 20.674 8.247)" cx="20.674" cy="8.247" r="1.186"/><circle style="mix-blend-mode:overlay" transform="rotate(-135 20.912 14.793)" cx="20.912" cy="14.793" r="1.186"/><circle style="mix-blend-mode:overlay" transform="rotate(-135 27.069 14.793)" cx="27.069" cy="14.793" r="1.186"/></g><g transform="rotate(-180 48 376)" fill="#D9ECFC" fill-rule="nonzero"><circle style="mix-blend-mode:overlay" transform="rotate(-135 1.863 15.215)" cx="1.863" cy="15.215" r="1.238"/><circle style="mix-blend-mode:overlay" transform="rotate(-135 8.745 14.97)" cx="8.745" cy="14.969" r="1.238"/><circle style="mix-blend-mode:overlay" transform="rotate(-135 8.745 8.59)" cx="8.745" cy="8.591" r="1.238"/><circle style="mix-blend-mode:overlay" transform="rotate(-135 15.373 14.97)" cx="15.373" cy="14.969" r="1.238"/><circle style="mix-blend-mode:overlay" transform="rotate(-135 15.627 8.345)" cx="15.627" cy="8.345" r="1.238"/><circle style="mix-blend-mode:overlay" transform="rotate(-135 15.627 1.967)" cx="15.627" cy="1.967" r="1.238"/><circle style="mix-blend-mode:overlay" transform="rotate(-135 22.255 8.345)" cx="22.255" cy="8.345" r="1.238"/><circle style="mix-blend-mode:overlay" transform="rotate(-135 22.51 14.97)" cx="22.509" cy="14.969" r="1.238"/><circle style="mix-blend-mode:overlay" transform="rotate(-135 29.137 14.97)" cx="29.137" cy="14.969" r="1.238"/></g><g transform="rotate(-180 143 164)" fill="#D9ECFC" fill-rule="nonzero"><circle style="mix-blend-mode:overlay" transform="rotate(-135 1.563 12.53)" cx="1.563" cy="12.53" r="1.029"/><circle style="mix-blend-mode:overlay" transform="rotate(-135 7.334 12.327)" cx="7.334" cy="12.327" r="1.029"/><circle style="mix-blend-mode:overlay" transform="rotate(-135 7.334 7.074)" cx="7.334" cy="7.074" r="1.029"/><circle style="mix-blend-mode:overlay" transform="rotate(-135 12.893 12.328)" cx="12.893" cy="12.328" r="1.029"/><circle style="mix-blend-mode:overlay" transform="rotate(-135 13.107 6.873)" cx="13.107" cy="6.873" r="1.029"/><circle style="mix-blend-mode:overlay" transform="rotate(-135 13.107 1.62)" cx="13.107" cy="1.62" r="1.029"/><circle style="mix-blend-mode:overlay" transform="rotate(-135 18.666 6.873)" cx="18.666" cy="6.873" r="1.029"/><circle style="mix-blend-mode:overlay" transform="rotate(-135 18.879 12.328)" cx="18.879" cy="12.328" r="1.029"/><circle style="mix-blend-mode:overlay" transform="rotate(-135 24.437 12.328)" cx="24.437" cy="12.328" r="1.029"/></g><path d="M291 504.204l5.196-8.804 5.204 8.804H291zm-89 153.797l6.505-11 6.495 11h-13zm-87.4 127.964l7.995-14.407 8.005 14.407h-16zm136-401.756l5.2-9.604 5.2 9.604h-10.4zm42 334.372l-7.6 13.606-7.6-13.606h15.2zM255 781.892l-4.685 8.109-4.682-8.109H255zM87.8 529.077l-6.805 11.205-6.795-11.205h13.6zm8.4-51.624l-4.799 8.004-4.801-8.004h9.6zm64-74.435l-5.594 9.604-5.606-9.604h11.2zM97.6 174.965l7.995-14.407 8.005 14.407h-16zm178-67.384l-7.6 13.606-7.6-13.606h15.2zM238 170.892l-4.685 8.109-4.682-8.109H238z" style="mix-blend-mode:overlay" fill="#D9ECFC" fill-rule="nonzero"/><path d="M70 785.796l-5.196 8.804-5.204-8.804H70zM56.4 444.035l-7.995 14.407-8.005-14.407h16zm52-33.616l7.6-13.606 7.6 13.606h-15.2zM23.2 630.923l6.805-11.205 6.795 11.205H23.2zm-8.4 51.624l4.799-8.004 4.801 8.004h-9.6zM169 178.796l-5.196 8.804-5.204-8.804H169zM251 47.12l-11.2 19.209-11.2-19.21 22.4.001zM29.4 168.791l-5.2 9.604-5.2-9.604h10.4zm92.8-144.868l6.805-11.205 6.795 11.205h-13.6zm-8.4 51.624l4.799-8.004 4.801 8.004h-9.6zm-64 74.435l5.594-9.604L61 149.982H49.8z" style="mix-blend-mode:overlay" fill="#D9ECFC" fill-opacity=".3" fill-rule="nonzero"/><path d="M106 368.796l-5.196 8.804-5.204-8.804H106zM-4 229.601l-9 14.999-9-15h18zm-29.6 129.19l-5.2 9.604-5.2-9.604h10.4zm92.8-144.868l6.805-11.205 6.795 11.205H59.2zm-8.4 51.624l4.799-8.004 4.801 8.004h-9.6zm-64 74.435l5.594-9.604L-2 339.982h-11.2zM325 366.796l-5.196 8.804-5.204-8.804H325zM177 205.12l-11.2 19.209-11.2-19.21 22.4.001zm8.4 151.671l-5.2 9.604-5.2-9.604h10.4zm92.8-144.868l6.805-11.205 6.795 11.205h-13.6zm-8.4 51.624l4.799-8.004 4.801 8.004h-9.6zm-64 74.435l5.594-9.604 5.606 9.604h-11.2z" style="mix-blend-mode:overlay" fill="#D9ECFC" fill-opacity=".15" fill-rule="nonzero"/><path d="M316.64 119.274a1.27 1.27 0 0 0 1.274 1.27c.702 0 1.271-.569 1.272-1.27a1.272 1.272 0 0 0-1.272-1.269 1.269 1.269 0 0 0-1.274 1.27m0 6.769a1.272 1.272 0 0 0 1.274 1.27 1.275 1.275 0 0 0 1.272-1.27 1.273 1.273 0 1 0-2.546 0m0 7.194a1.273 1.273 0 0 0 2.546 0 1.27 1.27 0 0 0-1.272-1.27 1.268 1.268 0 0 0-1.274 1.27m0 6.773a1.27 1.27 0 0 0 1.274 1.267c.7 0 1.27-.566 1.272-1.267a1.273 1.273 0 0 0-2.546 0m0 7.191a1.272 1.272 0 0 0 1.274 1.27 1.275 1.275 0 0 0 1.272-1.27 1.271 1.271 0 0 0-1.272-1.269 1.269 1.269 0 0 0-1.274 1.269m0 6.77a1.273 1.273 0 1 0 2.546 0 1.271 1.271 0 0 0-1.272-1.269 1.269 1.269 0 0 0-1.274 1.268m0 7.196a1.269 1.269 0 0 0 1.274 1.269 1.27 1.27 0 0 0 1.272-1.269 1.272 1.272 0 0 0-2.172-.9 1.27 1.27 0 0 0-.374.9m0 6.77a1.27 1.27 0 0 0 1.274 1.27c.702 0 1.271-.569 1.273-1.27a1.272 1.272 0 0 0-2.546 0m-.001 6.77a1.27 1.27 0 0 0 1.274 1.27 1.27 1.27 0 1 0 0-2.539 1.268 1.268 0 0 0-1.273 1.268m-.001 7.195a1.273 1.273 0 0 0 2.546 0 1.272 1.272 0 0 0-1.272-1.269 1.269 1.269 0 0 0-1.273 1.269m-.001 6.772a1.268 1.268 0 0 0 1.274 1.269 1.271 1.271 0 1 0 0-2.542c-.704 0-1.273.57-1.273 1.273m-.001 7.191a1.271 1.271 0 0 0 1.274 1.271c.702 0 1.27-.57 1.273-1.271a1.273 1.273 0 0 0-2.546 0m-.001 6.772a1.269 1.269 0 0 0 1.274 1.27c.702 0 1.272-.568 1.273-1.27a1.272 1.272 0 0 0-1.273-1.269 1.269 1.269 0 0 0-1.273 1.27m-.001 7.193a1.269 1.269 0 0 0 1.274 1.27c.702 0 1.271-.568 1.273-1.27a1.273 1.273 0 0 0-2.546 0m-.001 6.772a1.268 1.268 0 0 0 1.274 1.268c.701 0 1.27-.567 1.273-1.268a1.273 1.273 0 0 0-2.546 0m-7.215-97.328a1.27 1.27 0 0 0 1.274 1.27 1.27 1.27 0 0 0 0-2.54 1.269 1.269 0 0 0-1.274 1.27m0 6.77a1.272 1.272 0 1 0 2.173-.898 1.27 1.27 0 0 0-.899-.371 1.27 1.27 0 0 0-1.273 1.268m0 7.194c0 .7.567 1.27 1.273 1.27a1.27 1.27 0 1 0 0-2.539 1.268 1.268 0 0 0-1.274 1.27m0 6.773a1.27 1.27 0 0 0 1.274 1.267 1.27 1.27 0 1 0 0-2.539 1.271 1.271 0 0 0-1.274 1.272m0 7.191a1.272 1.272 0 1 0 2.174-.899 1.269 1.269 0 0 0-.9-.37 1.269 1.269 0 0 0-1.274 1.269m0 6.77a1.27 1.27 0 0 0 1.274 1.27 1.27 1.27 0 1 0 0-2.539 1.269 1.269 0 0 0-1.274 1.268m0 7.196a1.269 1.269 0 0 0 1.274 1.269 1.27 1.27 0 0 0 0-2.539 1.27 1.27 0 0 0-1.274 1.27m0 6.77a1.27 1.27 0 0 0 1.274 1.27 1.27 1.27 0 1 0 0-2.54 1.27 1.27 0 0 0-1.274 1.27m0 6.77a1.27 1.27 0 0 0 1.274 1.27 1.27 1.27 0 1 0 0-2.539 1.268 1.268 0 0 0-1.274 1.268m0 7.195c0 .7.568 1.27 1.274 1.27a1.27 1.27 0 1 0-.9-2.169 1.269 1.269 0 0 0-.373.899m0 6.772a1.269 1.269 0 0 0 1.273 1.269 1.269 1.269 0 1 0 0-2.54 1.27 1.27 0 0 0-1.274 1.272m0 7.19a1.272 1.272 0 0 0 1.274 1.271 1.27 1.27 0 0 0 0-2.539 1.27 1.27 0 0 0-1.273 1.268m0 6.772a1.269 1.269 0 0 0 1.273 1.27 1.27 1.27 0 0 0 0-2.539 1.269 1.269 0 0 0-1.274 1.27m0 7.193a1.269 1.269 0 0 0 1.274 1.27 1.27 1.27 0 0 0 0-2.539 1.27 1.27 0 0 0-1.274 1.27m0 6.771a1.269 1.269 0 0 0 1.274 1.268 1.27 1.27 0 0 0 0-2.539 1.27 1.27 0 0 0-1.274 1.271m-6.789-97.328a1.274 1.274 0 0 0 2.546 0 1.268 1.268 0 0 0-1.271-1.269c-.702 0-1.273.567-1.275 1.27m0 6.768c.004.702.573 1.27 1.275 1.27a1.27 1.27 0 0 0 0-2.539c-.702 0-1.272.568-1.275 1.27m0 7.193c0 .7.574 1.27 1.275 1.27a1.27 1.27 0 1 0 0-2.539 1.273 1.273 0 0 0-1.275 1.27m0 6.773c0 .697.574 1.267 1.275 1.267a1.27 1.27 0 1 0 0-2.539c-.703 0-1.273.57-1.275 1.272m0 7.191a1.277 1.277 0 0 0 1.275 1.27 1.271 1.271 0 0 0 .9-2.168 1.273 1.273 0 0 0-2.174.898m-.001 6.77a1.275 1.275 0 0 0 1.275 1.27 1.27 1.27 0 1 0 0-2.539c-.702 0-1.272.567-1.275 1.268m0 7.196a1.273 1.273 0 0 0 2.546 0 1.269 1.269 0 0 0-1.271-1.27c-.702 0-1.273.568-1.275 1.27m0 6.77a1.275 1.275 0 0 0 2.174.898 1.269 1.269 0 0 0-.899-2.168c-.702 0-1.272.567-1.275 1.27m0 6.77a1.275 1.275 0 0 0 2.174.899 1.269 1.269 0 0 0-.899-2.168 1.273 1.273 0 0 0-1.275 1.268m0 7.195a1.276 1.276 0 0 0 2.174.898 1.27 1.27 0 0 0-.899-2.167c-.702 0-1.273.567-1.275 1.269m0 6.772a1.274 1.274 0 0 0 1.275 1.269 1.27 1.27 0 0 0 0-2.54c-.703 0-1.273.569-1.275 1.271m0 7.191c.003.702.573 1.27 1.275 1.271a1.27 1.27 0 1 0 0-2.539c-.701 0-1.271.567-1.275 1.268m0 6.772a1.274 1.274 0 0 0 2.546 0 1.268 1.268 0 0 0-1.271-1.269c-.702 0-1.273.567-1.275 1.27m0 7.193c.003.703.573 1.27 1.275 1.27a1.27 1.27 0 0 0 0-2.54c-.702 0-1.272.568-1.275 1.27m0 6.772a1.274 1.274 0 0 0 2.545-.002 1.27 1.27 0 0 0-1.27-1.269c-.703 0-1.273.568-1.275 1.271m-7.201-97.328c0 .7.567 1.268 1.267 1.27.704 0 1.279-.569 1.279-1.27a1.275 1.275 0 0 0-1.279-1.269 1.27 1.27 0 0 0-1.267 1.269m0 6.77a1.273 1.273 0 0 0 2.546 0c0-.699-.575-1.269-1.279-1.269-.7.002-1.265.57-1.267 1.268m0 7.194a1.272 1.272 0 1 0 2.17-.899 1.274 1.274 0 0 0-2.17.9m0 6.773a1.271 1.271 0 0 0 1.267 1.267c.704 0 1.279-.57 1.279-1.267a1.272 1.272 0 1 0-2.546 0m0 7.191a1.273 1.273 0 0 0 2.546 0c0-.703-.575-1.269-1.279-1.269a1.27 1.27 0 0 0-1.267 1.269m0 6.77c0 .7.567 1.268 1.267 1.27a1.277 1.277 0 0 0 1.279-1.27c0-.702-.575-1.269-1.279-1.269a1.27 1.27 0 0 0-1.267 1.268m0 7.196c0 .7.567 1.268 1.267 1.269.704 0 1.279-.567 1.279-1.269a1.275 1.275 0 0 0-1.279-1.27 1.27 1.27 0 0 0-1.267 1.27m0 6.77c0 .7.567 1.268 1.267 1.27a1.276 1.276 0 0 0 1.279-1.27c0-.701-.575-1.27-1.279-1.27a1.27 1.27 0 0 0-1.267 1.27m0 6.77c0 .7.567 1.268 1.267 1.27a1.276 1.276 0 0 0 1.279-1.27 1.274 1.274 0 0 0-2.546 0m0 7.194a1.272 1.272 0 0 0 2.546 0c0-.702-.575-1.269-1.279-1.269a1.27 1.27 0 0 0-1.267 1.269m0 6.772c0 .7.567 1.267 1.267 1.268.704 0 1.279-.567 1.279-1.268a1.277 1.277 0 0 0-1.279-1.27 1.27 1.27 0 0 0-1.267 1.27m0 7.191a1.272 1.272 0 0 0 2.546 0c0-.699-.575-1.268-1.279-1.268a1.271 1.271 0 0 0-1.267 1.268m0 6.772c0 .7.567 1.268 1.267 1.27a1.275 1.275 0 0 0 1.279-1.27 1.275 1.275 0 0 0-1.279-1.269 1.27 1.27 0 0 0-1.267 1.27m0 7.193c0 .7.567 1.268 1.267 1.27.704 0 1.279-.568 1.279-1.27a1.272 1.272 0 1 0-2.546 0m0 6.772c0 .7.567 1.267 1.267 1.268.704 0 1.279-.567 1.279-1.268a1.276 1.276 0 0 0-1.279-1.271 1.27 1.27 0 0 0-1.267 1.271" fill="#D9ECFC" fill-rule="nonzero" opacity=".741"/></g></svg>