<svg width="553" height="564" viewBox="0 0 553 564" xmlns="http://www.w3.org/2000/svg"><g fill="#FFF"><path d="M520.408 40.5v2.426h-2.405V40.5zm0 8.778v2.426h-2.405v-2.426zm0 8.781v2.426h-2.405v-2.426zm0 8.778v2.426h-2.405v-2.426zM511.703 40.5v2.426h-2.405V40.5zm0 8.778v2.426h-2.405v-2.426zm0 8.781v2.426h-2.405v-2.426zm0 8.778v2.426h-2.405v-2.426zM503 40.5v2.426h-2.405V40.5zm0 8.778v2.426h-2.405v-2.426zm0 8.781v2.426h-2.405v-2.426zm0 8.778v2.426h-2.405v-2.426z" opacity=".2"/><path d="M364.384 199.5v-3.011h-3.006v3.011zm0-10.897v-3.011h-3.006v3.011zm0-10.9v-3.011h-3.006v3.011zm0-10.897v-3.011h-3.006v3.011zM353.503 199.5v-3.011h-3.006v3.011zm0-10.897v-3.011h-3.006v3.011zm0-10.9v-3.011h-3.006v3.011zm0-10.897v-3.011h-3.006v3.011zM342.625 199.5v-3.011h-3.006v3.011zm0-10.897v-3.011h-3.006v3.011zm0-10.9v-3.011h-3.006v3.011zm0-10.897v-3.011h-3.006v3.011z" opacity=".4"/><path d="M431.357 363.5v3.848h-3.728V363.5zm0 13.924v3.848h-3.728v-3.848zm0 13.928v3.848h-3.728v-3.848zm0 13.924v3.848h-3.728v-3.848zM417.864 363.5v3.848h-3.728V363.5zm0 13.924v3.848h-3.728v-3.848zm0 13.928v3.848h-3.728v-3.848zm0 13.924v3.848h-3.728v-3.848zM404.375 363.5v3.848h-3.728V363.5zm0 13.924v3.848h-3.728v-3.848zm0 13.928v3.848h-3.728v-3.848zm0 13.924v3.848h-3.728v-3.848z" opacity=".6"/><path d="M85.389 349.5v2.928h-2.886V349.5zm0 10.594v2.928h-2.886v-2.928zm0 10.598v2.928h-2.886v-2.928zm0 10.594v2.928h-2.886v-2.928zM74.943 349.5v2.928h-2.886V349.5zm0 10.594v2.928h-2.886v-2.928zm0 10.598v2.928h-2.886v-2.928zm0 10.594v2.928h-2.886v-2.928zM64.5 349.5v2.928h-2.886V349.5zm0 10.594v2.928h-2.886v-2.928zm0 10.598v2.928h-2.886v-2.928zm0 10.594v2.928h-2.886v-2.928z" opacity=".25"/><path d="M510.908 142v2.426h-2.405V142zm0 8.778v2.426h-2.405v-2.426zm0 8.781v2.426h-2.405v-2.426zm0 8.778v2.426h-2.405v-2.426zM502.203 142v2.426h-2.405V142zm0 8.778v2.426h-2.405v-2.426zm0 8.781v2.426h-2.405v-2.426zm0 8.778v2.426h-2.405v-2.426zM493.5 142v2.426h-2.405V142zm0 8.778v2.426h-2.405v-2.426zm0 8.781v2.426h-2.405v-2.426zm0 8.778v2.426h-2.405v-2.426z" opacity=".2"/><path d="M491.37 443.5v-3.43h-3.367v3.43zm0-12.411v-3.43h-3.367v3.43zm0-12.414v-3.43h-3.367v3.43zm0-12.41v-3.43h-3.367v3.43zM479.184 443.5v-3.43h-3.367v3.43zm0-12.411v-3.43h-3.367v3.43zm0-12.414v-3.43h-3.367v3.43zm0-12.41v-3.43h-3.367v3.43zM467 443.5v-3.43h-3.367v3.43zm0-12.411v-3.43h-3.367v3.43zm0-12.414v-3.43h-3.367v3.43zm0-12.41v-3.43h-3.367v3.43z" opacity=".3"/><path d="M359.408 379.5v2.426h-2.405V379.5zm0 8.778v2.426h-2.405v-2.426zm0 8.781v2.426h-2.405v-2.426zm0 8.778v2.426h-2.405v-2.426zm-8.705-26.337v2.426h-2.405V379.5zm0 8.778v2.426h-2.405v-2.426zm0 8.781v2.426h-2.405v-2.426zm0 8.778v2.426h-2.405v-2.426zM342 379.5v2.426h-2.405V379.5zm0 8.778v2.426h-2.405v-2.426zm0 8.781v2.426h-2.405v-2.426zm0 8.778v2.426h-2.405v-2.426z" opacity=".086"/><path d="M63.384 177.5v-3.011h-3.006v3.011zm0-10.897v-3.011h-3.006v3.011zm0-10.9v-3.011h-3.006v3.011zm0-10.897v-3.011h-3.006v3.011zM52.503 177.5v-3.011h-3.006v3.011zm0-10.897v-3.011h-3.006v3.011zm0-10.9v-3.011h-3.006v3.011zm0-10.897v-3.011h-3.006v3.011zM41.625 177.5v-3.011h-3.006v3.011zm0-10.897v-3.011h-3.006v3.011zm0-10.9v-3.011h-3.006v3.011zm0-10.897v-3.011h-3.006v3.011z" opacity=".209"/><path d="M69.857 412.5v3.848h-3.728V412.5zm0 13.924v3.848h-3.728v-3.848zm0 13.928v3.848h-3.728v-3.848zm0 13.924v3.848h-3.728v-3.848zM56.364 412.5v3.848h-3.728V412.5zm0 13.924v3.848h-3.728v-3.848zm0 13.928v3.848h-3.728v-3.848zm0 13.924v3.848h-3.728v-3.848zM42.875 412.5v3.848h-3.728V412.5zm0 13.924v3.848h-3.728v-3.848zm0 13.928v3.848h-3.728v-3.848zm0 13.924v3.848h-3.728v-3.848z" opacity=".25"/><path d="M218.861 223v3.639h-3.607V223zm0 13.167v3.639h-3.607v-3.639zm0 13.171v3.639h-3.607v-3.639zm0 13.168v3.639h-3.607v-3.639zM205.804 223v3.639h-3.607V223zm0 13.167v3.639h-3.607v-3.639zm0 13.171v3.639h-3.607v-3.639zm0 13.168v3.639h-3.607v-3.639zM192.75 223v3.639h-3.607V223zm0 13.167v3.639h-3.607v-3.639zm0 13.171v3.639h-3.607v-3.639zm0 13.168v3.639h-3.607v-3.639z" opacity=".2"/><path d="M182.852 413v-3.848h-3.848V413zm0-13.924v-3.848h-3.848v3.848zm0-13.928V381.3h-3.848v3.848zm0-13.924v-3.848h-3.848v3.848zM168.924 413v-3.848h-3.848V413zm0-13.924v-3.848h-3.848v3.848zm0-13.928V381.3h-3.848v3.848zm0-13.924v-3.848h-3.848v3.848zM155 413v-3.848h-3.848V413zm0-13.924v-3.848h-3.848v3.848zm0-13.928V381.3h-3.848v3.848zm0-13.924v-3.848h-3.848v3.848z" opacity=".4"/><path d="M181.357 104.5v3.848h-3.728V104.5zm0 13.924v3.848h-3.728v-3.848zm0 13.928v3.848h-3.728v-3.848zm0 13.924v3.848h-3.728v-3.848zM167.864 104.5v3.848h-3.728V104.5zm0 13.924v3.848h-3.728v-3.848zm0 13.928v3.848h-3.728v-3.848zm0 13.924v3.848h-3.728v-3.848zM154.375 104.5v3.848h-3.728V104.5zm0 13.924v3.848h-3.728v-3.848zm0 13.928v3.848h-3.728v-3.848zm0 13.924v3.848h-3.728v-3.848z" opacity=".3"/><path d="M103.384 223.5v3.011h-3.006V223.5zm0 10.897v3.011h-3.006v-3.011zm0 10.9v3.011h-3.006v-3.011zm0 10.897v3.011h-3.006v-3.011zM92.503 223.5v3.011h-3.006V223.5zm0 10.897v3.011h-3.006v-3.011zm0 10.9v3.011h-3.006v-3.011zm0 10.897v3.011h-3.006v-3.011zM81.625 223.5v3.011h-3.006V223.5zm0 10.897v3.011h-3.006v-3.011zm0 10.9v3.011h-3.006v-3.011zm0 10.897v3.011h-3.006v-3.011z" opacity=".25"/><path d="M68.361 15.5v3.614h-3.607V15.5zm0 13.076v3.614h-3.607v-3.614zm0 13.081v3.614h-3.607v-3.614zm0 13.076v3.614h-3.607v-3.614zM55.304 15.5v3.614h-3.607V15.5zm0 13.076v3.614h-3.607v-3.614zm0 13.081v3.614h-3.607v-3.614zm0 13.076v3.614h-3.607v-3.614zM42.25 15.5v3.614h-3.607V15.5zm0 13.076v3.614h-3.607v-3.614zm0 13.081v3.614h-3.607v-3.614zm0 13.076v3.614h-3.607v-3.614z" opacity=".2"/><path d="M113.408 408v2.426h-2.405V408zm0 8.778v2.426h-2.405v-2.426zm0 8.781v2.426h-2.405v-2.426zm0 8.778v2.426h-2.405v-2.426zM104.703 408v2.426h-2.405V408zm0 8.778v2.426h-2.405v-2.426zm0 8.781v2.426h-2.405v-2.426zm0 8.778v2.426h-2.405v-2.426zM96 408v2.426h-2.405V408zm0 8.778v2.426h-2.405v-2.426zm0 8.781v2.426h-2.405v-2.426zm0 8.778v2.426h-2.405v-2.426z" opacity=".25"/><path d="M481.361 279.5v-3.614h-3.607v3.614zm0-13.076v-3.614h-3.607v3.614zm0-13.081v-3.614h-3.607v3.614zm0-13.076v-3.614h-3.607v3.614zM468.304 279.5v-3.614h-3.607v3.614zm0-13.076v-3.614h-3.607v3.614zm0-13.081v-3.614h-3.607v3.614zm0-13.076v-3.614h-3.607v3.614zM455.25 279.5v-3.614h-3.607v3.614zm0-13.076v-3.614h-3.607v3.614zm0-13.081v-3.614h-3.607v3.614zm0-13.076v-3.614h-3.607v3.614z" opacity=".4"/><path d="M164.357 495v3.848h-3.728V495zm0 13.924v3.848h-3.728v-3.848zm0 13.928v3.848h-3.728v-3.848zm0 13.924v3.848h-3.728v-3.848zM150.864 495v3.848h-3.728V495zm0 13.924v3.848h-3.728v-3.848zm0 13.928v3.848h-3.728v-3.848zm0 13.924v3.848h-3.728v-3.848zM137.375 495v3.848h-3.728V495zm0 13.924v3.848h-3.728v-3.848zm0 13.928v3.848h-3.728v-3.848zm0 13.924v3.848h-3.728v-3.848z" opacity=".25"/><path d="M327.908 304v2.426h-2.405V304zm0 8.778v2.426h-2.405v-2.426zm0 8.781v2.426h-2.405v-2.426zm0 8.778v2.426h-2.405v-2.426zM319.203 304v2.426h-2.405V304zm0 8.778v2.426h-2.405v-2.426zm0 8.781v2.426h-2.405v-2.426zm0 8.778v2.426h-2.405v-2.426zM310.5 304v2.426h-2.405V304zm0 8.778v2.426h-2.405v-2.426zm0 8.781v2.426h-2.405v-2.426zm0 8.778v2.426h-2.405v-2.426z" opacity=".2"/><path d="M388.37 311.5v-3.43h-3.367v3.43zm0-12.411v-3.43h-3.367v3.43zm0-12.414v-3.43h-3.367v3.43zm0-12.41v-3.43h-3.367v3.43zM376.184 311.5v-3.43h-3.367v3.43zm0-12.411v-3.43h-3.367v3.43zm0-12.414v-3.43h-3.367v3.43zm0-12.41v-3.43h-3.367v3.43zM364 311.5v-3.43h-3.367v3.43zm0-12.411v-3.43h-3.367v3.43zm0-12.414v-3.43h-3.367v3.43zm0-12.41v-3.43h-3.367v3.43z" opacity=".3"/><path d="M277.857 194v3.848h-3.728V194zm0 13.924v3.848h-3.728v-3.848zm0 13.928v3.848h-3.728v-3.848zm0 13.924v3.848h-3.728v-3.848zM264.364 194v3.848h-3.728V194zm0 13.924v3.848h-3.728v-3.848zm0 13.928v3.848h-3.728v-3.848zm0 13.924v3.848h-3.728v-3.848zM250.875 194v3.848h-3.728V194zm0 13.924v3.848h-3.728v-3.848zm0 13.928v3.848h-3.728v-3.848zm0 13.924v3.848h-3.728v-3.848z" opacity=".4"/><path d="M162.384 275.5v3.011h-3.006V275.5zm0 10.897v3.011h-3.006v-3.011zm0 10.9v3.011h-3.006v-3.011zm0 10.897v3.011h-3.006v-3.011zM151.503 275.5v3.011h-3.006V275.5zm0 10.897v3.011h-3.006v-3.011zm0 10.9v3.011h-3.006v-3.011zm0 10.897v3.011h-3.006v-3.011zM140.625 275.5v3.011h-3.006V275.5zm0 10.897v3.011h-3.006v-3.011zm0 10.9v3.011h-3.006v-3.011zm0 10.897v3.011h-3.006v-3.011z" opacity=".15"/><path d="M345.908 83v2.426h-2.405V83zm0 8.778v2.426h-2.405v-2.426zm0 8.781v2.426h-2.405v-2.426zm0 8.778v2.426h-2.405v-2.426zM337.203 83v2.426h-2.405V83zm0 8.778v2.426h-2.405v-2.426zm0 8.781v2.426h-2.405v-2.426zm0 8.778v2.426h-2.405v-2.426zM328.5 83v2.426h-2.405V83zm0 8.778v2.426h-2.405v-2.426zm0 8.781v2.426h-2.405v-2.426zm0 8.778v2.426h-2.405v-2.426z" opacity=".2"/><path d="M397.884 51v3.095h-3.006V51zm0 11.2v3.095h-3.006V62.2zm0 11.203v3.095h-3.006v-3.095zm0 11.199v3.095h-3.006v-3.095zM387.003 51v3.095h-3.006V51zm0 11.2v3.095h-3.006V62.2zm0 11.203v3.095h-3.006v-3.095zm0 11.199v3.095h-3.006v-3.095zM376.125 51v3.095h-3.006V51zm0 11.2v3.095h-3.006V62.2zm0 11.203v3.095h-3.006v-3.095zm0 11.199v3.095h-3.006v-3.095z" opacity=".4"/><path d="M303.338 116.5v4.216h-4.209V116.5zm0 15.256v4.216h-4.209v-4.216zm0 15.26v4.216h-4.209v-4.216zm0 15.256v4.216h-4.209v-4.216zM288.104 116.5v4.216h-4.209V116.5zm0 15.256v4.216h-4.209v-4.216zm0 15.26v4.216h-4.209v-4.216zm0 15.256v4.216h-4.209v-4.216zM272.875 116.5v4.216h-4.209V116.5zm0 15.256v4.216h-4.209v-4.216zm0 15.26v4.216h-4.209v-4.216zm0 15.256v4.216h-4.209v-4.216z" opacity=".15"/><path d="M389.898 438v2.677h-2.646V438zm0 9.686v2.677h-2.646v-2.677zm0 9.689v2.677h-2.646v-2.677zm0 9.687v2.677h-2.646v-2.677zM380.323 438v2.677h-2.646V438zm0 9.686v2.677h-2.646v-2.677zm0 9.689v2.677h-2.646v-2.677zm0 9.687v2.677h-2.646v-2.677zM370.75 438v2.677h-2.646V438zm0 9.686v2.677h-2.646v-2.677zm0 9.689v2.677h-2.646v-2.677zm0 9.687v2.677h-2.646v-2.677z" opacity=".2"/><path d="M271.361 428.5v3.597h-3.607V428.5zm0 13.016v3.597h-3.607v-3.597zm0 13.02v3.597h-3.607v-3.597zm0 13.015v3.597h-3.607v-3.597zM258.304 428.5v3.597h-3.607V428.5zm0 13.016v3.597h-3.607v-3.597zm0 13.02v3.597h-3.607v-3.597zm0 13.015v3.597h-3.607v-3.597zM245.25 428.5v3.597h-3.607V428.5zm0 13.016v3.597h-3.607v-3.597zm0 13.02v3.597h-3.607v-3.597zm0 13.015v3.597h-3.607v-3.597z" opacity=".25"/><path d="M327.884 492v3.011h-3.006V492zm0 10.897v3.011h-3.006v-3.011zm0 10.9v3.011h-3.006v-3.011zm0 10.897v3.011h-3.006v-3.011zM317.003 492v3.011h-3.006V492zm0 10.897v3.011h-3.006v-3.011zm0 10.9v3.011h-3.006v-3.011zm0 10.897v3.011h-3.006v-3.011zM306.125 492v3.011h-3.006V492zm0 10.897v3.011h-3.006v-3.011zm0 10.9v3.011h-3.006v-3.011zm0 10.897v3.011h-3.006v-3.011z" opacity=".15"/><path d="M405.361 506.5v3.597h-3.607V506.5zm0 13.016v3.597h-3.607v-3.597zm0 13.02v3.597h-3.607v-3.597zm0 13.015v3.597h-3.607v-3.597zM392.304 506.5v3.597h-3.607V506.5zm0 13.016v3.597h-3.607v-3.597zm0 13.02v3.597h-3.607v-3.597zm0 13.015v3.597h-3.607v-3.597zM379.25 506.5v3.597h-3.607V506.5zm0 13.016v3.597h-3.607v-3.597zm0 13.02v3.597h-3.607v-3.597zm0 13.015v3.597h-3.607v-3.597z" opacity=".2"/><g opacity=".3"><path d="M112 338.272h6.988v-1.958H112z"/><path d="M116.455 340.853v-7.122h-1.92v7.122zM112 325.096h6.988v-1.958H112z"/><path d="M114.534 327.676h1.921v-7.121h-1.921zM112 311.921h6.988v-1.958H112z"/><path d="M116.455 314.502v-7.122h-1.92v7.122zM112 298.744h6.988v-1.958H112z"/><path d="M116.456 301.327v-7.122h-1.921v7.122z"/></g><g opacity=".3"><path d="M95 103.866h7.986v-2.249H95z"/><path d="M100.092 106.831V98.65h-2.195v8.182zM95 88.727h7.986v-2.249H95z"/><path d="M97.896 91.692h2.195V83.51h-2.195zM95 73.59h7.986v-2.249H95z"/><path d="M100.092 76.555v-8.182h-2.196v8.182zM95 58.451h7.986v-2.249H95z"/><path d="M100.092 61.418v-8.182h-2.195v8.182z"/></g><g opacity=".302" transform="translate(449 69)"><ellipse cx="4.498" cy="30.541" rx="3.281" ry="3.23"/><ellipse transform="rotate(-80.78 4.513 17.497)" cx="4.513" cy="17.497" rx="3.231" ry="3.28"/><ellipse transform="rotate(-22.5 4.498 4.427)" cx="4.498" cy="4.427" rx="3.274" ry="3.238"/></g><g opacity=".302" transform="translate(227 356)"><ellipse cx="3.498" cy="24.253" rx="2.552" ry="2.565"/><ellipse transform="rotate(-80.78 3.51 13.894)" cx="3.51" cy="13.894" rx="2.565" ry="2.552"/><ellipse transform="rotate(-22.5 3.499 3.516)" cx="3.499" cy="3.516" rx="2.554" ry="2.563"/></g><g opacity=".083" transform="translate(197 306)"><ellipse cx="3.498" cy="24.253" rx="2.552" ry="2.565"/><ellipse transform="rotate(-80.78 3.51 13.894)" cx="3.51" cy="13.894" rx="2.565" ry="2.552"/><ellipse transform="rotate(-22.5 3.499 3.516)" cx="3.499" cy="3.516" rx="2.554" ry="2.563"/></g><g opacity=".2" transform="translate(77 286)"><ellipse cx="3.498" cy="24.253" rx="2.552" ry="2.565"/><ellipse transform="rotate(-80.78 3.51 13.894)" cx="3.51" cy="13.894" rx="2.565" ry="2.552"/><ellipse transform="rotate(-22.5 3.499 3.516)" cx="3.499" cy="3.516" rx="2.554" ry="2.563"/></g><g opacity=".25" transform="translate(524 504)"><ellipse cx="5.397" cy="36.649" rx="3.938" ry="3.876"/><ellipse transform="rotate(-80.78 5.415 20.996)" cx="5.415" cy="20.996" rx="3.878" ry="3.936"/><ellipse transform="rotate(-22.5 5.398 5.313)" cx="5.398" cy="5.313" rx="3.929" ry="3.885"/></g><g opacity=".15" transform="translate(499 291)"><ellipse cx="5.397" cy="36.649" rx="3.938" ry="3.876"/><ellipse transform="rotate(-80.78 5.415 20.996)" cx="5.415" cy="20.996" rx="3.878" ry="3.936"/><ellipse transform="rotate(-22.5 5.398 5.313)" cx="5.398" cy="5.313" rx="3.929" ry="3.885"/></g><g opacity=".05" transform="translate(527 237)"><ellipse cx="3.498" cy="24.253" rx="2.552" ry="2.565"/><ellipse transform="rotate(-80.78 3.51 13.894)" cx="3.51" cy="13.894" rx="2.565" ry="2.552"/><ellipse transform="rotate(-22.5 3.499 3.516)" cx="3.499" cy="3.516" rx="2.554" ry="2.563"/></g><g opacity=".3"><path d="M427 518.112h9.982v-2.791H427z"/><path d="M433.365 521.79v-10.15h-2.744v10.15zM427 499.328h9.982v-2.791H427z"/><path d="M430.621 503.007h2.744v-10.152h-2.744zM427 480.547h9.982v-2.791H427z"/><path d="M433.365 484.226v-10.151h-2.744v10.15zM427 461.763h9.982v-2.791H427z"/><path d="M433.365 465.445v-10.151h-2.744v10.15z"/></g><g opacity=".2"><path d="M224 132.866h7.986v-2.249H224z"/><path d="M229.092 135.831v-8.182h-2.195v8.182zM224 117.727h7.986v-2.249H224z"/><path d="M226.896 120.692h2.195v-8.182h-2.195zM224 102.59h7.986v-2.249H224z"/><path d="M229.092 105.555v-8.182h-2.196v8.182zM224 87.451h7.986v-2.249H224z"/><path d="M229.092 90.418v-8.182h-2.195v8.182z"/></g><g opacity=".1"><path d="M523 417.866h7.986v-2.249H523z"/><path d="M528.092 420.831v-8.182h-2.195v8.182zM523 402.727h7.986v-2.249H523z"/><path d="M525.896 405.692h2.195v-8.182h-2.195zM523 387.59h7.986v-2.249H523z"/><path d="M528.092 390.555v-8.182h-2.196v8.182zM523 372.451h7.986v-2.249H523z"/><path d="M528.092 375.418v-8.182h-2.195v8.182z"/></g><g opacity=".119"><path d="M30 279.239h9.583v-2.699H30z"/><path d="M36.11 282.797v-9.818h-2.634v9.818zM30 261.072h9.583v-2.699H30z"/><path d="M33.476 264.63h2.634v-9.818h-2.634zM30 242.908h9.583v-2.699H30z"/><path d="M36.11 246.466v-9.818h-2.634v9.818zM30 224.741h9.583v-2.699H30z"/><path d="M36.11 228.302v-9.818h-2.634v9.818z"/></g><g opacity=".3"><path d="M304 444.272h6.988v-1.958H304z"/><path d="M308.455 446.853v-7.122h-1.92v7.122zM304 431.096h6.988v-1.958H304z"/><path d="M306.534 433.676h1.921v-7.121h-1.921zM304 417.921h6.988v-1.958H304z"/><path d="M308.455 420.502v-7.122h-1.92v7.122zM304 404.744h6.988v-1.958H304z"/><path d="M308.456 407.327v-7.122h-1.921v7.122z"/></g><g opacity=".3"><path d="M479 50.272h6.988v-1.958H479z"/><path d="M483.455 52.853v-7.122h-1.92v7.122zM479 37.096h6.988v-1.958H479z"/><path d="M481.534 39.676h1.921v-7.121h-1.921zM479 23.921h6.988v-1.958H479z"/><path d="M483.455 26.502V19.38h-1.92v7.122zM479 10.744h6.988V8.786H479z"/><path d="M483.456 13.327V6.205h-1.921v7.122z"/></g><g opacity=".3"><path d="M414 188.866h7.986v-2.249H414z"/><path d="M419.092 191.831v-8.182h-2.195v8.182zM414 173.727h7.986v-2.249H414z"/><path d="M416.896 176.692h2.195v-8.182h-2.195zM414 158.59h7.986v-2.249H414z"/><path d="M419.092 161.555v-8.182h-2.196v8.182zM414 143.451h7.986v-2.249H414z"/><path d="M419.092 146.418v-8.182h-2.195v8.182z"/></g><path d="M306.878 28v3.212h-3.175V28zm0 11.624v3.212h-3.175v-3.212zm0 11.626v3.212h-3.175V51.25zm0 11.624v3.212h-3.175v-3.212zM295.387 28v3.212h-3.175V28zm0 11.624v3.212h-3.175v-3.212zm0 11.626v3.212h-3.175V51.25zm0 11.624v3.212h-3.175v-3.212zM283.9 28v3.212h-3.175V28zm0 11.624v3.212h-3.175v-3.212zm0 11.626v3.212h-3.175V51.25zm0 11.624v3.212h-3.175v-3.212z" opacity=".35"/><path d="M163.368 14.5v3.48h-3.439V14.5zm0 12.592v3.48h-3.439v-3.48zm0 12.596v3.48h-3.439v-3.48zm0 12.592v3.48h-3.439v-3.48zM150.92 14.5v3.48h-3.439V14.5zm0 12.592v3.48h-3.439v-3.48zm0 12.596v3.48h-3.439v-3.48zm0 12.592v3.48h-3.439v-3.48zM138.475 14.5v3.48h-3.439V14.5zm0 12.592v3.48h-3.439v-3.48zm0 12.596v3.48h-3.439v-3.48zm0 12.592v3.48h-3.439v-3.48z" opacity=".153"/><g opacity=".3"><path d="M260.23 303.384l1.885 1.849-6.41 6.287-1.887-1.85z"/><path d="M255.704 303.384l6.41 6.286-1.884 1.85-6.412-6.287zm-5.322-9.657l-6.411 6.287-1.886-1.85 6.411-6.286z"/><path d="M248.496 300.013l-6.411-6.286 1.885-1.85 6.412 6.287zm13.619 30.323l-6.411 6.286-1.886-1.849 6.411-6.287z"/><path d="M260.23 336.623l-6.412-6.287 1.886-1.85 6.411 6.287zm-11.734-19.643l1.886 1.85-6.412 6.286-1.885-1.849z"/><path d="M243.97 316.458l6.412 6.286-1.886 1.85-6.41-6.287z"/></g><g opacity=".3"><path d="M358.23 20.384l1.885 1.849-6.41 6.287-1.887-1.85z"/><path d="M353.704 20.384l6.41 6.286-1.884 1.85-6.412-6.287zm-5.322-9.657l-6.411 6.287-1.886-1.85 6.411-6.286z"/><path d="M346.496 17.013l-6.411-6.286 1.885-1.85 6.412 6.287zm13.619 30.323l-6.411 6.286-1.886-1.849 6.411-6.287z"/><path d="M358.23 53.623l-6.412-6.287 1.886-1.85 6.411 6.287zM346.496 33.98l1.886 1.85-6.412 6.286-1.885-1.849z"/><path d="M341.97 33.458l6.412 6.286-1.886 1.85-6.41-6.287z"/></g><g opacity=".3"><path d="M98.511 509.163l2.067 2.048-7.028 6.964-2.066-2.048z"/><path d="M93.55 509.163l7.028 6.964-2.067 2.048-7.027-6.963zm-5.833-10.696l-7.028 6.963-2.067-2.048 7.028-6.964z"/><path d="M85.65 505.43l-7.028-6.963 2.067-2.049 7.027 6.964zm14.928 33.588l-7.028 6.964-2.067-2.049 7.028-6.963z"/><path d="M98.511 545.982l-7.027-6.964 2.067-2.048 7.027 6.963zM85.65 524.225l2.066 2.048-7.027 6.964-2.067-2.048z"/><path d="M80.69 523.646l7.027 6.963-2.067 2.049-7.028-6.965z"/></g><g opacity=".398"><path d="M530.863 103.38l1.36 1.382-4.624 4.698-1.36-1.382z"/><path d="M527.599 103.38l4.623 4.697-1.36 1.383-4.623-4.698zm-3.839-7.216l-4.622 4.698-1.36-1.382 4.623-4.697z"/><path d="M522.4 100.861l-4.622-4.698 1.36-1.38 4.623 4.697zm9.823 22.659l-4.624 4.697-1.36-1.38 4.623-4.699z"/><path d="M530.863 128.218l-4.624-4.698 1.36-1.381 4.623 4.698zm-8.462-14.678l1.36 1.382-4.624 4.698-1.36-1.382z"/><path d="M519.137 113.15l4.623 4.698-1.359 1.381-4.623-4.697z"/></g><g opacity=".182"><path d="M108.971 154.597l1.27 1.259-4.315 4.284-1.27-1.26z"/><path d="M105.926 154.596l4.315 4.284-1.269 1.26-4.316-4.284zm-3.582-6.579l-4.316 4.283-1.269-1.26 4.315-4.283z"/><path d="M101.074 152.3l-4.315-4.283 1.27-1.26 4.315 4.284zm9.166 20.66l-4.314 4.283-1.27-1.26 4.316-4.283z"/><path d="M108.971 177.243l-4.315-4.284 1.27-1.26 4.315 4.284zm-7.897-13.383l1.27 1.26-4.315 4.283-1.27-1.259z"/><path d="M98.028 163.504l4.316 4.283-1.27 1.261-4.314-4.284z"/></g><g opacity=".182"><path d="M478.971 526.597l1.27 1.259-4.315 4.284-1.27-1.26z"/><path d="M475.926 526.596l4.315 4.284-1.269 1.26-4.316-4.284zm-3.582-6.579l-4.316 4.283-1.269-1.26 4.315-4.283z"/><path d="M471.074 524.3l-4.315-4.283 1.27-1.26 4.315 4.284zm9.166 20.66l-4.314 4.283-1.27-1.26 4.316-4.283z"/><path d="M478.971 549.243l-4.315-4.284 1.27-1.26 4.315 4.284zm-7.897-13.383l1.27 1.26-4.315 4.283-1.27-1.259z"/><path d="M468.028 535.504l4.316 4.283-1.27 1.261-4.314-4.284z"/></g><g opacity=".182"><path d="M246.166 20.716l1.523 1.512-5.178 5.14-1.523-1.512z"/><path d="M242.51 20.715l5.179 5.14-1.523 1.512-5.178-5.14zm-4.298-7.895l-5.178 5.14-1.523-1.512 5.178-5.14z"/><path d="M236.69 17.96l-5.179-5.14 1.523-1.512 5.179 5.14zm10.999 24.792l-5.178 5.14-1.523-1.512 5.178-5.14z"/><path d="M246.166 47.892l-5.179-5.14 1.524-1.513 5.178 5.14zm-9.476-16.06l1.522 1.512-5.178 5.14-1.523-1.512z"/><path d="M233.034 31.405l5.178 5.14-1.523 1.512-5.178-5.14z"/></g><path d="M212 521.194l8.438-4.441v1.892a.748.748 0 0 1-.107.393.864.864 0 0 1-.352.306l-3.867 2c-.163.086-.335.16-.516.22a7.08 7.08 0 0 1-.581.167c.206.05.4.106.58.167.182.06.354.134.517.22l3.867 2.011c.164.086.28.188.352.306.071.119.107.25.107.393v1.892L212 522.27v-1.075zm13.2 7.817a1.575 1.575 0 0 1-.245.43c-.1.122-.214.224-.341.306a1.6 1.6 0 0 1-.405.188 1.43 1.43 0 0 1-.416.065h-1.108l6.222-16.065c.12-.3.295-.532.522-.693.227-.161.5-.242.82-.242h1.119l-6.168 16.01zm8.363-2.29v-1.893c0-.143.035-.274.106-.393a.864.864 0 0 1 .352-.306l3.867-2.01a5.044 5.044 0 0 1 1.097-.388c-.206-.05-.4-.106-.58-.166a3.506 3.506 0 0 1-.517-.22l-3.867-2a.864.864 0 0 1-.352-.307.748.748 0 0 1-.107-.393v-1.892l8.438 4.44v1.076l-8.438 4.451z" opacity=".425"/><path d="M425.104 330.312l9.504-4.956v2.112c0 .16-.04.306-.12.438a.97.97 0 0 1-.396.342l-4.356 2.232a3.97 3.97 0 0 1-.582.246c-.204.068-.422.13-.654.186.232.056.45.118.654.186.204.068.398.15.582.246l4.356 2.244a.97.97 0 0 1 .396.342c.08.132.12.278.12.438v2.112l-9.504-4.968v-1.2zm14.868 8.724a1.753 1.753 0 0 1-.276.48c-.112.136-.24.25-.384.342a1.81 1.81 0 0 1-.456.21c-.16.048-.316.072-.468.072h-1.248l7.008-17.928c.136-.336.332-.594.588-.774.256-.18.564-.27.924-.27h1.26l-6.948 17.868zm9.42-2.556v-2.112c0-.16.04-.306.12-.438a.97.97 0 0 1 .396-.342l4.356-2.244c.352-.176.764-.32 1.236-.432a8.024 8.024 0 0 1-.654-.186 3.97 3.97 0 0 1-.582-.246l-4.356-2.232a.97.97 0 0 1-.396-.342.829.829 0 0 1-.12-.438v-2.112l9.504 4.956v1.2l-9.504 4.968z" opacity=".4"/><path d="M133.92 209.76l7.92-4.13v1.76a.69.69 0 0 1-.1.365.809.809 0 0 1-.33.285l-3.63 1.86c-.153.08-.315.148-.485.205-.17.057-.352.108-.545.155.193.047.375.098.545.155.17.057.332.125.485.205l3.63 1.87c.153.08.263.175.33.285.067.11.1.232.1.365v1.76l-7.92-4.14v-1zm12.39 7.27a1.373 1.373 0 0 1-.55.685c-.12.077-.247.135-.38.175a1.35 1.35 0 0 1-.39.06h-1.04l5.84-14.94a1.41 1.41 0 0 1 .49-.645c.213-.15.47-.225.77-.225h1.05l-5.79 14.89zm7.85-2.13v-1.76a.69.69 0 0 1 .1-.365.809.809 0 0 1 .33-.285l3.63-1.87a4.764 4.764 0 0 1 1.03-.36 6.686 6.686 0 0 1-.545-.155 3.308 3.308 0 0 1-.485-.205l-3.63-1.86a.809.809 0 0 1-.33-.285.69.69 0 0 1-.1-.365v-1.76l7.92 4.13v1l-7.92 4.14zM317 236.157l9.563-4.963v2.115c0 .16-.04.307-.121.439a.975.975 0 0 1-.399.342l-4.382 2.236c-.186.096-.38.178-.586.246a8.13 8.13 0 0 1-.658.186c.233.056.453.119.658.187.205.068.4.15.586.246l4.382 2.247c.185.096.318.21.399.343.08.132.12.278.12.438v2.116L317 237.359v-1.202zm14.96 8.737a1.754 1.754 0 0 1-.278.481 1.68 1.68 0 0 1-.387.343 1.824 1.824 0 0 1-.458.21 1.642 1.642 0 0 1-.471.072h-1.256l7.051-17.954c.137-.337.334-.595.592-.776.257-.18.567-.27.93-.27h1.267l-6.99 17.894zm9.478-2.56v-2.115c0-.16.04-.306.12-.438a.975.975 0 0 1 .399-.343l4.382-2.247a5.77 5.77 0 0 1 1.244-.433 8.102 8.102 0 0 1-.658-.186c-.205-.068-.4-.15-.586-.246l-4.382-2.236a.975.975 0 0 1-.399-.342.827.827 0 0 1-.12-.439v-2.115l9.562 4.963v1.202l-9.563 4.976z" opacity=".2"/><path d="M469 488.194l8.438-4.441v1.892a.748.748 0 0 1-.107.393.864.864 0 0 1-.352.306l-3.867 2c-.163.086-.335.16-.516.22a7.08 7.08 0 0 1-.581.167c.206.05.4.106.58.167.182.06.354.134.517.22l3.867 2.011c.164.086.28.188.352.306.071.119.106.25.106.393v1.892L469 489.27v-1.075zm13.2 7.817a1.575 1.575 0 0 1-.245.43c-.1.122-.214.224-.341.306a1.6 1.6 0 0 1-.405.188 1.43 1.43 0 0 1-.416.065h-1.108l6.222-16.065c.12-.3.295-.532.522-.693.227-.161.5-.242.82-.242h1.119l-6.168 16.01zm8.363-2.29v-1.893c0-.143.035-.274.106-.393a.864.864 0 0 1 .352-.306l3.867-2.01a5.044 5.044 0 0 1 1.097-.388c-.206-.05-.4-.106-.58-.166a3.506 3.506 0 0 1-.517-.22l-3.867-2a.864.864 0 0 1-.352-.307.748.748 0 0 1-.106-.393v-1.892l8.437 4.44v1.076l-8.438 4.451z" opacity=".15"/><path d="M486 215.62l7.92-4.13v1.76a.69.69 0 0 1-.1.365.809.809 0 0 1-.33.285l-3.63 1.86c-.153.08-.315.148-.485.205-.17.057-.352.108-.545.155.193.047.375.098.545.155.17.057.332.125.485.205l3.63 1.87c.153.08.263.175.33.285.067.11.1.232.1.365v1.76l-7.92-4.14v-1zm12.39 7.27a1.373 1.373 0 0 1-.55.685c-.12.077-.247.135-.38.175a1.35 1.35 0 0 1-.39.06h-1.04l5.84-14.94a1.41 1.41 0 0 1 .49-.645c.213-.15.47-.225.77-.225h1.05l-5.79 14.89zm7.85-2.13V219a.69.69 0 0 1 .1-.365.809.809 0 0 1 .33-.285l3.63-1.87a4.764 4.764 0 0 1 1.03-.36 6.686 6.686 0 0 1-.545-.155 3.308 3.308 0 0 1-.485-.205l-3.63-1.86a.809.809 0 0 1-.33-.285.69.69 0 0 1-.1-.365v-1.76l7.92 4.13v1l-7.92 4.14z" opacity=".2"/><path d="M278 370.266l6.469-3.396v1.447a.57.57 0 0 1-.082.3.662.662 0 0 1-.27.234l-2.964 1.53a2.692 2.692 0 0 1-.396.168 5.27 5.27 0 0 1-.446.128c.158.038.307.08.446.127.138.047.27.103.396.169l2.965 1.537a.662.662 0 0 1 .27.235.57.57 0 0 1 .08.3v1.447L278 371.088v-.822zm10.12 5.978a1.203 1.203 0 0 1-.188.328 1.117 1.117 0 0 1-.262.235 1.228 1.228 0 0 1-.31.144 1.094 1.094 0 0 1-.318.049h-.85l4.77-12.285a1.16 1.16 0 0 1 .4-.53 1.06 1.06 0 0 1 .63-.185h.857l-4.73 12.244zm6.411-1.752v-1.447c0-.11.027-.21.082-.3a.662.662 0 0 1 .27-.235l2.964-1.537c.24-.12.52-.22.842-.296a5.433 5.433 0 0 1-.446-.128 2.692 2.692 0 0 1-.396-.168l-2.965-1.53a.662.662 0 0 1-.27-.234.57.57 0 0 1-.08-.3v-1.447l6.468 3.396v.822l-6.469 3.404z" opacity=".3"/><path d="M422 25.194l8.438-4.441v1.892a.748.748 0 0 1-.107.393.864.864 0 0 1-.352.306l-3.867 2c-.163.086-.335.16-.516.22a7.08 7.08 0 0 1-.581.167c.206.05.4.106.58.167.182.06.354.134.517.22l3.867 2.011c.164.086.28.188.352.306.071.119.106.25.106.393v1.892L422 26.27v-1.075zm13.2 7.817a1.575 1.575 0 0 1-.245.43c-.1.122-.214.224-.341.306a1.6 1.6 0 0 1-.405.188 1.43 1.43 0 0 1-.416.065h-1.108l6.222-16.065c.12-.3.295-.532.522-.693.227-.161.5-.242.82-.242h1.119L435.2 33.01zm8.363-2.29v-1.893c0-.143.035-.274.106-.393a.864.864 0 0 1 .352-.306l3.867-2.01a5.044 5.044 0 0 1 1.097-.388c-.206-.05-.4-.106-.58-.166a3.506 3.506 0 0 1-.517-.22l-3.867-2a.864.864 0 0 1-.352-.307.748.748 0 0 1-.106-.393v-1.892l8.437 4.44v1.076l-8.438 4.451z" opacity=".371"/><path d="M24 328.62l7.92-4.13v1.76a.69.69 0 0 1-.1.365.809.809 0 0 1-.33.285l-3.63 1.86c-.153.08-.315.148-.485.205-.17.057-.352.108-.545.155.193.047.375.098.545.155.17.057.332.125.485.205l3.63 1.87c.153.08.263.175.33.285.067.11.1.232.1.365v1.76L24 329.62v-1zm12.39 7.27a1.373 1.373 0 0 1-.55.685c-.12.077-.247.135-.38.175a1.35 1.35 0 0 1-.39.06h-1.04l5.84-14.94a1.41 1.41 0 0 1 .49-.645c.213-.15.47-.225.77-.225h1.05l-5.79 14.89zm7.85-2.13V332a.69.69 0 0 1 .1-.365.809.809 0 0 1 .33-.285l3.63-1.87a4.764 4.764 0 0 1 1.03-.36 6.686 6.686 0 0 1-.545-.155 3.308 3.308 0 0 1-.485-.205l-3.63-1.86a.809.809 0 0 1-.33-.285.69.69 0 0 1-.1-.365v-1.76l7.92 4.13v1l-7.92 4.14z" opacity=".2"/><g opacity=".3"><path d="M419 291.504h5.989v-1.791H419z"/><path d="M422.819 293.866v-6.515h-1.646v6.515zM419 279.449h5.989v-1.791H419z"/><path d="M421.172 281.81h1.646v-6.515h-1.646zM419 267.396h5.989v-1.791H419z"/><path d="M422.818 269.757v-6.515h-1.646v6.515zM419 255.34h5.989v-1.791H419z"/><path d="M422.819 257.703v-6.515h-1.646v6.515z"/></g><g opacity=".255" transform="translate(281 264)"><ellipse cx="1.242" cy="1.258" rx="1.242" ry="1.258"/><ellipse cx="9.345" cy="1.258" rx="1.242" ry="1.258"/><ellipse cx="17.448" cy="1.258" rx="1.242" ry="1.258"/><ellipse cx="25.551" cy="1.258" rx="1.242" ry="1.258"/><ellipse cx="1.242" cy="8.379" rx="1.242" ry="1.258"/><ellipse cx="9.345" cy="8.379" rx="1.242" ry="1.258"/><ellipse cx="17.448" cy="8.379" rx="1.242" ry="1.258"/><ellipse cx="25.551" cy="8.379" rx="1.242" ry="1.258"/><ellipse cx="1.242" cy="15.503" rx="1.242" ry="1.258"/><ellipse cx="9.345" cy="15.503" rx="1.242" ry="1.258"/><ellipse cx="17.448" cy="15.503" rx="1.242" ry="1.258"/><ellipse cx="25.551" cy="15.503" rx="1.242" ry="1.258"/><ellipse cx="1.242" cy="22.624" rx="1.242" ry="1.258"/><ellipse cx="9.345" cy="22.624" rx="1.242" ry="1.258"/><ellipse cx="17.448" cy="22.624" rx="1.242" ry="1.258"/><ellipse cx="25.551" cy="22.624" rx="1.242" ry="1.258"/></g><g opacity=".255" transform="translate(14 519)"><ellipse cx="1.49" cy="1.509" rx="1.49" ry="1.509"/><ellipse cx="11.214" cy="1.509" rx="1.49" ry="1.509"/><ellipse cx="20.938" cy="1.509" rx="1.49" ry="1.509"/><ellipse cx="30.661" cy="1.509" rx="1.49" ry="1.509"/><ellipse cx="1.49" cy="10.054" rx="1.49" ry="1.509"/><ellipse cx="11.214" cy="10.054" rx="1.49" ry="1.509"/><ellipse cx="20.938" cy="10.054" rx="1.49" ry="1.509"/><ellipse cx="30.661" cy="10.054" rx="1.49" ry="1.509"/><ellipse cx="1.49" cy="18.603" rx="1.49" ry="1.509"/><ellipse cx="11.214" cy="18.603" rx="1.49" ry="1.509"/><ellipse cx="20.938" cy="18.603" rx="1.49" ry="1.509"/><ellipse cx="30.661" cy="18.603" rx="1.49" ry="1.509"/><ellipse cx="1.49" cy="27.149" rx="1.49" ry="1.509"/><ellipse cx="11.214" cy="27.149" rx="1.49" ry="1.509"/><ellipse cx="20.938" cy="27.149" rx="1.49" ry="1.509"/><ellipse cx="30.661" cy="27.149" rx="1.49" ry="1.509"/></g><g opacity=".15" transform="translate(368 118)"><ellipse cx="1.242" cy="1.258" rx="1.242" ry="1.258"/><ellipse cx="9.345" cy="1.258" rx="1.242" ry="1.258"/><ellipse cx="17.448" cy="1.258" rx="1.242" ry="1.258"/><ellipse cx="25.551" cy="1.258" rx="1.242" ry="1.258"/><ellipse cx="1.242" cy="8.379" rx="1.242" ry="1.258"/><ellipse cx="9.345" cy="8.379" rx="1.242" ry="1.258"/><ellipse cx="17.448" cy="8.379" rx="1.242" ry="1.258"/><ellipse cx="25.551" cy="8.379" rx="1.242" ry="1.258"/><ellipse cx="1.242" cy="15.503" rx="1.242" ry="1.258"/><ellipse cx="9.345" cy="15.503" rx="1.242" ry="1.258"/><ellipse cx="17.448" cy="15.503" rx="1.242" ry="1.258"/><ellipse cx="25.551" cy="15.503" rx="1.242" ry="1.258"/><ellipse cx="1.242" cy="22.624" rx="1.242" ry="1.258"/><ellipse cx="9.345" cy="22.624" rx="1.242" ry="1.258"/><ellipse cx="17.448" cy="22.624" rx="1.242" ry="1.258"/><ellipse cx="25.551" cy="22.624" rx="1.242" ry="1.258"/></g><g opacity=".15" transform="translate(178 447)"><ellipse cx="1.472" cy="1.52" rx="1.472" ry="1.52"/><ellipse cx="11.076" cy="1.52" rx="1.472" ry="1.52"/><ellipse cx="20.679" cy="1.52" rx="1.472" ry="1.52"/><ellipse cx="30.283" cy="1.52" rx="1.472" ry="1.52"/><ellipse cx="1.472" cy="10.124" rx="1.472" ry="1.52"/><ellipse cx="11.076" cy="10.124" rx="1.472" ry="1.52"/><ellipse cx="20.679" cy="10.124" rx="1.472" ry="1.52"/><ellipse cx="30.283" cy="10.124" rx="1.472" ry="1.52"/><ellipse cx="1.472" cy="18.733" rx="1.472" ry="1.52"/><ellipse cx="11.076" cy="18.733" rx="1.472" ry="1.52"/><ellipse cx="20.679" cy="18.733" rx="1.472" ry="1.52"/><ellipse cx="30.283" cy="18.733" rx="1.472" ry="1.52"/><ellipse cx="1.472" cy="27.337" rx="1.472" ry="1.52"/><ellipse cx="11.076" cy="27.337" rx="1.472" ry="1.52"/><ellipse cx="20.679" cy="27.337" rx="1.472" ry="1.52"/><ellipse cx="30.283" cy="27.337" rx="1.472" ry="1.52"/></g><g opacity=".15" transform="translate(256 525)"><ellipse cx="1.472" cy="1.52" rx="1.472" ry="1.52"/><ellipse cx="11.076" cy="1.52" rx="1.472" ry="1.52"/><ellipse cx="20.679" cy="1.52" rx="1.472" ry="1.52"/><ellipse cx="30.283" cy="1.52" rx="1.472" ry="1.52"/><ellipse cx="1.472" cy="10.124" rx="1.472" ry="1.52"/><ellipse cx="11.076" cy="10.124" rx="1.472" ry="1.52"/><ellipse cx="20.679" cy="10.124" rx="1.472" ry="1.52"/><ellipse cx="30.283" cy="10.124" rx="1.472" ry="1.52"/><ellipse cx="1.472" cy="18.733" rx="1.472" ry="1.52"/><ellipse cx="11.076" cy="18.733" rx="1.472" ry="1.52"/><ellipse cx="20.679" cy="18.733" rx="1.472" ry="1.52"/><ellipse cx="30.283" cy="18.733" rx="1.472" ry="1.52"/><ellipse cx="1.472" cy="27.337" rx="1.472" ry="1.52"/><ellipse cx="11.076" cy="27.337" rx="1.472" ry="1.52"/><ellipse cx="20.679" cy="27.337" rx="1.472" ry="1.52"/><ellipse cx="30.283" cy="27.337" rx="1.472" ry="1.52"/></g><g opacity=".4" transform="translate(16 79)"><ellipse cx="1.766" cy="1.824" rx="1.766" ry="1.824"/><ellipse cx="13.291" cy="1.824" rx="1.766" ry="1.824"/><ellipse cx="24.815" cy="1.824" rx="1.766" ry="1.824"/><ellipse cx="36.339" cy="1.824" rx="1.766" ry="1.824"/><ellipse cx="1.766" cy="12.149" rx="1.766" ry="1.824"/><ellipse cx="13.291" cy="12.149" rx="1.766" ry="1.824"/><ellipse cx="24.815" cy="12.149" rx="1.766" ry="1.824"/><ellipse cx="36.339" cy="12.149" rx="1.766" ry="1.824"/><ellipse cx="1.766" cy="22.479" rx="1.766" ry="1.824"/><ellipse cx="13.291" cy="22.479" rx="1.766" ry="1.824"/><ellipse cx="24.815" cy="22.479" rx="1.766" ry="1.824"/><ellipse cx="36.339" cy="22.479" rx="1.766" ry="1.824"/><ellipse cx="1.766" cy="32.805" rx="1.766" ry="1.824"/><ellipse cx="13.291" cy="32.805" rx="1.766" ry="1.824"/><ellipse cx="24.815" cy="32.805" rx="1.766" ry="1.824"/><ellipse cx="36.339" cy="32.805" rx="1.766" ry="1.824"/></g><g opacity=".1" transform="translate(441 165)"><ellipse cx="1.472" cy="1.52" rx="1.472" ry="1.52"/><ellipse cx="11.076" cy="1.52" rx="1.472" ry="1.52"/><ellipse cx="20.679" cy="1.52" rx="1.472" ry="1.52"/><ellipse cx="30.283" cy="1.52" rx="1.472" ry="1.52"/><ellipse cx="1.472" cy="10.124" rx="1.472" ry="1.52"/><ellipse cx="11.076" cy="10.124" rx="1.472" ry="1.52"/><ellipse cx="20.679" cy="10.124" rx="1.472" ry="1.52"/><ellipse cx="30.283" cy="10.124" rx="1.472" ry="1.52"/><ellipse cx="1.472" cy="18.733" rx="1.472" ry="1.52"/><ellipse cx="11.076" cy="18.733" rx="1.472" ry="1.52"/><ellipse cx="20.679" cy="18.733" rx="1.472" ry="1.52"/><ellipse cx="30.283" cy="18.733" rx="1.472" ry="1.52"/><ellipse cx="1.472" cy="27.337" rx="1.472" ry="1.52"/><ellipse cx="11.076" cy="27.337" rx="1.472" ry="1.52"/><ellipse cx="20.679" cy="27.337" rx="1.472" ry="1.52"/><ellipse cx="30.283" cy="27.337" rx="1.472" ry="1.52"/></g></g></svg>