<svg width="553" height="564" viewBox="0 0 553 564" xmlns="http://www.w3.org/2000/svg"><g fill="#FFF"><g opacity=".4"><path d="M153.478 403.917l4.997 8 5.003-8zm143-156l8.556 14 8.555-14z"/><path opacity=".8" d="M257.978 176.417l9.007 15 8.993-15z"/><path d="M224.978 72.417l7.496 14 7.504-14zm64 322l5 9 5-9zm-173.5-354.5l-7.5-13-7.5 13zm244.5-31.5l-4.501-8-4.499 8zm-208 190l-6.505-10-6.495 10zm7 51l-4.499-8-4.5 8z"/><path opacity=".5" d="M221.978 321.417l-4.995-9-5.005 9z"/></g><path d="M474.1 186.738l5.596 9.596 5.604-9.596zM481.3 10.8l-5.199-8.797L470.9 10.8zm71.2 82.37l-5.994-10.396-6.006 10.397zM17.548 185.68l5.596-9.597 5.604 9.596zm163.2 178.337l9.85-16 9.85 16zm-42.8 81.971l10.007-17.594 9.993 17.594zm-38.8 117.958l8.795-15.994 8.805 15.994zm73.2-367.47l5.6-10.397 5.6 10.397zm-156.8 223.121l-7.206 11.996-7.194-11.996zm9.2-57.98l-5.199 8.797-5.201-8.797zm71.2-82.371l-5.994 10.397-6.006-10.397z" opacity=".15"/><path d="M267.1 75.262l5.596-9.596 5.604 9.596zM430.3 253.6l11.08-18 11.082 18zm-42.8 81.97l7.963-14 7.952 14zm-38.8 117.959l8.795-15.994 8.805 15.994zm73.2-367.47l5.6-10.397 5.6 10.397zm-40-30l5.6-10.397 5.6 10.397zM265.1 309.18l-7.205 11.996-7.195-11.996zm9.2-57.98l-5.199 8.797-5.201-8.797zm71.2-82.37l-5.994 10.396-6.006-10.397z" opacity=".1"/><path d="M17.1 45.262l5.596-9.596 5.604 9.596zM137.5 305.57l7.963-14 7.952 14zM98.7 423.529l8.795-15.994 8.805 15.994zm73.2-367.47l5.6-10.397 5.6 10.397zm-40-30l5.6-10.397 5.6 10.397zM15.1 279.18l-7.205 11.996L.7 279.18zm9.2-57.98l-5.199 8.797L13.9 221.2zm71.2-82.37l-5.994 10.396-6.006-10.397z" opacity=".15"/><path d="M387.916 390.824l-5.597 9.596-5.603-9.596zm-120.4-260.309l-7.964 14-7.951-14zm38.8-117.958l-8.795 15.994-8.805-15.994zm-73.2 367.47l-5.6 10.397-5.6-10.397zm40 30l-5.6 10.397-5.6-10.397zm116.8-253.121l7.205-11.996 7.195 11.996zm-9.2 57.98l5.198-8.797 5.202 8.797zm-71.2 82.371l5.993-10.397 6.007 10.397z" opacity=".05"/><g opacity=".2"><path opacity=".706" d="M341.1 104.262l5.596-9.596 5.604 9.596zm163.2 173.545l7.5-12 7.5 12zm-42.8 86.763l7.963-14 7.952 14zm-38.8 117.959l8.795-15.994 8.805 15.994zm73.2-367.47l5.6-10.397 5.6 10.397zM298.3 520.516l-8.4 14.394-8.4-14.394zm249.2 5.147l-5.075 8.838-5.073-8.838zM339.1 338.18l-7.205 11.996-7.195-11.996zm9.2-57.98l-5.199 8.797-5.201-8.797zm71.2-82.37l-5.994 10.396-6.006-10.397z"/></g></g></svg>